%TF.GenerationSoftware,KiCad,Pcbnew,7.0.6*%
%TF.CreationDate,2023-09-19T12:35:55+08:00*%
%TF.ProjectId,Control Panel Motherboard,436f6e74-726f-46c2-9050-616e656c204d,0*%
%TF.SameCoordinates,Original*%
%TF.FileFunction,Copper,L1,Top*%
%TF.FilePolarity,Positive*%
%FSLAX46Y46*%
G04 Gerber Fmt 4.6, Leading zero omitted, Abs format (unit mm)*
G04 Created by KiCad (PCBNEW 7.0.6) date 2023-09-19 12:35:55*
%MOMM*%
%LPD*%
G01*
G04 APERTURE LIST*
G04 Aperture macros list*
%AMRoundRect*
0 Rectangle with rounded corners*
0 $1 Rounding radius*
0 $2 $3 $4 $5 $6 $7 $8 $9 X,Y pos of 4 corners*
0 Add a 4 corners polygon primitive as box body*
4,1,4,$2,$3,$4,$5,$6,$7,$8,$9,$2,$3,0*
0 Add four circle primitives for the rounded corners*
1,1,$1+$1,$2,$3*
1,1,$1+$1,$4,$5*
1,1,$1+$1,$6,$7*
1,1,$1+$1,$8,$9*
0 Add four rect primitives between the rounded corners*
20,1,$1+$1,$2,$3,$4,$5,0*
20,1,$1+$1,$4,$5,$6,$7,0*
20,1,$1+$1,$6,$7,$8,$9,0*
20,1,$1+$1,$8,$9,$2,$3,0*%
G04 Aperture macros list end*
%TA.AperFunction,ComponentPad*%
%ADD10C,1.700000*%
%TD*%
%TA.AperFunction,ComponentPad*%
%ADD11RoundRect,0.250000X-0.600000X0.600000X-0.600000X-0.600000X0.600000X-0.600000X0.600000X0.600000X0*%
%TD*%
%TA.AperFunction,ComponentPad*%
%ADD12C,1.800000*%
%TD*%
%TA.AperFunction,ComponentPad*%
%ADD13R,1.800000X1.800000*%
%TD*%
%TA.AperFunction,ComponentPad*%
%ADD14R,3.000000X3.000000*%
%TD*%
%TA.AperFunction,ComponentPad*%
%ADD15C,3.000000*%
%TD*%
%TA.AperFunction,ComponentPad*%
%ADD16C,1.400000*%
%TD*%
%TA.AperFunction,ComponentPad*%
%ADD17O,1.400000X1.400000*%
%TD*%
%TA.AperFunction,ComponentPad*%
%ADD18R,1.600000X1.600000*%
%TD*%
%TA.AperFunction,ComponentPad*%
%ADD19O,1.600000X1.600000*%
%TD*%
%TA.AperFunction,ComponentPad*%
%ADD20RoundRect,0.250000X0.600000X0.600000X-0.600000X0.600000X-0.600000X-0.600000X0.600000X-0.600000X0*%
%TD*%
%TA.AperFunction,Conductor*%
%ADD21C,0.250000*%
%TD*%
%TA.AperFunction,Conductor*%
%ADD22C,0.750000*%
%TD*%
G04 APERTURE END LIST*
D10*
%TO.P,IDC_RF1,10,Pin_10*%
%TO.N,/C_OFF*%
X36478400Y-59563000D03*
%TO.P,IDC_RF1,9,Pin_9*%
%TO.N,/C_ON*%
X36478400Y-57023000D03*
%TO.P,IDC_RF1,8,Pin_8*%
%TO.N,/D_ON*%
X39018400Y-59563000D03*
%TO.P,IDC_RF1,7,Pin_7*%
%TO.N,/B_OFF*%
X39018400Y-57023000D03*
%TO.P,IDC_RF1,6,Pin_6*%
%TO.N,/D_OFF*%
X41558400Y-59563000D03*
%TO.P,IDC_RF1,5,Pin_5*%
%TO.N,/B_ON*%
X41558400Y-57023000D03*
%TO.P,IDC_RF1,4,Pin_4*%
%TO.N,/3V3*%
X44098400Y-59563000D03*
%TO.P,IDC_RF1,3,Pin_3*%
%TO.N,/A_OFF*%
X44098400Y-57023000D03*
%TO.P,IDC_RF1,2,Pin_2*%
%TO.N,/GND*%
X46638400Y-59563000D03*
D11*
%TO.P,IDC_RF1,1,Pin_1*%
%TO.N,/A_ON*%
X46638400Y-57023000D03*
%TD*%
D12*
%TO.P,D8,2,A*%
%TO.N,/D_OFF*%
X30434000Y-47549600D03*
D13*
%TO.P,D8,1,K*%
%TO.N,Net-(D8-K)*%
X30434000Y-45009600D03*
%TD*%
D12*
%TO.P,D7,2,A*%
%TO.N,/D_ON*%
X33609000Y-52049600D03*
D13*
%TO.P,D7,1,K*%
%TO.N,Net-(D7-K)*%
X33609000Y-49509600D03*
%TD*%
D12*
%TO.P,D6,2,A*%
%TO.N,/C_OFF*%
X36784000Y-47549600D03*
D13*
%TO.P,D6,1,K*%
%TO.N,Net-(D6-K)*%
X36784000Y-45009600D03*
%TD*%
D12*
%TO.P,D5,2,A*%
%TO.N,/C_ON*%
X39959000Y-52049600D03*
D13*
%TO.P,D5,1,K*%
%TO.N,Net-(D5-K)*%
X39959000Y-49509600D03*
%TD*%
%TO.P,D4,1,K*%
%TO.N,Net-(D4-K)*%
X43134000Y-45009600D03*
D12*
%TO.P,D4,2,A*%
%TO.N,/B_OFF*%
X43134000Y-47549600D03*
%TD*%
%TO.P,D3,2,A*%
%TO.N,/B_ON*%
X46309000Y-52049600D03*
D13*
%TO.P,D3,1,K*%
%TO.N,Net-(D3-K)*%
X46309000Y-49509600D03*
%TD*%
%TO.P,D2,1,K*%
%TO.N,Net-(D2-K)*%
X49484000Y-45009600D03*
D12*
%TO.P,D2,2,A*%
%TO.N,/A_OFF*%
X49484000Y-47549600D03*
%TD*%
%TO.P,D1,2,A*%
%TO.N,/A_ON*%
X52667650Y-52044200D03*
D13*
%TO.P,D1,1,K*%
%TO.N,Net-(D1-K)*%
X52667650Y-49504200D03*
%TD*%
D14*
%TO.P,J12,1,Pin_1*%
%TO.N,/5V*%
X87546000Y-4635000D03*
D15*
%TO.P,J12,2,Pin_2*%
%TO.N,/GND*%
X82466000Y-4635000D03*
%TD*%
%TO.P,J17,3,Pin_3*%
%TO.N,/GND*%
X66808600Y-4636000D03*
%TO.P,J17,2,Pin_2*%
%TO.N,/VR_1*%
X71888600Y-4636000D03*
D14*
%TO.P,J17,1,Pin_1*%
%TO.N,/5V*%
X76968600Y-4636000D03*
%TD*%
D16*
%TO.P,R9,1*%
%TO.N,Net-(R9-Pad1)*%
X30434000Y-37776000D03*
D17*
%TO.P,R9,2*%
%TO.N,Net-(D8-K)*%
X30434000Y-42856000D03*
%TD*%
D15*
%TO.P,J2,3,Pin_3*%
%TO.N,/GND*%
X5398000Y-37289400D03*
%TO.P,J2,2,Pin_2*%
X5398000Y-32209400D03*
D14*
%TO.P,J2,1,Pin_1*%
X5398000Y-27129400D03*
%TD*%
%TO.P,J7,1,Pin_1*%
%TO.N,/SW_R4*%
X13462000Y-52961200D03*
D15*
%TO.P,J7,2,Pin_2*%
%TO.N,/SW_R3*%
X13462000Y-47881200D03*
%TO.P,J7,3,Pin_3*%
%TO.N,/SW_R2*%
X13462000Y-42801200D03*
%TD*%
D16*
%TO.P,R3,1*%
%TO.N,Net-(R3-Pad1)*%
X49484000Y-37776000D03*
D17*
%TO.P,R3,2*%
%TO.N,Net-(D2-K)*%
X49484000Y-42856000D03*
%TD*%
D18*
%TO.P,U2,1*%
%TO.N,Net-(R2-Pad1)*%
X45267650Y-14986000D03*
D19*
%TO.P,U2,2*%
%TO.N,/GND*%
X45267650Y-17526000D03*
%TO.P,U2,3*%
%TO.N,Net-(R3-Pad1)*%
X45267650Y-20066000D03*
%TO.P,U2,4*%
%TO.N,/GND*%
X45267650Y-22606000D03*
%TO.P,U2,5*%
%TO.N,Net-(R4-Pad1)*%
X45267650Y-25146000D03*
%TO.P,U2,6*%
%TO.N,/GND*%
X45267650Y-27686000D03*
%TO.P,U2,7*%
%TO.N,Net-(R5-Pad1)*%
X45267650Y-30226000D03*
%TO.P,U2,8*%
%TO.N,/GND*%
X45267650Y-32766000D03*
%TO.P,U2,9*%
%TO.N,Net-(J19-Pin_1)*%
X52887650Y-32766000D03*
%TO.P,U2,10*%
%TO.N,Net-(J19-Pin_2)*%
X52887650Y-30226000D03*
%TO.P,U2,11*%
%TO.N,Net-(J19-Pin_1)*%
X52887650Y-27686000D03*
%TO.P,U2,12*%
%TO.N,Net-(J19-Pin_3)*%
X52887650Y-25146000D03*
%TO.P,U2,13*%
%TO.N,Net-(J18-Pin_1)*%
X52887650Y-22606000D03*
%TO.P,U2,14*%
%TO.N,Net-(J18-Pin_2)*%
X52887650Y-20066000D03*
%TO.P,U2,15*%
%TO.N,Net-(J18-Pin_1)*%
X52887650Y-17526000D03*
%TO.P,U2,16*%
%TO.N,Net-(J18-Pin_3)*%
X52887650Y-14986000D03*
%TD*%
D20*
%TO.P,J11,1,Pin_1*%
%TO.N,/SW_P2*%
X23771400Y-44438000D03*
D10*
%TO.P,J11,2,Pin_2*%
%TO.N,/SW_P1*%
X21231400Y-44438000D03*
%TO.P,J11,3,Pin_3*%
%TO.N,/SW_P3*%
X23771400Y-41898000D03*
%TO.P,J11,4,Pin_4*%
%TO.N,/SW_R4*%
X21231400Y-41898000D03*
%TO.P,J11,5,Pin_5*%
%TO.N,/VR_1*%
X23771400Y-39358000D03*
%TO.P,J11,6,Pin_6*%
%TO.N,/SW_R3*%
X21231400Y-39358000D03*
%TO.P,J11,7,Pin_7*%
%TO.N,/VR_2*%
X23771400Y-36818000D03*
%TO.P,J11,8,Pin_8*%
%TO.N,/SW_R2*%
X21231400Y-36818000D03*
%TO.P,J11,9,Pin_9*%
%TO.N,/VR_3*%
X23771400Y-34278000D03*
%TO.P,J11,10,Pin_10*%
%TO.N,/SW_R1*%
X21231400Y-34278000D03*
%TO.P,J11,11,Pin_11*%
%TO.N,/VR_4*%
X23771400Y-31738000D03*
%TO.P,J11,12,Pin_12*%
%TO.N,/SW_T5*%
X21231400Y-31738000D03*
%TO.P,J11,13,Pin_13*%
%TO.N,/VR_5*%
X23771400Y-29198000D03*
%TO.P,J11,14,Pin_14*%
%TO.N,/SW_T4*%
X21231400Y-29198000D03*
%TO.P,J11,15,Pin_15*%
%TO.N,unconnected-(J11-Pin_15-Pad15)*%
X23771400Y-26658000D03*
%TO.P,J11,16,Pin_16*%
%TO.N,/SW_T3*%
X21231400Y-26658000D03*
%TO.P,J11,17,Pin_17*%
%TO.N,/5V*%
X23771400Y-24118000D03*
%TO.P,J11,18,Pin_18*%
%TO.N,/SW_T2*%
X21231400Y-24118000D03*
%TO.P,J11,19,Pin_19*%
%TO.N,/GND*%
X23771400Y-21578000D03*
%TO.P,J11,20,Pin_20*%
%TO.N,/SW_T1*%
X21231400Y-21578000D03*
%TD*%
D15*
%TO.P,J8,3,Pin_3*%
%TO.N,/SW_P1*%
X13462000Y-58470800D03*
%TO.P,J8,2,Pin_2*%
%TO.N,/SW_P2*%
X13462000Y-63550800D03*
D14*
%TO.P,J8,1,Pin_1*%
%TO.N,/SW_P3*%
X13462000Y-68630800D03*
%TD*%
%TO.P,J6,1,Pin_1*%
%TO.N,/SW_R1*%
X13462000Y-37289400D03*
D15*
%TO.P,J6,2,Pin_2*%
%TO.N,/SW_T5*%
X13462000Y-32209400D03*
%TO.P,J6,3,Pin_3*%
%TO.N,/SW_T4*%
X13462000Y-27129400D03*
%TD*%
%TO.P,J1,3,Pin_3*%
%TO.N,/GND*%
X5398000Y-21613200D03*
%TO.P,J1,2,Pin_2*%
X5398000Y-16533200D03*
D14*
%TO.P,J1,1,Pin_1*%
X5398000Y-11453200D03*
%TD*%
D15*
%TO.P,J4,3,Pin_3*%
%TO.N,/GND*%
X5398000Y-68630800D03*
%TO.P,J4,2,Pin_2*%
X5398000Y-63550800D03*
D14*
%TO.P,J4,1,Pin_1*%
X5398000Y-58470800D03*
%TD*%
D16*
%TO.P,R5,1*%
%TO.N,Net-(R5-Pad1)*%
X43134000Y-37776000D03*
D17*
%TO.P,R5,2*%
%TO.N,Net-(D4-K)*%
X43134000Y-42856000D03*
%TD*%
D14*
%TO.P,J13,1,Pin_1*%
%TO.N,/5V*%
X14277000Y-4636000D03*
D15*
%TO.P,J13,2,Pin_2*%
%TO.N,/VR_5*%
X9197000Y-4636000D03*
%TO.P,J13,3,Pin_3*%
%TO.N,/GND*%
X4117000Y-4636000D03*
%TD*%
D14*
%TO.P,J9,1,Pin_1*%
%TO.N,Net-(J10-Pin_1)*%
X20236000Y-67348600D03*
D15*
%TO.P,J9,2,Pin_2*%
%TO.N,Net-(J10-Pin_2)*%
X25316000Y-67348600D03*
%TD*%
D14*
%TO.P,J16,1,Pin_1*%
%TO.N,/5V*%
X61296800Y-4636000D03*
D15*
%TO.P,J16,2,Pin_2*%
%TO.N,/VR_2*%
X56216800Y-4636000D03*
%TO.P,J16,3,Pin_3*%
%TO.N,/GND*%
X51136800Y-4636000D03*
%TD*%
D17*
%TO.P,R7,2*%
%TO.N,Net-(D6-K)*%
X36784000Y-42856000D03*
D16*
%TO.P,R7,1*%
%TO.N,Net-(R7-Pad1)*%
X36784000Y-37776000D03*
%TD*%
D15*
%TO.P,J18,3,Pin_3*%
%TO.N,Net-(J18-Pin_3)*%
X60008000Y-11432200D03*
%TO.P,J18,2,Pin_2*%
%TO.N,Net-(J18-Pin_2)*%
X60008000Y-16512200D03*
D14*
%TO.P,J18,1,Pin_1*%
%TO.N,Net-(J18-Pin_1)*%
X60008000Y-21592200D03*
%TD*%
D15*
%TO.P,J22,2,Pin_2*%
%TO.N,/GND*%
X46464400Y-67348600D03*
D14*
%TO.P,J22,1,Pin_1*%
%TO.N,/3V3*%
X41384400Y-67348600D03*
%TD*%
%TO.P,J14,1,Pin_1*%
%TO.N,/5V*%
X29953200Y-4636000D03*
D15*
%TO.P,J14,2,Pin_2*%
%TO.N,/VR_4*%
X24873200Y-4636000D03*
%TO.P,J14,3,Pin_3*%
%TO.N,/GND*%
X19793200Y-4636000D03*
%TD*%
D14*
%TO.P,J10,1,Pin_1*%
%TO.N,Net-(J10-Pin_1)*%
X30802400Y-67348600D03*
D15*
%TO.P,J10,2,Pin_2*%
%TO.N,Net-(J10-Pin_2)*%
X35882400Y-67348600D03*
%TD*%
D17*
%TO.P,R6,2*%
%TO.N,Net-(D5-K)*%
X39959000Y-42856000D03*
D16*
%TO.P,R6,1*%
%TO.N,Net-(R6-Pad1)*%
X39959000Y-37776000D03*
%TD*%
D15*
%TO.P,J21,3,Pin_3*%
%TO.N,Net-(J21-Pin_3)*%
X60008000Y-58449800D03*
%TO.P,J21,2,Pin_2*%
%TO.N,Net-(J21-Pin_2)*%
X60008000Y-63529800D03*
D14*
%TO.P,J21,1,Pin_1*%
%TO.N,Net-(J21-Pin_1)*%
X60008000Y-68609800D03*
%TD*%
D18*
%TO.P,U3,1*%
%TO.N,Net-(R6-Pad1)*%
X30734000Y-14986000D03*
D19*
%TO.P,U3,2*%
%TO.N,/GND*%
X30734000Y-17526000D03*
%TO.P,U3,3*%
%TO.N,Net-(R7-Pad1)*%
X30734000Y-20066000D03*
%TO.P,U3,4*%
%TO.N,/GND*%
X30734000Y-22606000D03*
%TO.P,U3,5*%
%TO.N,Net-(R8-Pad1)*%
X30734000Y-25146000D03*
%TO.P,U3,6*%
%TO.N,/GND*%
X30734000Y-27686000D03*
%TO.P,U3,7*%
%TO.N,Net-(R9-Pad1)*%
X30734000Y-30226000D03*
%TO.P,U3,8*%
%TO.N,/GND*%
X30734000Y-32766000D03*
%TO.P,U3,9*%
%TO.N,Net-(J21-Pin_1)*%
X38354000Y-32766000D03*
%TO.P,U3,10*%
%TO.N,Net-(J21-Pin_2)*%
X38354000Y-30226000D03*
%TO.P,U3,11*%
%TO.N,Net-(J21-Pin_1)*%
X38354000Y-27686000D03*
%TO.P,U3,12*%
%TO.N,Net-(J21-Pin_3)*%
X38354000Y-25146000D03*
%TO.P,U3,13*%
%TO.N,Net-(J20-Pin_1)*%
X38354000Y-22606000D03*
%TO.P,U3,14*%
%TO.N,Net-(J20-Pin_2)*%
X38354000Y-20066000D03*
%TO.P,U3,15*%
%TO.N,Net-(J20-Pin_1)*%
X38354000Y-17526000D03*
%TO.P,U3,16*%
%TO.N,Net-(J20-Pin_3)*%
X38354000Y-14986000D03*
%TD*%
D16*
%TO.P,R8,1*%
%TO.N,Net-(R8-Pad1)*%
X33609000Y-37776000D03*
D17*
%TO.P,R8,2*%
%TO.N,Net-(D7-K)*%
X33609000Y-42856000D03*
%TD*%
D14*
%TO.P,J15,1,Pin_1*%
%TO.N,/5V*%
X45625000Y-4636000D03*
D15*
%TO.P,J15,2,Pin_2*%
%TO.N,/VR_3*%
X40545000Y-4636000D03*
%TO.P,J15,3,Pin_3*%
%TO.N,/GND*%
X35465000Y-4636000D03*
%TD*%
D14*
%TO.P,J3,1,Pin_1*%
%TO.N,/GND*%
X5398000Y-42801200D03*
D15*
%TO.P,J3,2,Pin_2*%
X5398000Y-47881200D03*
%TO.P,J3,3,Pin_3*%
X5398000Y-52961200D03*
%TD*%
D17*
%TO.P,R4,2*%
%TO.N,Net-(D3-K)*%
X46309000Y-42856000D03*
D16*
%TO.P,R4,1*%
%TO.N,Net-(R4-Pad1)*%
X46309000Y-37776000D03*
%TD*%
D14*
%TO.P,J20,1,Pin_1*%
%TO.N,Net-(J20-Pin_1)*%
X60008000Y-52940200D03*
D15*
%TO.P,J20,2,Pin_2*%
%TO.N,Net-(J20-Pin_2)*%
X60008000Y-47860200D03*
%TO.P,J20,3,Pin_3*%
%TO.N,Net-(J20-Pin_3)*%
X60008000Y-42780200D03*
%TD*%
D16*
%TO.P,R2,1*%
%TO.N,Net-(R2-Pad1)*%
X52667650Y-37770600D03*
D17*
%TO.P,R2,2*%
%TO.N,Net-(D1-K)*%
X52667650Y-42850600D03*
%TD*%
D14*
%TO.P,J19,1,Pin_1*%
%TO.N,Net-(J19-Pin_1)*%
X60008000Y-37268400D03*
D15*
%TO.P,J19,2,Pin_2*%
%TO.N,Net-(J19-Pin_2)*%
X60008000Y-32188400D03*
%TO.P,J19,3,Pin_3*%
%TO.N,Net-(J19-Pin_3)*%
X60008000Y-27108400D03*
%TD*%
D14*
%TO.P,J5,1,Pin_1*%
%TO.N,/SW_T3*%
X13462000Y-21613200D03*
D15*
%TO.P,J5,2,Pin_2*%
%TO.N,/SW_T2*%
X13462000Y-16533200D03*
%TO.P,J5,3,Pin_3*%
%TO.N,/SW_T1*%
X13462000Y-11453200D03*
%TD*%
D16*
%TO.P,R1,1*%
%TO.N,Net-(R1-Pad1)*%
X18601400Y-56169600D03*
D17*
%TO.P,R1,2*%
%TO.N,/5V*%
X18601400Y-51089600D03*
%TD*%
D19*
%TO.P,U1,4*%
%TO.N,Net-(J10-Pin_2)*%
X25316000Y-60944600D03*
%TO.P,U1,3*%
%TO.N,Net-(J10-Pin_1)*%
X22776000Y-60944600D03*
%TO.P,U1,2*%
%TO.N,/SW_T5*%
X22776000Y-53324600D03*
D18*
%TO.P,U1,1*%
%TO.N,Net-(R1-Pad1)*%
X25316000Y-53324600D03*
%TD*%
D21*
%TO.N,Net-(R3-Pad1)*%
X49484000Y-24282350D02*
X45267650Y-20066000D01*
X49484000Y-37776000D02*
X49484000Y-24282350D01*
%TO.N,Net-(R2-Pad1)*%
X50550000Y-20268350D02*
X45267650Y-14986000D01*
X51744600Y-37770600D02*
X50550000Y-36576000D01*
X50550000Y-36576000D02*
X50550000Y-20268350D01*
X52667650Y-37770600D02*
X51744600Y-37770600D01*
%TO.N,Net-(R4-Pad1)*%
X46559000Y-33065641D02*
X46559000Y-26437350D01*
X46309000Y-33315641D02*
X46559000Y-33065641D01*
X46309000Y-37776000D02*
X46309000Y-33315641D01*
%TO.N,Net-(R5-Pad1)*%
X43134000Y-37776000D02*
X43134000Y-32359650D01*
X43134000Y-32359650D02*
X45267650Y-30226000D01*
%TO.N,Net-(R8-Pad1)*%
X33590000Y-28002000D02*
X30734000Y-25146000D01*
X33609000Y-37776000D02*
X33590000Y-37757000D01*
X33590000Y-37757000D02*
X33590000Y-28002000D01*
%TO.N,Net-(R9-Pad1)*%
X32316000Y-31808000D02*
X30734000Y-30226000D01*
X32316000Y-35894000D02*
X32316000Y-31808000D01*
X30434000Y-37776000D02*
X32316000Y-35894000D01*
%TO.N,Net-(R7-Pad1)*%
X35052000Y-36044000D02*
X35052000Y-35794000D01*
X36784000Y-37776000D02*
X35052000Y-36044000D01*
%TO.N,Net-(R6-Pad1)*%
X39959000Y-37776000D02*
X36322000Y-34139000D01*
X36322000Y-34139000D02*
X36322000Y-33889000D01*
D22*
%TO.N,/GND*%
X46888400Y-66924600D02*
X46464400Y-67348600D01*
X46638400Y-59563000D02*
X46638400Y-66924600D01*
%TO.N,/3V3*%
X44348400Y-64384600D02*
X41384400Y-67348600D01*
X44098400Y-59563000D02*
X44098400Y-64384600D01*
D21*
%TO.N,/D_OFF*%
X39711400Y-61410000D02*
X41558400Y-59563000D01*
X35631604Y-61410000D02*
X39711400Y-61410000D01*
X30434000Y-56212396D02*
X35631604Y-61410000D01*
X30434000Y-47549600D02*
X30434000Y-56212396D01*
%TO.N,/D_ON*%
X37621400Y-60960000D02*
X39018400Y-59563000D01*
X35818000Y-60960000D02*
X37621400Y-60960000D01*
X33609000Y-52049600D02*
X33609000Y-58751000D01*
X33609000Y-58751000D02*
X35818000Y-60960000D01*
%TO.N,/B_OFF*%
X43134000Y-52907400D02*
X39018400Y-57023000D01*
X43134000Y-47549600D02*
X43134000Y-52907400D01*
%TO.N,/B_ON*%
X46309000Y-52272400D02*
X41558400Y-57023000D01*
X46309000Y-52049600D02*
X46309000Y-52272400D01*
%TO.N,/A_OFF*%
X49484000Y-51637400D02*
X44098400Y-57023000D01*
X49484000Y-47549600D02*
X49484000Y-51637400D01*
%TO.N,/A_ON*%
X51617200Y-52044200D02*
X46638400Y-57023000D01*
X52667650Y-52044200D02*
X51617200Y-52044200D01*
%TO.N,/C_ON*%
X39959000Y-53542400D02*
X36478400Y-57023000D01*
X39959000Y-52049600D02*
X39959000Y-53542400D01*
%TO.N,/C_OFF*%
X35303400Y-58388000D02*
X36478400Y-59563000D01*
X35303400Y-49030200D02*
X35303400Y-58388000D01*
X36784000Y-47549600D02*
X35303400Y-49030200D01*
%TO.N,Net-(D1-K)*%
X52667650Y-42850600D02*
X52667650Y-49504200D01*
%TO.N,Net-(D2-K)*%
X49484000Y-42856000D02*
X49484000Y-45009600D01*
%TO.N,Net-(D3-K)*%
X46309000Y-42856000D02*
X46309000Y-49509600D01*
%TO.N,Net-(D4-K)*%
X43134000Y-42856000D02*
X43134000Y-45009600D01*
%TO.N,Net-(D5-K)*%
X39959000Y-42856000D02*
X39959000Y-49509600D01*
%TO.N,Net-(D6-K)*%
X36784000Y-42856000D02*
X36784000Y-45009600D01*
%TO.N,Net-(D7-K)*%
X33609000Y-42856000D02*
X33609000Y-49509600D01*
%TO.N,Net-(D8-K)*%
X30434000Y-42856000D02*
X30434000Y-45009600D01*
%TO.N,/SW_T5*%
X13474000Y-31738000D02*
X13462000Y-31750000D01*
X21070000Y-31738000D02*
X13474000Y-31738000D01*
X21082000Y-31750000D02*
X21070000Y-31738000D01*
%TO.N,Net-(R1-Pad1)*%
X20343800Y-57912000D02*
X18601400Y-56169600D01*
X21336000Y-57912000D02*
X20343800Y-57912000D01*
X25316000Y-53932000D02*
X21336000Y-57912000D01*
X25316000Y-53324600D02*
X25316000Y-53932000D01*
%TO.N,/VR_2*%
X28448000Y-32004000D02*
X23622000Y-36830000D01*
X33147000Y-8890000D02*
X28448000Y-13589000D01*
X51962800Y-8890000D02*
X33147000Y-8890000D01*
X56216800Y-4636000D02*
X51962800Y-8890000D01*
X28448000Y-13589000D02*
X28448000Y-32004000D01*
%TO.N,/VR_1*%
X29210000Y-33782000D02*
X23622000Y-39370000D01*
X33782000Y-9398000D02*
X29210000Y-13970000D01*
X29210000Y-13970000D02*
X29210000Y-33782000D01*
X67126600Y-9398000D02*
X33782000Y-9398000D01*
X71888600Y-4636000D02*
X67126600Y-9398000D01*
%TO.N,/VR_3*%
X27686000Y-13208000D02*
X27686000Y-30226000D01*
X36799000Y-8382000D02*
X32512000Y-8382000D01*
X32512000Y-8382000D02*
X27686000Y-13208000D01*
X40545000Y-4636000D02*
X36799000Y-8382000D01*
X27686000Y-30226000D02*
X23622000Y-34290000D01*
%TO.N,Net-(J10-Pin_2)*%
X27386600Y-65278000D02*
X25316000Y-67348600D01*
X33811800Y-65278000D02*
X27386600Y-65278000D01*
X35882400Y-67348600D02*
X33811800Y-65278000D01*
%TO.N,/SW_R1*%
X21082000Y-34290000D02*
X16461400Y-34290000D01*
X16461400Y-34290000D02*
X13921400Y-36830000D01*
X13921400Y-36830000D02*
X13462000Y-36830000D01*
%TO.N,Net-(J10-Pin_1)*%
X22229400Y-69342000D02*
X20236000Y-67348600D01*
X28809000Y-69342000D02*
X22229400Y-69342000D01*
X30802400Y-67348600D02*
X28809000Y-69342000D01*
%TO.N,Net-(J10-Pin_2)*%
X25316000Y-60944600D02*
X25316000Y-67348600D01*
%TO.N,Net-(J10-Pin_1)*%
X22776000Y-60944600D02*
X22776000Y-64808600D01*
X22776000Y-64808600D02*
X20236000Y-67348600D01*
%TO.N,/VR_4*%
X26924000Y-6731000D02*
X24638000Y-4445000D01*
X26924000Y-28448000D02*
X26924000Y-6731000D01*
X23622000Y-31750000D02*
X26924000Y-28448000D01*
%TO.N,Net-(J20-Pin_1)*%
X37084000Y-21336000D02*
X38354000Y-22606000D01*
X38354000Y-17526000D02*
X37084000Y-18796000D01*
X37084000Y-18796000D02*
X37084000Y-21336000D01*
%TO.N,Net-(J18-Pin_1)*%
X51562000Y-18851650D02*
X51562000Y-21280350D01*
X52887650Y-17526000D02*
X51562000Y-18851650D01*
X51562000Y-21280350D02*
X52887650Y-22606000D01*
%TO.N,Net-(J19-Pin_1)*%
X51562000Y-31440350D02*
X52887650Y-32766000D01*
X51562000Y-29011650D02*
X51562000Y-31440350D01*
X52887650Y-27686000D02*
X51562000Y-29011650D01*
%TO.N,Net-(J21-Pin_1)*%
X37084000Y-31496000D02*
X38354000Y-32766000D01*
X37084000Y-28956000D02*
X37084000Y-31496000D01*
X38354000Y-27686000D02*
X37084000Y-28956000D01*
%TO.N,/SW_T1*%
X21231400Y-19199400D02*
X13462000Y-11430000D01*
X21231400Y-21578000D02*
X21231400Y-19199400D01*
%TO.N,/SW_T2*%
X21082000Y-24130000D02*
X13462000Y-16510000D01*
%TO.N,/SW_T3*%
X18542000Y-26670000D02*
X13462000Y-21590000D01*
X21082000Y-26670000D02*
X18542000Y-26670000D01*
%TO.N,/SW_T4*%
X16002000Y-29210000D02*
X13462000Y-26670000D01*
X21082000Y-29210000D02*
X16002000Y-29210000D01*
%TO.N,Net-(R4-Pad1)*%
X46559000Y-26437350D02*
X45267650Y-25146000D01*
%TO.N,Net-(R6-Pad1)*%
X36322000Y-20574000D02*
X30734000Y-14986000D01*
X36322000Y-33889000D02*
X36322000Y-20574000D01*
%TO.N,Net-(R7-Pad1)*%
X35052000Y-24384000D02*
X30734000Y-20066000D01*
X35052000Y-35794000D02*
X35052000Y-24384000D01*
%TD*%
%TA.AperFunction,Conductor*%
%TO.N,/5V*%
G36*
X90620539Y1757815D02*
G01*
X90666294Y1705011D01*
X90677500Y1653500D01*
X90677500Y-7242000D01*
X90657815Y-7309039D01*
X90605011Y-7354794D01*
X90553500Y-7366000D01*
X70353866Y-7366000D01*
X70286827Y-7346315D01*
X70241072Y-7293511D01*
X70231128Y-7224353D01*
X70260153Y-7160797D01*
X70266185Y-7154319D01*
X70463420Y-6957084D01*
X70926862Y-6493641D01*
X70988183Y-6460158D01*
X71057874Y-6465142D01*
X71063926Y-6467583D01*
X71214423Y-6532953D01*
X71479004Y-6607085D01*
X71718320Y-6639978D01*
X71751214Y-6644500D01*
X71751215Y-6644500D01*
X72025986Y-6644500D01*
X72055333Y-6640466D01*
X72298196Y-6607085D01*
X72562777Y-6532953D01*
X72771352Y-6442356D01*
X72814798Y-6423485D01*
X72814958Y-6423388D01*
X73049569Y-6280718D01*
X73168643Y-6183844D01*
X74968600Y-6183844D01*
X74975001Y-6243372D01*
X74975003Y-6243379D01*
X75025245Y-6378086D01*
X75025249Y-6378093D01*
X75111409Y-6493187D01*
X75111412Y-6493190D01*
X75226506Y-6579350D01*
X75226513Y-6579354D01*
X75361220Y-6629596D01*
X75361227Y-6629598D01*
X75420755Y-6635999D01*
X75420772Y-6636000D01*
X76718600Y-6636000D01*
X76718600Y-5357802D01*
X76879769Y-5396000D01*
X77012867Y-5396000D01*
X77145061Y-5380549D01*
X77218600Y-5353782D01*
X77218600Y-6636000D01*
X78516428Y-6636000D01*
X78516444Y-6635999D01*
X78575972Y-6629598D01*
X78575979Y-6629596D01*
X78710686Y-6579354D01*
X78710693Y-6579350D01*
X78825787Y-6493190D01*
X78825790Y-6493187D01*
X78911950Y-6378093D01*
X78911954Y-6378086D01*
X78962196Y-6243379D01*
X78962198Y-6243372D01*
X78968599Y-6183844D01*
X78968600Y-6183827D01*
X78968600Y-4886000D01*
X77687083Y-4886000D01*
X77722149Y-4768871D01*
X77729946Y-4634999D01*
X80452807Y-4634999D01*
X80471557Y-4909130D01*
X80471558Y-4909132D01*
X80527458Y-5178141D01*
X80527463Y-5178158D01*
X80619476Y-5437056D01*
X80745889Y-5681024D01*
X80745893Y-5681030D01*
X80904340Y-5905499D01*
X80904343Y-5905502D01*
X81091889Y-6106314D01*
X81305031Y-6279718D01*
X81305033Y-6279719D01*
X81305034Y-6279720D01*
X81539801Y-6422485D01*
X81734440Y-6507028D01*
X81791823Y-6531953D01*
X82056404Y-6606085D01*
X82295720Y-6638978D01*
X82328614Y-6643500D01*
X82328615Y-6643500D01*
X82603386Y-6643500D01*
X82632733Y-6639466D01*
X82875596Y-6606085D01*
X83140177Y-6531953D01*
X83365761Y-6433968D01*
X83392198Y-6422485D01*
X83453550Y-6385176D01*
X83626969Y-6279718D01*
X83746043Y-6182844D01*
X85546000Y-6182844D01*
X85552401Y-6242372D01*
X85552403Y-6242379D01*
X85602645Y-6377086D01*
X85602649Y-6377093D01*
X85688809Y-6492187D01*
X85688812Y-6492190D01*
X85803906Y-6578350D01*
X85803913Y-6578354D01*
X85938620Y-6628596D01*
X85938627Y-6628598D01*
X85998155Y-6634999D01*
X85998172Y-6635000D01*
X87296000Y-6635000D01*
X87296000Y-5356802D01*
X87457169Y-5395000D01*
X87590267Y-5395000D01*
X87722461Y-5379549D01*
X87796000Y-5352782D01*
X87796000Y-6635000D01*
X89093828Y-6635000D01*
X89093844Y-6634999D01*
X89153372Y-6628598D01*
X89153379Y-6628596D01*
X89288086Y-6578354D01*
X89288093Y-6578350D01*
X89403187Y-6492190D01*
X89403190Y-6492187D01*
X89489350Y-6377093D01*
X89489354Y-6377086D01*
X89539596Y-6242379D01*
X89539598Y-6242372D01*
X89545999Y-6182844D01*
X89546000Y-6182827D01*
X89546000Y-4885000D01*
X88264483Y-4885000D01*
X88299549Y-4767871D01*
X88309879Y-4590509D01*
X88279029Y-4415546D01*
X88265853Y-4385000D01*
X89546000Y-4385000D01*
X89546000Y-3087172D01*
X89545999Y-3087155D01*
X89539598Y-3027627D01*
X89539596Y-3027620D01*
X89489354Y-2892913D01*
X89489350Y-2892906D01*
X89403190Y-2777812D01*
X89403187Y-2777809D01*
X89288093Y-2691649D01*
X89288086Y-2691645D01*
X89153379Y-2641403D01*
X89153372Y-2641401D01*
X89093844Y-2635000D01*
X87796000Y-2635000D01*
X87796000Y-3913197D01*
X87634831Y-3875000D01*
X87501733Y-3875000D01*
X87369539Y-3890451D01*
X87296000Y-3917217D01*
X87296000Y-2635000D01*
X85998155Y-2635000D01*
X85938627Y-2641401D01*
X85938620Y-2641403D01*
X85803913Y-2691645D01*
X85803906Y-2691649D01*
X85688812Y-2777809D01*
X85688809Y-2777812D01*
X85602649Y-2892906D01*
X85602645Y-2892913D01*
X85552403Y-3027620D01*
X85552401Y-3027627D01*
X85546000Y-3087155D01*
X85546000Y-4385000D01*
X86827517Y-4385000D01*
X86792451Y-4502129D01*
X86782121Y-4679491D01*
X86812971Y-4854454D01*
X86826147Y-4885000D01*
X85546000Y-4885000D01*
X85546000Y-6182844D01*
X83746043Y-6182844D01*
X83840111Y-6106314D01*
X84027657Y-5905502D01*
X84186111Y-5681023D01*
X84312523Y-5437058D01*
X84404538Y-5178153D01*
X84404539Y-5178146D01*
X84404541Y-5178141D01*
X84454428Y-4938070D01*
X84460442Y-4909130D01*
X84479193Y-4635000D01*
X84460442Y-4360870D01*
X84437904Y-4252413D01*
X84404541Y-4091858D01*
X84404536Y-4091841D01*
X84333317Y-3891451D01*
X84312523Y-3832942D01*
X84186111Y-3588977D01*
X84186110Y-3588975D01*
X84186106Y-3588969D01*
X84027659Y-3364500D01*
X84009031Y-3344555D01*
X83840111Y-3163686D01*
X83626969Y-2990282D01*
X83626967Y-2990281D01*
X83626965Y-2990279D01*
X83392198Y-2847514D01*
X83140178Y-2738047D01*
X82875602Y-2663916D01*
X82875597Y-2663915D01*
X82875596Y-2663915D01*
X82739490Y-2645207D01*
X82603386Y-2626500D01*
X82603385Y-2626500D01*
X82328615Y-2626500D01*
X82328614Y-2626500D01*
X82056404Y-2663915D01*
X82056397Y-2663916D01*
X81791821Y-2738047D01*
X81539801Y-2847514D01*
X81305034Y-2990279D01*
X81091892Y-3163683D01*
X80904340Y-3364500D01*
X80745893Y-3588969D01*
X80745889Y-3588975D01*
X80619476Y-3832943D01*
X80527463Y-4091841D01*
X80527458Y-4091858D01*
X80471558Y-4360867D01*
X80471557Y-4360869D01*
X80452807Y-4634999D01*
X77729946Y-4634999D01*
X77732479Y-4591509D01*
X77701629Y-4416546D01*
X77688453Y-4386000D01*
X78968600Y-4386000D01*
X78968600Y-3088172D01*
X78968599Y-3088155D01*
X78962198Y-3028627D01*
X78962196Y-3028620D01*
X78911954Y-2893913D01*
X78911950Y-2893906D01*
X78825790Y-2778812D01*
X78825787Y-2778809D01*
X78710693Y-2692649D01*
X78710686Y-2692645D01*
X78575979Y-2642403D01*
X78575972Y-2642401D01*
X78516444Y-2636000D01*
X77218600Y-2636000D01*
X77218600Y-3914197D01*
X77057431Y-3876000D01*
X76924333Y-3876000D01*
X76792139Y-3891451D01*
X76718600Y-3918217D01*
X76718600Y-2636000D01*
X75420755Y-2636000D01*
X75361227Y-2642401D01*
X75361220Y-2642403D01*
X75226513Y-2692645D01*
X75226506Y-2692649D01*
X75111412Y-2778809D01*
X75111409Y-2778812D01*
X75025249Y-2893906D01*
X75025245Y-2893913D01*
X74975003Y-3028620D01*
X74975001Y-3028627D01*
X74968600Y-3088155D01*
X74968600Y-4386000D01*
X76250117Y-4386000D01*
X76215051Y-4503129D01*
X76204721Y-4680491D01*
X76235571Y-4855454D01*
X76248747Y-4886000D01*
X74968600Y-4886000D01*
X74968600Y-6183844D01*
X73168643Y-6183844D01*
X73262711Y-6107314D01*
X73450257Y-5906502D01*
X73608711Y-5682023D01*
X73735123Y-5438058D01*
X73827138Y-5179153D01*
X73827139Y-5179146D01*
X73827141Y-5179141D01*
X73877028Y-4939070D01*
X73883042Y-4910130D01*
X73901793Y-4636000D01*
X73883042Y-4361870D01*
X73860296Y-4252413D01*
X73827141Y-4092858D01*
X73827136Y-4092841D01*
X73764632Y-3916972D01*
X73735123Y-3833942D01*
X73608711Y-3589977D01*
X73608710Y-3589975D01*
X73608706Y-3589969D01*
X73450259Y-3365500D01*
X73431631Y-3345555D01*
X73262711Y-3164686D01*
X73049569Y-2991282D01*
X73049567Y-2991281D01*
X73049565Y-2991279D01*
X72814798Y-2848514D01*
X72562778Y-2739047D01*
X72298202Y-2664916D01*
X72298197Y-2664915D01*
X72298196Y-2664915D01*
X72134411Y-2642403D01*
X72025986Y-2627500D01*
X72025985Y-2627500D01*
X71751215Y-2627500D01*
X71751214Y-2627500D01*
X71479004Y-2664915D01*
X71478997Y-2664916D01*
X71214421Y-2739047D01*
X70962401Y-2848514D01*
X70727634Y-2991279D01*
X70514492Y-3164683D01*
X70326940Y-3365500D01*
X70168493Y-3589969D01*
X70168489Y-3589975D01*
X70042076Y-3833943D01*
X69950063Y-4092841D01*
X69950058Y-4092858D01*
X69894158Y-4361867D01*
X69894157Y-4361869D01*
X69875407Y-4635999D01*
X69894157Y-4910130D01*
X69894158Y-4910132D01*
X69950058Y-5179141D01*
X69950063Y-5179158D01*
X70042075Y-5438053D01*
X70042078Y-5438061D01*
X70051036Y-5455350D01*
X70064399Y-5523930D01*
X70038564Y-5588848D01*
X70028618Y-5600076D01*
X68299014Y-7329681D01*
X68237691Y-7363166D01*
X68211333Y-7366000D01*
X54682065Y-7366000D01*
X54615026Y-7346315D01*
X54569271Y-7293511D01*
X54559327Y-7224353D01*
X54588352Y-7160797D01*
X54594384Y-7154319D01*
X54791619Y-6957084D01*
X55255061Y-6493641D01*
X55316382Y-6460158D01*
X55386073Y-6465142D01*
X55392142Y-6467590D01*
X55472569Y-6502524D01*
X55542623Y-6532953D01*
X55807204Y-6607085D01*
X56046520Y-6639978D01*
X56079414Y-6644500D01*
X56079415Y-6644500D01*
X56354186Y-6644500D01*
X56383533Y-6640466D01*
X56626396Y-6607085D01*
X56890977Y-6532953D01*
X57099552Y-6442356D01*
X57142998Y-6423485D01*
X57143158Y-6423388D01*
X57377769Y-6280718D01*
X57496843Y-6183844D01*
X59296800Y-6183844D01*
X59303201Y-6243372D01*
X59303203Y-6243379D01*
X59353445Y-6378086D01*
X59353449Y-6378093D01*
X59439609Y-6493187D01*
X59439612Y-6493190D01*
X59554706Y-6579350D01*
X59554713Y-6579354D01*
X59689420Y-6629596D01*
X59689427Y-6629598D01*
X59748955Y-6635999D01*
X59748972Y-6636000D01*
X61046800Y-6636000D01*
X61046799Y-5357802D01*
X61207969Y-5396000D01*
X61341067Y-5396000D01*
X61473261Y-5380549D01*
X61546800Y-5353782D01*
X61546800Y-6636000D01*
X62844628Y-6636000D01*
X62844644Y-6635999D01*
X62904172Y-6629598D01*
X62904179Y-6629596D01*
X63038886Y-6579354D01*
X63038893Y-6579350D01*
X63153987Y-6493190D01*
X63153990Y-6493187D01*
X63240150Y-6378093D01*
X63240154Y-6378086D01*
X63290396Y-6243379D01*
X63290398Y-6243372D01*
X63296799Y-6183844D01*
X63296800Y-6183827D01*
X63296800Y-4886000D01*
X62015283Y-4886000D01*
X62050349Y-4768871D01*
X62058088Y-4635999D01*
X64795407Y-4635999D01*
X64814157Y-4910130D01*
X64814158Y-4910132D01*
X64870058Y-5179141D01*
X64870063Y-5179158D01*
X64962076Y-5438056D01*
X65088489Y-5682024D01*
X65088493Y-5682030D01*
X65246940Y-5906499D01*
X65246943Y-5906502D01*
X65434489Y-6107314D01*
X65647631Y-6280718D01*
X65647633Y-6280719D01*
X65647634Y-6280720D01*
X65882401Y-6423485D01*
X66040570Y-6492187D01*
X66134423Y-6532953D01*
X66399004Y-6607085D01*
X66638320Y-6639978D01*
X66671214Y-6644500D01*
X66671215Y-6644500D01*
X66945986Y-6644500D01*
X66975333Y-6640466D01*
X67218196Y-6607085D01*
X67482777Y-6532953D01*
X67691352Y-6442356D01*
X67734798Y-6423485D01*
X67734958Y-6423388D01*
X67969569Y-6280718D01*
X68182711Y-6107314D01*
X68370257Y-5906502D01*
X68528711Y-5682023D01*
X68655123Y-5438058D01*
X68747138Y-5179153D01*
X68747139Y-5179146D01*
X68747141Y-5179141D01*
X68797028Y-4939070D01*
X68803042Y-4910130D01*
X68821793Y-4636000D01*
X68803042Y-4361870D01*
X68780296Y-4252413D01*
X68747141Y-4092858D01*
X68747136Y-4092841D01*
X68684632Y-3916972D01*
X68655123Y-3833942D01*
X68528711Y-3589977D01*
X68528710Y-3589975D01*
X68528706Y-3589969D01*
X68370259Y-3365500D01*
X68351631Y-3345555D01*
X68182711Y-3164686D01*
X67969569Y-2991282D01*
X67969567Y-2991281D01*
X67969565Y-2991279D01*
X67734798Y-2848514D01*
X67482778Y-2739047D01*
X67218202Y-2664916D01*
X67218197Y-2664915D01*
X67218196Y-2664915D01*
X67054411Y-2642403D01*
X66945986Y-2627500D01*
X66945985Y-2627500D01*
X66671215Y-2627500D01*
X66671214Y-2627500D01*
X66399004Y-2664915D01*
X66398997Y-2664916D01*
X66134421Y-2739047D01*
X65882401Y-2848514D01*
X65647634Y-2991279D01*
X65434492Y-3164683D01*
X65246940Y-3365500D01*
X65088493Y-3589969D01*
X65088489Y-3589975D01*
X64962076Y-3833943D01*
X64870063Y-4092841D01*
X64870058Y-4092858D01*
X64814158Y-4361867D01*
X64814157Y-4361869D01*
X64795407Y-4635999D01*
X62058088Y-4635999D01*
X62060679Y-4591509D01*
X62029829Y-4416546D01*
X62016653Y-4386000D01*
X63296800Y-4386000D01*
X63296800Y-3088172D01*
X63296799Y-3088155D01*
X63290398Y-3028627D01*
X63290396Y-3028620D01*
X63240154Y-2893913D01*
X63240150Y-2893906D01*
X63153990Y-2778812D01*
X63153987Y-2778809D01*
X63038893Y-2692649D01*
X63038886Y-2692645D01*
X62904179Y-2642403D01*
X62904172Y-2642401D01*
X62844644Y-2636000D01*
X61546800Y-2636000D01*
X61546800Y-3914197D01*
X61385631Y-3876000D01*
X61252533Y-3876000D01*
X61120339Y-3891451D01*
X61046800Y-3918217D01*
X61046800Y-2636000D01*
X59748955Y-2636000D01*
X59689427Y-2642401D01*
X59689420Y-2642403D01*
X59554713Y-2692645D01*
X59554706Y-2692649D01*
X59439612Y-2778809D01*
X59439609Y-2778812D01*
X59353449Y-2893906D01*
X59353445Y-2893913D01*
X59303203Y-3028620D01*
X59303201Y-3028627D01*
X59296800Y-3088155D01*
X59296800Y-4386000D01*
X60578317Y-4386000D01*
X60543251Y-4503129D01*
X60532921Y-4680491D01*
X60563771Y-4855454D01*
X60576947Y-4886000D01*
X59296800Y-4886000D01*
X59296800Y-6183844D01*
X57496843Y-6183844D01*
X57590911Y-6107314D01*
X57778457Y-5906502D01*
X57936911Y-5682023D01*
X58063323Y-5438058D01*
X58155338Y-5179153D01*
X58155339Y-5179146D01*
X58155341Y-5179141D01*
X58205228Y-4939070D01*
X58211242Y-4910130D01*
X58229993Y-4636000D01*
X58211242Y-4361870D01*
X58188496Y-4252413D01*
X58155341Y-4092858D01*
X58155336Y-4092841D01*
X58092832Y-3916972D01*
X58063323Y-3833942D01*
X57936911Y-3589977D01*
X57936910Y-3589975D01*
X57936906Y-3589969D01*
X57778459Y-3365500D01*
X57759831Y-3345555D01*
X57590911Y-3164686D01*
X57377769Y-2991282D01*
X57377767Y-2991281D01*
X57377765Y-2991279D01*
X57142998Y-2848514D01*
X56890978Y-2739047D01*
X56626402Y-2664916D01*
X56626397Y-2664915D01*
X56626396Y-2664915D01*
X56462611Y-2642403D01*
X56354186Y-2627500D01*
X56354185Y-2627500D01*
X56079415Y-2627500D01*
X56079414Y-2627500D01*
X55807204Y-2664915D01*
X55807197Y-2664916D01*
X55542621Y-2739047D01*
X55290601Y-2848514D01*
X55055834Y-2991279D01*
X54842692Y-3164683D01*
X54655140Y-3365500D01*
X54496693Y-3589969D01*
X54496689Y-3589975D01*
X54370276Y-3833943D01*
X54278263Y-4092841D01*
X54278258Y-4092858D01*
X54222358Y-4361867D01*
X54222357Y-4361869D01*
X54203607Y-4636000D01*
X54222357Y-4910130D01*
X54222358Y-4910132D01*
X54278258Y-5179141D01*
X54278263Y-5179158D01*
X54370276Y-5438058D01*
X54370277Y-5438060D01*
X54379234Y-5455345D01*
X54392600Y-5523924D01*
X54366767Y-5588843D01*
X54356818Y-5600075D01*
X52627214Y-7329681D01*
X52565891Y-7363166D01*
X52539533Y-7366000D01*
X39010266Y-7366000D01*
X38943227Y-7346315D01*
X38897472Y-7293511D01*
X38887528Y-7224353D01*
X38916553Y-7160797D01*
X38922585Y-7154319D01*
X39119820Y-6957084D01*
X39583262Y-6493641D01*
X39644583Y-6460158D01*
X39714274Y-6465142D01*
X39720326Y-6467583D01*
X39870823Y-6532953D01*
X40135404Y-6607085D01*
X40374720Y-6639978D01*
X40407614Y-6644500D01*
X40407615Y-6644500D01*
X40682386Y-6644500D01*
X40711733Y-6640466D01*
X40954596Y-6607085D01*
X41219177Y-6532953D01*
X41427752Y-6442356D01*
X41471198Y-6423485D01*
X41471358Y-6423388D01*
X41705969Y-6280718D01*
X41825043Y-6183844D01*
X43625000Y-6183844D01*
X43631401Y-6243372D01*
X43631403Y-6243379D01*
X43681645Y-6378086D01*
X43681649Y-6378093D01*
X43767809Y-6493187D01*
X43767812Y-6493190D01*
X43882906Y-6579350D01*
X43882913Y-6579354D01*
X44017620Y-6629596D01*
X44017627Y-6629598D01*
X44077155Y-6635999D01*
X44077172Y-6636000D01*
X45375000Y-6636000D01*
X45375000Y-5357802D01*
X45536169Y-5396000D01*
X45669267Y-5396000D01*
X45801461Y-5380549D01*
X45875000Y-5353782D01*
X45875000Y-6636000D01*
X47172828Y-6636000D01*
X47172844Y-6635999D01*
X47232372Y-6629598D01*
X47232379Y-6629596D01*
X47367086Y-6579354D01*
X47367093Y-6579350D01*
X47482187Y-6493190D01*
X47482190Y-6493187D01*
X47568350Y-6378093D01*
X47568354Y-6378086D01*
X47618596Y-6243379D01*
X47618598Y-6243372D01*
X47624999Y-6183844D01*
X47625000Y-6183827D01*
X47625000Y-4886000D01*
X46343483Y-4886000D01*
X46378549Y-4768871D01*
X46386288Y-4635999D01*
X49123607Y-4635999D01*
X49142357Y-4910130D01*
X49142358Y-4910132D01*
X49198258Y-5179141D01*
X49198263Y-5179158D01*
X49290276Y-5438056D01*
X49416689Y-5682024D01*
X49416693Y-5682030D01*
X49575140Y-5906499D01*
X49575143Y-5906502D01*
X49762689Y-6107314D01*
X49975831Y-6280718D01*
X49975833Y-6280719D01*
X49975834Y-6280720D01*
X50210601Y-6423485D01*
X50368770Y-6492187D01*
X50462623Y-6532953D01*
X50727204Y-6607085D01*
X50966520Y-6639978D01*
X50999414Y-6644500D01*
X50999415Y-6644500D01*
X51274186Y-6644500D01*
X51303533Y-6640466D01*
X51546396Y-6607085D01*
X51810977Y-6532953D01*
X52019552Y-6442356D01*
X52062998Y-6423485D01*
X52063158Y-6423388D01*
X52297769Y-6280718D01*
X52510911Y-6107314D01*
X52698457Y-5906502D01*
X52856911Y-5682023D01*
X52983323Y-5438058D01*
X53075338Y-5179153D01*
X53075339Y-5179146D01*
X53075341Y-5179141D01*
X53125228Y-4939070D01*
X53131242Y-4910130D01*
X53149993Y-4636000D01*
X53131242Y-4361870D01*
X53108496Y-4252413D01*
X53075341Y-4092858D01*
X53075336Y-4092841D01*
X53012832Y-3916972D01*
X52983323Y-3833942D01*
X52856911Y-3589977D01*
X52856910Y-3589975D01*
X52856906Y-3589969D01*
X52698459Y-3365500D01*
X52679831Y-3345555D01*
X52510911Y-3164686D01*
X52297769Y-2991282D01*
X52297767Y-2991281D01*
X52297765Y-2991279D01*
X52062998Y-2848514D01*
X51810978Y-2739047D01*
X51546402Y-2664916D01*
X51546397Y-2664915D01*
X51546396Y-2664915D01*
X51382611Y-2642403D01*
X51274186Y-2627500D01*
X51274185Y-2627500D01*
X50999415Y-2627500D01*
X50999414Y-2627500D01*
X50727204Y-2664915D01*
X50727197Y-2664916D01*
X50462621Y-2739047D01*
X50210601Y-2848514D01*
X49975834Y-2991279D01*
X49762692Y-3164683D01*
X49575140Y-3365500D01*
X49416693Y-3589969D01*
X49416689Y-3589975D01*
X49290276Y-3833943D01*
X49198263Y-4092841D01*
X49198258Y-4092858D01*
X49142358Y-4361867D01*
X49142357Y-4361869D01*
X49123607Y-4635999D01*
X46386288Y-4635999D01*
X46388879Y-4591509D01*
X46358029Y-4416546D01*
X46344853Y-4386000D01*
X47625000Y-4386000D01*
X47625000Y-3088172D01*
X47624999Y-3088155D01*
X47618598Y-3028627D01*
X47618596Y-3028620D01*
X47568354Y-2893913D01*
X47568350Y-2893906D01*
X47482190Y-2778812D01*
X47482187Y-2778809D01*
X47367093Y-2692649D01*
X47367086Y-2692645D01*
X47232379Y-2642403D01*
X47232372Y-2642401D01*
X47172844Y-2636000D01*
X45875000Y-2636000D01*
X45875000Y-3914197D01*
X45713831Y-3876000D01*
X45580733Y-3876000D01*
X45448539Y-3891451D01*
X45375000Y-3918217D01*
X45375000Y-2636000D01*
X44077155Y-2636000D01*
X44017627Y-2642401D01*
X44017620Y-2642403D01*
X43882913Y-2692645D01*
X43882906Y-2692649D01*
X43767812Y-2778809D01*
X43767809Y-2778812D01*
X43681649Y-2893906D01*
X43681645Y-2893913D01*
X43631403Y-3028620D01*
X43631401Y-3028627D01*
X43625000Y-3088155D01*
X43625000Y-4386000D01*
X44906517Y-4386000D01*
X44871451Y-4503129D01*
X44861121Y-4680491D01*
X44891971Y-4855454D01*
X44905147Y-4886000D01*
X43625000Y-4886000D01*
X43625000Y-6183844D01*
X41825043Y-6183844D01*
X41919111Y-6107314D01*
X42106657Y-5906502D01*
X42265111Y-5682023D01*
X42391523Y-5438058D01*
X42483538Y-5179153D01*
X42483539Y-5179146D01*
X42483541Y-5179141D01*
X42533428Y-4939070D01*
X42539442Y-4910130D01*
X42558193Y-4636000D01*
X42539442Y-4361870D01*
X42516696Y-4252413D01*
X42483541Y-4092858D01*
X42483536Y-4092841D01*
X42421032Y-3916972D01*
X42391523Y-3833942D01*
X42265111Y-3589977D01*
X42265110Y-3589975D01*
X42265106Y-3589969D01*
X42106659Y-3365500D01*
X42088031Y-3345555D01*
X41919111Y-3164686D01*
X41705969Y-2991282D01*
X41705967Y-2991281D01*
X41705965Y-2991279D01*
X41471198Y-2848514D01*
X41219178Y-2739047D01*
X40954602Y-2664916D01*
X40954597Y-2664915D01*
X40954596Y-2664915D01*
X40790811Y-2642403D01*
X40682386Y-2627500D01*
X40682385Y-2627500D01*
X40407615Y-2627500D01*
X40407614Y-2627500D01*
X40135404Y-2664915D01*
X40135397Y-2664916D01*
X39870821Y-2739047D01*
X39618801Y-2848514D01*
X39384034Y-2991279D01*
X39170892Y-3164683D01*
X38983340Y-3365500D01*
X38824893Y-3589969D01*
X38824889Y-3589975D01*
X38698476Y-3833943D01*
X38606463Y-4092841D01*
X38606458Y-4092858D01*
X38550558Y-4361867D01*
X38550557Y-4361869D01*
X38531807Y-4635999D01*
X38550557Y-4910130D01*
X38550558Y-4910132D01*
X38606458Y-5179141D01*
X38606463Y-5179158D01*
X38698476Y-5438058D01*
X38698477Y-5438060D01*
X38707434Y-5455345D01*
X38720800Y-5523924D01*
X38694967Y-5588843D01*
X38685018Y-5600075D01*
X36955414Y-7329681D01*
X36894091Y-7363166D01*
X36867733Y-7366000D01*
X27681500Y-7366000D01*
X27614461Y-7346315D01*
X27568706Y-7293511D01*
X27557500Y-7242000D01*
X27557500Y-6814631D01*
X27559238Y-6798881D01*
X27558968Y-6798856D01*
X27559701Y-6791094D01*
X27559702Y-6791091D01*
X27557500Y-6721041D01*
X27557500Y-6691144D01*
X27556614Y-6684136D01*
X27556156Y-6678314D01*
X27554673Y-6631110D01*
X27554672Y-6631108D01*
X27548977Y-6611508D01*
X27545032Y-6592457D01*
X27542474Y-6572203D01*
X27525084Y-6528284D01*
X27523193Y-6522757D01*
X27514312Y-6492187D01*
X27510018Y-6477407D01*
X27499623Y-6459831D01*
X27491064Y-6442356D01*
X27483554Y-6423388D01*
X27483554Y-6423387D01*
X27483553Y-6423385D01*
X27483552Y-6423383D01*
X27455789Y-6385171D01*
X27452587Y-6380297D01*
X27428542Y-6339637D01*
X27414106Y-6325201D01*
X27401469Y-6310406D01*
X27389471Y-6293892D01*
X27353084Y-6263790D01*
X27348762Y-6259857D01*
X27272749Y-6183844D01*
X27953200Y-6183844D01*
X27959601Y-6243372D01*
X27959603Y-6243379D01*
X28009845Y-6378086D01*
X28009849Y-6378093D01*
X28096009Y-6493187D01*
X28096012Y-6493190D01*
X28211106Y-6579350D01*
X28211113Y-6579354D01*
X28345820Y-6629596D01*
X28345827Y-6629598D01*
X28405355Y-6635999D01*
X28405372Y-6636000D01*
X29703200Y-6636000D01*
X29703200Y-5357802D01*
X29864369Y-5396000D01*
X29997467Y-5396000D01*
X30129661Y-5380549D01*
X30203200Y-5353782D01*
X30203200Y-6636000D01*
X31501028Y-6636000D01*
X31501044Y-6635999D01*
X31560572Y-6629598D01*
X31560579Y-6629596D01*
X31695286Y-6579354D01*
X31695293Y-6579350D01*
X31810387Y-6493190D01*
X31810390Y-6493187D01*
X31896550Y-6378093D01*
X31896554Y-6378086D01*
X31946796Y-6243379D01*
X31946798Y-6243372D01*
X31953199Y-6183844D01*
X31953200Y-6183827D01*
X31953200Y-4886000D01*
X30671683Y-4886000D01*
X30706749Y-4768871D01*
X30714488Y-4636000D01*
X33451807Y-4636000D01*
X33470557Y-4910130D01*
X33470558Y-4910132D01*
X33526458Y-5179141D01*
X33526463Y-5179158D01*
X33618476Y-5438056D01*
X33744889Y-5682024D01*
X33744893Y-5682030D01*
X33903340Y-5906499D01*
X33903343Y-5906502D01*
X34090889Y-6107314D01*
X34304031Y-6280718D01*
X34304033Y-6280719D01*
X34304034Y-6280720D01*
X34538801Y-6423485D01*
X34696970Y-6492187D01*
X34790823Y-6532953D01*
X35055404Y-6607085D01*
X35294720Y-6639978D01*
X35327614Y-6644500D01*
X35327615Y-6644500D01*
X35602386Y-6644500D01*
X35631733Y-6640466D01*
X35874596Y-6607085D01*
X36139177Y-6532953D01*
X36347752Y-6442356D01*
X36391198Y-6423485D01*
X36391358Y-6423388D01*
X36625969Y-6280718D01*
X36839111Y-6107314D01*
X37026657Y-5906502D01*
X37185111Y-5682023D01*
X37311523Y-5438058D01*
X37403538Y-5179153D01*
X37403539Y-5179146D01*
X37403541Y-5179141D01*
X37453428Y-4939070D01*
X37459442Y-4910130D01*
X37478193Y-4636000D01*
X37459442Y-4361870D01*
X37436696Y-4252413D01*
X37403541Y-4092858D01*
X37403536Y-4092841D01*
X37341032Y-3916972D01*
X37311523Y-3833942D01*
X37185111Y-3589977D01*
X37185110Y-3589975D01*
X37185106Y-3589969D01*
X37026659Y-3365500D01*
X37008031Y-3345555D01*
X36839111Y-3164686D01*
X36625969Y-2991282D01*
X36625967Y-2991281D01*
X36625965Y-2991279D01*
X36391198Y-2848514D01*
X36139178Y-2739047D01*
X35874602Y-2664916D01*
X35874597Y-2664915D01*
X35874596Y-2664915D01*
X35710811Y-2642403D01*
X35602386Y-2627500D01*
X35602385Y-2627500D01*
X35327615Y-2627500D01*
X35327614Y-2627500D01*
X35055404Y-2664915D01*
X35055397Y-2664916D01*
X34790821Y-2739047D01*
X34538801Y-2848514D01*
X34304034Y-2991279D01*
X34090892Y-3164683D01*
X33903340Y-3365500D01*
X33744893Y-3589969D01*
X33744889Y-3589975D01*
X33618476Y-3833943D01*
X33526463Y-4092841D01*
X33526458Y-4092858D01*
X33470558Y-4361867D01*
X33470557Y-4361869D01*
X33451807Y-4636000D01*
X30714488Y-4636000D01*
X30717079Y-4591509D01*
X30686229Y-4416546D01*
X30673053Y-4386000D01*
X31953200Y-4386000D01*
X31953200Y-3088172D01*
X31953199Y-3088155D01*
X31946798Y-3028627D01*
X31946796Y-3028620D01*
X31896554Y-2893913D01*
X31896550Y-2893906D01*
X31810390Y-2778812D01*
X31810387Y-2778809D01*
X31695293Y-2692649D01*
X31695286Y-2692645D01*
X31560579Y-2642403D01*
X31560572Y-2642401D01*
X31501044Y-2636000D01*
X30203200Y-2636000D01*
X30203200Y-3914197D01*
X30042031Y-3876000D01*
X29908933Y-3876000D01*
X29776739Y-3891451D01*
X29703200Y-3918217D01*
X29703200Y-2636000D01*
X28405355Y-2636000D01*
X28345827Y-2642401D01*
X28345820Y-2642403D01*
X28211113Y-2692645D01*
X28211106Y-2692649D01*
X28096012Y-2778809D01*
X28096009Y-2778812D01*
X28009849Y-2893906D01*
X28009845Y-2893913D01*
X27959603Y-3028620D01*
X27959601Y-3028627D01*
X27953200Y-3088155D01*
X27953200Y-4386000D01*
X29234717Y-4386000D01*
X29199651Y-4503129D01*
X29189321Y-4680491D01*
X29220171Y-4855454D01*
X29233347Y-4886000D01*
X27953200Y-4886000D01*
X27953200Y-6183844D01*
X27272749Y-6183844D01*
X26718095Y-5629190D01*
X26684610Y-5567867D01*
X26689594Y-5498175D01*
X26695679Y-5484460D01*
X26719721Y-5438061D01*
X26719723Y-5438058D01*
X26720079Y-5437058D01*
X26811736Y-5179158D01*
X26811738Y-5179153D01*
X26811739Y-5179146D01*
X26811741Y-5179141D01*
X26861628Y-4939070D01*
X26867642Y-4910130D01*
X26886393Y-4636000D01*
X26867642Y-4361870D01*
X26844896Y-4252413D01*
X26811741Y-4092858D01*
X26811736Y-4092841D01*
X26749232Y-3916972D01*
X26719723Y-3833942D01*
X26593311Y-3589977D01*
X26593310Y-3589975D01*
X26593306Y-3589969D01*
X26434859Y-3365500D01*
X26416231Y-3345555D01*
X26247311Y-3164686D01*
X26034169Y-2991282D01*
X26034167Y-2991281D01*
X26034165Y-2991279D01*
X25799398Y-2848514D01*
X25547378Y-2739047D01*
X25282802Y-2664916D01*
X25282797Y-2664915D01*
X25282796Y-2664915D01*
X25119011Y-2642403D01*
X25010586Y-2627500D01*
X25010585Y-2627500D01*
X24735815Y-2627500D01*
X24735814Y-2627500D01*
X24463604Y-2664915D01*
X24463597Y-2664916D01*
X24199021Y-2739047D01*
X23947001Y-2848514D01*
X23712234Y-2991279D01*
X23499092Y-3164683D01*
X23311540Y-3365500D01*
X23153093Y-3589969D01*
X23153089Y-3589975D01*
X23026676Y-3833943D01*
X22934663Y-4092841D01*
X22934658Y-4092858D01*
X22878758Y-4361867D01*
X22878757Y-4361869D01*
X22860007Y-4635999D01*
X22878757Y-4910130D01*
X22878758Y-4910132D01*
X22934658Y-5179141D01*
X22934663Y-5179158D01*
X23026676Y-5438056D01*
X23153089Y-5682024D01*
X23153093Y-5682030D01*
X23311540Y-5906499D01*
X23311543Y-5906502D01*
X23499089Y-6107314D01*
X23712231Y-6280718D01*
X23712233Y-6280719D01*
X23712234Y-6280720D01*
X23947001Y-6423485D01*
X24105170Y-6492187D01*
X24199023Y-6532953D01*
X24463604Y-6607085D01*
X24702920Y-6639978D01*
X24735814Y-6644500D01*
X24735815Y-6644500D01*
X25010586Y-6644500D01*
X25039933Y-6640466D01*
X25282796Y-6607085D01*
X25547377Y-6532953D01*
X25667041Y-6480974D01*
X25736372Y-6472321D01*
X25799376Y-6502524D01*
X25804124Y-6507028D01*
X26254182Y-6957086D01*
X26287666Y-7018407D01*
X26290500Y-7044765D01*
X26290499Y-25541573D01*
X26270814Y-25608612D01*
X26218010Y-25654367D01*
X26166524Y-25665573D01*
X24751071Y-25665863D01*
X24684028Y-25646192D01*
X24674883Y-25639716D01*
X24521326Y-25520197D01*
X24516977Y-25516811D01*
X24473703Y-25493393D01*
X24424113Y-25444173D01*
X24409005Y-25375957D01*
X24433175Y-25310401D01*
X24461598Y-25282763D01*
X24532773Y-25232925D01*
X23903934Y-24604086D01*
X23913715Y-24602680D01*
X24044500Y-24542952D01*
X24153161Y-24448798D01*
X24230893Y-24327844D01*
X24254476Y-24247524D01*
X24886325Y-24879373D01*
X24886326Y-24879373D01*
X24944998Y-24795582D01*
X24945000Y-24795578D01*
X25044829Y-24581492D01*
X25044833Y-24581483D01*
X25105967Y-24353326D01*
X25105969Y-24353315D01*
X25126557Y-24118001D01*
X25126557Y-24117998D01*
X25105969Y-23882684D01*
X25105967Y-23882673D01*
X25044833Y-23654516D01*
X25044829Y-23654507D01*
X24945000Y-23440423D01*
X24944999Y-23440421D01*
X24886325Y-23356626D01*
X24886325Y-23356625D01*
X24254476Y-23988475D01*
X24230893Y-23908156D01*
X24153161Y-23787202D01*
X24044500Y-23693048D01*
X23913715Y-23633320D01*
X23903933Y-23631913D01*
X24532773Y-23003073D01*
X24532773Y-23003072D01*
X24461599Y-22953236D01*
X24417974Y-22898659D01*
X24410780Y-22829161D01*
X24442303Y-22766806D01*
X24473705Y-22742606D01*
X24516976Y-22719189D01*
X24694640Y-22580906D01*
X24847122Y-22415268D01*
X24970260Y-22226791D01*
X25060696Y-22020616D01*
X25115964Y-21802368D01*
X25115965Y-21802359D01*
X25134556Y-21578005D01*
X25134556Y-21577994D01*
X25115965Y-21353640D01*
X25115963Y-21353628D01*
X25076721Y-21198666D01*
X25060696Y-21135384D01*
X24970260Y-20929209D01*
X24847122Y-20740732D01*
X24847119Y-20740729D01*
X24847115Y-20740723D01*
X24694643Y-20575097D01*
X24694638Y-20575092D01*
X24516977Y-20436812D01*
X24516972Y-20436808D01*
X24318980Y-20329661D01*
X24318977Y-20329659D01*
X24318974Y-20329658D01*
X24318971Y-20329657D01*
X24318969Y-20329656D01*
X24106037Y-20256556D01*
X23883969Y-20219500D01*
X23658831Y-20219500D01*
X23658830Y-20219500D01*
X23604094Y-20228633D01*
X23534729Y-20220250D01*
X23496005Y-20194005D01*
X15429136Y-12127136D01*
X15395651Y-12065813D01*
X15399812Y-12000547D01*
X15399395Y-12000430D01*
X15399945Y-11998466D01*
X15399979Y-11997923D01*
X15400538Y-11996353D01*
X15456442Y-11727330D01*
X15475193Y-11453200D01*
X15456442Y-11179070D01*
X15455805Y-11176004D01*
X20392732Y-11176004D01*
X20411777Y-11430154D01*
X20468103Y-11676936D01*
X20468492Y-11678637D01*
X20561607Y-11915888D01*
X20689041Y-12136612D01*
X20847950Y-12335877D01*
X21034783Y-12509232D01*
X21245366Y-12652805D01*
X21245371Y-12652807D01*
X21245372Y-12652808D01*
X21245373Y-12652809D01*
X21392579Y-12723699D01*
X21474996Y-12763389D01*
X21517157Y-12776394D01*
X21524249Y-12779066D01*
X21559245Y-12794755D01*
X21587189Y-12797996D01*
X21718542Y-12838513D01*
X21718547Y-12838513D01*
X21718548Y-12838514D01*
X21766109Y-12845683D01*
X21773301Y-12847207D01*
X21775981Y-12847942D01*
X21776046Y-12847958D01*
X21810236Y-12857352D01*
X21837247Y-12856405D01*
X21970565Y-12876500D01*
X21970571Y-12876500D01*
X22022692Y-12876500D01*
X22029810Y-12876910D01*
X22067689Y-12881284D01*
X22093190Y-12876500D01*
X22225431Y-12876500D01*
X22225435Y-12876500D01*
X22281035Y-12868119D01*
X22287885Y-12867474D01*
X22293249Y-12867269D01*
X22293250Y-12867268D01*
X22295309Y-12867190D01*
X22295349Y-12867187D01*
X22325791Y-12866019D01*
X22349198Y-12857845D01*
X22477458Y-12838513D01*
X22535169Y-12820711D01*
X22541563Y-12819110D01*
X22549131Y-12817643D01*
X22549138Y-12817640D01*
X22549832Y-12817506D01*
X22549841Y-12817504D01*
X22578545Y-12811937D01*
X22599435Y-12800887D01*
X22721004Y-12763389D01*
X22779179Y-12735373D01*
X22785082Y-12732899D01*
X22794440Y-12729539D01*
X22794447Y-12729535D01*
X22795436Y-12729180D01*
X22795464Y-12729169D01*
X22820160Y-12720299D01*
X22838202Y-12706949D01*
X22950634Y-12652805D01*
X23007509Y-12614028D01*
X23012770Y-12610814D01*
X23023425Y-12605021D01*
X23023431Y-12605016D01*
X23045077Y-12593246D01*
X23060058Y-12578200D01*
X23161217Y-12509232D01*
X23214865Y-12459454D01*
X23219428Y-12455614D01*
X23248157Y-12433715D01*
X23259983Y-12417590D01*
X23348050Y-12335877D01*
X23396445Y-12275191D01*
X23400229Y-12270874D01*
X23411461Y-12259204D01*
X23411464Y-12259199D01*
X23412117Y-12258521D01*
X23412124Y-12258514D01*
X23424752Y-12245392D01*
X23433434Y-12228808D01*
X23506959Y-12136612D01*
X23508836Y-12133362D01*
X23547834Y-12065813D01*
X23548033Y-12065467D01*
X23550993Y-12060831D01*
X23561419Y-12046010D01*
X23561423Y-12046001D01*
X23570813Y-12032652D01*
X23576484Y-12016189D01*
X23634393Y-11915888D01*
X23666103Y-11835090D01*
X23668252Y-11830241D01*
X23677074Y-11812424D01*
X23677075Y-11812420D01*
X23679138Y-11808254D01*
X23679850Y-11807481D01*
X23681300Y-11803885D01*
X23681837Y-11802798D01*
X23683357Y-11792569D01*
X23685086Y-11787105D01*
X23686459Y-11783225D01*
X23727508Y-11678637D01*
X23747887Y-11589346D01*
X23749214Y-11584472D01*
X23755476Y-11564685D01*
X23756719Y-11562836D01*
X23758208Y-11556469D01*
X23758168Y-11548058D01*
X23759628Y-11538601D01*
X23760447Y-11534321D01*
X23784222Y-11430157D01*
X23791436Y-11333889D01*
X23791977Y-11329170D01*
X23795506Y-11306325D01*
X23795506Y-11306323D01*
X23795649Y-11305398D01*
X23795653Y-11305360D01*
X23796657Y-11298856D01*
X23795764Y-11292848D01*
X23795779Y-11292012D01*
X23796161Y-11272058D01*
X23796318Y-11268735D01*
X23803268Y-11176000D01*
X23796318Y-11083268D01*
X23796161Y-11079938D01*
X23795763Y-11059150D01*
X23796927Y-11054889D01*
X23795694Y-11046905D01*
X23795691Y-11046878D01*
X23795506Y-11045681D01*
X23795506Y-11045675D01*
X23791978Y-11022838D01*
X23791435Y-11018102D01*
X23784222Y-10921843D01*
X23760442Y-10817657D01*
X23759628Y-10813394D01*
X23758166Y-10803934D01*
X23758927Y-10798225D01*
X23758592Y-10797165D01*
X23757006Y-10790389D01*
X23755476Y-10787314D01*
X23754953Y-10785664D01*
X23749208Y-10767509D01*
X23747889Y-10762661D01*
X23727508Y-10673363D01*
X23686462Y-10568782D01*
X23685085Y-10564890D01*
X23683360Y-10559441D01*
X23683205Y-10551961D01*
X23681299Y-10548112D01*
X23680073Y-10545072D01*
X23679139Y-10543746D01*
X23677063Y-10539554D01*
X23668235Y-10521725D01*
X23666107Y-10516918D01*
X23634393Y-10436112D01*
X23576485Y-10335812D01*
X23573373Y-10322983D01*
X23551006Y-10291185D01*
X23548022Y-10286512D01*
X23508835Y-10218638D01*
X23506959Y-10215388D01*
X23433434Y-10123191D01*
X23428071Y-10110055D01*
X23400240Y-10081137D01*
X23396445Y-10076808D01*
X23348050Y-10016123D01*
X23328529Y-9998010D01*
X23259983Y-9934408D01*
X23252224Y-9921382D01*
X23219427Y-9896383D01*
X23214839Y-9892521D01*
X23161217Y-9842767D01*
X23060058Y-9773798D01*
X23049847Y-9761346D01*
X23012795Y-9741197D01*
X23007485Y-9737955D01*
X22950634Y-9699195D01*
X22950630Y-9699193D01*
X22838201Y-9645050D01*
X22825562Y-9633639D01*
X22796837Y-9623322D01*
X22796828Y-9623318D01*
X22785094Y-9619103D01*
X22779152Y-9616613D01*
X22721006Y-9588612D01*
X22721004Y-9588611D01*
X22670177Y-9572933D01*
X22599434Y-9551111D01*
X22584484Y-9541213D01*
X22541597Y-9532895D01*
X22535122Y-9531274D01*
X22477463Y-9513488D01*
X22477459Y-9513487D01*
X22477458Y-9513487D01*
X22429876Y-9506315D01*
X22349191Y-9494153D01*
X22332124Y-9486218D01*
X22287874Y-9484523D01*
X22281001Y-9483875D01*
X22225440Y-9475500D01*
X22225435Y-9475500D01*
X22093192Y-9475500D01*
X22074308Y-9469955D01*
X22039178Y-9474010D01*
X22039171Y-9474011D01*
X22029819Y-9475091D01*
X22022704Y-9475500D01*
X21970557Y-9475500D01*
X21837233Y-9495596D01*
X21816904Y-9492814D01*
X21777073Y-9503758D01*
X21777038Y-9503767D01*
X21773274Y-9504799D01*
X21766115Y-9506315D01*
X21718539Y-9513487D01*
X21587113Y-9554026D01*
X21565772Y-9554316D01*
X21524247Y-9572933D01*
X21517153Y-9575606D01*
X21474998Y-9588609D01*
X21245370Y-9699192D01*
X21034782Y-9842768D01*
X20847952Y-10016121D01*
X20847950Y-10016123D01*
X20689041Y-10215388D01*
X20561608Y-10436109D01*
X20468492Y-10673362D01*
X20468490Y-10673369D01*
X20411777Y-10921845D01*
X20392732Y-11175995D01*
X20392732Y-11176004D01*
X15455805Y-11176004D01*
X15428722Y-11045675D01*
X15400541Y-10910058D01*
X15400536Y-10910041D01*
X15349880Y-10767509D01*
X15308523Y-10651142D01*
X15182111Y-10407177D01*
X15182110Y-10407175D01*
X15182106Y-10407169D01*
X15023659Y-10182700D01*
X14928805Y-10081137D01*
X14836111Y-9981886D01*
X14622969Y-9808482D01*
X14622967Y-9808481D01*
X14622965Y-9808479D01*
X14388198Y-9665714D01*
X14136178Y-9556247D01*
X13871602Y-9482116D01*
X13871597Y-9482115D01*
X13871596Y-9482115D01*
X13735490Y-9463407D01*
X13599386Y-9444700D01*
X13599385Y-9444700D01*
X13324615Y-9444700D01*
X13324614Y-9444700D01*
X13052404Y-9482115D01*
X13052397Y-9482116D01*
X12787821Y-9556247D01*
X12535801Y-9665714D01*
X12301034Y-9808479D01*
X12087892Y-9981883D01*
X11900340Y-10182700D01*
X11741893Y-10407169D01*
X11741889Y-10407175D01*
X11615476Y-10651143D01*
X11523463Y-10910041D01*
X11523458Y-10910058D01*
X11467558Y-11179067D01*
X11467557Y-11179069D01*
X11448807Y-11453200D01*
X11467557Y-11727330D01*
X11467558Y-11727332D01*
X11523458Y-11996341D01*
X11523463Y-11996358D01*
X11615476Y-12255256D01*
X11741889Y-12499224D01*
X11741893Y-12499230D01*
X11900340Y-12723699D01*
X11900343Y-12723702D01*
X12087889Y-12924514D01*
X12301031Y-13097918D01*
X12301033Y-13097919D01*
X12301034Y-13097920D01*
X12535801Y-13240685D01*
X12710254Y-13316460D01*
X12787823Y-13350153D01*
X13052404Y-13424285D01*
X13277245Y-13455189D01*
X13324614Y-13461700D01*
X13324615Y-13461700D01*
X13599386Y-13461700D01*
X13646755Y-13455189D01*
X13871596Y-13424285D01*
X14004482Y-13387052D01*
X14074346Y-13387920D01*
X14132651Y-13426421D01*
X14160884Y-13490332D01*
X14161901Y-13509429D01*
X14138693Y-14476418D01*
X14117406Y-14542966D01*
X14063519Y-14587441D01*
X13994142Y-14595722D01*
X13981274Y-14592845D01*
X13871602Y-14562116D01*
X13871597Y-14562115D01*
X13871596Y-14562115D01*
X13687105Y-14536757D01*
X13599386Y-14524700D01*
X13599385Y-14524700D01*
X13324615Y-14524700D01*
X13324614Y-14524700D01*
X13052404Y-14562115D01*
X13052397Y-14562116D01*
X12787821Y-14636247D01*
X12535801Y-14745714D01*
X12301034Y-14888479D01*
X12087892Y-15061883D01*
X11900340Y-15262700D01*
X11741893Y-15487169D01*
X11741889Y-15487175D01*
X11615476Y-15731143D01*
X11523463Y-15990041D01*
X11523458Y-15990058D01*
X11467558Y-16259067D01*
X11467557Y-16259069D01*
X11448807Y-16533200D01*
X11467557Y-16807330D01*
X11467558Y-16807332D01*
X11523458Y-17076341D01*
X11523463Y-17076358D01*
X11615476Y-17335256D01*
X11741889Y-17579224D01*
X11741893Y-17579230D01*
X11900340Y-17803699D01*
X11900343Y-17803702D01*
X12087889Y-18004514D01*
X12301031Y-18177918D01*
X12301033Y-18177919D01*
X12301034Y-18177920D01*
X12535801Y-18320685D01*
X12681842Y-18384119D01*
X12787823Y-18430153D01*
X13052404Y-18504285D01*
X13291720Y-18537178D01*
X13324614Y-18541700D01*
X13324615Y-18541700D01*
X13599386Y-18541700D01*
X13626606Y-18537958D01*
X13871596Y-18504285D01*
X13881735Y-18501444D01*
X13951593Y-18502307D01*
X14009900Y-18540805D01*
X14038137Y-18604714D01*
X14039155Y-18623819D01*
X14018520Y-19483675D01*
X13997233Y-19550223D01*
X13943347Y-19594698D01*
X13894556Y-19604700D01*
X11913345Y-19604700D01*
X11852797Y-19611211D01*
X11852795Y-19611211D01*
X11715795Y-19662311D01*
X11598739Y-19749939D01*
X11511111Y-19866995D01*
X11460011Y-20003995D01*
X11460011Y-20003997D01*
X11453500Y-20064545D01*
X11453500Y-23161854D01*
X11460011Y-23222402D01*
X11460011Y-23222404D01*
X11503278Y-23338404D01*
X11511111Y-23359404D01*
X11598739Y-23476461D01*
X11715796Y-23564089D01*
X11852799Y-23615189D01*
X11878946Y-23618000D01*
X11913345Y-23621699D01*
X11913362Y-23621700D01*
X13792196Y-23621700D01*
X13859235Y-23641385D01*
X13904990Y-23694189D01*
X13916160Y-23748675D01*
X13885622Y-25021013D01*
X13864335Y-25087561D01*
X13810448Y-25132036D01*
X13744773Y-25140883D01*
X13599386Y-25120900D01*
X13599385Y-25120900D01*
X13324615Y-25120900D01*
X13324614Y-25120900D01*
X13052404Y-25158315D01*
X13052397Y-25158316D01*
X12787821Y-25232447D01*
X12535801Y-25341914D01*
X12301034Y-25484679D01*
X12087892Y-25658083D01*
X11900340Y-25858900D01*
X11741893Y-26083369D01*
X11741889Y-26083375D01*
X11615476Y-26327343D01*
X11523463Y-26586241D01*
X11523458Y-26586258D01*
X11467558Y-26855267D01*
X11467557Y-26855269D01*
X11448807Y-27129400D01*
X11467557Y-27403530D01*
X11467558Y-27403532D01*
X11523458Y-27672541D01*
X11523463Y-27672558D01*
X11615476Y-27931456D01*
X11741889Y-28175424D01*
X11741893Y-28175430D01*
X11900340Y-28399899D01*
X11900343Y-28399902D01*
X12087889Y-28600714D01*
X12301031Y-28774118D01*
X12301033Y-28774119D01*
X12301034Y-28774120D01*
X12535801Y-28916885D01*
X12710254Y-28992660D01*
X12787823Y-29026353D01*
X13052404Y-29100485D01*
X13277245Y-29131389D01*
X13324614Y-29137900D01*
X13324615Y-29137900D01*
X13599385Y-29137900D01*
X13643093Y-29131892D01*
X13712187Y-29142264D01*
X13764707Y-29188345D01*
X13783976Y-29255505D01*
X13783942Y-29257712D01*
X13764104Y-30084310D01*
X13742817Y-30150858D01*
X13688930Y-30195333D01*
X13623258Y-30204180D01*
X13599392Y-30200900D01*
X13599385Y-30200900D01*
X13324615Y-30200900D01*
X13324614Y-30200900D01*
X13052404Y-30238315D01*
X13052397Y-30238316D01*
X12787821Y-30312447D01*
X12535801Y-30421914D01*
X12301034Y-30564679D01*
X12087892Y-30738083D01*
X11900340Y-30938900D01*
X11741893Y-31163369D01*
X11741889Y-31163375D01*
X11615476Y-31407343D01*
X11523463Y-31666241D01*
X11523458Y-31666258D01*
X11467558Y-31935267D01*
X11467557Y-31935269D01*
X11448807Y-32209400D01*
X11467557Y-32483530D01*
X11467558Y-32483532D01*
X11523458Y-32752541D01*
X11523463Y-32752558D01*
X11615476Y-33011456D01*
X11741889Y-33255424D01*
X11741893Y-33255430D01*
X11900340Y-33479899D01*
X11900343Y-33479902D01*
X12087889Y-33680714D01*
X12301031Y-33854118D01*
X12301033Y-33854119D01*
X12301034Y-33854120D01*
X12535801Y-33996885D01*
X12739476Y-34085353D01*
X12787823Y-34106353D01*
X13052404Y-34180485D01*
X13291720Y-34213378D01*
X13324614Y-34217900D01*
X13537887Y-34217900D01*
X13604926Y-34237585D01*
X13650681Y-34290389D01*
X13661851Y-34344875D01*
X13642291Y-35159875D01*
X13621004Y-35226423D01*
X13567117Y-35270898D01*
X13518327Y-35280900D01*
X11913345Y-35280900D01*
X11852797Y-35287411D01*
X11852795Y-35287411D01*
X11715795Y-35338511D01*
X11598739Y-35426139D01*
X11511111Y-35543195D01*
X11460011Y-35680195D01*
X11460011Y-35680197D01*
X11453500Y-35740745D01*
X11453500Y-38838054D01*
X11460011Y-38898602D01*
X11460011Y-38898604D01*
X11503278Y-39014604D01*
X11511111Y-39035604D01*
X11598739Y-39152661D01*
X11715796Y-39240289D01*
X11852799Y-39291389D01*
X11880050Y-39294318D01*
X11913345Y-39297899D01*
X11913362Y-39297900D01*
X13415967Y-39297900D01*
X13483006Y-39317585D01*
X13528761Y-39370389D01*
X13539931Y-39424875D01*
X13510008Y-40671675D01*
X13488721Y-40738223D01*
X13434834Y-40782698D01*
X13386044Y-40792700D01*
X13324614Y-40792700D01*
X13052404Y-40830115D01*
X13052397Y-40830116D01*
X12787821Y-40904247D01*
X12535801Y-41013714D01*
X12301034Y-41156479D01*
X12087892Y-41329883D01*
X11900340Y-41530700D01*
X11741893Y-41755169D01*
X11741889Y-41755175D01*
X11615476Y-41999143D01*
X11523463Y-42258041D01*
X11523458Y-42258058D01*
X11467558Y-42527067D01*
X11467557Y-42527069D01*
X11448807Y-42801199D01*
X11467557Y-43075330D01*
X11467558Y-43075332D01*
X11523458Y-43344341D01*
X11523463Y-43344358D01*
X11615476Y-43603256D01*
X11741889Y-43847224D01*
X11741893Y-43847230D01*
X11900340Y-44071699D01*
X11900343Y-44071702D01*
X12087889Y-44272514D01*
X12301031Y-44445918D01*
X12301033Y-44445919D01*
X12301034Y-44445920D01*
X12535801Y-44588685D01*
X12710254Y-44664460D01*
X12787823Y-44698153D01*
X13052404Y-44772285D01*
X13277245Y-44803189D01*
X13324614Y-44809700D01*
X13324615Y-44809700D01*
X13599386Y-44809700D01*
X13646755Y-44803189D01*
X13871596Y-44772285D01*
X14136177Y-44698153D01*
X14388200Y-44588684D01*
X14622969Y-44445918D01*
X14836111Y-44272514D01*
X14857868Y-44249217D01*
X14918012Y-44213659D01*
X14987833Y-44216260D01*
X15036173Y-44246173D01*
X20283681Y-49493681D01*
X20317166Y-49555004D01*
X20320000Y-49581362D01*
X20320000Y-54232000D01*
X20300315Y-54299039D01*
X20247511Y-54344794D01*
X20196000Y-54356000D01*
X15594500Y-54356000D01*
X15527461Y-54336315D01*
X15481706Y-54283511D01*
X15470500Y-54232000D01*
X15470500Y-51412562D01*
X15470499Y-51412545D01*
X15465883Y-51369619D01*
X15463989Y-51351999D01*
X15459364Y-51339600D01*
X17424905Y-51339600D01*
X17477639Y-51524949D01*
X17576768Y-51724025D01*
X17710791Y-51901500D01*
X17875138Y-52051321D01*
X18064220Y-52168397D01*
X18064222Y-52168398D01*
X18271595Y-52248735D01*
X18351400Y-52263652D01*
X18351400Y-51339600D01*
X17424905Y-51339600D01*
X15459364Y-51339600D01*
X15438507Y-51283679D01*
X15412889Y-51214996D01*
X15340954Y-51118902D01*
X18247772Y-51118902D01*
X18276447Y-51232138D01*
X18340336Y-51329927D01*
X18432515Y-51401672D01*
X18542995Y-51439600D01*
X18630405Y-51439600D01*
X18716616Y-51425214D01*
X18819347Y-51369619D01*
X18846981Y-51339600D01*
X18851400Y-51339600D01*
X18851400Y-52263652D01*
X18931204Y-52248735D01*
X19138577Y-52168398D01*
X19138579Y-52168397D01*
X19327661Y-52051321D01*
X19492008Y-51901500D01*
X19626031Y-51724025D01*
X19725160Y-51524949D01*
X19777895Y-51339600D01*
X18851400Y-51339600D01*
X18846981Y-51339600D01*
X18898460Y-51283679D01*
X18945382Y-51176708D01*
X18955028Y-51060298D01*
X18926353Y-50947062D01*
X18862464Y-50849273D01*
X18770285Y-50777528D01*
X18659805Y-50739600D01*
X18572395Y-50739600D01*
X18486184Y-50753986D01*
X18383453Y-50809581D01*
X18304340Y-50895521D01*
X18257418Y-51002492D01*
X18247772Y-51118902D01*
X15340954Y-51118902D01*
X15325261Y-51097939D01*
X15208204Y-51010311D01*
X15154060Y-50990116D01*
X15071203Y-50959211D01*
X15010654Y-50952700D01*
X15010638Y-50952700D01*
X11913362Y-50952700D01*
X11913345Y-50952700D01*
X11852797Y-50959211D01*
X11852795Y-50959211D01*
X11715795Y-51010311D01*
X11598739Y-51097939D01*
X11511111Y-51214995D01*
X11460011Y-51351995D01*
X11460011Y-51351997D01*
X11453500Y-51412545D01*
X11453500Y-54232000D01*
X11433815Y-54299039D01*
X11381011Y-54344794D01*
X11329500Y-54356000D01*
X7111227Y-54356000D01*
X7044188Y-54336315D01*
X6998433Y-54283511D01*
X6988489Y-54214353D01*
X7009923Y-54160492D01*
X7118106Y-54007230D01*
X7118110Y-54007224D01*
X7118111Y-54007223D01*
X7244523Y-53763258D01*
X7336538Y-53504353D01*
X7336539Y-53504346D01*
X7336541Y-53504341D01*
X7362491Y-53379459D01*
X7392442Y-53235330D01*
X7411193Y-52961200D01*
X7392442Y-52687070D01*
X7354214Y-52503107D01*
X7336541Y-52418058D01*
X7336536Y-52418041D01*
X7254451Y-52187077D01*
X7244523Y-52159142D01*
X7118111Y-51915177D01*
X7118110Y-51915175D01*
X7118106Y-51915169D01*
X6959659Y-51690700D01*
X6891170Y-51617367D01*
X6772111Y-51489886D01*
X6558969Y-51316482D01*
X6558967Y-51316481D01*
X6558965Y-51316479D01*
X6324198Y-51173714D01*
X6072178Y-51064247D01*
X5807602Y-50990116D01*
X5807597Y-50990115D01*
X5807596Y-50990115D01*
X5671490Y-50971407D01*
X5535386Y-50952700D01*
X5535385Y-50952700D01*
X5260615Y-50952700D01*
X5260614Y-50952700D01*
X4988404Y-50990115D01*
X4988397Y-50990116D01*
X4723821Y-51064247D01*
X4471801Y-51173714D01*
X4237034Y-51316479D01*
X4023892Y-51489883D01*
X3836340Y-51690700D01*
X3677893Y-51915169D01*
X3677889Y-51915175D01*
X3551476Y-52159143D01*
X3459463Y-52418041D01*
X3459458Y-52418058D01*
X3403558Y-52687067D01*
X3403557Y-52687069D01*
X3384807Y-52961200D01*
X3403557Y-53235330D01*
X3403558Y-53235332D01*
X3459458Y-53504341D01*
X3459463Y-53504358D01*
X3551476Y-53763256D01*
X3677889Y-54007224D01*
X3677893Y-54007230D01*
X3786077Y-54160492D01*
X3808656Y-54226613D01*
X3791902Y-54294444D01*
X3741136Y-54342450D01*
X3684773Y-54356000D01*
X-535900Y-54356000D01*
X-602939Y-54336315D01*
X-648694Y-54283511D01*
X-659900Y-54232000D01*
X-659900Y-50839600D01*
X17424905Y-50839600D01*
X18351400Y-50839600D01*
X18351400Y-49915546D01*
X18851400Y-49915546D01*
X18851400Y-50839600D01*
X19777895Y-50839600D01*
X19725160Y-50654250D01*
X19626031Y-50455174D01*
X19492008Y-50277699D01*
X19327661Y-50127878D01*
X19138579Y-50010802D01*
X19138577Y-50010801D01*
X18931199Y-49930464D01*
X18851400Y-49915546D01*
X18351400Y-49915546D01*
X18271600Y-49930464D01*
X18064222Y-50010801D01*
X18064220Y-50010802D01*
X17875138Y-50127878D01*
X17710791Y-50277699D01*
X17576768Y-50455174D01*
X17477639Y-50654250D01*
X17424905Y-50839600D01*
X-659900Y-50839600D01*
X-659900Y-47881200D01*
X3384807Y-47881200D01*
X3403557Y-48155330D01*
X3403558Y-48155332D01*
X3459458Y-48424341D01*
X3459463Y-48424358D01*
X3551476Y-48683256D01*
X3677889Y-48927224D01*
X3677893Y-48927230D01*
X3836340Y-49151699D01*
X3836343Y-49151702D01*
X4023889Y-49352514D01*
X4237031Y-49525918D01*
X4237033Y-49525919D01*
X4237034Y-49525920D01*
X4471801Y-49668685D01*
X4675476Y-49757153D01*
X4723823Y-49778153D01*
X4988404Y-49852285D01*
X5227720Y-49885178D01*
X5260614Y-49889700D01*
X5260615Y-49889700D01*
X5535386Y-49889700D01*
X5564733Y-49885666D01*
X5807596Y-49852285D01*
X6072177Y-49778153D01*
X6324200Y-49668684D01*
X6558969Y-49525918D01*
X6772111Y-49352514D01*
X6959657Y-49151702D01*
X7118111Y-48927223D01*
X7244523Y-48683258D01*
X7336538Y-48424353D01*
X7336539Y-48424346D01*
X7336541Y-48424341D01*
X7391739Y-48158711D01*
X7392442Y-48155330D01*
X7411193Y-47881200D01*
X11448807Y-47881200D01*
X11467557Y-48155330D01*
X11467558Y-48155332D01*
X11523458Y-48424341D01*
X11523463Y-48424358D01*
X11615476Y-48683256D01*
X11741889Y-48927224D01*
X11741893Y-48927230D01*
X11900340Y-49151699D01*
X11900343Y-49151702D01*
X12087889Y-49352514D01*
X12301031Y-49525918D01*
X12301033Y-49525919D01*
X12301034Y-49525920D01*
X12535801Y-49668685D01*
X12739476Y-49757153D01*
X12787823Y-49778153D01*
X13052404Y-49852285D01*
X13291720Y-49885178D01*
X13324614Y-49889700D01*
X13324615Y-49889700D01*
X13599386Y-49889700D01*
X13628733Y-49885666D01*
X13871596Y-49852285D01*
X14136177Y-49778153D01*
X14388200Y-49668684D01*
X14622969Y-49525918D01*
X14836111Y-49352514D01*
X15023657Y-49151702D01*
X15182111Y-48927223D01*
X15308523Y-48683258D01*
X15400538Y-48424353D01*
X15400539Y-48424346D01*
X15400541Y-48424341D01*
X15455739Y-48158711D01*
X15456442Y-48155330D01*
X15475193Y-47881200D01*
X15456442Y-47607070D01*
X15437141Y-47514189D01*
X15400541Y-47338058D01*
X15400536Y-47338041D01*
X15308523Y-47079143D01*
X15308523Y-47079142D01*
X15182111Y-46835177D01*
X15182110Y-46835175D01*
X15182106Y-46835169D01*
X15023659Y-46610700D01*
X15004044Y-46589698D01*
X14836111Y-46409886D01*
X14622969Y-46236482D01*
X14622967Y-46236481D01*
X14622965Y-46236479D01*
X14388198Y-46093714D01*
X14136178Y-45984247D01*
X13871602Y-45910116D01*
X13871597Y-45910115D01*
X13871596Y-45910115D01*
X13718812Y-45889115D01*
X13599386Y-45872700D01*
X13599385Y-45872700D01*
X13324615Y-45872700D01*
X13324614Y-45872700D01*
X13052404Y-45910115D01*
X13052397Y-45910116D01*
X12787821Y-45984247D01*
X12535801Y-46093714D01*
X12301034Y-46236479D01*
X12087892Y-46409883D01*
X11900340Y-46610700D01*
X11741893Y-46835169D01*
X11741889Y-46835175D01*
X11615476Y-47079143D01*
X11523463Y-47338041D01*
X11523458Y-47338058D01*
X11467558Y-47607067D01*
X11467557Y-47607069D01*
X11448807Y-47881200D01*
X7411193Y-47881200D01*
X7392442Y-47607070D01*
X7373141Y-47514189D01*
X7336541Y-47338058D01*
X7336536Y-47338041D01*
X7244523Y-47079143D01*
X7244523Y-47079142D01*
X7118111Y-46835177D01*
X7118110Y-46835175D01*
X7118106Y-46835169D01*
X6959659Y-46610700D01*
X6940044Y-46589698D01*
X6772111Y-46409886D01*
X6558969Y-46236482D01*
X6558967Y-46236481D01*
X6558965Y-46236479D01*
X6324198Y-46093714D01*
X6072178Y-45984247D01*
X5807602Y-45910116D01*
X5807597Y-45910115D01*
X5807596Y-45910115D01*
X5654812Y-45889115D01*
X5535386Y-45872700D01*
X5535385Y-45872700D01*
X5260615Y-45872700D01*
X5260614Y-45872700D01*
X4988404Y-45910115D01*
X4988397Y-45910116D01*
X4723821Y-45984247D01*
X4471801Y-46093714D01*
X4237034Y-46236479D01*
X4023892Y-46409883D01*
X3836340Y-46610700D01*
X3677893Y-46835169D01*
X3677889Y-46835175D01*
X3551476Y-47079143D01*
X3459463Y-47338041D01*
X3459458Y-47338058D01*
X3403558Y-47607067D01*
X3403557Y-47607069D01*
X3384807Y-47881200D01*
X-659900Y-47881200D01*
X-659900Y-44349854D01*
X3389500Y-44349854D01*
X3396011Y-44410402D01*
X3396011Y-44410404D01*
X3447111Y-44547403D01*
X3447111Y-44547404D01*
X3534739Y-44664461D01*
X3651796Y-44752089D01*
X3788799Y-44803189D01*
X3816050Y-44806118D01*
X3849345Y-44809699D01*
X3849362Y-44809700D01*
X6946638Y-44809700D01*
X6946654Y-44809699D01*
X6973692Y-44806791D01*
X7007201Y-44803189D01*
X7144204Y-44752089D01*
X7261261Y-44664461D01*
X7348889Y-44547404D01*
X7399989Y-44410401D01*
X7403591Y-44376892D01*
X7406499Y-44349854D01*
X7406500Y-44349837D01*
X7406500Y-41252562D01*
X7406499Y-41252545D01*
X7403157Y-41221470D01*
X7399989Y-41191999D01*
X7348889Y-41054996D01*
X7261261Y-40937939D01*
X7144204Y-40850311D01*
X7090060Y-40830116D01*
X7007203Y-40799211D01*
X6946654Y-40792700D01*
X6946638Y-40792700D01*
X3849362Y-40792700D01*
X3849345Y-40792700D01*
X3788797Y-40799211D01*
X3788795Y-40799211D01*
X3651795Y-40850311D01*
X3534739Y-40937939D01*
X3447111Y-41054995D01*
X3396011Y-41191995D01*
X3396011Y-41191997D01*
X3389500Y-41252545D01*
X3389500Y-44349854D01*
X-659900Y-44349854D01*
X-659900Y-37289400D01*
X3384807Y-37289400D01*
X3403557Y-37563530D01*
X3403558Y-37563532D01*
X3459458Y-37832541D01*
X3459463Y-37832558D01*
X3551476Y-38091456D01*
X3677889Y-38335424D01*
X3677893Y-38335430D01*
X3836340Y-38559899D01*
X3836343Y-38559902D01*
X4023889Y-38760714D01*
X4237031Y-38934118D01*
X4237033Y-38934119D01*
X4237034Y-38934120D01*
X4471801Y-39076885D01*
X4597909Y-39131661D01*
X4723823Y-39186353D01*
X4988404Y-39260485D01*
X5213245Y-39291389D01*
X5260614Y-39297900D01*
X5260615Y-39297900D01*
X5535386Y-39297900D01*
X5582755Y-39291389D01*
X5807596Y-39260485D01*
X6072177Y-39186353D01*
X6324200Y-39076884D01*
X6558969Y-38934118D01*
X6772111Y-38760714D01*
X6959657Y-38559902D01*
X7118111Y-38335423D01*
X7244523Y-38091458D01*
X7336538Y-37832553D01*
X7336539Y-37832546D01*
X7336541Y-37832541D01*
X7373378Y-37655268D01*
X7392442Y-37563530D01*
X7411193Y-37289400D01*
X7392442Y-37015270D01*
X7373141Y-36922389D01*
X7336541Y-36746258D01*
X7336536Y-36746241D01*
X7284539Y-36599937D01*
X7244523Y-36487342D01*
X7118111Y-36243377D01*
X7118110Y-36243375D01*
X7118106Y-36243369D01*
X6959659Y-36018900D01*
X6889573Y-35943857D01*
X6772111Y-35818086D01*
X6558969Y-35644682D01*
X6558967Y-35644681D01*
X6558965Y-35644679D01*
X6324198Y-35501914D01*
X6072178Y-35392447D01*
X5807602Y-35318316D01*
X5807597Y-35318315D01*
X5807596Y-35318315D01*
X5671490Y-35299607D01*
X5535386Y-35280900D01*
X5535385Y-35280900D01*
X5260615Y-35280900D01*
X5260614Y-35280900D01*
X4988404Y-35318315D01*
X4988397Y-35318316D01*
X4723821Y-35392447D01*
X4471801Y-35501914D01*
X4237034Y-35644679D01*
X4023892Y-35818083D01*
X3836340Y-36018900D01*
X3677893Y-36243369D01*
X3677889Y-36243375D01*
X3551476Y-36487343D01*
X3459463Y-36746241D01*
X3459458Y-36746258D01*
X3403558Y-37015267D01*
X3403557Y-37015269D01*
X3384807Y-37289400D01*
X-659900Y-37289400D01*
X-659900Y-32209399D01*
X3384807Y-32209399D01*
X3403557Y-32483530D01*
X3403558Y-32483532D01*
X3459458Y-32752541D01*
X3459463Y-32752558D01*
X3551476Y-33011456D01*
X3677889Y-33255424D01*
X3677893Y-33255430D01*
X3836340Y-33479899D01*
X3836343Y-33479902D01*
X4023889Y-33680714D01*
X4237031Y-33854118D01*
X4237033Y-33854119D01*
X4237034Y-33854120D01*
X4471801Y-33996885D01*
X4675476Y-34085353D01*
X4723823Y-34106353D01*
X4988404Y-34180485D01*
X5227720Y-34213378D01*
X5260614Y-34217900D01*
X5260615Y-34217900D01*
X5535386Y-34217900D01*
X5564733Y-34213866D01*
X5807596Y-34180485D01*
X6072177Y-34106353D01*
X6290838Y-34011375D01*
X6324198Y-33996885D01*
X6324200Y-33996884D01*
X6558969Y-33854118D01*
X6772111Y-33680714D01*
X6959657Y-33479902D01*
X7118111Y-33255423D01*
X7244523Y-33011458D01*
X7336538Y-32752553D01*
X7336539Y-32752546D01*
X7336541Y-32752541D01*
X7381141Y-32537913D01*
X7392442Y-32483530D01*
X7411193Y-32209400D01*
X7392442Y-31935270D01*
X7373141Y-31842389D01*
X7336541Y-31666258D01*
X7336536Y-31666241D01*
X7296790Y-31554407D01*
X7244523Y-31407342D01*
X7118111Y-31163377D01*
X7118110Y-31163375D01*
X7118106Y-31163369D01*
X6959659Y-30938900D01*
X6907217Y-30882749D01*
X6772111Y-30738086D01*
X6558969Y-30564682D01*
X6558967Y-30564681D01*
X6558965Y-30564679D01*
X6324198Y-30421914D01*
X6072178Y-30312447D01*
X5807602Y-30238316D01*
X5807597Y-30238315D01*
X5807596Y-30238315D01*
X5654812Y-30217315D01*
X5535386Y-30200900D01*
X5535385Y-30200900D01*
X5260615Y-30200900D01*
X5260614Y-30200900D01*
X4988404Y-30238315D01*
X4988397Y-30238316D01*
X4723821Y-30312447D01*
X4471801Y-30421914D01*
X4237034Y-30564679D01*
X4023892Y-30738083D01*
X3836340Y-30938900D01*
X3677893Y-31163369D01*
X3677889Y-31163375D01*
X3551476Y-31407343D01*
X3459463Y-31666241D01*
X3459458Y-31666258D01*
X3403558Y-31935267D01*
X3403557Y-31935269D01*
X3384807Y-32209399D01*
X-659900Y-32209399D01*
X-659900Y-28678054D01*
X3389500Y-28678054D01*
X3396011Y-28738602D01*
X3396011Y-28738604D01*
X3447111Y-28875603D01*
X3447111Y-28875604D01*
X3534739Y-28992661D01*
X3651796Y-29080289D01*
X3788799Y-29131389D01*
X3816050Y-29134318D01*
X3849345Y-29137899D01*
X3849362Y-29137900D01*
X6946638Y-29137900D01*
X6946654Y-29137899D01*
X6973692Y-29134991D01*
X7007201Y-29131389D01*
X7144204Y-29080289D01*
X7261261Y-28992661D01*
X7348889Y-28875604D01*
X7399989Y-28738601D01*
X7404978Y-28692198D01*
X7406499Y-28678054D01*
X7406500Y-28678037D01*
X7406500Y-25580762D01*
X7406499Y-25580745D01*
X7402287Y-25541573D01*
X7399989Y-25520199D01*
X7398725Y-25516811D01*
X7358759Y-25409658D01*
X7348889Y-25383196D01*
X7261261Y-25266139D01*
X7144204Y-25178511D01*
X7090060Y-25158316D01*
X7007203Y-25127411D01*
X6946654Y-25120900D01*
X6946638Y-25120900D01*
X3849362Y-25120900D01*
X3849345Y-25120900D01*
X3788797Y-25127411D01*
X3788795Y-25127411D01*
X3651795Y-25178511D01*
X3534739Y-25266139D01*
X3447111Y-25383195D01*
X3396011Y-25520195D01*
X3396011Y-25520197D01*
X3389500Y-25580745D01*
X3389500Y-28678054D01*
X-659900Y-28678054D01*
X-659900Y-21613200D01*
X3384807Y-21613200D01*
X3403557Y-21887330D01*
X3403558Y-21887332D01*
X3459458Y-22156341D01*
X3459463Y-22156358D01*
X3551476Y-22415256D01*
X3677889Y-22659224D01*
X3677893Y-22659230D01*
X3836340Y-22883699D01*
X3836343Y-22883702D01*
X4023889Y-23084514D01*
X4237031Y-23257918D01*
X4237033Y-23257919D01*
X4237034Y-23257920D01*
X4471801Y-23400685D01*
X4597909Y-23455461D01*
X4723823Y-23510153D01*
X4988404Y-23584285D01*
X5213245Y-23615189D01*
X5260614Y-23621700D01*
X5260615Y-23621700D01*
X5535386Y-23621700D01*
X5582755Y-23615189D01*
X5807596Y-23584285D01*
X6072177Y-23510153D01*
X6324200Y-23400684D01*
X6558969Y-23257918D01*
X6772111Y-23084514D01*
X6959657Y-22883702D01*
X7118111Y-22659223D01*
X7244523Y-22415258D01*
X7336538Y-22156353D01*
X7336539Y-22156346D01*
X7336541Y-22156341D01*
X7364745Y-22020614D01*
X7392442Y-21887330D01*
X7411193Y-21613200D01*
X7392442Y-21339070D01*
X7362052Y-21192827D01*
X7336541Y-21070058D01*
X7336536Y-21070041D01*
X7259405Y-20853016D01*
X7244523Y-20811142D01*
X7118111Y-20567177D01*
X7118110Y-20567175D01*
X7118106Y-20567169D01*
X6959659Y-20342700D01*
X6914257Y-20294087D01*
X6772111Y-20141886D01*
X6558969Y-19968482D01*
X6558967Y-19968481D01*
X6558965Y-19968479D01*
X6324198Y-19825714D01*
X6072178Y-19716247D01*
X5807602Y-19642116D01*
X5807597Y-19642115D01*
X5807596Y-19642115D01*
X5623105Y-19616757D01*
X5535386Y-19604700D01*
X5535385Y-19604700D01*
X5260615Y-19604700D01*
X5260614Y-19604700D01*
X4988404Y-19642115D01*
X4988397Y-19642116D01*
X4723821Y-19716247D01*
X4471801Y-19825714D01*
X4237034Y-19968479D01*
X4023892Y-20141883D01*
X3836340Y-20342700D01*
X3677893Y-20567169D01*
X3677889Y-20567175D01*
X3551476Y-20811143D01*
X3459463Y-21070041D01*
X3459458Y-21070058D01*
X3403558Y-21339067D01*
X3403557Y-21339069D01*
X3384807Y-21613200D01*
X-659900Y-21613200D01*
X-659900Y-16533200D01*
X3384807Y-16533200D01*
X3403557Y-16807330D01*
X3403558Y-16807332D01*
X3459458Y-17076341D01*
X3459463Y-17076358D01*
X3551476Y-17335256D01*
X3677889Y-17579224D01*
X3677893Y-17579230D01*
X3836340Y-17803699D01*
X3836343Y-17803702D01*
X4023889Y-18004514D01*
X4237031Y-18177918D01*
X4237033Y-18177919D01*
X4237034Y-18177920D01*
X4471801Y-18320685D01*
X4617842Y-18384119D01*
X4723823Y-18430153D01*
X4988404Y-18504285D01*
X5227720Y-18537178D01*
X5260614Y-18541700D01*
X5260615Y-18541700D01*
X5535386Y-18541700D01*
X5564733Y-18537666D01*
X5807596Y-18504285D01*
X6072177Y-18430153D01*
X6324200Y-18320684D01*
X6558969Y-18177918D01*
X6772111Y-18004514D01*
X6959657Y-17803702D01*
X7118111Y-17579223D01*
X7244523Y-17335258D01*
X7336538Y-17076353D01*
X7336539Y-17076346D01*
X7336541Y-17076341D01*
X7362491Y-16951459D01*
X7392442Y-16807330D01*
X7411193Y-16533200D01*
X7392442Y-16259070D01*
X7364275Y-16123523D01*
X7336541Y-15990058D01*
X7336536Y-15990041D01*
X7302830Y-15895201D01*
X7244523Y-15731142D01*
X7118111Y-15487177D01*
X7118110Y-15487175D01*
X7118106Y-15487169D01*
X6959659Y-15262700D01*
X6914257Y-15214087D01*
X6772111Y-15061886D01*
X6558969Y-14888482D01*
X6558967Y-14888481D01*
X6558965Y-14888479D01*
X6324198Y-14745714D01*
X6072178Y-14636247D01*
X5807602Y-14562116D01*
X5807597Y-14562115D01*
X5807596Y-14562115D01*
X5623105Y-14536757D01*
X5535386Y-14524700D01*
X5535385Y-14524700D01*
X5260615Y-14524700D01*
X5260614Y-14524700D01*
X4988404Y-14562115D01*
X4988397Y-14562116D01*
X4723821Y-14636247D01*
X4471801Y-14745714D01*
X4237034Y-14888479D01*
X4023892Y-15061883D01*
X3836340Y-15262700D01*
X3677893Y-15487169D01*
X3677889Y-15487175D01*
X3551476Y-15731143D01*
X3459463Y-15990041D01*
X3459458Y-15990058D01*
X3403558Y-16259067D01*
X3403557Y-16259069D01*
X3384807Y-16533200D01*
X-659900Y-16533200D01*
X-659900Y-13001854D01*
X3389500Y-13001854D01*
X3396011Y-13062402D01*
X3396011Y-13062404D01*
X3447111Y-13199404D01*
X3534739Y-13316461D01*
X3651796Y-13404089D01*
X3788799Y-13455189D01*
X3816050Y-13458118D01*
X3849345Y-13461699D01*
X3849362Y-13461700D01*
X6946638Y-13461700D01*
X6946654Y-13461699D01*
X6973692Y-13458791D01*
X7007201Y-13455189D01*
X7144204Y-13404089D01*
X7261261Y-13316461D01*
X7348889Y-13199404D01*
X7399989Y-13062401D01*
X7403591Y-13028892D01*
X7406499Y-13001854D01*
X7406500Y-13001837D01*
X7406500Y-9904562D01*
X7406499Y-9904545D01*
X7403157Y-9873470D01*
X7399989Y-9843999D01*
X7399529Y-9842767D01*
X7372381Y-9769980D01*
X7348889Y-9706996D01*
X7261261Y-9589939D01*
X7144204Y-9502311D01*
X7118742Y-9492814D01*
X7007203Y-9451211D01*
X6946654Y-9444700D01*
X6946638Y-9444700D01*
X3849362Y-9444700D01*
X3849345Y-9444700D01*
X3788797Y-9451211D01*
X3788795Y-9451211D01*
X3651795Y-9502311D01*
X3534739Y-9589939D01*
X3447111Y-9706995D01*
X3396011Y-9843995D01*
X3396011Y-9843997D01*
X3389500Y-9904545D01*
X3389500Y-13001854D01*
X-659900Y-13001854D01*
X-659900Y-4636000D01*
X2103807Y-4636000D01*
X2122557Y-4910130D01*
X2122558Y-4910132D01*
X2178458Y-5179141D01*
X2178463Y-5179158D01*
X2270476Y-5438056D01*
X2396889Y-5682024D01*
X2396893Y-5682030D01*
X2555340Y-5906499D01*
X2555343Y-5906502D01*
X2742889Y-6107314D01*
X2956031Y-6280718D01*
X2956033Y-6280719D01*
X2956034Y-6280720D01*
X3190801Y-6423485D01*
X3348970Y-6492187D01*
X3442823Y-6532953D01*
X3707404Y-6607085D01*
X3946720Y-6639978D01*
X3979614Y-6644500D01*
X3979615Y-6644500D01*
X4254386Y-6644500D01*
X4283733Y-6640466D01*
X4526596Y-6607085D01*
X4791177Y-6532953D01*
X4999752Y-6442356D01*
X5043198Y-6423485D01*
X5043358Y-6423388D01*
X5277969Y-6280718D01*
X5491111Y-6107314D01*
X5678657Y-5906502D01*
X5837111Y-5682023D01*
X5963523Y-5438058D01*
X6055538Y-5179153D01*
X6055539Y-5179146D01*
X6055541Y-5179141D01*
X6105428Y-4939070D01*
X6111442Y-4910130D01*
X6130193Y-4636000D01*
X6130193Y-4635999D01*
X7183807Y-4635999D01*
X7202557Y-4910130D01*
X7202558Y-4910132D01*
X7258458Y-5179141D01*
X7258463Y-5179158D01*
X7350476Y-5438056D01*
X7476889Y-5682024D01*
X7476893Y-5682030D01*
X7635340Y-5906499D01*
X7635343Y-5906502D01*
X7822889Y-6107314D01*
X8036031Y-6280718D01*
X8036033Y-6280719D01*
X8036034Y-6280720D01*
X8270801Y-6423485D01*
X8428970Y-6492187D01*
X8522823Y-6532953D01*
X8787404Y-6607085D01*
X9026720Y-6639978D01*
X9059614Y-6644500D01*
X9059615Y-6644500D01*
X9334386Y-6644500D01*
X9363733Y-6640466D01*
X9606596Y-6607085D01*
X9871177Y-6532953D01*
X10079752Y-6442356D01*
X10123198Y-6423485D01*
X10123358Y-6423388D01*
X10357969Y-6280718D01*
X10477043Y-6183844D01*
X12277000Y-6183844D01*
X12283401Y-6243372D01*
X12283403Y-6243379D01*
X12333645Y-6378086D01*
X12333649Y-6378093D01*
X12419809Y-6493187D01*
X12419812Y-6493190D01*
X12534906Y-6579350D01*
X12534913Y-6579354D01*
X12669620Y-6629596D01*
X12669627Y-6629598D01*
X12729155Y-6635999D01*
X12729172Y-6636000D01*
X14027000Y-6636000D01*
X14027000Y-5357802D01*
X14188169Y-5396000D01*
X14321267Y-5396000D01*
X14453461Y-5380549D01*
X14527000Y-5353782D01*
X14527000Y-6636000D01*
X15824828Y-6636000D01*
X15824844Y-6635999D01*
X15884372Y-6629598D01*
X15884379Y-6629596D01*
X16019086Y-6579354D01*
X16019093Y-6579350D01*
X16134187Y-6493190D01*
X16134190Y-6493187D01*
X16220350Y-6378093D01*
X16220354Y-6378086D01*
X16270596Y-6243379D01*
X16270598Y-6243372D01*
X16276999Y-6183844D01*
X16277000Y-6183827D01*
X16277000Y-4886000D01*
X14995483Y-4886000D01*
X15030549Y-4768871D01*
X15038288Y-4635999D01*
X17780007Y-4635999D01*
X17798757Y-4910130D01*
X17798758Y-4910132D01*
X17854658Y-5179141D01*
X17854663Y-5179158D01*
X17946676Y-5438056D01*
X18073089Y-5682024D01*
X18073093Y-5682030D01*
X18231540Y-5906499D01*
X18231543Y-5906502D01*
X18419089Y-6107314D01*
X18632231Y-6280718D01*
X18632233Y-6280719D01*
X18632234Y-6280720D01*
X18867001Y-6423485D01*
X19025170Y-6492187D01*
X19119023Y-6532953D01*
X19383604Y-6607085D01*
X19622920Y-6639978D01*
X19655814Y-6644500D01*
X19655815Y-6644500D01*
X19930586Y-6644500D01*
X19959933Y-6640466D01*
X20202796Y-6607085D01*
X20467377Y-6532953D01*
X20675952Y-6442356D01*
X20719398Y-6423485D01*
X20719558Y-6423388D01*
X20954169Y-6280718D01*
X21167311Y-6107314D01*
X21354857Y-5906502D01*
X21513311Y-5682023D01*
X21639723Y-5438058D01*
X21731738Y-5179153D01*
X21731739Y-5179146D01*
X21731741Y-5179141D01*
X21781628Y-4939070D01*
X21787642Y-4910130D01*
X21806393Y-4636000D01*
X21787642Y-4361870D01*
X21764896Y-4252413D01*
X21731741Y-4092858D01*
X21731736Y-4092841D01*
X21669232Y-3916972D01*
X21639723Y-3833942D01*
X21513311Y-3589977D01*
X21513310Y-3589975D01*
X21513306Y-3589969D01*
X21354859Y-3365500D01*
X21336231Y-3345555D01*
X21167311Y-3164686D01*
X20954169Y-2991282D01*
X20954167Y-2991281D01*
X20954165Y-2991279D01*
X20719398Y-2848514D01*
X20467378Y-2739047D01*
X20202802Y-2664916D01*
X20202797Y-2664915D01*
X20202796Y-2664915D01*
X20039011Y-2642403D01*
X19930586Y-2627500D01*
X19930585Y-2627500D01*
X19655815Y-2627500D01*
X19655814Y-2627500D01*
X19383604Y-2664915D01*
X19383597Y-2664916D01*
X19119021Y-2739047D01*
X18867001Y-2848514D01*
X18632234Y-2991279D01*
X18419092Y-3164683D01*
X18231540Y-3365500D01*
X18073093Y-3589969D01*
X18073089Y-3589975D01*
X17946676Y-3833943D01*
X17854663Y-4092841D01*
X17854658Y-4092858D01*
X17798758Y-4361867D01*
X17798757Y-4361869D01*
X17780007Y-4635999D01*
X15038288Y-4635999D01*
X15040879Y-4591509D01*
X15010029Y-4416546D01*
X14996853Y-4386000D01*
X16277000Y-4386000D01*
X16277000Y-3088172D01*
X16276999Y-3088155D01*
X16270598Y-3028627D01*
X16270596Y-3028620D01*
X16220354Y-2893913D01*
X16220350Y-2893906D01*
X16134190Y-2778812D01*
X16134187Y-2778809D01*
X16019093Y-2692649D01*
X16019086Y-2692645D01*
X15884379Y-2642403D01*
X15884372Y-2642401D01*
X15824844Y-2636000D01*
X14527000Y-2636000D01*
X14527000Y-3914197D01*
X14365831Y-3876000D01*
X14232733Y-3876000D01*
X14100539Y-3891451D01*
X14027000Y-3918217D01*
X14027000Y-2636000D01*
X12729155Y-2636000D01*
X12669627Y-2642401D01*
X12669620Y-2642403D01*
X12534913Y-2692645D01*
X12534906Y-2692649D01*
X12419812Y-2778809D01*
X12419809Y-2778812D01*
X12333649Y-2893906D01*
X12333645Y-2893913D01*
X12283403Y-3028620D01*
X12283401Y-3028627D01*
X12277000Y-3088155D01*
X12277000Y-4386000D01*
X13558517Y-4386000D01*
X13523451Y-4503129D01*
X13513121Y-4680491D01*
X13543971Y-4855454D01*
X13557147Y-4886000D01*
X12277000Y-4886000D01*
X12277000Y-6183844D01*
X10477043Y-6183844D01*
X10571111Y-6107314D01*
X10758657Y-5906502D01*
X10917111Y-5682023D01*
X11043523Y-5438058D01*
X11135538Y-5179153D01*
X11135539Y-5179146D01*
X11135541Y-5179141D01*
X11185428Y-4939070D01*
X11191442Y-4910130D01*
X11210193Y-4636000D01*
X11191442Y-4361870D01*
X11168696Y-4252413D01*
X11135541Y-4092858D01*
X11135536Y-4092841D01*
X11073032Y-3916972D01*
X11043523Y-3833942D01*
X10917111Y-3589977D01*
X10917110Y-3589975D01*
X10917106Y-3589969D01*
X10758659Y-3365500D01*
X10740031Y-3345555D01*
X10571111Y-3164686D01*
X10357969Y-2991282D01*
X10357967Y-2991281D01*
X10357965Y-2991279D01*
X10123198Y-2848514D01*
X9871178Y-2739047D01*
X9606602Y-2664916D01*
X9606597Y-2664915D01*
X9606596Y-2664915D01*
X9442811Y-2642403D01*
X9334386Y-2627500D01*
X9334385Y-2627500D01*
X9059615Y-2627500D01*
X9059614Y-2627500D01*
X8787404Y-2664915D01*
X8787397Y-2664916D01*
X8522821Y-2739047D01*
X8270801Y-2848514D01*
X8036034Y-2991279D01*
X7822892Y-3164683D01*
X7635340Y-3365500D01*
X7476893Y-3589969D01*
X7476889Y-3589975D01*
X7350476Y-3833943D01*
X7258463Y-4092841D01*
X7258458Y-4092858D01*
X7202558Y-4361867D01*
X7202557Y-4361869D01*
X7183807Y-4635999D01*
X6130193Y-4635999D01*
X6111442Y-4361870D01*
X6088696Y-4252413D01*
X6055541Y-4092858D01*
X6055536Y-4092841D01*
X5993032Y-3916972D01*
X5963523Y-3833942D01*
X5837111Y-3589977D01*
X5837110Y-3589975D01*
X5837106Y-3589969D01*
X5678659Y-3365500D01*
X5660031Y-3345555D01*
X5491111Y-3164686D01*
X5277969Y-2991282D01*
X5277967Y-2991281D01*
X5277965Y-2991279D01*
X5043198Y-2848514D01*
X4791178Y-2739047D01*
X4526602Y-2664916D01*
X4526597Y-2664915D01*
X4526596Y-2664915D01*
X4362811Y-2642403D01*
X4254386Y-2627500D01*
X4254385Y-2627500D01*
X3979615Y-2627500D01*
X3979614Y-2627500D01*
X3707404Y-2664915D01*
X3707397Y-2664916D01*
X3442821Y-2739047D01*
X3190801Y-2848514D01*
X2956034Y-2991279D01*
X2742892Y-3164683D01*
X2555340Y-3365500D01*
X2396893Y-3589969D01*
X2396889Y-3589975D01*
X2270476Y-3833943D01*
X2178463Y-4092841D01*
X2178458Y-4092858D01*
X2122558Y-4361867D01*
X2122557Y-4361869D01*
X2103807Y-4636000D01*
X-659900Y-4636000D01*
X-659900Y1653500D01*
X-640215Y1720539D01*
X-587411Y1766294D01*
X-535900Y1777500D01*
X90553500Y1777500D01*
X90620539Y1757815D01*
G37*
%TD.AperFunction*%
%TD*%
M02*
