%TF.GenerationSoftware,KiCad,Pcbnew,7.0.6*%
%TF.CreationDate,2023-09-19T12:35:55+08:00*%
%TF.ProjectId,Control Panel Motherboard,436f6e74-726f-46c2-9050-616e656c204d,0*%
%TF.SameCoordinates,Original*%
%TF.FileFunction,Legend,Top*%
%TF.FilePolarity,Positive*%
%FSLAX46Y46*%
G04 Gerber Fmt 4.6, Leading zero omitted, Abs format (unit mm)*
G04 Created by KiCad (PCBNEW 7.0.6) date 2023-09-19 12:35:55*
%MOMM*%
%LPD*%
G01*
G04 APERTURE LIST*
%ADD10C,0.150000*%
%ADD11C,0.120000*%
G04 APERTURE END LIST*
D10*
X45408207Y876180D02*
X44932017Y876180D01*
X44932017Y876180D02*
X44884398Y399990D01*
X44884398Y399990D02*
X44932017Y447609D01*
X44932017Y447609D02*
X45027255Y495228D01*
X45027255Y495228D02*
X45265350Y495228D01*
X45265350Y495228D02*
X45360588Y447609D01*
X45360588Y447609D02*
X45408207Y399990D01*
X45408207Y399990D02*
X45455826Y304752D01*
X45455826Y304752D02*
X45455826Y66657D01*
X45455826Y66657D02*
X45408207Y-28580D01*
X45408207Y-28580D02*
X45360588Y-76200D01*
X45360588Y-76200D02*
X45265350Y-123819D01*
X45265350Y-123819D02*
X45027255Y-123819D01*
X45027255Y-123819D02*
X44932017Y-76200D01*
X44932017Y-76200D02*
X44884398Y-28580D01*
X45741541Y876180D02*
X46074874Y-123819D01*
X46074874Y-123819D02*
X46408207Y876180D01*
X31649417Y-72466200D02*
X31792274Y-72513819D01*
X31792274Y-72513819D02*
X32030369Y-72513819D01*
X32030369Y-72513819D02*
X32125607Y-72466200D01*
X32125607Y-72466200D02*
X32173226Y-72418580D01*
X32173226Y-72418580D02*
X32220845Y-72323342D01*
X32220845Y-72323342D02*
X32220845Y-72228104D01*
X32220845Y-72228104D02*
X32173226Y-72132866D01*
X32173226Y-72132866D02*
X32125607Y-72085247D01*
X32125607Y-72085247D02*
X32030369Y-72037628D01*
X32030369Y-72037628D02*
X31839893Y-71990009D01*
X31839893Y-71990009D02*
X31744655Y-71942390D01*
X31744655Y-71942390D02*
X31697036Y-71894771D01*
X31697036Y-71894771D02*
X31649417Y-71799533D01*
X31649417Y-71799533D02*
X31649417Y-71704295D01*
X31649417Y-71704295D02*
X31697036Y-71609057D01*
X31697036Y-71609057D02*
X31744655Y-71561438D01*
X31744655Y-71561438D02*
X31839893Y-71513819D01*
X31839893Y-71513819D02*
X32077988Y-71513819D01*
X32077988Y-71513819D02*
X32220845Y-71561438D01*
X32411322Y-72609057D02*
X33173226Y-72609057D01*
X33411322Y-72513819D02*
X33411322Y-71513819D01*
X33411322Y-71513819D02*
X33792274Y-71513819D01*
X33792274Y-71513819D02*
X33887512Y-71561438D01*
X33887512Y-71561438D02*
X33935131Y-71609057D01*
X33935131Y-71609057D02*
X33982750Y-71704295D01*
X33982750Y-71704295D02*
X33982750Y-71847152D01*
X33982750Y-71847152D02*
X33935131Y-71942390D01*
X33935131Y-71942390D02*
X33887512Y-71990009D01*
X33887512Y-71990009D02*
X33792274Y-72037628D01*
X33792274Y-72037628D02*
X33411322Y-72037628D01*
X34982750Y-72418580D02*
X34935131Y-72466200D01*
X34935131Y-72466200D02*
X34792274Y-72513819D01*
X34792274Y-72513819D02*
X34697036Y-72513819D01*
X34697036Y-72513819D02*
X34554179Y-72466200D01*
X34554179Y-72466200D02*
X34458941Y-72370961D01*
X34458941Y-72370961D02*
X34411322Y-72275723D01*
X34411322Y-72275723D02*
X34363703Y-72085247D01*
X34363703Y-72085247D02*
X34363703Y-71942390D01*
X34363703Y-71942390D02*
X34411322Y-71751914D01*
X34411322Y-71751914D02*
X34458941Y-71656676D01*
X34458941Y-71656676D02*
X34554179Y-71561438D01*
X34554179Y-71561438D02*
X34697036Y-71513819D01*
X34697036Y-71513819D02*
X34792274Y-71513819D01*
X34792274Y-71513819D02*
X34935131Y-71561438D01*
X34935131Y-71561438D02*
X34982750Y-71609057D01*
X55528104Y-13146182D02*
X55528104Y-12669992D01*
X55813819Y-13241420D02*
X54813819Y-12908087D01*
X54813819Y-12908087D02*
X55813819Y-12574754D01*
X55909057Y-12479516D02*
X55909057Y-11717611D01*
X54813819Y-11289039D02*
X54813819Y-11098563D01*
X54813819Y-11098563D02*
X54861438Y-11003325D01*
X54861438Y-11003325D02*
X54956676Y-10908087D01*
X54956676Y-10908087D02*
X55147152Y-10860468D01*
X55147152Y-10860468D02*
X55480485Y-10860468D01*
X55480485Y-10860468D02*
X55670961Y-10908087D01*
X55670961Y-10908087D02*
X55766200Y-11003325D01*
X55766200Y-11003325D02*
X55813819Y-11098563D01*
X55813819Y-11098563D02*
X55813819Y-11289039D01*
X55813819Y-11289039D02*
X55766200Y-11384277D01*
X55766200Y-11384277D02*
X55670961Y-11479515D01*
X55670961Y-11479515D02*
X55480485Y-11527134D01*
X55480485Y-11527134D02*
X55147152Y-11527134D01*
X55147152Y-11527134D02*
X54956676Y-11479515D01*
X54956676Y-11479515D02*
X54861438Y-11384277D01*
X54861438Y-11384277D02*
X54813819Y-11289039D01*
X55813819Y-10431896D02*
X54813819Y-10431896D01*
X54813819Y-10431896D02*
X55813819Y-9860468D01*
X55813819Y-9860468D02*
X54813819Y-9860468D01*
X838200Y-23163325D02*
X885819Y-23020468D01*
X885819Y-23020468D02*
X885819Y-22782373D01*
X885819Y-22782373D02*
X838200Y-22687135D01*
X838200Y-22687135D02*
X790580Y-22639516D01*
X790580Y-22639516D02*
X695342Y-22591897D01*
X695342Y-22591897D02*
X600104Y-22591897D01*
X600104Y-22591897D02*
X504866Y-22639516D01*
X504866Y-22639516D02*
X457247Y-22687135D01*
X457247Y-22687135D02*
X409628Y-22782373D01*
X409628Y-22782373D02*
X362009Y-22972849D01*
X362009Y-22972849D02*
X314390Y-23068087D01*
X314390Y-23068087D02*
X266771Y-23115706D01*
X266771Y-23115706D02*
X171533Y-23163325D01*
X171533Y-23163325D02*
X76295Y-23163325D01*
X76295Y-23163325D02*
X-18942Y-23115706D01*
X-18942Y-23115706D02*
X-66561Y-23068087D01*
X-66561Y-23068087D02*
X-114180Y-22972849D01*
X-114180Y-22972849D02*
X-114180Y-22734754D01*
X-114180Y-22734754D02*
X-66561Y-22591897D01*
X981057Y-22401421D02*
X981057Y-21639516D01*
X-114180Y-21544277D02*
X-114180Y-20972849D01*
X885819Y-21258563D02*
X-114180Y-21258563D01*
X-114180Y-20734753D02*
X-114180Y-20115706D01*
X-114180Y-20115706D02*
X266771Y-20449039D01*
X266771Y-20449039D02*
X266771Y-20306182D01*
X266771Y-20306182D02*
X314390Y-20210944D01*
X314390Y-20210944D02*
X362009Y-20163325D01*
X362009Y-20163325D02*
X457247Y-20115706D01*
X457247Y-20115706D02*
X695342Y-20115706D01*
X695342Y-20115706D02*
X790580Y-20163325D01*
X790580Y-20163325D02*
X838200Y-20210944D01*
X838200Y-20210944D02*
X885819Y-20306182D01*
X885819Y-20306182D02*
X885819Y-20591896D01*
X885819Y-20591896D02*
X838200Y-20687134D01*
X838200Y-20687134D02*
X790580Y-20734753D01*
X838200Y-44470373D02*
X885819Y-44327516D01*
X885819Y-44327516D02*
X885819Y-44089421D01*
X885819Y-44089421D02*
X838200Y-43994183D01*
X838200Y-43994183D02*
X790580Y-43946564D01*
X790580Y-43946564D02*
X695342Y-43898945D01*
X695342Y-43898945D02*
X600104Y-43898945D01*
X600104Y-43898945D02*
X504866Y-43946564D01*
X504866Y-43946564D02*
X457247Y-43994183D01*
X457247Y-43994183D02*
X409628Y-44089421D01*
X409628Y-44089421D02*
X362009Y-44279897D01*
X362009Y-44279897D02*
X314390Y-44375135D01*
X314390Y-44375135D02*
X266771Y-44422754D01*
X266771Y-44422754D02*
X171533Y-44470373D01*
X171533Y-44470373D02*
X76295Y-44470373D01*
X76295Y-44470373D02*
X-18942Y-44422754D01*
X-18942Y-44422754D02*
X-66561Y-44375135D01*
X-66561Y-44375135D02*
X-114180Y-44279897D01*
X-114180Y-44279897D02*
X-114180Y-44041802D01*
X-114180Y-44041802D02*
X-66561Y-43898945D01*
X981057Y-43708469D02*
X981057Y-42946564D01*
X885819Y-42137040D02*
X409628Y-42470373D01*
X885819Y-42708468D02*
X-114180Y-42708468D01*
X-114180Y-42708468D02*
X-114180Y-42327516D01*
X-114180Y-42327516D02*
X-66561Y-42232278D01*
X-66561Y-42232278D02*
X-18942Y-42184659D01*
X-18942Y-42184659D02*
X76295Y-42137040D01*
X76295Y-42137040D02*
X219152Y-42137040D01*
X219152Y-42137040D02*
X314390Y-42184659D01*
X314390Y-42184659D02*
X362009Y-42232278D01*
X362009Y-42232278D02*
X409628Y-42327516D01*
X409628Y-42327516D02*
X409628Y-42708468D01*
X-18942Y-41756087D02*
X-66561Y-41708468D01*
X-66561Y-41708468D02*
X-114180Y-41613230D01*
X-114180Y-41613230D02*
X-114180Y-41375135D01*
X-114180Y-41375135D02*
X-66561Y-41279897D01*
X-66561Y-41279897D02*
X-18942Y-41232278D01*
X-18942Y-41232278D02*
X76295Y-41184659D01*
X76295Y-41184659D02*
X171533Y-41184659D01*
X171533Y-41184659D02*
X314390Y-41232278D01*
X314390Y-41232278D02*
X885819Y-41803706D01*
X885819Y-41803706D02*
X885819Y-41184659D01*
X838200Y-65219973D02*
X885819Y-65077116D01*
X885819Y-65077116D02*
X885819Y-64839021D01*
X885819Y-64839021D02*
X838200Y-64743783D01*
X838200Y-64743783D02*
X790580Y-64696164D01*
X790580Y-64696164D02*
X695342Y-64648545D01*
X695342Y-64648545D02*
X600104Y-64648545D01*
X600104Y-64648545D02*
X504866Y-64696164D01*
X504866Y-64696164D02*
X457247Y-64743783D01*
X457247Y-64743783D02*
X409628Y-64839021D01*
X409628Y-64839021D02*
X362009Y-65029497D01*
X362009Y-65029497D02*
X314390Y-65124735D01*
X314390Y-65124735D02*
X266771Y-65172354D01*
X266771Y-65172354D02*
X171533Y-65219973D01*
X171533Y-65219973D02*
X76295Y-65219973D01*
X76295Y-65219973D02*
X-18942Y-65172354D01*
X-18942Y-65172354D02*
X-66561Y-65124735D01*
X-66561Y-65124735D02*
X-114180Y-65029497D01*
X-114180Y-65029497D02*
X-114180Y-64791402D01*
X-114180Y-64791402D02*
X-66561Y-64648545D01*
X981057Y-64458069D02*
X981057Y-63696164D01*
X885819Y-63458068D02*
X-114180Y-63458068D01*
X-114180Y-63458068D02*
X-114180Y-63077116D01*
X-114180Y-63077116D02*
X-66561Y-62981878D01*
X-66561Y-62981878D02*
X-18942Y-62934259D01*
X-18942Y-62934259D02*
X76295Y-62886640D01*
X76295Y-62886640D02*
X219152Y-62886640D01*
X219152Y-62886640D02*
X314390Y-62934259D01*
X314390Y-62934259D02*
X362009Y-62981878D01*
X362009Y-62981878D02*
X409628Y-63077116D01*
X409628Y-63077116D02*
X409628Y-63458068D01*
X-18942Y-62505687D02*
X-66561Y-62458068D01*
X-66561Y-62458068D02*
X-114180Y-62362830D01*
X-114180Y-62362830D02*
X-114180Y-62124735D01*
X-114180Y-62124735D02*
X-66561Y-62029497D01*
X-66561Y-62029497D02*
X-18942Y-61981878D01*
X-18942Y-61981878D02*
X76295Y-61934259D01*
X76295Y-61934259D02*
X171533Y-61934259D01*
X171533Y-61934259D02*
X314390Y-61981878D01*
X314390Y-61981878D02*
X885819Y-62553306D01*
X885819Y-62553306D02*
X885819Y-61934259D01*
X70171808Y876180D02*
X70505141Y-123819D01*
X70505141Y-123819D02*
X70838474Y876180D01*
X71743236Y-123819D02*
X71409903Y352371D01*
X71171808Y-123819D02*
X71171808Y876180D01*
X71171808Y876180D02*
X71552760Y876180D01*
X71552760Y876180D02*
X71647998Y828561D01*
X71647998Y828561D02*
X71695617Y780942D01*
X71695617Y780942D02*
X71743236Y685704D01*
X71743236Y685704D02*
X71743236Y542847D01*
X71743236Y542847D02*
X71695617Y447609D01*
X71695617Y447609D02*
X71647998Y399990D01*
X71647998Y399990D02*
X71552760Y352371D01*
X71552760Y352371D02*
X71171808Y352371D01*
X71933713Y-219057D02*
X72695617Y-219057D01*
X73457522Y-123819D02*
X72886094Y-123819D01*
X73171808Y-123819D02*
X73171808Y876180D01*
X73171808Y876180D02*
X73076570Y733323D01*
X73076570Y733323D02*
X72981332Y638085D01*
X72981332Y638085D02*
X72886094Y590466D01*
X838200Y-28679525D02*
X885819Y-28536668D01*
X885819Y-28536668D02*
X885819Y-28298573D01*
X885819Y-28298573D02*
X838200Y-28203335D01*
X838200Y-28203335D02*
X790580Y-28155716D01*
X790580Y-28155716D02*
X695342Y-28108097D01*
X695342Y-28108097D02*
X600104Y-28108097D01*
X600104Y-28108097D02*
X504866Y-28155716D01*
X504866Y-28155716D02*
X457247Y-28203335D01*
X457247Y-28203335D02*
X409628Y-28298573D01*
X409628Y-28298573D02*
X362009Y-28489049D01*
X362009Y-28489049D02*
X314390Y-28584287D01*
X314390Y-28584287D02*
X266771Y-28631906D01*
X266771Y-28631906D02*
X171533Y-28679525D01*
X171533Y-28679525D02*
X76295Y-28679525D01*
X76295Y-28679525D02*
X-18942Y-28631906D01*
X-18942Y-28631906D02*
X-66561Y-28584287D01*
X-66561Y-28584287D02*
X-114180Y-28489049D01*
X-114180Y-28489049D02*
X-114180Y-28250954D01*
X-114180Y-28250954D02*
X-66561Y-28108097D01*
X981057Y-27917621D02*
X981057Y-27155716D01*
X-114180Y-27060477D02*
X-114180Y-26489049D01*
X885819Y-26774763D02*
X-114180Y-26774763D01*
X219152Y-25727144D02*
X885819Y-25727144D01*
X-161800Y-25965239D02*
X552485Y-26203334D01*
X552485Y-26203334D02*
X552485Y-25584287D01*
X66020379Y828561D02*
X65925141Y876180D01*
X65925141Y876180D02*
X65782284Y876180D01*
X65782284Y876180D02*
X65639427Y828561D01*
X65639427Y828561D02*
X65544189Y733323D01*
X65544189Y733323D02*
X65496570Y638085D01*
X65496570Y638085D02*
X65448951Y447609D01*
X65448951Y447609D02*
X65448951Y304752D01*
X65448951Y304752D02*
X65496570Y114276D01*
X65496570Y114276D02*
X65544189Y19038D01*
X65544189Y19038D02*
X65639427Y-76200D01*
X65639427Y-76200D02*
X65782284Y-123819D01*
X65782284Y-123819D02*
X65877522Y-123819D01*
X65877522Y-123819D02*
X66020379Y-76200D01*
X66020379Y-76200D02*
X66067998Y-28580D01*
X66067998Y-28580D02*
X66067998Y304752D01*
X66067998Y304752D02*
X65877522Y304752D01*
X66496570Y-123819D02*
X66496570Y876180D01*
X66496570Y876180D02*
X67067998Y-123819D01*
X67067998Y-123819D02*
X67067998Y876180D01*
X67544189Y-123819D02*
X67544189Y876180D01*
X67544189Y876180D02*
X67782284Y876180D01*
X67782284Y876180D02*
X67925141Y828561D01*
X67925141Y828561D02*
X68020379Y733323D01*
X68020379Y733323D02*
X68067998Y638085D01*
X68067998Y638085D02*
X68115617Y447609D01*
X68115617Y447609D02*
X68115617Y304752D01*
X68115617Y304752D02*
X68067998Y114276D01*
X68067998Y114276D02*
X68020379Y19038D01*
X68020379Y19038D02*
X67925141Y-76200D01*
X67925141Y-76200D02*
X67782284Y-123819D01*
X67782284Y-123819D02*
X67544189Y-123819D01*
X55718580Y-43946564D02*
X55766200Y-43994183D01*
X55766200Y-43994183D02*
X55813819Y-44137040D01*
X55813819Y-44137040D02*
X55813819Y-44232278D01*
X55813819Y-44232278D02*
X55766200Y-44375135D01*
X55766200Y-44375135D02*
X55670961Y-44470373D01*
X55670961Y-44470373D02*
X55575723Y-44517992D01*
X55575723Y-44517992D02*
X55385247Y-44565611D01*
X55385247Y-44565611D02*
X55242390Y-44565611D01*
X55242390Y-44565611D02*
X55051914Y-44517992D01*
X55051914Y-44517992D02*
X54956676Y-44470373D01*
X54956676Y-44470373D02*
X54861438Y-44375135D01*
X54861438Y-44375135D02*
X54813819Y-44232278D01*
X54813819Y-44232278D02*
X54813819Y-44137040D01*
X54813819Y-44137040D02*
X54861438Y-43994183D01*
X54861438Y-43994183D02*
X54909057Y-43946564D01*
X55909057Y-43756088D02*
X55909057Y-42994183D01*
X54813819Y-42565611D02*
X54813819Y-42375135D01*
X54813819Y-42375135D02*
X54861438Y-42279897D01*
X54861438Y-42279897D02*
X54956676Y-42184659D01*
X54956676Y-42184659D02*
X55147152Y-42137040D01*
X55147152Y-42137040D02*
X55480485Y-42137040D01*
X55480485Y-42137040D02*
X55670961Y-42184659D01*
X55670961Y-42184659D02*
X55766200Y-42279897D01*
X55766200Y-42279897D02*
X55813819Y-42375135D01*
X55813819Y-42375135D02*
X55813819Y-42565611D01*
X55813819Y-42565611D02*
X55766200Y-42660849D01*
X55766200Y-42660849D02*
X55670961Y-42756087D01*
X55670961Y-42756087D02*
X55480485Y-42803706D01*
X55480485Y-42803706D02*
X55147152Y-42803706D01*
X55147152Y-42803706D02*
X54956676Y-42756087D01*
X54956676Y-42756087D02*
X54861438Y-42660849D01*
X54861438Y-42660849D02*
X54813819Y-42565611D01*
X55813819Y-41708468D02*
X54813819Y-41708468D01*
X54813819Y-41708468D02*
X55813819Y-41137040D01*
X55813819Y-41137040D02*
X54813819Y-41137040D01*
X838200Y-54630373D02*
X885819Y-54487516D01*
X885819Y-54487516D02*
X885819Y-54249421D01*
X885819Y-54249421D02*
X838200Y-54154183D01*
X838200Y-54154183D02*
X790580Y-54106564D01*
X790580Y-54106564D02*
X695342Y-54058945D01*
X695342Y-54058945D02*
X600104Y-54058945D01*
X600104Y-54058945D02*
X504866Y-54106564D01*
X504866Y-54106564D02*
X457247Y-54154183D01*
X457247Y-54154183D02*
X409628Y-54249421D01*
X409628Y-54249421D02*
X362009Y-54439897D01*
X362009Y-54439897D02*
X314390Y-54535135D01*
X314390Y-54535135D02*
X266771Y-54582754D01*
X266771Y-54582754D02*
X171533Y-54630373D01*
X171533Y-54630373D02*
X76295Y-54630373D01*
X76295Y-54630373D02*
X-18942Y-54582754D01*
X-18942Y-54582754D02*
X-66561Y-54535135D01*
X-66561Y-54535135D02*
X-114180Y-54439897D01*
X-114180Y-54439897D02*
X-114180Y-54201802D01*
X-114180Y-54201802D02*
X-66561Y-54058945D01*
X981057Y-53868469D02*
X981057Y-53106564D01*
X885819Y-52297040D02*
X409628Y-52630373D01*
X885819Y-52868468D02*
X-114180Y-52868468D01*
X-114180Y-52868468D02*
X-114180Y-52487516D01*
X-114180Y-52487516D02*
X-66561Y-52392278D01*
X-66561Y-52392278D02*
X-18942Y-52344659D01*
X-18942Y-52344659D02*
X76295Y-52297040D01*
X76295Y-52297040D02*
X219152Y-52297040D01*
X219152Y-52297040D02*
X314390Y-52344659D01*
X314390Y-52344659D02*
X362009Y-52392278D01*
X362009Y-52392278D02*
X409628Y-52487516D01*
X409628Y-52487516D02*
X409628Y-52868468D01*
X219152Y-51439897D02*
X885819Y-51439897D01*
X-161800Y-51677992D02*
X552485Y-51916087D01*
X552485Y-51916087D02*
X552485Y-51297040D01*
X55813819Y-70823782D02*
X54813819Y-70823782D01*
X54813819Y-70823782D02*
X54813819Y-70585687D01*
X54813819Y-70585687D02*
X54861438Y-70442830D01*
X54861438Y-70442830D02*
X54956676Y-70347592D01*
X54956676Y-70347592D02*
X55051914Y-70299973D01*
X55051914Y-70299973D02*
X55242390Y-70252354D01*
X55242390Y-70252354D02*
X55385247Y-70252354D01*
X55385247Y-70252354D02*
X55575723Y-70299973D01*
X55575723Y-70299973D02*
X55670961Y-70347592D01*
X55670961Y-70347592D02*
X55766200Y-70442830D01*
X55766200Y-70442830D02*
X55813819Y-70585687D01*
X55813819Y-70585687D02*
X55813819Y-70823782D01*
X55909057Y-70061878D02*
X55909057Y-69299973D01*
X54861438Y-68538068D02*
X54813819Y-68633306D01*
X54813819Y-68633306D02*
X54813819Y-68776163D01*
X54813819Y-68776163D02*
X54861438Y-68919020D01*
X54861438Y-68919020D02*
X54956676Y-69014258D01*
X54956676Y-69014258D02*
X55051914Y-69061877D01*
X55051914Y-69061877D02*
X55242390Y-69109496D01*
X55242390Y-69109496D02*
X55385247Y-69109496D01*
X55385247Y-69109496D02*
X55575723Y-69061877D01*
X55575723Y-69061877D02*
X55670961Y-69014258D01*
X55670961Y-69014258D02*
X55766200Y-68919020D01*
X55766200Y-68919020D02*
X55813819Y-68776163D01*
X55813819Y-68776163D02*
X55813819Y-68680925D01*
X55813819Y-68680925D02*
X55766200Y-68538068D01*
X55766200Y-68538068D02*
X55718580Y-68490449D01*
X55718580Y-68490449D02*
X55385247Y-68490449D01*
X55385247Y-68490449D02*
X55385247Y-68680925D01*
X55813819Y-68061877D02*
X54813819Y-68061877D01*
X54813819Y-68061877D02*
X55813819Y-67490449D01*
X55813819Y-67490449D02*
X54813819Y-67490449D01*
X55813819Y-67014258D02*
X54813819Y-67014258D01*
X54813819Y-67014258D02*
X54813819Y-66776163D01*
X54813819Y-66776163D02*
X54861438Y-66633306D01*
X54861438Y-66633306D02*
X54956676Y-66538068D01*
X54956676Y-66538068D02*
X55051914Y-66490449D01*
X55051914Y-66490449D02*
X55242390Y-66442830D01*
X55242390Y-66442830D02*
X55385247Y-66442830D01*
X55385247Y-66442830D02*
X55575723Y-66490449D01*
X55575723Y-66490449D02*
X55670961Y-66538068D01*
X55670961Y-66538068D02*
X55766200Y-66633306D01*
X55766200Y-66633306D02*
X55813819Y-66776163D01*
X55813819Y-66776163D02*
X55813819Y-67014258D01*
X55718580Y-54582754D02*
X55766200Y-54630373D01*
X55766200Y-54630373D02*
X55813819Y-54773230D01*
X55813819Y-54773230D02*
X55813819Y-54868468D01*
X55813819Y-54868468D02*
X55766200Y-55011325D01*
X55766200Y-55011325D02*
X55670961Y-55106563D01*
X55670961Y-55106563D02*
X55575723Y-55154182D01*
X55575723Y-55154182D02*
X55385247Y-55201801D01*
X55385247Y-55201801D02*
X55242390Y-55201801D01*
X55242390Y-55201801D02*
X55051914Y-55154182D01*
X55051914Y-55154182D02*
X54956676Y-55106563D01*
X54956676Y-55106563D02*
X54861438Y-55011325D01*
X54861438Y-55011325D02*
X54813819Y-54868468D01*
X54813819Y-54868468D02*
X54813819Y-54773230D01*
X54813819Y-54773230D02*
X54861438Y-54630373D01*
X54861438Y-54630373D02*
X54909057Y-54582754D01*
X55909057Y-54392278D02*
X55909057Y-53630373D01*
X54861438Y-52868468D02*
X54813819Y-52963706D01*
X54813819Y-52963706D02*
X54813819Y-53106563D01*
X54813819Y-53106563D02*
X54861438Y-53249420D01*
X54861438Y-53249420D02*
X54956676Y-53344658D01*
X54956676Y-53344658D02*
X55051914Y-53392277D01*
X55051914Y-53392277D02*
X55242390Y-53439896D01*
X55242390Y-53439896D02*
X55385247Y-53439896D01*
X55385247Y-53439896D02*
X55575723Y-53392277D01*
X55575723Y-53392277D02*
X55670961Y-53344658D01*
X55670961Y-53344658D02*
X55766200Y-53249420D01*
X55766200Y-53249420D02*
X55813819Y-53106563D01*
X55813819Y-53106563D02*
X55813819Y-53011325D01*
X55813819Y-53011325D02*
X55766200Y-52868468D01*
X55766200Y-52868468D02*
X55718580Y-52820849D01*
X55718580Y-52820849D02*
X55385247Y-52820849D01*
X55385247Y-52820849D02*
X55385247Y-53011325D01*
X55813819Y-52392277D02*
X54813819Y-52392277D01*
X54813819Y-52392277D02*
X55813819Y-51820849D01*
X55813819Y-51820849D02*
X54813819Y-51820849D01*
X55813819Y-51344658D02*
X54813819Y-51344658D01*
X54813819Y-51344658D02*
X54813819Y-51106563D01*
X54813819Y-51106563D02*
X54861438Y-50963706D01*
X54861438Y-50963706D02*
X54956676Y-50868468D01*
X54956676Y-50868468D02*
X55051914Y-50820849D01*
X55051914Y-50820849D02*
X55242390Y-50773230D01*
X55242390Y-50773230D02*
X55385247Y-50773230D01*
X55385247Y-50773230D02*
X55575723Y-50820849D01*
X55575723Y-50820849D02*
X55670961Y-50868468D01*
X55670961Y-50868468D02*
X55766200Y-50963706D01*
X55766200Y-50963706D02*
X55813819Y-51106563D01*
X55813819Y-51106563D02*
X55813819Y-51344658D01*
X55813819Y-65600925D02*
X54813819Y-65600925D01*
X54813819Y-65600925D02*
X54813819Y-65362830D01*
X54813819Y-65362830D02*
X54861438Y-65219973D01*
X54861438Y-65219973D02*
X54956676Y-65124735D01*
X54956676Y-65124735D02*
X55051914Y-65077116D01*
X55051914Y-65077116D02*
X55242390Y-65029497D01*
X55242390Y-65029497D02*
X55385247Y-65029497D01*
X55385247Y-65029497D02*
X55575723Y-65077116D01*
X55575723Y-65077116D02*
X55670961Y-65124735D01*
X55670961Y-65124735D02*
X55766200Y-65219973D01*
X55766200Y-65219973D02*
X55813819Y-65362830D01*
X55813819Y-65362830D02*
X55813819Y-65600925D01*
X55909057Y-64839021D02*
X55909057Y-64077116D01*
X54813819Y-63648544D02*
X54813819Y-63458068D01*
X54813819Y-63458068D02*
X54861438Y-63362830D01*
X54861438Y-63362830D02*
X54956676Y-63267592D01*
X54956676Y-63267592D02*
X55147152Y-63219973D01*
X55147152Y-63219973D02*
X55480485Y-63219973D01*
X55480485Y-63219973D02*
X55670961Y-63267592D01*
X55670961Y-63267592D02*
X55766200Y-63362830D01*
X55766200Y-63362830D02*
X55813819Y-63458068D01*
X55813819Y-63458068D02*
X55813819Y-63648544D01*
X55813819Y-63648544D02*
X55766200Y-63743782D01*
X55766200Y-63743782D02*
X55670961Y-63839020D01*
X55670961Y-63839020D02*
X55480485Y-63886639D01*
X55480485Y-63886639D02*
X55147152Y-63886639D01*
X55147152Y-63886639D02*
X54956676Y-63839020D01*
X54956676Y-63839020D02*
X54861438Y-63743782D01*
X54861438Y-63743782D02*
X54813819Y-63648544D01*
X55290009Y-62458068D02*
X55290009Y-62791401D01*
X55813819Y-62791401D02*
X54813819Y-62791401D01*
X54813819Y-62791401D02*
X54813819Y-62315211D01*
X55290009Y-61600925D02*
X55290009Y-61934258D01*
X55813819Y-61934258D02*
X54813819Y-61934258D01*
X54813819Y-61934258D02*
X54813819Y-61458068D01*
X838200Y-60139973D02*
X885819Y-59997116D01*
X885819Y-59997116D02*
X885819Y-59759021D01*
X885819Y-59759021D02*
X838200Y-59663783D01*
X838200Y-59663783D02*
X790580Y-59616164D01*
X790580Y-59616164D02*
X695342Y-59568545D01*
X695342Y-59568545D02*
X600104Y-59568545D01*
X600104Y-59568545D02*
X504866Y-59616164D01*
X504866Y-59616164D02*
X457247Y-59663783D01*
X457247Y-59663783D02*
X409628Y-59759021D01*
X409628Y-59759021D02*
X362009Y-59949497D01*
X362009Y-59949497D02*
X314390Y-60044735D01*
X314390Y-60044735D02*
X266771Y-60092354D01*
X266771Y-60092354D02*
X171533Y-60139973D01*
X171533Y-60139973D02*
X76295Y-60139973D01*
X76295Y-60139973D02*
X-18942Y-60092354D01*
X-18942Y-60092354D02*
X-66561Y-60044735D01*
X-66561Y-60044735D02*
X-114180Y-59949497D01*
X-114180Y-59949497D02*
X-114180Y-59711402D01*
X-114180Y-59711402D02*
X-66561Y-59568545D01*
X981057Y-59378069D02*
X981057Y-58616164D01*
X885819Y-58378068D02*
X-114180Y-58378068D01*
X-114180Y-58378068D02*
X-114180Y-57997116D01*
X-114180Y-57997116D02*
X-66561Y-57901878D01*
X-66561Y-57901878D02*
X-18942Y-57854259D01*
X-18942Y-57854259D02*
X76295Y-57806640D01*
X76295Y-57806640D02*
X219152Y-57806640D01*
X219152Y-57806640D02*
X314390Y-57854259D01*
X314390Y-57854259D02*
X362009Y-57901878D01*
X362009Y-57901878D02*
X409628Y-57997116D01*
X409628Y-57997116D02*
X409628Y-58378068D01*
X885819Y-56854259D02*
X885819Y-57425687D01*
X885819Y-57139973D02*
X-114180Y-57139973D01*
X-114180Y-57139973D02*
X28676Y-57235211D01*
X28676Y-57235211D02*
X123914Y-57330449D01*
X123914Y-57330449D02*
X171533Y-57425687D01*
X76751807Y876180D02*
X76275617Y876180D01*
X76275617Y876180D02*
X76227998Y399990D01*
X76227998Y399990D02*
X76275617Y447609D01*
X76275617Y447609D02*
X76370855Y495228D01*
X76370855Y495228D02*
X76608950Y495228D01*
X76608950Y495228D02*
X76704188Y447609D01*
X76704188Y447609D02*
X76751807Y399990D01*
X76751807Y399990D02*
X76799426Y304752D01*
X76799426Y304752D02*
X76799426Y66657D01*
X76799426Y66657D02*
X76751807Y-28580D01*
X76751807Y-28580D02*
X76704188Y-76200D01*
X76704188Y-76200D02*
X76608950Y-123819D01*
X76608950Y-123819D02*
X76370855Y-123819D01*
X76370855Y-123819D02*
X76275617Y-76200D01*
X76275617Y-76200D02*
X76227998Y-28580D01*
X77085141Y876180D02*
X77418474Y-123819D01*
X77418474Y-123819D02*
X77751807Y876180D01*
X38828208Y876180D02*
X39161541Y-123819D01*
X39161541Y-123819D02*
X39494874Y876180D01*
X40399636Y-123819D02*
X40066303Y352371D01*
X39828208Y-123819D02*
X39828208Y876180D01*
X39828208Y876180D02*
X40209160Y876180D01*
X40209160Y876180D02*
X40304398Y828561D01*
X40304398Y828561D02*
X40352017Y780942D01*
X40352017Y780942D02*
X40399636Y685704D01*
X40399636Y685704D02*
X40399636Y542847D01*
X40399636Y542847D02*
X40352017Y447609D01*
X40352017Y447609D02*
X40304398Y399990D01*
X40304398Y399990D02*
X40209160Y352371D01*
X40209160Y352371D02*
X39828208Y352371D01*
X40590113Y-219057D02*
X41352017Y-219057D01*
X41494875Y876180D02*
X42113922Y876180D01*
X42113922Y876180D02*
X41780589Y495228D01*
X41780589Y495228D02*
X41923446Y495228D01*
X41923446Y495228D02*
X42018684Y447609D01*
X42018684Y447609D02*
X42066303Y399990D01*
X42066303Y399990D02*
X42113922Y304752D01*
X42113922Y304752D02*
X42113922Y66657D01*
X42113922Y66657D02*
X42066303Y-28580D01*
X42066303Y-28580D02*
X42018684Y-76200D01*
X42018684Y-76200D02*
X41923446Y-123819D01*
X41923446Y-123819D02*
X41637732Y-123819D01*
X41637732Y-123819D02*
X41542494Y-76200D01*
X41542494Y-76200D02*
X41494875Y-28580D01*
X838200Y-33759525D02*
X885819Y-33616668D01*
X885819Y-33616668D02*
X885819Y-33378573D01*
X885819Y-33378573D02*
X838200Y-33283335D01*
X838200Y-33283335D02*
X790580Y-33235716D01*
X790580Y-33235716D02*
X695342Y-33188097D01*
X695342Y-33188097D02*
X600104Y-33188097D01*
X600104Y-33188097D02*
X504866Y-33235716D01*
X504866Y-33235716D02*
X457247Y-33283335D01*
X457247Y-33283335D02*
X409628Y-33378573D01*
X409628Y-33378573D02*
X362009Y-33569049D01*
X362009Y-33569049D02*
X314390Y-33664287D01*
X314390Y-33664287D02*
X266771Y-33711906D01*
X266771Y-33711906D02*
X171533Y-33759525D01*
X171533Y-33759525D02*
X76295Y-33759525D01*
X76295Y-33759525D02*
X-18942Y-33711906D01*
X-18942Y-33711906D02*
X-66561Y-33664287D01*
X-66561Y-33664287D02*
X-114180Y-33569049D01*
X-114180Y-33569049D02*
X-114180Y-33330954D01*
X-114180Y-33330954D02*
X-66561Y-33188097D01*
X981057Y-32997621D02*
X981057Y-32235716D01*
X-114180Y-32140477D02*
X-114180Y-31569049D01*
X885819Y-31854763D02*
X-114180Y-31854763D01*
X-114180Y-30759525D02*
X-114180Y-31235715D01*
X-114180Y-31235715D02*
X362009Y-31283334D01*
X362009Y-31283334D02*
X314390Y-31235715D01*
X314390Y-31235715D02*
X266771Y-31140477D01*
X266771Y-31140477D02*
X266771Y-30902382D01*
X266771Y-30902382D02*
X314390Y-30807144D01*
X314390Y-30807144D02*
X362009Y-30759525D01*
X362009Y-30759525D02*
X457247Y-30711906D01*
X457247Y-30711906D02*
X695342Y-30711906D01*
X695342Y-30711906D02*
X790580Y-30759525D01*
X790580Y-30759525D02*
X838200Y-30807144D01*
X838200Y-30807144D02*
X885819Y-30902382D01*
X885819Y-30902382D02*
X885819Y-31140477D01*
X885819Y-31140477D02*
X838200Y-31235715D01*
X838200Y-31235715D02*
X790580Y-31283334D01*
X50348579Y828561D02*
X50253341Y876180D01*
X50253341Y876180D02*
X50110484Y876180D01*
X50110484Y876180D02*
X49967627Y828561D01*
X49967627Y828561D02*
X49872389Y733323D01*
X49872389Y733323D02*
X49824770Y638085D01*
X49824770Y638085D02*
X49777151Y447609D01*
X49777151Y447609D02*
X49777151Y304752D01*
X49777151Y304752D02*
X49824770Y114276D01*
X49824770Y114276D02*
X49872389Y19038D01*
X49872389Y19038D02*
X49967627Y-76200D01*
X49967627Y-76200D02*
X50110484Y-123819D01*
X50110484Y-123819D02*
X50205722Y-123819D01*
X50205722Y-123819D02*
X50348579Y-76200D01*
X50348579Y-76200D02*
X50396198Y-28580D01*
X50396198Y-28580D02*
X50396198Y304752D01*
X50396198Y304752D02*
X50205722Y304752D01*
X50824770Y-123819D02*
X50824770Y876180D01*
X50824770Y876180D02*
X51396198Y-123819D01*
X51396198Y-123819D02*
X51396198Y876180D01*
X51872389Y-123819D02*
X51872389Y876180D01*
X51872389Y876180D02*
X52110484Y876180D01*
X52110484Y876180D02*
X52253341Y828561D01*
X52253341Y828561D02*
X52348579Y733323D01*
X52348579Y733323D02*
X52396198Y638085D01*
X52396198Y638085D02*
X52443817Y447609D01*
X52443817Y447609D02*
X52443817Y304752D01*
X52443817Y304752D02*
X52396198Y114276D01*
X52396198Y114276D02*
X52348579Y19038D01*
X52348579Y19038D02*
X52253341Y-76200D01*
X52253341Y-76200D02*
X52110484Y-123819D01*
X52110484Y-123819D02*
X51872389Y-123819D01*
X12078541Y-72513819D02*
X12078541Y-71513819D01*
X12078541Y-71513819D02*
X12411874Y-72228104D01*
X12411874Y-72228104D02*
X12745207Y-71513819D01*
X12745207Y-71513819D02*
X12745207Y-72513819D01*
X13792826Y-72418580D02*
X13745207Y-72466200D01*
X13745207Y-72466200D02*
X13602350Y-72513819D01*
X13602350Y-72513819D02*
X13507112Y-72513819D01*
X13507112Y-72513819D02*
X13364255Y-72466200D01*
X13364255Y-72466200D02*
X13269017Y-72370961D01*
X13269017Y-72370961D02*
X13221398Y-72275723D01*
X13221398Y-72275723D02*
X13173779Y-72085247D01*
X13173779Y-72085247D02*
X13173779Y-71942390D01*
X13173779Y-71942390D02*
X13221398Y-71751914D01*
X13221398Y-71751914D02*
X13269017Y-71656676D01*
X13269017Y-71656676D02*
X13364255Y-71561438D01*
X13364255Y-71561438D02*
X13507112Y-71513819D01*
X13507112Y-71513819D02*
X13602350Y-71513819D01*
X13602350Y-71513819D02*
X13745207Y-71561438D01*
X13745207Y-71561438D02*
X13792826Y-71609057D01*
X14221398Y-71513819D02*
X14221398Y-72323342D01*
X14221398Y-72323342D02*
X14269017Y-72418580D01*
X14269017Y-72418580D02*
X14316636Y-72466200D01*
X14316636Y-72466200D02*
X14411874Y-72513819D01*
X14411874Y-72513819D02*
X14602350Y-72513819D01*
X14602350Y-72513819D02*
X14697588Y-72466200D01*
X14697588Y-72466200D02*
X14745207Y-72418580D01*
X14745207Y-72418580D02*
X14792826Y-72323342D01*
X14792826Y-72323342D02*
X14792826Y-71513819D01*
X55528104Y-23782373D02*
X55528104Y-23306183D01*
X55813819Y-23877611D02*
X54813819Y-23544278D01*
X54813819Y-23544278D02*
X55813819Y-23210945D01*
X55909057Y-23115707D02*
X55909057Y-22353802D01*
X54861438Y-21591897D02*
X54813819Y-21687135D01*
X54813819Y-21687135D02*
X54813819Y-21829992D01*
X54813819Y-21829992D02*
X54861438Y-21972849D01*
X54861438Y-21972849D02*
X54956676Y-22068087D01*
X54956676Y-22068087D02*
X55051914Y-22115706D01*
X55051914Y-22115706D02*
X55242390Y-22163325D01*
X55242390Y-22163325D02*
X55385247Y-22163325D01*
X55385247Y-22163325D02*
X55575723Y-22115706D01*
X55575723Y-22115706D02*
X55670961Y-22068087D01*
X55670961Y-22068087D02*
X55766200Y-21972849D01*
X55766200Y-21972849D02*
X55813819Y-21829992D01*
X55813819Y-21829992D02*
X55813819Y-21734754D01*
X55813819Y-21734754D02*
X55766200Y-21591897D01*
X55766200Y-21591897D02*
X55718580Y-21544278D01*
X55718580Y-21544278D02*
X55385247Y-21544278D01*
X55385247Y-21544278D02*
X55385247Y-21734754D01*
X55813819Y-21115706D02*
X54813819Y-21115706D01*
X54813819Y-21115706D02*
X55813819Y-20544278D01*
X55813819Y-20544278D02*
X54813819Y-20544278D01*
X55813819Y-20068087D02*
X54813819Y-20068087D01*
X54813819Y-20068087D02*
X54813819Y-19829992D01*
X54813819Y-19829992D02*
X54861438Y-19687135D01*
X54861438Y-19687135D02*
X54956676Y-19591897D01*
X54956676Y-19591897D02*
X55051914Y-19544278D01*
X55051914Y-19544278D02*
X55242390Y-19496659D01*
X55242390Y-19496659D02*
X55385247Y-19496659D01*
X55385247Y-19496659D02*
X55575723Y-19544278D01*
X55575723Y-19544278D02*
X55670961Y-19591897D01*
X55670961Y-19591897D02*
X55766200Y-19687135D01*
X55766200Y-19687135D02*
X55813819Y-19829992D01*
X55813819Y-19829992D02*
X55813819Y-20068087D01*
X23156408Y876180D02*
X23489741Y-123819D01*
X23489741Y-123819D02*
X23823074Y876180D01*
X24727836Y-123819D02*
X24394503Y352371D01*
X24156408Y-123819D02*
X24156408Y876180D01*
X24156408Y876180D02*
X24537360Y876180D01*
X24537360Y876180D02*
X24632598Y828561D01*
X24632598Y828561D02*
X24680217Y780942D01*
X24680217Y780942D02*
X24727836Y685704D01*
X24727836Y685704D02*
X24727836Y542847D01*
X24727836Y542847D02*
X24680217Y447609D01*
X24680217Y447609D02*
X24632598Y399990D01*
X24632598Y399990D02*
X24537360Y352371D01*
X24537360Y352371D02*
X24156408Y352371D01*
X24918313Y-219057D02*
X25680217Y-219057D01*
X26346884Y542847D02*
X26346884Y-123819D01*
X26108789Y923800D02*
X25870694Y209514D01*
X25870694Y209514D02*
X26489741Y209514D01*
X838200Y-70299973D02*
X885819Y-70157116D01*
X885819Y-70157116D02*
X885819Y-69919021D01*
X885819Y-69919021D02*
X838200Y-69823783D01*
X838200Y-69823783D02*
X790580Y-69776164D01*
X790580Y-69776164D02*
X695342Y-69728545D01*
X695342Y-69728545D02*
X600104Y-69728545D01*
X600104Y-69728545D02*
X504866Y-69776164D01*
X504866Y-69776164D02*
X457247Y-69823783D01*
X457247Y-69823783D02*
X409628Y-69919021D01*
X409628Y-69919021D02*
X362009Y-70109497D01*
X362009Y-70109497D02*
X314390Y-70204735D01*
X314390Y-70204735D02*
X266771Y-70252354D01*
X266771Y-70252354D02*
X171533Y-70299973D01*
X171533Y-70299973D02*
X76295Y-70299973D01*
X76295Y-70299973D02*
X-18942Y-70252354D01*
X-18942Y-70252354D02*
X-66561Y-70204735D01*
X-66561Y-70204735D02*
X-114180Y-70109497D01*
X-114180Y-70109497D02*
X-114180Y-69871402D01*
X-114180Y-69871402D02*
X-66561Y-69728545D01*
X981057Y-69538069D02*
X981057Y-68776164D01*
X885819Y-68538068D02*
X-114180Y-68538068D01*
X-114180Y-68538068D02*
X-114180Y-68157116D01*
X-114180Y-68157116D02*
X-66561Y-68061878D01*
X-66561Y-68061878D02*
X-18942Y-68014259D01*
X-18942Y-68014259D02*
X76295Y-67966640D01*
X76295Y-67966640D02*
X219152Y-67966640D01*
X219152Y-67966640D02*
X314390Y-68014259D01*
X314390Y-68014259D02*
X362009Y-68061878D01*
X362009Y-68061878D02*
X409628Y-68157116D01*
X409628Y-68157116D02*
X409628Y-68538068D01*
X-114180Y-67633306D02*
X-114180Y-67014259D01*
X-114180Y-67014259D02*
X266771Y-67347592D01*
X266771Y-67347592D02*
X266771Y-67204735D01*
X266771Y-67204735D02*
X314390Y-67109497D01*
X314390Y-67109497D02*
X362009Y-67061878D01*
X362009Y-67061878D02*
X457247Y-67014259D01*
X457247Y-67014259D02*
X695342Y-67014259D01*
X695342Y-67014259D02*
X790580Y-67061878D01*
X790580Y-67061878D02*
X838200Y-67109497D01*
X838200Y-67109497D02*
X885819Y-67204735D01*
X885819Y-67204735D02*
X885819Y-67490449D01*
X885819Y-67490449D02*
X838200Y-67585687D01*
X838200Y-67585687D02*
X790580Y-67633306D01*
X55718580Y-49359897D02*
X55766200Y-49407516D01*
X55766200Y-49407516D02*
X55813819Y-49550373D01*
X55813819Y-49550373D02*
X55813819Y-49645611D01*
X55813819Y-49645611D02*
X55766200Y-49788468D01*
X55766200Y-49788468D02*
X55670961Y-49883706D01*
X55670961Y-49883706D02*
X55575723Y-49931325D01*
X55575723Y-49931325D02*
X55385247Y-49978944D01*
X55385247Y-49978944D02*
X55242390Y-49978944D01*
X55242390Y-49978944D02*
X55051914Y-49931325D01*
X55051914Y-49931325D02*
X54956676Y-49883706D01*
X54956676Y-49883706D02*
X54861438Y-49788468D01*
X54861438Y-49788468D02*
X54813819Y-49645611D01*
X54813819Y-49645611D02*
X54813819Y-49550373D01*
X54813819Y-49550373D02*
X54861438Y-49407516D01*
X54861438Y-49407516D02*
X54909057Y-49359897D01*
X55909057Y-49169421D02*
X55909057Y-48407516D01*
X54813819Y-47978944D02*
X54813819Y-47788468D01*
X54813819Y-47788468D02*
X54861438Y-47693230D01*
X54861438Y-47693230D02*
X54956676Y-47597992D01*
X54956676Y-47597992D02*
X55147152Y-47550373D01*
X55147152Y-47550373D02*
X55480485Y-47550373D01*
X55480485Y-47550373D02*
X55670961Y-47597992D01*
X55670961Y-47597992D02*
X55766200Y-47693230D01*
X55766200Y-47693230D02*
X55813819Y-47788468D01*
X55813819Y-47788468D02*
X55813819Y-47978944D01*
X55813819Y-47978944D02*
X55766200Y-48074182D01*
X55766200Y-48074182D02*
X55670961Y-48169420D01*
X55670961Y-48169420D02*
X55480485Y-48217039D01*
X55480485Y-48217039D02*
X55147152Y-48217039D01*
X55147152Y-48217039D02*
X54956676Y-48169420D01*
X54956676Y-48169420D02*
X54861438Y-48074182D01*
X54861438Y-48074182D02*
X54813819Y-47978944D01*
X55290009Y-46788468D02*
X55290009Y-47121801D01*
X55813819Y-47121801D02*
X54813819Y-47121801D01*
X54813819Y-47121801D02*
X54813819Y-46645611D01*
X55290009Y-45931325D02*
X55290009Y-46264658D01*
X55813819Y-46264658D02*
X54813819Y-46264658D01*
X54813819Y-46264658D02*
X54813819Y-45788468D01*
X4609779Y-71561438D02*
X4514541Y-71513819D01*
X4514541Y-71513819D02*
X4371684Y-71513819D01*
X4371684Y-71513819D02*
X4228827Y-71561438D01*
X4228827Y-71561438D02*
X4133589Y-71656676D01*
X4133589Y-71656676D02*
X4085970Y-71751914D01*
X4085970Y-71751914D02*
X4038351Y-71942390D01*
X4038351Y-71942390D02*
X4038351Y-72085247D01*
X4038351Y-72085247D02*
X4085970Y-72275723D01*
X4085970Y-72275723D02*
X4133589Y-72370961D01*
X4133589Y-72370961D02*
X4228827Y-72466200D01*
X4228827Y-72466200D02*
X4371684Y-72513819D01*
X4371684Y-72513819D02*
X4466922Y-72513819D01*
X4466922Y-72513819D02*
X4609779Y-72466200D01*
X4609779Y-72466200D02*
X4657398Y-72418580D01*
X4657398Y-72418580D02*
X4657398Y-72085247D01*
X4657398Y-72085247D02*
X4466922Y-72085247D01*
X5085970Y-72513819D02*
X5085970Y-71513819D01*
X5085970Y-71513819D02*
X5657398Y-72513819D01*
X5657398Y-72513819D02*
X5657398Y-71513819D01*
X6133589Y-72513819D02*
X6133589Y-71513819D01*
X6133589Y-71513819D02*
X6371684Y-71513819D01*
X6371684Y-71513819D02*
X6514541Y-71561438D01*
X6514541Y-71561438D02*
X6609779Y-71656676D01*
X6609779Y-71656676D02*
X6657398Y-71751914D01*
X6657398Y-71751914D02*
X6705017Y-71942390D01*
X6705017Y-71942390D02*
X6705017Y-72085247D01*
X6705017Y-72085247D02*
X6657398Y-72275723D01*
X6657398Y-72275723D02*
X6609779Y-72370961D01*
X6609779Y-72370961D02*
X6514541Y-72466200D01*
X6514541Y-72466200D02*
X6371684Y-72513819D01*
X6371684Y-72513819D02*
X6133589Y-72513819D01*
X55290009Y-33926192D02*
X55337628Y-33783335D01*
X55337628Y-33783335D02*
X55385247Y-33735716D01*
X55385247Y-33735716D02*
X55480485Y-33688097D01*
X55480485Y-33688097D02*
X55623342Y-33688097D01*
X55623342Y-33688097D02*
X55718580Y-33735716D01*
X55718580Y-33735716D02*
X55766200Y-33783335D01*
X55766200Y-33783335D02*
X55813819Y-33878573D01*
X55813819Y-33878573D02*
X55813819Y-34259525D01*
X55813819Y-34259525D02*
X54813819Y-34259525D01*
X54813819Y-34259525D02*
X54813819Y-33926192D01*
X54813819Y-33926192D02*
X54861438Y-33830954D01*
X54861438Y-33830954D02*
X54909057Y-33783335D01*
X54909057Y-33783335D02*
X55004295Y-33735716D01*
X55004295Y-33735716D02*
X55099533Y-33735716D01*
X55099533Y-33735716D02*
X55194771Y-33783335D01*
X55194771Y-33783335D02*
X55242390Y-33830954D01*
X55242390Y-33830954D02*
X55290009Y-33926192D01*
X55290009Y-33926192D02*
X55290009Y-34259525D01*
X55909057Y-33497621D02*
X55909057Y-32735716D01*
X54813819Y-32307144D02*
X54813819Y-32116668D01*
X54813819Y-32116668D02*
X54861438Y-32021430D01*
X54861438Y-32021430D02*
X54956676Y-31926192D01*
X54956676Y-31926192D02*
X55147152Y-31878573D01*
X55147152Y-31878573D02*
X55480485Y-31878573D01*
X55480485Y-31878573D02*
X55670961Y-31926192D01*
X55670961Y-31926192D02*
X55766200Y-32021430D01*
X55766200Y-32021430D02*
X55813819Y-32116668D01*
X55813819Y-32116668D02*
X55813819Y-32307144D01*
X55813819Y-32307144D02*
X55766200Y-32402382D01*
X55766200Y-32402382D02*
X55670961Y-32497620D01*
X55670961Y-32497620D02*
X55480485Y-32545239D01*
X55480485Y-32545239D02*
X55147152Y-32545239D01*
X55147152Y-32545239D02*
X54956676Y-32497620D01*
X54956676Y-32497620D02*
X54861438Y-32402382D01*
X54861438Y-32402382D02*
X54813819Y-32307144D01*
X55290009Y-31116668D02*
X55290009Y-31450001D01*
X55813819Y-31450001D02*
X54813819Y-31450001D01*
X54813819Y-31450001D02*
X54813819Y-30973811D01*
X55290009Y-30259525D02*
X55290009Y-30592858D01*
X55813819Y-30592858D02*
X54813819Y-30592858D01*
X54813819Y-30592858D02*
X54813819Y-30116668D01*
X29736407Y876180D02*
X29260217Y876180D01*
X29260217Y876180D02*
X29212598Y399990D01*
X29212598Y399990D02*
X29260217Y447609D01*
X29260217Y447609D02*
X29355455Y495228D01*
X29355455Y495228D02*
X29593550Y495228D01*
X29593550Y495228D02*
X29688788Y447609D01*
X29688788Y447609D02*
X29736407Y399990D01*
X29736407Y399990D02*
X29784026Y304752D01*
X29784026Y304752D02*
X29784026Y66657D01*
X29784026Y66657D02*
X29736407Y-28580D01*
X29736407Y-28580D02*
X29688788Y-76200D01*
X29688788Y-76200D02*
X29593550Y-123819D01*
X29593550Y-123819D02*
X29355455Y-123819D01*
X29355455Y-123819D02*
X29260217Y-76200D01*
X29260217Y-76200D02*
X29212598Y-28580D01*
X30069741Y876180D02*
X30403074Y-123819D01*
X30403074Y-123819D02*
X30736407Y876180D01*
X55528104Y-18559516D02*
X55528104Y-18083326D01*
X55813819Y-18654754D02*
X54813819Y-18321421D01*
X54813819Y-18321421D02*
X55813819Y-17988088D01*
X55909057Y-17892850D02*
X55909057Y-17130945D01*
X54813819Y-16702373D02*
X54813819Y-16511897D01*
X54813819Y-16511897D02*
X54861438Y-16416659D01*
X54861438Y-16416659D02*
X54956676Y-16321421D01*
X54956676Y-16321421D02*
X55147152Y-16273802D01*
X55147152Y-16273802D02*
X55480485Y-16273802D01*
X55480485Y-16273802D02*
X55670961Y-16321421D01*
X55670961Y-16321421D02*
X55766200Y-16416659D01*
X55766200Y-16416659D02*
X55813819Y-16511897D01*
X55813819Y-16511897D02*
X55813819Y-16702373D01*
X55813819Y-16702373D02*
X55766200Y-16797611D01*
X55766200Y-16797611D02*
X55670961Y-16892849D01*
X55670961Y-16892849D02*
X55480485Y-16940468D01*
X55480485Y-16940468D02*
X55147152Y-16940468D01*
X55147152Y-16940468D02*
X54956676Y-16892849D01*
X54956676Y-16892849D02*
X54861438Y-16797611D01*
X54861438Y-16797611D02*
X54813819Y-16702373D01*
X55290009Y-15511897D02*
X55290009Y-15845230D01*
X55813819Y-15845230D02*
X54813819Y-15845230D01*
X54813819Y-15845230D02*
X54813819Y-15369040D01*
X55290009Y-14654754D02*
X55290009Y-14988087D01*
X55813819Y-14988087D02*
X54813819Y-14988087D01*
X54813819Y-14988087D02*
X54813819Y-14511897D01*
X55290009Y-28512859D02*
X55337628Y-28370002D01*
X55337628Y-28370002D02*
X55385247Y-28322383D01*
X55385247Y-28322383D02*
X55480485Y-28274764D01*
X55480485Y-28274764D02*
X55623342Y-28274764D01*
X55623342Y-28274764D02*
X55718580Y-28322383D01*
X55718580Y-28322383D02*
X55766200Y-28370002D01*
X55766200Y-28370002D02*
X55813819Y-28465240D01*
X55813819Y-28465240D02*
X55813819Y-28846192D01*
X55813819Y-28846192D02*
X54813819Y-28846192D01*
X54813819Y-28846192D02*
X54813819Y-28512859D01*
X54813819Y-28512859D02*
X54861438Y-28417621D01*
X54861438Y-28417621D02*
X54909057Y-28370002D01*
X54909057Y-28370002D02*
X55004295Y-28322383D01*
X55004295Y-28322383D02*
X55099533Y-28322383D01*
X55099533Y-28322383D02*
X55194771Y-28370002D01*
X55194771Y-28370002D02*
X55242390Y-28417621D01*
X55242390Y-28417621D02*
X55290009Y-28512859D01*
X55290009Y-28512859D02*
X55290009Y-28846192D01*
X55909057Y-28084288D02*
X55909057Y-27322383D01*
X54813819Y-26893811D02*
X54813819Y-26703335D01*
X54813819Y-26703335D02*
X54861438Y-26608097D01*
X54861438Y-26608097D02*
X54956676Y-26512859D01*
X54956676Y-26512859D02*
X55147152Y-26465240D01*
X55147152Y-26465240D02*
X55480485Y-26465240D01*
X55480485Y-26465240D02*
X55670961Y-26512859D01*
X55670961Y-26512859D02*
X55766200Y-26608097D01*
X55766200Y-26608097D02*
X55813819Y-26703335D01*
X55813819Y-26703335D02*
X55813819Y-26893811D01*
X55813819Y-26893811D02*
X55766200Y-26989049D01*
X55766200Y-26989049D02*
X55670961Y-27084287D01*
X55670961Y-27084287D02*
X55480485Y-27131906D01*
X55480485Y-27131906D02*
X55147152Y-27131906D01*
X55147152Y-27131906D02*
X54956676Y-27084287D01*
X54956676Y-27084287D02*
X54861438Y-26989049D01*
X54861438Y-26989049D02*
X54813819Y-26893811D01*
X55813819Y-26036668D02*
X54813819Y-26036668D01*
X54813819Y-26036668D02*
X55813819Y-25465240D01*
X55813819Y-25465240D02*
X54813819Y-25465240D01*
X838200Y-18083325D02*
X885819Y-17940468D01*
X885819Y-17940468D02*
X885819Y-17702373D01*
X885819Y-17702373D02*
X838200Y-17607135D01*
X838200Y-17607135D02*
X790580Y-17559516D01*
X790580Y-17559516D02*
X695342Y-17511897D01*
X695342Y-17511897D02*
X600104Y-17511897D01*
X600104Y-17511897D02*
X504866Y-17559516D01*
X504866Y-17559516D02*
X457247Y-17607135D01*
X457247Y-17607135D02*
X409628Y-17702373D01*
X409628Y-17702373D02*
X362009Y-17892849D01*
X362009Y-17892849D02*
X314390Y-17988087D01*
X314390Y-17988087D02*
X266771Y-18035706D01*
X266771Y-18035706D02*
X171533Y-18083325D01*
X171533Y-18083325D02*
X76295Y-18083325D01*
X76295Y-18083325D02*
X-18942Y-18035706D01*
X-18942Y-18035706D02*
X-66561Y-17988087D01*
X-66561Y-17988087D02*
X-114180Y-17892849D01*
X-114180Y-17892849D02*
X-114180Y-17654754D01*
X-114180Y-17654754D02*
X-66561Y-17511897D01*
X981057Y-17321421D02*
X981057Y-16559516D01*
X-114180Y-16464277D02*
X-114180Y-15892849D01*
X885819Y-16178563D02*
X-114180Y-16178563D01*
X-18942Y-15607134D02*
X-66561Y-15559515D01*
X-66561Y-15559515D02*
X-114180Y-15464277D01*
X-114180Y-15464277D02*
X-114180Y-15226182D01*
X-114180Y-15226182D02*
X-66561Y-15130944D01*
X-66561Y-15130944D02*
X-18942Y-15083325D01*
X-18942Y-15083325D02*
X76295Y-15035706D01*
X76295Y-15035706D02*
X171533Y-15035706D01*
X171533Y-15035706D02*
X314390Y-15083325D01*
X314390Y-15083325D02*
X885819Y-15654753D01*
X885819Y-15654753D02*
X885819Y-15035706D01*
X40119989Y-71513819D02*
X40739036Y-71513819D01*
X40739036Y-71513819D02*
X40405703Y-71894771D01*
X40405703Y-71894771D02*
X40548560Y-71894771D01*
X40548560Y-71894771D02*
X40643798Y-71942390D01*
X40643798Y-71942390D02*
X40691417Y-71990009D01*
X40691417Y-71990009D02*
X40739036Y-72085247D01*
X40739036Y-72085247D02*
X40739036Y-72323342D01*
X40739036Y-72323342D02*
X40691417Y-72418580D01*
X40691417Y-72418580D02*
X40643798Y-72466200D01*
X40643798Y-72466200D02*
X40548560Y-72513819D01*
X40548560Y-72513819D02*
X40262846Y-72513819D01*
X40262846Y-72513819D02*
X40167608Y-72466200D01*
X40167608Y-72466200D02*
X40119989Y-72418580D01*
X41024751Y-71513819D02*
X41358084Y-72513819D01*
X41358084Y-72513819D02*
X41691417Y-71513819D01*
X41929513Y-71513819D02*
X42548560Y-71513819D01*
X42548560Y-71513819D02*
X42215227Y-71894771D01*
X42215227Y-71894771D02*
X42358084Y-71894771D01*
X42358084Y-71894771D02*
X42453322Y-71942390D01*
X42453322Y-71942390D02*
X42500941Y-71990009D01*
X42500941Y-71990009D02*
X42548560Y-72085247D01*
X42548560Y-72085247D02*
X42548560Y-72323342D01*
X42548560Y-72323342D02*
X42500941Y-72418580D01*
X42500941Y-72418580D02*
X42453322Y-72466200D01*
X42453322Y-72466200D02*
X42358084Y-72513819D01*
X42358084Y-72513819D02*
X42072370Y-72513819D01*
X42072370Y-72513819D02*
X41977132Y-72466200D01*
X41977132Y-72466200D02*
X41929513Y-72418580D01*
X7480208Y876180D02*
X7813541Y-123819D01*
X7813541Y-123819D02*
X8146874Y876180D01*
X9051636Y-123819D02*
X8718303Y352371D01*
X8480208Y-123819D02*
X8480208Y876180D01*
X8480208Y876180D02*
X8861160Y876180D01*
X8861160Y876180D02*
X8956398Y828561D01*
X8956398Y828561D02*
X9004017Y780942D01*
X9004017Y780942D02*
X9051636Y685704D01*
X9051636Y685704D02*
X9051636Y542847D01*
X9051636Y542847D02*
X9004017Y447609D01*
X9004017Y447609D02*
X8956398Y399990D01*
X8956398Y399990D02*
X8861160Y352371D01*
X8861160Y352371D02*
X8480208Y352371D01*
X9242113Y-219057D02*
X10004017Y-219057D01*
X10718303Y876180D02*
X10242113Y876180D01*
X10242113Y876180D02*
X10194494Y399990D01*
X10194494Y399990D02*
X10242113Y447609D01*
X10242113Y447609D02*
X10337351Y495228D01*
X10337351Y495228D02*
X10575446Y495228D01*
X10575446Y495228D02*
X10670684Y447609D01*
X10670684Y447609D02*
X10718303Y399990D01*
X10718303Y399990D02*
X10765922Y304752D01*
X10765922Y304752D02*
X10765922Y66657D01*
X10765922Y66657D02*
X10718303Y-28580D01*
X10718303Y-28580D02*
X10670684Y-76200D01*
X10670684Y-76200D02*
X10575446Y-123819D01*
X10575446Y-123819D02*
X10337351Y-123819D01*
X10337351Y-123819D02*
X10242113Y-76200D01*
X10242113Y-76200D02*
X10194494Y-28580D01*
X3328779Y828561D02*
X3233541Y876180D01*
X3233541Y876180D02*
X3090684Y876180D01*
X3090684Y876180D02*
X2947827Y828561D01*
X2947827Y828561D02*
X2852589Y733323D01*
X2852589Y733323D02*
X2804970Y638085D01*
X2804970Y638085D02*
X2757351Y447609D01*
X2757351Y447609D02*
X2757351Y304752D01*
X2757351Y304752D02*
X2804970Y114276D01*
X2804970Y114276D02*
X2852589Y19038D01*
X2852589Y19038D02*
X2947827Y-76200D01*
X2947827Y-76200D02*
X3090684Y-123819D01*
X3090684Y-123819D02*
X3185922Y-123819D01*
X3185922Y-123819D02*
X3328779Y-76200D01*
X3328779Y-76200D02*
X3376398Y-28580D01*
X3376398Y-28580D02*
X3376398Y304752D01*
X3376398Y304752D02*
X3185922Y304752D01*
X3804970Y-123819D02*
X3804970Y876180D01*
X3804970Y876180D02*
X4376398Y-123819D01*
X4376398Y-123819D02*
X4376398Y876180D01*
X4852589Y-123819D02*
X4852589Y876180D01*
X4852589Y876180D02*
X5090684Y876180D01*
X5090684Y876180D02*
X5233541Y828561D01*
X5233541Y828561D02*
X5328779Y733323D01*
X5328779Y733323D02*
X5376398Y638085D01*
X5376398Y638085D02*
X5424017Y447609D01*
X5424017Y447609D02*
X5424017Y304752D01*
X5424017Y304752D02*
X5376398Y114276D01*
X5376398Y114276D02*
X5328779Y19038D01*
X5328779Y19038D02*
X5233541Y-76200D01*
X5233541Y-76200D02*
X5090684Y-123819D01*
X5090684Y-123819D02*
X4852589Y-123819D01*
X55290009Y-39149049D02*
X55337628Y-39006192D01*
X55337628Y-39006192D02*
X55385247Y-38958573D01*
X55385247Y-38958573D02*
X55480485Y-38910954D01*
X55480485Y-38910954D02*
X55623342Y-38910954D01*
X55623342Y-38910954D02*
X55718580Y-38958573D01*
X55718580Y-38958573D02*
X55766200Y-39006192D01*
X55766200Y-39006192D02*
X55813819Y-39101430D01*
X55813819Y-39101430D02*
X55813819Y-39482382D01*
X55813819Y-39482382D02*
X54813819Y-39482382D01*
X54813819Y-39482382D02*
X54813819Y-39149049D01*
X54813819Y-39149049D02*
X54861438Y-39053811D01*
X54861438Y-39053811D02*
X54909057Y-39006192D01*
X54909057Y-39006192D02*
X55004295Y-38958573D01*
X55004295Y-38958573D02*
X55099533Y-38958573D01*
X55099533Y-38958573D02*
X55194771Y-39006192D01*
X55194771Y-39006192D02*
X55242390Y-39053811D01*
X55242390Y-39053811D02*
X55290009Y-39149049D01*
X55290009Y-39149049D02*
X55290009Y-39482382D01*
X55909057Y-38720478D02*
X55909057Y-37958573D01*
X54861438Y-37196668D02*
X54813819Y-37291906D01*
X54813819Y-37291906D02*
X54813819Y-37434763D01*
X54813819Y-37434763D02*
X54861438Y-37577620D01*
X54861438Y-37577620D02*
X54956676Y-37672858D01*
X54956676Y-37672858D02*
X55051914Y-37720477D01*
X55051914Y-37720477D02*
X55242390Y-37768096D01*
X55242390Y-37768096D02*
X55385247Y-37768096D01*
X55385247Y-37768096D02*
X55575723Y-37720477D01*
X55575723Y-37720477D02*
X55670961Y-37672858D01*
X55670961Y-37672858D02*
X55766200Y-37577620D01*
X55766200Y-37577620D02*
X55813819Y-37434763D01*
X55813819Y-37434763D02*
X55813819Y-37339525D01*
X55813819Y-37339525D02*
X55766200Y-37196668D01*
X55766200Y-37196668D02*
X55718580Y-37149049D01*
X55718580Y-37149049D02*
X55385247Y-37149049D01*
X55385247Y-37149049D02*
X55385247Y-37339525D01*
X55813819Y-36720477D02*
X54813819Y-36720477D01*
X54813819Y-36720477D02*
X55813819Y-36149049D01*
X55813819Y-36149049D02*
X54813819Y-36149049D01*
X55813819Y-35672858D02*
X54813819Y-35672858D01*
X54813819Y-35672858D02*
X54813819Y-35434763D01*
X54813819Y-35434763D02*
X54861438Y-35291906D01*
X54861438Y-35291906D02*
X54956676Y-35196668D01*
X54956676Y-35196668D02*
X55051914Y-35149049D01*
X55051914Y-35149049D02*
X55242390Y-35101430D01*
X55242390Y-35101430D02*
X55385247Y-35101430D01*
X55385247Y-35101430D02*
X55575723Y-35149049D01*
X55575723Y-35149049D02*
X55670961Y-35196668D01*
X55670961Y-35196668D02*
X55766200Y-35291906D01*
X55766200Y-35291906D02*
X55813819Y-35434763D01*
X55813819Y-35434763D02*
X55813819Y-35672858D01*
X34676779Y828561D02*
X34581541Y876180D01*
X34581541Y876180D02*
X34438684Y876180D01*
X34438684Y876180D02*
X34295827Y828561D01*
X34295827Y828561D02*
X34200589Y733323D01*
X34200589Y733323D02*
X34152970Y638085D01*
X34152970Y638085D02*
X34105351Y447609D01*
X34105351Y447609D02*
X34105351Y304752D01*
X34105351Y304752D02*
X34152970Y114276D01*
X34152970Y114276D02*
X34200589Y19038D01*
X34200589Y19038D02*
X34295827Y-76200D01*
X34295827Y-76200D02*
X34438684Y-123819D01*
X34438684Y-123819D02*
X34533922Y-123819D01*
X34533922Y-123819D02*
X34676779Y-76200D01*
X34676779Y-76200D02*
X34724398Y-28580D01*
X34724398Y-28580D02*
X34724398Y304752D01*
X34724398Y304752D02*
X34533922Y304752D01*
X35152970Y-123819D02*
X35152970Y876180D01*
X35152970Y876180D02*
X35724398Y-123819D01*
X35724398Y-123819D02*
X35724398Y876180D01*
X36200589Y-123819D02*
X36200589Y876180D01*
X36200589Y876180D02*
X36438684Y876180D01*
X36438684Y876180D02*
X36581541Y828561D01*
X36581541Y828561D02*
X36676779Y733323D01*
X36676779Y733323D02*
X36724398Y638085D01*
X36724398Y638085D02*
X36772017Y447609D01*
X36772017Y447609D02*
X36772017Y304752D01*
X36772017Y304752D02*
X36724398Y114276D01*
X36724398Y114276D02*
X36676779Y19038D01*
X36676779Y19038D02*
X36581541Y-76200D01*
X36581541Y-76200D02*
X36438684Y-123819D01*
X36438684Y-123819D02*
X36200589Y-123819D01*
X54500008Y876180D02*
X54833341Y-123819D01*
X54833341Y-123819D02*
X55166674Y876180D01*
X56071436Y-123819D02*
X55738103Y352371D01*
X55500008Y-123819D02*
X55500008Y876180D01*
X55500008Y876180D02*
X55880960Y876180D01*
X55880960Y876180D02*
X55976198Y828561D01*
X55976198Y828561D02*
X56023817Y780942D01*
X56023817Y780942D02*
X56071436Y685704D01*
X56071436Y685704D02*
X56071436Y542847D01*
X56071436Y542847D02*
X56023817Y447609D01*
X56023817Y447609D02*
X55976198Y399990D01*
X55976198Y399990D02*
X55880960Y352371D01*
X55880960Y352371D02*
X55500008Y352371D01*
X56261913Y-219057D02*
X57023817Y-219057D01*
X57214294Y780942D02*
X57261913Y828561D01*
X57261913Y828561D02*
X57357151Y876180D01*
X57357151Y876180D02*
X57595246Y876180D01*
X57595246Y876180D02*
X57690484Y828561D01*
X57690484Y828561D02*
X57738103Y780942D01*
X57738103Y780942D02*
X57785722Y685704D01*
X57785722Y685704D02*
X57785722Y590466D01*
X57785722Y590466D02*
X57738103Y447609D01*
X57738103Y447609D02*
X57166675Y-123819D01*
X57166675Y-123819D02*
X57785722Y-123819D01*
X45676179Y-71561438D02*
X45580941Y-71513819D01*
X45580941Y-71513819D02*
X45438084Y-71513819D01*
X45438084Y-71513819D02*
X45295227Y-71561438D01*
X45295227Y-71561438D02*
X45199989Y-71656676D01*
X45199989Y-71656676D02*
X45152370Y-71751914D01*
X45152370Y-71751914D02*
X45104751Y-71942390D01*
X45104751Y-71942390D02*
X45104751Y-72085247D01*
X45104751Y-72085247D02*
X45152370Y-72275723D01*
X45152370Y-72275723D02*
X45199989Y-72370961D01*
X45199989Y-72370961D02*
X45295227Y-72466200D01*
X45295227Y-72466200D02*
X45438084Y-72513819D01*
X45438084Y-72513819D02*
X45533322Y-72513819D01*
X45533322Y-72513819D02*
X45676179Y-72466200D01*
X45676179Y-72466200D02*
X45723798Y-72418580D01*
X45723798Y-72418580D02*
X45723798Y-72085247D01*
X45723798Y-72085247D02*
X45533322Y-72085247D01*
X46152370Y-72513819D02*
X46152370Y-71513819D01*
X46152370Y-71513819D02*
X46723798Y-72513819D01*
X46723798Y-72513819D02*
X46723798Y-71513819D01*
X47199989Y-72513819D02*
X47199989Y-71513819D01*
X47199989Y-71513819D02*
X47438084Y-71513819D01*
X47438084Y-71513819D02*
X47580941Y-71561438D01*
X47580941Y-71561438D02*
X47676179Y-71656676D01*
X47676179Y-71656676D02*
X47723798Y-71751914D01*
X47723798Y-71751914D02*
X47771417Y-71942390D01*
X47771417Y-71942390D02*
X47771417Y-72085247D01*
X47771417Y-72085247D02*
X47723798Y-72275723D01*
X47723798Y-72275723D02*
X47676179Y-72370961D01*
X47676179Y-72370961D02*
X47580941Y-72466200D01*
X47580941Y-72466200D02*
X47438084Y-72513819D01*
X47438084Y-72513819D02*
X47199989Y-72513819D01*
X21225874Y-72466200D02*
X21368731Y-72513819D01*
X21368731Y-72513819D02*
X21606826Y-72513819D01*
X21606826Y-72513819D02*
X21702064Y-72466200D01*
X21702064Y-72466200D02*
X21749683Y-72418580D01*
X21749683Y-72418580D02*
X21797302Y-72323342D01*
X21797302Y-72323342D02*
X21797302Y-72228104D01*
X21797302Y-72228104D02*
X21749683Y-72132866D01*
X21749683Y-72132866D02*
X21702064Y-72085247D01*
X21702064Y-72085247D02*
X21606826Y-72037628D01*
X21606826Y-72037628D02*
X21416350Y-71990009D01*
X21416350Y-71990009D02*
X21321112Y-71942390D01*
X21321112Y-71942390D02*
X21273493Y-71894771D01*
X21273493Y-71894771D02*
X21225874Y-71799533D01*
X21225874Y-71799533D02*
X21225874Y-71704295D01*
X21225874Y-71704295D02*
X21273493Y-71609057D01*
X21273493Y-71609057D02*
X21321112Y-71561438D01*
X21321112Y-71561438D02*
X21416350Y-71513819D01*
X21416350Y-71513819D02*
X21654445Y-71513819D01*
X21654445Y-71513819D02*
X21797302Y-71561438D01*
X21987779Y-72609057D02*
X22749683Y-72609057D01*
X22844922Y-71513819D02*
X23416350Y-71513819D01*
X23130636Y-72513819D02*
X23130636Y-71513819D01*
X24225874Y-71513819D02*
X23749684Y-71513819D01*
X23749684Y-71513819D02*
X23702065Y-71990009D01*
X23702065Y-71990009D02*
X23749684Y-71942390D01*
X23749684Y-71942390D02*
X23844922Y-71894771D01*
X23844922Y-71894771D02*
X24083017Y-71894771D01*
X24083017Y-71894771D02*
X24178255Y-71942390D01*
X24178255Y-71942390D02*
X24225874Y-71990009D01*
X24225874Y-71990009D02*
X24273493Y-72085247D01*
X24273493Y-72085247D02*
X24273493Y-72323342D01*
X24273493Y-72323342D02*
X24225874Y-72418580D01*
X24225874Y-72418580D02*
X24178255Y-72466200D01*
X24178255Y-72466200D02*
X24083017Y-72513819D01*
X24083017Y-72513819D02*
X23844922Y-72513819D01*
X23844922Y-72513819D02*
X23749684Y-72466200D01*
X23749684Y-72466200D02*
X23702065Y-72418580D01*
X838200Y-38958573D02*
X885819Y-38815716D01*
X885819Y-38815716D02*
X885819Y-38577621D01*
X885819Y-38577621D02*
X838200Y-38482383D01*
X838200Y-38482383D02*
X790580Y-38434764D01*
X790580Y-38434764D02*
X695342Y-38387145D01*
X695342Y-38387145D02*
X600104Y-38387145D01*
X600104Y-38387145D02*
X504866Y-38434764D01*
X504866Y-38434764D02*
X457247Y-38482383D01*
X457247Y-38482383D02*
X409628Y-38577621D01*
X409628Y-38577621D02*
X362009Y-38768097D01*
X362009Y-38768097D02*
X314390Y-38863335D01*
X314390Y-38863335D02*
X266771Y-38910954D01*
X266771Y-38910954D02*
X171533Y-38958573D01*
X171533Y-38958573D02*
X76295Y-38958573D01*
X76295Y-38958573D02*
X-18942Y-38910954D01*
X-18942Y-38910954D02*
X-66561Y-38863335D01*
X-66561Y-38863335D02*
X-114180Y-38768097D01*
X-114180Y-38768097D02*
X-114180Y-38530002D01*
X-114180Y-38530002D02*
X-66561Y-38387145D01*
X981057Y-38196669D02*
X981057Y-37434764D01*
X885819Y-36625240D02*
X409628Y-36958573D01*
X885819Y-37196668D02*
X-114180Y-37196668D01*
X-114180Y-37196668D02*
X-114180Y-36815716D01*
X-114180Y-36815716D02*
X-66561Y-36720478D01*
X-66561Y-36720478D02*
X-18942Y-36672859D01*
X-18942Y-36672859D02*
X76295Y-36625240D01*
X76295Y-36625240D02*
X219152Y-36625240D01*
X219152Y-36625240D02*
X314390Y-36672859D01*
X314390Y-36672859D02*
X362009Y-36720478D01*
X362009Y-36720478D02*
X409628Y-36815716D01*
X409628Y-36815716D02*
X409628Y-37196668D01*
X885819Y-35672859D02*
X885819Y-36244287D01*
X885819Y-35958573D02*
X-114180Y-35958573D01*
X-114180Y-35958573D02*
X28676Y-36053811D01*
X28676Y-36053811D02*
X123914Y-36149049D01*
X123914Y-36149049D02*
X171533Y-36244287D01*
X55813819Y-60187592D02*
X54813819Y-60187592D01*
X54813819Y-60187592D02*
X54813819Y-59949497D01*
X54813819Y-59949497D02*
X54861438Y-59806640D01*
X54861438Y-59806640D02*
X54956676Y-59711402D01*
X54956676Y-59711402D02*
X55051914Y-59663783D01*
X55051914Y-59663783D02*
X55242390Y-59616164D01*
X55242390Y-59616164D02*
X55385247Y-59616164D01*
X55385247Y-59616164D02*
X55575723Y-59663783D01*
X55575723Y-59663783D02*
X55670961Y-59711402D01*
X55670961Y-59711402D02*
X55766200Y-59806640D01*
X55766200Y-59806640D02*
X55813819Y-59949497D01*
X55813819Y-59949497D02*
X55813819Y-60187592D01*
X55909057Y-59425688D02*
X55909057Y-58663783D01*
X54813819Y-58235211D02*
X54813819Y-58044735D01*
X54813819Y-58044735D02*
X54861438Y-57949497D01*
X54861438Y-57949497D02*
X54956676Y-57854259D01*
X54956676Y-57854259D02*
X55147152Y-57806640D01*
X55147152Y-57806640D02*
X55480485Y-57806640D01*
X55480485Y-57806640D02*
X55670961Y-57854259D01*
X55670961Y-57854259D02*
X55766200Y-57949497D01*
X55766200Y-57949497D02*
X55813819Y-58044735D01*
X55813819Y-58044735D02*
X55813819Y-58235211D01*
X55813819Y-58235211D02*
X55766200Y-58330449D01*
X55766200Y-58330449D02*
X55670961Y-58425687D01*
X55670961Y-58425687D02*
X55480485Y-58473306D01*
X55480485Y-58473306D02*
X55147152Y-58473306D01*
X55147152Y-58473306D02*
X54956676Y-58425687D01*
X54956676Y-58425687D02*
X54861438Y-58330449D01*
X54861438Y-58330449D02*
X54813819Y-58235211D01*
X55813819Y-57378068D02*
X54813819Y-57378068D01*
X54813819Y-57378068D02*
X55813819Y-56806640D01*
X55813819Y-56806640D02*
X54813819Y-56806640D01*
X14060207Y876180D02*
X13584017Y876180D01*
X13584017Y876180D02*
X13536398Y399990D01*
X13536398Y399990D02*
X13584017Y447609D01*
X13584017Y447609D02*
X13679255Y495228D01*
X13679255Y495228D02*
X13917350Y495228D01*
X13917350Y495228D02*
X14012588Y447609D01*
X14012588Y447609D02*
X14060207Y399990D01*
X14060207Y399990D02*
X14107826Y304752D01*
X14107826Y304752D02*
X14107826Y66657D01*
X14107826Y66657D02*
X14060207Y-28580D01*
X14060207Y-28580D02*
X14012588Y-76200D01*
X14012588Y-76200D02*
X13917350Y-123819D01*
X13917350Y-123819D02*
X13679255Y-123819D01*
X13679255Y-123819D02*
X13584017Y-76200D01*
X13584017Y-76200D02*
X13536398Y-28580D01*
X14393541Y876180D02*
X14726874Y-123819D01*
X14726874Y-123819D02*
X15060207Y876180D01*
X838200Y-13003325D02*
X885819Y-12860468D01*
X885819Y-12860468D02*
X885819Y-12622373D01*
X885819Y-12622373D02*
X838200Y-12527135D01*
X838200Y-12527135D02*
X790580Y-12479516D01*
X790580Y-12479516D02*
X695342Y-12431897D01*
X695342Y-12431897D02*
X600104Y-12431897D01*
X600104Y-12431897D02*
X504866Y-12479516D01*
X504866Y-12479516D02*
X457247Y-12527135D01*
X457247Y-12527135D02*
X409628Y-12622373D01*
X409628Y-12622373D02*
X362009Y-12812849D01*
X362009Y-12812849D02*
X314390Y-12908087D01*
X314390Y-12908087D02*
X266771Y-12955706D01*
X266771Y-12955706D02*
X171533Y-13003325D01*
X171533Y-13003325D02*
X76295Y-13003325D01*
X76295Y-13003325D02*
X-18942Y-12955706D01*
X-18942Y-12955706D02*
X-66561Y-12908087D01*
X-66561Y-12908087D02*
X-114180Y-12812849D01*
X-114180Y-12812849D02*
X-114180Y-12574754D01*
X-114180Y-12574754D02*
X-66561Y-12431897D01*
X981057Y-12241421D02*
X981057Y-11479516D01*
X-114180Y-11384277D02*
X-114180Y-10812849D01*
X885819Y-11098563D02*
X-114180Y-11098563D01*
X885819Y-9955706D02*
X885819Y-10527134D01*
X885819Y-10241420D02*
X-114180Y-10241420D01*
X-114180Y-10241420D02*
X28676Y-10336658D01*
X28676Y-10336658D02*
X123914Y-10431896D01*
X123914Y-10431896D02*
X171533Y-10527134D01*
X61080007Y876180D02*
X60603817Y876180D01*
X60603817Y876180D02*
X60556198Y399990D01*
X60556198Y399990D02*
X60603817Y447609D01*
X60603817Y447609D02*
X60699055Y495228D01*
X60699055Y495228D02*
X60937150Y495228D01*
X60937150Y495228D02*
X61032388Y447609D01*
X61032388Y447609D02*
X61080007Y399990D01*
X61080007Y399990D02*
X61127626Y304752D01*
X61127626Y304752D02*
X61127626Y66657D01*
X61127626Y66657D02*
X61080007Y-28580D01*
X61080007Y-28580D02*
X61032388Y-76200D01*
X61032388Y-76200D02*
X60937150Y-123819D01*
X60937150Y-123819D02*
X60699055Y-123819D01*
X60699055Y-123819D02*
X60603817Y-76200D01*
X60603817Y-76200D02*
X60556198Y-28580D01*
X61413341Y876180D02*
X61746674Y-123819D01*
X61746674Y-123819D02*
X62080007Y876180D01*
X838200Y-49550373D02*
X885819Y-49407516D01*
X885819Y-49407516D02*
X885819Y-49169421D01*
X885819Y-49169421D02*
X838200Y-49074183D01*
X838200Y-49074183D02*
X790580Y-49026564D01*
X790580Y-49026564D02*
X695342Y-48978945D01*
X695342Y-48978945D02*
X600104Y-48978945D01*
X600104Y-48978945D02*
X504866Y-49026564D01*
X504866Y-49026564D02*
X457247Y-49074183D01*
X457247Y-49074183D02*
X409628Y-49169421D01*
X409628Y-49169421D02*
X362009Y-49359897D01*
X362009Y-49359897D02*
X314390Y-49455135D01*
X314390Y-49455135D02*
X266771Y-49502754D01*
X266771Y-49502754D02*
X171533Y-49550373D01*
X171533Y-49550373D02*
X76295Y-49550373D01*
X76295Y-49550373D02*
X-18942Y-49502754D01*
X-18942Y-49502754D02*
X-66561Y-49455135D01*
X-66561Y-49455135D02*
X-114180Y-49359897D01*
X-114180Y-49359897D02*
X-114180Y-49121802D01*
X-114180Y-49121802D02*
X-66561Y-48978945D01*
X981057Y-48788469D02*
X981057Y-48026564D01*
X885819Y-47217040D02*
X409628Y-47550373D01*
X885819Y-47788468D02*
X-114180Y-47788468D01*
X-114180Y-47788468D02*
X-114180Y-47407516D01*
X-114180Y-47407516D02*
X-66561Y-47312278D01*
X-66561Y-47312278D02*
X-18942Y-47264659D01*
X-18942Y-47264659D02*
X76295Y-47217040D01*
X76295Y-47217040D02*
X219152Y-47217040D01*
X219152Y-47217040D02*
X314390Y-47264659D01*
X314390Y-47264659D02*
X362009Y-47312278D01*
X362009Y-47312278D02*
X409628Y-47407516D01*
X409628Y-47407516D02*
X409628Y-47788468D01*
X-114180Y-46883706D02*
X-114180Y-46264659D01*
X-114180Y-46264659D02*
X266771Y-46597992D01*
X266771Y-46597992D02*
X266771Y-46455135D01*
X266771Y-46455135D02*
X314390Y-46359897D01*
X314390Y-46359897D02*
X362009Y-46312278D01*
X362009Y-46312278D02*
X457247Y-46264659D01*
X457247Y-46264659D02*
X695342Y-46264659D01*
X695342Y-46264659D02*
X790580Y-46312278D01*
X790580Y-46312278D02*
X838200Y-46359897D01*
X838200Y-46359897D02*
X885819Y-46455135D01*
X885819Y-46455135D02*
X885819Y-46740849D01*
X885819Y-46740849D02*
X838200Y-46836087D01*
X838200Y-46836087D02*
X790580Y-46883706D01*
X19004979Y828561D02*
X18909741Y876180D01*
X18909741Y876180D02*
X18766884Y876180D01*
X18766884Y876180D02*
X18624027Y828561D01*
X18624027Y828561D02*
X18528789Y733323D01*
X18528789Y733323D02*
X18481170Y638085D01*
X18481170Y638085D02*
X18433551Y447609D01*
X18433551Y447609D02*
X18433551Y304752D01*
X18433551Y304752D02*
X18481170Y114276D01*
X18481170Y114276D02*
X18528789Y19038D01*
X18528789Y19038D02*
X18624027Y-76200D01*
X18624027Y-76200D02*
X18766884Y-123819D01*
X18766884Y-123819D02*
X18862122Y-123819D01*
X18862122Y-123819D02*
X19004979Y-76200D01*
X19004979Y-76200D02*
X19052598Y-28580D01*
X19052598Y-28580D02*
X19052598Y304752D01*
X19052598Y304752D02*
X18862122Y304752D01*
X19481170Y-123819D02*
X19481170Y876180D01*
X19481170Y876180D02*
X20052598Y-123819D01*
X20052598Y-123819D02*
X20052598Y876180D01*
X20528789Y-123819D02*
X20528789Y876180D01*
X20528789Y876180D02*
X20766884Y876180D01*
X20766884Y876180D02*
X20909741Y828561D01*
X20909741Y828561D02*
X21004979Y733323D01*
X21004979Y733323D02*
X21052598Y638085D01*
X21052598Y638085D02*
X21100217Y447609D01*
X21100217Y447609D02*
X21100217Y304752D01*
X21100217Y304752D02*
X21052598Y114276D01*
X21052598Y114276D02*
X21004979Y19038D01*
X21004979Y19038D02*
X20909741Y-76200D01*
X20909741Y-76200D02*
X20766884Y-123819D01*
X20766884Y-123819D02*
X20528789Y-123819D01*
X53543744Y-61027113D02*
X52543744Y-61027113D01*
X53543744Y-60550923D02*
X52543744Y-60550923D01*
X52543744Y-60550923D02*
X52543744Y-60312828D01*
X52543744Y-60312828D02*
X52591363Y-60169971D01*
X52591363Y-60169971D02*
X52686601Y-60074733D01*
X52686601Y-60074733D02*
X52781839Y-60027114D01*
X52781839Y-60027114D02*
X52972315Y-59979495D01*
X52972315Y-59979495D02*
X53115172Y-59979495D01*
X53115172Y-59979495D02*
X53305648Y-60027114D01*
X53305648Y-60027114D02*
X53400886Y-60074733D01*
X53400886Y-60074733D02*
X53496125Y-60169971D01*
X53496125Y-60169971D02*
X53543744Y-60312828D01*
X53543744Y-60312828D02*
X53543744Y-60550923D01*
X53448505Y-58979495D02*
X53496125Y-59027114D01*
X53496125Y-59027114D02*
X53543744Y-59169971D01*
X53543744Y-59169971D02*
X53543744Y-59265209D01*
X53543744Y-59265209D02*
X53496125Y-59408066D01*
X53496125Y-59408066D02*
X53400886Y-59503304D01*
X53400886Y-59503304D02*
X53305648Y-59550923D01*
X53305648Y-59550923D02*
X53115172Y-59598542D01*
X53115172Y-59598542D02*
X52972315Y-59598542D01*
X52972315Y-59598542D02*
X52781839Y-59550923D01*
X52781839Y-59550923D02*
X52686601Y-59503304D01*
X52686601Y-59503304D02*
X52591363Y-59408066D01*
X52591363Y-59408066D02*
X52543744Y-59265209D01*
X52543744Y-59265209D02*
X52543744Y-59169971D01*
X52543744Y-59169971D02*
X52591363Y-59027114D01*
X52591363Y-59027114D02*
X52638982Y-58979495D01*
X53638982Y-58789019D02*
X53638982Y-58027114D01*
X53543744Y-57217590D02*
X53067553Y-57550923D01*
X53543744Y-57789018D02*
X52543744Y-57789018D01*
X52543744Y-57789018D02*
X52543744Y-57408066D01*
X52543744Y-57408066D02*
X52591363Y-57312828D01*
X52591363Y-57312828D02*
X52638982Y-57265209D01*
X52638982Y-57265209D02*
X52734220Y-57217590D01*
X52734220Y-57217590D02*
X52877077Y-57217590D01*
X52877077Y-57217590D02*
X52972315Y-57265209D01*
X52972315Y-57265209D02*
X53019934Y-57312828D01*
X53019934Y-57312828D02*
X53067553Y-57408066D01*
X53067553Y-57408066D02*
X53067553Y-57789018D01*
X53019934Y-56455685D02*
X53019934Y-56789018D01*
X53543744Y-56789018D02*
X52543744Y-56789018D01*
X52543744Y-56789018D02*
X52543744Y-56312828D01*
X53543744Y-55408066D02*
X53543744Y-55979494D01*
X53543744Y-55693780D02*
X52543744Y-55693780D01*
X52543744Y-55693780D02*
X52686601Y-55789018D01*
X52686601Y-55789018D02*
X52781839Y-55884256D01*
X52781839Y-55884256D02*
X52829458Y-55979494D01*
X27455905Y-48968819D02*
X27455905Y-47968819D01*
X27455905Y-47968819D02*
X27694000Y-47968819D01*
X27694000Y-47968819D02*
X27836857Y-48016438D01*
X27836857Y-48016438D02*
X27932095Y-48111676D01*
X27932095Y-48111676D02*
X27979714Y-48206914D01*
X27979714Y-48206914D02*
X28027333Y-48397390D01*
X28027333Y-48397390D02*
X28027333Y-48540247D01*
X28027333Y-48540247D02*
X27979714Y-48730723D01*
X27979714Y-48730723D02*
X27932095Y-48825961D01*
X27932095Y-48825961D02*
X27836857Y-48921200D01*
X27836857Y-48921200D02*
X27694000Y-48968819D01*
X27694000Y-48968819D02*
X27455905Y-48968819D01*
X28598762Y-48397390D02*
X28503524Y-48349771D01*
X28503524Y-48349771D02*
X28455905Y-48302152D01*
X28455905Y-48302152D02*
X28408286Y-48206914D01*
X28408286Y-48206914D02*
X28408286Y-48159295D01*
X28408286Y-48159295D02*
X28455905Y-48064057D01*
X28455905Y-48064057D02*
X28503524Y-48016438D01*
X28503524Y-48016438D02*
X28598762Y-47968819D01*
X28598762Y-47968819D02*
X28789238Y-47968819D01*
X28789238Y-47968819D02*
X28884476Y-48016438D01*
X28884476Y-48016438D02*
X28932095Y-48064057D01*
X28932095Y-48064057D02*
X28979714Y-48159295D01*
X28979714Y-48159295D02*
X28979714Y-48206914D01*
X28979714Y-48206914D02*
X28932095Y-48302152D01*
X28932095Y-48302152D02*
X28884476Y-48349771D01*
X28884476Y-48349771D02*
X28789238Y-48397390D01*
X28789238Y-48397390D02*
X28598762Y-48397390D01*
X28598762Y-48397390D02*
X28503524Y-48445009D01*
X28503524Y-48445009D02*
X28455905Y-48492628D01*
X28455905Y-48492628D02*
X28408286Y-48587866D01*
X28408286Y-48587866D02*
X28408286Y-48778342D01*
X28408286Y-48778342D02*
X28455905Y-48873580D01*
X28455905Y-48873580D02*
X28503524Y-48921200D01*
X28503524Y-48921200D02*
X28598762Y-48968819D01*
X28598762Y-48968819D02*
X28789238Y-48968819D01*
X28789238Y-48968819D02*
X28884476Y-48921200D01*
X28884476Y-48921200D02*
X28932095Y-48873580D01*
X28932095Y-48873580D02*
X28979714Y-48778342D01*
X28979714Y-48778342D02*
X28979714Y-48587866D01*
X28979714Y-48587866D02*
X28932095Y-48492628D01*
X28932095Y-48492628D02*
X28884476Y-48445009D01*
X28884476Y-48445009D02*
X28789238Y-48397390D01*
X29745905Y-51254819D02*
X29745905Y-50254819D01*
X29745905Y-50254819D02*
X29984000Y-50254819D01*
X29984000Y-50254819D02*
X30126857Y-50302438D01*
X30126857Y-50302438D02*
X30222095Y-50397676D01*
X30222095Y-50397676D02*
X30269714Y-50492914D01*
X30269714Y-50492914D02*
X30317333Y-50683390D01*
X30317333Y-50683390D02*
X30317333Y-50826247D01*
X30317333Y-50826247D02*
X30269714Y-51016723D01*
X30269714Y-51016723D02*
X30222095Y-51111961D01*
X30222095Y-51111961D02*
X30126857Y-51207200D01*
X30126857Y-51207200D02*
X29984000Y-51254819D01*
X29984000Y-51254819D02*
X29745905Y-51254819D01*
X30650667Y-50254819D02*
X31317333Y-50254819D01*
X31317333Y-50254819D02*
X30888762Y-51254819D01*
X32793905Y-46682819D02*
X32793905Y-45682819D01*
X32793905Y-45682819D02*
X33032000Y-45682819D01*
X33032000Y-45682819D02*
X33174857Y-45730438D01*
X33174857Y-45730438D02*
X33270095Y-45825676D01*
X33270095Y-45825676D02*
X33317714Y-45920914D01*
X33317714Y-45920914D02*
X33365333Y-46111390D01*
X33365333Y-46111390D02*
X33365333Y-46254247D01*
X33365333Y-46254247D02*
X33317714Y-46444723D01*
X33317714Y-46444723D02*
X33270095Y-46539961D01*
X33270095Y-46539961D02*
X33174857Y-46635200D01*
X33174857Y-46635200D02*
X33032000Y-46682819D01*
X33032000Y-46682819D02*
X32793905Y-46682819D01*
X34222476Y-45682819D02*
X34032000Y-45682819D01*
X34032000Y-45682819D02*
X33936762Y-45730438D01*
X33936762Y-45730438D02*
X33889143Y-45778057D01*
X33889143Y-45778057D02*
X33793905Y-45920914D01*
X33793905Y-45920914D02*
X33746286Y-46111390D01*
X33746286Y-46111390D02*
X33746286Y-46492342D01*
X33746286Y-46492342D02*
X33793905Y-46587580D01*
X33793905Y-46587580D02*
X33841524Y-46635200D01*
X33841524Y-46635200D02*
X33936762Y-46682819D01*
X33936762Y-46682819D02*
X34127238Y-46682819D01*
X34127238Y-46682819D02*
X34222476Y-46635200D01*
X34222476Y-46635200D02*
X34270095Y-46587580D01*
X34270095Y-46587580D02*
X34317714Y-46492342D01*
X34317714Y-46492342D02*
X34317714Y-46254247D01*
X34317714Y-46254247D02*
X34270095Y-46159009D01*
X34270095Y-46159009D02*
X34222476Y-46111390D01*
X34222476Y-46111390D02*
X34127238Y-46063771D01*
X34127238Y-46063771D02*
X33936762Y-46063771D01*
X33936762Y-46063771D02*
X33841524Y-46111390D01*
X33841524Y-46111390D02*
X33793905Y-46159009D01*
X33793905Y-46159009D02*
X33746286Y-46254247D01*
X36095905Y-51254819D02*
X36095905Y-50254819D01*
X36095905Y-50254819D02*
X36334000Y-50254819D01*
X36334000Y-50254819D02*
X36476857Y-50302438D01*
X36476857Y-50302438D02*
X36572095Y-50397676D01*
X36572095Y-50397676D02*
X36619714Y-50492914D01*
X36619714Y-50492914D02*
X36667333Y-50683390D01*
X36667333Y-50683390D02*
X36667333Y-50826247D01*
X36667333Y-50826247D02*
X36619714Y-51016723D01*
X36619714Y-51016723D02*
X36572095Y-51111961D01*
X36572095Y-51111961D02*
X36476857Y-51207200D01*
X36476857Y-51207200D02*
X36334000Y-51254819D01*
X36334000Y-51254819D02*
X36095905Y-51254819D01*
X37572095Y-50254819D02*
X37095905Y-50254819D01*
X37095905Y-50254819D02*
X37048286Y-50731009D01*
X37048286Y-50731009D02*
X37095905Y-50683390D01*
X37095905Y-50683390D02*
X37191143Y-50635771D01*
X37191143Y-50635771D02*
X37429238Y-50635771D01*
X37429238Y-50635771D02*
X37524476Y-50683390D01*
X37524476Y-50683390D02*
X37572095Y-50731009D01*
X37572095Y-50731009D02*
X37619714Y-50826247D01*
X37619714Y-50826247D02*
X37619714Y-51064342D01*
X37619714Y-51064342D02*
X37572095Y-51159580D01*
X37572095Y-51159580D02*
X37524476Y-51207200D01*
X37524476Y-51207200D02*
X37429238Y-51254819D01*
X37429238Y-51254819D02*
X37191143Y-51254819D01*
X37191143Y-51254819D02*
X37095905Y-51207200D01*
X37095905Y-51207200D02*
X37048286Y-51159580D01*
X39143905Y-46682819D02*
X39143905Y-45682819D01*
X39143905Y-45682819D02*
X39382000Y-45682819D01*
X39382000Y-45682819D02*
X39524857Y-45730438D01*
X39524857Y-45730438D02*
X39620095Y-45825676D01*
X39620095Y-45825676D02*
X39667714Y-45920914D01*
X39667714Y-45920914D02*
X39715333Y-46111390D01*
X39715333Y-46111390D02*
X39715333Y-46254247D01*
X39715333Y-46254247D02*
X39667714Y-46444723D01*
X39667714Y-46444723D02*
X39620095Y-46539961D01*
X39620095Y-46539961D02*
X39524857Y-46635200D01*
X39524857Y-46635200D02*
X39382000Y-46682819D01*
X39382000Y-46682819D02*
X39143905Y-46682819D01*
X40572476Y-46016152D02*
X40572476Y-46682819D01*
X40334381Y-45635200D02*
X40096286Y-46349485D01*
X40096286Y-46349485D02*
X40715333Y-46349485D01*
X42445905Y-51254819D02*
X42445905Y-50254819D01*
X42445905Y-50254819D02*
X42684000Y-50254819D01*
X42684000Y-50254819D02*
X42826857Y-50302438D01*
X42826857Y-50302438D02*
X42922095Y-50397676D01*
X42922095Y-50397676D02*
X42969714Y-50492914D01*
X42969714Y-50492914D02*
X43017333Y-50683390D01*
X43017333Y-50683390D02*
X43017333Y-50826247D01*
X43017333Y-50826247D02*
X42969714Y-51016723D01*
X42969714Y-51016723D02*
X42922095Y-51111961D01*
X42922095Y-51111961D02*
X42826857Y-51207200D01*
X42826857Y-51207200D02*
X42684000Y-51254819D01*
X42684000Y-51254819D02*
X42445905Y-51254819D01*
X43350667Y-50254819D02*
X43969714Y-50254819D01*
X43969714Y-50254819D02*
X43636381Y-50635771D01*
X43636381Y-50635771D02*
X43779238Y-50635771D01*
X43779238Y-50635771D02*
X43874476Y-50683390D01*
X43874476Y-50683390D02*
X43922095Y-50731009D01*
X43922095Y-50731009D02*
X43969714Y-50826247D01*
X43969714Y-50826247D02*
X43969714Y-51064342D01*
X43969714Y-51064342D02*
X43922095Y-51159580D01*
X43922095Y-51159580D02*
X43874476Y-51207200D01*
X43874476Y-51207200D02*
X43779238Y-51254819D01*
X43779238Y-51254819D02*
X43493524Y-51254819D01*
X43493524Y-51254819D02*
X43398286Y-51207200D01*
X43398286Y-51207200D02*
X43350667Y-51159580D01*
X45493905Y-46682819D02*
X45493905Y-45682819D01*
X45493905Y-45682819D02*
X45732000Y-45682819D01*
X45732000Y-45682819D02*
X45874857Y-45730438D01*
X45874857Y-45730438D02*
X45970095Y-45825676D01*
X45970095Y-45825676D02*
X46017714Y-45920914D01*
X46017714Y-45920914D02*
X46065333Y-46111390D01*
X46065333Y-46111390D02*
X46065333Y-46254247D01*
X46065333Y-46254247D02*
X46017714Y-46444723D01*
X46017714Y-46444723D02*
X45970095Y-46539961D01*
X45970095Y-46539961D02*
X45874857Y-46635200D01*
X45874857Y-46635200D02*
X45732000Y-46682819D01*
X45732000Y-46682819D02*
X45493905Y-46682819D01*
X46446286Y-45778057D02*
X46493905Y-45730438D01*
X46493905Y-45730438D02*
X46589143Y-45682819D01*
X46589143Y-45682819D02*
X46827238Y-45682819D01*
X46827238Y-45682819D02*
X46922476Y-45730438D01*
X46922476Y-45730438D02*
X46970095Y-45778057D01*
X46970095Y-45778057D02*
X47017714Y-45873295D01*
X47017714Y-45873295D02*
X47017714Y-45968533D01*
X47017714Y-45968533D02*
X46970095Y-46111390D01*
X46970095Y-46111390D02*
X46398667Y-46682819D01*
X46398667Y-46682819D02*
X47017714Y-46682819D01*
X48795905Y-51254819D02*
X48795905Y-50254819D01*
X48795905Y-50254819D02*
X49034000Y-50254819D01*
X49034000Y-50254819D02*
X49176857Y-50302438D01*
X49176857Y-50302438D02*
X49272095Y-50397676D01*
X49272095Y-50397676D02*
X49319714Y-50492914D01*
X49319714Y-50492914D02*
X49367333Y-50683390D01*
X49367333Y-50683390D02*
X49367333Y-50826247D01*
X49367333Y-50826247D02*
X49319714Y-51016723D01*
X49319714Y-51016723D02*
X49272095Y-51111961D01*
X49272095Y-51111961D02*
X49176857Y-51207200D01*
X49176857Y-51207200D02*
X49034000Y-51254819D01*
X49034000Y-51254819D02*
X48795905Y-51254819D01*
X50319714Y-51254819D02*
X49748286Y-51254819D01*
X50034000Y-51254819D02*
X50034000Y-50254819D01*
X50034000Y-50254819D02*
X49938762Y-50397676D01*
X49938762Y-50397676D02*
X49843524Y-50492914D01*
X49843524Y-50492914D02*
X49748286Y-50540533D01*
X84196476Y-9169819D02*
X84196476Y-9884104D01*
X84196476Y-9884104D02*
X84148857Y-10026961D01*
X84148857Y-10026961D02*
X84053619Y-10122200D01*
X84053619Y-10122200D02*
X83910762Y-10169819D01*
X83910762Y-10169819D02*
X83815524Y-10169819D01*
X85196476Y-10169819D02*
X84625048Y-10169819D01*
X84910762Y-10169819D02*
X84910762Y-9169819D01*
X84910762Y-9169819D02*
X84815524Y-9312676D01*
X84815524Y-9312676D02*
X84720286Y-9407914D01*
X84720286Y-9407914D02*
X84625048Y-9455533D01*
X85577429Y-9265057D02*
X85625048Y-9217438D01*
X85625048Y-9217438D02*
X85720286Y-9169819D01*
X85720286Y-9169819D02*
X85958381Y-9169819D01*
X85958381Y-9169819D02*
X86053619Y-9217438D01*
X86053619Y-9217438D02*
X86101238Y-9265057D01*
X86101238Y-9265057D02*
X86148857Y-9360295D01*
X86148857Y-9360295D02*
X86148857Y-9455533D01*
X86148857Y-9455533D02*
X86101238Y-9598390D01*
X86101238Y-9598390D02*
X85529810Y-10169819D01*
X85529810Y-10169819D02*
X86148857Y-10169819D01*
X71079076Y-6757819D02*
X71079076Y-7472104D01*
X71079076Y-7472104D02*
X71031457Y-7614961D01*
X71031457Y-7614961D02*
X70936219Y-7710200D01*
X70936219Y-7710200D02*
X70793362Y-7757819D01*
X70793362Y-7757819D02*
X70698124Y-7757819D01*
X72079076Y-7757819D02*
X71507648Y-7757819D01*
X71793362Y-7757819D02*
X71793362Y-6757819D01*
X71793362Y-6757819D02*
X71698124Y-6900676D01*
X71698124Y-6900676D02*
X71602886Y-6995914D01*
X71602886Y-6995914D02*
X71507648Y-7043533D01*
X72412410Y-6757819D02*
X73079076Y-6757819D01*
X73079076Y-6757819D02*
X72650505Y-7757819D01*
X30275983Y-36701419D02*
X29942650Y-36225228D01*
X29704555Y-36701419D02*
X29704555Y-35701419D01*
X29704555Y-35701419D02*
X30085507Y-35701419D01*
X30085507Y-35701419D02*
X30180745Y-35749038D01*
X30180745Y-35749038D02*
X30228364Y-35796657D01*
X30228364Y-35796657D02*
X30275983Y-35891895D01*
X30275983Y-35891895D02*
X30275983Y-36034752D01*
X30275983Y-36034752D02*
X30228364Y-36129990D01*
X30228364Y-36129990D02*
X30180745Y-36177609D01*
X30180745Y-36177609D02*
X30085507Y-36225228D01*
X30085507Y-36225228D02*
X29704555Y-36225228D01*
X30752174Y-36701419D02*
X30942650Y-36701419D01*
X30942650Y-36701419D02*
X31037888Y-36653800D01*
X31037888Y-36653800D02*
X31085507Y-36606180D01*
X31085507Y-36606180D02*
X31180745Y-36463323D01*
X31180745Y-36463323D02*
X31228364Y-36272847D01*
X31228364Y-36272847D02*
X31228364Y-35891895D01*
X31228364Y-35891895D02*
X31180745Y-35796657D01*
X31180745Y-35796657D02*
X31133126Y-35749038D01*
X31133126Y-35749038D02*
X31037888Y-35701419D01*
X31037888Y-35701419D02*
X30847412Y-35701419D01*
X30847412Y-35701419D02*
X30752174Y-35749038D01*
X30752174Y-35749038D02*
X30704555Y-35796657D01*
X30704555Y-35796657D02*
X30656936Y-35891895D01*
X30656936Y-35891895D02*
X30656936Y-36129990D01*
X30656936Y-36129990D02*
X30704555Y-36225228D01*
X30704555Y-36225228D02*
X30752174Y-36272847D01*
X30752174Y-36272847D02*
X30847412Y-36320466D01*
X30847412Y-36320466D02*
X31037888Y-36320466D01*
X31037888Y-36320466D02*
X31133126Y-36272847D01*
X31133126Y-36272847D02*
X31180745Y-36225228D01*
X31180745Y-36225228D02*
X31228364Y-36129990D01*
X5000666Y-29172819D02*
X5000666Y-29887104D01*
X5000666Y-29887104D02*
X4953047Y-30029961D01*
X4953047Y-30029961D02*
X4857809Y-30125200D01*
X4857809Y-30125200D02*
X4714952Y-30172819D01*
X4714952Y-30172819D02*
X4619714Y-30172819D01*
X5429238Y-29268057D02*
X5476857Y-29220438D01*
X5476857Y-29220438D02*
X5572095Y-29172819D01*
X5572095Y-29172819D02*
X5810190Y-29172819D01*
X5810190Y-29172819D02*
X5905428Y-29220438D01*
X5905428Y-29220438D02*
X5953047Y-29268057D01*
X5953047Y-29268057D02*
X6000666Y-29363295D01*
X6000666Y-29363295D02*
X6000666Y-29458533D01*
X6000666Y-29458533D02*
X5953047Y-29601390D01*
X5953047Y-29601390D02*
X5381619Y-30172819D01*
X5381619Y-30172819D02*
X6000666Y-30172819D01*
X13128666Y-44844619D02*
X13128666Y-45558904D01*
X13128666Y-45558904D02*
X13081047Y-45701761D01*
X13081047Y-45701761D02*
X12985809Y-45797000D01*
X12985809Y-45797000D02*
X12842952Y-45844619D01*
X12842952Y-45844619D02*
X12747714Y-45844619D01*
X13509619Y-44844619D02*
X14176285Y-44844619D01*
X14176285Y-44844619D02*
X13747714Y-45844619D01*
X49325983Y-36701419D02*
X48992650Y-36225228D01*
X48754555Y-36701419D02*
X48754555Y-35701419D01*
X48754555Y-35701419D02*
X49135507Y-35701419D01*
X49135507Y-35701419D02*
X49230745Y-35749038D01*
X49230745Y-35749038D02*
X49278364Y-35796657D01*
X49278364Y-35796657D02*
X49325983Y-35891895D01*
X49325983Y-35891895D02*
X49325983Y-36034752D01*
X49325983Y-36034752D02*
X49278364Y-36129990D01*
X49278364Y-36129990D02*
X49230745Y-36177609D01*
X49230745Y-36177609D02*
X49135507Y-36225228D01*
X49135507Y-36225228D02*
X48754555Y-36225228D01*
X49659317Y-35701419D02*
X50278364Y-35701419D01*
X50278364Y-35701419D02*
X49945031Y-36082371D01*
X49945031Y-36082371D02*
X50087888Y-36082371D01*
X50087888Y-36082371D02*
X50183126Y-36129990D01*
X50183126Y-36129990D02*
X50230745Y-36177609D01*
X50230745Y-36177609D02*
X50278364Y-36272847D01*
X50278364Y-36272847D02*
X50278364Y-36510942D01*
X50278364Y-36510942D02*
X50230745Y-36606180D01*
X50230745Y-36606180D02*
X50183126Y-36653800D01*
X50183126Y-36653800D02*
X50087888Y-36701419D01*
X50087888Y-36701419D02*
X49802174Y-36701419D01*
X49802174Y-36701419D02*
X49706936Y-36653800D01*
X49706936Y-36653800D02*
X49659317Y-36606180D01*
X21796476Y-14440819D02*
X21796476Y-15155104D01*
X21796476Y-15155104D02*
X21748857Y-15297961D01*
X21748857Y-15297961D02*
X21653619Y-15393200D01*
X21653619Y-15393200D02*
X21510762Y-15440819D01*
X21510762Y-15440819D02*
X21415524Y-15440819D01*
X22796476Y-15440819D02*
X22225048Y-15440819D01*
X22510762Y-15440819D02*
X22510762Y-14440819D01*
X22510762Y-14440819D02*
X22415524Y-14583676D01*
X22415524Y-14583676D02*
X22320286Y-14678914D01*
X22320286Y-14678914D02*
X22225048Y-14726533D01*
X23748857Y-15440819D02*
X23177429Y-15440819D01*
X23463143Y-15440819D02*
X23463143Y-14440819D01*
X23463143Y-14440819D02*
X23367905Y-14583676D01*
X23367905Y-14583676D02*
X23272667Y-14678914D01*
X23272667Y-14678914D02*
X23177429Y-14726533D01*
X13128666Y-60514219D02*
X13128666Y-61228504D01*
X13128666Y-61228504D02*
X13081047Y-61371361D01*
X13081047Y-61371361D02*
X12985809Y-61466600D01*
X12985809Y-61466600D02*
X12842952Y-61514219D01*
X12842952Y-61514219D02*
X12747714Y-61514219D01*
X13747714Y-60942790D02*
X13652476Y-60895171D01*
X13652476Y-60895171D02*
X13604857Y-60847552D01*
X13604857Y-60847552D02*
X13557238Y-60752314D01*
X13557238Y-60752314D02*
X13557238Y-60704695D01*
X13557238Y-60704695D02*
X13604857Y-60609457D01*
X13604857Y-60609457D02*
X13652476Y-60561838D01*
X13652476Y-60561838D02*
X13747714Y-60514219D01*
X13747714Y-60514219D02*
X13938190Y-60514219D01*
X13938190Y-60514219D02*
X14033428Y-60561838D01*
X14033428Y-60561838D02*
X14081047Y-60609457D01*
X14081047Y-60609457D02*
X14128666Y-60704695D01*
X14128666Y-60704695D02*
X14128666Y-60752314D01*
X14128666Y-60752314D02*
X14081047Y-60847552D01*
X14081047Y-60847552D02*
X14033428Y-60895171D01*
X14033428Y-60895171D02*
X13938190Y-60942790D01*
X13938190Y-60942790D02*
X13747714Y-60942790D01*
X13747714Y-60942790D02*
X13652476Y-60990409D01*
X13652476Y-60990409D02*
X13604857Y-61038028D01*
X13604857Y-61038028D02*
X13557238Y-61133266D01*
X13557238Y-61133266D02*
X13557238Y-61323742D01*
X13557238Y-61323742D02*
X13604857Y-61418980D01*
X13604857Y-61418980D02*
X13652476Y-61466600D01*
X13652476Y-61466600D02*
X13747714Y-61514219D01*
X13747714Y-61514219D02*
X13938190Y-61514219D01*
X13938190Y-61514219D02*
X14033428Y-61466600D01*
X14033428Y-61466600D02*
X14081047Y-61418980D01*
X14081047Y-61418980D02*
X14128666Y-61323742D01*
X14128666Y-61323742D02*
X14128666Y-61133266D01*
X14128666Y-61133266D02*
X14081047Y-61038028D01*
X14081047Y-61038028D02*
X14033428Y-60990409D01*
X14033428Y-60990409D02*
X13938190Y-60942790D01*
X13128666Y-29172819D02*
X13128666Y-29887104D01*
X13128666Y-29887104D02*
X13081047Y-30029961D01*
X13081047Y-30029961D02*
X12985809Y-30125200D01*
X12985809Y-30125200D02*
X12842952Y-30172819D01*
X12842952Y-30172819D02*
X12747714Y-30172819D01*
X14033428Y-29172819D02*
X13842952Y-29172819D01*
X13842952Y-29172819D02*
X13747714Y-29220438D01*
X13747714Y-29220438D02*
X13700095Y-29268057D01*
X13700095Y-29268057D02*
X13604857Y-29410914D01*
X13604857Y-29410914D02*
X13557238Y-29601390D01*
X13557238Y-29601390D02*
X13557238Y-29982342D01*
X13557238Y-29982342D02*
X13604857Y-30077580D01*
X13604857Y-30077580D02*
X13652476Y-30125200D01*
X13652476Y-30125200D02*
X13747714Y-30172819D01*
X13747714Y-30172819D02*
X13938190Y-30172819D01*
X13938190Y-30172819D02*
X14033428Y-30125200D01*
X14033428Y-30125200D02*
X14081047Y-30077580D01*
X14081047Y-30077580D02*
X14128666Y-29982342D01*
X14128666Y-29982342D02*
X14128666Y-29744247D01*
X14128666Y-29744247D02*
X14081047Y-29649009D01*
X14081047Y-29649009D02*
X14033428Y-29601390D01*
X14033428Y-29601390D02*
X13938190Y-29553771D01*
X13938190Y-29553771D02*
X13747714Y-29553771D01*
X13747714Y-29553771D02*
X13652476Y-29601390D01*
X13652476Y-29601390D02*
X13604857Y-29649009D01*
X13604857Y-29649009D02*
X13557238Y-29744247D01*
X5103808Y-13678819D02*
X5103808Y-14393104D01*
X5103808Y-14393104D02*
X5056189Y-14535961D01*
X5056189Y-14535961D02*
X4960951Y-14631200D01*
X4960951Y-14631200D02*
X4818094Y-14678819D01*
X4818094Y-14678819D02*
X4722856Y-14678819D01*
X6103808Y-14678819D02*
X5532380Y-14678819D01*
X5818094Y-14678819D02*
X5818094Y-13678819D01*
X5818094Y-13678819D02*
X5722856Y-13821676D01*
X5722856Y-13821676D02*
X5627618Y-13916914D01*
X5627618Y-13916914D02*
X5532380Y-13964533D01*
X5000666Y-60668819D02*
X5000666Y-61383104D01*
X5000666Y-61383104D02*
X4953047Y-61525961D01*
X4953047Y-61525961D02*
X4857809Y-61621200D01*
X4857809Y-61621200D02*
X4714952Y-61668819D01*
X4714952Y-61668819D02*
X4619714Y-61668819D01*
X5905428Y-61002152D02*
X5905428Y-61668819D01*
X5667333Y-60621200D02*
X5429238Y-61335485D01*
X5429238Y-61335485D02*
X6048285Y-61335485D01*
X42975983Y-36701419D02*
X42642650Y-36225228D01*
X42404555Y-36701419D02*
X42404555Y-35701419D01*
X42404555Y-35701419D02*
X42785507Y-35701419D01*
X42785507Y-35701419D02*
X42880745Y-35749038D01*
X42880745Y-35749038D02*
X42928364Y-35796657D01*
X42928364Y-35796657D02*
X42975983Y-35891895D01*
X42975983Y-35891895D02*
X42975983Y-36034752D01*
X42975983Y-36034752D02*
X42928364Y-36129990D01*
X42928364Y-36129990D02*
X42880745Y-36177609D01*
X42880745Y-36177609D02*
X42785507Y-36225228D01*
X42785507Y-36225228D02*
X42404555Y-36225228D01*
X43880745Y-35701419D02*
X43404555Y-35701419D01*
X43404555Y-35701419D02*
X43356936Y-36177609D01*
X43356936Y-36177609D02*
X43404555Y-36129990D01*
X43404555Y-36129990D02*
X43499793Y-36082371D01*
X43499793Y-36082371D02*
X43737888Y-36082371D01*
X43737888Y-36082371D02*
X43833126Y-36129990D01*
X43833126Y-36129990D02*
X43880745Y-36177609D01*
X43880745Y-36177609D02*
X43928364Y-36272847D01*
X43928364Y-36272847D02*
X43928364Y-36510942D01*
X43928364Y-36510942D02*
X43880745Y-36606180D01*
X43880745Y-36606180D02*
X43833126Y-36653800D01*
X43833126Y-36653800D02*
X43737888Y-36701419D01*
X43737888Y-36701419D02*
X43499793Y-36701419D01*
X43499793Y-36701419D02*
X43404555Y-36653800D01*
X43404555Y-36653800D02*
X43356936Y-36606180D01*
X8387476Y-6757819D02*
X8387476Y-7472104D01*
X8387476Y-7472104D02*
X8339857Y-7614961D01*
X8339857Y-7614961D02*
X8244619Y-7710200D01*
X8244619Y-7710200D02*
X8101762Y-7757819D01*
X8101762Y-7757819D02*
X8006524Y-7757819D01*
X9387476Y-7757819D02*
X8816048Y-7757819D01*
X9101762Y-7757819D02*
X9101762Y-6757819D01*
X9101762Y-6757819D02*
X9006524Y-6900676D01*
X9006524Y-6900676D02*
X8911286Y-6995914D01*
X8911286Y-6995914D02*
X8816048Y-7043533D01*
X9720810Y-6757819D02*
X10339857Y-6757819D01*
X10339857Y-6757819D02*
X10006524Y-7138771D01*
X10006524Y-7138771D02*
X10149381Y-7138771D01*
X10149381Y-7138771D02*
X10244619Y-7186390D01*
X10244619Y-7186390D02*
X10292238Y-7234009D01*
X10292238Y-7234009D02*
X10339857Y-7329247D01*
X10339857Y-7329247D02*
X10339857Y-7567342D01*
X10339857Y-7567342D02*
X10292238Y-7662580D01*
X10292238Y-7662580D02*
X10244619Y-7710200D01*
X10244619Y-7710200D02*
X10149381Y-7757819D01*
X10149381Y-7757819D02*
X9863667Y-7757819D01*
X9863667Y-7757819D02*
X9768429Y-7710200D01*
X9768429Y-7710200D02*
X9720810Y-7662580D01*
X22526666Y-62192819D02*
X22526666Y-62907104D01*
X22526666Y-62907104D02*
X22479047Y-63049961D01*
X22479047Y-63049961D02*
X22383809Y-63145200D01*
X22383809Y-63145200D02*
X22240952Y-63192819D01*
X22240952Y-63192819D02*
X22145714Y-63192819D01*
X23050476Y-63192819D02*
X23240952Y-63192819D01*
X23240952Y-63192819D02*
X23336190Y-63145200D01*
X23336190Y-63145200D02*
X23383809Y-63097580D01*
X23383809Y-63097580D02*
X23479047Y-62954723D01*
X23479047Y-62954723D02*
X23526666Y-62764247D01*
X23526666Y-62764247D02*
X23526666Y-62383295D01*
X23526666Y-62383295D02*
X23479047Y-62288057D01*
X23479047Y-62288057D02*
X23431428Y-62240438D01*
X23431428Y-62240438D02*
X23336190Y-62192819D01*
X23336190Y-62192819D02*
X23145714Y-62192819D01*
X23145714Y-62192819D02*
X23050476Y-62240438D01*
X23050476Y-62240438D02*
X23002857Y-62288057D01*
X23002857Y-62288057D02*
X22955238Y-62383295D01*
X22955238Y-62383295D02*
X22955238Y-62621390D01*
X22955238Y-62621390D02*
X23002857Y-62716628D01*
X23002857Y-62716628D02*
X23050476Y-62764247D01*
X23050476Y-62764247D02*
X23145714Y-62811866D01*
X23145714Y-62811866D02*
X23336190Y-62811866D01*
X23336190Y-62811866D02*
X23431428Y-62764247D01*
X23431428Y-62764247D02*
X23479047Y-62716628D01*
X23479047Y-62716628D02*
X23526666Y-62621390D01*
X55407276Y-6757819D02*
X55407276Y-7472104D01*
X55407276Y-7472104D02*
X55359657Y-7614961D01*
X55359657Y-7614961D02*
X55264419Y-7710200D01*
X55264419Y-7710200D02*
X55121562Y-7757819D01*
X55121562Y-7757819D02*
X55026324Y-7757819D01*
X56407276Y-7757819D02*
X55835848Y-7757819D01*
X56121562Y-7757819D02*
X56121562Y-6757819D01*
X56121562Y-6757819D02*
X56026324Y-6900676D01*
X56026324Y-6900676D02*
X55931086Y-6995914D01*
X55931086Y-6995914D02*
X55835848Y-7043533D01*
X57264419Y-6757819D02*
X57073943Y-6757819D01*
X57073943Y-6757819D02*
X56978705Y-6805438D01*
X56978705Y-6805438D02*
X56931086Y-6853057D01*
X56931086Y-6853057D02*
X56835848Y-6995914D01*
X56835848Y-6995914D02*
X56788229Y-7186390D01*
X56788229Y-7186390D02*
X56788229Y-7567342D01*
X56788229Y-7567342D02*
X56835848Y-7662580D01*
X56835848Y-7662580D02*
X56883467Y-7710200D01*
X56883467Y-7710200D02*
X56978705Y-7757819D01*
X56978705Y-7757819D02*
X57169181Y-7757819D01*
X57169181Y-7757819D02*
X57264419Y-7710200D01*
X57264419Y-7710200D02*
X57312038Y-7662580D01*
X57312038Y-7662580D02*
X57359657Y-7567342D01*
X57359657Y-7567342D02*
X57359657Y-7329247D01*
X57359657Y-7329247D02*
X57312038Y-7234009D01*
X57312038Y-7234009D02*
X57264419Y-7186390D01*
X57264419Y-7186390D02*
X57169181Y-7138771D01*
X57169181Y-7138771D02*
X56978705Y-7138771D01*
X56978705Y-7138771D02*
X56883467Y-7186390D01*
X56883467Y-7186390D02*
X56835848Y-7234009D01*
X56835848Y-7234009D02*
X56788229Y-7329247D01*
X36620665Y-36701419D02*
X36287332Y-36225228D01*
X36049237Y-36701419D02*
X36049237Y-35701419D01*
X36049237Y-35701419D02*
X36430189Y-35701419D01*
X36430189Y-35701419D02*
X36525427Y-35749038D01*
X36525427Y-35749038D02*
X36573046Y-35796657D01*
X36573046Y-35796657D02*
X36620665Y-35891895D01*
X36620665Y-35891895D02*
X36620665Y-36034752D01*
X36620665Y-36034752D02*
X36573046Y-36129990D01*
X36573046Y-36129990D02*
X36525427Y-36177609D01*
X36525427Y-36177609D02*
X36430189Y-36225228D01*
X36430189Y-36225228D02*
X36049237Y-36225228D01*
X36953999Y-35701419D02*
X37620665Y-35701419D01*
X37620665Y-35701419D02*
X37192094Y-36701419D01*
X59262476Y-13403819D02*
X59262476Y-14118104D01*
X59262476Y-14118104D02*
X59214857Y-14260961D01*
X59214857Y-14260961D02*
X59119619Y-14356200D01*
X59119619Y-14356200D02*
X58976762Y-14403819D01*
X58976762Y-14403819D02*
X58881524Y-14403819D01*
X60262476Y-14403819D02*
X59691048Y-14403819D01*
X59976762Y-14403819D02*
X59976762Y-13403819D01*
X59976762Y-13403819D02*
X59881524Y-13546676D01*
X59881524Y-13546676D02*
X59786286Y-13641914D01*
X59786286Y-13641914D02*
X59691048Y-13689533D01*
X60833905Y-13832390D02*
X60738667Y-13784771D01*
X60738667Y-13784771D02*
X60691048Y-13737152D01*
X60691048Y-13737152D02*
X60643429Y-13641914D01*
X60643429Y-13641914D02*
X60643429Y-13594295D01*
X60643429Y-13594295D02*
X60691048Y-13499057D01*
X60691048Y-13499057D02*
X60738667Y-13451438D01*
X60738667Y-13451438D02*
X60833905Y-13403819D01*
X60833905Y-13403819D02*
X61024381Y-13403819D01*
X61024381Y-13403819D02*
X61119619Y-13451438D01*
X61119619Y-13451438D02*
X61167238Y-13499057D01*
X61167238Y-13499057D02*
X61214857Y-13594295D01*
X61214857Y-13594295D02*
X61214857Y-13641914D01*
X61214857Y-13641914D02*
X61167238Y-13737152D01*
X61167238Y-13737152D02*
X61119619Y-13784771D01*
X61119619Y-13784771D02*
X61024381Y-13832390D01*
X61024381Y-13832390D02*
X60833905Y-13832390D01*
X60833905Y-13832390D02*
X60738667Y-13880009D01*
X60738667Y-13880009D02*
X60691048Y-13927628D01*
X60691048Y-13927628D02*
X60643429Y-14022866D01*
X60643429Y-14022866D02*
X60643429Y-14213342D01*
X60643429Y-14213342D02*
X60691048Y-14308580D01*
X60691048Y-14308580D02*
X60738667Y-14356200D01*
X60738667Y-14356200D02*
X60833905Y-14403819D01*
X60833905Y-14403819D02*
X61024381Y-14403819D01*
X61024381Y-14403819D02*
X61119619Y-14356200D01*
X61119619Y-14356200D02*
X61167238Y-14308580D01*
X61167238Y-14308580D02*
X61214857Y-14213342D01*
X61214857Y-14213342D02*
X61214857Y-14022866D01*
X61214857Y-14022866D02*
X61167238Y-13927628D01*
X61167238Y-13927628D02*
X61119619Y-13880009D01*
X61119619Y-13880009D02*
X61024381Y-13832390D01*
X43183276Y-63894619D02*
X43183276Y-64608904D01*
X43183276Y-64608904D02*
X43135657Y-64751761D01*
X43135657Y-64751761D02*
X43040419Y-64847000D01*
X43040419Y-64847000D02*
X42897562Y-64894619D01*
X42897562Y-64894619D02*
X42802324Y-64894619D01*
X43611848Y-63989857D02*
X43659467Y-63942238D01*
X43659467Y-63942238D02*
X43754705Y-63894619D01*
X43754705Y-63894619D02*
X43992800Y-63894619D01*
X43992800Y-63894619D02*
X44088038Y-63942238D01*
X44088038Y-63942238D02*
X44135657Y-63989857D01*
X44135657Y-63989857D02*
X44183276Y-64085095D01*
X44183276Y-64085095D02*
X44183276Y-64180333D01*
X44183276Y-64180333D02*
X44135657Y-64323190D01*
X44135657Y-64323190D02*
X43564229Y-64894619D01*
X43564229Y-64894619D02*
X44183276Y-64894619D01*
X44564229Y-63989857D02*
X44611848Y-63942238D01*
X44611848Y-63942238D02*
X44707086Y-63894619D01*
X44707086Y-63894619D02*
X44945181Y-63894619D01*
X44945181Y-63894619D02*
X45040419Y-63942238D01*
X45040419Y-63942238D02*
X45088038Y-63989857D01*
X45088038Y-63989857D02*
X45135657Y-64085095D01*
X45135657Y-64085095D02*
X45135657Y-64180333D01*
X45135657Y-64180333D02*
X45088038Y-64323190D01*
X45088038Y-64323190D02*
X44516610Y-64894619D01*
X44516610Y-64894619D02*
X45135657Y-64894619D01*
X24063676Y-6757819D02*
X24063676Y-7472104D01*
X24063676Y-7472104D02*
X24016057Y-7614961D01*
X24016057Y-7614961D02*
X23920819Y-7710200D01*
X23920819Y-7710200D02*
X23777962Y-7757819D01*
X23777962Y-7757819D02*
X23682724Y-7757819D01*
X25063676Y-7757819D02*
X24492248Y-7757819D01*
X24777962Y-7757819D02*
X24777962Y-6757819D01*
X24777962Y-6757819D02*
X24682724Y-6900676D01*
X24682724Y-6900676D02*
X24587486Y-6995914D01*
X24587486Y-6995914D02*
X24492248Y-7043533D01*
X25920819Y-7091152D02*
X25920819Y-7757819D01*
X25682724Y-6710200D02*
X25444629Y-7424485D01*
X25444629Y-7424485D02*
X26063676Y-7424485D01*
X32769276Y-63894619D02*
X32769276Y-64608904D01*
X32769276Y-64608904D02*
X32721657Y-64751761D01*
X32721657Y-64751761D02*
X32626419Y-64847000D01*
X32626419Y-64847000D02*
X32483562Y-64894619D01*
X32483562Y-64894619D02*
X32388324Y-64894619D01*
X33769276Y-64894619D02*
X33197848Y-64894619D01*
X33483562Y-64894619D02*
X33483562Y-63894619D01*
X33483562Y-63894619D02*
X33388324Y-64037476D01*
X33388324Y-64037476D02*
X33293086Y-64132714D01*
X33293086Y-64132714D02*
X33197848Y-64180333D01*
X34388324Y-63894619D02*
X34483562Y-63894619D01*
X34483562Y-63894619D02*
X34578800Y-63942238D01*
X34578800Y-63942238D02*
X34626419Y-63989857D01*
X34626419Y-63989857D02*
X34674038Y-64085095D01*
X34674038Y-64085095D02*
X34721657Y-64275571D01*
X34721657Y-64275571D02*
X34721657Y-64513666D01*
X34721657Y-64513666D02*
X34674038Y-64704142D01*
X34674038Y-64704142D02*
X34626419Y-64799380D01*
X34626419Y-64799380D02*
X34578800Y-64847000D01*
X34578800Y-64847000D02*
X34483562Y-64894619D01*
X34483562Y-64894619D02*
X34388324Y-64894619D01*
X34388324Y-64894619D02*
X34293086Y-64847000D01*
X34293086Y-64847000D02*
X34245467Y-64799380D01*
X34245467Y-64799380D02*
X34197848Y-64704142D01*
X34197848Y-64704142D02*
X34150229Y-64513666D01*
X34150229Y-64513666D02*
X34150229Y-64275571D01*
X34150229Y-64275571D02*
X34197848Y-64085095D01*
X34197848Y-64085095D02*
X34245467Y-63989857D01*
X34245467Y-63989857D02*
X34293086Y-63942238D01*
X34293086Y-63942238D02*
X34388324Y-63894619D01*
X39800983Y-36701419D02*
X39467650Y-36225228D01*
X39229555Y-36701419D02*
X39229555Y-35701419D01*
X39229555Y-35701419D02*
X39610507Y-35701419D01*
X39610507Y-35701419D02*
X39705745Y-35749038D01*
X39705745Y-35749038D02*
X39753364Y-35796657D01*
X39753364Y-35796657D02*
X39800983Y-35891895D01*
X39800983Y-35891895D02*
X39800983Y-36034752D01*
X39800983Y-36034752D02*
X39753364Y-36129990D01*
X39753364Y-36129990D02*
X39705745Y-36177609D01*
X39705745Y-36177609D02*
X39610507Y-36225228D01*
X39610507Y-36225228D02*
X39229555Y-36225228D01*
X40658126Y-35701419D02*
X40467650Y-35701419D01*
X40467650Y-35701419D02*
X40372412Y-35749038D01*
X40372412Y-35749038D02*
X40324793Y-35796657D01*
X40324793Y-35796657D02*
X40229555Y-35939514D01*
X40229555Y-35939514D02*
X40181936Y-36129990D01*
X40181936Y-36129990D02*
X40181936Y-36510942D01*
X40181936Y-36510942D02*
X40229555Y-36606180D01*
X40229555Y-36606180D02*
X40277174Y-36653800D01*
X40277174Y-36653800D02*
X40372412Y-36701419D01*
X40372412Y-36701419D02*
X40562888Y-36701419D01*
X40562888Y-36701419D02*
X40658126Y-36653800D01*
X40658126Y-36653800D02*
X40705745Y-36606180D01*
X40705745Y-36606180D02*
X40753364Y-36510942D01*
X40753364Y-36510942D02*
X40753364Y-36272847D01*
X40753364Y-36272847D02*
X40705745Y-36177609D01*
X40705745Y-36177609D02*
X40658126Y-36129990D01*
X40658126Y-36129990D02*
X40562888Y-36082371D01*
X40562888Y-36082371D02*
X40372412Y-36082371D01*
X40372412Y-36082371D02*
X40277174Y-36129990D01*
X40277174Y-36129990D02*
X40229555Y-36177609D01*
X40229555Y-36177609D02*
X40181936Y-36272847D01*
X59262476Y-60421419D02*
X59262476Y-61135704D01*
X59262476Y-61135704D02*
X59214857Y-61278561D01*
X59214857Y-61278561D02*
X59119619Y-61373800D01*
X59119619Y-61373800D02*
X58976762Y-61421419D01*
X58976762Y-61421419D02*
X58881524Y-61421419D01*
X59691048Y-60516657D02*
X59738667Y-60469038D01*
X59738667Y-60469038D02*
X59833905Y-60421419D01*
X59833905Y-60421419D02*
X60072000Y-60421419D01*
X60072000Y-60421419D02*
X60167238Y-60469038D01*
X60167238Y-60469038D02*
X60214857Y-60516657D01*
X60214857Y-60516657D02*
X60262476Y-60611895D01*
X60262476Y-60611895D02*
X60262476Y-60707133D01*
X60262476Y-60707133D02*
X60214857Y-60849990D01*
X60214857Y-60849990D02*
X59643429Y-61421419D01*
X59643429Y-61421419D02*
X60262476Y-61421419D01*
X61214857Y-61421419D02*
X60643429Y-61421419D01*
X60929143Y-61421419D02*
X60929143Y-60421419D01*
X60929143Y-60421419D02*
X60833905Y-60564276D01*
X60833905Y-60564276D02*
X60738667Y-60659514D01*
X60738667Y-60659514D02*
X60643429Y-60707133D01*
X33418999Y-36701419D02*
X33085666Y-36225228D01*
X32847571Y-36701419D02*
X32847571Y-35701419D01*
X32847571Y-35701419D02*
X33228523Y-35701419D01*
X33228523Y-35701419D02*
X33323761Y-35749038D01*
X33323761Y-35749038D02*
X33371380Y-35796657D01*
X33371380Y-35796657D02*
X33418999Y-35891895D01*
X33418999Y-35891895D02*
X33418999Y-36034752D01*
X33418999Y-36034752D02*
X33371380Y-36129990D01*
X33371380Y-36129990D02*
X33323761Y-36177609D01*
X33323761Y-36177609D02*
X33228523Y-36225228D01*
X33228523Y-36225228D02*
X32847571Y-36225228D01*
X33990428Y-36129990D02*
X33895190Y-36082371D01*
X33895190Y-36082371D02*
X33847571Y-36034752D01*
X33847571Y-36034752D02*
X33799952Y-35939514D01*
X33799952Y-35939514D02*
X33799952Y-35891895D01*
X33799952Y-35891895D02*
X33847571Y-35796657D01*
X33847571Y-35796657D02*
X33895190Y-35749038D01*
X33895190Y-35749038D02*
X33990428Y-35701419D01*
X33990428Y-35701419D02*
X34180904Y-35701419D01*
X34180904Y-35701419D02*
X34276142Y-35749038D01*
X34276142Y-35749038D02*
X34323761Y-35796657D01*
X34323761Y-35796657D02*
X34371380Y-35891895D01*
X34371380Y-35891895D02*
X34371380Y-35939514D01*
X34371380Y-35939514D02*
X34323761Y-36034752D01*
X34323761Y-36034752D02*
X34276142Y-36082371D01*
X34276142Y-36082371D02*
X34180904Y-36129990D01*
X34180904Y-36129990D02*
X33990428Y-36129990D01*
X33990428Y-36129990D02*
X33895190Y-36177609D01*
X33895190Y-36177609D02*
X33847571Y-36225228D01*
X33847571Y-36225228D02*
X33799952Y-36320466D01*
X33799952Y-36320466D02*
X33799952Y-36510942D01*
X33799952Y-36510942D02*
X33847571Y-36606180D01*
X33847571Y-36606180D02*
X33895190Y-36653800D01*
X33895190Y-36653800D02*
X33990428Y-36701419D01*
X33990428Y-36701419D02*
X34180904Y-36701419D01*
X34180904Y-36701419D02*
X34276142Y-36653800D01*
X34276142Y-36653800D02*
X34323761Y-36606180D01*
X34323761Y-36606180D02*
X34371380Y-36510942D01*
X34371380Y-36510942D02*
X34371380Y-36320466D01*
X34371380Y-36320466D02*
X34323761Y-36225228D01*
X34323761Y-36225228D02*
X34276142Y-36177609D01*
X34276142Y-36177609D02*
X34180904Y-36129990D01*
X39735476Y-6757819D02*
X39735476Y-7472104D01*
X39735476Y-7472104D02*
X39687857Y-7614961D01*
X39687857Y-7614961D02*
X39592619Y-7710200D01*
X39592619Y-7710200D02*
X39449762Y-7757819D01*
X39449762Y-7757819D02*
X39354524Y-7757819D01*
X40735476Y-7757819D02*
X40164048Y-7757819D01*
X40449762Y-7757819D02*
X40449762Y-6757819D01*
X40449762Y-6757819D02*
X40354524Y-6900676D01*
X40354524Y-6900676D02*
X40259286Y-6995914D01*
X40259286Y-6995914D02*
X40164048Y-7043533D01*
X41640238Y-6757819D02*
X41164048Y-6757819D01*
X41164048Y-6757819D02*
X41116429Y-7234009D01*
X41116429Y-7234009D02*
X41164048Y-7186390D01*
X41164048Y-7186390D02*
X41259286Y-7138771D01*
X41259286Y-7138771D02*
X41497381Y-7138771D01*
X41497381Y-7138771D02*
X41592619Y-7186390D01*
X41592619Y-7186390D02*
X41640238Y-7234009D01*
X41640238Y-7234009D02*
X41687857Y-7329247D01*
X41687857Y-7329247D02*
X41687857Y-7567342D01*
X41687857Y-7567342D02*
X41640238Y-7662580D01*
X41640238Y-7662580D02*
X41592619Y-7710200D01*
X41592619Y-7710200D02*
X41497381Y-7757819D01*
X41497381Y-7757819D02*
X41259286Y-7757819D01*
X41259286Y-7757819D02*
X41164048Y-7710200D01*
X41164048Y-7710200D02*
X41116429Y-7662580D01*
X5000666Y-44920819D02*
X5000666Y-45635104D01*
X5000666Y-45635104D02*
X4953047Y-45777961D01*
X4953047Y-45777961D02*
X4857809Y-45873200D01*
X4857809Y-45873200D02*
X4714952Y-45920819D01*
X4714952Y-45920819D02*
X4619714Y-45920819D01*
X5381619Y-44920819D02*
X6000666Y-44920819D01*
X6000666Y-44920819D02*
X5667333Y-45301771D01*
X5667333Y-45301771D02*
X5810190Y-45301771D01*
X5810190Y-45301771D02*
X5905428Y-45349390D01*
X5905428Y-45349390D02*
X5953047Y-45397009D01*
X5953047Y-45397009D02*
X6000666Y-45492247D01*
X6000666Y-45492247D02*
X6000666Y-45730342D01*
X6000666Y-45730342D02*
X5953047Y-45825580D01*
X5953047Y-45825580D02*
X5905428Y-45873200D01*
X5905428Y-45873200D02*
X5810190Y-45920819D01*
X5810190Y-45920819D02*
X5524476Y-45920819D01*
X5524476Y-45920819D02*
X5429238Y-45873200D01*
X5429238Y-45873200D02*
X5381619Y-45825580D01*
X46150983Y-36701419D02*
X45817650Y-36225228D01*
X45579555Y-36701419D02*
X45579555Y-35701419D01*
X45579555Y-35701419D02*
X45960507Y-35701419D01*
X45960507Y-35701419D02*
X46055745Y-35749038D01*
X46055745Y-35749038D02*
X46103364Y-35796657D01*
X46103364Y-35796657D02*
X46150983Y-35891895D01*
X46150983Y-35891895D02*
X46150983Y-36034752D01*
X46150983Y-36034752D02*
X46103364Y-36129990D01*
X46103364Y-36129990D02*
X46055745Y-36177609D01*
X46055745Y-36177609D02*
X45960507Y-36225228D01*
X45960507Y-36225228D02*
X45579555Y-36225228D01*
X47008126Y-36034752D02*
X47008126Y-36701419D01*
X46770031Y-35653800D02*
X46531936Y-36368085D01*
X46531936Y-36368085D02*
X47150983Y-36368085D01*
X59262476Y-44751819D02*
X59262476Y-45466104D01*
X59262476Y-45466104D02*
X59214857Y-45608961D01*
X59214857Y-45608961D02*
X59119619Y-45704200D01*
X59119619Y-45704200D02*
X58976762Y-45751819D01*
X58976762Y-45751819D02*
X58881524Y-45751819D01*
X59691048Y-44847057D02*
X59738667Y-44799438D01*
X59738667Y-44799438D02*
X59833905Y-44751819D01*
X59833905Y-44751819D02*
X60072000Y-44751819D01*
X60072000Y-44751819D02*
X60167238Y-44799438D01*
X60167238Y-44799438D02*
X60214857Y-44847057D01*
X60214857Y-44847057D02*
X60262476Y-44942295D01*
X60262476Y-44942295D02*
X60262476Y-45037533D01*
X60262476Y-45037533D02*
X60214857Y-45180390D01*
X60214857Y-45180390D02*
X59643429Y-45751819D01*
X59643429Y-45751819D02*
X60262476Y-45751819D01*
X60881524Y-44751819D02*
X60976762Y-44751819D01*
X60976762Y-44751819D02*
X61072000Y-44799438D01*
X61072000Y-44799438D02*
X61119619Y-44847057D01*
X61119619Y-44847057D02*
X61167238Y-44942295D01*
X61167238Y-44942295D02*
X61214857Y-45132771D01*
X61214857Y-45132771D02*
X61214857Y-45370866D01*
X61214857Y-45370866D02*
X61167238Y-45561342D01*
X61167238Y-45561342D02*
X61119619Y-45656580D01*
X61119619Y-45656580D02*
X61072000Y-45704200D01*
X61072000Y-45704200D02*
X60976762Y-45751819D01*
X60976762Y-45751819D02*
X60881524Y-45751819D01*
X60881524Y-45751819D02*
X60786286Y-45704200D01*
X60786286Y-45704200D02*
X60738667Y-45656580D01*
X60738667Y-45656580D02*
X60691048Y-45561342D01*
X60691048Y-45561342D02*
X60643429Y-45370866D01*
X60643429Y-45370866D02*
X60643429Y-45132771D01*
X60643429Y-45132771D02*
X60691048Y-44942295D01*
X60691048Y-44942295D02*
X60738667Y-44847057D01*
X60738667Y-44847057D02*
X60786286Y-44799438D01*
X60786286Y-44799438D02*
X60881524Y-44751819D01*
X52500983Y-36701419D02*
X52167650Y-36225228D01*
X51929555Y-36701419D02*
X51929555Y-35701419D01*
X51929555Y-35701419D02*
X52310507Y-35701419D01*
X52310507Y-35701419D02*
X52405745Y-35749038D01*
X52405745Y-35749038D02*
X52453364Y-35796657D01*
X52453364Y-35796657D02*
X52500983Y-35891895D01*
X52500983Y-35891895D02*
X52500983Y-36034752D01*
X52500983Y-36034752D02*
X52453364Y-36129990D01*
X52453364Y-36129990D02*
X52405745Y-36177609D01*
X52405745Y-36177609D02*
X52310507Y-36225228D01*
X52310507Y-36225228D02*
X51929555Y-36225228D01*
X52881936Y-35796657D02*
X52929555Y-35749038D01*
X52929555Y-35749038D02*
X53024793Y-35701419D01*
X53024793Y-35701419D02*
X53262888Y-35701419D01*
X53262888Y-35701419D02*
X53358126Y-35749038D01*
X53358126Y-35749038D02*
X53405745Y-35796657D01*
X53405745Y-35796657D02*
X53453364Y-35891895D01*
X53453364Y-35891895D02*
X53453364Y-35987133D01*
X53453364Y-35987133D02*
X53405745Y-36129990D01*
X53405745Y-36129990D02*
X52834317Y-36701419D01*
X52834317Y-36701419D02*
X53453364Y-36701419D01*
X59262476Y-29128619D02*
X59262476Y-29842904D01*
X59262476Y-29842904D02*
X59214857Y-29985761D01*
X59214857Y-29985761D02*
X59119619Y-30081000D01*
X59119619Y-30081000D02*
X58976762Y-30128619D01*
X58976762Y-30128619D02*
X58881524Y-30128619D01*
X60262476Y-30128619D02*
X59691048Y-30128619D01*
X59976762Y-30128619D02*
X59976762Y-29128619D01*
X59976762Y-29128619D02*
X59881524Y-29271476D01*
X59881524Y-29271476D02*
X59786286Y-29366714D01*
X59786286Y-29366714D02*
X59691048Y-29414333D01*
X60738667Y-30128619D02*
X60929143Y-30128619D01*
X60929143Y-30128619D02*
X61024381Y-30081000D01*
X61024381Y-30081000D02*
X61072000Y-30033380D01*
X61072000Y-30033380D02*
X61167238Y-29890523D01*
X61167238Y-29890523D02*
X61214857Y-29700047D01*
X61214857Y-29700047D02*
X61214857Y-29319095D01*
X61214857Y-29319095D02*
X61167238Y-29223857D01*
X61167238Y-29223857D02*
X61119619Y-29176238D01*
X61119619Y-29176238D02*
X61024381Y-29128619D01*
X61024381Y-29128619D02*
X60833905Y-29128619D01*
X60833905Y-29128619D02*
X60738667Y-29176238D01*
X60738667Y-29176238D02*
X60691048Y-29223857D01*
X60691048Y-29223857D02*
X60643429Y-29319095D01*
X60643429Y-29319095D02*
X60643429Y-29557190D01*
X60643429Y-29557190D02*
X60691048Y-29652428D01*
X60691048Y-29652428D02*
X60738667Y-29700047D01*
X60738667Y-29700047D02*
X60833905Y-29747666D01*
X60833905Y-29747666D02*
X61024381Y-29747666D01*
X61024381Y-29747666D02*
X61119619Y-29700047D01*
X61119619Y-29700047D02*
X61167238Y-29652428D01*
X61167238Y-29652428D02*
X61214857Y-29557190D01*
X13128666Y-13678819D02*
X13128666Y-14393104D01*
X13128666Y-14393104D02*
X13081047Y-14535961D01*
X13081047Y-14535961D02*
X12985809Y-14631200D01*
X12985809Y-14631200D02*
X12842952Y-14678819D01*
X12842952Y-14678819D02*
X12747714Y-14678819D01*
X14081047Y-13678819D02*
X13604857Y-13678819D01*
X13604857Y-13678819D02*
X13557238Y-14155009D01*
X13557238Y-14155009D02*
X13604857Y-14107390D01*
X13604857Y-14107390D02*
X13700095Y-14059771D01*
X13700095Y-14059771D02*
X13938190Y-14059771D01*
X13938190Y-14059771D02*
X14033428Y-14107390D01*
X14033428Y-14107390D02*
X14081047Y-14155009D01*
X14081047Y-14155009D02*
X14128666Y-14250247D01*
X14128666Y-14250247D02*
X14128666Y-14488342D01*
X14128666Y-14488342D02*
X14081047Y-14583580D01*
X14081047Y-14583580D02*
X14033428Y-14631200D01*
X14033428Y-14631200D02*
X13938190Y-14678819D01*
X13938190Y-14678819D02*
X13700095Y-14678819D01*
X13700095Y-14678819D02*
X13604857Y-14631200D01*
X13604857Y-14631200D02*
X13557238Y-14583580D01*
X18375333Y-58366819D02*
X18042000Y-57890628D01*
X17803905Y-58366819D02*
X17803905Y-57366819D01*
X17803905Y-57366819D02*
X18184857Y-57366819D01*
X18184857Y-57366819D02*
X18280095Y-57414438D01*
X18280095Y-57414438D02*
X18327714Y-57462057D01*
X18327714Y-57462057D02*
X18375333Y-57557295D01*
X18375333Y-57557295D02*
X18375333Y-57700152D01*
X18375333Y-57700152D02*
X18327714Y-57795390D01*
X18327714Y-57795390D02*
X18280095Y-57843009D01*
X18280095Y-57843009D02*
X18184857Y-57890628D01*
X18184857Y-57890628D02*
X17803905Y-57890628D01*
X19327714Y-58366819D02*
X18756286Y-58366819D01*
X19042000Y-58366819D02*
X19042000Y-57366819D01*
X19042000Y-57366819D02*
X18946762Y-57509676D01*
X18946762Y-57509676D02*
X18851524Y-57604914D01*
X18851524Y-57604914D02*
X18756286Y-57652533D01*
X26928095Y-56604819D02*
X26928095Y-57414342D01*
X26928095Y-57414342D02*
X26975714Y-57509580D01*
X26975714Y-57509580D02*
X27023333Y-57557200D01*
X27023333Y-57557200D02*
X27118571Y-57604819D01*
X27118571Y-57604819D02*
X27309047Y-57604819D01*
X27309047Y-57604819D02*
X27404285Y-57557200D01*
X27404285Y-57557200D02*
X27451904Y-57509580D01*
X27451904Y-57509580D02*
X27499523Y-57414342D01*
X27499523Y-57414342D02*
X27499523Y-56604819D01*
X28499523Y-57604819D02*
X27928095Y-57604819D01*
X28213809Y-57604819D02*
X28213809Y-56604819D01*
X28213809Y-56604819D02*
X28118571Y-56747676D01*
X28118571Y-56747676D02*
X28023333Y-56842914D01*
X28023333Y-56842914D02*
X27928095Y-56890533D01*
D11*
%TO.C,IDC_RF1*%
X31268400Y-62853000D02*
X31268400Y-53733000D01*
X51848400Y-62853000D02*
X31268400Y-62853000D01*
X32568400Y-61543000D02*
X32568400Y-55043000D01*
X50548400Y-61543000D02*
X32568400Y-61543000D01*
X32568400Y-55043000D02*
X39508400Y-55043000D01*
X39508400Y-55043000D02*
X39508400Y-55043000D01*
X39508400Y-55043000D02*
X39508400Y-53733000D01*
X43608400Y-55043000D02*
X50548400Y-55043000D01*
X50548400Y-55043000D02*
X50548400Y-61543000D01*
X31268400Y-53733000D02*
X51848400Y-53733000D01*
X43608400Y-53733000D02*
X43608400Y-55043000D01*
X51848400Y-53733000D02*
X51848400Y-62853000D01*
X43638400Y-53343000D02*
X44138400Y-52343000D01*
X43138400Y-52343000D02*
X43638400Y-53343000D01*
X44138400Y-52343000D02*
X43138400Y-52343000D01*
%TO.C,D8*%
X31512608Y-47951934D02*
G75*
G03*
X31669515Y-44719601I-1078608J1672334D01*
G01*
X29354001Y-45238640D02*
G75*
G03*
X29354164Y-47320729I1079999J-1040960D01*
G01*
X29198485Y-44719601D02*
G75*
G03*
X29355392Y-47951934I1235515J-1559999D01*
G01*
X31513836Y-47320729D02*
G75*
G03*
X31513999Y-45238640I-1079836J1041129D01*
G01*
X29354000Y-44719600D02*
X29198000Y-44719600D01*
X31670000Y-44719600D02*
X31514000Y-44719600D01*
%TO.C,D7*%
X34687608Y-52451934D02*
G75*
G03*
X34844515Y-49219601I-1078608J1672334D01*
G01*
X32529001Y-49738640D02*
G75*
G03*
X32529164Y-51820729I1079999J-1040960D01*
G01*
X32373485Y-49219601D02*
G75*
G03*
X32530392Y-52451934I1235515J-1559999D01*
G01*
X34688836Y-51820729D02*
G75*
G03*
X34688999Y-49738640I-1079836J1041129D01*
G01*
X32529000Y-49219600D02*
X32373000Y-49219600D01*
X34845000Y-49219600D02*
X34689000Y-49219600D01*
%TO.C,D6*%
X37862608Y-47951934D02*
G75*
G03*
X38019515Y-44719601I-1078608J1672334D01*
G01*
X35704001Y-45238640D02*
G75*
G03*
X35704164Y-47320729I1079999J-1040960D01*
G01*
X35548485Y-44719601D02*
G75*
G03*
X35705392Y-47951934I1235515J-1559999D01*
G01*
X37863836Y-47320729D02*
G75*
G03*
X37863999Y-45238640I-1079836J1041129D01*
G01*
X35704000Y-44719600D02*
X35548000Y-44719600D01*
X38020000Y-44719600D02*
X37864000Y-44719600D01*
%TO.C,D5*%
X41037608Y-52451934D02*
G75*
G03*
X41194515Y-49219601I-1078608J1672334D01*
G01*
X38879001Y-49738640D02*
G75*
G03*
X38879164Y-51820729I1079999J-1040960D01*
G01*
X38723485Y-49219601D02*
G75*
G03*
X38880392Y-52451934I1235515J-1559999D01*
G01*
X41038836Y-51820729D02*
G75*
G03*
X41038999Y-49738640I-1079836J1041129D01*
G01*
X38879000Y-49219600D02*
X38723000Y-49219600D01*
X41195000Y-49219600D02*
X41039000Y-49219600D01*
%TO.C,D4*%
X44370000Y-44719600D02*
X44214000Y-44719600D01*
X42054000Y-44719600D02*
X41898000Y-44719600D01*
X44213836Y-47320729D02*
G75*
G03*
X44213999Y-45238640I-1079836J1041129D01*
G01*
X41898485Y-44719601D02*
G75*
G03*
X42055392Y-47951934I1235515J-1559999D01*
G01*
X42054001Y-45238640D02*
G75*
G03*
X42054164Y-47320729I1079999J-1040960D01*
G01*
X44212608Y-47951934D02*
G75*
G03*
X44369515Y-44719601I-1078608J1672334D01*
G01*
%TO.C,D3*%
X47387608Y-52451934D02*
G75*
G03*
X47544515Y-49219601I-1078608J1672334D01*
G01*
X45229001Y-49738640D02*
G75*
G03*
X45229164Y-51820729I1079999J-1040960D01*
G01*
X45073485Y-49219601D02*
G75*
G03*
X45230392Y-52451934I1235515J-1559999D01*
G01*
X47388836Y-51820729D02*
G75*
G03*
X47388999Y-49738640I-1079836J1041129D01*
G01*
X45229000Y-49219600D02*
X45073000Y-49219600D01*
X47545000Y-49219600D02*
X47389000Y-49219600D01*
%TO.C,D2*%
X50720000Y-44719600D02*
X50564000Y-44719600D01*
X48404000Y-44719600D02*
X48248000Y-44719600D01*
X50563836Y-47320729D02*
G75*
G03*
X50563999Y-45238640I-1079836J1041129D01*
G01*
X48248485Y-44719601D02*
G75*
G03*
X48405392Y-47951934I1235515J-1559999D01*
G01*
X48404001Y-45238640D02*
G75*
G03*
X48404164Y-47320729I1079999J-1040960D01*
G01*
X50562608Y-47951934D02*
G75*
G03*
X50719515Y-44719601I-1078608J1672334D01*
G01*
%TO.C,D1*%
X53746258Y-52446534D02*
G75*
G03*
X53903165Y-49214201I-1078608J1672334D01*
G01*
X51587651Y-49733240D02*
G75*
G03*
X51587814Y-51815329I1079999J-1040960D01*
G01*
X51432135Y-49214201D02*
G75*
G03*
X51589042Y-52446534I1235515J-1559999D01*
G01*
X53747486Y-51815329D02*
G75*
G03*
X53747649Y-49733240I-1079836J1041129D01*
G01*
X51587650Y-49214200D02*
X51431650Y-49214200D01*
X53903650Y-49214200D02*
X53747650Y-49214200D01*
%TO.C,J12*%
X90086000Y-8445000D02*
X90086000Y-825000D01*
X79926000Y-825000D02*
X79926000Y-8445000D01*
X79926000Y-2095000D02*
X90086000Y-2095000D01*
X90086000Y-825000D02*
X79926000Y-825000D01*
X79926000Y-8445000D02*
X90086000Y-8445000D01*
%TO.C,J17*%
X64268600Y-826000D02*
X64268600Y-8446000D01*
X79508600Y-826000D02*
X64268600Y-826000D01*
X79508600Y-826000D02*
X79508600Y-8446000D01*
X79508600Y-2096000D02*
X64268600Y-2096000D01*
X79508600Y-8446000D02*
X64268600Y-8446000D01*
%TO.C,R9*%
X31354000Y-38396000D02*
X31354000Y-42236000D01*
X29514000Y-38396000D02*
X29514000Y-42236000D01*
%TO.C,J2*%
X1588000Y-39829400D02*
X9208000Y-39829400D01*
X1588000Y-24589400D02*
X1588000Y-39829400D01*
X1588000Y-24589400D02*
X9208000Y-24589400D01*
X2858000Y-24589400D02*
X2858000Y-39829400D01*
X9208000Y-24589400D02*
X9208000Y-39829400D01*
%TO.C,J7*%
X9652000Y-55501200D02*
X9652000Y-40261200D01*
X16002000Y-55501200D02*
X16002000Y-40261200D01*
X17272000Y-55501200D02*
X9652000Y-55501200D01*
X17272000Y-55501200D02*
X17272000Y-40261200D01*
X17272000Y-40261200D02*
X9652000Y-40261200D01*
%TO.C,R3*%
X50404000Y-38396000D02*
X50404000Y-42236000D01*
X48564000Y-38396000D02*
X48564000Y-42236000D01*
%TO.C,U2*%
X46427650Y-13656000D02*
X46427650Y-34096000D01*
X46427650Y-34096000D02*
X51727650Y-34096000D01*
X48077650Y-13656000D02*
X46427650Y-13656000D01*
X51727650Y-13656000D02*
X50077650Y-13656000D01*
X51727650Y-34096000D02*
X51727650Y-13656000D01*
X48077650Y-13656000D02*
G75*
G03*
X50077650Y-13656000I1000000J0D01*
G01*
%TO.C,J11*%
X28451400Y-44938000D02*
X28451400Y-43938000D01*
X28451400Y-43938000D02*
X27451400Y-44438000D01*
X27451400Y-44438000D02*
X28451400Y-44938000D01*
X27061400Y-49648000D02*
X17941400Y-49648000D01*
X27061400Y-35058000D02*
X25751400Y-35058000D01*
X27061400Y-16368000D02*
X27061400Y-49648000D01*
X25751400Y-48348000D02*
X19251400Y-48348000D01*
X25751400Y-35058000D02*
X25751400Y-48348000D01*
X25751400Y-30958000D02*
X27061400Y-30958000D01*
X25751400Y-30958000D02*
X25751400Y-30958000D01*
X25751400Y-17668000D02*
X25751400Y-30958000D01*
X19251400Y-48348000D02*
X19251400Y-17668000D01*
X19251400Y-17668000D02*
X25751400Y-17668000D01*
X17941400Y-49648000D02*
X17941400Y-16368000D01*
X17941400Y-16368000D02*
X27061400Y-16368000D01*
%TO.C,J8*%
X17272000Y-55930800D02*
X9652000Y-55930800D01*
X17272000Y-71170800D02*
X17272000Y-55930800D01*
X17272000Y-71170800D02*
X9652000Y-71170800D01*
X16002000Y-71170800D02*
X16002000Y-55930800D01*
X9652000Y-71170800D02*
X9652000Y-55930800D01*
%TO.C,J6*%
X9652000Y-39829400D02*
X9652000Y-24589400D01*
X16002000Y-39829400D02*
X16002000Y-24589400D01*
X17272000Y-39829400D02*
X9652000Y-39829400D01*
X17272000Y-39829400D02*
X17272000Y-24589400D01*
X17272000Y-24589400D02*
X9652000Y-24589400D01*
%TO.C,J1*%
X1588000Y-24153200D02*
X9208000Y-24153200D01*
X1588000Y-8913200D02*
X1588000Y-24153200D01*
X1588000Y-8913200D02*
X9208000Y-8913200D01*
X2858000Y-8913200D02*
X2858000Y-24153200D01*
X9208000Y-8913200D02*
X9208000Y-24153200D01*
%TO.C,J4*%
X1588000Y-71170800D02*
X9208000Y-71170800D01*
X1588000Y-55930800D02*
X1588000Y-71170800D01*
X1588000Y-55930800D02*
X9208000Y-55930800D01*
X2858000Y-55930800D02*
X2858000Y-71170800D01*
X9208000Y-55930800D02*
X9208000Y-71170800D01*
%TO.C,R5*%
X44054000Y-38396000D02*
X44054000Y-42236000D01*
X42214000Y-38396000D02*
X42214000Y-42236000D01*
%TO.C,J13*%
X16817000Y-8446000D02*
X1577000Y-8446000D01*
X16817000Y-2096000D02*
X1577000Y-2096000D01*
X16817000Y-826000D02*
X16817000Y-8446000D01*
X16817000Y-826000D02*
X1577000Y-826000D01*
X1577000Y-826000D02*
X1577000Y-8446000D01*
%TO.C,J9*%
X17696000Y-63538600D02*
X17696000Y-71158600D01*
X17696000Y-71158600D02*
X27856000Y-71158600D01*
X27856000Y-63538600D02*
X17696000Y-63538600D01*
X27856000Y-69888600D02*
X17696000Y-69888600D01*
X27856000Y-71158600D02*
X27856000Y-63538600D01*
%TO.C,J16*%
X63836800Y-8446000D02*
X48596800Y-8446000D01*
X63836800Y-2096000D02*
X48596800Y-2096000D01*
X63836800Y-826000D02*
X63836800Y-8446000D01*
X63836800Y-826000D02*
X48596800Y-826000D01*
X48596800Y-826000D02*
X48596800Y-8446000D01*
%TO.C,R7*%
X35864000Y-38396000D02*
X35864000Y-42236000D01*
X37704000Y-38396000D02*
X37704000Y-42236000D01*
%TO.C,J18*%
X63818000Y-8892200D02*
X56198000Y-8892200D01*
X63818000Y-24132200D02*
X63818000Y-8892200D01*
X63818000Y-24132200D02*
X56198000Y-24132200D01*
X62548000Y-24132200D02*
X62548000Y-8892200D01*
X56198000Y-24132200D02*
X56198000Y-8892200D01*
%TO.C,J22*%
X49004400Y-71158600D02*
X49004400Y-63538600D01*
X49004400Y-69888600D02*
X38844400Y-69888600D01*
X49004400Y-63538600D02*
X38844400Y-63538600D01*
X38844400Y-71158600D02*
X49004400Y-71158600D01*
X38844400Y-63538600D02*
X38844400Y-71158600D01*
%TO.C,J14*%
X32493200Y-8446000D02*
X17253200Y-8446000D01*
X32493200Y-2096000D02*
X17253200Y-2096000D01*
X32493200Y-826000D02*
X32493200Y-8446000D01*
X32493200Y-826000D02*
X17253200Y-826000D01*
X17253200Y-826000D02*
X17253200Y-8446000D01*
%TO.C,J10*%
X28262400Y-63538600D02*
X28262400Y-71158600D01*
X28262400Y-71158600D02*
X38422400Y-71158600D01*
X38422400Y-63538600D02*
X28262400Y-63538600D01*
X38422400Y-69888600D02*
X28262400Y-69888600D01*
X38422400Y-71158600D02*
X38422400Y-63538600D01*
%TO.C,R6*%
X39039000Y-38396000D02*
X39039000Y-42236000D01*
X40879000Y-38396000D02*
X40879000Y-42236000D01*
%TO.C,J21*%
X63818000Y-55909800D02*
X56198000Y-55909800D01*
X63818000Y-71149800D02*
X63818000Y-55909800D01*
X63818000Y-71149800D02*
X56198000Y-71149800D01*
X62548000Y-71149800D02*
X62548000Y-55909800D01*
X56198000Y-71149800D02*
X56198000Y-55909800D01*
%TO.C,U3*%
X31894000Y-13656000D02*
X31894000Y-34096000D01*
X31894000Y-34096000D02*
X37194000Y-34096000D01*
X33544000Y-13656000D02*
X31894000Y-13656000D01*
X37194000Y-13656000D02*
X35544000Y-13656000D01*
X37194000Y-34096000D02*
X37194000Y-13656000D01*
X33544000Y-13656000D02*
G75*
G03*
X35544000Y-13656000I1000000J0D01*
G01*
%TO.C,R8*%
X34529000Y-38396000D02*
X34529000Y-42236000D01*
X32689000Y-38396000D02*
X32689000Y-42236000D01*
%TO.C,J15*%
X48165000Y-8446000D02*
X32925000Y-8446000D01*
X48165000Y-2096000D02*
X32925000Y-2096000D01*
X48165000Y-826000D02*
X48165000Y-8446000D01*
X48165000Y-826000D02*
X32925000Y-826000D01*
X32925000Y-826000D02*
X32925000Y-8446000D01*
%TO.C,J3*%
X9208000Y-40261200D02*
X9208000Y-55501200D01*
X2858000Y-40261200D02*
X2858000Y-55501200D01*
X1588000Y-40261200D02*
X9208000Y-40261200D01*
X1588000Y-40261200D02*
X1588000Y-55501200D01*
X1588000Y-55501200D02*
X9208000Y-55501200D01*
%TO.C,R4*%
X45389000Y-38396000D02*
X45389000Y-42236000D01*
X47229000Y-38396000D02*
X47229000Y-42236000D01*
%TO.C,J20*%
X56198000Y-55480200D02*
X56198000Y-40240200D01*
X62548000Y-55480200D02*
X62548000Y-40240200D01*
X63818000Y-55480200D02*
X56198000Y-55480200D01*
X63818000Y-55480200D02*
X63818000Y-40240200D01*
X63818000Y-40240200D02*
X56198000Y-40240200D01*
%TO.C,R2*%
X53587650Y-38390600D02*
X53587650Y-42230600D01*
X51747650Y-38390600D02*
X51747650Y-42230600D01*
%TO.C,J19*%
X56198000Y-39808400D02*
X56198000Y-24568400D01*
X62548000Y-39808400D02*
X62548000Y-24568400D01*
X63818000Y-39808400D02*
X56198000Y-39808400D01*
X63818000Y-39808400D02*
X63818000Y-24568400D01*
X63818000Y-24568400D02*
X56198000Y-24568400D01*
%TO.C,J5*%
X9652000Y-24153200D02*
X9652000Y-8913200D01*
X16002000Y-24153200D02*
X16002000Y-8913200D01*
X17272000Y-24153200D02*
X9652000Y-24153200D01*
X17272000Y-24153200D02*
X17272000Y-8913200D01*
X17272000Y-8913200D02*
X9652000Y-8913200D01*
%TO.C,R1*%
X17681400Y-55549600D02*
X17681400Y-51709600D01*
X19521400Y-55549600D02*
X19521400Y-51709600D01*
%TO.C,U1*%
X26646000Y-56134600D02*
G75*
G03*
X26646000Y-58134600I0J-1000000D01*
G01*
X21446000Y-59784600D02*
X26646000Y-59784600D01*
X26646000Y-59784600D02*
X26646000Y-58134600D01*
X26646000Y-56134600D02*
X26646000Y-54484600D01*
X21446000Y-54484600D02*
X21446000Y-59784600D01*
X26646000Y-54484600D02*
X21446000Y-54484600D01*
%TD*%
M02*
