M48
; DRILL file {KiCad 7.0.6} date Tue Sep 19 12:36:30 2023
; FORMAT={-:-/ absolute / inch / decimal}
; #@! TF.CreationDate,2023-09-19T12:36:30+08:00
; #@! TF.GenerationSoftware,Kicad,Pcbnew,7.0.6
; #@! TF.FileFunction,Plated,1,2,PTH
FMAT,2
INCH
; #@! TA.AperFunction,Plated,PTH,ComponentDrill
T1C0.0276
; #@! TA.AperFunction,Plated,PTH,ComponentDrill
T2C0.0315
; #@! TA.AperFunction,Plated,PTH,ComponentDrill
T3C0.0354
; #@! TA.AperFunction,Plated,PTH,ComponentDrill
T4C0.0394
; #@! TA.AperFunction,Plated,PTH,ComponentDrill
T5C0.0598
%
G90
G05
T1
X0.7323Y-2.0114
X0.7323Y-2.2114
X1.1982Y-1.4872
X1.1982Y-1.6872
X1.3232Y-1.4872
X1.3232Y-1.6872
X1.4482Y-1.4872
X1.4482Y-1.6872
X1.5732Y-1.4872
X1.5732Y-1.6872
X1.6982Y-1.4872
X1.6982Y-1.6872
X1.8232Y-1.4872
X1.8232Y-1.6872
X1.9482Y-1.4872
X1.9482Y-1.6872
X2.0735Y-1.487
X2.0735Y-1.687
T2
X0.8967Y-2.0994
X0.8967Y-2.3994
X0.9967Y-2.0994
X0.9967Y-2.3994
X1.21Y-0.59
X1.21Y-0.69
X1.21Y-0.79
X1.21Y-0.89
X1.21Y-0.99
X1.21Y-1.09
X1.21Y-1.19
X1.21Y-1.29
X1.51Y-0.59
X1.51Y-0.69
X1.51Y-0.79
X1.51Y-0.89
X1.51Y-0.99
X1.51Y-1.09
X1.51Y-1.19
X1.51Y-1.29
X1.7822Y-0.59
X1.7822Y-0.69
X1.7822Y-0.79
X1.7822Y-0.89
X1.7822Y-0.99
X1.7822Y-1.09
X1.7822Y-1.19
X1.7822Y-1.29
X2.0822Y-0.59
X2.0822Y-0.69
X2.0822Y-0.79
X2.0822Y-0.89
X2.0822Y-0.99
X2.0822Y-1.09
X2.0822Y-1.19
X2.0822Y-1.29
T3
X1.1982Y-1.772
X1.1982Y-1.872
X1.3232Y-1.9492
X1.3232Y-2.0492
X1.4482Y-1.772
X1.4482Y-1.872
X1.5732Y-1.9492
X1.5732Y-2.0492
X1.6982Y-1.772
X1.6982Y-1.872
X1.8232Y-1.9492
X1.8232Y-2.0492
X1.9482Y-1.772
X1.9482Y-1.872
X2.0735Y-1.949
X2.0735Y-2.049
T4
X0.8359Y-0.8495
X0.8359Y-0.9495
X0.8359Y-1.0495
X0.8359Y-1.1495
X0.8359Y-1.2495
X0.8359Y-1.3495
X0.8359Y-1.4495
X0.8359Y-1.5495
X0.8359Y-1.6495
X0.8359Y-1.7495
X0.9359Y-0.8495
X0.9359Y-0.9495
X0.9359Y-1.0495
X0.9359Y-1.1495
X0.9359Y-1.2495
X0.9359Y-1.3495
X0.9359Y-1.4495
X0.9359Y-1.5495
X0.9359Y-1.6495
X0.9359Y-1.7495
X1.4362Y-2.245
X1.4362Y-2.345
X1.5362Y-2.245
X1.5362Y-2.345
X1.6362Y-2.245
X1.6362Y-2.345
X1.7362Y-2.245
X1.7362Y-2.345
X1.8362Y-2.245
X1.8362Y-2.345
T5
X0.1621Y-0.1825
X0.2125Y-0.4509
X0.2125Y-0.6509
X0.2125Y-0.8509
X0.2125Y-1.0681
X0.2125Y-1.2681
X0.2125Y-1.4681
X0.2125Y-1.6851
X0.2125Y-1.8851
X0.2125Y-2.0851
X0.2125Y-2.302
X0.2125Y-2.502
X0.2125Y-2.702
X0.3621Y-0.1825
X0.53Y-0.4509
X0.53Y-0.6509
X0.53Y-0.8509
X0.53Y-1.0681
X0.53Y-1.2681
X0.53Y-1.4681
X0.53Y-1.6851
X0.53Y-1.8851
X0.53Y-2.0851
X0.53Y-2.302
X0.53Y-2.502
X0.53Y-2.702
X0.5621Y-0.1825
X0.7793Y-0.1825
X0.7967Y-2.6515
X0.9793Y-0.1825
X0.9967Y-2.6515
X1.1793Y-0.1825
X1.2127Y-2.6515
X1.3963Y-0.1825
X1.4127Y-2.6515
X1.5963Y-0.1825
X1.6293Y-2.6515
X1.7963Y-0.1825
X1.8293Y-2.6515
X2.0133Y-0.1825
X2.2133Y-0.1825
X2.3625Y-0.4501
X2.3625Y-0.6501
X2.3625Y-0.8501
X2.3625Y-1.0673
X2.3625Y-1.2673
X2.3625Y-1.4673
X2.3625Y-1.6843
X2.3625Y-1.8843
X2.3625Y-2.0843
X2.3625Y-2.3012
X2.3625Y-2.5012
X2.3625Y-2.7012
X2.4133Y-0.1825
X2.6303Y-0.1825
X2.8303Y-0.1825
X3.0303Y-0.1825
X3.2467Y-0.1825
X3.4467Y-0.1825
T0
M30
