%TF.GenerationSoftware,KiCad,Pcbnew,7.0.6*%
%TF.CreationDate,2023-09-19T17:20:11+08:00*%
%TF.ProjectId,Control Panel Mega Shield,436f6e74-726f-46c2-9050-616e656c204d,0*%
%TF.SameCoordinates,Original*%
%TF.FileFunction,Copper,L1,Top*%
%TF.FilePolarity,Positive*%
%FSLAX46Y46*%
G04 Gerber Fmt 4.6, Leading zero omitted, Abs format (unit mm)*
G04 Created by KiCad (PCBNEW 7.0.6) date 2023-09-19 17:20:11*
%MOMM*%
%LPD*%
G01*
G04 APERTURE LIST*
G04 Aperture macros list*
%AMRoundRect*
0 Rectangle with rounded corners*
0 $1 Rounding radius*
0 $2 $3 $4 $5 $6 $7 $8 $9 X,Y pos of 4 corners*
0 Add a 4 corners polygon primitive as box body*
4,1,4,$2,$3,$4,$5,$6,$7,$8,$9,$2,$3,0*
0 Add four circle primitives for the rounded corners*
1,1,$1+$1,$2,$3*
1,1,$1+$1,$4,$5*
1,1,$1+$1,$6,$7*
1,1,$1+$1,$8,$9*
0 Add four rect primitives between the rounded corners*
20,1,$1+$1,$2,$3,$4,$5,0*
20,1,$1+$1,$4,$5,$6,$7,0*
20,1,$1+$1,$6,$7,$8,$9,0*
20,1,$1+$1,$8,$9,$2,$3,0*%
G04 Aperture macros list end*
%TA.AperFunction,ComponentPad*%
%ADD10R,1.600000X1.600000*%
%TD*%
%TA.AperFunction,ComponentPad*%
%ADD11O,1.600000X1.600000*%
%TD*%
%TA.AperFunction,ComponentPad*%
%ADD12C,2.000000*%
%TD*%
%TA.AperFunction,ComponentPad*%
%ADD13C,1.700000*%
%TD*%
%TA.AperFunction,ComponentPad*%
%ADD14RoundRect,0.250000X-0.600000X-0.600000X0.600000X-0.600000X0.600000X0.600000X-0.600000X0.600000X0*%
%TD*%
%TA.AperFunction,ComponentPad*%
%ADD15RoundRect,0.250000X0.600000X0.600000X-0.600000X0.600000X-0.600000X-0.600000X0.600000X-0.600000X0*%
%TD*%
%TA.AperFunction,ComponentPad*%
%ADD16C,3.000000*%
%TD*%
%TA.AperFunction,ComponentPad*%
%ADD17R,3.000000X3.000000*%
%TD*%
%TA.AperFunction,ComponentPad*%
%ADD18O,1.727200X1.727200*%
%TD*%
%TA.AperFunction,ComponentPad*%
%ADD19R,1.727200X1.727200*%
%TD*%
%TA.AperFunction,Conductor*%
%ADD20C,0.500000*%
%TD*%
%TA.AperFunction,Conductor*%
%ADD21C,0.750000*%
%TD*%
%TA.AperFunction,Conductor*%
%ADD22C,0.250000*%
%TD*%
G04 APERTURE END LIST*
D10*
%TO.P,SW2,1*%
%TO.N,/5V*%
X81200000Y-46576000D03*
D11*
%TO.P,SW2,2*%
X81200000Y-44036000D03*
%TO.P,SW2,3*%
%TO.N,/AREF*%
X73580000Y-44036000D03*
%TO.P,SW2,4*%
%TO.N,/VIN*%
X73580000Y-46576000D03*
%TD*%
D12*
%TO.P,SW1,1,1*%
%TO.N,/GND*%
X90880000Y-12410000D03*
X84380000Y-12410000D03*
%TO.P,SW1,2,2*%
%TO.N,/RST*%
X90880000Y-7910000D03*
X84380000Y-7910000D03*
%TD*%
D13*
%TO.P,J1,20,Pin_20*%
%TO.N,/D49*%
X88900000Y-43688000D03*
%TO.P,J1,19,Pin_19*%
%TO.N,/GND*%
X86360000Y-43688000D03*
%TO.P,J1,18,Pin_18*%
%TO.N,/D48*%
X88900000Y-41148000D03*
%TO.P,J1,17,Pin_17*%
%TO.N,/AREF*%
X86360000Y-41148000D03*
%TO.P,J1,16,Pin_16*%
%TO.N,/D47*%
X88900000Y-38608000D03*
%TO.P,J1,15,Pin_15*%
%TO.N,unconnected-(J1-Pin_15-Pad15)*%
X86360000Y-38608000D03*
%TO.P,J1,14,Pin_14*%
%TO.N,/D46*%
X88900000Y-36068000D03*
%TO.P,J1,13,Pin_13*%
%TO.N,/A4*%
X86360000Y-36068000D03*
%TO.P,J1,12,Pin_12*%
%TO.N,/D45*%
X88900000Y-33528000D03*
%TO.P,J1,11,Pin_11*%
%TO.N,/A3*%
X86360000Y-33528000D03*
%TO.P,J1,10,Pin_10*%
%TO.N,/D44*%
X88900000Y-30988000D03*
%TO.P,J1,9,Pin_9*%
%TO.N,/A2*%
X86360000Y-30988000D03*
%TO.P,J1,8,Pin_8*%
%TO.N,/D43*%
X88900000Y-28448000D03*
%TO.P,J1,7,Pin_7*%
%TO.N,/A1*%
X86360000Y-28448000D03*
%TO.P,J1,6,Pin_6*%
%TO.N,/D42*%
X88900000Y-25908000D03*
%TO.P,J1,5,Pin_5*%
%TO.N,/A0*%
X86360000Y-25908000D03*
%TO.P,J1,4,Pin_4*%
%TO.N,/D41*%
X88900000Y-23368000D03*
%TO.P,J1,3,Pin_3*%
%TO.N,/D38*%
X86360000Y-23368000D03*
%TO.P,J1,2,Pin_2*%
%TO.N,/D40*%
X88900000Y-20828000D03*
D14*
%TO.P,J1,1,Pin_1*%
%TO.N,/D39*%
X86360000Y-20828000D03*
%TD*%
D13*
%TO.P,J3,10,Pin_10*%
%TO.N,/C_OFF*%
X75438000Y-9652000D03*
%TO.P,J3,9,Pin_9*%
%TO.N,/C_ON*%
X77978000Y-9652000D03*
%TO.P,J3,8,Pin_8*%
%TO.N,/D31*%
X75438000Y-12192000D03*
%TO.P,J3,7,Pin_7*%
%TO.N,/B_OFF*%
X77978000Y-12192000D03*
%TO.P,J3,6,Pin_6*%
%TO.N,/D30*%
X75438000Y-14732000D03*
%TO.P,J3,5,Pin_5*%
%TO.N,/B_ON*%
X77978000Y-14732000D03*
%TO.P,J3,4,Pin_4*%
%TO.N,/3V3*%
X75438000Y-17272000D03*
%TO.P,J3,3,Pin_3*%
%TO.N,/A_OFF*%
X77978000Y-17272000D03*
%TO.P,J3,2,Pin_2*%
%TO.N,/GND*%
X75438000Y-19812000D03*
D15*
%TO.P,J3,1,Pin_1*%
%TO.N,/A_ON*%
X77978000Y-19812000D03*
%TD*%
D16*
%TO.P,J2,3,Pin_3*%
%TO.N,/GND*%
X78550000Y-38428000D03*
%TO.P,J2,2,Pin_2*%
%TO.N,/3V3*%
X78550000Y-33348000D03*
D17*
%TO.P,J2,1,Pin_1*%
%TO.N,/5V*%
X78550000Y-28268000D03*
%TD*%
D18*
%TO.P,XA1,*%
%TO.N,*%
X27940000Y-50800000D03*
%TO.P,XA1,3V3,3.3V*%
%TO.N,unconnected-(XA1-3.3V-Pad3V3)*%
X35560000Y-50800000D03*
%TO.P,XA1,5V1,5V*%
%TO.N,unconnected-(XA1-5V-Pad5V1)*%
X38100000Y-50800000D03*
%TO.P,XA1,5V2,SPI_5V*%
%TO.N,unconnected-(XA1-SPI_5V-Pad5V2)*%
X66167000Y-22860000D03*
%TO.P,XA1,5V3,5V*%
%TO.N,unconnected-(XA1-5V-Pad5V3)*%
X93980000Y-2540000D03*
%TO.P,XA1,5V4,5V*%
%TO.N,unconnected-(XA1-5V-Pad5V4)*%
X96520000Y-2540000D03*
%TO.P,XA1,A0,A0*%
%TO.N,/A0*%
X50800000Y-50800000D03*
%TO.P,XA1,A1,A1*%
%TO.N,/A1*%
X53340000Y-50800000D03*
%TO.P,XA1,A2,A2*%
%TO.N,/A2*%
X55880000Y-50800000D03*
%TO.P,XA1,A3,A3*%
%TO.N,/A3*%
X58420000Y-50800000D03*
%TO.P,XA1,A4,A4*%
%TO.N,/A4*%
X60960000Y-50800000D03*
%TO.P,XA1,A5,A5*%
%TO.N,unconnected-(XA1-PadA5)*%
X63500000Y-50800000D03*
%TO.P,XA1,A6,A6*%
%TO.N,unconnected-(XA1-PadA6)*%
X66040000Y-50800000D03*
%TO.P,XA1,A7,A7*%
%TO.N,unconnected-(XA1-PadA7)*%
X68580000Y-50800000D03*
%TO.P,XA1,A8,A8*%
%TO.N,unconnected-(XA1-PadA8)*%
X73660000Y-50800000D03*
%TO.P,XA1,A9,A9*%
%TO.N,unconnected-(XA1-PadA9)*%
X76200000Y-50800000D03*
%TO.P,XA1,A10,A10*%
%TO.N,unconnected-(XA1-PadA10)*%
X78740000Y-50800000D03*
%TO.P,XA1,A11,A11*%
%TO.N,unconnected-(XA1-PadA11)*%
X81280000Y-50800000D03*
%TO.P,XA1,A12,A12*%
%TO.N,unconnected-(XA1-PadA12)*%
X83820000Y-50800000D03*
%TO.P,XA1,A13,A13*%
%TO.N,unconnected-(XA1-PadA13)*%
X86360000Y-50800000D03*
%TO.P,XA1,A14,A14*%
%TO.N,unconnected-(XA1-PadA14)*%
X88900000Y-50800000D03*
%TO.P,XA1,A15,A15*%
%TO.N,unconnected-(XA1-PadA15)*%
X91440000Y-50800000D03*
%TO.P,XA1,AREF,AREF*%
%TO.N,/AREF*%
X23876000Y-2540000D03*
%TO.P,XA1,D0,D0/RX0*%
%TO.N,unconnected-(XA1-D0{slash}RX0-PadD0)*%
X63500000Y-2540000D03*
%TO.P,XA1,D1,D1/TX0*%
%TO.N,unconnected-(XA1-D1{slash}TX0-PadD1)*%
X60960000Y-2540000D03*
%TO.P,XA1,D2,D2_INT0*%
%TO.N,unconnected-(XA1-D2_INT0-PadD2)*%
X58420000Y-2540000D03*
%TO.P,XA1,D3,D3_INT1*%
%TO.N,unconnected-(XA1-D3_INT1-PadD3)*%
X55880000Y-2540000D03*
%TO.P,XA1,D4,D4*%
%TO.N,unconnected-(XA1-PadD4)*%
X53340000Y-2540000D03*
%TO.P,XA1,D5,D5*%
%TO.N,unconnected-(XA1-PadD5)*%
X50800000Y-2540000D03*
%TO.P,XA1,D6,D6*%
%TO.N,unconnected-(XA1-PadD6)*%
X48260000Y-2540000D03*
%TO.P,XA1,D7,D7*%
%TO.N,unconnected-(XA1-PadD7)*%
X45720000Y-2540000D03*
%TO.P,XA1,D8,D8*%
%TO.N,unconnected-(XA1-PadD8)*%
X41656000Y-2540000D03*
%TO.P,XA1,D9,D9*%
%TO.N,unconnected-(XA1-PadD9)*%
X39116000Y-2540000D03*
%TO.P,XA1,D10,D10*%
%TO.N,unconnected-(XA1-PadD10)*%
X36576000Y-2540000D03*
%TO.P,XA1,D11,D11*%
%TO.N,unconnected-(XA1-PadD11)*%
X34036000Y-2540000D03*
%TO.P,XA1,D12,D12*%
%TO.N,unconnected-(XA1-PadD12)*%
X31496000Y-2540000D03*
%TO.P,XA1,D13,D13*%
%TO.N,unconnected-(XA1-PadD13)*%
X28956000Y-2540000D03*
%TO.P,XA1,D14,D14/TX3*%
%TO.N,unconnected-(XA1-D14{slash}TX3-PadD14)*%
X68580000Y-2540000D03*
%TO.P,XA1,D15,D15/RX3*%
%TO.N,unconnected-(XA1-D15{slash}RX3-PadD15)*%
X71120000Y-2540000D03*
%TO.P,XA1,D16,D16/TX2*%
%TO.N,unconnected-(XA1-D16{slash}TX2-PadD16)*%
X73660000Y-2540000D03*
%TO.P,XA1,D17,D17/RX2*%
%TO.N,unconnected-(XA1-D17{slash}RX2-PadD17)*%
X76200000Y-2540000D03*
%TO.P,XA1,D18,D18/TX1*%
%TO.N,unconnected-(XA1-D18{slash}TX1-PadD18)*%
X78740000Y-2540000D03*
%TO.P,XA1,D19,D19/RX1*%
%TO.N,unconnected-(XA1-D19{slash}RX1-PadD19)*%
X81280000Y-2540000D03*
%TO.P,XA1,D20,D20/SDA*%
%TO.N,unconnected-(XA1-D20{slash}SDA-PadD20)*%
X83820000Y-2540000D03*
%TO.P,XA1,D21,D21/SCL*%
%TO.N,unconnected-(XA1-D21{slash}SCL-PadD21)*%
X86360000Y-2540000D03*
%TO.P,XA1,D22,D22*%
%TO.N,unconnected-(XA1-PadD22)*%
X93980000Y-5080000D03*
%TO.P,XA1,D23,D23*%
%TO.N,unconnected-(XA1-PadD23)*%
X96520000Y-5080000D03*
%TO.P,XA1,D24,D24*%
%TO.N,unconnected-(XA1-PadD24)*%
X93980000Y-7620000D03*
%TO.P,XA1,D25,D25*%
%TO.N,unconnected-(XA1-PadD25)*%
X96520000Y-7620000D03*
%TO.P,XA1,D26,D26*%
%TO.N,unconnected-(XA1-PadD26)*%
X93980000Y-10160000D03*
%TO.P,XA1,D27,D27*%
%TO.N,unconnected-(XA1-PadD27)*%
X96520000Y-10160000D03*
%TO.P,XA1,D28,D28*%
%TO.N,unconnected-(XA1-PadD28)*%
X93980000Y-12700000D03*
%TO.P,XA1,D29,D29*%
%TO.N,unconnected-(XA1-PadD29)*%
X96520000Y-12700000D03*
%TO.P,XA1,D30,D30*%
%TO.N,/D30*%
X93980000Y-15240000D03*
%TO.P,XA1,D31,D31*%
%TO.N,/D31*%
X96520000Y-15240000D03*
%TO.P,XA1,D32,D32*%
%TO.N,/C_OFF*%
X93980000Y-17780000D03*
%TO.P,XA1,D33,D33*%
%TO.N,/C_ON*%
X96520000Y-17780000D03*
%TO.P,XA1,D34,D34*%
%TO.N,/B_OFF*%
X93980000Y-20320000D03*
%TO.P,XA1,D35,D35*%
%TO.N,/B_ON*%
X96520000Y-20320000D03*
%TO.P,XA1,D36,D36*%
%TO.N,/A_OFF*%
X93980000Y-22860000D03*
%TO.P,XA1,D37,D37*%
%TO.N,/A_ON*%
X96520000Y-22860000D03*
%TO.P,XA1,D38,D38*%
%TO.N,/D38*%
X93980000Y-25400000D03*
%TO.P,XA1,D39,D39*%
%TO.N,/D39*%
X96520000Y-25400000D03*
%TO.P,XA1,D40,D40*%
%TO.N,/D40*%
X93980000Y-27940000D03*
%TO.P,XA1,D41,D41*%
%TO.N,/D41*%
X96520000Y-27940000D03*
%TO.P,XA1,D42,D42*%
%TO.N,/D42*%
X93980000Y-30480000D03*
%TO.P,XA1,D43,D43*%
%TO.N,/D43*%
X96520000Y-30480000D03*
%TO.P,XA1,D44,D44*%
%TO.N,/D44*%
X93980000Y-33020000D03*
%TO.P,XA1,D45,D45*%
%TO.N,/D45*%
X96520000Y-33020000D03*
%TO.P,XA1,D46,D46*%
%TO.N,/D46*%
X93980000Y-35560000D03*
%TO.P,XA1,D47,D47*%
%TO.N,/D47*%
X96520000Y-35560000D03*
%TO.P,XA1,D48,D48*%
%TO.N,/D48*%
X93980000Y-38100000D03*
%TO.P,XA1,D49,D49*%
%TO.N,/D49*%
X96520000Y-38100000D03*
%TO.P,XA1,D50,D50_MISO*%
%TO.N,unconnected-(XA1-D50_MISO-PadD50)*%
X93980000Y-40640000D03*
%TO.P,XA1,D51,D51_MOSI*%
%TO.N,unconnected-(XA1-D51_MOSI-PadD51)*%
X96520000Y-40640000D03*
%TO.P,XA1,D52,D52_SCK*%
%TO.N,unconnected-(XA1-D52_SCK-PadD52)*%
X93980000Y-43180000D03*
%TO.P,XA1,D53,D53_CS*%
%TO.N,unconnected-(XA1-D53_CS-PadD53)*%
X96520000Y-43180000D03*
D19*
%TO.P,XA1,GND1,GND*%
%TO.N,/GND*%
X26416000Y-2540000D03*
%TO.P,XA1,GND2,GND*%
X40640000Y-50800000D03*
%TO.P,XA1,GND3,GND*%
X43180000Y-50800000D03*
%TO.P,XA1,GND4,SPI_GND*%
X66167000Y-27940000D03*
%TO.P,XA1,GND5,GND*%
X93980000Y-45720000D03*
%TO.P,XA1,GND6,GND*%
X96520000Y-45720000D03*
D18*
%TO.P,XA1,IORF,IOREF*%
%TO.N,/IORF*%
X30480000Y-50800000D03*
%TO.P,XA1,MISO,SPI_MISO*%
%TO.N,unconnected-(XA1-SPI_MISO-PadMISO)*%
X63627000Y-22860000D03*
%TO.P,XA1,MOSI,SPI_MOSI*%
%TO.N,unconnected-(XA1-SPI_MOSI-PadMOSI)*%
X66167000Y-25400000D03*
%TO.P,XA1,RST1,RESET*%
%TO.N,/RST*%
X33020000Y-50800000D03*
%TO.P,XA1,RST2,SPI_RESET*%
%TO.N,unconnected-(XA1-SPI_RESET-PadRST2)*%
X63627000Y-27940000D03*
%TO.P,XA1,SCK,SPI_SCK*%
%TO.N,unconnected-(XA1-SPI_SCK-PadSCK)*%
X63627000Y-25400000D03*
%TO.P,XA1,SCL,SCL*%
%TO.N,unconnected-(XA1-PadSCL)*%
X18796000Y-2540000D03*
%TO.P,XA1,SDA,SDA*%
%TO.N,unconnected-(XA1-PadSDA)*%
X21336000Y-2540000D03*
%TO.P,XA1,VIN,VIN*%
%TO.N,unconnected-(XA1-PadVIN)*%
X45720000Y-50800000D03*
%TD*%
D20*
%TO.N,/AREF*%
X28956000Y-5080000D02*
X24638000Y-5080000D01*
X67912000Y-44036000D02*
X28956000Y-5080000D01*
X24638000Y-5080000D02*
X23876000Y-4318000D01*
X73580000Y-44036000D02*
X67912000Y-44036000D01*
X23876000Y-4318000D02*
X23876000Y-2540000D01*
X82296000Y-48260000D02*
X77804000Y-48260000D01*
X83312000Y-47244000D02*
X82296000Y-48260000D01*
X77804000Y-48260000D02*
X73580000Y-44036000D01*
X83312000Y-44196000D02*
X83312000Y-47244000D01*
X86360000Y-41148000D02*
X83312000Y-44196000D01*
D21*
%TO.N,/5V*%
X81200000Y-30918000D02*
X81200000Y-46586000D01*
X78730000Y-28448000D02*
X81200000Y-30918000D01*
D20*
%TO.N,/3V3*%
X73406000Y-19304000D02*
X73406000Y-31750000D01*
X75438000Y-17272000D02*
X73406000Y-19304000D01*
X73406000Y-31750000D02*
X75004000Y-33348000D01*
X75004000Y-33348000D02*
X78306000Y-33348000D01*
D22*
%TO.N,/A_ON*%
X95250000Y-24130000D02*
X96520000Y-22860000D01*
X92710000Y-24130000D02*
X95250000Y-24130000D01*
X91440000Y-22860000D02*
X92710000Y-24130000D01*
X89533604Y-19050000D02*
X91440000Y-20956396D01*
X91440000Y-20956396D02*
X91440000Y-22860000D01*
X78740000Y-19050000D02*
X89533604Y-19050000D01*
X77978000Y-19812000D02*
X78740000Y-19050000D01*
%TO.N,/B_OFF*%
X87122000Y-14224000D02*
X93218000Y-20320000D01*
X80010000Y-14224000D02*
X87122000Y-14224000D01*
X77978000Y-12192000D02*
X80010000Y-14224000D01*
X93218000Y-20320000D02*
X93980000Y-20320000D01*
%TO.N,/C_ON*%
X95250000Y-19050000D02*
X96520000Y-17780000D01*
X93340812Y-19050000D02*
X95250000Y-19050000D01*
X85212812Y-10922000D02*
X93340812Y-19050000D01*
X79248000Y-10922000D02*
X85212812Y-10922000D01*
X77978000Y-9652000D02*
X79248000Y-10922000D01*
%TO.N,/C_OFF*%
X92707208Y-17780000D02*
X93980000Y-17780000D01*
X85341208Y-10414000D02*
X92707208Y-17780000D01*
X80772000Y-10414000D02*
X85341208Y-10414000D01*
X78486000Y-8128000D02*
X80772000Y-10414000D01*
X75438000Y-9652000D02*
X76962000Y-8128000D01*
X76962000Y-8128000D02*
X78486000Y-8128000D01*
%TO.N,/D31*%
X85469604Y-9906000D02*
X92073604Y-16510000D01*
X80900396Y-9906000D02*
X85469604Y-9906000D01*
X95250000Y-16510000D02*
X96520000Y-15240000D01*
X78614396Y-7620000D02*
X80900396Y-9906000D01*
X75692000Y-7620000D02*
X78614396Y-7620000D01*
X74168000Y-10922000D02*
X74168000Y-9144000D01*
X75438000Y-12192000D02*
X74168000Y-10922000D01*
X74168000Y-9144000D02*
X75692000Y-7620000D01*
X92073604Y-16510000D02*
X95250000Y-16510000D01*
%TO.N,/D30*%
X91440000Y-15240000D02*
X93980000Y-15240000D01*
X78742792Y-7112000D02*
X81028792Y-9398000D01*
X85598000Y-9398000D02*
X91440000Y-15240000D01*
X73718000Y-8957604D02*
X75563604Y-7112000D01*
X75563604Y-7112000D02*
X78742792Y-7112000D01*
X73718000Y-13012000D02*
X73718000Y-8957604D01*
X81028792Y-9398000D02*
X85598000Y-9398000D01*
X75438000Y-14732000D02*
X73718000Y-13012000D01*
%TO.N,/A_OFF*%
X77978000Y-17272000D02*
X88392000Y-17272000D01*
X88392000Y-17272000D02*
X93980000Y-22860000D01*
%TO.N,/B_ON*%
X93487665Y-21508600D02*
X95331400Y-21508600D01*
X95331400Y-21508600D02*
X96520000Y-20320000D01*
X86711065Y-14732000D02*
X93487665Y-21508600D01*
X77978000Y-14732000D02*
X86711065Y-14732000D01*
%TO.N,/D38*%
X93218000Y-24638000D02*
X93980000Y-25400000D01*
X86360000Y-23368000D02*
X87630000Y-24638000D01*
X87630000Y-24638000D02*
X93218000Y-24638000D01*
%TD*%
M02*
