%TF.GenerationSoftware,KiCad,Pcbnew,7.0.6*%
%TF.CreationDate,2023-09-19T17:21:49+08:00*%
%TF.ProjectId,ControlPanel_RF_Breakout,436f6e74-726f-46c5-9061-6e656c5f5246,0*%
%TF.SameCoordinates,Original*%
%TF.FileFunction,Legend,Top*%
%TF.FilePolarity,Positive*%
%FSLAX46Y46*%
G04 Gerber Fmt 4.6, Leading zero omitted, Abs format (unit mm)*
G04 Created by KiCad (PCBNEW 7.0.6) date 2023-09-19 17:21:49*
%MOMM*%
%LPD*%
G01*
G04 APERTURE LIST*
%ADD10C,0.150000*%
%ADD11C,0.120000*%
G04 APERTURE END LIST*
D10*
X53147817Y-28858104D02*
X53624007Y-28858104D01*
X53052579Y-29143819D02*
X53385912Y-28143819D01*
X53385912Y-28143819D02*
X53719245Y-29143819D01*
X53814484Y-29239057D02*
X54576388Y-29239057D01*
X55004960Y-28143819D02*
X55195436Y-28143819D01*
X55195436Y-28143819D02*
X55290674Y-28191438D01*
X55290674Y-28191438D02*
X55385912Y-28286676D01*
X55385912Y-28286676D02*
X55433531Y-28477152D01*
X55433531Y-28477152D02*
X55433531Y-28810485D01*
X55433531Y-28810485D02*
X55385912Y-29000961D01*
X55385912Y-29000961D02*
X55290674Y-29096200D01*
X55290674Y-29096200D02*
X55195436Y-29143819D01*
X55195436Y-29143819D02*
X55004960Y-29143819D01*
X55004960Y-29143819D02*
X54909722Y-29096200D01*
X54909722Y-29096200D02*
X54814484Y-29000961D01*
X54814484Y-29000961D02*
X54766865Y-28810485D01*
X54766865Y-28810485D02*
X54766865Y-28477152D01*
X54766865Y-28477152D02*
X54814484Y-28286676D01*
X54814484Y-28286676D02*
X54909722Y-28191438D01*
X54909722Y-28191438D02*
X55004960Y-28143819D01*
X55862103Y-29143819D02*
X55862103Y-28143819D01*
X55862103Y-28143819D02*
X56433531Y-29143819D01*
X56433531Y-29143819D02*
X56433531Y-28143819D01*
X22347435Y-29048580D02*
X22299816Y-29096200D01*
X22299816Y-29096200D02*
X22156959Y-29143819D01*
X22156959Y-29143819D02*
X22061721Y-29143819D01*
X22061721Y-29143819D02*
X21918864Y-29096200D01*
X21918864Y-29096200D02*
X21823626Y-29000961D01*
X21823626Y-29000961D02*
X21776007Y-28905723D01*
X21776007Y-28905723D02*
X21728388Y-28715247D01*
X21728388Y-28715247D02*
X21728388Y-28572390D01*
X21728388Y-28572390D02*
X21776007Y-28381914D01*
X21776007Y-28381914D02*
X21823626Y-28286676D01*
X21823626Y-28286676D02*
X21918864Y-28191438D01*
X21918864Y-28191438D02*
X22061721Y-28143819D01*
X22061721Y-28143819D02*
X22156959Y-28143819D01*
X22156959Y-28143819D02*
X22299816Y-28191438D01*
X22299816Y-28191438D02*
X22347435Y-28239057D01*
X22537912Y-29239057D02*
X23299816Y-29239057D01*
X23728388Y-28143819D02*
X23918864Y-28143819D01*
X23918864Y-28143819D02*
X24014102Y-28191438D01*
X24014102Y-28191438D02*
X24109340Y-28286676D01*
X24109340Y-28286676D02*
X24156959Y-28477152D01*
X24156959Y-28477152D02*
X24156959Y-28810485D01*
X24156959Y-28810485D02*
X24109340Y-29000961D01*
X24109340Y-29000961D02*
X24014102Y-29096200D01*
X24014102Y-29096200D02*
X23918864Y-29143819D01*
X23918864Y-29143819D02*
X23728388Y-29143819D01*
X23728388Y-29143819D02*
X23633150Y-29096200D01*
X23633150Y-29096200D02*
X23537912Y-29000961D01*
X23537912Y-29000961D02*
X23490293Y-28810485D01*
X23490293Y-28810485D02*
X23490293Y-28477152D01*
X23490293Y-28477152D02*
X23537912Y-28286676D01*
X23537912Y-28286676D02*
X23633150Y-28191438D01*
X23633150Y-28191438D02*
X23728388Y-28143819D01*
X24585531Y-29143819D02*
X24585531Y-28143819D01*
X24585531Y-28143819D02*
X25156959Y-29143819D01*
X25156959Y-29143819D02*
X25156959Y-28143819D01*
X-4529782Y-29143819D02*
X-4529782Y-28143819D01*
X-4529782Y-28143819D02*
X-4291687Y-28143819D01*
X-4291687Y-28143819D02*
X-4148830Y-28191438D01*
X-4148830Y-28191438D02*
X-4053592Y-28286676D01*
X-4053592Y-28286676D02*
X-4005973Y-28381914D01*
X-4005973Y-28381914D02*
X-3958354Y-28572390D01*
X-3958354Y-28572390D02*
X-3958354Y-28715247D01*
X-3958354Y-28715247D02*
X-4005973Y-28905723D01*
X-4005973Y-28905723D02*
X-4053592Y-29000961D01*
X-4053592Y-29000961D02*
X-4148830Y-29096200D01*
X-4148830Y-29096200D02*
X-4291687Y-29143819D01*
X-4291687Y-29143819D02*
X-4529782Y-29143819D01*
X-3767878Y-29239057D02*
X-3005973Y-29239057D01*
X-2244068Y-28191438D02*
X-2339306Y-28143819D01*
X-2339306Y-28143819D02*
X-2482163Y-28143819D01*
X-2482163Y-28143819D02*
X-2625020Y-28191438D01*
X-2625020Y-28191438D02*
X-2720258Y-28286676D01*
X-2720258Y-28286676D02*
X-2767877Y-28381914D01*
X-2767877Y-28381914D02*
X-2815496Y-28572390D01*
X-2815496Y-28572390D02*
X-2815496Y-28715247D01*
X-2815496Y-28715247D02*
X-2767877Y-28905723D01*
X-2767877Y-28905723D02*
X-2720258Y-29000961D01*
X-2720258Y-29000961D02*
X-2625020Y-29096200D01*
X-2625020Y-29096200D02*
X-2482163Y-29143819D01*
X-2482163Y-29143819D02*
X-2386925Y-29143819D01*
X-2386925Y-29143819D02*
X-2244068Y-29096200D01*
X-2244068Y-29096200D02*
X-2196449Y-29048580D01*
X-2196449Y-29048580D02*
X-2196449Y-28715247D01*
X-2196449Y-28715247D02*
X-2386925Y-28715247D01*
X-1767877Y-29143819D02*
X-1767877Y-28143819D01*
X-1767877Y-28143819D02*
X-1196449Y-29143819D01*
X-1196449Y-29143819D02*
X-1196449Y-28143819D01*
X-720258Y-29143819D02*
X-720258Y-28143819D01*
X-720258Y-28143819D02*
X-482163Y-28143819D01*
X-482163Y-28143819D02*
X-339306Y-28191438D01*
X-339306Y-28191438D02*
X-244068Y-28286676D01*
X-244068Y-28286676D02*
X-196449Y-28381914D01*
X-196449Y-28381914D02*
X-148830Y-28572390D01*
X-148830Y-28572390D02*
X-148830Y-28715247D01*
X-148830Y-28715247D02*
X-196449Y-28905723D01*
X-196449Y-28905723D02*
X-244068Y-29000961D01*
X-244068Y-29000961D02*
X-339306Y-29096200D01*
X-339306Y-29096200D02*
X-482163Y-29143819D01*
X-482163Y-29143819D02*
X-720258Y-29143819D01*
X11711245Y-29048580D02*
X11663626Y-29096200D01*
X11663626Y-29096200D02*
X11520769Y-29143819D01*
X11520769Y-29143819D02*
X11425531Y-29143819D01*
X11425531Y-29143819D02*
X11282674Y-29096200D01*
X11282674Y-29096200D02*
X11187436Y-29000961D01*
X11187436Y-29000961D02*
X11139817Y-28905723D01*
X11139817Y-28905723D02*
X11092198Y-28715247D01*
X11092198Y-28715247D02*
X11092198Y-28572390D01*
X11092198Y-28572390D02*
X11139817Y-28381914D01*
X11139817Y-28381914D02*
X11187436Y-28286676D01*
X11187436Y-28286676D02*
X11282674Y-28191438D01*
X11282674Y-28191438D02*
X11425531Y-28143819D01*
X11425531Y-28143819D02*
X11520769Y-28143819D01*
X11520769Y-28143819D02*
X11663626Y-28191438D01*
X11663626Y-28191438D02*
X11711245Y-28239057D01*
X11901722Y-29239057D02*
X12663626Y-29239057D01*
X13425531Y-28191438D02*
X13330293Y-28143819D01*
X13330293Y-28143819D02*
X13187436Y-28143819D01*
X13187436Y-28143819D02*
X13044579Y-28191438D01*
X13044579Y-28191438D02*
X12949341Y-28286676D01*
X12949341Y-28286676D02*
X12901722Y-28381914D01*
X12901722Y-28381914D02*
X12854103Y-28572390D01*
X12854103Y-28572390D02*
X12854103Y-28715247D01*
X12854103Y-28715247D02*
X12901722Y-28905723D01*
X12901722Y-28905723D02*
X12949341Y-29000961D01*
X12949341Y-29000961D02*
X13044579Y-29096200D01*
X13044579Y-29096200D02*
X13187436Y-29143819D01*
X13187436Y-29143819D02*
X13282674Y-29143819D01*
X13282674Y-29143819D02*
X13425531Y-29096200D01*
X13425531Y-29096200D02*
X13473150Y-29048580D01*
X13473150Y-29048580D02*
X13473150Y-28715247D01*
X13473150Y-28715247D02*
X13282674Y-28715247D01*
X13901722Y-29143819D02*
X13901722Y-28143819D01*
X13901722Y-28143819D02*
X14473150Y-29143819D01*
X14473150Y-29143819D02*
X14473150Y-28143819D01*
X14949341Y-29143819D02*
X14949341Y-28143819D01*
X14949341Y-28143819D02*
X15187436Y-28143819D01*
X15187436Y-28143819D02*
X15330293Y-28191438D01*
X15330293Y-28191438D02*
X15425531Y-28286676D01*
X15425531Y-28286676D02*
X15473150Y-28381914D01*
X15473150Y-28381914D02*
X15520769Y-28572390D01*
X15520769Y-28572390D02*
X15520769Y-28715247D01*
X15520769Y-28715247D02*
X15473150Y-28905723D01*
X15473150Y-28905723D02*
X15425531Y-29000961D01*
X15425531Y-29000961D02*
X15330293Y-29096200D01*
X15330293Y-29096200D02*
X15187436Y-29143819D01*
X15187436Y-29143819D02*
X14949341Y-29143819D01*
X693074Y-29143819D02*
X693074Y-28143819D01*
X693074Y-28143819D02*
X931169Y-28143819D01*
X931169Y-28143819D02*
X1074026Y-28191438D01*
X1074026Y-28191438D02*
X1169264Y-28286676D01*
X1169264Y-28286676D02*
X1216883Y-28381914D01*
X1216883Y-28381914D02*
X1264502Y-28572390D01*
X1264502Y-28572390D02*
X1264502Y-28715247D01*
X1264502Y-28715247D02*
X1216883Y-28905723D01*
X1216883Y-28905723D02*
X1169264Y-29000961D01*
X1169264Y-29000961D02*
X1074026Y-29096200D01*
X1074026Y-29096200D02*
X931169Y-29143819D01*
X931169Y-29143819D02*
X693074Y-29143819D01*
X1454979Y-29239057D02*
X2216883Y-29239057D01*
X2645455Y-28143819D02*
X2835931Y-28143819D01*
X2835931Y-28143819D02*
X2931169Y-28191438D01*
X2931169Y-28191438D02*
X3026407Y-28286676D01*
X3026407Y-28286676D02*
X3074026Y-28477152D01*
X3074026Y-28477152D02*
X3074026Y-28810485D01*
X3074026Y-28810485D02*
X3026407Y-29000961D01*
X3026407Y-29000961D02*
X2931169Y-29096200D01*
X2931169Y-29096200D02*
X2835931Y-29143819D01*
X2835931Y-29143819D02*
X2645455Y-29143819D01*
X2645455Y-29143819D02*
X2550217Y-29096200D01*
X2550217Y-29096200D02*
X2454979Y-29000961D01*
X2454979Y-29000961D02*
X2407360Y-28810485D01*
X2407360Y-28810485D02*
X2407360Y-28477152D01*
X2407360Y-28477152D02*
X2454979Y-28286676D01*
X2454979Y-28286676D02*
X2550217Y-28191438D01*
X2550217Y-28191438D02*
X2645455Y-28143819D01*
X3835931Y-28620009D02*
X3502598Y-28620009D01*
X3502598Y-29143819D02*
X3502598Y-28143819D01*
X3502598Y-28143819D02*
X3978788Y-28143819D01*
X4693074Y-28620009D02*
X4359741Y-28620009D01*
X4359741Y-29143819D02*
X4359741Y-28143819D01*
X4359741Y-28143819D02*
X4835931Y-28143819D01*
X42511626Y-28858104D02*
X42987816Y-28858104D01*
X42416388Y-29143819D02*
X42749721Y-28143819D01*
X42749721Y-28143819D02*
X43083054Y-29143819D01*
X43178293Y-29239057D02*
X43940197Y-29239057D01*
X44702102Y-28191438D02*
X44606864Y-28143819D01*
X44606864Y-28143819D02*
X44464007Y-28143819D01*
X44464007Y-28143819D02*
X44321150Y-28191438D01*
X44321150Y-28191438D02*
X44225912Y-28286676D01*
X44225912Y-28286676D02*
X44178293Y-28381914D01*
X44178293Y-28381914D02*
X44130674Y-28572390D01*
X44130674Y-28572390D02*
X44130674Y-28715247D01*
X44130674Y-28715247D02*
X44178293Y-28905723D01*
X44178293Y-28905723D02*
X44225912Y-29000961D01*
X44225912Y-29000961D02*
X44321150Y-29096200D01*
X44321150Y-29096200D02*
X44464007Y-29143819D01*
X44464007Y-29143819D02*
X44559245Y-29143819D01*
X44559245Y-29143819D02*
X44702102Y-29096200D01*
X44702102Y-29096200D02*
X44749721Y-29048580D01*
X44749721Y-29048580D02*
X44749721Y-28715247D01*
X44749721Y-28715247D02*
X44559245Y-28715247D01*
X45178293Y-29143819D02*
X45178293Y-28143819D01*
X45178293Y-28143819D02*
X45749721Y-29143819D01*
X45749721Y-29143819D02*
X45749721Y-28143819D01*
X46225912Y-29143819D02*
X46225912Y-28143819D01*
X46225912Y-28143819D02*
X46464007Y-28143819D01*
X46464007Y-28143819D02*
X46606864Y-28191438D01*
X46606864Y-28191438D02*
X46702102Y-28286676D01*
X46702102Y-28286676D02*
X46749721Y-28381914D01*
X46749721Y-28381914D02*
X46797340Y-28572390D01*
X46797340Y-28572390D02*
X46797340Y-28715247D01*
X46797340Y-28715247D02*
X46749721Y-28905723D01*
X46749721Y-28905723D02*
X46702102Y-29000961D01*
X46702102Y-29000961D02*
X46606864Y-29096200D01*
X46606864Y-29096200D02*
X46464007Y-29143819D01*
X46464007Y-29143819D02*
X46225912Y-29143819D01*
X16934102Y-29048580D02*
X16886483Y-29096200D01*
X16886483Y-29096200D02*
X16743626Y-29143819D01*
X16743626Y-29143819D02*
X16648388Y-29143819D01*
X16648388Y-29143819D02*
X16505531Y-29096200D01*
X16505531Y-29096200D02*
X16410293Y-29000961D01*
X16410293Y-29000961D02*
X16362674Y-28905723D01*
X16362674Y-28905723D02*
X16315055Y-28715247D01*
X16315055Y-28715247D02*
X16315055Y-28572390D01*
X16315055Y-28572390D02*
X16362674Y-28381914D01*
X16362674Y-28381914D02*
X16410293Y-28286676D01*
X16410293Y-28286676D02*
X16505531Y-28191438D01*
X16505531Y-28191438D02*
X16648388Y-28143819D01*
X16648388Y-28143819D02*
X16743626Y-28143819D01*
X16743626Y-28143819D02*
X16886483Y-28191438D01*
X16886483Y-28191438D02*
X16934102Y-28239057D01*
X17124579Y-29239057D02*
X17886483Y-29239057D01*
X18315055Y-28143819D02*
X18505531Y-28143819D01*
X18505531Y-28143819D02*
X18600769Y-28191438D01*
X18600769Y-28191438D02*
X18696007Y-28286676D01*
X18696007Y-28286676D02*
X18743626Y-28477152D01*
X18743626Y-28477152D02*
X18743626Y-28810485D01*
X18743626Y-28810485D02*
X18696007Y-29000961D01*
X18696007Y-29000961D02*
X18600769Y-29096200D01*
X18600769Y-29096200D02*
X18505531Y-29143819D01*
X18505531Y-29143819D02*
X18315055Y-29143819D01*
X18315055Y-29143819D02*
X18219817Y-29096200D01*
X18219817Y-29096200D02*
X18124579Y-29000961D01*
X18124579Y-29000961D02*
X18076960Y-28810485D01*
X18076960Y-28810485D02*
X18076960Y-28477152D01*
X18076960Y-28477152D02*
X18124579Y-28286676D01*
X18124579Y-28286676D02*
X18219817Y-28191438D01*
X18219817Y-28191438D02*
X18315055Y-28143819D01*
X19505531Y-28620009D02*
X19172198Y-28620009D01*
X19172198Y-29143819D02*
X19172198Y-28143819D01*
X19172198Y-28143819D02*
X19648388Y-28143819D01*
X20362674Y-28620009D02*
X20029341Y-28620009D01*
X20029341Y-29143819D02*
X20029341Y-28143819D01*
X20029341Y-28143819D02*
X20505531Y-28143819D01*
X32367807Y-28620009D02*
X32510664Y-28667628D01*
X32510664Y-28667628D02*
X32558283Y-28715247D01*
X32558283Y-28715247D02*
X32605902Y-28810485D01*
X32605902Y-28810485D02*
X32605902Y-28953342D01*
X32605902Y-28953342D02*
X32558283Y-29048580D01*
X32558283Y-29048580D02*
X32510664Y-29096200D01*
X32510664Y-29096200D02*
X32415426Y-29143819D01*
X32415426Y-29143819D02*
X32034474Y-29143819D01*
X32034474Y-29143819D02*
X32034474Y-28143819D01*
X32034474Y-28143819D02*
X32367807Y-28143819D01*
X32367807Y-28143819D02*
X32463045Y-28191438D01*
X32463045Y-28191438D02*
X32510664Y-28239057D01*
X32510664Y-28239057D02*
X32558283Y-28334295D01*
X32558283Y-28334295D02*
X32558283Y-28429533D01*
X32558283Y-28429533D02*
X32510664Y-28524771D01*
X32510664Y-28524771D02*
X32463045Y-28572390D01*
X32463045Y-28572390D02*
X32367807Y-28620009D01*
X32367807Y-28620009D02*
X32034474Y-28620009D01*
X32796379Y-29239057D02*
X33558283Y-29239057D01*
X33986855Y-28143819D02*
X34177331Y-28143819D01*
X34177331Y-28143819D02*
X34272569Y-28191438D01*
X34272569Y-28191438D02*
X34367807Y-28286676D01*
X34367807Y-28286676D02*
X34415426Y-28477152D01*
X34415426Y-28477152D02*
X34415426Y-28810485D01*
X34415426Y-28810485D02*
X34367807Y-29000961D01*
X34367807Y-29000961D02*
X34272569Y-29096200D01*
X34272569Y-29096200D02*
X34177331Y-29143819D01*
X34177331Y-29143819D02*
X33986855Y-29143819D01*
X33986855Y-29143819D02*
X33891617Y-29096200D01*
X33891617Y-29096200D02*
X33796379Y-29000961D01*
X33796379Y-29000961D02*
X33748760Y-28810485D01*
X33748760Y-28810485D02*
X33748760Y-28477152D01*
X33748760Y-28477152D02*
X33796379Y-28286676D01*
X33796379Y-28286676D02*
X33891617Y-28191438D01*
X33891617Y-28191438D02*
X33986855Y-28143819D01*
X35177331Y-28620009D02*
X34843998Y-28620009D01*
X34843998Y-29143819D02*
X34843998Y-28143819D01*
X34843998Y-28143819D02*
X35320188Y-28143819D01*
X36034474Y-28620009D02*
X35701141Y-28620009D01*
X35701141Y-29143819D02*
X35701141Y-28143819D01*
X35701141Y-28143819D02*
X36177331Y-28143819D01*
X47734483Y-28858104D02*
X48210673Y-28858104D01*
X47639245Y-29143819D02*
X47972578Y-28143819D01*
X47972578Y-28143819D02*
X48305911Y-29143819D01*
X48401150Y-29239057D02*
X49163054Y-29239057D01*
X49591626Y-28143819D02*
X49782102Y-28143819D01*
X49782102Y-28143819D02*
X49877340Y-28191438D01*
X49877340Y-28191438D02*
X49972578Y-28286676D01*
X49972578Y-28286676D02*
X50020197Y-28477152D01*
X50020197Y-28477152D02*
X50020197Y-28810485D01*
X50020197Y-28810485D02*
X49972578Y-29000961D01*
X49972578Y-29000961D02*
X49877340Y-29096200D01*
X49877340Y-29096200D02*
X49782102Y-29143819D01*
X49782102Y-29143819D02*
X49591626Y-29143819D01*
X49591626Y-29143819D02*
X49496388Y-29096200D01*
X49496388Y-29096200D02*
X49401150Y-29000961D01*
X49401150Y-29000961D02*
X49353531Y-28810485D01*
X49353531Y-28810485D02*
X49353531Y-28477152D01*
X49353531Y-28477152D02*
X49401150Y-28286676D01*
X49401150Y-28286676D02*
X49496388Y-28191438D01*
X49496388Y-28191438D02*
X49591626Y-28143819D01*
X50782102Y-28620009D02*
X50448769Y-28620009D01*
X50448769Y-29143819D02*
X50448769Y-28143819D01*
X50448769Y-28143819D02*
X50924959Y-28143819D01*
X51639245Y-28620009D02*
X51305912Y-28620009D01*
X51305912Y-29143819D02*
X51305912Y-28143819D01*
X51305912Y-28143819D02*
X51782102Y-28143819D01*
X37781140Y-28620009D02*
X37923997Y-28667628D01*
X37923997Y-28667628D02*
X37971616Y-28715247D01*
X37971616Y-28715247D02*
X38019235Y-28810485D01*
X38019235Y-28810485D02*
X38019235Y-28953342D01*
X38019235Y-28953342D02*
X37971616Y-29048580D01*
X37971616Y-29048580D02*
X37923997Y-29096200D01*
X37923997Y-29096200D02*
X37828759Y-29143819D01*
X37828759Y-29143819D02*
X37447807Y-29143819D01*
X37447807Y-29143819D02*
X37447807Y-28143819D01*
X37447807Y-28143819D02*
X37781140Y-28143819D01*
X37781140Y-28143819D02*
X37876378Y-28191438D01*
X37876378Y-28191438D02*
X37923997Y-28239057D01*
X37923997Y-28239057D02*
X37971616Y-28334295D01*
X37971616Y-28334295D02*
X37971616Y-28429533D01*
X37971616Y-28429533D02*
X37923997Y-28524771D01*
X37923997Y-28524771D02*
X37876378Y-28572390D01*
X37876378Y-28572390D02*
X37781140Y-28620009D01*
X37781140Y-28620009D02*
X37447807Y-28620009D01*
X38209712Y-29239057D02*
X38971616Y-29239057D01*
X39400188Y-28143819D02*
X39590664Y-28143819D01*
X39590664Y-28143819D02*
X39685902Y-28191438D01*
X39685902Y-28191438D02*
X39781140Y-28286676D01*
X39781140Y-28286676D02*
X39828759Y-28477152D01*
X39828759Y-28477152D02*
X39828759Y-28810485D01*
X39828759Y-28810485D02*
X39781140Y-29000961D01*
X39781140Y-29000961D02*
X39685902Y-29096200D01*
X39685902Y-29096200D02*
X39590664Y-29143819D01*
X39590664Y-29143819D02*
X39400188Y-29143819D01*
X39400188Y-29143819D02*
X39304950Y-29096200D01*
X39304950Y-29096200D02*
X39209712Y-29000961D01*
X39209712Y-29000961D02*
X39162093Y-28810485D01*
X39162093Y-28810485D02*
X39162093Y-28477152D01*
X39162093Y-28477152D02*
X39209712Y-28286676D01*
X39209712Y-28286676D02*
X39304950Y-28191438D01*
X39304950Y-28191438D02*
X39400188Y-28143819D01*
X40257331Y-29143819D02*
X40257331Y-28143819D01*
X40257331Y-28143819D02*
X40828759Y-29143819D01*
X40828759Y-29143819D02*
X40828759Y-28143819D01*
X-6743819Y-15753589D02*
X-6743819Y-16372636D01*
X-6743819Y-16372636D02*
X-7124771Y-16039303D01*
X-7124771Y-16039303D02*
X-7124771Y-16182160D01*
X-7124771Y-16182160D02*
X-7172390Y-16277398D01*
X-7172390Y-16277398D02*
X-7220009Y-16325017D01*
X-7220009Y-16325017D02*
X-7315247Y-16372636D01*
X-7315247Y-16372636D02*
X-7553342Y-16372636D01*
X-7553342Y-16372636D02*
X-7648580Y-16325017D01*
X-7648580Y-16325017D02*
X-7696200Y-16277398D01*
X-7696200Y-16277398D02*
X-7743819Y-16182160D01*
X-7743819Y-16182160D02*
X-7743819Y-15896446D01*
X-7743819Y-15896446D02*
X-7696200Y-15801208D01*
X-7696200Y-15801208D02*
X-7648580Y-15753589D01*
X-6743819Y-16658351D02*
X-7743819Y-16991684D01*
X-7743819Y-16991684D02*
X-6743819Y-17325017D01*
X-6743819Y-17563113D02*
X-6743819Y-18182160D01*
X-6743819Y-18182160D02*
X-7124771Y-17848827D01*
X-7124771Y-17848827D02*
X-7124771Y-17991684D01*
X-7124771Y-17991684D02*
X-7172390Y-18086922D01*
X-7172390Y-18086922D02*
X-7220009Y-18134541D01*
X-7220009Y-18134541D02*
X-7315247Y-18182160D01*
X-7315247Y-18182160D02*
X-7553342Y-18182160D01*
X-7553342Y-18182160D02*
X-7648580Y-18134541D01*
X-7648580Y-18134541D02*
X-7696200Y-18086922D01*
X-7696200Y-18086922D02*
X-7743819Y-17991684D01*
X-7743819Y-17991684D02*
X-7743819Y-17705970D01*
X-7743819Y-17705970D02*
X-7696200Y-17610732D01*
X-7696200Y-17610732D02*
X-7648580Y-17563113D01*
X27144950Y-28620009D02*
X27287807Y-28667628D01*
X27287807Y-28667628D02*
X27335426Y-28715247D01*
X27335426Y-28715247D02*
X27383045Y-28810485D01*
X27383045Y-28810485D02*
X27383045Y-28953342D01*
X27383045Y-28953342D02*
X27335426Y-29048580D01*
X27335426Y-29048580D02*
X27287807Y-29096200D01*
X27287807Y-29096200D02*
X27192569Y-29143819D01*
X27192569Y-29143819D02*
X26811617Y-29143819D01*
X26811617Y-29143819D02*
X26811617Y-28143819D01*
X26811617Y-28143819D02*
X27144950Y-28143819D01*
X27144950Y-28143819D02*
X27240188Y-28191438D01*
X27240188Y-28191438D02*
X27287807Y-28239057D01*
X27287807Y-28239057D02*
X27335426Y-28334295D01*
X27335426Y-28334295D02*
X27335426Y-28429533D01*
X27335426Y-28429533D02*
X27287807Y-28524771D01*
X27287807Y-28524771D02*
X27240188Y-28572390D01*
X27240188Y-28572390D02*
X27144950Y-28620009D01*
X27144950Y-28620009D02*
X26811617Y-28620009D01*
X27573522Y-29239057D02*
X28335426Y-29239057D01*
X29097331Y-28191438D02*
X29002093Y-28143819D01*
X29002093Y-28143819D02*
X28859236Y-28143819D01*
X28859236Y-28143819D02*
X28716379Y-28191438D01*
X28716379Y-28191438D02*
X28621141Y-28286676D01*
X28621141Y-28286676D02*
X28573522Y-28381914D01*
X28573522Y-28381914D02*
X28525903Y-28572390D01*
X28525903Y-28572390D02*
X28525903Y-28715247D01*
X28525903Y-28715247D02*
X28573522Y-28905723D01*
X28573522Y-28905723D02*
X28621141Y-29000961D01*
X28621141Y-29000961D02*
X28716379Y-29096200D01*
X28716379Y-29096200D02*
X28859236Y-29143819D01*
X28859236Y-29143819D02*
X28954474Y-29143819D01*
X28954474Y-29143819D02*
X29097331Y-29096200D01*
X29097331Y-29096200D02*
X29144950Y-29048580D01*
X29144950Y-29048580D02*
X29144950Y-28715247D01*
X29144950Y-28715247D02*
X28954474Y-28715247D01*
X29573522Y-29143819D02*
X29573522Y-28143819D01*
X29573522Y-28143819D02*
X30144950Y-29143819D01*
X30144950Y-29143819D02*
X30144950Y-28143819D01*
X30621141Y-29143819D02*
X30621141Y-28143819D01*
X30621141Y-28143819D02*
X30859236Y-28143819D01*
X30859236Y-28143819D02*
X31002093Y-28191438D01*
X31002093Y-28191438D02*
X31097331Y-28286676D01*
X31097331Y-28286676D02*
X31144950Y-28381914D01*
X31144950Y-28381914D02*
X31192569Y-28572390D01*
X31192569Y-28572390D02*
X31192569Y-28715247D01*
X31192569Y-28715247D02*
X31144950Y-28905723D01*
X31144950Y-28905723D02*
X31097331Y-29000961D01*
X31097331Y-29000961D02*
X31002093Y-29096200D01*
X31002093Y-29096200D02*
X30859236Y-29143819D01*
X30859236Y-29143819D02*
X30621141Y-29143819D01*
X-6791438Y-21309779D02*
X-6743819Y-21214541D01*
X-6743819Y-21214541D02*
X-6743819Y-21071684D01*
X-6743819Y-21071684D02*
X-6791438Y-20928827D01*
X-6791438Y-20928827D02*
X-6886676Y-20833589D01*
X-6886676Y-20833589D02*
X-6981914Y-20785970D01*
X-6981914Y-20785970D02*
X-7172390Y-20738351D01*
X-7172390Y-20738351D02*
X-7315247Y-20738351D01*
X-7315247Y-20738351D02*
X-7505723Y-20785970D01*
X-7505723Y-20785970D02*
X-7600961Y-20833589D01*
X-7600961Y-20833589D02*
X-7696200Y-20928827D01*
X-7696200Y-20928827D02*
X-7743819Y-21071684D01*
X-7743819Y-21071684D02*
X-7743819Y-21166922D01*
X-7743819Y-21166922D02*
X-7696200Y-21309779D01*
X-7696200Y-21309779D02*
X-7648580Y-21357398D01*
X-7648580Y-21357398D02*
X-7315247Y-21357398D01*
X-7315247Y-21357398D02*
X-7315247Y-21166922D01*
X-7743819Y-21785970D02*
X-6743819Y-21785970D01*
X-6743819Y-21785970D02*
X-7743819Y-22357398D01*
X-7743819Y-22357398D02*
X-6743819Y-22357398D01*
X-7743819Y-22833589D02*
X-6743819Y-22833589D01*
X-6743819Y-22833589D02*
X-6743819Y-23071684D01*
X-6743819Y-23071684D02*
X-6791438Y-23214541D01*
X-6791438Y-23214541D02*
X-6886676Y-23309779D01*
X-6886676Y-23309779D02*
X-6981914Y-23357398D01*
X-6981914Y-23357398D02*
X-7172390Y-23405017D01*
X-7172390Y-23405017D02*
X-7315247Y-23405017D01*
X-7315247Y-23405017D02*
X-7505723Y-23357398D01*
X-7505723Y-23357398D02*
X-7600961Y-23309779D01*
X-7600961Y-23309779D02*
X-7696200Y-23214541D01*
X-7696200Y-23214541D02*
X-7743819Y-23071684D01*
X-7743819Y-23071684D02*
X-7743819Y-22833589D01*
X6106407Y-29143819D02*
X6106407Y-28143819D01*
X6106407Y-28143819D02*
X6344502Y-28143819D01*
X6344502Y-28143819D02*
X6487359Y-28191438D01*
X6487359Y-28191438D02*
X6582597Y-28286676D01*
X6582597Y-28286676D02*
X6630216Y-28381914D01*
X6630216Y-28381914D02*
X6677835Y-28572390D01*
X6677835Y-28572390D02*
X6677835Y-28715247D01*
X6677835Y-28715247D02*
X6630216Y-28905723D01*
X6630216Y-28905723D02*
X6582597Y-29000961D01*
X6582597Y-29000961D02*
X6487359Y-29096200D01*
X6487359Y-29096200D02*
X6344502Y-29143819D01*
X6344502Y-29143819D02*
X6106407Y-29143819D01*
X6868312Y-29239057D02*
X7630216Y-29239057D01*
X8058788Y-28143819D02*
X8249264Y-28143819D01*
X8249264Y-28143819D02*
X8344502Y-28191438D01*
X8344502Y-28191438D02*
X8439740Y-28286676D01*
X8439740Y-28286676D02*
X8487359Y-28477152D01*
X8487359Y-28477152D02*
X8487359Y-28810485D01*
X8487359Y-28810485D02*
X8439740Y-29000961D01*
X8439740Y-29000961D02*
X8344502Y-29096200D01*
X8344502Y-29096200D02*
X8249264Y-29143819D01*
X8249264Y-29143819D02*
X8058788Y-29143819D01*
X8058788Y-29143819D02*
X7963550Y-29096200D01*
X7963550Y-29096200D02*
X7868312Y-29000961D01*
X7868312Y-29000961D02*
X7820693Y-28810485D01*
X7820693Y-28810485D02*
X7820693Y-28477152D01*
X7820693Y-28477152D02*
X7868312Y-28286676D01*
X7868312Y-28286676D02*
X7963550Y-28191438D01*
X7963550Y-28191438D02*
X8058788Y-28143819D01*
X8915931Y-29143819D02*
X8915931Y-28143819D01*
X8915931Y-28143819D02*
X9487359Y-29143819D01*
X9487359Y-29143819D02*
X9487359Y-28143819D01*
X4377886Y-26717344D02*
X4377886Y-25717344D01*
X4854076Y-26717344D02*
X4854076Y-25717344D01*
X4854076Y-25717344D02*
X5092171Y-25717344D01*
X5092171Y-25717344D02*
X5235028Y-25764963D01*
X5235028Y-25764963D02*
X5330266Y-25860201D01*
X5330266Y-25860201D02*
X5377885Y-25955439D01*
X5377885Y-25955439D02*
X5425504Y-26145915D01*
X5425504Y-26145915D02*
X5425504Y-26288772D01*
X5425504Y-26288772D02*
X5377885Y-26479248D01*
X5377885Y-26479248D02*
X5330266Y-26574486D01*
X5330266Y-26574486D02*
X5235028Y-26669725D01*
X5235028Y-26669725D02*
X5092171Y-26717344D01*
X5092171Y-26717344D02*
X4854076Y-26717344D01*
X6425504Y-26622105D02*
X6377885Y-26669725D01*
X6377885Y-26669725D02*
X6235028Y-26717344D01*
X6235028Y-26717344D02*
X6139790Y-26717344D01*
X6139790Y-26717344D02*
X5996933Y-26669725D01*
X5996933Y-26669725D02*
X5901695Y-26574486D01*
X5901695Y-26574486D02*
X5854076Y-26479248D01*
X5854076Y-26479248D02*
X5806457Y-26288772D01*
X5806457Y-26288772D02*
X5806457Y-26145915D01*
X5806457Y-26145915D02*
X5854076Y-25955439D01*
X5854076Y-25955439D02*
X5901695Y-25860201D01*
X5901695Y-25860201D02*
X5996933Y-25764963D01*
X5996933Y-25764963D02*
X6139790Y-25717344D01*
X6139790Y-25717344D02*
X6235028Y-25717344D01*
X6235028Y-25717344D02*
X6377885Y-25764963D01*
X6377885Y-25764963D02*
X6425504Y-25812582D01*
X6615981Y-26812582D02*
X7377885Y-26812582D01*
X8187409Y-26717344D02*
X7854076Y-26241153D01*
X7615981Y-26717344D02*
X7615981Y-25717344D01*
X7615981Y-25717344D02*
X7996933Y-25717344D01*
X7996933Y-25717344D02*
X8092171Y-25764963D01*
X8092171Y-25764963D02*
X8139790Y-25812582D01*
X8139790Y-25812582D02*
X8187409Y-25907820D01*
X8187409Y-25907820D02*
X8187409Y-26050677D01*
X8187409Y-26050677D02*
X8139790Y-26145915D01*
X8139790Y-26145915D02*
X8092171Y-26193534D01*
X8092171Y-26193534D02*
X7996933Y-26241153D01*
X7996933Y-26241153D02*
X7615981Y-26241153D01*
X8949314Y-26193534D02*
X8615981Y-26193534D01*
X8615981Y-26717344D02*
X8615981Y-25717344D01*
X8615981Y-25717344D02*
X9092171Y-25717344D01*
X9996933Y-26717344D02*
X9425505Y-26717344D01*
X9711219Y-26717344D02*
X9711219Y-25717344D01*
X9711219Y-25717344D02*
X9615981Y-25860201D01*
X9615981Y-25860201D02*
X9520743Y-25955439D01*
X9520743Y-25955439D02*
X9425505Y-26003058D01*
X13154819Y-5818094D02*
X12154819Y-5818094D01*
X12154819Y-5818094D02*
X12154819Y-5579999D01*
X12154819Y-5579999D02*
X12202438Y-5437142D01*
X12202438Y-5437142D02*
X12297676Y-5341904D01*
X12297676Y-5341904D02*
X12392914Y-5294285D01*
X12392914Y-5294285D02*
X12583390Y-5246666D01*
X12583390Y-5246666D02*
X12726247Y-5246666D01*
X12726247Y-5246666D02*
X12916723Y-5294285D01*
X12916723Y-5294285D02*
X13011961Y-5341904D01*
X13011961Y-5341904D02*
X13107200Y-5437142D01*
X13107200Y-5437142D02*
X13154819Y-5579999D01*
X13154819Y-5579999D02*
X13154819Y-5818094D01*
X12583390Y-4675237D02*
X12535771Y-4770475D01*
X12535771Y-4770475D02*
X12488152Y-4818094D01*
X12488152Y-4818094D02*
X12392914Y-4865713D01*
X12392914Y-4865713D02*
X12345295Y-4865713D01*
X12345295Y-4865713D02*
X12250057Y-4818094D01*
X12250057Y-4818094D02*
X12202438Y-4770475D01*
X12202438Y-4770475D02*
X12154819Y-4675237D01*
X12154819Y-4675237D02*
X12154819Y-4484761D01*
X12154819Y-4484761D02*
X12202438Y-4389523D01*
X12202438Y-4389523D02*
X12250057Y-4341904D01*
X12250057Y-4341904D02*
X12345295Y-4294285D01*
X12345295Y-4294285D02*
X12392914Y-4294285D01*
X12392914Y-4294285D02*
X12488152Y-4341904D01*
X12488152Y-4341904D02*
X12535771Y-4389523D01*
X12535771Y-4389523D02*
X12583390Y-4484761D01*
X12583390Y-4484761D02*
X12583390Y-4675237D01*
X12583390Y-4675237D02*
X12631009Y-4770475D01*
X12631009Y-4770475D02*
X12678628Y-4818094D01*
X12678628Y-4818094D02*
X12773866Y-4865713D01*
X12773866Y-4865713D02*
X12964342Y-4865713D01*
X12964342Y-4865713D02*
X13059580Y-4818094D01*
X13059580Y-4818094D02*
X13107200Y-4770475D01*
X13107200Y-4770475D02*
X13154819Y-4675237D01*
X13154819Y-4675237D02*
X13154819Y-4484761D01*
X13154819Y-4484761D02*
X13107200Y-4389523D01*
X13107200Y-4389523D02*
X13059580Y-4341904D01*
X13059580Y-4341904D02*
X12964342Y-4294285D01*
X12964342Y-4294285D02*
X12773866Y-4294285D01*
X12773866Y-4294285D02*
X12678628Y-4341904D01*
X12678628Y-4341904D02*
X12631009Y-4389523D01*
X12631009Y-4389523D02*
X12583390Y-4484761D01*
X22298819Y-6072094D02*
X21298819Y-6072094D01*
X21298819Y-6072094D02*
X21298819Y-5833999D01*
X21298819Y-5833999D02*
X21346438Y-5691142D01*
X21346438Y-5691142D02*
X21441676Y-5595904D01*
X21441676Y-5595904D02*
X21536914Y-5548285D01*
X21536914Y-5548285D02*
X21727390Y-5500666D01*
X21727390Y-5500666D02*
X21870247Y-5500666D01*
X21870247Y-5500666D02*
X22060723Y-5548285D01*
X22060723Y-5548285D02*
X22155961Y-5595904D01*
X22155961Y-5595904D02*
X22251200Y-5691142D01*
X22251200Y-5691142D02*
X22298819Y-5833999D01*
X22298819Y-5833999D02*
X22298819Y-6072094D01*
X21298819Y-5167332D02*
X21298819Y-4500666D01*
X21298819Y-4500666D02*
X22298819Y-4929237D01*
X13154819Y-10644094D02*
X12154819Y-10644094D01*
X12154819Y-10644094D02*
X12154819Y-10405999D01*
X12154819Y-10405999D02*
X12202438Y-10263142D01*
X12202438Y-10263142D02*
X12297676Y-10167904D01*
X12297676Y-10167904D02*
X12392914Y-10120285D01*
X12392914Y-10120285D02*
X12583390Y-10072666D01*
X12583390Y-10072666D02*
X12726247Y-10072666D01*
X12726247Y-10072666D02*
X12916723Y-10120285D01*
X12916723Y-10120285D02*
X13011961Y-10167904D01*
X13011961Y-10167904D02*
X13107200Y-10263142D01*
X13107200Y-10263142D02*
X13154819Y-10405999D01*
X13154819Y-10405999D02*
X13154819Y-10644094D01*
X12154819Y-9215523D02*
X12154819Y-9405999D01*
X12154819Y-9405999D02*
X12202438Y-9501237D01*
X12202438Y-9501237D02*
X12250057Y-9548856D01*
X12250057Y-9548856D02*
X12392914Y-9644094D01*
X12392914Y-9644094D02*
X12583390Y-9691713D01*
X12583390Y-9691713D02*
X12964342Y-9691713D01*
X12964342Y-9691713D02*
X13059580Y-9644094D01*
X13059580Y-9644094D02*
X13107200Y-9596475D01*
X13107200Y-9596475D02*
X13154819Y-9501237D01*
X13154819Y-9501237D02*
X13154819Y-9310761D01*
X13154819Y-9310761D02*
X13107200Y-9215523D01*
X13107200Y-9215523D02*
X13059580Y-9167904D01*
X13059580Y-9167904D02*
X12964342Y-9120285D01*
X12964342Y-9120285D02*
X12726247Y-9120285D01*
X12726247Y-9120285D02*
X12631009Y-9167904D01*
X12631009Y-9167904D02*
X12583390Y-9215523D01*
X12583390Y-9215523D02*
X12535771Y-9310761D01*
X12535771Y-9310761D02*
X12535771Y-9501237D01*
X12535771Y-9501237D02*
X12583390Y-9596475D01*
X12583390Y-9596475D02*
X12631009Y-9644094D01*
X12631009Y-9644094D02*
X12726247Y-9691713D01*
X22298819Y-10898094D02*
X21298819Y-10898094D01*
X21298819Y-10898094D02*
X21298819Y-10659999D01*
X21298819Y-10659999D02*
X21346438Y-10517142D01*
X21346438Y-10517142D02*
X21441676Y-10421904D01*
X21441676Y-10421904D02*
X21536914Y-10374285D01*
X21536914Y-10374285D02*
X21727390Y-10326666D01*
X21727390Y-10326666D02*
X21870247Y-10326666D01*
X21870247Y-10326666D02*
X22060723Y-10374285D01*
X22060723Y-10374285D02*
X22155961Y-10421904D01*
X22155961Y-10421904D02*
X22251200Y-10517142D01*
X22251200Y-10517142D02*
X22298819Y-10659999D01*
X22298819Y-10659999D02*
X22298819Y-10898094D01*
X21298819Y-9421904D02*
X21298819Y-9898094D01*
X21298819Y-9898094D02*
X21775009Y-9945713D01*
X21775009Y-9945713D02*
X21727390Y-9898094D01*
X21727390Y-9898094D02*
X21679771Y-9802856D01*
X21679771Y-9802856D02*
X21679771Y-9564761D01*
X21679771Y-9564761D02*
X21727390Y-9469523D01*
X21727390Y-9469523D02*
X21775009Y-9421904D01*
X21775009Y-9421904D02*
X21870247Y-9374285D01*
X21870247Y-9374285D02*
X22108342Y-9374285D01*
X22108342Y-9374285D02*
X22203580Y-9421904D01*
X22203580Y-9421904D02*
X22251200Y-9469523D01*
X22251200Y-9469523D02*
X22298819Y-9564761D01*
X22298819Y-9564761D02*
X22298819Y-9802856D01*
X22298819Y-9802856D02*
X22251200Y-9898094D01*
X22251200Y-9898094D02*
X22203580Y-9945713D01*
X13159819Y-15470094D02*
X12159819Y-15470094D01*
X12159819Y-15470094D02*
X12159819Y-15231999D01*
X12159819Y-15231999D02*
X12207438Y-15089142D01*
X12207438Y-15089142D02*
X12302676Y-14993904D01*
X12302676Y-14993904D02*
X12397914Y-14946285D01*
X12397914Y-14946285D02*
X12588390Y-14898666D01*
X12588390Y-14898666D02*
X12731247Y-14898666D01*
X12731247Y-14898666D02*
X12921723Y-14946285D01*
X12921723Y-14946285D02*
X13016961Y-14993904D01*
X13016961Y-14993904D02*
X13112200Y-15089142D01*
X13112200Y-15089142D02*
X13159819Y-15231999D01*
X13159819Y-15231999D02*
X13159819Y-15470094D01*
X12493152Y-14041523D02*
X13159819Y-14041523D01*
X12112200Y-14279618D02*
X12826485Y-14517713D01*
X12826485Y-14517713D02*
X12826485Y-13898666D01*
X22303819Y-15724094D02*
X21303819Y-15724094D01*
X21303819Y-15724094D02*
X21303819Y-15485999D01*
X21303819Y-15485999D02*
X21351438Y-15343142D01*
X21351438Y-15343142D02*
X21446676Y-15247904D01*
X21446676Y-15247904D02*
X21541914Y-15200285D01*
X21541914Y-15200285D02*
X21732390Y-15152666D01*
X21732390Y-15152666D02*
X21875247Y-15152666D01*
X21875247Y-15152666D02*
X22065723Y-15200285D01*
X22065723Y-15200285D02*
X22160961Y-15247904D01*
X22160961Y-15247904D02*
X22256200Y-15343142D01*
X22256200Y-15343142D02*
X22303819Y-15485999D01*
X22303819Y-15485999D02*
X22303819Y-15724094D01*
X21303819Y-14819332D02*
X21303819Y-14200285D01*
X21303819Y-14200285D02*
X21684771Y-14533618D01*
X21684771Y-14533618D02*
X21684771Y-14390761D01*
X21684771Y-14390761D02*
X21732390Y-14295523D01*
X21732390Y-14295523D02*
X21780009Y-14247904D01*
X21780009Y-14247904D02*
X21875247Y-14200285D01*
X21875247Y-14200285D02*
X22113342Y-14200285D01*
X22113342Y-14200285D02*
X22208580Y-14247904D01*
X22208580Y-14247904D02*
X22256200Y-14295523D01*
X22256200Y-14295523D02*
X22303819Y-14390761D01*
X22303819Y-14390761D02*
X22303819Y-14676475D01*
X22303819Y-14676475D02*
X22256200Y-14771713D01*
X22256200Y-14771713D02*
X22208580Y-14819332D01*
X13154819Y-20296094D02*
X12154819Y-20296094D01*
X12154819Y-20296094D02*
X12154819Y-20057999D01*
X12154819Y-20057999D02*
X12202438Y-19915142D01*
X12202438Y-19915142D02*
X12297676Y-19819904D01*
X12297676Y-19819904D02*
X12392914Y-19772285D01*
X12392914Y-19772285D02*
X12583390Y-19724666D01*
X12583390Y-19724666D02*
X12726247Y-19724666D01*
X12726247Y-19724666D02*
X12916723Y-19772285D01*
X12916723Y-19772285D02*
X13011961Y-19819904D01*
X13011961Y-19819904D02*
X13107200Y-19915142D01*
X13107200Y-19915142D02*
X13154819Y-20057999D01*
X13154819Y-20057999D02*
X13154819Y-20296094D01*
X12250057Y-19343713D02*
X12202438Y-19296094D01*
X12202438Y-19296094D02*
X12154819Y-19200856D01*
X12154819Y-19200856D02*
X12154819Y-18962761D01*
X12154819Y-18962761D02*
X12202438Y-18867523D01*
X12202438Y-18867523D02*
X12250057Y-18819904D01*
X12250057Y-18819904D02*
X12345295Y-18772285D01*
X12345295Y-18772285D02*
X12440533Y-18772285D01*
X12440533Y-18772285D02*
X12583390Y-18819904D01*
X12583390Y-18819904D02*
X13154819Y-19391332D01*
X13154819Y-19391332D02*
X13154819Y-18772285D01*
X22303819Y-20460444D02*
X21303819Y-20460444D01*
X21303819Y-20460444D02*
X21303819Y-20222349D01*
X21303819Y-20222349D02*
X21351438Y-20079492D01*
X21351438Y-20079492D02*
X21446676Y-19984254D01*
X21446676Y-19984254D02*
X21541914Y-19936635D01*
X21541914Y-19936635D02*
X21732390Y-19889016D01*
X21732390Y-19889016D02*
X21875247Y-19889016D01*
X21875247Y-19889016D02*
X22065723Y-19936635D01*
X22065723Y-19936635D02*
X22160961Y-19984254D01*
X22160961Y-19984254D02*
X22256200Y-20079492D01*
X22256200Y-20079492D02*
X22303819Y-20222349D01*
X22303819Y-20222349D02*
X22303819Y-20460444D01*
X22303819Y-18936635D02*
X22303819Y-19508063D01*
X22303819Y-19222349D02*
X21303819Y-19222349D01*
X21303819Y-19222349D02*
X21446676Y-19317587D01*
X21446676Y-19317587D02*
X21541914Y-19412825D01*
X21541914Y-19412825D02*
X21589533Y-19508063D01*
X27214533Y-4264819D02*
X26881200Y-3788628D01*
X26643105Y-4264819D02*
X26643105Y-3264819D01*
X26643105Y-3264819D02*
X27024057Y-3264819D01*
X27024057Y-3264819D02*
X27119295Y-3312438D01*
X27119295Y-3312438D02*
X27166914Y-3360057D01*
X27166914Y-3360057D02*
X27214533Y-3455295D01*
X27214533Y-3455295D02*
X27214533Y-3598152D01*
X27214533Y-3598152D02*
X27166914Y-3693390D01*
X27166914Y-3693390D02*
X27119295Y-3741009D01*
X27119295Y-3741009D02*
X27024057Y-3788628D01*
X27024057Y-3788628D02*
X26643105Y-3788628D01*
X27690724Y-4264819D02*
X27881200Y-4264819D01*
X27881200Y-4264819D02*
X27976438Y-4217200D01*
X27976438Y-4217200D02*
X28024057Y-4169580D01*
X28024057Y-4169580D02*
X28119295Y-4026723D01*
X28119295Y-4026723D02*
X28166914Y-3836247D01*
X28166914Y-3836247D02*
X28166914Y-3455295D01*
X28166914Y-3455295D02*
X28119295Y-3360057D01*
X28119295Y-3360057D02*
X28071676Y-3312438D01*
X28071676Y-3312438D02*
X27976438Y-3264819D01*
X27976438Y-3264819D02*
X27785962Y-3264819D01*
X27785962Y-3264819D02*
X27690724Y-3312438D01*
X27690724Y-3312438D02*
X27643105Y-3360057D01*
X27643105Y-3360057D02*
X27595486Y-3455295D01*
X27595486Y-3455295D02*
X27595486Y-3693390D01*
X27595486Y-3693390D02*
X27643105Y-3788628D01*
X27643105Y-3788628D02*
X27690724Y-3836247D01*
X27690724Y-3836247D02*
X27785962Y-3883866D01*
X27785962Y-3883866D02*
X27976438Y-3883866D01*
X27976438Y-3883866D02*
X28071676Y-3836247D01*
X28071676Y-3836247D02*
X28119295Y-3788628D01*
X28119295Y-3788628D02*
X28166914Y-3693390D01*
X27214533Y-7439819D02*
X26881200Y-6963628D01*
X26643105Y-7439819D02*
X26643105Y-6439819D01*
X26643105Y-6439819D02*
X27024057Y-6439819D01*
X27024057Y-6439819D02*
X27119295Y-6487438D01*
X27119295Y-6487438D02*
X27166914Y-6535057D01*
X27166914Y-6535057D02*
X27214533Y-6630295D01*
X27214533Y-6630295D02*
X27214533Y-6773152D01*
X27214533Y-6773152D02*
X27166914Y-6868390D01*
X27166914Y-6868390D02*
X27119295Y-6916009D01*
X27119295Y-6916009D02*
X27024057Y-6963628D01*
X27024057Y-6963628D02*
X26643105Y-6963628D01*
X27785962Y-6868390D02*
X27690724Y-6820771D01*
X27690724Y-6820771D02*
X27643105Y-6773152D01*
X27643105Y-6773152D02*
X27595486Y-6677914D01*
X27595486Y-6677914D02*
X27595486Y-6630295D01*
X27595486Y-6630295D02*
X27643105Y-6535057D01*
X27643105Y-6535057D02*
X27690724Y-6487438D01*
X27690724Y-6487438D02*
X27785962Y-6439819D01*
X27785962Y-6439819D02*
X27976438Y-6439819D01*
X27976438Y-6439819D02*
X28071676Y-6487438D01*
X28071676Y-6487438D02*
X28119295Y-6535057D01*
X28119295Y-6535057D02*
X28166914Y-6630295D01*
X28166914Y-6630295D02*
X28166914Y-6677914D01*
X28166914Y-6677914D02*
X28119295Y-6773152D01*
X28119295Y-6773152D02*
X28071676Y-6820771D01*
X28071676Y-6820771D02*
X27976438Y-6868390D01*
X27976438Y-6868390D02*
X27785962Y-6868390D01*
X27785962Y-6868390D02*
X27690724Y-6916009D01*
X27690724Y-6916009D02*
X27643105Y-6963628D01*
X27643105Y-6963628D02*
X27595486Y-7058866D01*
X27595486Y-7058866D02*
X27595486Y-7249342D01*
X27595486Y-7249342D02*
X27643105Y-7344580D01*
X27643105Y-7344580D02*
X27690724Y-7392200D01*
X27690724Y-7392200D02*
X27785962Y-7439819D01*
X27785962Y-7439819D02*
X27976438Y-7439819D01*
X27976438Y-7439819D02*
X28071676Y-7392200D01*
X28071676Y-7392200D02*
X28119295Y-7344580D01*
X28119295Y-7344580D02*
X28166914Y-7249342D01*
X28166914Y-7249342D02*
X28166914Y-7058866D01*
X28166914Y-7058866D02*
X28119295Y-6963628D01*
X28119295Y-6963628D02*
X28071676Y-6916009D01*
X28071676Y-6916009D02*
X27976438Y-6868390D01*
X27214533Y-10614819D02*
X26881200Y-10138628D01*
X26643105Y-10614819D02*
X26643105Y-9614819D01*
X26643105Y-9614819D02*
X27024057Y-9614819D01*
X27024057Y-9614819D02*
X27119295Y-9662438D01*
X27119295Y-9662438D02*
X27166914Y-9710057D01*
X27166914Y-9710057D02*
X27214533Y-9805295D01*
X27214533Y-9805295D02*
X27214533Y-9948152D01*
X27214533Y-9948152D02*
X27166914Y-10043390D01*
X27166914Y-10043390D02*
X27119295Y-10091009D01*
X27119295Y-10091009D02*
X27024057Y-10138628D01*
X27024057Y-10138628D02*
X26643105Y-10138628D01*
X27547867Y-9614819D02*
X28214533Y-9614819D01*
X28214533Y-9614819D02*
X27785962Y-10614819D01*
X27214533Y-13789819D02*
X26881200Y-13313628D01*
X26643105Y-13789819D02*
X26643105Y-12789819D01*
X26643105Y-12789819D02*
X27024057Y-12789819D01*
X27024057Y-12789819D02*
X27119295Y-12837438D01*
X27119295Y-12837438D02*
X27166914Y-12885057D01*
X27166914Y-12885057D02*
X27214533Y-12980295D01*
X27214533Y-12980295D02*
X27214533Y-13123152D01*
X27214533Y-13123152D02*
X27166914Y-13218390D01*
X27166914Y-13218390D02*
X27119295Y-13266009D01*
X27119295Y-13266009D02*
X27024057Y-13313628D01*
X27024057Y-13313628D02*
X26643105Y-13313628D01*
X28071676Y-12789819D02*
X27881200Y-12789819D01*
X27881200Y-12789819D02*
X27785962Y-12837438D01*
X27785962Y-12837438D02*
X27738343Y-12885057D01*
X27738343Y-12885057D02*
X27643105Y-13027914D01*
X27643105Y-13027914D02*
X27595486Y-13218390D01*
X27595486Y-13218390D02*
X27595486Y-13599342D01*
X27595486Y-13599342D02*
X27643105Y-13694580D01*
X27643105Y-13694580D02*
X27690724Y-13742200D01*
X27690724Y-13742200D02*
X27785962Y-13789819D01*
X27785962Y-13789819D02*
X27976438Y-13789819D01*
X27976438Y-13789819D02*
X28071676Y-13742200D01*
X28071676Y-13742200D02*
X28119295Y-13694580D01*
X28119295Y-13694580D02*
X28166914Y-13599342D01*
X28166914Y-13599342D02*
X28166914Y-13361247D01*
X28166914Y-13361247D02*
X28119295Y-13266009D01*
X28119295Y-13266009D02*
X28071676Y-13218390D01*
X28071676Y-13218390D02*
X27976438Y-13170771D01*
X27976438Y-13170771D02*
X27785962Y-13170771D01*
X27785962Y-13170771D02*
X27690724Y-13218390D01*
X27690724Y-13218390D02*
X27643105Y-13266009D01*
X27643105Y-13266009D02*
X27595486Y-13361247D01*
X27214533Y-16964819D02*
X26881200Y-16488628D01*
X26643105Y-16964819D02*
X26643105Y-15964819D01*
X26643105Y-15964819D02*
X27024057Y-15964819D01*
X27024057Y-15964819D02*
X27119295Y-16012438D01*
X27119295Y-16012438D02*
X27166914Y-16060057D01*
X27166914Y-16060057D02*
X27214533Y-16155295D01*
X27214533Y-16155295D02*
X27214533Y-16298152D01*
X27214533Y-16298152D02*
X27166914Y-16393390D01*
X27166914Y-16393390D02*
X27119295Y-16441009D01*
X27119295Y-16441009D02*
X27024057Y-16488628D01*
X27024057Y-16488628D02*
X26643105Y-16488628D01*
X28119295Y-15964819D02*
X27643105Y-15964819D01*
X27643105Y-15964819D02*
X27595486Y-16441009D01*
X27595486Y-16441009D02*
X27643105Y-16393390D01*
X27643105Y-16393390D02*
X27738343Y-16345771D01*
X27738343Y-16345771D02*
X27976438Y-16345771D01*
X27976438Y-16345771D02*
X28071676Y-16393390D01*
X28071676Y-16393390D02*
X28119295Y-16441009D01*
X28119295Y-16441009D02*
X28166914Y-16536247D01*
X28166914Y-16536247D02*
X28166914Y-16774342D01*
X28166914Y-16774342D02*
X28119295Y-16869580D01*
X28119295Y-16869580D02*
X28071676Y-16917200D01*
X28071676Y-16917200D02*
X27976438Y-16964819D01*
X27976438Y-16964819D02*
X27738343Y-16964819D01*
X27738343Y-16964819D02*
X27643105Y-16917200D01*
X27643105Y-16917200D02*
X27595486Y-16869580D01*
X27214533Y-20139819D02*
X26881200Y-19663628D01*
X26643105Y-20139819D02*
X26643105Y-19139819D01*
X26643105Y-19139819D02*
X27024057Y-19139819D01*
X27024057Y-19139819D02*
X27119295Y-19187438D01*
X27119295Y-19187438D02*
X27166914Y-19235057D01*
X27166914Y-19235057D02*
X27214533Y-19330295D01*
X27214533Y-19330295D02*
X27214533Y-19473152D01*
X27214533Y-19473152D02*
X27166914Y-19568390D01*
X27166914Y-19568390D02*
X27119295Y-19616009D01*
X27119295Y-19616009D02*
X27024057Y-19663628D01*
X27024057Y-19663628D02*
X26643105Y-19663628D01*
X28071676Y-19473152D02*
X28071676Y-20139819D01*
X27833581Y-19092200D02*
X27595486Y-19806485D01*
X27595486Y-19806485D02*
X28214533Y-19806485D01*
X27214533Y-23314819D02*
X26881200Y-22838628D01*
X26643105Y-23314819D02*
X26643105Y-22314819D01*
X26643105Y-22314819D02*
X27024057Y-22314819D01*
X27024057Y-22314819D02*
X27119295Y-22362438D01*
X27119295Y-22362438D02*
X27166914Y-22410057D01*
X27166914Y-22410057D02*
X27214533Y-22505295D01*
X27214533Y-22505295D02*
X27214533Y-22648152D01*
X27214533Y-22648152D02*
X27166914Y-22743390D01*
X27166914Y-22743390D02*
X27119295Y-22791009D01*
X27119295Y-22791009D02*
X27024057Y-22838628D01*
X27024057Y-22838628D02*
X26643105Y-22838628D01*
X27547867Y-22314819D02*
X28166914Y-22314819D01*
X28166914Y-22314819D02*
X27833581Y-22695771D01*
X27833581Y-22695771D02*
X27976438Y-22695771D01*
X27976438Y-22695771D02*
X28071676Y-22743390D01*
X28071676Y-22743390D02*
X28119295Y-22791009D01*
X28119295Y-22791009D02*
X28166914Y-22886247D01*
X28166914Y-22886247D02*
X28166914Y-23124342D01*
X28166914Y-23124342D02*
X28119295Y-23219580D01*
X28119295Y-23219580D02*
X28071676Y-23267200D01*
X28071676Y-23267200D02*
X27976438Y-23314819D01*
X27976438Y-23314819D02*
X27690724Y-23314819D01*
X27690724Y-23314819D02*
X27595486Y-23267200D01*
X27595486Y-23267200D02*
X27547867Y-23219580D01*
X27219933Y-26616819D02*
X26886600Y-26140628D01*
X26648505Y-26616819D02*
X26648505Y-25616819D01*
X26648505Y-25616819D02*
X27029457Y-25616819D01*
X27029457Y-25616819D02*
X27124695Y-25664438D01*
X27124695Y-25664438D02*
X27172314Y-25712057D01*
X27172314Y-25712057D02*
X27219933Y-25807295D01*
X27219933Y-25807295D02*
X27219933Y-25950152D01*
X27219933Y-25950152D02*
X27172314Y-26045390D01*
X27172314Y-26045390D02*
X27124695Y-26093009D01*
X27124695Y-26093009D02*
X27029457Y-26140628D01*
X27029457Y-26140628D02*
X26648505Y-26140628D01*
X27600886Y-25712057D02*
X27648505Y-25664438D01*
X27648505Y-25664438D02*
X27743743Y-25616819D01*
X27743743Y-25616819D02*
X27981838Y-25616819D01*
X27981838Y-25616819D02*
X28077076Y-25664438D01*
X28077076Y-25664438D02*
X28124695Y-25712057D01*
X28124695Y-25712057D02*
X28172314Y-25807295D01*
X28172314Y-25807295D02*
X28172314Y-25902533D01*
X28172314Y-25902533D02*
X28124695Y-26045390D01*
X28124695Y-26045390D02*
X27553267Y-26616819D01*
X27553267Y-26616819D02*
X28172314Y-26616819D01*
X50559619Y-34211523D02*
X51273904Y-34211523D01*
X51273904Y-34211523D02*
X51416761Y-34259142D01*
X51416761Y-34259142D02*
X51512000Y-34354380D01*
X51512000Y-34354380D02*
X51559619Y-34497237D01*
X51559619Y-34497237D02*
X51559619Y-34592475D01*
X51559619Y-33211523D02*
X51559619Y-33782951D01*
X51559619Y-33497237D02*
X50559619Y-33497237D01*
X50559619Y-33497237D02*
X50702476Y-33592475D01*
X50702476Y-33592475D02*
X50797714Y-33687713D01*
X50797714Y-33687713D02*
X50845333Y-33782951D01*
X50988190Y-32640094D02*
X50940571Y-32735332D01*
X50940571Y-32735332D02*
X50892952Y-32782951D01*
X50892952Y-32782951D02*
X50797714Y-32830570D01*
X50797714Y-32830570D02*
X50750095Y-32830570D01*
X50750095Y-32830570D02*
X50654857Y-32782951D01*
X50654857Y-32782951D02*
X50607238Y-32735332D01*
X50607238Y-32735332D02*
X50559619Y-32640094D01*
X50559619Y-32640094D02*
X50559619Y-32449618D01*
X50559619Y-32449618D02*
X50607238Y-32354380D01*
X50607238Y-32354380D02*
X50654857Y-32306761D01*
X50654857Y-32306761D02*
X50750095Y-32259142D01*
X50750095Y-32259142D02*
X50797714Y-32259142D01*
X50797714Y-32259142D02*
X50892952Y-32306761D01*
X50892952Y-32306761D02*
X50940571Y-32354380D01*
X50940571Y-32354380D02*
X50988190Y-32449618D01*
X50988190Y-32449618D02*
X50988190Y-32640094D01*
X50988190Y-32640094D02*
X51035809Y-32735332D01*
X51035809Y-32735332D02*
X51083428Y-32782951D01*
X51083428Y-32782951D02*
X51178666Y-32830570D01*
X51178666Y-32830570D02*
X51369142Y-32830570D01*
X51369142Y-32830570D02*
X51464380Y-32782951D01*
X51464380Y-32782951D02*
X51512000Y-32735332D01*
X51512000Y-32735332D02*
X51559619Y-32640094D01*
X51559619Y-32640094D02*
X51559619Y-32449618D01*
X51559619Y-32449618D02*
X51512000Y-32354380D01*
X51512000Y-32354380D02*
X51464380Y-32306761D01*
X51464380Y-32306761D02*
X51369142Y-32259142D01*
X51369142Y-32259142D02*
X51178666Y-32259142D01*
X51178666Y-32259142D02*
X51083428Y-32306761D01*
X51083428Y-32306761D02*
X51035809Y-32354380D01*
X51035809Y-32354380D02*
X50988190Y-32449618D01*
X87619Y-20689923D02*
X801904Y-20689923D01*
X801904Y-20689923D02*
X944761Y-20737542D01*
X944761Y-20737542D02*
X1040000Y-20832780D01*
X1040000Y-20832780D02*
X1087619Y-20975637D01*
X1087619Y-20975637D02*
X1087619Y-21070875D01*
X182857Y-20261351D02*
X135238Y-20213732D01*
X135238Y-20213732D02*
X87619Y-20118494D01*
X87619Y-20118494D02*
X87619Y-19880399D01*
X87619Y-19880399D02*
X135238Y-19785161D01*
X135238Y-19785161D02*
X182857Y-19737542D01*
X182857Y-19737542D02*
X278095Y-19689923D01*
X278095Y-19689923D02*
X373333Y-19689923D01*
X373333Y-19689923D02*
X516190Y-19737542D01*
X516190Y-19737542D02*
X1087619Y-20308970D01*
X1087619Y-20308970D02*
X1087619Y-19689923D01*
X182857Y-19308970D02*
X135238Y-19261351D01*
X135238Y-19261351D02*
X87619Y-19166113D01*
X87619Y-19166113D02*
X87619Y-18928018D01*
X87619Y-18928018D02*
X135238Y-18832780D01*
X135238Y-18832780D02*
X182857Y-18785161D01*
X182857Y-18785161D02*
X278095Y-18737542D01*
X278095Y-18737542D02*
X373333Y-18737542D01*
X373333Y-18737542D02*
X516190Y-18785161D01*
X516190Y-18785161D02*
X1087619Y-19356589D01*
X1087619Y-19356589D02*
X1087619Y-18737542D01*
X3542019Y-34211523D02*
X4256304Y-34211523D01*
X4256304Y-34211523D02*
X4399161Y-34259142D01*
X4399161Y-34259142D02*
X4494400Y-34354380D01*
X4494400Y-34354380D02*
X4542019Y-34497237D01*
X4542019Y-34497237D02*
X4542019Y-34592475D01*
X3637257Y-33782951D02*
X3589638Y-33735332D01*
X3589638Y-33735332D02*
X3542019Y-33640094D01*
X3542019Y-33640094D02*
X3542019Y-33401999D01*
X3542019Y-33401999D02*
X3589638Y-33306761D01*
X3589638Y-33306761D02*
X3637257Y-33259142D01*
X3637257Y-33259142D02*
X3732495Y-33211523D01*
X3732495Y-33211523D02*
X3827733Y-33211523D01*
X3827733Y-33211523D02*
X3970590Y-33259142D01*
X3970590Y-33259142D02*
X4542019Y-33830570D01*
X4542019Y-33830570D02*
X4542019Y-33211523D01*
X4542019Y-32259142D02*
X4542019Y-32830570D01*
X4542019Y-32544856D02*
X3542019Y-32544856D01*
X3542019Y-32544856D02*
X3684876Y-32640094D01*
X3684876Y-32640094D02*
X3780114Y-32735332D01*
X3780114Y-32735332D02*
X3827733Y-32830570D01*
X19211619Y-34211523D02*
X19925904Y-34211523D01*
X19925904Y-34211523D02*
X20068761Y-34259142D01*
X20068761Y-34259142D02*
X20164000Y-34354380D01*
X20164000Y-34354380D02*
X20211619Y-34497237D01*
X20211619Y-34497237D02*
X20211619Y-34592475D01*
X19306857Y-33782951D02*
X19259238Y-33735332D01*
X19259238Y-33735332D02*
X19211619Y-33640094D01*
X19211619Y-33640094D02*
X19211619Y-33401999D01*
X19211619Y-33401999D02*
X19259238Y-33306761D01*
X19259238Y-33306761D02*
X19306857Y-33259142D01*
X19306857Y-33259142D02*
X19402095Y-33211523D01*
X19402095Y-33211523D02*
X19497333Y-33211523D01*
X19497333Y-33211523D02*
X19640190Y-33259142D01*
X19640190Y-33259142D02*
X20211619Y-33830570D01*
X20211619Y-33830570D02*
X20211619Y-33211523D01*
X19211619Y-32592475D02*
X19211619Y-32497237D01*
X19211619Y-32497237D02*
X19259238Y-32401999D01*
X19259238Y-32401999D02*
X19306857Y-32354380D01*
X19306857Y-32354380D02*
X19402095Y-32306761D01*
X19402095Y-32306761D02*
X19592571Y-32259142D01*
X19592571Y-32259142D02*
X19830666Y-32259142D01*
X19830666Y-32259142D02*
X20021142Y-32306761D01*
X20021142Y-32306761D02*
X20116380Y-32354380D01*
X20116380Y-32354380D02*
X20164000Y-32401999D01*
X20164000Y-32401999D02*
X20211619Y-32497237D01*
X20211619Y-32497237D02*
X20211619Y-32592475D01*
X20211619Y-32592475D02*
X20164000Y-32687713D01*
X20164000Y-32687713D02*
X20116380Y-32735332D01*
X20116380Y-32735332D02*
X20021142Y-32782951D01*
X20021142Y-32782951D02*
X19830666Y-32830570D01*
X19830666Y-32830570D02*
X19592571Y-32830570D01*
X19592571Y-32830570D02*
X19402095Y-32782951D01*
X19402095Y-32782951D02*
X19306857Y-32735332D01*
X19306857Y-32735332D02*
X19259238Y-32687713D01*
X19259238Y-32687713D02*
X19211619Y-32592475D01*
X34834819Y-34211523D02*
X35549104Y-34211523D01*
X35549104Y-34211523D02*
X35691961Y-34259142D01*
X35691961Y-34259142D02*
X35787200Y-34354380D01*
X35787200Y-34354380D02*
X35834819Y-34497237D01*
X35834819Y-34497237D02*
X35834819Y-34592475D01*
X35834819Y-33211523D02*
X35834819Y-33782951D01*
X35834819Y-33497237D02*
X34834819Y-33497237D01*
X34834819Y-33497237D02*
X34977676Y-33592475D01*
X34977676Y-33592475D02*
X35072914Y-33687713D01*
X35072914Y-33687713D02*
X35120533Y-33782951D01*
X35834819Y-32735332D02*
X35834819Y-32544856D01*
X35834819Y-32544856D02*
X35787200Y-32449618D01*
X35787200Y-32449618D02*
X35739580Y-32401999D01*
X35739580Y-32401999D02*
X35596723Y-32306761D01*
X35596723Y-32306761D02*
X35406247Y-32259142D01*
X35406247Y-32259142D02*
X35025295Y-32259142D01*
X35025295Y-32259142D02*
X34930057Y-32306761D01*
X34930057Y-32306761D02*
X34882438Y-32354380D01*
X34882438Y-32354380D02*
X34834819Y-32449618D01*
X34834819Y-32449618D02*
X34834819Y-32640094D01*
X34834819Y-32640094D02*
X34882438Y-32735332D01*
X34882438Y-32735332D02*
X34930057Y-32782951D01*
X34930057Y-32782951D02*
X35025295Y-32830570D01*
X35025295Y-32830570D02*
X35263390Y-32830570D01*
X35263390Y-32830570D02*
X35358628Y-32782951D01*
X35358628Y-32782951D02*
X35406247Y-32735332D01*
X35406247Y-32735332D02*
X35453866Y-32640094D01*
X35453866Y-32640094D02*
X35453866Y-32449618D01*
X35453866Y-32449618D02*
X35406247Y-32354380D01*
X35406247Y-32354380D02*
X35358628Y-32306761D01*
X35358628Y-32306761D02*
X35263390Y-32259142D01*
D11*
%TO.C,IDC_RF1*%
X2552000Y-4442000D02*
X11672000Y-4442000D01*
X2552000Y-25022000D02*
X2552000Y-4442000D01*
X3862000Y-5742000D02*
X10362000Y-5742000D01*
X3862000Y-23722000D02*
X3862000Y-5742000D01*
X10362000Y-5742000D02*
X10362000Y-12682000D01*
X10362000Y-12682000D02*
X10362000Y-12682000D01*
X10362000Y-12682000D02*
X11672000Y-12682000D01*
X10362000Y-16782000D02*
X10362000Y-23722000D01*
X10362000Y-23722000D02*
X3862000Y-23722000D01*
X11672000Y-4442000D02*
X11672000Y-25022000D01*
X11672000Y-16782000D02*
X10362000Y-16782000D01*
X11672000Y-25022000D02*
X2552000Y-25022000D01*
X12062000Y-24892000D02*
X13062000Y-25392000D01*
X13062000Y-24392000D02*
X12062000Y-24892000D01*
X13062000Y-25392000D02*
X13062000Y-24392000D01*
%TO.C,D8*%
X13059666Y-8698608D02*
G75*
G03*
X16291999Y-8855515I1672334J1078608D01*
G01*
X15772960Y-6540001D02*
G75*
G03*
X13690871Y-6540164I-1040960J-1079999D01*
G01*
X16291999Y-6384485D02*
G75*
G03*
X13059666Y-6541392I-1559999J-1235515D01*
G01*
X13690871Y-8699836D02*
G75*
G03*
X15772960Y-8699999I1041129J1079836D01*
G01*
X16292000Y-6540000D02*
X16292000Y-6384000D01*
X16292000Y-8856000D02*
X16292000Y-8700000D01*
%TO.C,D7*%
X18139666Y-8698608D02*
G75*
G03*
X21371999Y-8855515I1672334J1078608D01*
G01*
X20852960Y-6540001D02*
G75*
G03*
X18770871Y-6540164I-1040960J-1079999D01*
G01*
X21371999Y-6384485D02*
G75*
G03*
X18139666Y-6541392I-1559999J-1235515D01*
G01*
X18770871Y-8699836D02*
G75*
G03*
X20852960Y-8699999I1041129J1079836D01*
G01*
X21372000Y-6540000D02*
X21372000Y-6384000D01*
X21372000Y-8856000D02*
X21372000Y-8700000D01*
%TO.C,D6*%
X13059666Y-13524608D02*
G75*
G03*
X16291999Y-13681515I1672334J1078608D01*
G01*
X15772960Y-11366001D02*
G75*
G03*
X13690871Y-11366164I-1040960J-1079999D01*
G01*
X16291999Y-11210485D02*
G75*
G03*
X13059666Y-11367392I-1559999J-1235515D01*
G01*
X13690871Y-13525836D02*
G75*
G03*
X15772960Y-13525999I1041129J1079836D01*
G01*
X16292000Y-11366000D02*
X16292000Y-11210000D01*
X16292000Y-13682000D02*
X16292000Y-13526000D01*
%TO.C,D5*%
X18139666Y-13524608D02*
G75*
G03*
X21371999Y-13681515I1672334J1078608D01*
G01*
X20852960Y-11366001D02*
G75*
G03*
X18770871Y-11366164I-1040960J-1079999D01*
G01*
X21371999Y-11210485D02*
G75*
G03*
X18139666Y-11367392I-1559999J-1235515D01*
G01*
X18770871Y-13525836D02*
G75*
G03*
X20852960Y-13525999I1041129J1079836D01*
G01*
X21372000Y-11366000D02*
X21372000Y-11210000D01*
X21372000Y-13682000D02*
X21372000Y-13526000D01*
%TO.C,D4*%
X13064666Y-18350608D02*
G75*
G03*
X16296999Y-18507515I1672334J1078608D01*
G01*
X15777960Y-16192001D02*
G75*
G03*
X13695871Y-16192164I-1040960J-1079999D01*
G01*
X16296999Y-16036485D02*
G75*
G03*
X13064666Y-16193392I-1559999J-1235515D01*
G01*
X13695871Y-18351836D02*
G75*
G03*
X15777960Y-18351999I1041129J1079836D01*
G01*
X16297000Y-16192000D02*
X16297000Y-16036000D01*
X16297000Y-18508000D02*
X16297000Y-18352000D01*
%TO.C,D3*%
X18139666Y-18350608D02*
G75*
G03*
X21371999Y-18507515I1672334J1078608D01*
G01*
X20852960Y-16192001D02*
G75*
G03*
X18770871Y-16192164I-1040960J-1079999D01*
G01*
X21371999Y-16036485D02*
G75*
G03*
X18139666Y-16193392I-1559999J-1235515D01*
G01*
X18770871Y-18351836D02*
G75*
G03*
X20852960Y-18351999I1041129J1079836D01*
G01*
X21372000Y-16192000D02*
X21372000Y-16036000D01*
X21372000Y-18508000D02*
X21372000Y-18352000D01*
%TO.C,D2*%
X13064666Y-23176608D02*
G75*
G03*
X16296999Y-23333515I1672334J1078608D01*
G01*
X15777960Y-21018001D02*
G75*
G03*
X13695871Y-21018164I-1040960J-1079999D01*
G01*
X16296999Y-20862485D02*
G75*
G03*
X13064666Y-21019392I-1559999J-1235515D01*
G01*
X13695871Y-23177836D02*
G75*
G03*
X15777960Y-23177999I1041129J1079836D01*
G01*
X16297000Y-21018000D02*
X16297000Y-20862000D01*
X16297000Y-23334000D02*
X16297000Y-23178000D01*
%TO.C,D1*%
X18139666Y-23176608D02*
G75*
G03*
X21371999Y-23333515I1672334J1078608D01*
G01*
X20852960Y-21018001D02*
G75*
G03*
X18770871Y-21018164I-1040960J-1079999D01*
G01*
X21371999Y-20862485D02*
G75*
G03*
X18139666Y-21019392I-1559999J-1235515D01*
G01*
X18770871Y-23177836D02*
G75*
G03*
X20852960Y-23177999I1041129J1079836D01*
G01*
X21372000Y-21018000D02*
X21372000Y-20862000D01*
X21372000Y-23334000D02*
X21372000Y-23178000D01*
%TO.C,R9*%
X24111200Y-2394000D02*
X24111200Y-2724000D01*
X30651200Y-5134000D02*
X24111200Y-5134000D01*
X30651200Y-2394000D02*
X24111200Y-2394000D01*
X30651200Y-2724000D02*
X30651200Y-2394000D01*
X30651200Y-4804000D02*
X30651200Y-5134000D01*
X24111200Y-5134000D02*
X24111200Y-4804000D01*
%TO.C,R8*%
X24111200Y-8309000D02*
X24111200Y-7979000D01*
X30651200Y-7979000D02*
X30651200Y-8309000D01*
X30651200Y-5899000D02*
X30651200Y-5569000D01*
X30651200Y-5569000D02*
X24111200Y-5569000D01*
X30651200Y-8309000D02*
X24111200Y-8309000D01*
X24111200Y-5569000D02*
X24111200Y-5899000D01*
%TO.C,R7*%
X24111200Y-11484000D02*
X24111200Y-11154000D01*
X30651200Y-11154000D02*
X30651200Y-11484000D01*
X30651200Y-9074000D02*
X30651200Y-8744000D01*
X30651200Y-8744000D02*
X24111200Y-8744000D01*
X30651200Y-11484000D02*
X24111200Y-11484000D01*
X24111200Y-8744000D02*
X24111200Y-9074000D01*
%TO.C,R6*%
X24111200Y-14659000D02*
X24111200Y-14329000D01*
X30651200Y-14329000D02*
X30651200Y-14659000D01*
X30651200Y-12249000D02*
X30651200Y-11919000D01*
X30651200Y-11919000D02*
X24111200Y-11919000D01*
X30651200Y-14659000D02*
X24111200Y-14659000D01*
X24111200Y-11919000D02*
X24111200Y-12249000D01*
%TO.C,R5*%
X24111200Y-17834000D02*
X24111200Y-17504000D01*
X30651200Y-17504000D02*
X30651200Y-17834000D01*
X30651200Y-15424000D02*
X30651200Y-15094000D01*
X30651200Y-15094000D02*
X24111200Y-15094000D01*
X30651200Y-17834000D02*
X24111200Y-17834000D01*
X24111200Y-15094000D02*
X24111200Y-15424000D01*
%TO.C,R4*%
X24111200Y-21009000D02*
X24111200Y-20679000D01*
X30651200Y-20679000D02*
X30651200Y-21009000D01*
X30651200Y-18599000D02*
X30651200Y-18269000D01*
X30651200Y-18269000D02*
X24111200Y-18269000D01*
X30651200Y-21009000D02*
X24111200Y-21009000D01*
X24111200Y-18269000D02*
X24111200Y-18599000D01*
%TO.C,R3*%
X24111200Y-24184000D02*
X24111200Y-23854000D01*
X30651200Y-23854000D02*
X30651200Y-24184000D01*
X30651200Y-21774000D02*
X30651200Y-21444000D01*
X30651200Y-21444000D02*
X24111200Y-21444000D01*
X30651200Y-24184000D02*
X24111200Y-24184000D01*
X24111200Y-21444000D02*
X24111200Y-21774000D01*
%TO.C,R2*%
X24116600Y-27367650D02*
X24116600Y-27037650D01*
X30656600Y-27037650D02*
X30656600Y-27367650D01*
X30656600Y-24957650D02*
X30656600Y-24627650D01*
X30656600Y-24627650D02*
X24116600Y-24627650D01*
X30656600Y-27367650D02*
X24116600Y-27367650D01*
X24116600Y-24627650D02*
X24116600Y-24957650D01*
%TO.C,U2*%
X55311200Y-21407650D02*
G75*
G03*
X55311200Y-23407650I0J-1000000D01*
G01*
X34871200Y-25057650D02*
X55311200Y-25057650D01*
X55311200Y-25057650D02*
X55311200Y-23407650D01*
X55311200Y-21407650D02*
X55311200Y-19757650D01*
X34871200Y-19757650D02*
X34871200Y-25057650D01*
X55311200Y-19757650D02*
X34871200Y-19757650D01*
%TO.C,J18*%
X56161600Y-37148000D02*
X56161600Y-29528000D01*
X40921600Y-37148000D02*
X56161600Y-37148000D01*
X40921600Y-37148000D02*
X40921600Y-29528000D01*
X40921600Y-35878000D02*
X56161600Y-35878000D01*
X40921600Y-29528000D02*
X56161600Y-29528000D01*
%TO.C,J22*%
X1534000Y-14732000D02*
X-6086000Y-14732000D01*
X-6086000Y-14732000D02*
X-6086000Y-24892000D01*
X1534000Y-24892000D02*
X1534000Y-14732000D01*
X-4816000Y-24892000D02*
X-4816000Y-14732000D01*
X-6086000Y-24892000D02*
X1534000Y-24892000D01*
%TO.C,J21*%
X9144000Y-37148000D02*
X9144000Y-29528000D01*
X-6096000Y-37148000D02*
X9144000Y-37148000D01*
X-6096000Y-37148000D02*
X-6096000Y-29528000D01*
X-6096000Y-35878000D02*
X9144000Y-35878000D01*
X-6096000Y-29528000D02*
X9144000Y-29528000D01*
%TO.C,U3*%
X55311200Y-4726000D02*
X34871200Y-4726000D01*
X34871200Y-4726000D02*
X34871200Y-10026000D01*
X55311200Y-6376000D02*
X55311200Y-4726000D01*
X55311200Y-10026000D02*
X55311200Y-8376000D01*
X34871200Y-10026000D02*
X55311200Y-10026000D01*
X55311200Y-6376000D02*
G75*
G03*
X55311200Y-8376000I0J-1000000D01*
G01*
%TO.C,J20*%
X24813600Y-37148000D02*
X24813600Y-29528000D01*
X9573600Y-37148000D02*
X24813600Y-37148000D01*
X9573600Y-37148000D02*
X9573600Y-29528000D01*
X9573600Y-35878000D02*
X24813600Y-35878000D01*
X9573600Y-29528000D02*
X24813600Y-29528000D01*
%TO.C,J19*%
X40485400Y-37148000D02*
X40485400Y-29528000D01*
X25245400Y-37148000D02*
X40485400Y-37148000D01*
X25245400Y-37148000D02*
X25245400Y-29528000D01*
X25245400Y-35878000D02*
X40485400Y-35878000D01*
X25245400Y-29528000D02*
X40485400Y-29528000D01*
%TD*%
M02*
