%TF.GenerationSoftware,KiCad,Pcbnew,7.0.6*%
%TF.CreationDate,2023-09-19T17:21:49+08:00*%
%TF.ProjectId,ControlPanel_RF_Breakout,436f6e74-726f-46c5-9061-6e656c5f5246,0*%
%TF.SameCoordinates,Original*%
%TF.FileFunction,Soldermask,Bot*%
%TF.FilePolarity,Negative*%
%FSLAX46Y46*%
G04 Gerber Fmt 4.6, Leading zero omitted, Abs format (unit mm)*
G04 Created by KiCad (PCBNEW 7.0.6) date 2023-09-19 17:21:49*
%MOMM*%
%LPD*%
G01*
G04 APERTURE LIST*
G04 Aperture macros list*
%AMRoundRect*
0 Rectangle with rounded corners*
0 $1 Rounding radius*
0 $2 $3 $4 $5 $6 $7 $8 $9 X,Y pos of 4 corners*
0 Add a 4 corners polygon primitive as box body*
4,1,4,$2,$3,$4,$5,$6,$7,$8,$9,$2,$3,0*
0 Add four circle primitives for the rounded corners*
1,1,$1+$1,$2,$3*
1,1,$1+$1,$4,$5*
1,1,$1+$1,$6,$7*
1,1,$1+$1,$8,$9*
0 Add four rect primitives between the rounded corners*
20,1,$1+$1,$2,$3,$4,$5,0*
20,1,$1+$1,$4,$5,$6,$7,0*
20,1,$1+$1,$6,$7,$8,$9,0*
20,1,$1+$1,$8,$9,$2,$3,0*%
G04 Aperture macros list end*
%ADD10C,1.700000*%
%ADD11RoundRect,0.250000X0.600000X0.600000X-0.600000X0.600000X-0.600000X-0.600000X0.600000X-0.600000X0*%
%ADD12C,1.800000*%
%ADD13R,1.800000X1.800000*%
%ADD14C,1.600000*%
%ADD15O,1.600000X1.600000*%
%ADD16R,1.600000X1.600000*%
%ADD17C,3.000000*%
%ADD18R,3.000000X3.000000*%
G04 APERTURE END LIST*
D10*
%TO.C,IDC_RF1*%
X5842000Y-9652000D03*
X8382000Y-9652000D03*
X5842000Y-12192000D03*
X8382000Y-12192000D03*
X5842000Y-14732000D03*
X8382000Y-14732000D03*
X5842000Y-17272000D03*
X8382000Y-17272000D03*
X5842000Y-19812000D03*
D11*
X8382000Y-19812000D03*
%TD*%
D12*
%TO.C,D8*%
X13462000Y-7620000D03*
D13*
X16002000Y-7620000D03*
%TD*%
D12*
%TO.C,D7*%
X18542000Y-7620000D03*
D13*
X21082000Y-7620000D03*
%TD*%
D12*
%TO.C,D6*%
X13462000Y-12446000D03*
D13*
X16002000Y-12446000D03*
%TD*%
D12*
%TO.C,D5*%
X18542000Y-12446000D03*
D13*
X21082000Y-12446000D03*
%TD*%
D12*
%TO.C,D4*%
X13467000Y-17272000D03*
D13*
X16007000Y-17272000D03*
%TD*%
D12*
%TO.C,D3*%
X18542000Y-17272000D03*
D13*
X21082000Y-17272000D03*
%TD*%
D12*
%TO.C,D2*%
X13467000Y-22098000D03*
D13*
X16007000Y-22098000D03*
%TD*%
D12*
%TO.C,D1*%
X18542000Y-22098000D03*
D13*
X21082000Y-22098000D03*
%TD*%
D14*
%TO.C,R9*%
X31191200Y-3764000D03*
D15*
X23571200Y-3764000D03*
%TD*%
%TO.C,R8*%
X23571200Y-6939000D03*
D14*
X31191200Y-6939000D03*
%TD*%
D15*
%TO.C,R7*%
X23571200Y-10114000D03*
D14*
X31191200Y-10114000D03*
%TD*%
D15*
%TO.C,R6*%
X23571200Y-13289000D03*
D14*
X31191200Y-13289000D03*
%TD*%
D15*
%TO.C,R5*%
X23571200Y-16464000D03*
D14*
X31191200Y-16464000D03*
%TD*%
D15*
%TO.C,R4*%
X23571200Y-19639000D03*
D14*
X31191200Y-19639000D03*
%TD*%
D15*
%TO.C,R3*%
X23571200Y-22814000D03*
D14*
X31191200Y-22814000D03*
%TD*%
D15*
%TO.C,R2*%
X23576600Y-25997650D03*
D14*
X31196600Y-25997650D03*
%TD*%
D15*
%TO.C,U2*%
X53981200Y-26217650D03*
X51441200Y-26217650D03*
X48901200Y-26217650D03*
X46361200Y-26217650D03*
X43821200Y-26217650D03*
X41281200Y-26217650D03*
X38741200Y-26217650D03*
X36201200Y-26217650D03*
X36201200Y-18597650D03*
X38741200Y-18597650D03*
X41281200Y-18597650D03*
X43821200Y-18597650D03*
X46361200Y-18597650D03*
X48901200Y-18597650D03*
X51441200Y-18597650D03*
D16*
X53981200Y-18597650D03*
%TD*%
D17*
%TO.C,J18*%
X53621600Y-33338000D03*
X48541600Y-33338000D03*
D18*
X43461600Y-33338000D03*
%TD*%
%TO.C,J22*%
X-2276000Y-17272000D03*
D17*
X-2276000Y-22352000D03*
%TD*%
%TO.C,J21*%
X6604000Y-33338000D03*
X1524000Y-33338000D03*
D18*
X-3556000Y-33338000D03*
%TD*%
D16*
%TO.C,U3*%
X53981200Y-3566000D03*
D15*
X51441200Y-3566000D03*
X48901200Y-3566000D03*
X46361200Y-3566000D03*
X43821200Y-3566000D03*
X41281200Y-3566000D03*
X38741200Y-3566000D03*
X36201200Y-3566000D03*
X36201200Y-11186000D03*
X38741200Y-11186000D03*
X41281200Y-11186000D03*
X43821200Y-11186000D03*
X46361200Y-11186000D03*
X48901200Y-11186000D03*
X51441200Y-11186000D03*
X53981200Y-11186000D03*
%TD*%
D17*
%TO.C,J20*%
X22273600Y-33338000D03*
X17193600Y-33338000D03*
D18*
X12113600Y-33338000D03*
%TD*%
D17*
%TO.C,J19*%
X37945400Y-33338000D03*
X32865400Y-33338000D03*
D18*
X27785400Y-33338000D03*
%TD*%
M02*
