M48
; DRILL file {KiCad 7.0.6} date Tue Sep 19 17:21:52 2023
; FORMAT={-:-/ absolute / inch / decimal}
; #@! TF.CreationDate,2023-09-19T17:21:52+08:00
; #@! TF.GenerationSoftware,Kicad,Pcbnew,7.0.6
; #@! TF.FileFunction,Plated,1,2,PTH
FMAT,2
INCH
; #@! TA.AperFunction,Plated,PTH,ComponentDrill
T1C0.0315
; #@! TA.AperFunction,Plated,PTH,ComponentDrill
T2C0.0354
; #@! TA.AperFunction,Plated,PTH,ComponentDrill
T3C0.0394
; #@! TA.AperFunction,Plated,PTH,ComponentDrill
T4C0.0598
%
G90
G05
T1
X0.928Y-0.1482
X0.928Y-0.2732
X0.928Y-0.3982
X0.928Y-0.5232
X0.928Y-0.6482
X0.928Y-0.7732
X0.928Y-0.8982
X0.9282Y-1.0235
X1.228Y-0.1482
X1.228Y-0.2732
X1.228Y-0.3982
X1.228Y-0.5232
X1.228Y-0.6482
X1.228Y-0.7732
X1.228Y-0.8982
X1.2282Y-1.0235
X1.4252Y-0.1404
X1.4252Y-0.4404
X1.4252Y-0.7322
X1.4252Y-1.0322
X1.5252Y-0.1404
X1.5252Y-0.4404
X1.5252Y-0.7322
X1.5252Y-1.0322
X1.6252Y-0.1404
X1.6252Y-0.4404
X1.6252Y-0.7322
X1.6252Y-1.0322
X1.7252Y-0.1404
X1.7252Y-0.4404
X1.7252Y-0.7322
X1.7252Y-1.0322
X1.8252Y-0.1404
X1.8252Y-0.4404
X1.8252Y-0.7322
X1.8252Y-1.0322
X1.9252Y-0.1404
X1.9252Y-0.4404
X1.9252Y-0.7322
X1.9252Y-1.0322
X2.0252Y-0.1404
X2.0252Y-0.4404
X2.0252Y-0.7322
X2.0252Y-1.0322
X2.1252Y-0.1404
X2.1252Y-0.4404
X2.1252Y-0.7322
X2.1252Y-1.0322
T2
X0.53Y-0.3
X0.53Y-0.49
X0.5302Y-0.68
X0.5302Y-0.87
X0.63Y-0.3
X0.63Y-0.49
X0.6302Y-0.68
X0.6302Y-0.87
X0.73Y-0.3
X0.73Y-0.49
X0.73Y-0.68
X0.73Y-0.87
X0.83Y-0.3
X0.83Y-0.49
X0.83Y-0.68
X0.83Y-0.87
T3
X0.23Y-0.38
X0.23Y-0.48
X0.23Y-0.58
X0.23Y-0.68
X0.23Y-0.78
X0.33Y-0.38
X0.33Y-0.48
X0.33Y-0.58
X0.33Y-0.68
X0.33Y-0.78
T4
X-0.14Y-1.3125
X-0.0896Y-0.68
X-0.0896Y-0.88
X0.06Y-1.3125
X0.26Y-1.3125
X0.4769Y-1.3125
X0.6769Y-1.3125
X0.8769Y-1.3125
X1.0939Y-1.3125
X1.2939Y-1.3125
X1.4939Y-1.3125
X1.7111Y-1.3125
X1.9111Y-1.3125
X2.1111Y-1.3125
T0
M30
