%TF.GenerationSoftware,KiCad,Pcbnew,7.0.6*%
%TF.CreationDate,2023-09-19T13:45:42+08:00*%
%TF.ProjectId,ControlPanelPanelized,436f6e74-726f-46c5-9061-6e656c50616e,rev?*%
%TF.SameCoordinates,Original*%
%TF.FileFunction,Legend,Bot*%
%TF.FilePolarity,Positive*%
%FSLAX46Y46*%
G04 Gerber Fmt 4.6, Leading zero omitted, Abs format (unit mm)*
G04 Created by KiCad (PCBNEW 7.0.6) date 2023-09-19 13:45:42*
%MOMM*%
%LPD*%
G01*
G04 APERTURE LIST*
%ADD10C,0.150000*%
%ADD11C,0.120000*%
G04 APERTURE END LIST*
D10*
X116999275Y-114056506D02*
X117032947Y-113955491D01*
X117032947Y-113955491D02*
X117133962Y-113854475D01*
X117133962Y-113854475D02*
X117268649Y-113787132D01*
X117268649Y-113787132D02*
X117403337Y-113787132D01*
X117403337Y-113787132D02*
X117504352Y-113820804D01*
X117504352Y-113820804D02*
X117672711Y-113921819D01*
X117672711Y-113921819D02*
X117773726Y-114022834D01*
X117773726Y-114022834D02*
X117874741Y-114191193D01*
X117874741Y-114191193D02*
X117908413Y-114292208D01*
X117908413Y-114292208D02*
X117908413Y-114426895D01*
X117908413Y-114426895D02*
X117841069Y-114561582D01*
X117841069Y-114561582D02*
X117773726Y-114628926D01*
X117773726Y-114628926D02*
X117639039Y-114696269D01*
X117639039Y-114696269D02*
X117571695Y-114696269D01*
X117571695Y-114696269D02*
X117335993Y-114460567D01*
X117335993Y-114460567D02*
X117470680Y-114325880D01*
X117335993Y-115066658D02*
X116628886Y-114359552D01*
X116628886Y-114359552D02*
X116931932Y-115470719D01*
X116931932Y-115470719D02*
X116224825Y-114763613D01*
X116595215Y-115807437D02*
X115888108Y-115100330D01*
X115888108Y-115100330D02*
X115719749Y-115268689D01*
X115719749Y-115268689D02*
X115652405Y-115403376D01*
X115652405Y-115403376D02*
X115652405Y-115538063D01*
X115652405Y-115538063D02*
X115686077Y-115639078D01*
X115686077Y-115639078D02*
X115787092Y-115807437D01*
X115787092Y-115807437D02*
X115888108Y-115908452D01*
X115888108Y-115908452D02*
X116056466Y-116009467D01*
X116056466Y-116009467D02*
X116157482Y-116043139D01*
X116157482Y-116043139D02*
X116292169Y-116043139D01*
X116292169Y-116043139D02*
X116426856Y-115975796D01*
X116426856Y-115975796D02*
X116595215Y-115807437D01*
X109379275Y-121609162D02*
X109715993Y-121272445D01*
X109715993Y-121272445D02*
X110086382Y-121575491D01*
X110086382Y-121575491D02*
X110019039Y-121575491D01*
X110019039Y-121575491D02*
X109918024Y-121609162D01*
X109918024Y-121609162D02*
X109749665Y-121777521D01*
X109749665Y-121777521D02*
X109715993Y-121878536D01*
X109715993Y-121878536D02*
X109715993Y-121945880D01*
X109715993Y-121945880D02*
X109749665Y-122046895D01*
X109749665Y-122046895D02*
X109918024Y-122215254D01*
X109918024Y-122215254D02*
X110019039Y-122248926D01*
X110019039Y-122248926D02*
X110086382Y-122248926D01*
X110086382Y-122248926D02*
X110187398Y-122215254D01*
X110187398Y-122215254D02*
X110355756Y-122046895D01*
X110355756Y-122046895D02*
X110389428Y-121945880D01*
X110389428Y-121945880D02*
X110389428Y-121878536D01*
X109143573Y-121844865D02*
X109614978Y-122787674D01*
X109614978Y-122787674D02*
X108672169Y-122316269D01*
X113627008Y-117107430D02*
X114098413Y-118050239D01*
X114098413Y-118050239D02*
X113155604Y-117578834D01*
X113222947Y-118925704D02*
X113121932Y-118353284D01*
X113627008Y-118521643D02*
X112919901Y-117814536D01*
X112919901Y-117814536D02*
X112650527Y-118083910D01*
X112650527Y-118083910D02*
X112616856Y-118184926D01*
X112616856Y-118184926D02*
X112616856Y-118252269D01*
X112616856Y-118252269D02*
X112650527Y-118353284D01*
X112650527Y-118353284D02*
X112751543Y-118454300D01*
X112751543Y-118454300D02*
X112852558Y-118487971D01*
X112852558Y-118487971D02*
X112919901Y-118487971D01*
X112919901Y-118487971D02*
X113020917Y-118454300D01*
X113020917Y-118454300D02*
X113290291Y-118184926D01*
X113155604Y-119127735D02*
X112616856Y-119666483D01*
X112010764Y-120137887D02*
X112414825Y-119733826D01*
X112212794Y-119935857D02*
X111505688Y-119228750D01*
X111505688Y-119228750D02*
X111674046Y-119262422D01*
X111674046Y-119262422D02*
X111808733Y-119262422D01*
X111808733Y-119262422D02*
X111909749Y-119228750D01*
X104569957Y-106286284D02*
X104903290Y-105810093D01*
X105141385Y-106286284D02*
X105141385Y-105286284D01*
X105141385Y-105286284D02*
X104760433Y-105286284D01*
X104760433Y-105286284D02*
X104665195Y-105333903D01*
X104665195Y-105333903D02*
X104617576Y-105381522D01*
X104617576Y-105381522D02*
X104569957Y-105476760D01*
X104569957Y-105476760D02*
X104569957Y-105619617D01*
X104569957Y-105619617D02*
X104617576Y-105714855D01*
X104617576Y-105714855D02*
X104665195Y-105762474D01*
X104665195Y-105762474D02*
X104760433Y-105810093D01*
X104760433Y-105810093D02*
X105141385Y-105810093D01*
X104236623Y-105286284D02*
X103617576Y-105286284D01*
X103617576Y-105286284D02*
X103950909Y-105667236D01*
X103950909Y-105667236D02*
X103808052Y-105667236D01*
X103808052Y-105667236D02*
X103712814Y-105714855D01*
X103712814Y-105714855D02*
X103665195Y-105762474D01*
X103665195Y-105762474D02*
X103617576Y-105857712D01*
X103617576Y-105857712D02*
X103617576Y-106095807D01*
X103617576Y-106095807D02*
X103665195Y-106191045D01*
X103665195Y-106191045D02*
X103712814Y-106238665D01*
X103712814Y-106238665D02*
X103808052Y-106286284D01*
X103808052Y-106286284D02*
X104093766Y-106286284D01*
X104093766Y-106286284D02*
X104189004Y-106238665D01*
X104189004Y-106238665D02*
X104236623Y-106191045D01*
X114952148Y-136004284D02*
X115285481Y-135528093D01*
X115523576Y-136004284D02*
X115523576Y-135004284D01*
X115523576Y-135004284D02*
X115142624Y-135004284D01*
X115142624Y-135004284D02*
X115047386Y-135051903D01*
X115047386Y-135051903D02*
X114999767Y-135099522D01*
X114999767Y-135099522D02*
X114952148Y-135194760D01*
X114952148Y-135194760D02*
X114952148Y-135337617D01*
X114952148Y-135337617D02*
X114999767Y-135432855D01*
X114999767Y-135432855D02*
X115047386Y-135480474D01*
X115047386Y-135480474D02*
X115142624Y-135528093D01*
X115142624Y-135528093D02*
X115523576Y-135528093D01*
X113999767Y-136004284D02*
X114571195Y-136004284D01*
X114285481Y-136004284D02*
X114285481Y-135004284D01*
X114285481Y-135004284D02*
X114380719Y-135147141D01*
X114380719Y-135147141D02*
X114475957Y-135242379D01*
X114475957Y-135242379D02*
X114571195Y-135289998D01*
X113380719Y-135004284D02*
X113285481Y-135004284D01*
X113285481Y-135004284D02*
X113190243Y-135051903D01*
X113190243Y-135051903D02*
X113142624Y-135099522D01*
X113142624Y-135099522D02*
X113095005Y-135194760D01*
X113095005Y-135194760D02*
X113047386Y-135385236D01*
X113047386Y-135385236D02*
X113047386Y-135623331D01*
X113047386Y-135623331D02*
X113095005Y-135813807D01*
X113095005Y-135813807D02*
X113142624Y-135909045D01*
X113142624Y-135909045D02*
X113190243Y-135956665D01*
X113190243Y-135956665D02*
X113285481Y-136004284D01*
X113285481Y-136004284D02*
X113380719Y-136004284D01*
X113380719Y-136004284D02*
X113475957Y-135956665D01*
X113475957Y-135956665D02*
X113523576Y-135909045D01*
X113523576Y-135909045D02*
X113571195Y-135813807D01*
X113571195Y-135813807D02*
X113618814Y-135623331D01*
X113618814Y-135623331D02*
X113618814Y-135385236D01*
X113618814Y-135385236D02*
X113571195Y-135194760D01*
X113571195Y-135194760D02*
X113523576Y-135099522D01*
X113523576Y-135099522D02*
X113475957Y-135051903D01*
X113475957Y-135051903D02*
X113380719Y-135004284D01*
X100921110Y-112141798D02*
X100444919Y-111808465D01*
X100921110Y-111570370D02*
X99921110Y-111570370D01*
X99921110Y-111570370D02*
X99921110Y-111951322D01*
X99921110Y-111951322D02*
X99968729Y-112046560D01*
X99968729Y-112046560D02*
X100016348Y-112094179D01*
X100016348Y-112094179D02*
X100111586Y-112141798D01*
X100111586Y-112141798D02*
X100254443Y-112141798D01*
X100254443Y-112141798D02*
X100349681Y-112094179D01*
X100349681Y-112094179D02*
X100397300Y-112046560D01*
X100397300Y-112046560D02*
X100444919Y-111951322D01*
X100444919Y-111951322D02*
X100444919Y-111570370D01*
X100016348Y-112522751D02*
X99968729Y-112570370D01*
X99968729Y-112570370D02*
X99921110Y-112665608D01*
X99921110Y-112665608D02*
X99921110Y-112903703D01*
X99921110Y-112903703D02*
X99968729Y-112998941D01*
X99968729Y-112998941D02*
X100016348Y-113046560D01*
X100016348Y-113046560D02*
X100111586Y-113094179D01*
X100111586Y-113094179D02*
X100206824Y-113094179D01*
X100206824Y-113094179D02*
X100349681Y-113046560D01*
X100349681Y-113046560D02*
X100921110Y-112475132D01*
X100921110Y-112475132D02*
X100921110Y-113094179D01*
X125178110Y-131572798D02*
X124701919Y-131239465D01*
X125178110Y-131001370D02*
X124178110Y-131001370D01*
X124178110Y-131001370D02*
X124178110Y-131382322D01*
X124178110Y-131382322D02*
X124225729Y-131477560D01*
X124225729Y-131477560D02*
X124273348Y-131525179D01*
X124273348Y-131525179D02*
X124368586Y-131572798D01*
X124368586Y-131572798D02*
X124511443Y-131572798D01*
X124511443Y-131572798D02*
X124606681Y-131525179D01*
X124606681Y-131525179D02*
X124654300Y-131477560D01*
X124654300Y-131477560D02*
X124701919Y-131382322D01*
X124701919Y-131382322D02*
X124701919Y-131001370D01*
X125178110Y-132048989D02*
X125178110Y-132239465D01*
X125178110Y-132239465D02*
X125130491Y-132334703D01*
X125130491Y-132334703D02*
X125082871Y-132382322D01*
X125082871Y-132382322D02*
X124940014Y-132477560D01*
X124940014Y-132477560D02*
X124749538Y-132525179D01*
X124749538Y-132525179D02*
X124368586Y-132525179D01*
X124368586Y-132525179D02*
X124273348Y-132477560D01*
X124273348Y-132477560D02*
X124225729Y-132429941D01*
X124225729Y-132429941D02*
X124178110Y-132334703D01*
X124178110Y-132334703D02*
X124178110Y-132144227D01*
X124178110Y-132144227D02*
X124225729Y-132048989D01*
X124225729Y-132048989D02*
X124273348Y-132001370D01*
X124273348Y-132001370D02*
X124368586Y-131953751D01*
X124368586Y-131953751D02*
X124606681Y-131953751D01*
X124606681Y-131953751D02*
X124701919Y-132001370D01*
X124701919Y-132001370D02*
X124749538Y-132048989D01*
X124749538Y-132048989D02*
X124797157Y-132144227D01*
X124797157Y-132144227D02*
X124797157Y-132334703D01*
X124797157Y-132334703D02*
X124749538Y-132429941D01*
X124749538Y-132429941D02*
X124701919Y-132477560D01*
X124701919Y-132477560D02*
X124606681Y-132525179D01*
X113967957Y-106286284D02*
X114301290Y-105810093D01*
X114539385Y-106286284D02*
X114539385Y-105286284D01*
X114539385Y-105286284D02*
X114158433Y-105286284D01*
X114158433Y-105286284D02*
X114063195Y-105333903D01*
X114063195Y-105333903D02*
X114015576Y-105381522D01*
X114015576Y-105381522D02*
X113967957Y-105476760D01*
X113967957Y-105476760D02*
X113967957Y-105619617D01*
X113967957Y-105619617D02*
X114015576Y-105714855D01*
X114015576Y-105714855D02*
X114063195Y-105762474D01*
X114063195Y-105762474D02*
X114158433Y-105810093D01*
X114158433Y-105810093D02*
X114539385Y-105810093D01*
X113110814Y-105619617D02*
X113110814Y-106286284D01*
X113348909Y-105238665D02*
X113587004Y-105952950D01*
X113587004Y-105952950D02*
X112967957Y-105952950D01*
X118438496Y-122734775D02*
X118943572Y-123239851D01*
X118943572Y-123239851D02*
X119078259Y-123307195D01*
X119078259Y-123307195D02*
X119212946Y-123307195D01*
X119212946Y-123307195D02*
X119347633Y-123239851D01*
X119347633Y-123239851D02*
X119414977Y-123172508D01*
X118438496Y-124148989D02*
X118842557Y-123744928D01*
X118640526Y-123946958D02*
X117933419Y-123239851D01*
X117933419Y-123239851D02*
X118101778Y-123273523D01*
X118101778Y-123273523D02*
X118236465Y-123273523D01*
X118236465Y-123273523D02*
X118337480Y-123239851D01*
X117361000Y-124283676D02*
X117832404Y-124755080D01*
X117259984Y-123845943D02*
X117933419Y-124182660D01*
X117933419Y-124182660D02*
X117495687Y-124620393D01*
X128226110Y-112141798D02*
X127749919Y-111808465D01*
X128226110Y-111570370D02*
X127226110Y-111570370D01*
X127226110Y-111570370D02*
X127226110Y-111951322D01*
X127226110Y-111951322D02*
X127273729Y-112046560D01*
X127273729Y-112046560D02*
X127321348Y-112094179D01*
X127321348Y-112094179D02*
X127416586Y-112141798D01*
X127416586Y-112141798D02*
X127559443Y-112141798D01*
X127559443Y-112141798D02*
X127654681Y-112094179D01*
X127654681Y-112094179D02*
X127702300Y-112046560D01*
X127702300Y-112046560D02*
X127749919Y-111951322D01*
X127749919Y-111951322D02*
X127749919Y-111570370D01*
X127226110Y-112998941D02*
X127226110Y-112808465D01*
X127226110Y-112808465D02*
X127273729Y-112713227D01*
X127273729Y-112713227D02*
X127321348Y-112665608D01*
X127321348Y-112665608D02*
X127464205Y-112570370D01*
X127464205Y-112570370D02*
X127654681Y-112522751D01*
X127654681Y-112522751D02*
X128035633Y-112522751D01*
X128035633Y-112522751D02*
X128130871Y-112570370D01*
X128130871Y-112570370D02*
X128178491Y-112617989D01*
X128178491Y-112617989D02*
X128226110Y-112713227D01*
X128226110Y-112713227D02*
X128226110Y-112903703D01*
X128226110Y-112903703D02*
X128178491Y-112998941D01*
X128178491Y-112998941D02*
X128130871Y-113046560D01*
X128130871Y-113046560D02*
X128035633Y-113094179D01*
X128035633Y-113094179D02*
X127797538Y-113094179D01*
X127797538Y-113094179D02*
X127702300Y-113046560D01*
X127702300Y-113046560D02*
X127654681Y-112998941D01*
X127654681Y-112998941D02*
X127607062Y-112903703D01*
X127607062Y-112903703D02*
X127607062Y-112713227D01*
X127607062Y-112713227D02*
X127654681Y-112617989D01*
X127654681Y-112617989D02*
X127702300Y-112570370D01*
X127702300Y-112570370D02*
X127797538Y-112522751D01*
X103969110Y-131350607D02*
X103492919Y-131017274D01*
X103969110Y-130779179D02*
X102969110Y-130779179D01*
X102969110Y-130779179D02*
X102969110Y-131160131D01*
X102969110Y-131160131D02*
X103016729Y-131255369D01*
X103016729Y-131255369D02*
X103064348Y-131302988D01*
X103064348Y-131302988D02*
X103159586Y-131350607D01*
X103159586Y-131350607D02*
X103302443Y-131350607D01*
X103302443Y-131350607D02*
X103397681Y-131302988D01*
X103397681Y-131302988D02*
X103445300Y-131255369D01*
X103445300Y-131255369D02*
X103492919Y-131160131D01*
X103492919Y-131160131D02*
X103492919Y-130779179D01*
X103969110Y-132302988D02*
X103969110Y-131731560D01*
X103969110Y-132017274D02*
X102969110Y-132017274D01*
X102969110Y-132017274D02*
X103111967Y-131922036D01*
X103111967Y-131922036D02*
X103207205Y-131826798D01*
X103207205Y-131826798D02*
X103254824Y-131731560D01*
X103969110Y-133255369D02*
X103969110Y-132683941D01*
X103969110Y-132969655D02*
X102969110Y-132969655D01*
X102969110Y-132969655D02*
X103111967Y-132874417D01*
X103111967Y-132874417D02*
X103207205Y-132779179D01*
X103207205Y-132779179D02*
X103254824Y-132683941D01*
X128226110Y-121920798D02*
X127749919Y-121587465D01*
X128226110Y-121349370D02*
X127226110Y-121349370D01*
X127226110Y-121349370D02*
X127226110Y-121730322D01*
X127226110Y-121730322D02*
X127273729Y-121825560D01*
X127273729Y-121825560D02*
X127321348Y-121873179D01*
X127321348Y-121873179D02*
X127416586Y-121920798D01*
X127416586Y-121920798D02*
X127559443Y-121920798D01*
X127559443Y-121920798D02*
X127654681Y-121873179D01*
X127654681Y-121873179D02*
X127702300Y-121825560D01*
X127702300Y-121825560D02*
X127749919Y-121730322D01*
X127749919Y-121730322D02*
X127749919Y-121349370D01*
X127226110Y-122254132D02*
X127226110Y-122920798D01*
X127226110Y-122920798D02*
X128226110Y-122492227D01*
X128226110Y-131699798D02*
X127749919Y-131366465D01*
X128226110Y-131128370D02*
X127226110Y-131128370D01*
X127226110Y-131128370D02*
X127226110Y-131509322D01*
X127226110Y-131509322D02*
X127273729Y-131604560D01*
X127273729Y-131604560D02*
X127321348Y-131652179D01*
X127321348Y-131652179D02*
X127416586Y-131699798D01*
X127416586Y-131699798D02*
X127559443Y-131699798D01*
X127559443Y-131699798D02*
X127654681Y-131652179D01*
X127654681Y-131652179D02*
X127702300Y-131604560D01*
X127702300Y-131604560D02*
X127749919Y-131509322D01*
X127749919Y-131509322D02*
X127749919Y-131128370D01*
X127654681Y-132271227D02*
X127607062Y-132175989D01*
X127607062Y-132175989D02*
X127559443Y-132128370D01*
X127559443Y-132128370D02*
X127464205Y-132080751D01*
X127464205Y-132080751D02*
X127416586Y-132080751D01*
X127416586Y-132080751D02*
X127321348Y-132128370D01*
X127321348Y-132128370D02*
X127273729Y-132175989D01*
X127273729Y-132175989D02*
X127226110Y-132271227D01*
X127226110Y-132271227D02*
X127226110Y-132461703D01*
X127226110Y-132461703D02*
X127273729Y-132556941D01*
X127273729Y-132556941D02*
X127321348Y-132604560D01*
X127321348Y-132604560D02*
X127416586Y-132652179D01*
X127416586Y-132652179D02*
X127464205Y-132652179D01*
X127464205Y-132652179D02*
X127559443Y-132604560D01*
X127559443Y-132604560D02*
X127607062Y-132556941D01*
X127607062Y-132556941D02*
X127654681Y-132461703D01*
X127654681Y-132461703D02*
X127654681Y-132271227D01*
X127654681Y-132271227D02*
X127702300Y-132175989D01*
X127702300Y-132175989D02*
X127749919Y-132128370D01*
X127749919Y-132128370D02*
X127845157Y-132080751D01*
X127845157Y-132080751D02*
X128035633Y-132080751D01*
X128035633Y-132080751D02*
X128130871Y-132128370D01*
X128130871Y-132128370D02*
X128178491Y-132175989D01*
X128178491Y-132175989D02*
X128226110Y-132271227D01*
X128226110Y-132271227D02*
X128226110Y-132461703D01*
X128226110Y-132461703D02*
X128178491Y-132556941D01*
X128178491Y-132556941D02*
X128130871Y-132604560D01*
X128130871Y-132604560D02*
X128035633Y-132652179D01*
X128035633Y-132652179D02*
X127845157Y-132652179D01*
X127845157Y-132652179D02*
X127749919Y-132604560D01*
X127749919Y-132604560D02*
X127702300Y-132556941D01*
X127702300Y-132556941D02*
X127654681Y-132461703D01*
X124127957Y-106286284D02*
X124461290Y-105810093D01*
X124699385Y-106286284D02*
X124699385Y-105286284D01*
X124699385Y-105286284D02*
X124318433Y-105286284D01*
X124318433Y-105286284D02*
X124223195Y-105333903D01*
X124223195Y-105333903D02*
X124175576Y-105381522D01*
X124175576Y-105381522D02*
X124127957Y-105476760D01*
X124127957Y-105476760D02*
X124127957Y-105619617D01*
X124127957Y-105619617D02*
X124175576Y-105714855D01*
X124175576Y-105714855D02*
X124223195Y-105762474D01*
X124223195Y-105762474D02*
X124318433Y-105810093D01*
X124318433Y-105810093D02*
X124699385Y-105810093D01*
X123223195Y-105286284D02*
X123699385Y-105286284D01*
X123699385Y-105286284D02*
X123747004Y-105762474D01*
X123747004Y-105762474D02*
X123699385Y-105714855D01*
X123699385Y-105714855D02*
X123604147Y-105667236D01*
X123604147Y-105667236D02*
X123366052Y-105667236D01*
X123366052Y-105667236D02*
X123270814Y-105714855D01*
X123270814Y-105714855D02*
X123223195Y-105762474D01*
X123223195Y-105762474D02*
X123175576Y-105857712D01*
X123175576Y-105857712D02*
X123175576Y-106095807D01*
X123175576Y-106095807D02*
X123223195Y-106191045D01*
X123223195Y-106191045D02*
X123270814Y-106238665D01*
X123270814Y-106238665D02*
X123366052Y-106286284D01*
X123366052Y-106286284D02*
X123604147Y-106286284D01*
X123604147Y-106286284D02*
X123699385Y-106238665D01*
X123699385Y-106238665D02*
X123747004Y-106191045D01*
X100921110Y-121920798D02*
X100444919Y-121587465D01*
X100921110Y-121349370D02*
X99921110Y-121349370D01*
X99921110Y-121349370D02*
X99921110Y-121730322D01*
X99921110Y-121730322D02*
X99968729Y-121825560D01*
X99968729Y-121825560D02*
X100016348Y-121873179D01*
X100016348Y-121873179D02*
X100111586Y-121920798D01*
X100111586Y-121920798D02*
X100254443Y-121920798D01*
X100254443Y-121920798D02*
X100349681Y-121873179D01*
X100349681Y-121873179D02*
X100397300Y-121825560D01*
X100397300Y-121825560D02*
X100444919Y-121730322D01*
X100444919Y-121730322D02*
X100444919Y-121349370D01*
X100921110Y-122873179D02*
X100921110Y-122301751D01*
X100921110Y-122587465D02*
X99921110Y-122587465D01*
X99921110Y-122587465D02*
X100063967Y-122492227D01*
X100063967Y-122492227D02*
X100159205Y-122396989D01*
X100159205Y-122396989D02*
X100206824Y-122301751D01*
X100921110Y-131223607D02*
X100444919Y-130890274D01*
X100921110Y-130652179D02*
X99921110Y-130652179D01*
X99921110Y-130652179D02*
X99921110Y-131033131D01*
X99921110Y-131033131D02*
X99968729Y-131128369D01*
X99968729Y-131128369D02*
X100016348Y-131175988D01*
X100016348Y-131175988D02*
X100111586Y-131223607D01*
X100111586Y-131223607D02*
X100254443Y-131223607D01*
X100254443Y-131223607D02*
X100349681Y-131175988D01*
X100349681Y-131175988D02*
X100397300Y-131128369D01*
X100397300Y-131128369D02*
X100444919Y-131033131D01*
X100444919Y-131033131D02*
X100444919Y-130652179D01*
X100921110Y-132175988D02*
X100921110Y-131604560D01*
X100921110Y-131890274D02*
X99921110Y-131890274D01*
X99921110Y-131890274D02*
X100063967Y-131795036D01*
X100063967Y-131795036D02*
X100159205Y-131699798D01*
X100159205Y-131699798D02*
X100206824Y-131604560D01*
X100016348Y-132556941D02*
X99968729Y-132604560D01*
X99968729Y-132604560D02*
X99921110Y-132699798D01*
X99921110Y-132699798D02*
X99921110Y-132937893D01*
X99921110Y-132937893D02*
X99968729Y-133033131D01*
X99968729Y-133033131D02*
X100016348Y-133080750D01*
X100016348Y-133080750D02*
X100111586Y-133128369D01*
X100111586Y-133128369D02*
X100206824Y-133128369D01*
X100206824Y-133128369D02*
X100349681Y-133080750D01*
X100349681Y-133080750D02*
X100921110Y-132509322D01*
X100921110Y-132509322D02*
X100921110Y-133128369D01*
X158601580Y-69849999D02*
X158649200Y-69802380D01*
X158649200Y-69802380D02*
X158696819Y-69849999D01*
X158696819Y-69849999D02*
X158649200Y-69897618D01*
X158649200Y-69897618D02*
X158601580Y-69849999D01*
X158601580Y-69849999D02*
X158696819Y-69849999D01*
D11*
%TO.C,R3*%
X101133291Y-104461465D02*
X107673291Y-104461465D01*
X101133291Y-104791465D02*
X101133291Y-104461465D01*
X101133291Y-106871465D02*
X101133291Y-107201465D01*
X101133291Y-107201465D02*
X107673291Y-107201465D01*
X107673291Y-104461465D02*
X107673291Y-104791465D01*
X107673291Y-107201465D02*
X107673291Y-106871465D01*
%TO.C,R10*%
X117452291Y-136919465D02*
X110912291Y-136919465D01*
X117452291Y-136589465D02*
X117452291Y-136919465D01*
X117452291Y-134509465D02*
X117452291Y-134179465D01*
X117452291Y-134179465D02*
X110912291Y-134179465D01*
X110912291Y-136919465D02*
X110912291Y-136589465D01*
X110912291Y-134179465D02*
X110912291Y-134509465D01*
%TO.C,R2*%
X99096291Y-115578465D02*
X99096291Y-109038465D01*
X99426291Y-115578465D02*
X99096291Y-115578465D01*
X101506291Y-115578465D02*
X101836291Y-115578465D01*
X101836291Y-115578465D02*
X101836291Y-109038465D01*
X99096291Y-109038465D02*
X99426291Y-109038465D01*
X101836291Y-109038465D02*
X101506291Y-109038465D01*
%TO.C,R9*%
X126093291Y-128596465D02*
X126093291Y-135136465D01*
X125763291Y-128596465D02*
X126093291Y-128596465D01*
X123683291Y-128596465D02*
X123353291Y-128596465D01*
X123353291Y-128596465D02*
X123353291Y-135136465D01*
X126093291Y-135136465D02*
X125763291Y-135136465D01*
X123353291Y-135136465D02*
X123683291Y-135136465D01*
%TO.C,R4*%
X110912291Y-104461465D02*
X117452291Y-104461465D01*
X110912291Y-104791465D02*
X110912291Y-104461465D01*
X110912291Y-106871465D02*
X110912291Y-107201465D01*
X110912291Y-107201465D02*
X117452291Y-107201465D01*
X117452291Y-104461465D02*
X117452291Y-104791465D01*
X117452291Y-107201465D02*
X117452291Y-106871465D01*
%TO.C,J14*%
X108373296Y-124590721D02*
X113761450Y-129978875D01*
X108373296Y-124590721D02*
X119149603Y-113814414D01*
X109271322Y-125488747D02*
X120047629Y-114712440D01*
X113761450Y-129978875D02*
X124537757Y-119202568D01*
X119149603Y-113814414D02*
X124537757Y-119202568D01*
%TO.C,R6*%
X129141291Y-109038465D02*
X129141291Y-115578465D01*
X128811291Y-109038465D02*
X129141291Y-109038465D01*
X126731291Y-109038465D02*
X126401291Y-109038465D01*
X126401291Y-109038465D02*
X126401291Y-115578465D01*
X129141291Y-115578465D02*
X128811291Y-115578465D01*
X126401291Y-115578465D02*
X126731291Y-115578465D01*
%TO.C,R11*%
X102144291Y-135136465D02*
X102144291Y-128596465D01*
X102474291Y-135136465D02*
X102144291Y-135136465D01*
X104554291Y-135136465D02*
X104884291Y-135136465D01*
X104884291Y-135136465D02*
X104884291Y-128596465D01*
X102144291Y-128596465D02*
X102474291Y-128596465D01*
X104884291Y-128596465D02*
X104554291Y-128596465D01*
%TO.C,R7*%
X129141291Y-118817465D02*
X129141291Y-125357465D01*
X128811291Y-118817465D02*
X129141291Y-118817465D01*
X126731291Y-118817465D02*
X126401291Y-118817465D01*
X126401291Y-118817465D02*
X126401291Y-125357465D01*
X129141291Y-125357465D02*
X128811291Y-125357465D01*
X126401291Y-125357465D02*
X126731291Y-125357465D01*
%TO.C,R8*%
X129141291Y-128596465D02*
X129141291Y-135136465D01*
X128811291Y-128596465D02*
X129141291Y-128596465D01*
X126731291Y-128596465D02*
X126401291Y-128596465D01*
X126401291Y-128596465D02*
X126401291Y-135136465D01*
X129141291Y-135136465D02*
X128811291Y-135136465D01*
X126401291Y-135136465D02*
X126731291Y-135136465D01*
%TO.C,R5*%
X120691291Y-104461465D02*
X127231291Y-104461465D01*
X120691291Y-104791465D02*
X120691291Y-104461465D01*
X120691291Y-106871465D02*
X120691291Y-107201465D01*
X120691291Y-107201465D02*
X127231291Y-107201465D01*
X127231291Y-104461465D02*
X127231291Y-104791465D01*
X127231291Y-107201465D02*
X127231291Y-106871465D01*
%TO.C,R1*%
X99096291Y-125357465D02*
X99096291Y-118817465D01*
X99426291Y-125357465D02*
X99096291Y-125357465D01*
X101506291Y-125357465D02*
X101836291Y-125357465D01*
X101836291Y-125357465D02*
X101836291Y-118817465D01*
X99096291Y-118817465D02*
X99426291Y-118817465D01*
X101836291Y-118817465D02*
X101506291Y-118817465D01*
%TO.C,R12*%
X99096291Y-135136465D02*
X99096291Y-128596465D01*
X99426291Y-135136465D02*
X99096291Y-135136465D01*
X101506291Y-135136465D02*
X101836291Y-135136465D01*
X101836291Y-135136465D02*
X101836291Y-128596465D01*
X99096291Y-128596465D02*
X99426291Y-128596465D01*
X101836291Y-128596465D02*
X101506291Y-128596465D01*
D10*
%TO.C,XA1*%
X136906000Y-132334000D02*
X190246000Y-132334000D01*
X136906000Y-132334000D02*
X136906000Y-34798000D01*
X190246000Y-132334000D02*
X190246000Y-33274000D01*
X136906000Y-34798000D02*
X138430000Y-33274000D01*
X149606000Y-33274000D02*
X138430000Y-33274000D01*
X188976000Y-33274000D02*
X186436000Y-30734000D01*
X190246000Y-33274000D02*
X188976000Y-33274000D01*
X152146000Y-30734000D02*
X149606000Y-33274000D01*
X186436000Y-30734000D02*
X152146000Y-30734000D01*
%TD*%
M02*
