%TF.GenerationSoftware,KiCad,Pcbnew,7.0.6*%
%TF.CreationDate,2023-09-19T13:45:42+08:00*%
%TF.ProjectId,ControlPanelPanelized,436f6e74-726f-46c5-9061-6e656c50616e,rev?*%
%TF.SameCoordinates,Original*%
%TF.FileFunction,Soldermask,Bot*%
%TF.FilePolarity,Negative*%
%FSLAX46Y46*%
G04 Gerber Fmt 4.6, Leading zero omitted, Abs format (unit mm)*
G04 Created by KiCad (PCBNEW 7.0.6) date 2023-09-19 13:45:42*
%MOMM*%
%LPD*%
G01*
G04 APERTURE LIST*
G04 Aperture macros list*
%AMRoundRect*
0 Rectangle with rounded corners*
0 $1 Rounding radius*
0 $2 $3 $4 $5 $6 $7 $8 $9 X,Y pos of 4 corners*
0 Add a 4 corners polygon primitive as box body*
4,1,4,$2,$3,$4,$5,$6,$7,$8,$9,$2,$3,0*
0 Add four circle primitives for the rounded corners*
1,1,$1+$1,$2,$3*
1,1,$1+$1,$4,$5*
1,1,$1+$1,$6,$7*
1,1,$1+$1,$8,$9*
0 Add four rect primitives between the rounded corners*
20,1,$1+$1,$2,$3,$4,$5,0*
20,1,$1+$1,$4,$5,$6,$7,0*
20,1,$1+$1,$6,$7,$8,$9,0*
20,1,$1+$1,$8,$9,$2,$3,0*%
%AMRotRect*
0 Rectangle, with rotation*
0 The origin of the aperture is its center*
0 $1 length*
0 $2 width*
0 $3 Rotation angle, in degrees counterclockwise*
0 Add horizontal line*
21,1,$1,$2,0,0,$3*%
G04 Aperture macros list end*
%ADD10C,2.000000*%
%ADD11C,1.600000*%
%ADD12O,1.600000X1.600000*%
%ADD13RotRect,3.000000X3.000000X45.000000*%
%ADD14C,3.000000*%
%ADD15RoundRect,0.250000X-0.600000X0.600000X-0.600000X-0.600000X0.600000X-0.600000X0.600000X0.600000X0*%
%ADD16C,1.700000*%
%ADD17RoundRect,0.250000X0.600000X-0.600000X0.600000X0.600000X-0.600000X0.600000X-0.600000X-0.600000X0*%
%ADD18R,1.600000X1.600000*%
%ADD19C,3.200000*%
%ADD20O,1.727200X1.727200*%
%ADD21R,1.727200X1.727200*%
%ADD22R,3.000000X3.000000*%
%ADD23R,1.800000X1.800000*%
%ADD24C,1.800000*%
%ADD25C,1.400000*%
%ADD26O,1.400000X1.400000*%
%ADD27RoundRect,0.250000X0.600000X0.600000X-0.600000X0.600000X-0.600000X-0.600000X0.600000X-0.600000X0*%
G04 APERTURE END LIST*
D10*
%TO.C,J8*%
X121867893Y-127360067D03*
%TD*%
%TO.C,J7*%
X124714902Y-122428902D03*
%TD*%
%TO.C,J1*%
X103464534Y-116734882D03*
%TD*%
%TO.C,J5*%
X121867892Y-111803717D03*
%TD*%
%TO.C,J13*%
X111261291Y-116753465D03*
%TD*%
%TO.C,J2*%
X106311542Y-111803718D03*
%TD*%
%TO.C,J11*%
X106311543Y-127360068D03*
%TD*%
%TO.C,J4*%
X116936728Y-108956709D03*
%TD*%
%TO.C,J10*%
X111242709Y-130207077D03*
%TD*%
%TO.C,J12*%
X103464535Y-122428902D03*
%TD*%
%TO.C,J9*%
X116936727Y-130207075D03*
%TD*%
%TO.C,J3*%
X111242709Y-108956709D03*
%TD*%
%TO.C,J6*%
X124714901Y-116734884D03*
%TD*%
D11*
%TO.C,R3*%
X100593291Y-105831465D03*
D12*
X108213291Y-105831465D03*
%TD*%
D11*
%TO.C,R10*%
X117992291Y-135549465D03*
D12*
X110372291Y-135549465D03*
%TD*%
D11*
%TO.C,R2*%
X100466291Y-116118465D03*
D12*
X100466291Y-108498465D03*
%TD*%
D11*
%TO.C,R9*%
X124723291Y-128056465D03*
D12*
X124723291Y-135676465D03*
%TD*%
D11*
%TO.C,R4*%
X110372291Y-105831465D03*
D12*
X117992291Y-105831465D03*
%TD*%
D13*
%TO.C,J14*%
X112863424Y-125488747D03*
D14*
X116455526Y-121896645D03*
X120047629Y-118304542D03*
%TD*%
D11*
%TO.C,R6*%
X127771291Y-108498465D03*
D12*
X127771291Y-116118465D03*
%TD*%
D11*
%TO.C,R11*%
X103514291Y-135676465D03*
D12*
X103514291Y-128056465D03*
%TD*%
D11*
%TO.C,R7*%
X127771291Y-118277465D03*
D12*
X127771291Y-125897465D03*
%TD*%
D11*
%TO.C,R8*%
X127771291Y-128056465D03*
D12*
X127771291Y-135676465D03*
%TD*%
D11*
%TO.C,R5*%
X120151291Y-105831465D03*
D12*
X127771291Y-105831465D03*
%TD*%
D11*
%TO.C,R1*%
X100466291Y-125897465D03*
D12*
X100466291Y-118277465D03*
%TD*%
D11*
%TO.C,R12*%
X100466291Y-135676465D03*
D12*
X100466291Y-128056465D03*
%TD*%
D15*
%TO.C,J3*%
X156718000Y-54356000D03*
D16*
X156718000Y-56896000D03*
X154178000Y-54356000D03*
X154178000Y-56896000D03*
X151638000Y-54356000D03*
X151638000Y-56896000D03*
X149098000Y-54356000D03*
X149098000Y-56896000D03*
X146558000Y-54356000D03*
X146558000Y-56896000D03*
%TD*%
D17*
%TO.C,J1*%
X157734000Y-45974000D03*
D16*
X157734000Y-43434000D03*
X160274000Y-45974000D03*
X160274000Y-43434000D03*
X162814000Y-45974000D03*
X162814000Y-43434000D03*
X165354000Y-45974000D03*
X165354000Y-43434000D03*
X167894000Y-45974000D03*
X167894000Y-43434000D03*
X170434000Y-45974000D03*
X170434000Y-43434000D03*
X172974000Y-45974000D03*
X172974000Y-43434000D03*
X175514000Y-45974000D03*
X175514000Y-43434000D03*
X178054000Y-45974000D03*
X178054000Y-43434000D03*
X180594000Y-45974000D03*
X180594000Y-43434000D03*
%TD*%
D18*
%TO.C,SW2*%
X183482000Y-51134000D03*
D12*
X180942000Y-51134000D03*
X180942000Y-58754000D03*
X183482000Y-58754000D03*
%TD*%
D19*
%TO.C,XA1*%
X187706000Y-118364000D03*
X139446000Y-117094000D03*
D20*
X187706000Y-104394000D03*
D19*
X154686000Y-66294000D03*
X182626000Y-66294000D03*
X139446000Y-42164000D03*
X187706000Y-35814000D03*
D20*
X187706000Y-96774000D03*
X187706000Y-94234000D03*
X159766000Y-66167000D03*
X139446000Y-38354000D03*
X139446000Y-35814000D03*
X187706000Y-81534000D03*
X187706000Y-78994000D03*
X187706000Y-76454000D03*
X187706000Y-73914000D03*
X187706000Y-71374000D03*
X187706000Y-68834000D03*
X187706000Y-66294000D03*
X187706000Y-63754000D03*
X187706000Y-58674000D03*
X187706000Y-56134000D03*
X187706000Y-53594000D03*
X187706000Y-51054000D03*
X187706000Y-48514000D03*
X187706000Y-45974000D03*
X187706000Y-43434000D03*
X187706000Y-40894000D03*
X139446000Y-108458000D03*
X139446000Y-68834000D03*
X139446000Y-71374000D03*
X139446000Y-73914000D03*
X139446000Y-76454000D03*
X139446000Y-78994000D03*
X139446000Y-81534000D03*
X139446000Y-84074000D03*
X139446000Y-86614000D03*
X139446000Y-90678000D03*
X139446000Y-93218000D03*
X139446000Y-95758000D03*
X139446000Y-98298000D03*
X139446000Y-100838000D03*
X139446000Y-103378000D03*
X139446000Y-63754000D03*
X139446000Y-61214000D03*
X139446000Y-58674000D03*
X139446000Y-56134000D03*
X139446000Y-53594000D03*
X139446000Y-51054000D03*
X139446000Y-48514000D03*
X139446000Y-45974000D03*
X141986000Y-38354000D03*
X141986000Y-35814000D03*
X144526000Y-38354000D03*
X144526000Y-35814000D03*
X147066000Y-38354000D03*
X147066000Y-35814000D03*
X149606000Y-38354000D03*
X149606000Y-35814000D03*
X152146000Y-38354000D03*
X152146000Y-35814000D03*
X154686000Y-38354000D03*
X154686000Y-35814000D03*
X157226000Y-38354000D03*
X157226000Y-35814000D03*
X159766000Y-38354000D03*
X159766000Y-35814000D03*
X162306000Y-38354000D03*
X162306000Y-35814000D03*
X164846000Y-38354000D03*
X164846000Y-35814000D03*
X167386000Y-38354000D03*
X167386000Y-35814000D03*
X169926000Y-38354000D03*
X169926000Y-35814000D03*
X172466000Y-38354000D03*
X172466000Y-35814000D03*
X175006000Y-38354000D03*
X175006000Y-35814000D03*
X177546000Y-38354000D03*
X177546000Y-35814000D03*
X180086000Y-38354000D03*
X180086000Y-35814000D03*
D21*
X139446000Y-105918000D03*
X187706000Y-91694000D03*
X187706000Y-89154000D03*
X164846000Y-66167000D03*
X182626000Y-38354000D03*
X182626000Y-35814000D03*
D20*
X187706000Y-101854000D03*
X159766000Y-68707000D03*
X162306000Y-66167000D03*
X187706000Y-99314000D03*
X164846000Y-68707000D03*
X162306000Y-68707000D03*
X139446000Y-113538000D03*
X139446000Y-110998000D03*
X187706000Y-86614000D03*
%TD*%
D22*
%TO.C,J2*%
X165174000Y-53784000D03*
D14*
X170254000Y-53784000D03*
X175334000Y-53784000D03*
%TD*%
D10*
%TO.C,SW1*%
X149316000Y-41454000D03*
X149316000Y-47954000D03*
X144816000Y-41454000D03*
X144816000Y-47954000D03*
%TD*%
D23*
%TO.C,D8*%
X69289400Y-73647600D03*
D24*
X69289400Y-76187600D03*
%TD*%
D23*
%TO.C,D7*%
X72464400Y-78147600D03*
D24*
X72464400Y-80687600D03*
%TD*%
D23*
%TO.C,D5*%
X78814400Y-78147600D03*
D24*
X78814400Y-80687600D03*
%TD*%
D23*
%TO.C,D2*%
X88339400Y-73647600D03*
D24*
X88339400Y-76187600D03*
%TD*%
D22*
%TO.C,J12*%
X126401400Y-33273000D03*
D14*
X121321400Y-33273000D03*
%TD*%
D23*
%TO.C,D4*%
X81989400Y-73647600D03*
D24*
X81989400Y-76187600D03*
%TD*%
D23*
%TO.C,D1*%
X91523050Y-78142200D03*
D24*
X91523050Y-80682200D03*
%TD*%
D23*
%TO.C,D6*%
X75639400Y-73647600D03*
D24*
X75639400Y-76187600D03*
%TD*%
D23*
%TO.C,D3*%
X85164400Y-78147600D03*
D24*
X85164400Y-80687600D03*
%TD*%
D15*
%TO.C,IDC_RF1*%
X85493800Y-85661000D03*
D16*
X85493800Y-88201000D03*
X82953800Y-85661000D03*
X82953800Y-88201000D03*
X80413800Y-85661000D03*
X80413800Y-88201000D03*
X77873800Y-85661000D03*
X77873800Y-88201000D03*
X75333800Y-85661000D03*
X75333800Y-88201000D03*
%TD*%
D22*
%TO.C,J19*%
X98863400Y-65906400D03*
D14*
X98863400Y-60826400D03*
X98863400Y-55746400D03*
%TD*%
D25*
%TO.C,R1*%
X57456800Y-84807600D03*
D26*
X57456800Y-79727600D03*
%TD*%
D22*
%TO.C,J5*%
X52317400Y-50251200D03*
D14*
X52317400Y-45171200D03*
X52317400Y-40091200D03*
%TD*%
D25*
%TO.C,R2*%
X91523050Y-66408600D03*
D26*
X91523050Y-71488600D03*
%TD*%
D22*
%TO.C,J20*%
X98863400Y-81578200D03*
D14*
X98863400Y-76498200D03*
X98863400Y-71418200D03*
%TD*%
D18*
%TO.C,U1*%
X64171400Y-81962600D03*
D12*
X61631400Y-81962600D03*
X61631400Y-89582600D03*
X64171400Y-89582600D03*
%TD*%
D22*
%TO.C,J2*%
X44253400Y-55767400D03*
D14*
X44253400Y-60847400D03*
X44253400Y-65927400D03*
%TD*%
D22*
%TO.C,J17*%
X115824000Y-33274000D03*
D14*
X110744000Y-33274000D03*
X105664000Y-33274000D03*
%TD*%
D25*
%TO.C,R9*%
X69289400Y-66414000D03*
D26*
X69289400Y-71494000D03*
%TD*%
D25*
%TO.C,R4*%
X85164400Y-66414000D03*
D26*
X85164400Y-71494000D03*
%TD*%
D22*
%TO.C,J3*%
X44253400Y-71439200D03*
D14*
X44253400Y-76519200D03*
X44253400Y-81599200D03*
%TD*%
D22*
%TO.C,J15*%
X84480400Y-33274000D03*
D14*
X79400400Y-33274000D03*
X74320400Y-33274000D03*
%TD*%
D25*
%TO.C,R8*%
X72464400Y-66414000D03*
D26*
X72464400Y-71494000D03*
%TD*%
D22*
%TO.C,J21*%
X98863400Y-97247800D03*
D14*
X98863400Y-92167800D03*
X98863400Y-87087800D03*
%TD*%
D25*
%TO.C,R6*%
X78814400Y-66414000D03*
D26*
X78814400Y-71494000D03*
%TD*%
D22*
%TO.C,J10*%
X69657800Y-95986600D03*
D14*
X74737800Y-95986600D03*
%TD*%
D18*
%TO.C,U3*%
X69589400Y-43624000D03*
D12*
X69589400Y-46164000D03*
X69589400Y-48704000D03*
X69589400Y-51244000D03*
X69589400Y-53784000D03*
X69589400Y-56324000D03*
X69589400Y-58864000D03*
X69589400Y-61404000D03*
X77209400Y-61404000D03*
X77209400Y-58864000D03*
X77209400Y-56324000D03*
X77209400Y-53784000D03*
X77209400Y-51244000D03*
X77209400Y-48704000D03*
X77209400Y-46164000D03*
X77209400Y-43624000D03*
%TD*%
D22*
%TO.C,J7*%
X52317400Y-81599200D03*
D14*
X52317400Y-76519200D03*
X52317400Y-71439200D03*
%TD*%
D22*
%TO.C,J9*%
X59091400Y-95986600D03*
D14*
X64171400Y-95986600D03*
%TD*%
D25*
%TO.C,R5*%
X81989400Y-66414000D03*
D26*
X81989400Y-71494000D03*
%TD*%
D22*
%TO.C,J13*%
X53132400Y-33274000D03*
D14*
X48052400Y-33274000D03*
X42972400Y-33274000D03*
%TD*%
D27*
%TO.C,J11*%
X62626800Y-73076000D03*
D16*
X60086800Y-73076000D03*
X62626800Y-70536000D03*
X60086800Y-70536000D03*
X62626800Y-67996000D03*
X60086800Y-67996000D03*
X62626800Y-65456000D03*
X60086800Y-65456000D03*
X62626800Y-62916000D03*
X60086800Y-62916000D03*
X62626800Y-60376000D03*
X60086800Y-60376000D03*
X62626800Y-57836000D03*
X60086800Y-57836000D03*
X62626800Y-55296000D03*
X60086800Y-55296000D03*
X62626800Y-52756000D03*
X60086800Y-52756000D03*
X62626800Y-50216000D03*
X60086800Y-50216000D03*
%TD*%
D22*
%TO.C,J14*%
X68808600Y-33274000D03*
D14*
X63728600Y-33274000D03*
X58648600Y-33274000D03*
%TD*%
D22*
%TO.C,J4*%
X44253400Y-87108800D03*
D14*
X44253400Y-92188800D03*
X44253400Y-97268800D03*
%TD*%
D22*
%TO.C,J6*%
X52317400Y-65927400D03*
D14*
X52317400Y-60847400D03*
X52317400Y-55767400D03*
%TD*%
D22*
%TO.C,J22*%
X80239800Y-95986600D03*
D14*
X85319800Y-95986600D03*
%TD*%
D22*
%TO.C,J1*%
X44253400Y-40091200D03*
D14*
X44253400Y-45171200D03*
X44253400Y-50251200D03*
%TD*%
D22*
%TO.C,J18*%
X98863400Y-50230200D03*
D14*
X98863400Y-45150200D03*
X98863400Y-40070200D03*
%TD*%
D25*
%TO.C,R7*%
X75639400Y-66414000D03*
D26*
X75639400Y-71494000D03*
%TD*%
D22*
%TO.C,J16*%
X100152200Y-33274000D03*
D14*
X95072200Y-33274000D03*
X89992200Y-33274000D03*
%TD*%
D25*
%TO.C,R3*%
X88339400Y-66414000D03*
D26*
X88339400Y-71494000D03*
%TD*%
D22*
%TO.C,J8*%
X52317400Y-97268800D03*
D14*
X52317400Y-92188800D03*
X52317400Y-87108800D03*
%TD*%
D18*
%TO.C,U2*%
X84123050Y-43624000D03*
D12*
X84123050Y-46164000D03*
X84123050Y-48704000D03*
X84123050Y-51244000D03*
X84123050Y-53784000D03*
X84123050Y-56324000D03*
X84123050Y-58864000D03*
X84123050Y-61404000D03*
X91743050Y-61404000D03*
X91743050Y-58864000D03*
X91743050Y-56324000D03*
X91743050Y-53784000D03*
X91743050Y-51244000D03*
X91743050Y-48704000D03*
X91743050Y-46164000D03*
X91743050Y-43624000D03*
%TD*%
M02*
