%TF.GenerationSoftware,KiCad,Pcbnew,7.0.6*%
%TF.CreationDate,2023-09-19T13:45:42+08:00*%
%TF.ProjectId,ControlPanelPanelized,436f6e74-726f-46c5-9061-6e656c50616e,rev?*%
%TF.SameCoordinates,Original*%
%TF.FileFunction,Copper,L2,Bot*%
%TF.FilePolarity,Positive*%
%FSLAX46Y46*%
G04 Gerber Fmt 4.6, Leading zero omitted, Abs format (unit mm)*
G04 Created by KiCad (PCBNEW 7.0.6) date 2023-09-19 13:45:42*
%MOMM*%
%LPD*%
G01*
G04 APERTURE LIST*
G04 Aperture macros list*
%AMRoundRect*
0 Rectangle with rounded corners*
0 $1 Rounding radius*
0 $2 $3 $4 $5 $6 $7 $8 $9 X,Y pos of 4 corners*
0 Add a 4 corners polygon primitive as box body*
4,1,4,$2,$3,$4,$5,$6,$7,$8,$9,$2,$3,0*
0 Add four circle primitives for the rounded corners*
1,1,$1+$1,$2,$3*
1,1,$1+$1,$4,$5*
1,1,$1+$1,$6,$7*
1,1,$1+$1,$8,$9*
0 Add four rect primitives between the rounded corners*
20,1,$1+$1,$2,$3,$4,$5,0*
20,1,$1+$1,$4,$5,$6,$7,0*
20,1,$1+$1,$6,$7,$8,$9,0*
20,1,$1+$1,$8,$9,$2,$3,0*%
%AMRotRect*
0 Rectangle, with rotation*
0 The origin of the aperture is its center*
0 $1 length*
0 $2 width*
0 $3 Rotation angle, in degrees counterclockwise*
0 Add horizontal line*
21,1,$1,$2,0,0,$3*%
G04 Aperture macros list end*
%TA.AperFunction,ComponentPad*%
%ADD10C,2.000000*%
%TD*%
%TA.AperFunction,ComponentPad*%
%ADD11C,1.600000*%
%TD*%
%TA.AperFunction,ComponentPad*%
%ADD12O,1.600000X1.600000*%
%TD*%
%TA.AperFunction,ComponentPad*%
%ADD13RotRect,3.000000X3.000000X45.000000*%
%TD*%
%TA.AperFunction,ComponentPad*%
%ADD14C,3.000000*%
%TD*%
%TA.AperFunction,ComponentPad*%
%ADD15RoundRect,0.250000X-0.600000X0.600000X-0.600000X-0.600000X0.600000X-0.600000X0.600000X0.600000X0*%
%TD*%
%TA.AperFunction,ComponentPad*%
%ADD16C,1.700000*%
%TD*%
%TA.AperFunction,ComponentPad*%
%ADD17RoundRect,0.250000X0.600000X-0.600000X0.600000X0.600000X-0.600000X0.600000X-0.600000X-0.600000X0*%
%TD*%
%TA.AperFunction,ComponentPad*%
%ADD18R,1.600000X1.600000*%
%TD*%
%TA.AperFunction,ComponentPad*%
%ADD19O,1.727200X1.727200*%
%TD*%
%TA.AperFunction,ComponentPad*%
%ADD20R,1.727200X1.727200*%
%TD*%
%TA.AperFunction,ComponentPad*%
%ADD21R,3.000000X3.000000*%
%TD*%
%TA.AperFunction,ComponentPad*%
%ADD22R,1.800000X1.800000*%
%TD*%
%TA.AperFunction,ComponentPad*%
%ADD23C,1.800000*%
%TD*%
%TA.AperFunction,ComponentPad*%
%ADD24C,1.400000*%
%TD*%
%TA.AperFunction,ComponentPad*%
%ADD25O,1.400000X1.400000*%
%TD*%
%TA.AperFunction,ComponentPad*%
%ADD26RoundRect,0.250000X0.600000X0.600000X-0.600000X0.600000X-0.600000X-0.600000X0.600000X-0.600000X0*%
%TD*%
%TA.AperFunction,Conductor*%
%ADD27C,0.250000*%
%TD*%
G04 APERTURE END LIST*
D10*
%TO.P,J8,1,Pin_1*%
%TO.N,N/C*%
X121867893Y-127360067D03*
%TD*%
%TO.P,J7,1,Pin_1*%
%TO.N,N/C*%
X124714902Y-122428902D03*
%TD*%
%TO.P,J1,1,Pin_1*%
%TO.N,N/C*%
X103464534Y-116734882D03*
%TD*%
%TO.P,J5,1,Pin_1*%
%TO.N,N/C*%
X121867892Y-111803717D03*
%TD*%
%TO.P,J13,1,Pin_1*%
%TO.N,N/C*%
X111261291Y-116753465D03*
%TD*%
%TO.P,J2,1,Pin_1*%
%TO.N,N/C*%
X106311542Y-111803718D03*
%TD*%
%TO.P,J11,1,Pin_1*%
%TO.N,N/C*%
X106311543Y-127360068D03*
%TD*%
%TO.P,J4,1,Pin_1*%
%TO.N,N/C*%
X116936728Y-108956709D03*
%TD*%
%TO.P,J10,1,Pin_1*%
%TO.N,Net-(J10-Pin_1)*%
X111242709Y-130207077D03*
%TD*%
%TO.P,J12,1,Pin_1*%
%TO.N,N/C*%
X103464535Y-122428902D03*
%TD*%
%TO.P,J9,1,Pin_1*%
%TO.N,N/C*%
X116936727Y-130207075D03*
%TD*%
%TO.P,J3,1,Pin_1*%
%TO.N,N/C*%
X111242709Y-108956709D03*
%TD*%
%TO.P,J6,1,Pin_1*%
%TO.N,N/C*%
X124714901Y-116734884D03*
%TD*%
D11*
%TO.P,R3,1*%
%TO.N,N/C*%
X100593291Y-105831465D03*
D12*
%TO.P,R3,2*%
X108213291Y-105831465D03*
%TD*%
D11*
%TO.P,R10,1*%
%TO.N,N/C*%
X117992291Y-135549465D03*
D12*
%TO.P,R10,2*%
%TO.N,Net-(J10-Pin_1)*%
X110372291Y-135549465D03*
%TD*%
D11*
%TO.P,R2,1*%
%TO.N,N/C*%
X100466291Y-116118465D03*
D12*
%TO.P,R2,2*%
X100466291Y-108498465D03*
%TD*%
D11*
%TO.P,R9,1*%
%TO.N,N/C*%
X124723291Y-128056465D03*
D12*
%TO.P,R9,2*%
X124723291Y-135676465D03*
%TD*%
D11*
%TO.P,R4,1*%
%TO.N,N/C*%
X110372291Y-105831465D03*
D12*
%TO.P,R4,2*%
X117992291Y-105831465D03*
%TD*%
D13*
%TO.P,J14,1,Pin_1*%
%TO.N,N/C*%
X112863424Y-125488747D03*
D14*
%TO.P,J14,2,Pin_2*%
X116455526Y-121896645D03*
%TO.P,J14,3,Pin_3*%
X120047629Y-118304542D03*
%TD*%
D11*
%TO.P,R6,1*%
%TO.N,N/C*%
X127771291Y-108498465D03*
D12*
%TO.P,R6,2*%
X127771291Y-116118465D03*
%TD*%
D11*
%TO.P,R11,1*%
%TO.N,Net-(J10-Pin_1)*%
X103514291Y-135676465D03*
D12*
%TO.P,R11,2*%
%TO.N,N/C*%
X103514291Y-128056465D03*
%TD*%
D11*
%TO.P,R7,1*%
%TO.N,N/C*%
X127771291Y-118277465D03*
D12*
%TO.P,R7,2*%
X127771291Y-125897465D03*
%TD*%
D11*
%TO.P,R8,1*%
%TO.N,N/C*%
X127771291Y-128056465D03*
D12*
%TO.P,R8,2*%
X127771291Y-135676465D03*
%TD*%
D11*
%TO.P,R5,1*%
%TO.N,N/C*%
X120151291Y-105831465D03*
D12*
%TO.P,R5,2*%
X127771291Y-105831465D03*
%TD*%
D11*
%TO.P,R1,1*%
%TO.N,N/C*%
X100466291Y-125897465D03*
D12*
%TO.P,R1,2*%
X100466291Y-118277465D03*
%TD*%
D11*
%TO.P,R12,1*%
%TO.N,N/C*%
X100466291Y-135676465D03*
D12*
%TO.P,R12,2*%
X100466291Y-128056465D03*
%TD*%
D15*
%TO.P,J3,1,Pin_1*%
%TO.N,/A_ON*%
X156718000Y-54356000D03*
D16*
%TO.P,J3,2,Pin_2*%
%TO.N,/GND*%
X156718000Y-56896000D03*
%TO.P,J3,3,Pin_3*%
%TO.N,/A_OFF*%
X154178000Y-54356000D03*
%TO.P,J3,4,Pin_4*%
%TO.N,/3V3*%
X154178000Y-56896000D03*
%TO.P,J3,5,Pin_5*%
%TO.N,/B_ON*%
X151638000Y-54356000D03*
%TO.P,J3,6,Pin_6*%
%TO.N,/D30*%
X151638000Y-56896000D03*
%TO.P,J3,7,Pin_7*%
%TO.N,/B_OFF*%
X149098000Y-54356000D03*
%TO.P,J3,8,Pin_8*%
%TO.N,/D31*%
X149098000Y-56896000D03*
%TO.P,J3,9,Pin_9*%
%TO.N,/C_ON*%
X146558000Y-54356000D03*
%TO.P,J3,10,Pin_10*%
%TO.N,/C_OFF*%
X146558000Y-56896000D03*
%TD*%
D17*
%TO.P,J1,1,Pin_1*%
%TO.N,/D39*%
X157734000Y-45974000D03*
D16*
%TO.P,J1,2,Pin_2*%
%TO.N,/D40*%
X157734000Y-43434000D03*
%TO.P,J1,3,Pin_3*%
%TO.N,/D38*%
X160274000Y-45974000D03*
%TO.P,J1,4,Pin_4*%
%TO.N,/D41*%
X160274000Y-43434000D03*
%TO.P,J1,5,Pin_5*%
%TO.N,/A0*%
X162814000Y-45974000D03*
%TO.P,J1,6,Pin_6*%
%TO.N,/D42*%
X162814000Y-43434000D03*
%TO.P,J1,7,Pin_7*%
%TO.N,/A1*%
X165354000Y-45974000D03*
%TO.P,J1,8,Pin_8*%
%TO.N,/D43*%
X165354000Y-43434000D03*
%TO.P,J1,9,Pin_9*%
%TO.N,/A2*%
X167894000Y-45974000D03*
%TO.P,J1,10,Pin_10*%
%TO.N,/D44*%
X167894000Y-43434000D03*
%TO.P,J1,11,Pin_11*%
%TO.N,/A3*%
X170434000Y-45974000D03*
%TO.P,J1,12,Pin_12*%
%TO.N,/D45*%
X170434000Y-43434000D03*
%TO.P,J1,13,Pin_13*%
%TO.N,/A4*%
X172974000Y-45974000D03*
%TO.P,J1,14,Pin_14*%
%TO.N,/D46*%
X172974000Y-43434000D03*
%TO.P,J1,15,Pin_15*%
%TO.N,N/C*%
X175514000Y-45974000D03*
%TO.P,J1,16,Pin_16*%
%TO.N,/D47*%
X175514000Y-43434000D03*
%TO.P,J1,17,Pin_17*%
%TO.N,/AREF*%
X178054000Y-45974000D03*
%TO.P,J1,18,Pin_18*%
%TO.N,/D48*%
X178054000Y-43434000D03*
%TO.P,J1,19,Pin_19*%
%TO.N,/GND*%
X180594000Y-45974000D03*
%TO.P,J1,20,Pin_20*%
%TO.N,/D49*%
X180594000Y-43434000D03*
%TD*%
D18*
%TO.P,SW2,1*%
%TO.N,/5V*%
X183482000Y-51134000D03*
D12*
%TO.P,SW2,2*%
X180942000Y-51134000D03*
%TO.P,SW2,3*%
%TO.N,/AREF*%
X180942000Y-58754000D03*
%TO.P,SW2,4*%
%TO.N,/VIN*%
X183482000Y-58754000D03*
%TD*%
D19*
%TO.P,XA1,*%
%TO.N,*%
X187706000Y-104394000D03*
%TO.P,XA1,3V3,3.3V*%
%TO.N,N/C*%
X187706000Y-96774000D03*
%TO.P,XA1,5V1,5V*%
X187706000Y-94234000D03*
%TO.P,XA1,5V2,SPI_5V*%
X159766000Y-66167000D03*
%TO.P,XA1,5V3,5V*%
X139446000Y-38354000D03*
%TO.P,XA1,5V4,5V*%
X139446000Y-35814000D03*
%TO.P,XA1,A0,A0*%
%TO.N,/A0*%
X187706000Y-81534000D03*
%TO.P,XA1,A1,A1*%
%TO.N,/A1*%
X187706000Y-78994000D03*
%TO.P,XA1,A2,A2*%
%TO.N,/A2*%
X187706000Y-76454000D03*
%TO.P,XA1,A3,A3*%
%TO.N,/A3*%
X187706000Y-73914000D03*
%TO.P,XA1,A4,A4*%
%TO.N,/A4*%
X187706000Y-71374000D03*
%TO.P,XA1,A5,A5*%
%TO.N,N/C*%
X187706000Y-68834000D03*
%TO.P,XA1,A6,A6*%
X187706000Y-66294000D03*
%TO.P,XA1,A7,A7*%
X187706000Y-63754000D03*
%TO.P,XA1,A8,A8*%
X187706000Y-58674000D03*
%TO.P,XA1,A9,A9*%
X187706000Y-56134000D03*
%TO.P,XA1,A10,A10*%
X187706000Y-53594000D03*
%TO.P,XA1,A11,A11*%
X187706000Y-51054000D03*
%TO.P,XA1,A12,A12*%
X187706000Y-48514000D03*
%TO.P,XA1,A13,A13*%
X187706000Y-45974000D03*
%TO.P,XA1,A14,A14*%
X187706000Y-43434000D03*
%TO.P,XA1,A15,A15*%
X187706000Y-40894000D03*
%TO.P,XA1,AREF,AREF*%
%TO.N,/AREF*%
X139446000Y-108458000D03*
%TO.P,XA1,D0,D0/RX0*%
%TO.N,N/C*%
X139446000Y-68834000D03*
%TO.P,XA1,D1,D1/TX0*%
X139446000Y-71374000D03*
%TO.P,XA1,D2,D2_INT0*%
X139446000Y-73914000D03*
%TO.P,XA1,D3,D3_INT1*%
X139446000Y-76454000D03*
%TO.P,XA1,D4,D4*%
X139446000Y-78994000D03*
%TO.P,XA1,D5,D5*%
X139446000Y-81534000D03*
%TO.P,XA1,D6,D6*%
X139446000Y-84074000D03*
%TO.P,XA1,D7,D7*%
X139446000Y-86614000D03*
%TO.P,XA1,D8,D8*%
X139446000Y-90678000D03*
%TO.P,XA1,D9,D9*%
X139446000Y-93218000D03*
%TO.P,XA1,D10,D10*%
X139446000Y-95758000D03*
%TO.P,XA1,D11,D11*%
X139446000Y-98298000D03*
%TO.P,XA1,D12,D12*%
X139446000Y-100838000D03*
%TO.P,XA1,D13,D13*%
X139446000Y-103378000D03*
%TO.P,XA1,D14,D14/TX3*%
X139446000Y-63754000D03*
%TO.P,XA1,D15,D15/RX3*%
X139446000Y-61214000D03*
%TO.P,XA1,D16,D16/TX2*%
X139446000Y-58674000D03*
%TO.P,XA1,D17,D17/RX2*%
X139446000Y-56134000D03*
%TO.P,XA1,D18,D18/TX1*%
X139446000Y-53594000D03*
%TO.P,XA1,D19,D19/RX1*%
X139446000Y-51054000D03*
%TO.P,XA1,D20,D20/SDA*%
X139446000Y-48514000D03*
%TO.P,XA1,D21,D21/SCL*%
X139446000Y-45974000D03*
%TO.P,XA1,D22,D22*%
X141986000Y-38354000D03*
%TO.P,XA1,D23,D23*%
X141986000Y-35814000D03*
%TO.P,XA1,D24,D24*%
X144526000Y-38354000D03*
%TO.P,XA1,D25,D25*%
X144526000Y-35814000D03*
%TO.P,XA1,D26,D26*%
X147066000Y-38354000D03*
%TO.P,XA1,D27,D27*%
X147066000Y-35814000D03*
%TO.P,XA1,D28,D28*%
X149606000Y-38354000D03*
%TO.P,XA1,D29,D29*%
X149606000Y-35814000D03*
%TO.P,XA1,D30,D30*%
%TO.N,/D30*%
X152146000Y-38354000D03*
%TO.P,XA1,D31,D31*%
%TO.N,/D31*%
X152146000Y-35814000D03*
%TO.P,XA1,D32,D32*%
%TO.N,/C_OFF*%
X154686000Y-38354000D03*
%TO.P,XA1,D33,D33*%
%TO.N,/C_ON*%
X154686000Y-35814000D03*
%TO.P,XA1,D34,D34*%
%TO.N,/B_OFF*%
X157226000Y-38354000D03*
%TO.P,XA1,D35,D35*%
%TO.N,/B_ON*%
X157226000Y-35814000D03*
%TO.P,XA1,D36,D36*%
%TO.N,/A_OFF*%
X159766000Y-38354000D03*
%TO.P,XA1,D37,D37*%
%TO.N,/A_ON*%
X159766000Y-35814000D03*
%TO.P,XA1,D38,D38*%
%TO.N,/D38*%
X162306000Y-38354000D03*
%TO.P,XA1,D39,D39*%
%TO.N,/D39*%
X162306000Y-35814000D03*
%TO.P,XA1,D40,D40*%
%TO.N,/D40*%
X164846000Y-38354000D03*
%TO.P,XA1,D41,D41*%
%TO.N,/D41*%
X164846000Y-35814000D03*
%TO.P,XA1,D42,D42*%
%TO.N,/D42*%
X167386000Y-38354000D03*
%TO.P,XA1,D43,D43*%
%TO.N,/D43*%
X167386000Y-35814000D03*
%TO.P,XA1,D44,D44*%
%TO.N,/D44*%
X169926000Y-38354000D03*
%TO.P,XA1,D45,D45*%
%TO.N,/D45*%
X169926000Y-35814000D03*
%TO.P,XA1,D46,D46*%
%TO.N,/D46*%
X172466000Y-38354000D03*
%TO.P,XA1,D47,D47*%
%TO.N,/D47*%
X172466000Y-35814000D03*
%TO.P,XA1,D48,D48*%
%TO.N,/D48*%
X175006000Y-38354000D03*
%TO.P,XA1,D49,D49*%
%TO.N,/D49*%
X175006000Y-35814000D03*
%TO.P,XA1,D50,D50_MISO*%
%TO.N,N/C*%
X177546000Y-38354000D03*
%TO.P,XA1,D51,D51_MOSI*%
X177546000Y-35814000D03*
%TO.P,XA1,D52,D52_SCK*%
X180086000Y-38354000D03*
%TO.P,XA1,D53,D53_CS*%
X180086000Y-35814000D03*
D20*
%TO.P,XA1,GND1,GND*%
%TO.N,/GND*%
X139446000Y-105918000D03*
%TO.P,XA1,GND2,GND*%
X187706000Y-91694000D03*
%TO.P,XA1,GND3,GND*%
X187706000Y-89154000D03*
%TO.P,XA1,GND4,SPI_GND*%
X164846000Y-66167000D03*
%TO.P,XA1,GND5,GND*%
X182626000Y-38354000D03*
%TO.P,XA1,GND6,GND*%
X182626000Y-35814000D03*
D19*
%TO.P,XA1,IORF,IOREF*%
%TO.N,N/C*%
X187706000Y-101854000D03*
%TO.P,XA1,MISO,SPI_MISO*%
X159766000Y-68707000D03*
%TO.P,XA1,MOSI,SPI_MOSI*%
X162306000Y-66167000D03*
%TO.P,XA1,RST1,RESET*%
%TO.N,/RST*%
X187706000Y-99314000D03*
%TO.P,XA1,RST2,SPI_RESET*%
%TO.N,N/C*%
X164846000Y-68707000D03*
%TO.P,XA1,SCK,SPI_SCK*%
X162306000Y-68707000D03*
%TO.P,XA1,SCL,SCL*%
X139446000Y-113538000D03*
%TO.P,XA1,SDA,SDA*%
X139446000Y-110998000D03*
%TO.P,XA1,VIN,VIN*%
X187706000Y-86614000D03*
%TD*%
D21*
%TO.P,J2,1,Pin_1*%
%TO.N,/5V*%
X165174000Y-53784000D03*
D14*
%TO.P,J2,2,Pin_2*%
%TO.N,/3V3*%
X170254000Y-53784000D03*
%TO.P,J2,3,Pin_3*%
%TO.N,/GND*%
X175334000Y-53784000D03*
%TD*%
D10*
%TO.P,SW1,1,1*%
%TO.N,/GND*%
X149316000Y-41454000D03*
X149316000Y-47954000D03*
%TO.P,SW1,2,2*%
%TO.N,/RST*%
X144816000Y-41454000D03*
X144816000Y-47954000D03*
%TD*%
D22*
%TO.P,D8,1,K*%
%TO.N,Net-(D8-K)*%
X69289400Y-73647600D03*
D23*
%TO.P,D8,2,A*%
%TO.N,N/C*%
X69289400Y-76187600D03*
%TD*%
D22*
%TO.P,D7,1,K*%
%TO.N,Net-(D7-K)*%
X72464400Y-78147600D03*
D23*
%TO.P,D7,2,A*%
%TO.N,N/C*%
X72464400Y-80687600D03*
%TD*%
D22*
%TO.P,D5,1,K*%
%TO.N,Net-(D5-K)*%
X78814400Y-78147600D03*
D23*
%TO.P,D5,2,A*%
%TO.N,/C_ON*%
X78814400Y-80687600D03*
%TD*%
D22*
%TO.P,D2,1,K*%
%TO.N,Net-(D2-K)*%
X88339400Y-73647600D03*
D23*
%TO.P,D2,2,A*%
%TO.N,/A_OFF*%
X88339400Y-76187600D03*
%TD*%
D21*
%TO.P,J12,1,Pin_1*%
%TO.N,/5V*%
X126401400Y-33273000D03*
D14*
%TO.P,J12,2,Pin_2*%
%TO.N,/GND*%
X121321400Y-33273000D03*
%TD*%
D22*
%TO.P,D4,1,K*%
%TO.N,Net-(D4-K)*%
X81989400Y-73647600D03*
D23*
%TO.P,D4,2,A*%
%TO.N,/B_OFF*%
X81989400Y-76187600D03*
%TD*%
D22*
%TO.P,D1,1,K*%
%TO.N,Net-(D1-K)*%
X91523050Y-78142200D03*
D23*
%TO.P,D1,2,A*%
%TO.N,/A_ON*%
X91523050Y-80682200D03*
%TD*%
D22*
%TO.P,D6,1,K*%
%TO.N,Net-(D6-K)*%
X75639400Y-73647600D03*
D23*
%TO.P,D6,2,A*%
%TO.N,/C_OFF*%
X75639400Y-76187600D03*
%TD*%
D22*
%TO.P,D3,1,K*%
%TO.N,Net-(D3-K)*%
X85164400Y-78147600D03*
D23*
%TO.P,D3,2,A*%
%TO.N,/B_ON*%
X85164400Y-80687600D03*
%TD*%
D15*
%TO.P,IDC_RF1,1,Pin_1*%
%TO.N,/A_ON*%
X85493800Y-85661000D03*
D16*
%TO.P,IDC_RF1,2,Pin_2*%
%TO.N,/GND*%
X85493800Y-88201000D03*
%TO.P,IDC_RF1,3,Pin_3*%
%TO.N,/A_OFF*%
X82953800Y-85661000D03*
%TO.P,IDC_RF1,4,Pin_4*%
%TO.N,/3V3*%
X82953800Y-88201000D03*
%TO.P,IDC_RF1,5,Pin_5*%
%TO.N,/B_ON*%
X80413800Y-85661000D03*
%TO.P,IDC_RF1,6,Pin_6*%
%TO.N,N/C*%
X80413800Y-88201000D03*
%TO.P,IDC_RF1,7,Pin_7*%
%TO.N,/B_OFF*%
X77873800Y-85661000D03*
%TO.P,IDC_RF1,8,Pin_8*%
%TO.N,N/C*%
X77873800Y-88201000D03*
%TO.P,IDC_RF1,9,Pin_9*%
%TO.N,/C_ON*%
X75333800Y-85661000D03*
%TO.P,IDC_RF1,10,Pin_10*%
%TO.N,/C_OFF*%
X75333800Y-88201000D03*
%TD*%
D21*
%TO.P,J19,1,Pin_1*%
%TO.N,Net-(J19-Pin_1)*%
X98863400Y-65906400D03*
D14*
%TO.P,J19,2,Pin_2*%
%TO.N,Net-(J19-Pin_2)*%
X98863400Y-60826400D03*
%TO.P,J19,3,Pin_3*%
%TO.N,Net-(J19-Pin_3)*%
X98863400Y-55746400D03*
%TD*%
D24*
%TO.P,R1,1*%
%TO.N,Net-(R1-Pad1)*%
X57456800Y-84807600D03*
D25*
%TO.P,R1,2*%
%TO.N,/5V*%
X57456800Y-79727600D03*
%TD*%
D21*
%TO.P,J5,1,Pin_1*%
%TO.N,N/C*%
X52317400Y-50251200D03*
D14*
%TO.P,J5,2,Pin_2*%
X52317400Y-45171200D03*
%TO.P,J5,3,Pin_3*%
X52317400Y-40091200D03*
%TD*%
D24*
%TO.P,R2,1*%
%TO.N,Net-(R2-Pad1)*%
X91523050Y-66408600D03*
D25*
%TO.P,R2,2*%
%TO.N,Net-(D1-K)*%
X91523050Y-71488600D03*
%TD*%
D21*
%TO.P,J20,1,Pin_1*%
%TO.N,Net-(J20-Pin_1)*%
X98863400Y-81578200D03*
D14*
%TO.P,J20,2,Pin_2*%
%TO.N,Net-(J20-Pin_2)*%
X98863400Y-76498200D03*
%TO.P,J20,3,Pin_3*%
%TO.N,Net-(J20-Pin_3)*%
X98863400Y-71418200D03*
%TD*%
D18*
%TO.P,U1,1*%
%TO.N,Net-(R1-Pad1)*%
X64171400Y-81962600D03*
D12*
%TO.P,U1,2*%
%TO.N,N/C*%
X61631400Y-81962600D03*
%TO.P,U1,3*%
%TO.N,Net-(J10-Pin_1)*%
X61631400Y-89582600D03*
%TO.P,U1,4*%
%TO.N,Net-(J10-Pin_2)*%
X64171400Y-89582600D03*
%TD*%
D21*
%TO.P,J2,1,Pin_1*%
%TO.N,/GND*%
X44253400Y-55767400D03*
D14*
%TO.P,J2,2,Pin_2*%
X44253400Y-60847400D03*
%TO.P,J2,3,Pin_3*%
X44253400Y-65927400D03*
%TD*%
D21*
%TO.P,J17,1,Pin_1*%
%TO.N,/5V*%
X115824000Y-33274000D03*
D14*
%TO.P,J17,2,Pin_2*%
%TO.N,N/C*%
X110744000Y-33274000D03*
%TO.P,J17,3,Pin_3*%
%TO.N,/GND*%
X105664000Y-33274000D03*
%TD*%
D24*
%TO.P,R9,1*%
%TO.N,Net-(R9-Pad1)*%
X69289400Y-66414000D03*
D25*
%TO.P,R9,2*%
%TO.N,Net-(D8-K)*%
X69289400Y-71494000D03*
%TD*%
D24*
%TO.P,R4,1*%
%TO.N,Net-(R4-Pad1)*%
X85164400Y-66414000D03*
D25*
%TO.P,R4,2*%
%TO.N,Net-(D3-K)*%
X85164400Y-71494000D03*
%TD*%
D21*
%TO.P,J3,1,Pin_1*%
%TO.N,/GND*%
X44253400Y-71439200D03*
D14*
%TO.P,J3,2,Pin_2*%
X44253400Y-76519200D03*
%TO.P,J3,3,Pin_3*%
X44253400Y-81599200D03*
%TD*%
D21*
%TO.P,J15,1,Pin_1*%
%TO.N,/5V*%
X84480400Y-33274000D03*
D14*
%TO.P,J15,2,Pin_2*%
%TO.N,N/C*%
X79400400Y-33274000D03*
%TO.P,J15,3,Pin_3*%
%TO.N,/GND*%
X74320400Y-33274000D03*
%TD*%
D24*
%TO.P,R8,1*%
%TO.N,Net-(R8-Pad1)*%
X72464400Y-66414000D03*
D25*
%TO.P,R8,2*%
%TO.N,Net-(D7-K)*%
X72464400Y-71494000D03*
%TD*%
D21*
%TO.P,J21,1,Pin_1*%
%TO.N,Net-(J21-Pin_1)*%
X98863400Y-97247800D03*
D14*
%TO.P,J21,2,Pin_2*%
%TO.N,Net-(J21-Pin_2)*%
X98863400Y-92167800D03*
%TO.P,J21,3,Pin_3*%
%TO.N,Net-(J21-Pin_3)*%
X98863400Y-87087800D03*
%TD*%
D24*
%TO.P,R6,1*%
%TO.N,Net-(R6-Pad1)*%
X78814400Y-66414000D03*
D25*
%TO.P,R6,2*%
%TO.N,Net-(D5-K)*%
X78814400Y-71494000D03*
%TD*%
D21*
%TO.P,J10,1,Pin_1*%
%TO.N,Net-(J10-Pin_1)*%
X69657800Y-95986600D03*
D14*
%TO.P,J10,2,Pin_2*%
%TO.N,Net-(J10-Pin_2)*%
X74737800Y-95986600D03*
%TD*%
D18*
%TO.P,U3,1*%
%TO.N,Net-(R6-Pad1)*%
X69589400Y-43624000D03*
D12*
%TO.P,U3,2*%
%TO.N,/GND*%
X69589400Y-46164000D03*
%TO.P,U3,3*%
%TO.N,Net-(R7-Pad1)*%
X69589400Y-48704000D03*
%TO.P,U3,4*%
%TO.N,/GND*%
X69589400Y-51244000D03*
%TO.P,U3,5*%
%TO.N,Net-(R8-Pad1)*%
X69589400Y-53784000D03*
%TO.P,U3,6*%
%TO.N,/GND*%
X69589400Y-56324000D03*
%TO.P,U3,7*%
%TO.N,Net-(R9-Pad1)*%
X69589400Y-58864000D03*
%TO.P,U3,8*%
%TO.N,/GND*%
X69589400Y-61404000D03*
%TO.P,U3,9*%
%TO.N,Net-(J21-Pin_1)*%
X77209400Y-61404000D03*
%TO.P,U3,10*%
%TO.N,Net-(J21-Pin_2)*%
X77209400Y-58864000D03*
%TO.P,U3,11*%
%TO.N,Net-(J21-Pin_1)*%
X77209400Y-56324000D03*
%TO.P,U3,12*%
%TO.N,Net-(J21-Pin_3)*%
X77209400Y-53784000D03*
%TO.P,U3,13*%
%TO.N,Net-(J20-Pin_1)*%
X77209400Y-51244000D03*
%TO.P,U3,14*%
%TO.N,Net-(J20-Pin_2)*%
X77209400Y-48704000D03*
%TO.P,U3,15*%
%TO.N,Net-(J20-Pin_1)*%
X77209400Y-46164000D03*
%TO.P,U3,16*%
%TO.N,Net-(J20-Pin_3)*%
X77209400Y-43624000D03*
%TD*%
D21*
%TO.P,J7,1,Pin_1*%
%TO.N,N/C*%
X52317400Y-81599200D03*
D14*
%TO.P,J7,2,Pin_2*%
X52317400Y-76519200D03*
%TO.P,J7,3,Pin_3*%
X52317400Y-71439200D03*
%TD*%
D21*
%TO.P,J9,1,Pin_1*%
%TO.N,Net-(J10-Pin_1)*%
X59091400Y-95986600D03*
D14*
%TO.P,J9,2,Pin_2*%
%TO.N,Net-(J10-Pin_2)*%
X64171400Y-95986600D03*
%TD*%
D24*
%TO.P,R5,1*%
%TO.N,Net-(R5-Pad1)*%
X81989400Y-66414000D03*
D25*
%TO.P,R5,2*%
%TO.N,Net-(D4-K)*%
X81989400Y-71494000D03*
%TD*%
D21*
%TO.P,J13,1,Pin_1*%
%TO.N,/5V*%
X53132400Y-33274000D03*
D14*
%TO.P,J13,2,Pin_2*%
%TO.N,N/C*%
X48052400Y-33274000D03*
%TO.P,J13,3,Pin_3*%
%TO.N,/GND*%
X42972400Y-33274000D03*
%TD*%
D26*
%TO.P,J11,1,Pin_1*%
%TO.N,N/C*%
X62626800Y-73076000D03*
D16*
%TO.P,J11,2,Pin_2*%
X60086800Y-73076000D03*
%TO.P,J11,3,Pin_3*%
X62626800Y-70536000D03*
%TO.P,J11,4,Pin_4*%
X60086800Y-70536000D03*
%TO.P,J11,5,Pin_5*%
X62626800Y-67996000D03*
%TO.P,J11,6,Pin_6*%
X60086800Y-67996000D03*
%TO.P,J11,7,Pin_7*%
X62626800Y-65456000D03*
%TO.P,J11,8,Pin_8*%
X60086800Y-65456000D03*
%TO.P,J11,9,Pin_9*%
X62626800Y-62916000D03*
%TO.P,J11,10,Pin_10*%
X60086800Y-62916000D03*
%TO.P,J11,11,Pin_11*%
X62626800Y-60376000D03*
%TO.P,J11,12,Pin_12*%
X60086800Y-60376000D03*
%TO.P,J11,13,Pin_13*%
X62626800Y-57836000D03*
%TO.P,J11,14,Pin_14*%
X60086800Y-57836000D03*
%TO.P,J11,15,Pin_15*%
%TO.N,unconnected-(J11-Pin_15-Pad15)*%
X62626800Y-55296000D03*
%TO.P,J11,16,Pin_16*%
%TO.N,N/C*%
X60086800Y-55296000D03*
%TO.P,J11,17,Pin_17*%
%TO.N,/5V*%
X62626800Y-52756000D03*
%TO.P,J11,18,Pin_18*%
%TO.N,N/C*%
X60086800Y-52756000D03*
%TO.P,J11,19,Pin_19*%
%TO.N,/GND*%
X62626800Y-50216000D03*
%TO.P,J11,20,Pin_20*%
%TO.N,N/C*%
X60086800Y-50216000D03*
%TD*%
D21*
%TO.P,J14,1,Pin_1*%
%TO.N,/5V*%
X68808600Y-33274000D03*
D14*
%TO.P,J14,2,Pin_2*%
%TO.N,N/C*%
X63728600Y-33274000D03*
%TO.P,J14,3,Pin_3*%
%TO.N,/GND*%
X58648600Y-33274000D03*
%TD*%
D21*
%TO.P,J4,1,Pin_1*%
%TO.N,/GND*%
X44253400Y-87108800D03*
D14*
%TO.P,J4,2,Pin_2*%
X44253400Y-92188800D03*
%TO.P,J4,3,Pin_3*%
X44253400Y-97268800D03*
%TD*%
D21*
%TO.P,J6,1,Pin_1*%
%TO.N,N/C*%
X52317400Y-65927400D03*
D14*
%TO.P,J6,2,Pin_2*%
X52317400Y-60847400D03*
%TO.P,J6,3,Pin_3*%
X52317400Y-55767400D03*
%TD*%
D21*
%TO.P,J22,1,Pin_1*%
%TO.N,/3V3*%
X80239800Y-95986600D03*
D14*
%TO.P,J22,2,Pin_2*%
%TO.N,/GND*%
X85319800Y-95986600D03*
%TD*%
D21*
%TO.P,J1,1,Pin_1*%
%TO.N,/GND*%
X44253400Y-40091200D03*
D14*
%TO.P,J1,2,Pin_2*%
X44253400Y-45171200D03*
%TO.P,J1,3,Pin_3*%
X44253400Y-50251200D03*
%TD*%
D21*
%TO.P,J18,1,Pin_1*%
%TO.N,Net-(J18-Pin_1)*%
X98863400Y-50230200D03*
D14*
%TO.P,J18,2,Pin_2*%
%TO.N,Net-(J18-Pin_2)*%
X98863400Y-45150200D03*
%TO.P,J18,3,Pin_3*%
%TO.N,Net-(J18-Pin_3)*%
X98863400Y-40070200D03*
%TD*%
D24*
%TO.P,R7,1*%
%TO.N,Net-(R7-Pad1)*%
X75639400Y-66414000D03*
D25*
%TO.P,R7,2*%
%TO.N,Net-(D6-K)*%
X75639400Y-71494000D03*
%TD*%
D21*
%TO.P,J16,1,Pin_1*%
%TO.N,/5V*%
X100152200Y-33274000D03*
D14*
%TO.P,J16,2,Pin_2*%
%TO.N,N/C*%
X95072200Y-33274000D03*
%TO.P,J16,3,Pin_3*%
%TO.N,/GND*%
X89992200Y-33274000D03*
%TD*%
D24*
%TO.P,R3,1*%
%TO.N,Net-(R3-Pad1)*%
X88339400Y-66414000D03*
D25*
%TO.P,R3,2*%
%TO.N,Net-(D2-K)*%
X88339400Y-71494000D03*
%TD*%
D21*
%TO.P,J8,1,Pin_1*%
%TO.N,N/C*%
X52317400Y-97268800D03*
D14*
%TO.P,J8,2,Pin_2*%
X52317400Y-92188800D03*
%TO.P,J8,3,Pin_3*%
X52317400Y-87108800D03*
%TD*%
D18*
%TO.P,U2,1*%
%TO.N,Net-(R2-Pad1)*%
X84123050Y-43624000D03*
D12*
%TO.P,U2,2*%
%TO.N,/GND*%
X84123050Y-46164000D03*
%TO.P,U2,3*%
%TO.N,Net-(R3-Pad1)*%
X84123050Y-48704000D03*
%TO.P,U2,4*%
%TO.N,/GND*%
X84123050Y-51244000D03*
%TO.P,U2,5*%
%TO.N,Net-(R4-Pad1)*%
X84123050Y-53784000D03*
%TO.P,U2,6*%
%TO.N,/GND*%
X84123050Y-56324000D03*
%TO.P,U2,7*%
%TO.N,Net-(R5-Pad1)*%
X84123050Y-58864000D03*
%TO.P,U2,8*%
%TO.N,/GND*%
X84123050Y-61404000D03*
%TO.P,U2,9*%
%TO.N,Net-(J19-Pin_1)*%
X91743050Y-61404000D03*
%TO.P,U2,10*%
%TO.N,Net-(J19-Pin_2)*%
X91743050Y-58864000D03*
%TO.P,U2,11*%
%TO.N,Net-(J19-Pin_1)*%
X91743050Y-56324000D03*
%TO.P,U2,12*%
%TO.N,Net-(J19-Pin_3)*%
X91743050Y-53784000D03*
%TO.P,U2,13*%
%TO.N,Net-(J18-Pin_1)*%
X91743050Y-51244000D03*
%TO.P,U2,14*%
%TO.N,Net-(J18-Pin_2)*%
X91743050Y-48704000D03*
%TO.P,U2,15*%
%TO.N,Net-(J18-Pin_1)*%
X91743050Y-46164000D03*
%TO.P,U2,16*%
%TO.N,Net-(J18-Pin_3)*%
X91743050Y-43624000D03*
%TD*%
D27*
%TO.N,*%
X100466291Y-125897465D02*
X112454706Y-125897465D01*
X112454706Y-125897465D02*
X112863424Y-125488747D01*
%TO.N,Net-(J10-Pin_1)*%
X110372291Y-135549465D02*
X103641291Y-135549465D01*
X103641291Y-135549465D02*
X103514291Y-135676465D01*
%TO.N,*%
X118627291Y-135676465D02*
X117992291Y-135041465D01*
X120151291Y-105831465D02*
X117992291Y-105831465D01*
X100466291Y-105958465D02*
X100593291Y-105831465D01*
X124723291Y-135676465D02*
X118627291Y-135676465D01*
X127771291Y-135676465D02*
X127771291Y-131104465D01*
X127771291Y-118277465D02*
X127771291Y-116118465D01*
X127771291Y-128056465D02*
X127771291Y-125897465D01*
X127771291Y-108498465D02*
X127771291Y-105831465D01*
X100466291Y-108498465D02*
X100466291Y-105958465D01*
X110372291Y-105831465D02*
X108213291Y-105831465D01*
X127771291Y-131104465D02*
X124723291Y-128056465D01*
X100466291Y-131104465D02*
X103514291Y-128056465D01*
X100466291Y-135676465D02*
X100466291Y-131104465D01*
X100466291Y-118277465D02*
X100466291Y-116118465D01*
%TO.N,/A0*%
X183134000Y-81534000D02*
X162814000Y-61214000D01*
X187706000Y-81534000D02*
X183134000Y-81534000D01*
X162814000Y-61214000D02*
X162814000Y-45974000D01*
%TO.N,/A4*%
X172720000Y-46228000D02*
X172974000Y-45974000D01*
X178054000Y-71374000D02*
X172720000Y-66040000D01*
X187706000Y-71374000D02*
X178054000Y-71374000D01*
X172720000Y-66040000D02*
X172720000Y-46228000D01*
%TO.N,/A1*%
X163322000Y-60452000D02*
X163322000Y-48006000D01*
X163322000Y-48006000D02*
X165354000Y-45974000D01*
X181864000Y-78994000D02*
X163322000Y-60452000D01*
X187706000Y-78994000D02*
X181864000Y-78994000D01*
%TO.N,/RST*%
X182118000Y-99314000D02*
X187706000Y-99314000D01*
X143510000Y-60706000D02*
X182118000Y-99314000D01*
X143510000Y-49260000D02*
X143510000Y-60706000D01*
X144816000Y-47954000D02*
X143510000Y-49260000D01*
%TO.N,/D49*%
X180594000Y-43434000D02*
X176276000Y-39116000D01*
X176276000Y-37084000D02*
X175006000Y-35814000D01*
X176276000Y-39116000D02*
X176276000Y-37084000D01*
%TO.N,/A3*%
X172212000Y-47752000D02*
X170434000Y-45974000D01*
X172212000Y-66802000D02*
X172212000Y-47752000D01*
%TO.N,/D40*%
X162560000Y-40640000D02*
X164846000Y-38354000D01*
X160528000Y-40640000D02*
X162560000Y-40640000D01*
%TO.N,/A3*%
X179324000Y-73914000D02*
X172212000Y-66802000D01*
X187706000Y-73914000D02*
X179324000Y-73914000D01*
%TO.N,/D40*%
X157734000Y-43434000D02*
X160528000Y-40640000D01*
%TO.N,/D45*%
X171196000Y-37084000D02*
X169926000Y-35814000D01*
%TO.N,/D41*%
X163322000Y-41656000D02*
X166116000Y-38862000D01*
%TO.N,/D45*%
X170434000Y-43434000D02*
X171196000Y-42672000D01*
%TO.N,/D41*%
X160274000Y-43434000D02*
X160274000Y-42164000D01*
X166116000Y-38862000D02*
X166116000Y-37084000D01*
X166116000Y-37084000D02*
X164846000Y-35814000D01*
X160274000Y-42164000D02*
X160782000Y-41656000D01*
%TO.N,/D45*%
X171196000Y-42672000D02*
X171196000Y-37084000D01*
%TO.N,/D41*%
X160782000Y-41656000D02*
X163322000Y-41656000D01*
%TO.N,/D46*%
X172974000Y-43434000D02*
X172466000Y-42926000D01*
X172466000Y-42926000D02*
X172466000Y-38354000D01*
%TO.N,/D43*%
X165354000Y-43434000D02*
X168656000Y-40132000D01*
X168656000Y-40132000D02*
X168656000Y-37084000D01*
%TO.N,/RST*%
X144816000Y-47954000D02*
X144816000Y-41454000D01*
%TO.N,/D43*%
X168656000Y-37084000D02*
X167386000Y-35814000D01*
%TO.N,/D48*%
X175006000Y-40386000D02*
X175006000Y-38354000D01*
X178054000Y-43434000D02*
X175006000Y-40386000D01*
%TO.N,/D47*%
X173736000Y-41656000D02*
X173736000Y-37084000D01*
X173736000Y-37084000D02*
X172466000Y-35814000D01*
X175514000Y-43434000D02*
X173736000Y-41656000D01*
%TO.N,/D39*%
X161036000Y-39116000D02*
X161036000Y-37084000D01*
X161036000Y-37084000D02*
X162306000Y-35814000D01*
X157988000Y-41402000D02*
X158750000Y-41402000D01*
X156464000Y-42926000D02*
X157988000Y-41402000D01*
X158750000Y-41402000D02*
X161036000Y-39116000D01*
X157734000Y-45974000D02*
X156464000Y-44704000D01*
X156464000Y-44704000D02*
X156464000Y-42926000D01*
%TO.N,/D42*%
X162814000Y-43434000D02*
X167386000Y-38862000D01*
X167386000Y-38862000D02*
X167386000Y-38354000D01*
%TO.N,/D44*%
X169926000Y-41402000D02*
X169926000Y-38354000D01*
X167894000Y-43434000D02*
X169926000Y-41402000D01*
%TO.N,/A2*%
X180595396Y-76454000D02*
X168148000Y-64006604D01*
X168148000Y-64006604D02*
X168148000Y-46228000D01*
X168148000Y-46228000D02*
X167894000Y-45974000D01*
X187706000Y-76454000D02*
X180595396Y-76454000D01*
%TO.N,Net-(J21-Pin_2)*%
X81041400Y-64474000D02*
X91964796Y-64474000D01*
X91964796Y-64474000D02*
X93725400Y-66234604D01*
X78479400Y-61912000D02*
X81041400Y-64474000D01*
X93725400Y-87029800D02*
X98863400Y-92167800D01*
X78479400Y-60134000D02*
X78479400Y-61912000D01*
X93725400Y-66234604D02*
X93725400Y-87029800D01*
X77209400Y-58864000D02*
X78479400Y-60134000D01*
%TO.N,Net-(J20-Pin_1)*%
X92337588Y-63574000D02*
X94625400Y-65861812D01*
X79495400Y-61404000D02*
X81665400Y-63574000D01*
X94625400Y-77340200D02*
X98863400Y-81578200D01*
X81665400Y-63574000D02*
X92337588Y-63574000D01*
X79495400Y-53530000D02*
X79495400Y-61404000D01*
X77209400Y-51244000D02*
X79495400Y-53530000D01*
X94625400Y-65861812D02*
X94625400Y-77340200D01*
%TO.N,Net-(J21-Pin_3)*%
X94175400Y-66048208D02*
X94175400Y-82399800D01*
X92151192Y-64024000D02*
X94175400Y-66048208D01*
X94175400Y-82399800D02*
X98863400Y-87087800D01*
%TO.N,Net-(J20-Pin_2)*%
X92523984Y-63124000D02*
X95075400Y-65675416D01*
X95075400Y-72710200D02*
X98863400Y-76498200D01*
X81977400Y-63124000D02*
X92523984Y-63124000D01*
X77209400Y-48704000D02*
X80003400Y-51498000D01*
X80003400Y-51498000D02*
X80003400Y-61150000D01*
X95075400Y-65675416D02*
X95075400Y-72710200D01*
X80003400Y-61150000D02*
X81977400Y-63124000D01*
%TO.N,Net-(J19-Pin_2)*%
X96901000Y-58864000D02*
X91743050Y-58864000D01*
X98863400Y-60826400D02*
X96901000Y-58864000D01*
%TO.N,Net-(J19-Pin_3)*%
X96901000Y-53784000D02*
X91743050Y-53784000D01*
%TO.N,Net-(J21-Pin_3)*%
X78987400Y-61658000D02*
X81353400Y-64024000D01*
%TO.N,Net-(J19-Pin_3)*%
X98863400Y-55746400D02*
X96901000Y-53784000D01*
%TO.N,Net-(J21-Pin_3)*%
X77209400Y-53784000D02*
X78987400Y-55562000D01*
%TO.N,Net-(J19-Pin_1)*%
X94361000Y-61404000D02*
X91743050Y-61404000D01*
X98863400Y-65906400D02*
X94361000Y-61404000D01*
%TO.N,Net-(J21-Pin_3)*%
X78987400Y-55562000D02*
X78987400Y-61658000D01*
X81353400Y-64024000D02*
X92151192Y-64024000D01*
%TO.N,Net-(J18-Pin_3)*%
X95309600Y-43624000D02*
X91743050Y-43624000D01*
X98863400Y-40070200D02*
X95309600Y-43624000D01*
%TO.N,Net-(J21-Pin_1)*%
X91778400Y-64924000D02*
X80729400Y-64924000D01*
X98863400Y-97247800D02*
X93275400Y-91659800D01*
X93275400Y-91659800D02*
X93275400Y-66421000D01*
X93275400Y-66421000D02*
X91778400Y-64924000D01*
X80729400Y-64924000D02*
X77209400Y-61404000D01*
%TO.N,*%
X62985400Y-82199591D02*
X62985400Y-73596000D01*
X52996191Y-92188800D02*
X62985400Y-82199591D01*
X52317400Y-92188800D02*
X52996191Y-92188800D01*
X62985400Y-73596000D02*
X62626800Y-73237400D01*
X61451800Y-81783000D02*
X61451800Y-72237827D01*
X61451800Y-71022701D02*
X61451800Y-61741000D01*
X61461400Y-71032301D02*
X61451800Y-71022701D01*
X61461400Y-72228227D02*
X61461400Y-71032301D01*
X61451800Y-72237827D02*
X61461400Y-72228227D01*
X61631400Y-81962600D02*
X61451800Y-81783000D01*
X61451800Y-61741000D02*
X60086800Y-60376000D01*
%TO.N,Net-(J18-Pin_1)*%
X97849600Y-51244000D02*
X91743050Y-51244000D01*
X98863400Y-50230200D02*
X97849600Y-51244000D01*
%TO.N,*%
X52317400Y-75628000D02*
X52317400Y-76519200D01*
X59937400Y-68008000D02*
X52317400Y-75628000D01*
X61334400Y-46037000D02*
X61334400Y-56705000D01*
X48253400Y-33083000D02*
X48380400Y-33083000D01*
X48380400Y-33083000D02*
X61334400Y-46037000D01*
X60699400Y-73688600D02*
X60699400Y-78726800D01*
X60086800Y-73076000D02*
X60699400Y-73688600D01*
X61334400Y-56705000D02*
X62477400Y-57848000D01*
X52317400Y-95948000D02*
X65525400Y-82740000D01*
X65525400Y-82740000D02*
X65525400Y-73596000D01*
X65525400Y-73596000D02*
X62477400Y-70548000D01*
X60699400Y-78726800D02*
X52317400Y-87108800D01*
X57651400Y-75120000D02*
X52317400Y-80454000D01*
X57651400Y-72834000D02*
X57651400Y-75120000D01*
X59937400Y-70548000D02*
X57651400Y-72834000D01*
X52317400Y-80454000D02*
X52317400Y-80708000D01*
%TO.N,Net-(J20-Pin_3)*%
X80511400Y-46926000D02*
X80511400Y-61021604D01*
X95715400Y-68270200D02*
X98863400Y-71418200D01*
X80511400Y-61021604D02*
X82163796Y-62674000D01*
X82163796Y-62674000D02*
X92710380Y-62674000D01*
X95715400Y-65679020D02*
X95715400Y-68270200D01*
X77209400Y-43624000D02*
X80511400Y-46926000D01*
X92710380Y-62674000D02*
X95715400Y-65679020D01*
%TO.N,Net-(J18-Pin_2)*%
X95309600Y-48704000D02*
X91743050Y-48704000D01*
X98863400Y-45150200D02*
X95309600Y-48704000D01*
%TO.N,*%
X59937400Y-65468000D02*
X59925400Y-65456000D01*
X58300600Y-65456000D02*
X53208600Y-70548000D01*
X59925400Y-65456000D02*
X58300600Y-65456000D01*
%TD*%
%TA.AperFunction,Conductor*%
%TO.N,/GND*%
G36*
X187955999Y-91249702D02*
G01*
X187850592Y-91201565D01*
X187742334Y-91186000D01*
X187669666Y-91186000D01*
X187561408Y-91201565D01*
X187456000Y-91249702D01*
X187456000Y-89598297D01*
X187561408Y-89646435D01*
X187669666Y-89662000D01*
X187742334Y-89662000D01*
X187850592Y-89646435D01*
X187955999Y-89598297D01*
X187955999Y-91249702D01*
G37*
%TD.AperFunction*%
%TA.AperFunction,Conductor*%
G36*
X179405905Y-44107515D02*
G01*
X179427804Y-44132787D01*
X179518278Y-44271268D01*
X179518283Y-44271273D01*
X179518284Y-44271276D01*
X179670756Y-44436902D01*
X179670760Y-44436906D01*
X179848424Y-44575189D01*
X179869534Y-44586613D01*
X179891695Y-44598606D01*
X179941286Y-44647825D01*
X179956394Y-44716042D01*
X179932224Y-44781597D01*
X179903801Y-44809236D01*
X179832626Y-44859072D01*
X179832625Y-44859073D01*
X180461465Y-45487913D01*
X180451685Y-45489320D01*
X180320900Y-45549048D01*
X180212239Y-45643202D01*
X180134507Y-45764156D01*
X180110923Y-45844476D01*
X179479072Y-45212625D01*
X179479072Y-45212626D01*
X179429131Y-45283950D01*
X179374555Y-45327575D01*
X179305056Y-45334769D01*
X179242701Y-45303246D01*
X179223748Y-45280649D01*
X179152249Y-45171212D01*
X179129722Y-45136732D01*
X179129719Y-45136729D01*
X179129715Y-45136723D01*
X178977243Y-44971097D01*
X178977238Y-44971092D01*
X178838109Y-44862803D01*
X178799576Y-44832811D01*
X178763070Y-44813055D01*
X178713479Y-44763836D01*
X178698371Y-44695619D01*
X178722541Y-44630064D01*
X178763070Y-44594945D01*
X178763084Y-44594936D01*
X178799576Y-44575189D01*
X178977240Y-44436906D01*
X179122007Y-44279649D01*
X179129715Y-44271276D01*
X179129715Y-44271275D01*
X179129722Y-44271268D01*
X179220193Y-44132790D01*
X179273338Y-44087437D01*
X179342569Y-44078013D01*
X179405905Y-44107515D01*
G37*
%TD.AperFunction*%
%TA.AperFunction,Conductor*%
G36*
X182876000Y-37909702D02*
G01*
X182770592Y-37861565D01*
X182662334Y-37846000D01*
X182589666Y-37846000D01*
X182481408Y-37861565D01*
X182376000Y-37909702D01*
X182376000Y-36258297D01*
X182481408Y-36306435D01*
X182589666Y-36322000D01*
X182662334Y-36322000D01*
X182770592Y-36306435D01*
X182876000Y-36258297D01*
X182876000Y-37909702D01*
G37*
%TD.AperFunction*%
%TA.AperFunction,Conductor*%
G36*
X155346542Y-55199467D02*
G01*
X155404158Y-55238991D01*
X155422474Y-55272362D01*
X155422835Y-55272195D01*
X155425389Y-55277672D01*
X155425749Y-55278329D01*
X155425882Y-55278730D01*
X155425884Y-55278735D01*
X155425886Y-55278740D01*
X155453315Y-55323209D01*
X155518970Y-55429652D01*
X155644348Y-55555030D01*
X155795262Y-55648115D01*
X155870314Y-55672984D01*
X155927759Y-55712756D01*
X155954582Y-55777272D01*
X155954600Y-55779047D01*
X156585466Y-56409913D01*
X156575685Y-56411320D01*
X156444900Y-56471048D01*
X156336239Y-56565202D01*
X156258507Y-56686156D01*
X156234923Y-56766475D01*
X155603073Y-56134625D01*
X155603072Y-56134626D01*
X155553131Y-56205950D01*
X155498555Y-56249575D01*
X155429056Y-56256769D01*
X155366701Y-56225246D01*
X155347748Y-56202649D01*
X155253723Y-56058734D01*
X155253715Y-56058723D01*
X155101243Y-55893097D01*
X155101238Y-55893092D01*
X154954714Y-55779047D01*
X154923576Y-55754811D01*
X154887070Y-55735055D01*
X154837479Y-55685836D01*
X154822371Y-55617619D01*
X154846541Y-55552064D01*
X154887070Y-55516945D01*
X154887084Y-55516936D01*
X154923576Y-55497189D01*
X155101240Y-55358906D01*
X155216818Y-55233355D01*
X155276704Y-55197366D01*
X155346542Y-55199467D01*
G37*
%TD.AperFunction*%
%TA.AperFunction,Conductor*%
G36*
X186451469Y-29484185D02*
G01*
X186472111Y-29500819D01*
X188958196Y-31986903D01*
X188958430Y-31987252D01*
X188975618Y-32004384D01*
X188975900Y-32004500D01*
X188975999Y-32004541D01*
X188976000Y-32004541D01*
X189000554Y-32004541D01*
X189000760Y-32004500D01*
X191391500Y-32004500D01*
X191458539Y-32024185D01*
X191504294Y-32076989D01*
X191515500Y-32128500D01*
X191515500Y-133479500D01*
X191495815Y-133546539D01*
X191443011Y-133592294D01*
X191391500Y-133603500D01*
X135760500Y-133603500D01*
X135693461Y-133583815D01*
X135647706Y-133531011D01*
X135636500Y-133479500D01*
X135636500Y-117161763D01*
X137591787Y-117161763D01*
X137621413Y-117431013D01*
X137621415Y-117431024D01*
X137689926Y-117693082D01*
X137689928Y-117693088D01*
X137795870Y-117942390D01*
X137867998Y-118060575D01*
X137936979Y-118173605D01*
X137936986Y-118173615D01*
X138110253Y-118381819D01*
X138110259Y-118381824D01*
X138311998Y-118562582D01*
X138537910Y-118712044D01*
X138783176Y-118827020D01*
X138783183Y-118827022D01*
X138783185Y-118827023D01*
X139042557Y-118905057D01*
X139042564Y-118905058D01*
X139042569Y-118905060D01*
X139310561Y-118944500D01*
X139310566Y-118944500D01*
X139513636Y-118944500D01*
X139565133Y-118940730D01*
X139716156Y-118929677D01*
X139828758Y-118904593D01*
X139980546Y-118870782D01*
X139980548Y-118870781D01*
X139980553Y-118870780D01*
X140233558Y-118774014D01*
X140469777Y-118641441D01*
X140684177Y-118475888D01*
X140726719Y-118431763D01*
X185851787Y-118431763D01*
X185881413Y-118701013D01*
X185881415Y-118701024D01*
X185941192Y-118929674D01*
X185949928Y-118963088D01*
X186055870Y-119212390D01*
X186127998Y-119330575D01*
X186196979Y-119443605D01*
X186196986Y-119443615D01*
X186370253Y-119651819D01*
X186370259Y-119651824D01*
X186571998Y-119832582D01*
X186797910Y-119982044D01*
X187043176Y-120097020D01*
X187043183Y-120097022D01*
X187043185Y-120097023D01*
X187302557Y-120175057D01*
X187302564Y-120175058D01*
X187302569Y-120175060D01*
X187570561Y-120214500D01*
X187570566Y-120214500D01*
X187773636Y-120214500D01*
X187825133Y-120210730D01*
X187976156Y-120199677D01*
X188088758Y-120174593D01*
X188240546Y-120140782D01*
X188240548Y-120140781D01*
X188240553Y-120140780D01*
X188493558Y-120044014D01*
X188729777Y-119911441D01*
X188944177Y-119745888D01*
X189132186Y-119550881D01*
X189289799Y-119330579D01*
X189363787Y-119186669D01*
X189413649Y-119089690D01*
X189413651Y-119089684D01*
X189413656Y-119089675D01*
X189501118Y-118833305D01*
X189550319Y-118566933D01*
X189560212Y-118296235D01*
X189530586Y-118026982D01*
X189462072Y-117764912D01*
X189356130Y-117515610D01*
X189215018Y-117284390D01*
X189125747Y-117177119D01*
X189041746Y-117076180D01*
X189041740Y-117076175D01*
X188840002Y-116895418D01*
X188614092Y-116745957D01*
X188614090Y-116745956D01*
X188368824Y-116630980D01*
X188368819Y-116630978D01*
X188368814Y-116630976D01*
X188109442Y-116552942D01*
X188109428Y-116552939D01*
X187993791Y-116535921D01*
X187841439Y-116513500D01*
X187638369Y-116513500D01*
X187638364Y-116513500D01*
X187435844Y-116528323D01*
X187435831Y-116528325D01*
X187171453Y-116587217D01*
X187171446Y-116587220D01*
X186918439Y-116683987D01*
X186682226Y-116816557D01*
X186467822Y-116982112D01*
X186279822Y-117177109D01*
X186279816Y-117177116D01*
X186122202Y-117397419D01*
X186122199Y-117397424D01*
X185998350Y-117638309D01*
X185998343Y-117638327D01*
X185910884Y-117894685D01*
X185910881Y-117894699D01*
X185861681Y-118161068D01*
X185861680Y-118161075D01*
X185851787Y-118431763D01*
X140726719Y-118431763D01*
X140872186Y-118280881D01*
X141029799Y-118060579D01*
X141115091Y-117894685D01*
X141153649Y-117819690D01*
X141153651Y-117819684D01*
X141153656Y-117819675D01*
X141241118Y-117563305D01*
X141290319Y-117296933D01*
X141300212Y-117026235D01*
X141270586Y-116756982D01*
X141202072Y-116494912D01*
X141096130Y-116245610D01*
X140955018Y-116014390D01*
X140865747Y-115907119D01*
X140781746Y-115806180D01*
X140781740Y-115806175D01*
X140580002Y-115625418D01*
X140354092Y-115475957D01*
X140354090Y-115475956D01*
X140108824Y-115360980D01*
X140108819Y-115360978D01*
X140108814Y-115360976D01*
X139849442Y-115282942D01*
X139849428Y-115282939D01*
X139733791Y-115265921D01*
X139581439Y-115243500D01*
X139378369Y-115243500D01*
X139378364Y-115243500D01*
X139175844Y-115258323D01*
X139175831Y-115258325D01*
X138911453Y-115317217D01*
X138911446Y-115317220D01*
X138658439Y-115413987D01*
X138422226Y-115546557D01*
X138207822Y-115712112D01*
X138019822Y-115907109D01*
X138019816Y-115907116D01*
X137862202Y-116127419D01*
X137862199Y-116127424D01*
X137738350Y-116368309D01*
X137738343Y-116368327D01*
X137650884Y-116624685D01*
X137650881Y-116624699D01*
X137601681Y-116891068D01*
X137601680Y-116891075D01*
X137591787Y-117161763D01*
X135636500Y-117161763D01*
X135636500Y-113538005D01*
X138069198Y-113538005D01*
X138087975Y-113764610D01*
X138087975Y-113764613D01*
X138087976Y-113764614D01*
X138143797Y-113985047D01*
X138235139Y-114193285D01*
X138359510Y-114383649D01*
X138513517Y-114550946D01*
X138513521Y-114550949D01*
X138513524Y-114550952D01*
X138692952Y-114690606D01*
X138692967Y-114690616D01*
X138881175Y-114792469D01*
X138892945Y-114798839D01*
X139108015Y-114872672D01*
X139332305Y-114910100D01*
X139332306Y-114910100D01*
X139559694Y-114910100D01*
X139559695Y-114910100D01*
X139783985Y-114872672D01*
X139999055Y-114798839D01*
X140199039Y-114690612D01*
X140378483Y-114550946D01*
X140532490Y-114383649D01*
X140656861Y-114193285D01*
X140748203Y-113985047D01*
X140804024Y-113764614D01*
X140822802Y-113538000D01*
X140804024Y-113311386D01*
X140748203Y-113090953D01*
X140656861Y-112882715D01*
X140532490Y-112692351D01*
X140378483Y-112525054D01*
X140378478Y-112525050D01*
X140378475Y-112525047D01*
X140199047Y-112385393D01*
X140199036Y-112385386D01*
X140183637Y-112377052D01*
X140134048Y-112327831D01*
X140118942Y-112259614D01*
X140143115Y-112194059D01*
X140183641Y-112158944D01*
X140199039Y-112150612D01*
X140378483Y-112010946D01*
X140532490Y-111843649D01*
X140656861Y-111653285D01*
X140748203Y-111445047D01*
X140804024Y-111224614D01*
X140822802Y-110998000D01*
X140804024Y-110771386D01*
X140748203Y-110550953D01*
X140656861Y-110342715D01*
X140532490Y-110152351D01*
X140378483Y-109985054D01*
X140378478Y-109985050D01*
X140378475Y-109985047D01*
X140199047Y-109845393D01*
X140199036Y-109845386D01*
X140183637Y-109837052D01*
X140134048Y-109787831D01*
X140118942Y-109719614D01*
X140143115Y-109654059D01*
X140183641Y-109618944D01*
X140199039Y-109610612D01*
X140378483Y-109470946D01*
X140532490Y-109303649D01*
X140656861Y-109113285D01*
X140748203Y-108905047D01*
X140804024Y-108684614D01*
X140822802Y-108458000D01*
X140804024Y-108231386D01*
X140748203Y-108010953D01*
X140656861Y-107802715D01*
X140532490Y-107612351D01*
X140396846Y-107465002D01*
X140365926Y-107402350D01*
X140373786Y-107332924D01*
X140417934Y-107278769D01*
X140444746Y-107264840D01*
X140551684Y-107224955D01*
X140551693Y-107224950D01*
X140666787Y-107138790D01*
X140666790Y-107138787D01*
X140752950Y-107023693D01*
X140752954Y-107023686D01*
X140803196Y-106888979D01*
X140803198Y-106888972D01*
X140809599Y-106829444D01*
X140809600Y-106829427D01*
X140809600Y-106168000D01*
X139889196Y-106168000D01*
X139912845Y-106131201D01*
X139954000Y-105991039D01*
X139954000Y-105844961D01*
X139912845Y-105704799D01*
X139889196Y-105668000D01*
X140809600Y-105668000D01*
X140809600Y-105006572D01*
X140809599Y-105006555D01*
X140803198Y-104947027D01*
X140803196Y-104947020D01*
X140752954Y-104812313D01*
X140752950Y-104812306D01*
X140666790Y-104697212D01*
X140666787Y-104697209D01*
X140551693Y-104611049D01*
X140551686Y-104611045D01*
X140444745Y-104571159D01*
X140388811Y-104529288D01*
X140364394Y-104463824D01*
X140379246Y-104395551D01*
X140396840Y-104371003D01*
X140532490Y-104223649D01*
X140656861Y-104033285D01*
X140748203Y-103825047D01*
X140804024Y-103604614D01*
X140822802Y-103378000D01*
X140804024Y-103151386D01*
X140748203Y-102930953D01*
X140656861Y-102722715D01*
X140532490Y-102532351D01*
X140378483Y-102365054D01*
X140378478Y-102365050D01*
X140378475Y-102365047D01*
X140199047Y-102225393D01*
X140199037Y-102225386D01*
X140183641Y-102217055D01*
X140134050Y-102167836D01*
X140118941Y-102099620D01*
X140143112Y-102034064D01*
X140183641Y-101998945D01*
X140199037Y-101990613D01*
X140199036Y-101990613D01*
X140199039Y-101990612D01*
X140378483Y-101850946D01*
X140532490Y-101683649D01*
X140656861Y-101493285D01*
X140748203Y-101285047D01*
X140804024Y-101064614D01*
X140822802Y-100838000D01*
X140804024Y-100611386D01*
X140748203Y-100390953D01*
X140656861Y-100182715D01*
X140532490Y-99992351D01*
X140378483Y-99825054D01*
X140378478Y-99825050D01*
X140378475Y-99825047D01*
X140199047Y-99685393D01*
X140199037Y-99685386D01*
X140183641Y-99677055D01*
X140134050Y-99627836D01*
X140118941Y-99559620D01*
X140143112Y-99494064D01*
X140183641Y-99458945D01*
X140199037Y-99450613D01*
X140199036Y-99450613D01*
X140199039Y-99450612D01*
X140378483Y-99310946D01*
X140532490Y-99143649D01*
X140656861Y-98953285D01*
X140748203Y-98745047D01*
X140804024Y-98524614D01*
X140822802Y-98298000D01*
X140804024Y-98071386D01*
X140748203Y-97850953D01*
X140656861Y-97642715D01*
X140532490Y-97452351D01*
X140378483Y-97285054D01*
X140378478Y-97285050D01*
X140378475Y-97285047D01*
X140199047Y-97145393D01*
X140199037Y-97145386D01*
X140183641Y-97137055D01*
X140134050Y-97087836D01*
X140118941Y-97019620D01*
X140143112Y-96954064D01*
X140183641Y-96918945D01*
X140199037Y-96910613D01*
X140199036Y-96910613D01*
X140199039Y-96910612D01*
X140378483Y-96770946D01*
X140532490Y-96603649D01*
X140656861Y-96413285D01*
X140748203Y-96205047D01*
X140804024Y-95984614D01*
X140822802Y-95758000D01*
X140804024Y-95531386D01*
X140748203Y-95310953D01*
X140656861Y-95102715D01*
X140532490Y-94912351D01*
X140378483Y-94745054D01*
X140378478Y-94745050D01*
X140378475Y-94745047D01*
X140199047Y-94605393D01*
X140199036Y-94605386D01*
X140183637Y-94597052D01*
X140134048Y-94547831D01*
X140118942Y-94479614D01*
X140143115Y-94414059D01*
X140183641Y-94378944D01*
X140199039Y-94370612D01*
X140378483Y-94230946D01*
X140532490Y-94063649D01*
X140656861Y-93873285D01*
X140748203Y-93665047D01*
X140804024Y-93444614D01*
X140822802Y-93218000D01*
X140822673Y-93216448D01*
X140804817Y-93000954D01*
X140804024Y-92991386D01*
X140748203Y-92770953D01*
X140656861Y-92562715D01*
X140532490Y-92372351D01*
X140378483Y-92205054D01*
X140378478Y-92205050D01*
X140378475Y-92205047D01*
X140199047Y-92065393D01*
X140199037Y-92065386D01*
X140183641Y-92057055D01*
X140134050Y-92007836D01*
X140118941Y-91939620D01*
X140143112Y-91874064D01*
X140183641Y-91838945D01*
X140199037Y-91830613D01*
X140199036Y-91830613D01*
X140199039Y-91830612D01*
X140378483Y-91690946D01*
X140532490Y-91523649D01*
X140656861Y-91333285D01*
X140748203Y-91125047D01*
X140804024Y-90904614D01*
X140819071Y-90723027D01*
X140822802Y-90678005D01*
X140822802Y-90677994D01*
X140804024Y-90451389D01*
X140804024Y-90451386D01*
X140748203Y-90230953D01*
X140656861Y-90022715D01*
X140532490Y-89832351D01*
X140378483Y-89665054D01*
X140378478Y-89665050D01*
X140378475Y-89665047D01*
X140199047Y-89525393D01*
X140199032Y-89525383D01*
X139999065Y-89417166D01*
X139999051Y-89417159D01*
X139783987Y-89343328D01*
X139634458Y-89318375D01*
X139559695Y-89305900D01*
X139332305Y-89305900D01*
X139276232Y-89315257D01*
X139108012Y-89343328D01*
X138892948Y-89417159D01*
X138892934Y-89417166D01*
X138692967Y-89525383D01*
X138692952Y-89525393D01*
X138513524Y-89665047D01*
X138513514Y-89665057D01*
X138359507Y-89832354D01*
X138235137Y-90022718D01*
X138143797Y-90230952D01*
X138087975Y-90451389D01*
X138069198Y-90677994D01*
X138069198Y-90678005D01*
X138087975Y-90904610D01*
X138143797Y-91125047D01*
X138170533Y-91186000D01*
X138235139Y-91333285D01*
X138359510Y-91523649D01*
X138513517Y-91690946D01*
X138513521Y-91690949D01*
X138513524Y-91690952D01*
X138692952Y-91830606D01*
X138692963Y-91830613D01*
X138708360Y-91838946D01*
X138757950Y-91888166D01*
X138773057Y-91956383D01*
X138748886Y-92021938D01*
X138708360Y-92057054D01*
X138692963Y-92065386D01*
X138692952Y-92065393D01*
X138513524Y-92205047D01*
X138513514Y-92205057D01*
X138359507Y-92372354D01*
X138235137Y-92562718D01*
X138143797Y-92770952D01*
X138087975Y-92991389D01*
X138069198Y-93217994D01*
X138069198Y-93218005D01*
X138087975Y-93444610D01*
X138087975Y-93444613D01*
X138087976Y-93444614D01*
X138143797Y-93665047D01*
X138235139Y-93873285D01*
X138311416Y-93990037D01*
X138322753Y-94007389D01*
X138359510Y-94063649D01*
X138513517Y-94230946D01*
X138513521Y-94230949D01*
X138513524Y-94230952D01*
X138692952Y-94370606D01*
X138692962Y-94370613D01*
X138700821Y-94374865D01*
X138708356Y-94378943D01*
X138757948Y-94428161D01*
X138773058Y-94496377D01*
X138748889Y-94561933D01*
X138708364Y-94597051D01*
X138692963Y-94605386D01*
X138692952Y-94605393D01*
X138513524Y-94745047D01*
X138513514Y-94745057D01*
X138359507Y-94912354D01*
X138235137Y-95102718D01*
X138143797Y-95310952D01*
X138087975Y-95531389D01*
X138069198Y-95757994D01*
X138069198Y-95758005D01*
X138087975Y-95984610D01*
X138087975Y-95984613D01*
X138087976Y-95984614D01*
X138143797Y-96205047D01*
X138235139Y-96413285D01*
X138311416Y-96530036D01*
X138322753Y-96547389D01*
X138359510Y-96603649D01*
X138513517Y-96770946D01*
X138513521Y-96770949D01*
X138513524Y-96770952D01*
X138692952Y-96910606D01*
X138692963Y-96910613D01*
X138708360Y-96918946D01*
X138757950Y-96968166D01*
X138773057Y-97036383D01*
X138748886Y-97101938D01*
X138708360Y-97137054D01*
X138692963Y-97145386D01*
X138692952Y-97145393D01*
X138513524Y-97285047D01*
X138513514Y-97285057D01*
X138359507Y-97452354D01*
X138235137Y-97642718D01*
X138143797Y-97850952D01*
X138087975Y-98071389D01*
X138069198Y-98297994D01*
X138069198Y-98298005D01*
X138087975Y-98524610D01*
X138087975Y-98524613D01*
X138087976Y-98524614D01*
X138143797Y-98745047D01*
X138235139Y-98953285D01*
X138311416Y-99070037D01*
X138322753Y-99087389D01*
X138359510Y-99143649D01*
X138513517Y-99310946D01*
X138513521Y-99310949D01*
X138513524Y-99310952D01*
X138692952Y-99450606D01*
X138692962Y-99450613D01*
X138700821Y-99454865D01*
X138708356Y-99458943D01*
X138757948Y-99508161D01*
X138773058Y-99576377D01*
X138748889Y-99641933D01*
X138708364Y-99677051D01*
X138692963Y-99685386D01*
X138692952Y-99685393D01*
X138513524Y-99825047D01*
X138513514Y-99825057D01*
X138359507Y-99992354D01*
X138235137Y-100182718D01*
X138143797Y-100390952D01*
X138087975Y-100611389D01*
X138069198Y-100837994D01*
X138069198Y-100838005D01*
X138087975Y-101064610D01*
X138087975Y-101064613D01*
X138087976Y-101064614D01*
X138143797Y-101285047D01*
X138235139Y-101493285D01*
X138311416Y-101610037D01*
X138322753Y-101627389D01*
X138359510Y-101683649D01*
X138513517Y-101850946D01*
X138513521Y-101850949D01*
X138513524Y-101850952D01*
X138692952Y-101990606D01*
X138692963Y-101990613D01*
X138708360Y-101998946D01*
X138757950Y-102048166D01*
X138773057Y-102116383D01*
X138748886Y-102181938D01*
X138708360Y-102217054D01*
X138692963Y-102225386D01*
X138692952Y-102225393D01*
X138513524Y-102365047D01*
X138513514Y-102365057D01*
X138359507Y-102532354D01*
X138235137Y-102722718D01*
X138143797Y-102930952D01*
X138087975Y-103151389D01*
X138069198Y-103377994D01*
X138069198Y-103378005D01*
X138087975Y-103604610D01*
X138087975Y-103604613D01*
X138087976Y-103604614D01*
X138143797Y-103825047D01*
X138235139Y-104033285D01*
X138311416Y-104150037D01*
X138322753Y-104167389D01*
X138359510Y-104223649D01*
X138495152Y-104370996D01*
X138526073Y-104433649D01*
X138518213Y-104503075D01*
X138474065Y-104557230D01*
X138447254Y-104571159D01*
X138340313Y-104611045D01*
X138340306Y-104611049D01*
X138225212Y-104697209D01*
X138225209Y-104697212D01*
X138139049Y-104812306D01*
X138139045Y-104812313D01*
X138088803Y-104947020D01*
X138088801Y-104947027D01*
X138082400Y-105006555D01*
X138082400Y-105668000D01*
X139002804Y-105668000D01*
X138979155Y-105704799D01*
X138938000Y-105844961D01*
X138938000Y-105991039D01*
X138979155Y-106131201D01*
X139002804Y-106168000D01*
X138082400Y-106168000D01*
X138082400Y-106829444D01*
X138088801Y-106888972D01*
X138088803Y-106888979D01*
X138139045Y-107023686D01*
X138139049Y-107023693D01*
X138225209Y-107138787D01*
X138225212Y-107138790D01*
X138340306Y-107224950D01*
X138340313Y-107224954D01*
X138447254Y-107264840D01*
X138503187Y-107306711D01*
X138527605Y-107372175D01*
X138512754Y-107440448D01*
X138495151Y-107465004D01*
X138359510Y-107612351D01*
X138235137Y-107802718D01*
X138143797Y-108010952D01*
X138087975Y-108231389D01*
X138069198Y-108457994D01*
X138069198Y-108458005D01*
X138087975Y-108684610D01*
X138087975Y-108684613D01*
X138087976Y-108684614D01*
X138143797Y-108905047D01*
X138235139Y-109113285D01*
X138359510Y-109303649D01*
X138513517Y-109470946D01*
X138513521Y-109470949D01*
X138513524Y-109470952D01*
X138692952Y-109610606D01*
X138692962Y-109610613D01*
X138700821Y-109614865D01*
X138708356Y-109618943D01*
X138757948Y-109668161D01*
X138773058Y-109736377D01*
X138748889Y-109801933D01*
X138708364Y-109837051D01*
X138692963Y-109845386D01*
X138692952Y-109845393D01*
X138513524Y-109985047D01*
X138513514Y-109985057D01*
X138359507Y-110152354D01*
X138235137Y-110342718D01*
X138143797Y-110550952D01*
X138087975Y-110771389D01*
X138069198Y-110997994D01*
X138069198Y-110998005D01*
X138087975Y-111224610D01*
X138087975Y-111224613D01*
X138087976Y-111224614D01*
X138143797Y-111445047D01*
X138235139Y-111653285D01*
X138359510Y-111843649D01*
X138513517Y-112010946D01*
X138513521Y-112010949D01*
X138513524Y-112010952D01*
X138692952Y-112150606D01*
X138692962Y-112150613D01*
X138700821Y-112154865D01*
X138708356Y-112158943D01*
X138757948Y-112208161D01*
X138773058Y-112276377D01*
X138748889Y-112341933D01*
X138708364Y-112377051D01*
X138692963Y-112385386D01*
X138692952Y-112385393D01*
X138513524Y-112525047D01*
X138513514Y-112525057D01*
X138359507Y-112692354D01*
X138235137Y-112882718D01*
X138143797Y-113090952D01*
X138087975Y-113311389D01*
X138069198Y-113537994D01*
X138069198Y-113538005D01*
X135636500Y-113538005D01*
X135636500Y-86614005D01*
X138069198Y-86614005D01*
X138087975Y-86840610D01*
X138087975Y-86840613D01*
X138087976Y-86840614D01*
X138143797Y-87061047D01*
X138235139Y-87269285D01*
X138359510Y-87459649D01*
X138513517Y-87626946D01*
X138513521Y-87626949D01*
X138513524Y-87626952D01*
X138692952Y-87766606D01*
X138692967Y-87766616D01*
X138841594Y-87847049D01*
X138892945Y-87874839D01*
X139108015Y-87948672D01*
X139332305Y-87986100D01*
X139332306Y-87986100D01*
X139559694Y-87986100D01*
X139559695Y-87986100D01*
X139783985Y-87948672D01*
X139999055Y-87874839D01*
X140199039Y-87766612D01*
X140378483Y-87626946D01*
X140532490Y-87459649D01*
X140656861Y-87269285D01*
X140748203Y-87061047D01*
X140804024Y-86840614D01*
X140822802Y-86614000D01*
X140804024Y-86387386D01*
X140748203Y-86166953D01*
X140656861Y-85958715D01*
X140532490Y-85768351D01*
X140378483Y-85601054D01*
X140378478Y-85601050D01*
X140378475Y-85601047D01*
X140199047Y-85461393D01*
X140199037Y-85461386D01*
X140183641Y-85453055D01*
X140134050Y-85403836D01*
X140118941Y-85335620D01*
X140143112Y-85270064D01*
X140183641Y-85234945D01*
X140199037Y-85226613D01*
X140199036Y-85226613D01*
X140199039Y-85226612D01*
X140378483Y-85086946D01*
X140532490Y-84919649D01*
X140656861Y-84729285D01*
X140748203Y-84521047D01*
X140804024Y-84300614D01*
X140822802Y-84074000D01*
X140804024Y-83847386D01*
X140748203Y-83626953D01*
X140656861Y-83418715D01*
X140532490Y-83228351D01*
X140378483Y-83061054D01*
X140378478Y-83061050D01*
X140378475Y-83061047D01*
X140199047Y-82921393D01*
X140199037Y-82921386D01*
X140183641Y-82913055D01*
X140134050Y-82863836D01*
X140118941Y-82795620D01*
X140143112Y-82730064D01*
X140183641Y-82694945D01*
X140199039Y-82686612D01*
X140378483Y-82546946D01*
X140532490Y-82379649D01*
X140656861Y-82189285D01*
X140748203Y-81981047D01*
X140804024Y-81760614D01*
X140822802Y-81534000D01*
X140804024Y-81307386D01*
X140748203Y-81086953D01*
X140656861Y-80878715D01*
X140532490Y-80688351D01*
X140378483Y-80521054D01*
X140378478Y-80521050D01*
X140378475Y-80521047D01*
X140199047Y-80381393D01*
X140199037Y-80381386D01*
X140183641Y-80373055D01*
X140134050Y-80323836D01*
X140118941Y-80255620D01*
X140143112Y-80190064D01*
X140183641Y-80154945D01*
X140183645Y-80154943D01*
X140199039Y-80146612D01*
X140378483Y-80006946D01*
X140532490Y-79839649D01*
X140656861Y-79649285D01*
X140748203Y-79441047D01*
X140804024Y-79220614D01*
X140822802Y-78994000D01*
X140804024Y-78767386D01*
X140748203Y-78546953D01*
X140656861Y-78338715D01*
X140532490Y-78148351D01*
X140378483Y-77981054D01*
X140378478Y-77981050D01*
X140378475Y-77981047D01*
X140199047Y-77841393D01*
X140199037Y-77841386D01*
X140183641Y-77833055D01*
X140134050Y-77783836D01*
X140118941Y-77715620D01*
X140143112Y-77650064D01*
X140183641Y-77614945D01*
X140199037Y-77606613D01*
X140199036Y-77606613D01*
X140199039Y-77606612D01*
X140378483Y-77466946D01*
X140532490Y-77299649D01*
X140656861Y-77109285D01*
X140748203Y-76901047D01*
X140804024Y-76680614D01*
X140822802Y-76454000D01*
X140804024Y-76227386D01*
X140748203Y-76006953D01*
X140656861Y-75798715D01*
X140532490Y-75608351D01*
X140378483Y-75441054D01*
X140378478Y-75441050D01*
X140378475Y-75441047D01*
X140199047Y-75301393D01*
X140199037Y-75301386D01*
X140183641Y-75293055D01*
X140134050Y-75243836D01*
X140118941Y-75175620D01*
X140143112Y-75110064D01*
X140183641Y-75074945D01*
X140199037Y-75066613D01*
X140199036Y-75066613D01*
X140199039Y-75066612D01*
X140378483Y-74926946D01*
X140532490Y-74759649D01*
X140656861Y-74569285D01*
X140748203Y-74361047D01*
X140804024Y-74140614D01*
X140822802Y-73914000D01*
X140804024Y-73687386D01*
X140748203Y-73466953D01*
X140656861Y-73258715D01*
X140532490Y-73068351D01*
X140378483Y-72901054D01*
X140378478Y-72901050D01*
X140378475Y-72901047D01*
X140199047Y-72761393D01*
X140199037Y-72761386D01*
X140183641Y-72753055D01*
X140134050Y-72703836D01*
X140118941Y-72635620D01*
X140143112Y-72570064D01*
X140183641Y-72534945D01*
X140199037Y-72526613D01*
X140199036Y-72526613D01*
X140199039Y-72526612D01*
X140378483Y-72386946D01*
X140532490Y-72219649D01*
X140656861Y-72029285D01*
X140748203Y-71821047D01*
X140804024Y-71600614D01*
X140822802Y-71374000D01*
X140804024Y-71147386D01*
X140748203Y-70926953D01*
X140656861Y-70718715D01*
X140532490Y-70528351D01*
X140378483Y-70361054D01*
X140378478Y-70361050D01*
X140378475Y-70361047D01*
X140199047Y-70221393D01*
X140199036Y-70221386D01*
X140183637Y-70213052D01*
X140134048Y-70163831D01*
X140118942Y-70095614D01*
X140143115Y-70030059D01*
X140183641Y-69994944D01*
X140199039Y-69986612D01*
X140223158Y-69967840D01*
X140362204Y-69859616D01*
X140378483Y-69846946D01*
X140532490Y-69679649D01*
X140656861Y-69489285D01*
X140748203Y-69281047D01*
X140804024Y-69060614D01*
X140822802Y-68834000D01*
X140804024Y-68607386D01*
X140748203Y-68386953D01*
X140656861Y-68178715D01*
X140532490Y-67988351D01*
X140378483Y-67821054D01*
X140378478Y-67821050D01*
X140378475Y-67821047D01*
X140199047Y-67681393D01*
X140199032Y-67681383D01*
X139999065Y-67573166D01*
X139999051Y-67573159D01*
X139783987Y-67499328D01*
X139631905Y-67473950D01*
X139559695Y-67461900D01*
X139332305Y-67461900D01*
X139276232Y-67471257D01*
X139108012Y-67499328D01*
X138892948Y-67573159D01*
X138892934Y-67573166D01*
X138692967Y-67681383D01*
X138692952Y-67681393D01*
X138513524Y-67821047D01*
X138513514Y-67821057D01*
X138359507Y-67988354D01*
X138235137Y-68178718D01*
X138143797Y-68386952D01*
X138087975Y-68607389D01*
X138069198Y-68833994D01*
X138069198Y-68834005D01*
X138087975Y-69060610D01*
X138087975Y-69060613D01*
X138087976Y-69060614D01*
X138143797Y-69281047D01*
X138235139Y-69489285D01*
X138359510Y-69679649D01*
X138513517Y-69846946D01*
X138513521Y-69846949D01*
X138513524Y-69846952D01*
X138692952Y-69986606D01*
X138692963Y-69986613D01*
X138708360Y-69994946D01*
X138757950Y-70044166D01*
X138773057Y-70112383D01*
X138748886Y-70177938D01*
X138708360Y-70213054D01*
X138692963Y-70221386D01*
X138692952Y-70221393D01*
X138513524Y-70361047D01*
X138513514Y-70361057D01*
X138359507Y-70528354D01*
X138235137Y-70718718D01*
X138143797Y-70926952D01*
X138087975Y-71147389D01*
X138069198Y-71373994D01*
X138069198Y-71374005D01*
X138087975Y-71600610D01*
X138087975Y-71600613D01*
X138087976Y-71600614D01*
X138143797Y-71821047D01*
X138235139Y-72029285D01*
X138359510Y-72219649D01*
X138513517Y-72386946D01*
X138513521Y-72386949D01*
X138513524Y-72386952D01*
X138692952Y-72526606D01*
X138692963Y-72526613D01*
X138708360Y-72534946D01*
X138757950Y-72584166D01*
X138773057Y-72652383D01*
X138748886Y-72717938D01*
X138708360Y-72753054D01*
X138692963Y-72761386D01*
X138692952Y-72761393D01*
X138513524Y-72901047D01*
X138513514Y-72901057D01*
X138359507Y-73068354D01*
X138235137Y-73258718D01*
X138143797Y-73466952D01*
X138087975Y-73687389D01*
X138069198Y-73913994D01*
X138069198Y-73914005D01*
X138087975Y-74140610D01*
X138087975Y-74140613D01*
X138087976Y-74140614D01*
X138143797Y-74361047D01*
X138235139Y-74569285D01*
X138359510Y-74759649D01*
X138513517Y-74926946D01*
X138513521Y-74926949D01*
X138513524Y-74926952D01*
X138692952Y-75066606D01*
X138692963Y-75066613D01*
X138708360Y-75074946D01*
X138757950Y-75124166D01*
X138773057Y-75192383D01*
X138748886Y-75257938D01*
X138708360Y-75293054D01*
X138692963Y-75301386D01*
X138692952Y-75301393D01*
X138513524Y-75441047D01*
X138513514Y-75441057D01*
X138359507Y-75608354D01*
X138235137Y-75798718D01*
X138143797Y-76006952D01*
X138087975Y-76227389D01*
X138069198Y-76453994D01*
X138069198Y-76454005D01*
X138087975Y-76680610D01*
X138087975Y-76680613D01*
X138087976Y-76680614D01*
X138143797Y-76901047D01*
X138235139Y-77109285D01*
X138359510Y-77299649D01*
X138513517Y-77466946D01*
X138513521Y-77466949D01*
X138513524Y-77466952D01*
X138692952Y-77606606D01*
X138692963Y-77606613D01*
X138708360Y-77614946D01*
X138757950Y-77664166D01*
X138773057Y-77732383D01*
X138748886Y-77797938D01*
X138708360Y-77833054D01*
X138692963Y-77841386D01*
X138692952Y-77841393D01*
X138513524Y-77981047D01*
X138513514Y-77981057D01*
X138359507Y-78148354D01*
X138235137Y-78338718D01*
X138143797Y-78546952D01*
X138087975Y-78767389D01*
X138069198Y-78993994D01*
X138069198Y-78994005D01*
X138087975Y-79220610D01*
X138087975Y-79220613D01*
X138087976Y-79220614D01*
X138143797Y-79441047D01*
X138235139Y-79649285D01*
X138359510Y-79839649D01*
X138513517Y-80006946D01*
X138513521Y-80006949D01*
X138513524Y-80006952D01*
X138692952Y-80146606D01*
X138692962Y-80146613D01*
X138700821Y-80150865D01*
X138708356Y-80154943D01*
X138757948Y-80204161D01*
X138773058Y-80272377D01*
X138748889Y-80337933D01*
X138708364Y-80373051D01*
X138692963Y-80381386D01*
X138692952Y-80381393D01*
X138513524Y-80521047D01*
X138513514Y-80521057D01*
X138359507Y-80688354D01*
X138235137Y-80878718D01*
X138143797Y-81086952D01*
X138087975Y-81307389D01*
X138069198Y-81533994D01*
X138069198Y-81534005D01*
X138087975Y-81760610D01*
X138143797Y-81981047D01*
X138227653Y-82172220D01*
X138235139Y-82189285D01*
X138359510Y-82379649D01*
X138513517Y-82546946D01*
X138513521Y-82546949D01*
X138513524Y-82546952D01*
X138692952Y-82686606D01*
X138692959Y-82686610D01*
X138692961Y-82686612D01*
X138695616Y-82688049D01*
X138708360Y-82694946D01*
X138757950Y-82744166D01*
X138773057Y-82812383D01*
X138748886Y-82877938D01*
X138708360Y-82913054D01*
X138692963Y-82921386D01*
X138692952Y-82921393D01*
X138513524Y-83061047D01*
X138513514Y-83061057D01*
X138359507Y-83228354D01*
X138235137Y-83418718D01*
X138143797Y-83626952D01*
X138087975Y-83847389D01*
X138069198Y-84073994D01*
X138069198Y-84074005D01*
X138087975Y-84300610D01*
X138087975Y-84300613D01*
X138087976Y-84300614D01*
X138143797Y-84521047D01*
X138235139Y-84729285D01*
X138359510Y-84919649D01*
X138513517Y-85086946D01*
X138513521Y-85086949D01*
X138513524Y-85086952D01*
X138692952Y-85226606D01*
X138692963Y-85226613D01*
X138708360Y-85234946D01*
X138757950Y-85284166D01*
X138773057Y-85352383D01*
X138748886Y-85417938D01*
X138708360Y-85453054D01*
X138692963Y-85461386D01*
X138692952Y-85461393D01*
X138513524Y-85601047D01*
X138513514Y-85601057D01*
X138359507Y-85768354D01*
X138235137Y-85958718D01*
X138143797Y-86166952D01*
X138087975Y-86387389D01*
X138069198Y-86613994D01*
X138069198Y-86614005D01*
X135636500Y-86614005D01*
X135636500Y-63754005D01*
X138069198Y-63754005D01*
X138087975Y-63980610D01*
X138087975Y-63980613D01*
X138087976Y-63980614D01*
X138143797Y-64201047D01*
X138235139Y-64409285D01*
X138305656Y-64517220D01*
X138334243Y-64560976D01*
X138359510Y-64599649D01*
X138513517Y-64766946D01*
X138513521Y-64766949D01*
X138513524Y-64766952D01*
X138692952Y-64906606D01*
X138692967Y-64906616D01*
X138773252Y-64950064D01*
X138892945Y-65014839D01*
X139108015Y-65088672D01*
X139332305Y-65126100D01*
X139332306Y-65126100D01*
X139559694Y-65126100D01*
X139559695Y-65126100D01*
X139783985Y-65088672D01*
X139999055Y-65014839D01*
X140146100Y-64935261D01*
X140199032Y-64906616D01*
X140199033Y-64906614D01*
X140199039Y-64906612D01*
X140199619Y-64906161D01*
X140323420Y-64809803D01*
X140378483Y-64766946D01*
X140532490Y-64599649D01*
X140656861Y-64409285D01*
X140748203Y-64201047D01*
X140804024Y-63980614D01*
X140822802Y-63754000D01*
X140822354Y-63748595D01*
X140804024Y-63527389D01*
X140804024Y-63527386D01*
X140748203Y-63306953D01*
X140656861Y-63098715D01*
X140532490Y-62908351D01*
X140378483Y-62741054D01*
X140378478Y-62741050D01*
X140378475Y-62741047D01*
X140199047Y-62601393D01*
X140199037Y-62601386D01*
X140183641Y-62593055D01*
X140134050Y-62543836D01*
X140118941Y-62475620D01*
X140143112Y-62410064D01*
X140183641Y-62374945D01*
X140199037Y-62366613D01*
X140199036Y-62366613D01*
X140199039Y-62366612D01*
X140378483Y-62226946D01*
X140532490Y-62059649D01*
X140656861Y-61869285D01*
X140748203Y-61661047D01*
X140804024Y-61440614D01*
X140818679Y-61263759D01*
X140822802Y-61214005D01*
X140822802Y-61213994D01*
X140809364Y-61051827D01*
X140804024Y-60987386D01*
X140748203Y-60766953D01*
X140656861Y-60558715D01*
X140532490Y-60368351D01*
X140378483Y-60201054D01*
X140378478Y-60201050D01*
X140378475Y-60201047D01*
X140199047Y-60061393D01*
X140199037Y-60061386D01*
X140183641Y-60053055D01*
X140134050Y-60003836D01*
X140118941Y-59935620D01*
X140143112Y-59870064D01*
X140183641Y-59834945D01*
X140199039Y-59826612D01*
X140378483Y-59686946D01*
X140532490Y-59519649D01*
X140656861Y-59329285D01*
X140748203Y-59121047D01*
X140804024Y-58900614D01*
X140822802Y-58674000D01*
X140804024Y-58447386D01*
X140748203Y-58226953D01*
X140656861Y-58018715D01*
X140532490Y-57828351D01*
X140378483Y-57661054D01*
X140378478Y-57661050D01*
X140378475Y-57661047D01*
X140199047Y-57521393D01*
X140199036Y-57521386D01*
X140183637Y-57513052D01*
X140134048Y-57463831D01*
X140118942Y-57395614D01*
X140143115Y-57330059D01*
X140183641Y-57294944D01*
X140199039Y-57286612D01*
X140378483Y-57146946D01*
X140532490Y-56979649D01*
X140656861Y-56789285D01*
X140748203Y-56581047D01*
X140804024Y-56360614D01*
X140815470Y-56222484D01*
X140822802Y-56134005D01*
X140822802Y-56133994D01*
X140804024Y-55907389D01*
X140804024Y-55907386D01*
X140748203Y-55686953D01*
X140656861Y-55478715D01*
X140532490Y-55288351D01*
X140378483Y-55121054D01*
X140378478Y-55121050D01*
X140378475Y-55121047D01*
X140199047Y-54981393D01*
X140199037Y-54981386D01*
X140183641Y-54973055D01*
X140134050Y-54923836D01*
X140118941Y-54855620D01*
X140143112Y-54790064D01*
X140183641Y-54754945D01*
X140183645Y-54754943D01*
X140199039Y-54746612D01*
X140230281Y-54722296D01*
X140288760Y-54676778D01*
X140378483Y-54606946D01*
X140532490Y-54439649D01*
X140656861Y-54249285D01*
X140748203Y-54041047D01*
X140804024Y-53820614D01*
X140818068Y-53651129D01*
X140822802Y-53594005D01*
X140822802Y-53593994D01*
X140809249Y-53430446D01*
X140804024Y-53367386D01*
X140748203Y-53146953D01*
X140656861Y-52938715D01*
X140532490Y-52748351D01*
X140378483Y-52581054D01*
X140378478Y-52581050D01*
X140378475Y-52581047D01*
X140199047Y-52441393D01*
X140199037Y-52441386D01*
X140183641Y-52433055D01*
X140134050Y-52383836D01*
X140118941Y-52315620D01*
X140143112Y-52250064D01*
X140183641Y-52214945D01*
X140183645Y-52214943D01*
X140199039Y-52206612D01*
X140202546Y-52203883D01*
X140304998Y-52124141D01*
X140378483Y-52066946D01*
X140532490Y-51899649D01*
X140656861Y-51709285D01*
X140748203Y-51501047D01*
X140804024Y-51280614D01*
X140822802Y-51054000D01*
X140804024Y-50827386D01*
X140748203Y-50606953D01*
X140656861Y-50398715D01*
X140532490Y-50208351D01*
X140378483Y-50041054D01*
X140378478Y-50041050D01*
X140378475Y-50041047D01*
X140199047Y-49901393D01*
X140199037Y-49901386D01*
X140183641Y-49893055D01*
X140134050Y-49843836D01*
X140118941Y-49775620D01*
X140143112Y-49710064D01*
X140183641Y-49674945D01*
X140183645Y-49674943D01*
X140199039Y-49666612D01*
X140378483Y-49526946D01*
X140532490Y-49359649D01*
X140656861Y-49169285D01*
X140748203Y-48961047D01*
X140804024Y-48740614D01*
X140822802Y-48514000D01*
X140821973Y-48504000D01*
X140804024Y-48287389D01*
X140804024Y-48287386D01*
X140748203Y-48066953D01*
X140656861Y-47858715D01*
X140532490Y-47668351D01*
X140378483Y-47501054D01*
X140378478Y-47501050D01*
X140378475Y-47501047D01*
X140199047Y-47361393D01*
X140199036Y-47361386D01*
X140183637Y-47353052D01*
X140134048Y-47303831D01*
X140118942Y-47235614D01*
X140143115Y-47170059D01*
X140183641Y-47134944D01*
X140199039Y-47126612D01*
X140213716Y-47115189D01*
X140378475Y-46986952D01*
X140378483Y-46986946D01*
X140532490Y-46819649D01*
X140656861Y-46629285D01*
X140748203Y-46421047D01*
X140804024Y-46200614D01*
X140822802Y-45974000D01*
X140804024Y-45747386D01*
X140748203Y-45526953D01*
X140656861Y-45318715D01*
X140532490Y-45128351D01*
X140378483Y-44961054D01*
X140378478Y-44961050D01*
X140378475Y-44961047D01*
X140199047Y-44821393D01*
X140199032Y-44821383D01*
X139999065Y-44713166D01*
X139999051Y-44713159D01*
X139783987Y-44639328D01*
X139634458Y-44614375D01*
X139559695Y-44601900D01*
X139332305Y-44601900D01*
X139276232Y-44611256D01*
X139108012Y-44639328D01*
X138892948Y-44713159D01*
X138892934Y-44713166D01*
X138692967Y-44821383D01*
X138692952Y-44821393D01*
X138513524Y-44961047D01*
X138513514Y-44961057D01*
X138359507Y-45128354D01*
X138235137Y-45318718D01*
X138143797Y-45526952D01*
X138087975Y-45747389D01*
X138069198Y-45973994D01*
X138069198Y-45974005D01*
X138087975Y-46200610D01*
X138143797Y-46421047D01*
X138230194Y-46618013D01*
X138235139Y-46629285D01*
X138300824Y-46729824D01*
X138354557Y-46812069D01*
X138359510Y-46819649D01*
X138513517Y-46986946D01*
X138513521Y-46986949D01*
X138513524Y-46986952D01*
X138692952Y-47126606D01*
X138692962Y-47126613D01*
X138700821Y-47130865D01*
X138708356Y-47134943D01*
X138757948Y-47184161D01*
X138773058Y-47252377D01*
X138748889Y-47317933D01*
X138708364Y-47353051D01*
X138692963Y-47361386D01*
X138692952Y-47361393D01*
X138513524Y-47501047D01*
X138513514Y-47501057D01*
X138359507Y-47668354D01*
X138235137Y-47858718D01*
X138143797Y-48066952D01*
X138087975Y-48287389D01*
X138069198Y-48513994D01*
X138069198Y-48514005D01*
X138087975Y-48740610D01*
X138143797Y-48961047D01*
X138196788Y-49081855D01*
X138235139Y-49169285D01*
X138359510Y-49359649D01*
X138513517Y-49526946D01*
X138513521Y-49526949D01*
X138513524Y-49526952D01*
X138692952Y-49666606D01*
X138692962Y-49666613D01*
X138700821Y-49670865D01*
X138708356Y-49674943D01*
X138757948Y-49724161D01*
X138773058Y-49792377D01*
X138748889Y-49857933D01*
X138708364Y-49893051D01*
X138692963Y-49901386D01*
X138692952Y-49901393D01*
X138513524Y-50041047D01*
X138513514Y-50041057D01*
X138359507Y-50208354D01*
X138235137Y-50398718D01*
X138143797Y-50606952D01*
X138087975Y-50827389D01*
X138069198Y-51053994D01*
X138069198Y-51054005D01*
X138087975Y-51280610D01*
X138087975Y-51280613D01*
X138087976Y-51280614D01*
X138143797Y-51501047D01*
X138235139Y-51709285D01*
X138288361Y-51790747D01*
X138351276Y-51887047D01*
X138359510Y-51899649D01*
X138513517Y-52066946D01*
X138513521Y-52066949D01*
X138513524Y-52066952D01*
X138692952Y-52206606D01*
X138692962Y-52206613D01*
X138700821Y-52210865D01*
X138708356Y-52214943D01*
X138757948Y-52264161D01*
X138773058Y-52332377D01*
X138748889Y-52397933D01*
X138708364Y-52433051D01*
X138692963Y-52441386D01*
X138692952Y-52441393D01*
X138513524Y-52581047D01*
X138513514Y-52581057D01*
X138359507Y-52748354D01*
X138235137Y-52938718D01*
X138143797Y-53146952D01*
X138087975Y-53367389D01*
X138069198Y-53593994D01*
X138069198Y-53594005D01*
X138087975Y-53820610D01*
X138087975Y-53820613D01*
X138087976Y-53820614D01*
X138143797Y-54041047D01*
X138235139Y-54249285D01*
X138304859Y-54356000D01*
X138348824Y-54423294D01*
X138359510Y-54439649D01*
X138513517Y-54606946D01*
X138513521Y-54606949D01*
X138513524Y-54606952D01*
X138692952Y-54746606D01*
X138692962Y-54746613D01*
X138697318Y-54748970D01*
X138708356Y-54754943D01*
X138757948Y-54804161D01*
X138773058Y-54872377D01*
X138748889Y-54937933D01*
X138708364Y-54973051D01*
X138692963Y-54981386D01*
X138692952Y-54981393D01*
X138513524Y-55121047D01*
X138513514Y-55121057D01*
X138359507Y-55288354D01*
X138235137Y-55478718D01*
X138143797Y-55686952D01*
X138087975Y-55907389D01*
X138069198Y-56133994D01*
X138069198Y-56134005D01*
X138087975Y-56360610D01*
X138087975Y-56360613D01*
X138087976Y-56360614D01*
X138143797Y-56581047D01*
X138235139Y-56789285D01*
X138304858Y-56895998D01*
X138351826Y-56967889D01*
X138359510Y-56979649D01*
X138513517Y-57146946D01*
X138513521Y-57146949D01*
X138513524Y-57146952D01*
X138692952Y-57286606D01*
X138692962Y-57286613D01*
X138700821Y-57290865D01*
X138708356Y-57294943D01*
X138757948Y-57344161D01*
X138773058Y-57412377D01*
X138748889Y-57477933D01*
X138708364Y-57513051D01*
X138692963Y-57521386D01*
X138692952Y-57521393D01*
X138513524Y-57661047D01*
X138513514Y-57661057D01*
X138359507Y-57828354D01*
X138235137Y-58018718D01*
X138143797Y-58226952D01*
X138087975Y-58447389D01*
X138069198Y-58673994D01*
X138069198Y-58674005D01*
X138087975Y-58900610D01*
X138143797Y-59121047D01*
X138229433Y-59316278D01*
X138235139Y-59329285D01*
X138359510Y-59519649D01*
X138513517Y-59686946D01*
X138513521Y-59686949D01*
X138513524Y-59686952D01*
X138692952Y-59826606D01*
X138692959Y-59826610D01*
X138692961Y-59826612D01*
X138695616Y-59828049D01*
X138708360Y-59834946D01*
X138757950Y-59884166D01*
X138773057Y-59952383D01*
X138748886Y-60017938D01*
X138708360Y-60053054D01*
X138692963Y-60061386D01*
X138692952Y-60061393D01*
X138513524Y-60201047D01*
X138513514Y-60201057D01*
X138359507Y-60368354D01*
X138235137Y-60558718D01*
X138143797Y-60766952D01*
X138087975Y-60987389D01*
X138069198Y-61213994D01*
X138069198Y-61214005D01*
X138087975Y-61440610D01*
X138087975Y-61440613D01*
X138087976Y-61440614D01*
X138143797Y-61661047D01*
X138235139Y-61869285D01*
X138359510Y-62059649D01*
X138513517Y-62226946D01*
X138513521Y-62226949D01*
X138513524Y-62226952D01*
X138692952Y-62366606D01*
X138692963Y-62366613D01*
X138708360Y-62374946D01*
X138757950Y-62424166D01*
X138773057Y-62492383D01*
X138748886Y-62557938D01*
X138708360Y-62593054D01*
X138692963Y-62601386D01*
X138692952Y-62601393D01*
X138513524Y-62741047D01*
X138513514Y-62741057D01*
X138359507Y-62908354D01*
X138235137Y-63098718D01*
X138143797Y-63306952D01*
X138087975Y-63527389D01*
X138069198Y-63753994D01*
X138069198Y-63754005D01*
X135636500Y-63754005D01*
X135636500Y-42231763D01*
X137591787Y-42231763D01*
X137621413Y-42501013D01*
X137621415Y-42501024D01*
X137685946Y-42747857D01*
X137689928Y-42763088D01*
X137795870Y-43012390D01*
X137916250Y-43209640D01*
X137936979Y-43243605D01*
X137936986Y-43243615D01*
X138110253Y-43451819D01*
X138110259Y-43451824D01*
X138311998Y-43632582D01*
X138537910Y-43782044D01*
X138783176Y-43897020D01*
X138783183Y-43897022D01*
X138783185Y-43897023D01*
X139042557Y-43975057D01*
X139042564Y-43975058D01*
X139042569Y-43975060D01*
X139310561Y-44014500D01*
X139310566Y-44014500D01*
X139513636Y-44014500D01*
X139565133Y-44010730D01*
X139716156Y-43999677D01*
X139828758Y-43974593D01*
X139980546Y-43940782D01*
X139980548Y-43940781D01*
X139980553Y-43940780D01*
X140233558Y-43844014D01*
X140469777Y-43711441D01*
X140684177Y-43545888D01*
X140872186Y-43350881D01*
X141029799Y-43130579D01*
X141103787Y-42986669D01*
X141153649Y-42889690D01*
X141153651Y-42889684D01*
X141153656Y-42889675D01*
X141241118Y-42633305D01*
X141290319Y-42366933D01*
X141300212Y-42096235D01*
X141270586Y-41826982D01*
X141202072Y-41564912D01*
X141096130Y-41315610D01*
X140955018Y-41084390D01*
X140904219Y-41023348D01*
X140781746Y-40876180D01*
X140781740Y-40876175D01*
X140580002Y-40695418D01*
X140354092Y-40545957D01*
X140354090Y-40545956D01*
X140108824Y-40430980D01*
X140108819Y-40430978D01*
X140108814Y-40430976D01*
X139849442Y-40352942D01*
X139849428Y-40352939D01*
X139733791Y-40335921D01*
X139581439Y-40313500D01*
X139378369Y-40313500D01*
X139378364Y-40313500D01*
X139175844Y-40328323D01*
X139175831Y-40328325D01*
X138911453Y-40387217D01*
X138911446Y-40387220D01*
X138658439Y-40483987D01*
X138422226Y-40616557D01*
X138422224Y-40616558D01*
X138422223Y-40616559D01*
X138405583Y-40629408D01*
X138207822Y-40782112D01*
X138019822Y-40977109D01*
X138019816Y-40977116D01*
X137862202Y-41197419D01*
X137862199Y-41197424D01*
X137738350Y-41438309D01*
X137738343Y-41438327D01*
X137650884Y-41694685D01*
X137650881Y-41694699D01*
X137640504Y-41750882D01*
X137605071Y-41942717D01*
X137601681Y-41961068D01*
X137601680Y-41961075D01*
X137591787Y-42231763D01*
X135636500Y-42231763D01*
X135636500Y-38354005D01*
X138069198Y-38354005D01*
X138087975Y-38580610D01*
X138143797Y-38801047D01*
X138170533Y-38862000D01*
X138235139Y-39009285D01*
X138359510Y-39199649D01*
X138513517Y-39366946D01*
X138513521Y-39366949D01*
X138513524Y-39366952D01*
X138692952Y-39506606D01*
X138692967Y-39506616D01*
X138880306Y-39607999D01*
X138892945Y-39614839D01*
X139108015Y-39688672D01*
X139332305Y-39726100D01*
X139332306Y-39726100D01*
X139559694Y-39726100D01*
X139559695Y-39726100D01*
X139783985Y-39688672D01*
X139999055Y-39614839D01*
X140158230Y-39528697D01*
X140199032Y-39506616D01*
X140199033Y-39506614D01*
X140199039Y-39506612D01*
X140378483Y-39366946D01*
X140532490Y-39199649D01*
X140612191Y-39077656D01*
X140665337Y-39032300D01*
X140734568Y-39022876D01*
X140797904Y-39052378D01*
X140819809Y-39077657D01*
X140899505Y-39199643D01*
X140899507Y-39199645D01*
X140899510Y-39199649D01*
X141053517Y-39366946D01*
X141053521Y-39366949D01*
X141053524Y-39366952D01*
X141232952Y-39506606D01*
X141232967Y-39506616D01*
X141420306Y-39607999D01*
X141432945Y-39614839D01*
X141648015Y-39688672D01*
X141872305Y-39726100D01*
X141872306Y-39726100D01*
X142099694Y-39726100D01*
X142099695Y-39726100D01*
X142323985Y-39688672D01*
X142539055Y-39614839D01*
X142698230Y-39528697D01*
X142739032Y-39506616D01*
X142739033Y-39506614D01*
X142739039Y-39506612D01*
X142918483Y-39366946D01*
X143072490Y-39199649D01*
X143152191Y-39077656D01*
X143205337Y-39032300D01*
X143274568Y-39022876D01*
X143337904Y-39052378D01*
X143359809Y-39077657D01*
X143439505Y-39199643D01*
X143439507Y-39199645D01*
X143439510Y-39199649D01*
X143593517Y-39366946D01*
X143593521Y-39366949D01*
X143593524Y-39366952D01*
X143772952Y-39506606D01*
X143772967Y-39506616D01*
X143960306Y-39607999D01*
X143972945Y-39614839D01*
X144188015Y-39688672D01*
X144412305Y-39726100D01*
X144412306Y-39726100D01*
X144503654Y-39726100D01*
X144570693Y-39745785D01*
X144616448Y-39798589D01*
X144626392Y-39867747D01*
X144597367Y-39931303D01*
X144538589Y-39969077D01*
X144532609Y-39970671D01*
X144474014Y-39984739D01*
X144348404Y-40014895D01*
X144348402Y-40014895D01*
X144129040Y-40105757D01*
X144129037Y-40105759D01*
X143926589Y-40229820D01*
X143926586Y-40229821D01*
X143746031Y-40384031D01*
X143591821Y-40564586D01*
X143591820Y-40564589D01*
X143467762Y-40767033D01*
X143467757Y-40767040D01*
X143376895Y-40986402D01*
X143376895Y-40986404D01*
X143321465Y-41217285D01*
X143302835Y-41454000D01*
X143321465Y-41690714D01*
X143376895Y-41921595D01*
X143376895Y-41921597D01*
X143467757Y-42140959D01*
X143467759Y-42140962D01*
X143591820Y-42343410D01*
X143591821Y-42343413D01*
X143611909Y-42366933D01*
X143746031Y-42523969D01*
X143884373Y-42642124D01*
X143926586Y-42678178D01*
X143926588Y-42678179D01*
X143985136Y-42714057D01*
X144116398Y-42794495D01*
X144123290Y-42798718D01*
X144170165Y-42850529D01*
X144182500Y-42904445D01*
X144182500Y-46503554D01*
X144162815Y-46570593D01*
X144123290Y-46609281D01*
X143926589Y-46729820D01*
X143926586Y-46729821D01*
X143746031Y-46884031D01*
X143591821Y-47064586D01*
X143591820Y-47064589D01*
X143467759Y-47267037D01*
X143467757Y-47267040D01*
X143376895Y-47486402D01*
X143376895Y-47486404D01*
X143321465Y-47717285D01*
X143302835Y-47954000D01*
X143321465Y-48190714D01*
X143375320Y-48415038D01*
X143371829Y-48484821D01*
X143342427Y-48531666D01*
X143121179Y-48752914D01*
X143108820Y-48762818D01*
X143108993Y-48763027D01*
X143102983Y-48767999D01*
X143055015Y-48819079D01*
X143033872Y-48840222D01*
X143033857Y-48840239D01*
X143029531Y-48845814D01*
X143025747Y-48850244D01*
X142993419Y-48884671D01*
X142993412Y-48884681D01*
X142983579Y-48902567D01*
X142972903Y-48918820D01*
X142960386Y-48934957D01*
X142960385Y-48934959D01*
X142941625Y-48978310D01*
X142939055Y-48983556D01*
X142916303Y-49024941D01*
X142916303Y-49024942D01*
X142911225Y-49044720D01*
X142904925Y-49063122D01*
X142896818Y-49081857D01*
X142889431Y-49128495D01*
X142888246Y-49134216D01*
X142876500Y-49179965D01*
X142876500Y-49200384D01*
X142874973Y-49219783D01*
X142871780Y-49239941D01*
X142871780Y-49239942D01*
X142876225Y-49286966D01*
X142876500Y-49292804D01*
X142876500Y-60622366D01*
X142874761Y-60638113D01*
X142875032Y-60638139D01*
X142874298Y-60645905D01*
X142876500Y-60715957D01*
X142876500Y-60745859D01*
X142877384Y-60752856D01*
X142877842Y-60758679D01*
X142879326Y-60805889D01*
X142879327Y-60805891D01*
X142885022Y-60825495D01*
X142888967Y-60844542D01*
X142891526Y-60864797D01*
X142891527Y-60864800D01*
X142891528Y-60864803D01*
X142908914Y-60908716D01*
X142910806Y-60914244D01*
X142923981Y-60959592D01*
X142934372Y-60977162D01*
X142942932Y-60994635D01*
X142950447Y-61013617D01*
X142978209Y-61051827D01*
X142981416Y-61056710D01*
X143005458Y-61097362D01*
X143005462Y-61097366D01*
X143019889Y-61111793D01*
X143032527Y-61126589D01*
X143044528Y-61143107D01*
X143044530Y-61143109D01*
X143048193Y-61146139D01*
X143080931Y-61173222D01*
X143085231Y-61177135D01*
X162429143Y-80521047D01*
X181610910Y-99702814D01*
X181620816Y-99715178D01*
X181621026Y-99715005D01*
X181626001Y-99721019D01*
X181677094Y-99768999D01*
X181698225Y-99790129D01*
X181698230Y-99790134D01*
X181703802Y-99794456D01*
X181708242Y-99798249D01*
X181742678Y-99830586D01*
X181760567Y-99840420D01*
X181776833Y-99851104D01*
X181792959Y-99863613D01*
X181836298Y-99882367D01*
X181841545Y-99884937D01*
X181882940Y-99907695D01*
X181902718Y-99912773D01*
X181921119Y-99919073D01*
X181939855Y-99927181D01*
X181984362Y-99934229D01*
X181986503Y-99934569D01*
X181992212Y-99935751D01*
X182037970Y-99947500D01*
X182058384Y-99947500D01*
X182077783Y-99949027D01*
X182097943Y-99952220D01*
X182144965Y-99947775D01*
X182150804Y-99947500D01*
X186413800Y-99947500D01*
X186480839Y-99967185D01*
X186517609Y-100003678D01*
X186619510Y-100159649D01*
X186773517Y-100326946D01*
X186773521Y-100326949D01*
X186773524Y-100326952D01*
X186952952Y-100466606D01*
X186952962Y-100466613D01*
X186960821Y-100470865D01*
X186968356Y-100474943D01*
X187017948Y-100524161D01*
X187033058Y-100592377D01*
X187008889Y-100657933D01*
X186968364Y-100693051D01*
X186952963Y-100701386D01*
X186952952Y-100701393D01*
X186773524Y-100841047D01*
X186773514Y-100841057D01*
X186619507Y-101008354D01*
X186495137Y-101198718D01*
X186403797Y-101406952D01*
X186347975Y-101627389D01*
X186329198Y-101853994D01*
X186329198Y-101854005D01*
X186347975Y-102080610D01*
X186347975Y-102080613D01*
X186347976Y-102080614D01*
X186403797Y-102301047D01*
X186495139Y-102509285D01*
X186619510Y-102699649D01*
X186773517Y-102866946D01*
X186773521Y-102866949D01*
X186773524Y-102866952D01*
X186952952Y-103006606D01*
X186952963Y-103006613D01*
X186968360Y-103014946D01*
X187017950Y-103064166D01*
X187033057Y-103132383D01*
X187008886Y-103197938D01*
X186968360Y-103233054D01*
X186952963Y-103241386D01*
X186952952Y-103241393D01*
X186773524Y-103381047D01*
X186773514Y-103381057D01*
X186619507Y-103548354D01*
X186495137Y-103738718D01*
X186403797Y-103946952D01*
X186347975Y-104167389D01*
X186329198Y-104393994D01*
X186329198Y-104394005D01*
X186347975Y-104620610D01*
X186347975Y-104620613D01*
X186347976Y-104620614D01*
X186403797Y-104841047D01*
X186495139Y-105049285D01*
X186619510Y-105239649D01*
X186773517Y-105406946D01*
X186773521Y-105406949D01*
X186773524Y-105406952D01*
X186952952Y-105546606D01*
X186952967Y-105546616D01*
X187141175Y-105648469D01*
X187152945Y-105654839D01*
X187368015Y-105728672D01*
X187592305Y-105766100D01*
X187592306Y-105766100D01*
X187819694Y-105766100D01*
X187819695Y-105766100D01*
X188043985Y-105728672D01*
X188259055Y-105654839D01*
X188459039Y-105546612D01*
X188638483Y-105406946D01*
X188792490Y-105239649D01*
X188916861Y-105049285D01*
X189008203Y-104841047D01*
X189064024Y-104620614D01*
X189082802Y-104394000D01*
X189064024Y-104167386D01*
X189008203Y-103946953D01*
X188916861Y-103738715D01*
X188792490Y-103548351D01*
X188638483Y-103381054D01*
X188638478Y-103381050D01*
X188638475Y-103381047D01*
X188459047Y-103241393D01*
X188459037Y-103241386D01*
X188443641Y-103233055D01*
X188394050Y-103183836D01*
X188378941Y-103115620D01*
X188403112Y-103050064D01*
X188443641Y-103014945D01*
X188459037Y-103006613D01*
X188459036Y-103006613D01*
X188459039Y-103006612D01*
X188638483Y-102866946D01*
X188792490Y-102699649D01*
X188916861Y-102509285D01*
X189008203Y-102301047D01*
X189064024Y-102080614D01*
X189082802Y-101854000D01*
X189064024Y-101627386D01*
X189008203Y-101406953D01*
X188916861Y-101198715D01*
X188792490Y-101008351D01*
X188638483Y-100841054D01*
X188638478Y-100841050D01*
X188638475Y-100841047D01*
X188459047Y-100701393D01*
X188459037Y-100701386D01*
X188443641Y-100693055D01*
X188394050Y-100643836D01*
X188378941Y-100575620D01*
X188403112Y-100510064D01*
X188443641Y-100474945D01*
X188459037Y-100466613D01*
X188459036Y-100466613D01*
X188459039Y-100466612D01*
X188638483Y-100326946D01*
X188792490Y-100159649D01*
X188916861Y-99969285D01*
X189008203Y-99761047D01*
X189064024Y-99540614D01*
X189082802Y-99314000D01*
X189064024Y-99087386D01*
X189008203Y-98866953D01*
X188916861Y-98658715D01*
X188792490Y-98468351D01*
X188638483Y-98301054D01*
X188638478Y-98301050D01*
X188638475Y-98301047D01*
X188459047Y-98161393D01*
X188459037Y-98161386D01*
X188443641Y-98153055D01*
X188394050Y-98103836D01*
X188378941Y-98035620D01*
X188403112Y-97970064D01*
X188443641Y-97934945D01*
X188459037Y-97926613D01*
X188459036Y-97926613D01*
X188459039Y-97926612D01*
X188638483Y-97786946D01*
X188792490Y-97619649D01*
X188916861Y-97429285D01*
X189008203Y-97221047D01*
X189064024Y-97000614D01*
X189082802Y-96774000D01*
X189064024Y-96547386D01*
X189008203Y-96326953D01*
X188916861Y-96118715D01*
X188792490Y-95928351D01*
X188638483Y-95761054D01*
X188638478Y-95761050D01*
X188638475Y-95761047D01*
X188459047Y-95621393D01*
X188459037Y-95621386D01*
X188443641Y-95613055D01*
X188394050Y-95563836D01*
X188378941Y-95495620D01*
X188403112Y-95430064D01*
X188443641Y-95394945D01*
X188459037Y-95386613D01*
X188459036Y-95386613D01*
X188459039Y-95386612D01*
X188638483Y-95246946D01*
X188792490Y-95079649D01*
X188916861Y-94889285D01*
X189008203Y-94681047D01*
X189064024Y-94460614D01*
X189082802Y-94234000D01*
X189064024Y-94007386D01*
X189008203Y-93786953D01*
X188916861Y-93578715D01*
X188792490Y-93388351D01*
X188656846Y-93241002D01*
X188625926Y-93178350D01*
X188633786Y-93108924D01*
X188677934Y-93054769D01*
X188704746Y-93040840D01*
X188811684Y-93000955D01*
X188811693Y-93000950D01*
X188926787Y-92914790D01*
X188926790Y-92914787D01*
X189012950Y-92799693D01*
X189012954Y-92799686D01*
X189063196Y-92664979D01*
X189063198Y-92664972D01*
X189069599Y-92605444D01*
X189069600Y-92605427D01*
X189069600Y-91944000D01*
X188149196Y-91944000D01*
X188172845Y-91907201D01*
X188214000Y-91767039D01*
X188214000Y-91620961D01*
X188172845Y-91480799D01*
X188149196Y-91444000D01*
X189069600Y-91444000D01*
X189069600Y-90782572D01*
X189069599Y-90782555D01*
X189063198Y-90723027D01*
X189063196Y-90723020D01*
X189012954Y-90588313D01*
X189012952Y-90588310D01*
X188945579Y-90498312D01*
X188921161Y-90432848D01*
X188936012Y-90364574D01*
X188945579Y-90349688D01*
X189012952Y-90259689D01*
X189012954Y-90259686D01*
X189063196Y-90124979D01*
X189063198Y-90124972D01*
X189069599Y-90065444D01*
X189069600Y-90065427D01*
X189069600Y-89404000D01*
X188149196Y-89404000D01*
X188172845Y-89367201D01*
X188214000Y-89227039D01*
X188214000Y-89080961D01*
X188172845Y-88940799D01*
X188149196Y-88904000D01*
X189069600Y-88904000D01*
X189069600Y-88242572D01*
X189069599Y-88242555D01*
X189063198Y-88183027D01*
X189063196Y-88183020D01*
X189012954Y-88048313D01*
X189012950Y-88048306D01*
X188926790Y-87933212D01*
X188926787Y-87933209D01*
X188811693Y-87847049D01*
X188811686Y-87847045D01*
X188704745Y-87807159D01*
X188648811Y-87765288D01*
X188624394Y-87699824D01*
X188639246Y-87631551D01*
X188656840Y-87607003D01*
X188792490Y-87459649D01*
X188916861Y-87269285D01*
X189008203Y-87061047D01*
X189064024Y-86840614D01*
X189082802Y-86614000D01*
X189064024Y-86387386D01*
X189008203Y-86166953D01*
X188916861Y-85958715D01*
X188792490Y-85768351D01*
X188638483Y-85601054D01*
X188638478Y-85601050D01*
X188638475Y-85601047D01*
X188459047Y-85461393D01*
X188459032Y-85461383D01*
X188259065Y-85353166D01*
X188259051Y-85353159D01*
X188043987Y-85279328D01*
X187894458Y-85254375D01*
X187819695Y-85241900D01*
X187592305Y-85241900D01*
X187536232Y-85251257D01*
X187368012Y-85279328D01*
X187152948Y-85353159D01*
X187152934Y-85353166D01*
X186952967Y-85461383D01*
X186952952Y-85461393D01*
X186773524Y-85601047D01*
X186773514Y-85601057D01*
X186619507Y-85768354D01*
X186495137Y-85958718D01*
X186403797Y-86166952D01*
X186347975Y-86387389D01*
X186329198Y-86613994D01*
X186329198Y-86614005D01*
X186347975Y-86840610D01*
X186347975Y-86840613D01*
X186347976Y-86840614D01*
X186403797Y-87061047D01*
X186495139Y-87269285D01*
X186619510Y-87459649D01*
X186755152Y-87606996D01*
X186786073Y-87669649D01*
X186778213Y-87739075D01*
X186734065Y-87793230D01*
X186707254Y-87807159D01*
X186600313Y-87847045D01*
X186600306Y-87847049D01*
X186485212Y-87933209D01*
X186485209Y-87933212D01*
X186399049Y-88048306D01*
X186399045Y-88048313D01*
X186348803Y-88183020D01*
X186348801Y-88183027D01*
X186342400Y-88242555D01*
X186342400Y-88904000D01*
X187262804Y-88904000D01*
X187239155Y-88940799D01*
X187198000Y-89080961D01*
X187198000Y-89227039D01*
X187239155Y-89367201D01*
X187262804Y-89404000D01*
X186342400Y-89404000D01*
X186342400Y-90065444D01*
X186348801Y-90124972D01*
X186348803Y-90124979D01*
X186399045Y-90259686D01*
X186399047Y-90259688D01*
X186466421Y-90349689D01*
X186490838Y-90415153D01*
X186475987Y-90483426D01*
X186466421Y-90498311D01*
X186399047Y-90588311D01*
X186399045Y-90588313D01*
X186348803Y-90723020D01*
X186348801Y-90723027D01*
X186342400Y-90782555D01*
X186342400Y-91444000D01*
X187262804Y-91444000D01*
X187239155Y-91480799D01*
X187198000Y-91620961D01*
X187198000Y-91767039D01*
X187239155Y-91907201D01*
X187262804Y-91944000D01*
X186342400Y-91944000D01*
X186342400Y-92605444D01*
X186348801Y-92664972D01*
X186348803Y-92664979D01*
X186399045Y-92799686D01*
X186399049Y-92799693D01*
X186485209Y-92914787D01*
X186485212Y-92914790D01*
X186600306Y-93000950D01*
X186600313Y-93000954D01*
X186707254Y-93040840D01*
X186763187Y-93082711D01*
X186787605Y-93148175D01*
X186772754Y-93216448D01*
X186755151Y-93241004D01*
X186619510Y-93388351D01*
X186495137Y-93578718D01*
X186403797Y-93786952D01*
X186347975Y-94007389D01*
X186329198Y-94233994D01*
X186329198Y-94234005D01*
X186347975Y-94460610D01*
X186347975Y-94460613D01*
X186347976Y-94460614D01*
X186403797Y-94681047D01*
X186495139Y-94889285D01*
X186619510Y-95079649D01*
X186773517Y-95246946D01*
X186773521Y-95246949D01*
X186773524Y-95246952D01*
X186952952Y-95386606D01*
X186952963Y-95386613D01*
X186968360Y-95394946D01*
X187017950Y-95444166D01*
X187033057Y-95512383D01*
X187008886Y-95577938D01*
X186968360Y-95613054D01*
X186952963Y-95621386D01*
X186952952Y-95621393D01*
X186773524Y-95761047D01*
X186773514Y-95761057D01*
X186619507Y-95928354D01*
X186495137Y-96118718D01*
X186403797Y-96326952D01*
X186347975Y-96547389D01*
X186329198Y-96773994D01*
X186329198Y-96774005D01*
X186347975Y-97000610D01*
X186347975Y-97000613D01*
X186347976Y-97000614D01*
X186403797Y-97221047D01*
X186495139Y-97429285D01*
X186619510Y-97619649D01*
X186773517Y-97786946D01*
X186773521Y-97786949D01*
X186773524Y-97786952D01*
X186952952Y-97926606D01*
X186952963Y-97926613D01*
X186968360Y-97934946D01*
X187017950Y-97984166D01*
X187033057Y-98052383D01*
X187008886Y-98117938D01*
X186968360Y-98153054D01*
X186952963Y-98161386D01*
X186952952Y-98161393D01*
X186773524Y-98301047D01*
X186773514Y-98301057D01*
X186619507Y-98468354D01*
X186517609Y-98624322D01*
X186464462Y-98669678D01*
X186413800Y-98680500D01*
X182431767Y-98680500D01*
X182364728Y-98660815D01*
X182344086Y-98644181D01*
X150061669Y-66361763D01*
X152831787Y-66361763D01*
X152861413Y-66631013D01*
X152861415Y-66631024D01*
X152929292Y-66890657D01*
X152929928Y-66893088D01*
X153035870Y-67142390D01*
X153144028Y-67319613D01*
X153176979Y-67373605D01*
X153176986Y-67373615D01*
X153350253Y-67581819D01*
X153350259Y-67581824D01*
X153461380Y-67681388D01*
X153551998Y-67762582D01*
X153777910Y-67912044D01*
X154023176Y-68027020D01*
X154023183Y-68027022D01*
X154023185Y-68027023D01*
X154282557Y-68105057D01*
X154282564Y-68105058D01*
X154282569Y-68105060D01*
X154550561Y-68144500D01*
X154550566Y-68144500D01*
X154753636Y-68144500D01*
X154805133Y-68140730D01*
X154956156Y-68129677D01*
X155068758Y-68104593D01*
X155220546Y-68070782D01*
X155220548Y-68070781D01*
X155220553Y-68070780D01*
X155473558Y-67974014D01*
X155709777Y-67841441D01*
X155924177Y-67675888D01*
X156112186Y-67480881D01*
X156269799Y-67260579D01*
X156357982Y-67089061D01*
X156393649Y-67019690D01*
X156393651Y-67019684D01*
X156393656Y-67019675D01*
X156481118Y-66763305D01*
X156530319Y-66496933D01*
X156540212Y-66226235D01*
X156510586Y-65956982D01*
X156442072Y-65694912D01*
X156336130Y-65445610D01*
X156195018Y-65214390D01*
X156144806Y-65154054D01*
X156021746Y-65006180D01*
X156021740Y-65006175D01*
X155820002Y-64825418D01*
X155594092Y-64675957D01*
X155545210Y-64653042D01*
X155348824Y-64560980D01*
X155348819Y-64560978D01*
X155348814Y-64560976D01*
X155089442Y-64482942D01*
X155089428Y-64482939D01*
X154973791Y-64465921D01*
X154821439Y-64443500D01*
X154618369Y-64443500D01*
X154618364Y-64443500D01*
X154415844Y-64458323D01*
X154415831Y-64458325D01*
X154151453Y-64517217D01*
X154151446Y-64517220D01*
X153898439Y-64613987D01*
X153662226Y-64746557D01*
X153662224Y-64746558D01*
X153662223Y-64746559D01*
X153599893Y-64794688D01*
X153447822Y-64912112D01*
X153259822Y-65107109D01*
X153259816Y-65107116D01*
X153102202Y-65327419D01*
X153102199Y-65327424D01*
X152978350Y-65568309D01*
X152978343Y-65568327D01*
X152890884Y-65824685D01*
X152890881Y-65824699D01*
X152841681Y-66091068D01*
X152841680Y-66091075D01*
X152831787Y-66361763D01*
X150061669Y-66361763D01*
X144179819Y-60479913D01*
X144146334Y-60418590D01*
X144143500Y-60392232D01*
X144143500Y-56896005D01*
X145194844Y-56896005D01*
X145213434Y-57120359D01*
X145213436Y-57120371D01*
X145268703Y-57338614D01*
X145359140Y-57544792D01*
X145482276Y-57733265D01*
X145482284Y-57733276D01*
X145634756Y-57898902D01*
X145634761Y-57898907D01*
X145648628Y-57909700D01*
X145812424Y-58037189D01*
X145812425Y-58037189D01*
X145812427Y-58037191D01*
X145872314Y-58069600D01*
X146010426Y-58144342D01*
X146223365Y-58217444D01*
X146445431Y-58254500D01*
X146670569Y-58254500D01*
X146892635Y-58217444D01*
X147105574Y-58144342D01*
X147303576Y-58037189D01*
X147481240Y-57898906D01*
X147620339Y-57747806D01*
X147633715Y-57733276D01*
X147633715Y-57733275D01*
X147633722Y-57733268D01*
X147724193Y-57594790D01*
X147777338Y-57549437D01*
X147846569Y-57540013D01*
X147909905Y-57569515D01*
X147931804Y-57594787D01*
X148022278Y-57733268D01*
X148022283Y-57733273D01*
X148022284Y-57733276D01*
X148174756Y-57898902D01*
X148174761Y-57898907D01*
X148188628Y-57909700D01*
X148352424Y-58037189D01*
X148352425Y-58037189D01*
X148352427Y-58037191D01*
X148412314Y-58069600D01*
X148550426Y-58144342D01*
X148763365Y-58217444D01*
X148985431Y-58254500D01*
X149210569Y-58254500D01*
X149432635Y-58217444D01*
X149645574Y-58144342D01*
X149843576Y-58037189D01*
X150021240Y-57898906D01*
X150160339Y-57747806D01*
X150173715Y-57733276D01*
X150173715Y-57733275D01*
X150173722Y-57733268D01*
X150264193Y-57594790D01*
X150317338Y-57549437D01*
X150386569Y-57540013D01*
X150449905Y-57569515D01*
X150471804Y-57594787D01*
X150562278Y-57733268D01*
X150562283Y-57733273D01*
X150562284Y-57733276D01*
X150714756Y-57898902D01*
X150714761Y-57898907D01*
X150728628Y-57909700D01*
X150892424Y-58037189D01*
X150892425Y-58037189D01*
X150892427Y-58037191D01*
X150952314Y-58069600D01*
X151090426Y-58144342D01*
X151303365Y-58217444D01*
X151525431Y-58254500D01*
X151750569Y-58254500D01*
X151972635Y-58217444D01*
X152185574Y-58144342D01*
X152383576Y-58037189D01*
X152561240Y-57898906D01*
X152700339Y-57747806D01*
X152713715Y-57733276D01*
X152713715Y-57733275D01*
X152713722Y-57733268D01*
X152804193Y-57594790D01*
X152857338Y-57549437D01*
X152926569Y-57540013D01*
X152989905Y-57569515D01*
X153011804Y-57594787D01*
X153102278Y-57733268D01*
X153102283Y-57733273D01*
X153102284Y-57733276D01*
X153254756Y-57898902D01*
X153254761Y-57898907D01*
X153268628Y-57909700D01*
X153432424Y-58037189D01*
X153432425Y-58037189D01*
X153432427Y-58037191D01*
X153492314Y-58069600D01*
X153630426Y-58144342D01*
X153843365Y-58217444D01*
X154065431Y-58254500D01*
X154290569Y-58254500D01*
X154512635Y-58217444D01*
X154725574Y-58144342D01*
X154923576Y-58037189D01*
X155101240Y-57898906D01*
X155240339Y-57747806D01*
X155253715Y-57733276D01*
X155253715Y-57733275D01*
X155253722Y-57733268D01*
X155347749Y-57589347D01*
X155400894Y-57543994D01*
X155470125Y-57534570D01*
X155533461Y-57564072D01*
X155553131Y-57586049D01*
X155603072Y-57657373D01*
X155603073Y-57657373D01*
X156234923Y-57025523D01*
X156258507Y-57105844D01*
X156336239Y-57226798D01*
X156444900Y-57320952D01*
X156575685Y-57380680D01*
X156585466Y-57382086D01*
X155956625Y-58010925D01*
X156040421Y-58069599D01*
X156254507Y-58169429D01*
X156254516Y-58169433D01*
X156482673Y-58230567D01*
X156482684Y-58230569D01*
X156717998Y-58251157D01*
X156718002Y-58251157D01*
X156953315Y-58230569D01*
X156953326Y-58230567D01*
X157181483Y-58169433D01*
X157181492Y-58169429D01*
X157395578Y-58069600D01*
X157395582Y-58069598D01*
X157479373Y-58010926D01*
X157479373Y-58010925D01*
X156850533Y-57382086D01*
X156860315Y-57380680D01*
X156991100Y-57320952D01*
X157099761Y-57226798D01*
X157177493Y-57105844D01*
X157201076Y-57025524D01*
X157832925Y-57657373D01*
X157832926Y-57657373D01*
X157891598Y-57573582D01*
X157891600Y-57573578D01*
X157991429Y-57359492D01*
X157991433Y-57359483D01*
X158052567Y-57131326D01*
X158052569Y-57131315D01*
X158073157Y-56896001D01*
X158073157Y-56895998D01*
X158052569Y-56660684D01*
X158052567Y-56660673D01*
X157991433Y-56432516D01*
X157991429Y-56432507D01*
X157891600Y-56218423D01*
X157891599Y-56218421D01*
X157832925Y-56134626D01*
X157832925Y-56134625D01*
X157201076Y-56766475D01*
X157177493Y-56686156D01*
X157099761Y-56565202D01*
X156991100Y-56471048D01*
X156860315Y-56411320D01*
X156850533Y-56409913D01*
X157486746Y-55773700D01*
X157494926Y-55732998D01*
X157543541Y-55682815D01*
X157565679Y-55672986D01*
X157640738Y-55648115D01*
X157791652Y-55555030D01*
X157917030Y-55429652D01*
X158010115Y-55278738D01*
X158065887Y-55110426D01*
X158076500Y-55006545D01*
X158076499Y-53705456D01*
X158065887Y-53601574D01*
X158010115Y-53433262D01*
X157917030Y-53282348D01*
X157791652Y-53156970D01*
X157697898Y-53099141D01*
X157640740Y-53063886D01*
X157640735Y-53063884D01*
X157472427Y-53008113D01*
X157368545Y-52997500D01*
X156067462Y-52997500D01*
X156067446Y-52997501D01*
X155963572Y-53008113D01*
X155795264Y-53063884D01*
X155795259Y-53063886D01*
X155644346Y-53156971D01*
X155518971Y-53282346D01*
X155425886Y-53433259D01*
X155425882Y-53433268D01*
X155425749Y-53433672D01*
X155425582Y-53433912D01*
X155422835Y-53439805D01*
X155421827Y-53439335D01*
X155385972Y-53491114D01*
X155321454Y-53517932D01*
X155252680Y-53505612D01*
X155216817Y-53478643D01*
X155101240Y-53353094D01*
X155101237Y-53353092D01*
X155101238Y-53353092D01*
X154980229Y-53258906D01*
X154923576Y-53214811D01*
X154923575Y-53214810D01*
X154923572Y-53214808D01*
X154725580Y-53107661D01*
X154725577Y-53107659D01*
X154725574Y-53107658D01*
X154725571Y-53107657D01*
X154725569Y-53107656D01*
X154512637Y-53034556D01*
X154290569Y-52997500D01*
X154065431Y-52997500D01*
X153843362Y-53034556D01*
X153630430Y-53107656D01*
X153630419Y-53107661D01*
X153432427Y-53214808D01*
X153432422Y-53214812D01*
X153254761Y-53353092D01*
X153254756Y-53353097D01*
X153102284Y-53518723D01*
X153102276Y-53518734D01*
X153011808Y-53657206D01*
X152958662Y-53702562D01*
X152889431Y-53711986D01*
X152826095Y-53682484D01*
X152804192Y-53657206D01*
X152713723Y-53518734D01*
X152713715Y-53518723D01*
X152561243Y-53353097D01*
X152561238Y-53353092D01*
X152440229Y-53258906D01*
X152383576Y-53214811D01*
X152383575Y-53214810D01*
X152383572Y-53214808D01*
X152185580Y-53107661D01*
X152185577Y-53107659D01*
X152185574Y-53107658D01*
X152185571Y-53107657D01*
X152185569Y-53107656D01*
X151972637Y-53034556D01*
X151750569Y-52997500D01*
X151525431Y-52997500D01*
X151303362Y-53034556D01*
X151090430Y-53107656D01*
X151090419Y-53107661D01*
X150892427Y-53214808D01*
X150892422Y-53214812D01*
X150714761Y-53353092D01*
X150714756Y-53353097D01*
X150562284Y-53518723D01*
X150562276Y-53518734D01*
X150471808Y-53657206D01*
X150418662Y-53702562D01*
X150349431Y-53711986D01*
X150286095Y-53682484D01*
X150264192Y-53657206D01*
X150173723Y-53518734D01*
X150173715Y-53518723D01*
X150021243Y-53353097D01*
X150021238Y-53353092D01*
X149900229Y-53258906D01*
X149843576Y-53214811D01*
X149843575Y-53214810D01*
X149843572Y-53214808D01*
X149645580Y-53107661D01*
X149645577Y-53107659D01*
X149645574Y-53107658D01*
X149645571Y-53107657D01*
X149645569Y-53107656D01*
X149432637Y-53034556D01*
X149210569Y-52997500D01*
X148985431Y-52997500D01*
X148763362Y-53034556D01*
X148550430Y-53107656D01*
X148550419Y-53107661D01*
X148352427Y-53214808D01*
X148352422Y-53214812D01*
X148174761Y-53353092D01*
X148174756Y-53353097D01*
X148022284Y-53518723D01*
X148022276Y-53518734D01*
X147931808Y-53657206D01*
X147878662Y-53702562D01*
X147809431Y-53711986D01*
X147746095Y-53682484D01*
X147724192Y-53657206D01*
X147633723Y-53518734D01*
X147633715Y-53518723D01*
X147481243Y-53353097D01*
X147481238Y-53353092D01*
X147360229Y-53258906D01*
X147303576Y-53214811D01*
X147303575Y-53214810D01*
X147303572Y-53214808D01*
X147105580Y-53107661D01*
X147105577Y-53107659D01*
X147105574Y-53107658D01*
X147105571Y-53107657D01*
X147105569Y-53107656D01*
X146892637Y-53034556D01*
X146670569Y-52997500D01*
X146445431Y-52997500D01*
X146223362Y-53034556D01*
X146010430Y-53107656D01*
X146010419Y-53107661D01*
X145812427Y-53214808D01*
X145812422Y-53214812D01*
X145634761Y-53353092D01*
X145634756Y-53353097D01*
X145482284Y-53518723D01*
X145482276Y-53518734D01*
X145359140Y-53707207D01*
X145268703Y-53913385D01*
X145213436Y-54131628D01*
X145213434Y-54131640D01*
X145194844Y-54355994D01*
X145194844Y-54356005D01*
X145213434Y-54580359D01*
X145213436Y-54580371D01*
X145268703Y-54798614D01*
X145359140Y-55004792D01*
X145482276Y-55193265D01*
X145482284Y-55193276D01*
X145634756Y-55358902D01*
X145634761Y-55358907D01*
X145647682Y-55368964D01*
X145812424Y-55497189D01*
X145812429Y-55497191D01*
X145812431Y-55497193D01*
X145848930Y-55516946D01*
X145898520Y-55566165D01*
X145913628Y-55634382D01*
X145889457Y-55699937D01*
X145848930Y-55735054D01*
X145812431Y-55754806D01*
X145812422Y-55754812D01*
X145634761Y-55893092D01*
X145634756Y-55893097D01*
X145482284Y-56058723D01*
X145482276Y-56058734D01*
X145359140Y-56247207D01*
X145268703Y-56453385D01*
X145213436Y-56671628D01*
X145213434Y-56671640D01*
X145194844Y-56895994D01*
X145194844Y-56896005D01*
X144143500Y-56896005D01*
X144143500Y-49573766D01*
X144163185Y-49506727D01*
X144179818Y-49486086D01*
X144202685Y-49463218D01*
X144238331Y-49427571D01*
X144299654Y-49394086D01*
X144354957Y-49394677D01*
X144579289Y-49448535D01*
X144816000Y-49467165D01*
X145052711Y-49448535D01*
X145283594Y-49393105D01*
X145283596Y-49393104D01*
X145283597Y-49393104D01*
X145502959Y-49302242D01*
X145502960Y-49302241D01*
X145502963Y-49302240D01*
X145705416Y-49178176D01*
X145885969Y-49023969D01*
X146040176Y-48843416D01*
X146164240Y-48640963D01*
X146216828Y-48514005D01*
X146255104Y-48421597D01*
X146255104Y-48421596D01*
X146255105Y-48421594D01*
X146310535Y-48190711D01*
X146329165Y-47954005D01*
X147810859Y-47954005D01*
X147831385Y-48201729D01*
X147831387Y-48201738D01*
X147892412Y-48442717D01*
X147992266Y-48670364D01*
X148092564Y-48823882D01*
X148790070Y-48126376D01*
X148792884Y-48139915D01*
X148862442Y-48274156D01*
X148965638Y-48384652D01*
X149094819Y-48463209D01*
X149146002Y-48477549D01*
X148445942Y-49177609D01*
X148492768Y-49214055D01*
X148492770Y-49214056D01*
X148711385Y-49332364D01*
X148711396Y-49332369D01*
X148946506Y-49413083D01*
X149191707Y-49454000D01*
X149440293Y-49454000D01*
X149685493Y-49413083D01*
X149920603Y-49332369D01*
X149920614Y-49332364D01*
X150139228Y-49214057D01*
X150139231Y-49214055D01*
X150186056Y-49177609D01*
X149487568Y-48479121D01*
X149604458Y-48428349D01*
X149721739Y-48332934D01*
X149808928Y-48209415D01*
X149839355Y-48123801D01*
X150539434Y-48823882D01*
X150639731Y-48670369D01*
X150739587Y-48442717D01*
X150800612Y-48201738D01*
X150800614Y-48201729D01*
X150821141Y-47954005D01*
X150821141Y-47953994D01*
X150800614Y-47706270D01*
X150800612Y-47706261D01*
X150739587Y-47465282D01*
X150639731Y-47237630D01*
X150539434Y-47084116D01*
X149841928Y-47781621D01*
X149839116Y-47768085D01*
X149769558Y-47633844D01*
X149666362Y-47523348D01*
X149537181Y-47444791D01*
X149485997Y-47430450D01*
X150186057Y-46730390D01*
X150186056Y-46730389D01*
X150139229Y-46693943D01*
X149920614Y-46575635D01*
X149920603Y-46575630D01*
X149685493Y-46494916D01*
X149440293Y-46454000D01*
X149191707Y-46454000D01*
X148946506Y-46494916D01*
X148711396Y-46575630D01*
X148711390Y-46575632D01*
X148492761Y-46693949D01*
X148445942Y-46730388D01*
X148445942Y-46730390D01*
X149144431Y-47428878D01*
X149027542Y-47479651D01*
X148910261Y-47575066D01*
X148823072Y-47698585D01*
X148792645Y-47784197D01*
X148092564Y-47084116D01*
X147992267Y-47237632D01*
X147892412Y-47465282D01*
X147831387Y-47706261D01*
X147831385Y-47706270D01*
X147810859Y-47953994D01*
X147810859Y-47954005D01*
X146329165Y-47954005D01*
X146329165Y-47954000D01*
X146310535Y-47717289D01*
X146255105Y-47486406D01*
X146255104Y-47486403D01*
X146255104Y-47486402D01*
X146164242Y-47267040D01*
X146164240Y-47267037D01*
X146136851Y-47222342D01*
X146040178Y-47064588D01*
X146040178Y-47064586D01*
X145989050Y-47004723D01*
X145885969Y-46884031D01*
X145706078Y-46730389D01*
X145705413Y-46729821D01*
X145705410Y-46729820D01*
X145508710Y-46609281D01*
X145461835Y-46557469D01*
X145449500Y-46503554D01*
X145449500Y-42904445D01*
X145469185Y-42837406D01*
X145508710Y-42798718D01*
X145515602Y-42794495D01*
X145705416Y-42678176D01*
X145885969Y-42523969D01*
X146040176Y-42343416D01*
X146164240Y-42140963D01*
X146175562Y-42113631D01*
X146255104Y-41921597D01*
X146255104Y-41921596D01*
X146255105Y-41921594D01*
X146310535Y-41690711D01*
X146329165Y-41454005D01*
X147810859Y-41454005D01*
X147831385Y-41701729D01*
X147831387Y-41701738D01*
X147892412Y-41942717D01*
X147992266Y-42170364D01*
X148092564Y-42323882D01*
X148790070Y-41626375D01*
X148792884Y-41639915D01*
X148862442Y-41774156D01*
X148965638Y-41884652D01*
X149094819Y-41963209D01*
X149146002Y-41977549D01*
X148445942Y-42677609D01*
X148492768Y-42714055D01*
X148492770Y-42714056D01*
X148711385Y-42832364D01*
X148711396Y-42832369D01*
X148946506Y-42913083D01*
X149191707Y-42954000D01*
X149440293Y-42954000D01*
X149685493Y-42913083D01*
X149920603Y-42832369D01*
X149920614Y-42832364D01*
X150139228Y-42714057D01*
X150139231Y-42714055D01*
X150186056Y-42677609D01*
X149487568Y-41979121D01*
X149604458Y-41928349D01*
X149721739Y-41832934D01*
X149808928Y-41709415D01*
X149839354Y-41623802D01*
X150539434Y-42323882D01*
X150639731Y-42170369D01*
X150739587Y-41942717D01*
X150800612Y-41701738D01*
X150800614Y-41701729D01*
X150821141Y-41454005D01*
X150821141Y-41453994D01*
X150800614Y-41206270D01*
X150800612Y-41206261D01*
X150739587Y-40965282D01*
X150639731Y-40737630D01*
X150539434Y-40584116D01*
X149841929Y-41281622D01*
X149839116Y-41268085D01*
X149769558Y-41133844D01*
X149666362Y-41023348D01*
X149537181Y-40944791D01*
X149485995Y-40930449D01*
X150186056Y-40230389D01*
X150139229Y-40193943D01*
X149920614Y-40075635D01*
X149920603Y-40075630D01*
X149685493Y-39994916D01*
X149550612Y-39972409D01*
X149487727Y-39941958D01*
X149460080Y-39896728D01*
X149440647Y-39925520D01*
X149376453Y-39953105D01*
X149361578Y-39954000D01*
X149191707Y-39954000D01*
X148946506Y-39994916D01*
X148711396Y-40075630D01*
X148711390Y-40075632D01*
X148492761Y-40193949D01*
X148445942Y-40230388D01*
X148445941Y-40230389D01*
X149144431Y-40928878D01*
X149027542Y-40979651D01*
X148910261Y-41075066D01*
X148823072Y-41198585D01*
X148792645Y-41284196D01*
X148092563Y-40584116D01*
X147992267Y-40737632D01*
X147892412Y-40965282D01*
X147831387Y-41206261D01*
X147831385Y-41206270D01*
X147810859Y-41453994D01*
X147810859Y-41454005D01*
X146329165Y-41454005D01*
X146329165Y-41454000D01*
X146310535Y-41217289D01*
X146255105Y-40986406D01*
X146255104Y-40986403D01*
X146255104Y-40986402D01*
X146164242Y-40767040D01*
X146164238Y-40767033D01*
X146046759Y-40575327D01*
X146040178Y-40564588D01*
X146040178Y-40564586D01*
X145972964Y-40485889D01*
X145885969Y-40384031D01*
X145706078Y-40230389D01*
X145705413Y-40229821D01*
X145705410Y-40229820D01*
X145502962Y-40105759D01*
X145502959Y-40105757D01*
X145283596Y-40014895D01*
X145052713Y-39959465D01*
X144942286Y-39950774D01*
X144830469Y-39941973D01*
X144765181Y-39917090D01*
X144723711Y-39860858D01*
X144719224Y-39791133D01*
X144753146Y-39730051D01*
X144814707Y-39697005D01*
X144819790Y-39696047D01*
X144863986Y-39688672D01*
X144998236Y-39642584D01*
X145079055Y-39614839D01*
X145238230Y-39528697D01*
X145279032Y-39506616D01*
X145279033Y-39506614D01*
X145279039Y-39506612D01*
X145458483Y-39366946D01*
X145612490Y-39199649D01*
X145692191Y-39077656D01*
X145745337Y-39032300D01*
X145814568Y-39022876D01*
X145877904Y-39052378D01*
X145899809Y-39077657D01*
X145979505Y-39199643D01*
X145979507Y-39199645D01*
X145979510Y-39199649D01*
X146133517Y-39366946D01*
X146133521Y-39366949D01*
X146133524Y-39366952D01*
X146312952Y-39506606D01*
X146312967Y-39506616D01*
X146500306Y-39607999D01*
X146512945Y-39614839D01*
X146728015Y-39688672D01*
X146952305Y-39726100D01*
X146952306Y-39726100D01*
X147179694Y-39726100D01*
X147179695Y-39726100D01*
X147403985Y-39688672D01*
X147619055Y-39614839D01*
X147778230Y-39528697D01*
X147819032Y-39506616D01*
X147819033Y-39506614D01*
X147819039Y-39506612D01*
X147998483Y-39366946D01*
X148152490Y-39199649D01*
X148232191Y-39077656D01*
X148285337Y-39032300D01*
X148354568Y-39022876D01*
X148417904Y-39052378D01*
X148439809Y-39077657D01*
X148519505Y-39199643D01*
X148519507Y-39199645D01*
X148519510Y-39199649D01*
X148673517Y-39366946D01*
X148673521Y-39366949D01*
X148673524Y-39366952D01*
X148852952Y-39506606D01*
X148852967Y-39506616D01*
X149040306Y-39607999D01*
X149052945Y-39614839D01*
X149268015Y-39688672D01*
X149381988Y-39707691D01*
X149444873Y-39738142D01*
X149472519Y-39783370D01*
X149491953Y-39754580D01*
X149556146Y-39726995D01*
X149571022Y-39726100D01*
X149719694Y-39726100D01*
X149719695Y-39726100D01*
X149943985Y-39688672D01*
X150159055Y-39614839D01*
X150318230Y-39528697D01*
X150359032Y-39506616D01*
X150359033Y-39506614D01*
X150359039Y-39506612D01*
X150538483Y-39366946D01*
X150692490Y-39199649D01*
X150772191Y-39077656D01*
X150825337Y-39032300D01*
X150894568Y-39022876D01*
X150957904Y-39052378D01*
X150979809Y-39077657D01*
X151059505Y-39199643D01*
X151059507Y-39199645D01*
X151059510Y-39199649D01*
X151213517Y-39366946D01*
X151213521Y-39366949D01*
X151213524Y-39366952D01*
X151392952Y-39506606D01*
X151392967Y-39506616D01*
X151580306Y-39607999D01*
X151592945Y-39614839D01*
X151808015Y-39688672D01*
X152032305Y-39726100D01*
X152032306Y-39726100D01*
X152259694Y-39726100D01*
X152259695Y-39726100D01*
X152483985Y-39688672D01*
X152699055Y-39614839D01*
X152858230Y-39528697D01*
X152899032Y-39506616D01*
X152899033Y-39506614D01*
X152899039Y-39506612D01*
X153078483Y-39366946D01*
X153232490Y-39199649D01*
X153312191Y-39077656D01*
X153365337Y-39032300D01*
X153434568Y-39022876D01*
X153497904Y-39052378D01*
X153519809Y-39077657D01*
X153599505Y-39199643D01*
X153599507Y-39199645D01*
X153599510Y-39199649D01*
X153753517Y-39366946D01*
X153753521Y-39366949D01*
X153753524Y-39366952D01*
X153932952Y-39506606D01*
X153932967Y-39506616D01*
X154120306Y-39607999D01*
X154132945Y-39614839D01*
X154348015Y-39688672D01*
X154572305Y-39726100D01*
X154572306Y-39726100D01*
X154799694Y-39726100D01*
X154799695Y-39726100D01*
X155023985Y-39688672D01*
X155239055Y-39614839D01*
X155398230Y-39528697D01*
X155439032Y-39506616D01*
X155439033Y-39506614D01*
X155439039Y-39506612D01*
X155618483Y-39366946D01*
X155772490Y-39199649D01*
X155852191Y-39077656D01*
X155905337Y-39032300D01*
X155974568Y-39022876D01*
X156037904Y-39052378D01*
X156059809Y-39077657D01*
X156139505Y-39199643D01*
X156139507Y-39199645D01*
X156139510Y-39199649D01*
X156293517Y-39366946D01*
X156293521Y-39366949D01*
X156293524Y-39366952D01*
X156472952Y-39506606D01*
X156472967Y-39506616D01*
X156660306Y-39607999D01*
X156672945Y-39614839D01*
X156888015Y-39688672D01*
X157112305Y-39726100D01*
X157112306Y-39726100D01*
X157339694Y-39726100D01*
X157339695Y-39726100D01*
X157563985Y-39688672D01*
X157779055Y-39614839D01*
X157938230Y-39528697D01*
X157979032Y-39506616D01*
X157979033Y-39506614D01*
X157979039Y-39506612D01*
X158158483Y-39366946D01*
X158312490Y-39199649D01*
X158392191Y-39077656D01*
X158445337Y-39032300D01*
X158514568Y-39022876D01*
X158577904Y-39052378D01*
X158599809Y-39077657D01*
X158679505Y-39199643D01*
X158679507Y-39199645D01*
X158679510Y-39199649D01*
X158833517Y-39366946D01*
X158833521Y-39366949D01*
X158833524Y-39366952D01*
X159012952Y-39506606D01*
X159012967Y-39506616D01*
X159200306Y-39607999D01*
X159212945Y-39614839D01*
X159266310Y-39633159D01*
X159343912Y-39659800D01*
X159400928Y-39700185D01*
X159427059Y-39764985D01*
X159414008Y-39833625D01*
X159391331Y-39864762D01*
X158523914Y-40732181D01*
X158462591Y-40765666D01*
X158436233Y-40768500D01*
X158071629Y-40768500D01*
X158055886Y-40766761D01*
X158055861Y-40767033D01*
X158048093Y-40766298D01*
X157978060Y-40768500D01*
X157948142Y-40768500D01*
X157941136Y-40769384D01*
X157935318Y-40769842D01*
X157888111Y-40771326D01*
X157888108Y-40771327D01*
X157868505Y-40777022D01*
X157849459Y-40780966D01*
X157829203Y-40783526D01*
X157829201Y-40783526D01*
X157785292Y-40800910D01*
X157779768Y-40802801D01*
X157734404Y-40815982D01*
X157734403Y-40815983D01*
X157716824Y-40826378D01*
X157699364Y-40834932D01*
X157680384Y-40842447D01*
X157680381Y-40842449D01*
X157642182Y-40870201D01*
X157637300Y-40873409D01*
X157596638Y-40897456D01*
X157582196Y-40911898D01*
X157567408Y-40924527D01*
X157550897Y-40936523D01*
X157550892Y-40936528D01*
X157520790Y-40972914D01*
X157516858Y-40977236D01*
X156075179Y-42418914D01*
X156062820Y-42428818D01*
X156062993Y-42429027D01*
X156056983Y-42433999D01*
X156009016Y-42485078D01*
X155987872Y-42506222D01*
X155987857Y-42506239D01*
X155983531Y-42511814D01*
X155979747Y-42516244D01*
X155947419Y-42550671D01*
X155947412Y-42550681D01*
X155937579Y-42568567D01*
X155926903Y-42584820D01*
X155914386Y-42600957D01*
X155914385Y-42600959D01*
X155895625Y-42644310D01*
X155893055Y-42649556D01*
X155870303Y-42690941D01*
X155870303Y-42690942D01*
X155865225Y-42710720D01*
X155858925Y-42729122D01*
X155850818Y-42747857D01*
X155843431Y-42794495D01*
X155842246Y-42800216D01*
X155830500Y-42845965D01*
X155830500Y-42866384D01*
X155828973Y-42885783D01*
X155825780Y-42905941D01*
X155825780Y-42905942D01*
X155830225Y-42952966D01*
X155830500Y-42958804D01*
X155830500Y-44620366D01*
X155828761Y-44636113D01*
X155829032Y-44636139D01*
X155828298Y-44643905D01*
X155830500Y-44713957D01*
X155830500Y-44743859D01*
X155831384Y-44750856D01*
X155831842Y-44756679D01*
X155833326Y-44803889D01*
X155833327Y-44803891D01*
X155839022Y-44823495D01*
X155842967Y-44842542D01*
X155845526Y-44862797D01*
X155845527Y-44862800D01*
X155845528Y-44862803D01*
X155862914Y-44906716D01*
X155864806Y-44912244D01*
X155877981Y-44957592D01*
X155888372Y-44975162D01*
X155896932Y-44992635D01*
X155904447Y-45011617D01*
X155932209Y-45049827D01*
X155935416Y-45054710D01*
X155959458Y-45095362D01*
X155959462Y-45095366D01*
X155973889Y-45109793D01*
X155986526Y-45124588D01*
X155998528Y-45141107D01*
X156034931Y-45171222D01*
X156039231Y-45175135D01*
X156189305Y-45325209D01*
X156339181Y-45475085D01*
X156372666Y-45536408D01*
X156375500Y-45562766D01*
X156375500Y-46624537D01*
X156375501Y-46624553D01*
X156386113Y-46728427D01*
X156413565Y-46811273D01*
X156441885Y-46896738D01*
X156534970Y-47047652D01*
X156660348Y-47173030D01*
X156811262Y-47266115D01*
X156979574Y-47321887D01*
X157083455Y-47332500D01*
X158384544Y-47332499D01*
X158488426Y-47321887D01*
X158656738Y-47266115D01*
X158807652Y-47173030D01*
X158933030Y-47047652D01*
X159026115Y-46896738D01*
X159026246Y-46896342D01*
X159026406Y-46896110D01*
X159029165Y-46890195D01*
X159030175Y-46890666D01*
X159066011Y-46838898D01*
X159130524Y-46812069D01*
X159199301Y-46824378D01*
X159235181Y-46851355D01*
X159350760Y-46976906D01*
X159350761Y-46976907D01*
X159363654Y-46986942D01*
X159528424Y-47115189D01*
X159528425Y-47115189D01*
X159528427Y-47115191D01*
X159588314Y-47147600D01*
X159726426Y-47222342D01*
X159939365Y-47295444D01*
X160161431Y-47332500D01*
X160386569Y-47332500D01*
X160608635Y-47295444D01*
X160821574Y-47222342D01*
X161019576Y-47115189D01*
X161197240Y-46976906D01*
X161324287Y-46838898D01*
X161349715Y-46811276D01*
X161349715Y-46811275D01*
X161349722Y-46811268D01*
X161440193Y-46672790D01*
X161493338Y-46627437D01*
X161562569Y-46618013D01*
X161625905Y-46647515D01*
X161647804Y-46672787D01*
X161738278Y-46811268D01*
X161738283Y-46811273D01*
X161738284Y-46811276D01*
X161890756Y-46976902D01*
X161890760Y-46976906D01*
X162068424Y-47115189D01*
X162068426Y-47115190D01*
X162068433Y-47115195D01*
X162115516Y-47140674D01*
X162165107Y-47189892D01*
X162180500Y-47249729D01*
X162180500Y-61130366D01*
X162178761Y-61146113D01*
X162179032Y-61146139D01*
X162178298Y-61153905D01*
X162178298Y-61153908D01*
X162178298Y-61153909D01*
X162180187Y-61213994D01*
X162180500Y-61223957D01*
X162180500Y-61253859D01*
X162181384Y-61260856D01*
X162181842Y-61266679D01*
X162183326Y-61313889D01*
X162183327Y-61313891D01*
X162189022Y-61333495D01*
X162192967Y-61352542D01*
X162195526Y-61372797D01*
X162195527Y-61372800D01*
X162195528Y-61372803D01*
X162212914Y-61416716D01*
X162214806Y-61422244D01*
X162227981Y-61467592D01*
X162238372Y-61485162D01*
X162246932Y-61502635D01*
X162254447Y-61521617D01*
X162282209Y-61559827D01*
X162285416Y-61564710D01*
X162309458Y-61605362D01*
X162309462Y-61605366D01*
X162323889Y-61619793D01*
X162336526Y-61634588D01*
X162348528Y-61651107D01*
X162384931Y-61681222D01*
X162389231Y-61685135D01*
X164011048Y-63306952D01*
X165295815Y-64591719D01*
X165329300Y-64653042D01*
X165324316Y-64722734D01*
X165282444Y-64778667D01*
X165216980Y-64803084D01*
X165208134Y-64803400D01*
X165096000Y-64803400D01*
X165096000Y-65722702D01*
X164990592Y-65674565D01*
X164882334Y-65659000D01*
X164809666Y-65659000D01*
X164701408Y-65674565D01*
X164596000Y-65722702D01*
X164596000Y-64803400D01*
X163934555Y-64803400D01*
X163875027Y-64809801D01*
X163875020Y-64809803D01*
X163740313Y-64860045D01*
X163740306Y-64860049D01*
X163625212Y-64946209D01*
X163625209Y-64946212D01*
X163539049Y-65061306D01*
X163539046Y-65061312D01*
X163498359Y-65170398D01*
X163456487Y-65226331D01*
X163391023Y-65250748D01*
X163322750Y-65235896D01*
X163290951Y-65211050D01*
X163238483Y-65154054D01*
X163238478Y-65154050D01*
X163238475Y-65154047D01*
X163059047Y-65014393D01*
X163059032Y-65014383D01*
X162859065Y-64906166D01*
X162859051Y-64906159D01*
X162643987Y-64832328D01*
X162468738Y-64803084D01*
X162419695Y-64794900D01*
X162192305Y-64794900D01*
X162143262Y-64803084D01*
X161968012Y-64832328D01*
X161752948Y-64906159D01*
X161752934Y-64906166D01*
X161552967Y-65014383D01*
X161552952Y-65014393D01*
X161373524Y-65154047D01*
X161373514Y-65154057D01*
X161219507Y-65321354D01*
X161139809Y-65443343D01*
X161086662Y-65488699D01*
X161017431Y-65498123D01*
X160954095Y-65468621D01*
X160932191Y-65443343D01*
X160852492Y-65321354D01*
X160852491Y-65321353D01*
X160852490Y-65321351D01*
X160698483Y-65154054D01*
X160698478Y-65154050D01*
X160698475Y-65154047D01*
X160519047Y-65014393D01*
X160519032Y-65014383D01*
X160319065Y-64906166D01*
X160319051Y-64906159D01*
X160103987Y-64832328D01*
X159928738Y-64803084D01*
X159879695Y-64794900D01*
X159652305Y-64794900D01*
X159603262Y-64803084D01*
X159428012Y-64832328D01*
X159212948Y-64906159D01*
X159212934Y-64906166D01*
X159012967Y-65014383D01*
X159012952Y-65014393D01*
X158833524Y-65154047D01*
X158833514Y-65154057D01*
X158679507Y-65321354D01*
X158555137Y-65511718D01*
X158463797Y-65719952D01*
X158407975Y-65940389D01*
X158389198Y-66166994D01*
X158389198Y-66167005D01*
X158407975Y-66393610D01*
X158463797Y-66614047D01*
X158519504Y-66741047D01*
X158555139Y-66822285D01*
X158679510Y-67012649D01*
X158833517Y-67179946D01*
X158833521Y-67179949D01*
X158833524Y-67179952D01*
X159012952Y-67319606D01*
X159012963Y-67319613D01*
X159028360Y-67327946D01*
X159077950Y-67377166D01*
X159093057Y-67445383D01*
X159068886Y-67510938D01*
X159028360Y-67546054D01*
X159012963Y-67554386D01*
X159012952Y-67554393D01*
X158833524Y-67694047D01*
X158833514Y-67694057D01*
X158679507Y-67861354D01*
X158555137Y-68051718D01*
X158463797Y-68259952D01*
X158407975Y-68480389D01*
X158389198Y-68706994D01*
X158389198Y-68707005D01*
X158407975Y-68933610D01*
X158463797Y-69154047D01*
X158519504Y-69281047D01*
X158555139Y-69362285D01*
X158679510Y-69552649D01*
X158833517Y-69719946D01*
X158833521Y-69719949D01*
X158833524Y-69719952D01*
X159012952Y-69859606D01*
X159012967Y-69859616D01*
X159201175Y-69961469D01*
X159212945Y-69967839D01*
X159428015Y-70041672D01*
X159652305Y-70079100D01*
X159652306Y-70079100D01*
X159879694Y-70079100D01*
X159879695Y-70079100D01*
X160103985Y-70041672D01*
X160319055Y-69967839D01*
X160519039Y-69859612D01*
X160535313Y-69846946D01*
X160698475Y-69719952D01*
X160698483Y-69719946D01*
X160852490Y-69552649D01*
X160932191Y-69430656D01*
X160985337Y-69385300D01*
X161054568Y-69375876D01*
X161117904Y-69405378D01*
X161139809Y-69430657D01*
X161219505Y-69552643D01*
X161219507Y-69552645D01*
X161219510Y-69552649D01*
X161373517Y-69719946D01*
X161373521Y-69719949D01*
X161373524Y-69719952D01*
X161552952Y-69859606D01*
X161552967Y-69859616D01*
X161741175Y-69961469D01*
X161752945Y-69967839D01*
X161968015Y-70041672D01*
X162192305Y-70079100D01*
X162192306Y-70079100D01*
X162419694Y-70079100D01*
X162419695Y-70079100D01*
X162643985Y-70041672D01*
X162859055Y-69967839D01*
X163059039Y-69859612D01*
X163075313Y-69846946D01*
X163238475Y-69719952D01*
X163238483Y-69719946D01*
X163392490Y-69552649D01*
X163472191Y-69430656D01*
X163525337Y-69385300D01*
X163594568Y-69375876D01*
X163657904Y-69405378D01*
X163679809Y-69430657D01*
X163759505Y-69552643D01*
X163759507Y-69552645D01*
X163759510Y-69552649D01*
X163913517Y-69719946D01*
X163913521Y-69719949D01*
X163913524Y-69719952D01*
X164092952Y-69859606D01*
X164092967Y-69859616D01*
X164281175Y-69961469D01*
X164292945Y-69967839D01*
X164508015Y-70041672D01*
X164732305Y-70079100D01*
X164732306Y-70079100D01*
X164959694Y-70079100D01*
X164959695Y-70079100D01*
X165183985Y-70041672D01*
X165399055Y-69967839D01*
X165599039Y-69859612D01*
X165615313Y-69846946D01*
X165778475Y-69719952D01*
X165778483Y-69719946D01*
X165932490Y-69552649D01*
X166056861Y-69362285D01*
X166148203Y-69154047D01*
X166204024Y-68933614D01*
X166222802Y-68707000D01*
X166204024Y-68480386D01*
X166148203Y-68259953D01*
X166056861Y-68051715D01*
X165932490Y-67861351D01*
X165796846Y-67714002D01*
X165765926Y-67651350D01*
X165773786Y-67581924D01*
X165817934Y-67527769D01*
X165844746Y-67513840D01*
X165951684Y-67473955D01*
X165951693Y-67473950D01*
X166066787Y-67387790D01*
X166066790Y-67387787D01*
X166152950Y-67272693D01*
X166152954Y-67272686D01*
X166203196Y-67137979D01*
X166203198Y-67137972D01*
X166209599Y-67078444D01*
X166209600Y-67078427D01*
X166209600Y-66417000D01*
X165289196Y-66417000D01*
X165312845Y-66380201D01*
X165354000Y-66240039D01*
X165354000Y-66093961D01*
X165312845Y-65953799D01*
X165289196Y-65917000D01*
X166209599Y-65917000D01*
X166209599Y-65804866D01*
X166229283Y-65737826D01*
X166282087Y-65692071D01*
X166351245Y-65682127D01*
X166414801Y-65711152D01*
X166421280Y-65717184D01*
X182626910Y-81922814D01*
X182636816Y-81935178D01*
X182637026Y-81935005D01*
X182642001Y-81941019D01*
X182693095Y-81989000D01*
X182714224Y-82010129D01*
X182714228Y-82010132D01*
X182714231Y-82010135D01*
X182719805Y-82014458D01*
X182724247Y-82018252D01*
X182758679Y-82050586D01*
X182758683Y-82050589D01*
X182776563Y-82060418D01*
X182792827Y-82071101D01*
X182808960Y-82083614D01*
X182852301Y-82102369D01*
X182857550Y-82104941D01*
X182877627Y-82115978D01*
X182898940Y-82127695D01*
X182918718Y-82132773D01*
X182937119Y-82139073D01*
X182955855Y-82147181D01*
X183000362Y-82154229D01*
X183002503Y-82154569D01*
X183008212Y-82155751D01*
X183053970Y-82167500D01*
X183074384Y-82167500D01*
X183093783Y-82169027D01*
X183113943Y-82172220D01*
X183160965Y-82167775D01*
X183166804Y-82167500D01*
X186413800Y-82167500D01*
X186480839Y-82187185D01*
X186517609Y-82223678D01*
X186619510Y-82379649D01*
X186773517Y-82546946D01*
X186773521Y-82546949D01*
X186773524Y-82546952D01*
X186952952Y-82686606D01*
X186952967Y-82686616D01*
X187033252Y-82730064D01*
X187152945Y-82794839D01*
X187368015Y-82868672D01*
X187592305Y-82906100D01*
X187592306Y-82906100D01*
X187819694Y-82906100D01*
X187819695Y-82906100D01*
X188043985Y-82868672D01*
X188259055Y-82794839D01*
X188406100Y-82715261D01*
X188459032Y-82686616D01*
X188459033Y-82686614D01*
X188459039Y-82686612D01*
X188638483Y-82546946D01*
X188792490Y-82379649D01*
X188916861Y-82189285D01*
X189008203Y-81981047D01*
X189064024Y-81760614D01*
X189082802Y-81534000D01*
X189064024Y-81307386D01*
X189008203Y-81086953D01*
X188916861Y-80878715D01*
X188792490Y-80688351D01*
X188638483Y-80521054D01*
X188638478Y-80521050D01*
X188638475Y-80521047D01*
X188459047Y-80381393D01*
X188459036Y-80381386D01*
X188443637Y-80373052D01*
X188394048Y-80323831D01*
X188378942Y-80255614D01*
X188403115Y-80190059D01*
X188443641Y-80154944D01*
X188459039Y-80146612D01*
X188638483Y-80006946D01*
X188792490Y-79839649D01*
X188916861Y-79649285D01*
X189008203Y-79441047D01*
X189064024Y-79220614D01*
X189082802Y-78994000D01*
X189064024Y-78767386D01*
X189008203Y-78546953D01*
X188916861Y-78338715D01*
X188792490Y-78148351D01*
X188638483Y-77981054D01*
X188638478Y-77981050D01*
X188638475Y-77981047D01*
X188459047Y-77841393D01*
X188459037Y-77841386D01*
X188443641Y-77833055D01*
X188394050Y-77783836D01*
X188378941Y-77715620D01*
X188403112Y-77650064D01*
X188443641Y-77614945D01*
X188459037Y-77606613D01*
X188459036Y-77606613D01*
X188459039Y-77606612D01*
X188638483Y-77466946D01*
X188792490Y-77299649D01*
X188916861Y-77109285D01*
X189008203Y-76901047D01*
X189064024Y-76680614D01*
X189082802Y-76454000D01*
X189064024Y-76227386D01*
X189008203Y-76006953D01*
X188916861Y-75798715D01*
X188792490Y-75608351D01*
X188638483Y-75441054D01*
X188638478Y-75441050D01*
X188638475Y-75441047D01*
X188459047Y-75301393D01*
X188459037Y-75301386D01*
X188443641Y-75293055D01*
X188394050Y-75243836D01*
X188378941Y-75175620D01*
X188403112Y-75110064D01*
X188443641Y-75074945D01*
X188459037Y-75066613D01*
X188459036Y-75066613D01*
X188459039Y-75066612D01*
X188638483Y-74926946D01*
X188792490Y-74759649D01*
X188916861Y-74569285D01*
X189008203Y-74361047D01*
X189064024Y-74140614D01*
X189082802Y-73914000D01*
X189064024Y-73687386D01*
X189008203Y-73466953D01*
X188916861Y-73258715D01*
X188792490Y-73068351D01*
X188638483Y-72901054D01*
X188638478Y-72901050D01*
X188638475Y-72901047D01*
X188459047Y-72761393D01*
X188459037Y-72761386D01*
X188443641Y-72753055D01*
X188394050Y-72703836D01*
X188378941Y-72635620D01*
X188403112Y-72570064D01*
X188443641Y-72534945D01*
X188459037Y-72526613D01*
X188459036Y-72526613D01*
X188459039Y-72526612D01*
X188638483Y-72386946D01*
X188792490Y-72219649D01*
X188916861Y-72029285D01*
X189008203Y-71821047D01*
X189064024Y-71600614D01*
X189082802Y-71374000D01*
X189064024Y-71147386D01*
X189008203Y-70926953D01*
X188916861Y-70718715D01*
X188792490Y-70528351D01*
X188638483Y-70361054D01*
X188638478Y-70361050D01*
X188638475Y-70361047D01*
X188459047Y-70221393D01*
X188459037Y-70221386D01*
X188443641Y-70213055D01*
X188394050Y-70163836D01*
X188378941Y-70095620D01*
X188403112Y-70030064D01*
X188443641Y-69994945D01*
X188459039Y-69986612D01*
X188483158Y-69967840D01*
X188622204Y-69859616D01*
X188638483Y-69846946D01*
X188792490Y-69679649D01*
X188916861Y-69489285D01*
X189008203Y-69281047D01*
X189064024Y-69060614D01*
X189082802Y-68834000D01*
X189064024Y-68607386D01*
X189008203Y-68386953D01*
X188916861Y-68178715D01*
X188792490Y-67988351D01*
X188638483Y-67821054D01*
X188638478Y-67821050D01*
X188638475Y-67821047D01*
X188459047Y-67681393D01*
X188459037Y-67681386D01*
X188443641Y-67673055D01*
X188394050Y-67623836D01*
X188378941Y-67555620D01*
X188403112Y-67490064D01*
X188443641Y-67454945D01*
X188459037Y-67446613D01*
X188459036Y-67446613D01*
X188459039Y-67446612D01*
X188459619Y-67446161D01*
X188622208Y-67319613D01*
X188638483Y-67306946D01*
X188792490Y-67139649D01*
X188916861Y-66949285D01*
X189008203Y-66741047D01*
X189064024Y-66520614D01*
X189082802Y-66294000D01*
X189064024Y-66067386D01*
X189008203Y-65846953D01*
X188916861Y-65638715D01*
X188792490Y-65448351D01*
X188638483Y-65281054D01*
X188638478Y-65281050D01*
X188638475Y-65281047D01*
X188459047Y-65141393D01*
X188459037Y-65141386D01*
X188443641Y-65133055D01*
X188394050Y-65083836D01*
X188378941Y-65015620D01*
X188403112Y-64950064D01*
X188443641Y-64914945D01*
X188448876Y-64912112D01*
X188459039Y-64906612D01*
X188459619Y-64906161D01*
X188583420Y-64809803D01*
X188638483Y-64766946D01*
X188792490Y-64599649D01*
X188916861Y-64409285D01*
X189008203Y-64201047D01*
X189064024Y-63980614D01*
X189082802Y-63754000D01*
X189064024Y-63527386D01*
X189008203Y-63306953D01*
X188916861Y-63098715D01*
X188792490Y-62908351D01*
X188638483Y-62741054D01*
X188638478Y-62741050D01*
X188638475Y-62741047D01*
X188459047Y-62601393D01*
X188459032Y-62601383D01*
X188259065Y-62493166D01*
X188259051Y-62493159D01*
X188043987Y-62419328D01*
X187894458Y-62394375D01*
X187819695Y-62381900D01*
X187592305Y-62381900D01*
X187536232Y-62391257D01*
X187368012Y-62419328D01*
X187152948Y-62493159D01*
X187152934Y-62493166D01*
X186952967Y-62601383D01*
X186952952Y-62601393D01*
X186773524Y-62741047D01*
X186773514Y-62741057D01*
X186619507Y-62908354D01*
X186495137Y-63098718D01*
X186403797Y-63306952D01*
X186347975Y-63527389D01*
X186329198Y-63753994D01*
X186329198Y-63754005D01*
X186347975Y-63980610D01*
X186347975Y-63980613D01*
X186347976Y-63980614D01*
X186403797Y-64201047D01*
X186495139Y-64409285D01*
X186565656Y-64517220D01*
X186594243Y-64560976D01*
X186619510Y-64599649D01*
X186773517Y-64766946D01*
X186773521Y-64766949D01*
X186773524Y-64766952D01*
X186952952Y-64906606D01*
X186952959Y-64906610D01*
X186952961Y-64906612D01*
X186955616Y-64908049D01*
X186968360Y-64914946D01*
X187017950Y-64964166D01*
X187033057Y-65032383D01*
X187008886Y-65097938D01*
X186968360Y-65133054D01*
X186952963Y-65141386D01*
X186952952Y-65141393D01*
X186773524Y-65281047D01*
X186773514Y-65281057D01*
X186619507Y-65448354D01*
X186495137Y-65638718D01*
X186403797Y-65846952D01*
X186347975Y-66067389D01*
X186329198Y-66293994D01*
X186329198Y-66294005D01*
X186347975Y-66520610D01*
X186403797Y-66741047D01*
X186470488Y-66893088D01*
X186495139Y-66949285D01*
X186536533Y-67012643D01*
X186612281Y-67128585D01*
X186619510Y-67139649D01*
X186773517Y-67306946D01*
X186773521Y-67306949D01*
X186773524Y-67306952D01*
X186952952Y-67446606D01*
X186952963Y-67446613D01*
X186968360Y-67454946D01*
X187017950Y-67504166D01*
X187033057Y-67572383D01*
X187008886Y-67637938D01*
X186968360Y-67673054D01*
X186952963Y-67681386D01*
X186952952Y-67681393D01*
X186773524Y-67821047D01*
X186773514Y-67821057D01*
X186619507Y-67988354D01*
X186495137Y-68178718D01*
X186403797Y-68386952D01*
X186347975Y-68607389D01*
X186329198Y-68833994D01*
X186329198Y-68834005D01*
X186347975Y-69060610D01*
X186347975Y-69060613D01*
X186347976Y-69060614D01*
X186403797Y-69281047D01*
X186495139Y-69489285D01*
X186619510Y-69679649D01*
X186773517Y-69846946D01*
X186773521Y-69846949D01*
X186773524Y-69846952D01*
X186952952Y-69986606D01*
X186952963Y-69986613D01*
X186968360Y-69994946D01*
X187017950Y-70044166D01*
X187033057Y-70112383D01*
X187008886Y-70177938D01*
X186968360Y-70213054D01*
X186952963Y-70221386D01*
X186952952Y-70221393D01*
X186773524Y-70361047D01*
X186773514Y-70361057D01*
X186619507Y-70528354D01*
X186517609Y-70684322D01*
X186464462Y-70729678D01*
X186413800Y-70740500D01*
X178367766Y-70740500D01*
X178300727Y-70720815D01*
X178280085Y-70704181D01*
X173937668Y-66361763D01*
X180771787Y-66361763D01*
X180801413Y-66631013D01*
X180801415Y-66631024D01*
X180869292Y-66890657D01*
X180869928Y-66893088D01*
X180975870Y-67142390D01*
X181084028Y-67319613D01*
X181116979Y-67373605D01*
X181116986Y-67373615D01*
X181290253Y-67581819D01*
X181290259Y-67581824D01*
X181401380Y-67681388D01*
X181491998Y-67762582D01*
X181717910Y-67912044D01*
X181963176Y-68027020D01*
X181963183Y-68027022D01*
X181963185Y-68027023D01*
X182222557Y-68105057D01*
X182222564Y-68105058D01*
X182222569Y-68105060D01*
X182490561Y-68144500D01*
X182490566Y-68144500D01*
X182693636Y-68144500D01*
X182745133Y-68140730D01*
X182896156Y-68129677D01*
X183008758Y-68104593D01*
X183160546Y-68070782D01*
X183160548Y-68070781D01*
X183160553Y-68070780D01*
X183413558Y-67974014D01*
X183649777Y-67841441D01*
X183864177Y-67675888D01*
X184052186Y-67480881D01*
X184209799Y-67260579D01*
X184297982Y-67089061D01*
X184333649Y-67019690D01*
X184333651Y-67019684D01*
X184333656Y-67019675D01*
X184421118Y-66763305D01*
X184470319Y-66496933D01*
X184480212Y-66226235D01*
X184450586Y-65956982D01*
X184382072Y-65694912D01*
X184276130Y-65445610D01*
X184135018Y-65214390D01*
X184084806Y-65154054D01*
X183961746Y-65006180D01*
X183961740Y-65006175D01*
X183760002Y-64825418D01*
X183534092Y-64675957D01*
X183485210Y-64653042D01*
X183288824Y-64560980D01*
X183288819Y-64560978D01*
X183288814Y-64560976D01*
X183029442Y-64482942D01*
X183029428Y-64482939D01*
X182913791Y-64465921D01*
X182761439Y-64443500D01*
X182558369Y-64443500D01*
X182558364Y-64443500D01*
X182355844Y-64458323D01*
X182355831Y-64458325D01*
X182091453Y-64517217D01*
X182091446Y-64517220D01*
X181838439Y-64613987D01*
X181602226Y-64746557D01*
X181602224Y-64746558D01*
X181602223Y-64746559D01*
X181539893Y-64794688D01*
X181387822Y-64912112D01*
X181199822Y-65107109D01*
X181199816Y-65107116D01*
X181042202Y-65327419D01*
X181042199Y-65327424D01*
X180918350Y-65568309D01*
X180918343Y-65568327D01*
X180830884Y-65824685D01*
X180830881Y-65824699D01*
X180781681Y-66091068D01*
X180781680Y-66091075D01*
X180771787Y-66361763D01*
X173937668Y-66361763D01*
X173389819Y-65813914D01*
X173356334Y-65752591D01*
X173353500Y-65726233D01*
X173353500Y-58754001D01*
X179628502Y-58754001D01*
X179648456Y-58982081D01*
X179648457Y-58982089D01*
X179707714Y-59203238D01*
X179707718Y-59203249D01*
X179766488Y-59329281D01*
X179804477Y-59410749D01*
X179935802Y-59598300D01*
X180097700Y-59760198D01*
X180285251Y-59891523D01*
X180378130Y-59934833D01*
X180492750Y-59988281D01*
X180492752Y-59988281D01*
X180492757Y-59988284D01*
X180713913Y-60047543D01*
X180876832Y-60061796D01*
X180941998Y-60067498D01*
X180942000Y-60067498D01*
X180942002Y-60067498D01*
X180999021Y-60062509D01*
X181170087Y-60047543D01*
X181391243Y-59988284D01*
X181598749Y-59891523D01*
X181786300Y-59760198D01*
X181948198Y-59598300D01*
X182079523Y-59410749D01*
X182099617Y-59367655D01*
X182145790Y-59315215D01*
X182212983Y-59296063D01*
X182279864Y-59316278D01*
X182324382Y-59367655D01*
X182344477Y-59410749D01*
X182475802Y-59598300D01*
X182637700Y-59760198D01*
X182825251Y-59891523D01*
X182918130Y-59934833D01*
X183032750Y-59988281D01*
X183032752Y-59988281D01*
X183032757Y-59988284D01*
X183253913Y-60047543D01*
X183416832Y-60061796D01*
X183481998Y-60067498D01*
X183482000Y-60067498D01*
X183482002Y-60067498D01*
X183539021Y-60062509D01*
X183710087Y-60047543D01*
X183931243Y-59988284D01*
X184138749Y-59891523D01*
X184326300Y-59760198D01*
X184488198Y-59598300D01*
X184619523Y-59410749D01*
X184716284Y-59203243D01*
X184775543Y-58982087D01*
X184795498Y-58754000D01*
X184788499Y-58674005D01*
X186329198Y-58674005D01*
X186347975Y-58900610D01*
X186403797Y-59121047D01*
X186489433Y-59316278D01*
X186495139Y-59329285D01*
X186619510Y-59519649D01*
X186773517Y-59686946D01*
X186773521Y-59686949D01*
X186773524Y-59686952D01*
X186952952Y-59826606D01*
X186952967Y-59826616D01*
X187141175Y-59928469D01*
X187152945Y-59934839D01*
X187368015Y-60008672D01*
X187592305Y-60046100D01*
X187592306Y-60046100D01*
X187819694Y-60046100D01*
X187819695Y-60046100D01*
X188043985Y-60008672D01*
X188259055Y-59934839D01*
X188406100Y-59855261D01*
X188459032Y-59826616D01*
X188459033Y-59826614D01*
X188459039Y-59826612D01*
X188638483Y-59686946D01*
X188792490Y-59519649D01*
X188916861Y-59329285D01*
X189008203Y-59121047D01*
X189064024Y-58900614D01*
X189082802Y-58674000D01*
X189064024Y-58447386D01*
X189008203Y-58226953D01*
X188916861Y-58018715D01*
X188792490Y-57828351D01*
X188638483Y-57661054D01*
X188638478Y-57661050D01*
X188638475Y-57661047D01*
X188459047Y-57521393D01*
X188459036Y-57521386D01*
X188443637Y-57513052D01*
X188394048Y-57463831D01*
X188378942Y-57395614D01*
X188403115Y-57330059D01*
X188443641Y-57294944D01*
X188459039Y-57286612D01*
X188638483Y-57146946D01*
X188792490Y-56979649D01*
X188916861Y-56789285D01*
X189008203Y-56581047D01*
X189064024Y-56360614D01*
X189082802Y-56134000D01*
X189064024Y-55907386D01*
X189008203Y-55686953D01*
X188916861Y-55478715D01*
X188792490Y-55288351D01*
X188638483Y-55121054D01*
X188638478Y-55121050D01*
X188638475Y-55121047D01*
X188459047Y-54981393D01*
X188459036Y-54981386D01*
X188443637Y-54973052D01*
X188394048Y-54923831D01*
X188378942Y-54855614D01*
X188403115Y-54790059D01*
X188443641Y-54754944D01*
X188459039Y-54746612D01*
X188490281Y-54722296D01*
X188548760Y-54676778D01*
X188638483Y-54606946D01*
X188792490Y-54439649D01*
X188916861Y-54249285D01*
X189008203Y-54041047D01*
X189064024Y-53820614D01*
X189082802Y-53594000D01*
X189064024Y-53367386D01*
X189008203Y-53146953D01*
X188916861Y-52938715D01*
X188792490Y-52748351D01*
X188638483Y-52581054D01*
X188638478Y-52581050D01*
X188638475Y-52581047D01*
X188459047Y-52441393D01*
X188459036Y-52441386D01*
X188443637Y-52433052D01*
X188394048Y-52383831D01*
X188378942Y-52315614D01*
X188403115Y-52250059D01*
X188443641Y-52214944D01*
X188459039Y-52206612D01*
X188462546Y-52203883D01*
X188564998Y-52124141D01*
X188638483Y-52066946D01*
X188792490Y-51899649D01*
X188916861Y-51709285D01*
X189008203Y-51501047D01*
X189064024Y-51280614D01*
X189082802Y-51054000D01*
X189064024Y-50827386D01*
X189008203Y-50606953D01*
X188916861Y-50398715D01*
X188792490Y-50208351D01*
X188638483Y-50041054D01*
X188638478Y-50041050D01*
X188638475Y-50041047D01*
X188459047Y-49901393D01*
X188459036Y-49901386D01*
X188443637Y-49893052D01*
X188394048Y-49843831D01*
X188378942Y-49775614D01*
X188403115Y-49710059D01*
X188443641Y-49674944D01*
X188459039Y-49666612D01*
X188638483Y-49526946D01*
X188792490Y-49359649D01*
X188916861Y-49169285D01*
X189008203Y-48961047D01*
X189064024Y-48740614D01*
X189082802Y-48514000D01*
X189064024Y-48287386D01*
X189008203Y-48066953D01*
X188916861Y-47858715D01*
X188792490Y-47668351D01*
X188638483Y-47501054D01*
X188638478Y-47501050D01*
X188638475Y-47501047D01*
X188459047Y-47361393D01*
X188459036Y-47361386D01*
X188443637Y-47353052D01*
X188394048Y-47303831D01*
X188378942Y-47235614D01*
X188403115Y-47170059D01*
X188443641Y-47134944D01*
X188459039Y-47126612D01*
X188473716Y-47115189D01*
X188638475Y-46986952D01*
X188638483Y-46986946D01*
X188792490Y-46819649D01*
X188916861Y-46629285D01*
X189008203Y-46421047D01*
X189064024Y-46200614D01*
X189082802Y-45974000D01*
X189064024Y-45747386D01*
X189008203Y-45526953D01*
X188916861Y-45318715D01*
X188792490Y-45128351D01*
X188638483Y-44961054D01*
X188638478Y-44961050D01*
X188638475Y-44961047D01*
X188459047Y-44821393D01*
X188459036Y-44821386D01*
X188443637Y-44813052D01*
X188394048Y-44763831D01*
X188378942Y-44695614D01*
X188403115Y-44630059D01*
X188443641Y-44594944D01*
X188459039Y-44586612D01*
X188470671Y-44577559D01*
X188638475Y-44446952D01*
X188638483Y-44446946D01*
X188792490Y-44279649D01*
X188916861Y-44089285D01*
X189008203Y-43881047D01*
X189064024Y-43660614D01*
X189082802Y-43434000D01*
X189064024Y-43207386D01*
X189008203Y-42986953D01*
X188916861Y-42778715D01*
X188792490Y-42588351D01*
X188638483Y-42421054D01*
X188638478Y-42421050D01*
X188638475Y-42421047D01*
X188459047Y-42281393D01*
X188459036Y-42281386D01*
X188443637Y-42273052D01*
X188394048Y-42223831D01*
X188378942Y-42155614D01*
X188403115Y-42090059D01*
X188443641Y-42054944D01*
X188459039Y-42046612D01*
X188638483Y-41906946D01*
X188792490Y-41739649D01*
X188916861Y-41549285D01*
X189008203Y-41341047D01*
X189064024Y-41120614D01*
X189082802Y-40894000D01*
X189064024Y-40667386D01*
X189008203Y-40446953D01*
X188916861Y-40238715D01*
X188792490Y-40048351D01*
X188638483Y-39881054D01*
X188638478Y-39881050D01*
X188638475Y-39881047D01*
X188459047Y-39741393D01*
X188459032Y-39741383D01*
X188259065Y-39633166D01*
X188259051Y-39633159D01*
X188043987Y-39559328D01*
X187894458Y-39534376D01*
X187819695Y-39521900D01*
X187592305Y-39521900D01*
X187536232Y-39531257D01*
X187368012Y-39559328D01*
X187152948Y-39633159D01*
X187152934Y-39633166D01*
X186952967Y-39741383D01*
X186952952Y-39741393D01*
X186773524Y-39881047D01*
X186773514Y-39881057D01*
X186619507Y-40048354D01*
X186495137Y-40238718D01*
X186403797Y-40446952D01*
X186347975Y-40667389D01*
X186329198Y-40893994D01*
X186329198Y-40894005D01*
X186347975Y-41120610D01*
X186403797Y-41341047D01*
X186453342Y-41453999D01*
X186495139Y-41549285D01*
X186515301Y-41580145D01*
X186611272Y-41727041D01*
X186619510Y-41739649D01*
X186773517Y-41906946D01*
X186773521Y-41906949D01*
X186773524Y-41906952D01*
X186952952Y-42046606D01*
X186952962Y-42046613D01*
X186960639Y-42050767D01*
X186968356Y-42054943D01*
X187017948Y-42104161D01*
X187033058Y-42172377D01*
X187008889Y-42237933D01*
X186968364Y-42273051D01*
X186952963Y-42281386D01*
X186952952Y-42281393D01*
X186773524Y-42421047D01*
X186773514Y-42421057D01*
X186619507Y-42588354D01*
X186495137Y-42778718D01*
X186403797Y-42986952D01*
X186347975Y-43207389D01*
X186329198Y-43433994D01*
X186329198Y-43434005D01*
X186347975Y-43660610D01*
X186403797Y-43881047D01*
X186490194Y-44078013D01*
X186495139Y-44089285D01*
X186571416Y-44206036D01*
X186614039Y-44271276D01*
X186619510Y-44279649D01*
X186773517Y-44446946D01*
X186773521Y-44446949D01*
X186773524Y-44446952D01*
X186952952Y-44586606D01*
X186952963Y-44586613D01*
X186968360Y-44594946D01*
X187017950Y-44644166D01*
X187033057Y-44712383D01*
X187008886Y-44777938D01*
X186968360Y-44813054D01*
X186952963Y-44821386D01*
X186952952Y-44821393D01*
X186773524Y-44961047D01*
X186773514Y-44961057D01*
X186619507Y-45128354D01*
X186495137Y-45318718D01*
X186403797Y-45526952D01*
X186347975Y-45747389D01*
X186329198Y-45973994D01*
X186329198Y-45974005D01*
X186347975Y-46200610D01*
X186403797Y-46421047D01*
X186490194Y-46618013D01*
X186495139Y-46629285D01*
X186560824Y-46729824D01*
X186614557Y-46812069D01*
X186619510Y-46819649D01*
X186773517Y-46986946D01*
X186773521Y-46986949D01*
X186773524Y-46986952D01*
X186952952Y-47126606D01*
X186952963Y-47126613D01*
X186968360Y-47134946D01*
X187017950Y-47184166D01*
X187033057Y-47252383D01*
X187008886Y-47317938D01*
X186968360Y-47353054D01*
X186952963Y-47361386D01*
X186952952Y-47361393D01*
X186773524Y-47501047D01*
X186773514Y-47501057D01*
X186619507Y-47668354D01*
X186495137Y-47858718D01*
X186403797Y-48066952D01*
X186347975Y-48287389D01*
X186329198Y-48513994D01*
X186329198Y-48514005D01*
X186347975Y-48740610D01*
X186403797Y-48961047D01*
X186456788Y-49081855D01*
X186495139Y-49169285D01*
X186619510Y-49359649D01*
X186773517Y-49526946D01*
X186773521Y-49526949D01*
X186773524Y-49526952D01*
X186952952Y-49666606D01*
X186952963Y-49666613D01*
X186968360Y-49674946D01*
X187017950Y-49724166D01*
X187033057Y-49792383D01*
X187008886Y-49857938D01*
X186968360Y-49893054D01*
X186952963Y-49901386D01*
X186952952Y-49901393D01*
X186773524Y-50041047D01*
X186773514Y-50041057D01*
X186619507Y-50208354D01*
X186495137Y-50398718D01*
X186403797Y-50606952D01*
X186347975Y-50827389D01*
X186329198Y-51053994D01*
X186329198Y-51054005D01*
X186347975Y-51280610D01*
X186347975Y-51280613D01*
X186347976Y-51280614D01*
X186403797Y-51501047D01*
X186495139Y-51709285D01*
X186548361Y-51790747D01*
X186611276Y-51887047D01*
X186619510Y-51899649D01*
X186773517Y-52066946D01*
X186773521Y-52066949D01*
X186773524Y-52066952D01*
X186952952Y-52206606D01*
X186952962Y-52206613D01*
X186960821Y-52210865D01*
X186968356Y-52214943D01*
X187017948Y-52264161D01*
X187033058Y-52332377D01*
X187008889Y-52397933D01*
X186968364Y-52433051D01*
X186952963Y-52441386D01*
X186952952Y-52441393D01*
X186773524Y-52581047D01*
X186773514Y-52581057D01*
X186619507Y-52748354D01*
X186495137Y-52938718D01*
X186403797Y-53146952D01*
X186347975Y-53367389D01*
X186329198Y-53593994D01*
X186329198Y-53594005D01*
X186347975Y-53820610D01*
X186347975Y-53820613D01*
X186347976Y-53820614D01*
X186403797Y-54041047D01*
X186495139Y-54249285D01*
X186564859Y-54356000D01*
X186608824Y-54423294D01*
X186619510Y-54439649D01*
X186773517Y-54606946D01*
X186773521Y-54606949D01*
X186773524Y-54606952D01*
X186952952Y-54746606D01*
X186952963Y-54746613D01*
X186968360Y-54754946D01*
X187017950Y-54804166D01*
X187033057Y-54872383D01*
X187008886Y-54937938D01*
X186968360Y-54973054D01*
X186952963Y-54981386D01*
X186952952Y-54981393D01*
X186773524Y-55121047D01*
X186773514Y-55121057D01*
X186619507Y-55288354D01*
X186495137Y-55478718D01*
X186403797Y-55686952D01*
X186347975Y-55907389D01*
X186329198Y-56133994D01*
X186329198Y-56134005D01*
X186347975Y-56360610D01*
X186347975Y-56360613D01*
X186347976Y-56360614D01*
X186403797Y-56581047D01*
X186495139Y-56789285D01*
X186564858Y-56895998D01*
X186611826Y-56967889D01*
X186619510Y-56979649D01*
X186773517Y-57146946D01*
X186773521Y-57146949D01*
X186773524Y-57146952D01*
X186952952Y-57286606D01*
X186952962Y-57286613D01*
X186960821Y-57290865D01*
X186968356Y-57294943D01*
X187017948Y-57344161D01*
X187033058Y-57412377D01*
X187008889Y-57477933D01*
X186968364Y-57513051D01*
X186952963Y-57521386D01*
X186952952Y-57521393D01*
X186773524Y-57661047D01*
X186773514Y-57661057D01*
X186619507Y-57828354D01*
X186495137Y-58018718D01*
X186403797Y-58226952D01*
X186347975Y-58447389D01*
X186329198Y-58673994D01*
X186329198Y-58674005D01*
X184788499Y-58674005D01*
X184775543Y-58525913D01*
X184716284Y-58304757D01*
X184619523Y-58097251D01*
X184488198Y-57909700D01*
X184326300Y-57747802D01*
X184138749Y-57616477D01*
X184138745Y-57616475D01*
X183931249Y-57519718D01*
X183931238Y-57519714D01*
X183710089Y-57460457D01*
X183710081Y-57460456D01*
X183482002Y-57440502D01*
X183481998Y-57440502D01*
X183253918Y-57460456D01*
X183253910Y-57460457D01*
X183032761Y-57519714D01*
X183032750Y-57519718D01*
X182825254Y-57616475D01*
X182825252Y-57616476D01*
X182825249Y-57616477D01*
X182825251Y-57616477D01*
X182637700Y-57747802D01*
X182637698Y-57747803D01*
X182637695Y-57747806D01*
X182475806Y-57909695D01*
X182344476Y-58097251D01*
X182324382Y-58140345D01*
X182278209Y-58192784D01*
X182211016Y-58211936D01*
X182144135Y-58191720D01*
X182099618Y-58140345D01*
X182079523Y-58097251D01*
X181948198Y-57909700D01*
X181786300Y-57747802D01*
X181598749Y-57616477D01*
X181598745Y-57616475D01*
X181391249Y-57519718D01*
X181391238Y-57519714D01*
X181170089Y-57460457D01*
X181170081Y-57460456D01*
X180942002Y-57440502D01*
X180941998Y-57440502D01*
X180713918Y-57460456D01*
X180713910Y-57460457D01*
X180492761Y-57519714D01*
X180492750Y-57519718D01*
X180285254Y-57616475D01*
X180285252Y-57616476D01*
X180285249Y-57616477D01*
X180285251Y-57616477D01*
X180097700Y-57747802D01*
X180097698Y-57747803D01*
X180097695Y-57747806D01*
X179935806Y-57909695D01*
X179804476Y-58097252D01*
X179804475Y-58097254D01*
X179707718Y-58304750D01*
X179707714Y-58304761D01*
X179648457Y-58525910D01*
X179648456Y-58525918D01*
X179628502Y-58753998D01*
X179628502Y-58754001D01*
X173353500Y-58754001D01*
X173353500Y-54816009D01*
X173373185Y-54748970D01*
X173425989Y-54703215D01*
X173495147Y-54693271D01*
X173558703Y-54722296D01*
X173586332Y-54756582D01*
X173647191Y-54868038D01*
X173647196Y-54868046D01*
X173753882Y-55010561D01*
X173753883Y-55010562D01*
X174649195Y-54115250D01*
X174671340Y-54166587D01*
X174777433Y-54309094D01*
X174913530Y-54423294D01*
X175003216Y-54468335D01*
X174107436Y-55364115D01*
X174249960Y-55470807D01*
X174249961Y-55470808D01*
X174501042Y-55607908D01*
X174501041Y-55607908D01*
X174769104Y-55707890D01*
X175048637Y-55768699D01*
X175333999Y-55789109D01*
X175334001Y-55789109D01*
X175619362Y-55768699D01*
X175898895Y-55707890D01*
X176166958Y-55607908D01*
X176418047Y-55470803D01*
X176560561Y-55364116D01*
X176560562Y-55364115D01*
X175667748Y-54471300D01*
X175677409Y-54467784D01*
X175825844Y-54370157D01*
X175947764Y-54240930D01*
X176019768Y-54116215D01*
X176914115Y-55010562D01*
X176914116Y-55010561D01*
X177020803Y-54868047D01*
X177157908Y-54616958D01*
X177257890Y-54348895D01*
X177318699Y-54069362D01*
X177339109Y-53784001D01*
X177339109Y-53783998D01*
X177318699Y-53498637D01*
X177257890Y-53219104D01*
X177157908Y-52951041D01*
X177020808Y-52699961D01*
X177020807Y-52699960D01*
X176914115Y-52557436D01*
X176018803Y-53452747D01*
X175996660Y-53401413D01*
X175890567Y-53258906D01*
X175754470Y-53144706D01*
X175664781Y-53099663D01*
X176560562Y-52203883D01*
X176560561Y-52203882D01*
X176418046Y-52097196D01*
X176418038Y-52097191D01*
X176166957Y-51960091D01*
X176166958Y-51960091D01*
X175898895Y-51860109D01*
X175619362Y-51799300D01*
X175334001Y-51778891D01*
X175333999Y-51778891D01*
X175048637Y-51799300D01*
X174769104Y-51860109D01*
X174501041Y-51960091D01*
X174249961Y-52097191D01*
X174249953Y-52097196D01*
X174107436Y-52203882D01*
X174107436Y-52203883D01*
X175000251Y-53096699D01*
X174990591Y-53100216D01*
X174842156Y-53197843D01*
X174720236Y-53327070D01*
X174648231Y-53451784D01*
X173753883Y-52557436D01*
X173753882Y-52557437D01*
X173647196Y-52699953D01*
X173647195Y-52699955D01*
X173586331Y-52811418D01*
X173536925Y-52860823D01*
X173468652Y-52875674D01*
X173403188Y-52851257D01*
X173361317Y-52795323D01*
X173353500Y-52751995D01*
X173353500Y-51134001D01*
X179628502Y-51134001D01*
X179648456Y-51362081D01*
X179648457Y-51362089D01*
X179707714Y-51583238D01*
X179707718Y-51583249D01*
X179800402Y-51782011D01*
X179804477Y-51790749D01*
X179935802Y-51978300D01*
X180097700Y-52140198D01*
X180285251Y-52271523D01*
X180340445Y-52297260D01*
X180492750Y-52368281D01*
X180492752Y-52368281D01*
X180492757Y-52368284D01*
X180713913Y-52427543D01*
X180876832Y-52441796D01*
X180941998Y-52447498D01*
X180942000Y-52447498D01*
X180942002Y-52447498D01*
X180999139Y-52442499D01*
X181170087Y-52427543D01*
X181391243Y-52368284D01*
X181598749Y-52271523D01*
X181786300Y-52140198D01*
X181948198Y-51978300D01*
X181953566Y-51970632D01*
X182008139Y-51927008D01*
X182077637Y-51919813D01*
X182139993Y-51951333D01*
X182175409Y-52011562D01*
X182178430Y-52028498D01*
X182180011Y-52043202D01*
X182180011Y-52043204D01*
X182229094Y-52174797D01*
X182231111Y-52180204D01*
X182318739Y-52297261D01*
X182435796Y-52384889D01*
X182550152Y-52427542D01*
X182564924Y-52433052D01*
X182572799Y-52435989D01*
X182600050Y-52438918D01*
X182633345Y-52442499D01*
X182633362Y-52442500D01*
X184330638Y-52442500D01*
X184330654Y-52442499D01*
X184357692Y-52439591D01*
X184391201Y-52435989D01*
X184528204Y-52384889D01*
X184645261Y-52297261D01*
X184732889Y-52180204D01*
X184783989Y-52043201D01*
X184789008Y-51996516D01*
X184790499Y-51982654D01*
X184790500Y-51982637D01*
X184790500Y-50285362D01*
X184790499Y-50285345D01*
X184787157Y-50254270D01*
X184783989Y-50224799D01*
X184777855Y-50208354D01*
X184747812Y-50127806D01*
X184732889Y-50087796D01*
X184645261Y-49970739D01*
X184528204Y-49883111D01*
X184528203Y-49883111D01*
X184391203Y-49832011D01*
X184330654Y-49825500D01*
X184330638Y-49825500D01*
X182633362Y-49825500D01*
X182633345Y-49825500D01*
X182572797Y-49832011D01*
X182572795Y-49832011D01*
X182435795Y-49883111D01*
X182318739Y-49970739D01*
X182231111Y-50087795D01*
X182180011Y-50224795D01*
X182180011Y-50224797D01*
X182178430Y-50239501D01*
X182151691Y-50304052D01*
X182094298Y-50343899D01*
X182024473Y-50346392D01*
X181964384Y-50310738D01*
X181953574Y-50297379D01*
X181948198Y-50289700D01*
X181786300Y-50127802D01*
X181598749Y-49996477D01*
X181598745Y-49996475D01*
X181391249Y-49899718D01*
X181391238Y-49899714D01*
X181170089Y-49840457D01*
X181170081Y-49840456D01*
X180942002Y-49820502D01*
X180941998Y-49820502D01*
X180713918Y-49840456D01*
X180713910Y-49840457D01*
X180492761Y-49899714D01*
X180492750Y-49899718D01*
X180285254Y-49996475D01*
X180285252Y-49996476D01*
X180285249Y-49996477D01*
X180285251Y-49996477D01*
X180097700Y-50127802D01*
X180097698Y-50127803D01*
X180097695Y-50127806D01*
X179935806Y-50289695D01*
X179935803Y-50289698D01*
X179935802Y-50289700D01*
X179896106Y-50346392D01*
X179804476Y-50477252D01*
X179804475Y-50477254D01*
X179707718Y-50684750D01*
X179707714Y-50684761D01*
X179648457Y-50905910D01*
X179648456Y-50905918D01*
X179628502Y-51133998D01*
X179628502Y-51134001D01*
X173353500Y-51134001D01*
X173353500Y-47368575D01*
X173373185Y-47301536D01*
X173425989Y-47255781D01*
X173437217Y-47251301D01*
X173521574Y-47222342D01*
X173719576Y-47115189D01*
X173897240Y-46976906D01*
X174024287Y-46838898D01*
X174049715Y-46811276D01*
X174049715Y-46811275D01*
X174049722Y-46811268D01*
X174140193Y-46672790D01*
X174193338Y-46627437D01*
X174262569Y-46618013D01*
X174325905Y-46647515D01*
X174347804Y-46672787D01*
X174438278Y-46811268D01*
X174438283Y-46811273D01*
X174438284Y-46811276D01*
X174590756Y-46976902D01*
X174590761Y-46976907D01*
X174603654Y-46986942D01*
X174768424Y-47115189D01*
X174768425Y-47115189D01*
X174768427Y-47115191D01*
X174828314Y-47147600D01*
X174966426Y-47222342D01*
X175179365Y-47295444D01*
X175401431Y-47332500D01*
X175626569Y-47332500D01*
X175848635Y-47295444D01*
X176061574Y-47222342D01*
X176259576Y-47115189D01*
X176437240Y-46976906D01*
X176564287Y-46838898D01*
X176589715Y-46811276D01*
X176589715Y-46811275D01*
X176589722Y-46811268D01*
X176680193Y-46672790D01*
X176733338Y-46627437D01*
X176802569Y-46618013D01*
X176865905Y-46647515D01*
X176887804Y-46672787D01*
X176978278Y-46811268D01*
X176978283Y-46811273D01*
X176978284Y-46811276D01*
X177130756Y-46976902D01*
X177130761Y-46976907D01*
X177143654Y-46986942D01*
X177308424Y-47115189D01*
X177308425Y-47115189D01*
X177308427Y-47115191D01*
X177368314Y-47147600D01*
X177506426Y-47222342D01*
X177719365Y-47295444D01*
X177941431Y-47332500D01*
X178166569Y-47332500D01*
X178388635Y-47295444D01*
X178601574Y-47222342D01*
X178799576Y-47115189D01*
X178977240Y-46976906D01*
X179104287Y-46838898D01*
X179129715Y-46811276D01*
X179129715Y-46811275D01*
X179129722Y-46811268D01*
X179223749Y-46667347D01*
X179276894Y-46621994D01*
X179346125Y-46612570D01*
X179409461Y-46642072D01*
X179429131Y-46664049D01*
X179479072Y-46735373D01*
X179479073Y-46735373D01*
X180110923Y-46103523D01*
X180134507Y-46183844D01*
X180212239Y-46304798D01*
X180320900Y-46398952D01*
X180451685Y-46458680D01*
X180461466Y-46460086D01*
X179832625Y-47088925D01*
X179916421Y-47147599D01*
X180130507Y-47247429D01*
X180130516Y-47247433D01*
X180358673Y-47308567D01*
X180358684Y-47308569D01*
X180593998Y-47329157D01*
X180594002Y-47329157D01*
X180829315Y-47308569D01*
X180829326Y-47308567D01*
X181057483Y-47247433D01*
X181057492Y-47247429D01*
X181271578Y-47147600D01*
X181271582Y-47147598D01*
X181355373Y-47088926D01*
X181355373Y-47088925D01*
X180726533Y-46460086D01*
X180736315Y-46458680D01*
X180867100Y-46398952D01*
X180975761Y-46304798D01*
X181053493Y-46183844D01*
X181077076Y-46103524D01*
X181708925Y-46735373D01*
X181708926Y-46735373D01*
X181767598Y-46651582D01*
X181767600Y-46651578D01*
X181867429Y-46437492D01*
X181867433Y-46437483D01*
X181928567Y-46209326D01*
X181928569Y-46209315D01*
X181949157Y-45974001D01*
X181949157Y-45973998D01*
X181928569Y-45738684D01*
X181928567Y-45738673D01*
X181867433Y-45510516D01*
X181867429Y-45510507D01*
X181767600Y-45296423D01*
X181767599Y-45296421D01*
X181708925Y-45212626D01*
X181708925Y-45212625D01*
X181077076Y-45844475D01*
X181053493Y-45764156D01*
X180975761Y-45643202D01*
X180867100Y-45549048D01*
X180736315Y-45489320D01*
X180726532Y-45487913D01*
X181355373Y-44859073D01*
X181355373Y-44859072D01*
X181284199Y-44809236D01*
X181240574Y-44754659D01*
X181233380Y-44685161D01*
X181264903Y-44622806D01*
X181296305Y-44598606D01*
X181303077Y-44594941D01*
X181339576Y-44575189D01*
X181517240Y-44436906D01*
X181662007Y-44279649D01*
X181669715Y-44271276D01*
X181669717Y-44271273D01*
X181669722Y-44271268D01*
X181792860Y-44082791D01*
X181883296Y-43876616D01*
X181938564Y-43658368D01*
X181955679Y-43451824D01*
X181957156Y-43434005D01*
X181957156Y-43433994D01*
X181938565Y-43209640D01*
X181938563Y-43209628D01*
X181883296Y-42991385D01*
X181845817Y-42905941D01*
X181792860Y-42785209D01*
X181788619Y-42778718D01*
X181722932Y-42678176D01*
X181669722Y-42596732D01*
X181669719Y-42596729D01*
X181669715Y-42596723D01*
X181517243Y-42431097D01*
X181517238Y-42431092D01*
X181398797Y-42338905D01*
X181339576Y-42292811D01*
X181339575Y-42292810D01*
X181339572Y-42292808D01*
X181141580Y-42185661D01*
X181141577Y-42185659D01*
X181141574Y-42185658D01*
X181141571Y-42185657D01*
X181141569Y-42185656D01*
X180928637Y-42112556D01*
X180706569Y-42075500D01*
X180481431Y-42075500D01*
X180259359Y-42112556D01*
X180255120Y-42113630D01*
X180185299Y-42110999D01*
X180137008Y-42081103D01*
X177920667Y-39864762D01*
X177887182Y-39803439D01*
X177892166Y-39733747D01*
X177934038Y-39677814D01*
X177968078Y-39659802D01*
X178099055Y-39614839D01*
X178258230Y-39528697D01*
X178299032Y-39506616D01*
X178299033Y-39506614D01*
X178299039Y-39506612D01*
X178478483Y-39366946D01*
X178632490Y-39199649D01*
X178712191Y-39077656D01*
X178765337Y-39032300D01*
X178834568Y-39022876D01*
X178897904Y-39052378D01*
X178919809Y-39077657D01*
X178999505Y-39199643D01*
X178999507Y-39199645D01*
X178999510Y-39199649D01*
X179153517Y-39366946D01*
X179153521Y-39366949D01*
X179153524Y-39366952D01*
X179332952Y-39506606D01*
X179332967Y-39506616D01*
X179520306Y-39607999D01*
X179532945Y-39614839D01*
X179748015Y-39688672D01*
X179972305Y-39726100D01*
X179972306Y-39726100D01*
X180199694Y-39726100D01*
X180199695Y-39726100D01*
X180423985Y-39688672D01*
X180639055Y-39614839D01*
X180798230Y-39528697D01*
X180839032Y-39506616D01*
X180839033Y-39506614D01*
X180839039Y-39506612D01*
X181018483Y-39366946D01*
X181070949Y-39309952D01*
X181130834Y-39273962D01*
X181200672Y-39276061D01*
X181258289Y-39315585D01*
X181278360Y-39350602D01*
X181319045Y-39459686D01*
X181319049Y-39459693D01*
X181405209Y-39574787D01*
X181405212Y-39574790D01*
X181520306Y-39660950D01*
X181520313Y-39660954D01*
X181655020Y-39711196D01*
X181655027Y-39711198D01*
X181714555Y-39717599D01*
X181714572Y-39717600D01*
X182376000Y-39717600D01*
X182376000Y-38798297D01*
X182481408Y-38846435D01*
X182589666Y-38862000D01*
X182662334Y-38862000D01*
X182770592Y-38846435D01*
X182876000Y-38798297D01*
X182876000Y-39717600D01*
X183537428Y-39717600D01*
X183537444Y-39717599D01*
X183596972Y-39711198D01*
X183596979Y-39711196D01*
X183731686Y-39660954D01*
X183731693Y-39660950D01*
X183846787Y-39574790D01*
X183846790Y-39574787D01*
X183932950Y-39459693D01*
X183932954Y-39459686D01*
X183983196Y-39324979D01*
X183983198Y-39324972D01*
X183989599Y-39265444D01*
X183989600Y-39265427D01*
X183989600Y-38604000D01*
X183069196Y-38604000D01*
X183092845Y-38567201D01*
X183134000Y-38427039D01*
X183134000Y-38280961D01*
X183092845Y-38140799D01*
X183069196Y-38104000D01*
X183989600Y-38104000D01*
X183989600Y-37442572D01*
X183989599Y-37442555D01*
X183983198Y-37383027D01*
X183983196Y-37383020D01*
X183932954Y-37248313D01*
X183932952Y-37248310D01*
X183865579Y-37158312D01*
X183841161Y-37092848D01*
X183856012Y-37024574D01*
X183865579Y-37009688D01*
X183932952Y-36919689D01*
X183932954Y-36919686D01*
X183983196Y-36784979D01*
X183983198Y-36784972D01*
X183989599Y-36725444D01*
X183989600Y-36725427D01*
X183989600Y-36064000D01*
X183069196Y-36064000D01*
X183092845Y-36027201D01*
X183134000Y-35887039D01*
X183134000Y-35881763D01*
X185851787Y-35881763D01*
X185881413Y-36151013D01*
X185881415Y-36151024D01*
X185929372Y-36334462D01*
X185949928Y-36413088D01*
X186055870Y-36662390D01*
X186156301Y-36826952D01*
X186196979Y-36893605D01*
X186196986Y-36893615D01*
X186370253Y-37101819D01*
X186370259Y-37101824D01*
X186481380Y-37201388D01*
X186571998Y-37282582D01*
X186797910Y-37432044D01*
X187043176Y-37547020D01*
X187043183Y-37547022D01*
X187043185Y-37547023D01*
X187302557Y-37625057D01*
X187302564Y-37625058D01*
X187302569Y-37625060D01*
X187570561Y-37664500D01*
X187570566Y-37664500D01*
X187773636Y-37664500D01*
X187825133Y-37660730D01*
X187976156Y-37649677D01*
X188088758Y-37624593D01*
X188240546Y-37590782D01*
X188240548Y-37590781D01*
X188240553Y-37590780D01*
X188493558Y-37494014D01*
X188729777Y-37361441D01*
X188944177Y-37195888D01*
X189132186Y-37000881D01*
X189289799Y-36780579D01*
X189363787Y-36636669D01*
X189413649Y-36539690D01*
X189413651Y-36539684D01*
X189413656Y-36539675D01*
X189501118Y-36283305D01*
X189550319Y-36016933D01*
X189560212Y-35746235D01*
X189530586Y-35476982D01*
X189462072Y-35214912D01*
X189356130Y-34965610D01*
X189215018Y-34734390D01*
X189154266Y-34661388D01*
X189041746Y-34526180D01*
X189041740Y-34526175D01*
X188840002Y-34345418D01*
X188614092Y-34195957D01*
X188614090Y-34195956D01*
X188368824Y-34080980D01*
X188368819Y-34080978D01*
X188368814Y-34080976D01*
X188109442Y-34002942D01*
X188109428Y-34002939D01*
X187993791Y-33985921D01*
X187841439Y-33963500D01*
X187638369Y-33963500D01*
X187638364Y-33963500D01*
X187435844Y-33978323D01*
X187435831Y-33978325D01*
X187171453Y-34037217D01*
X187171446Y-34037220D01*
X186918439Y-34133987D01*
X186682226Y-34266557D01*
X186467822Y-34432112D01*
X186279822Y-34627109D01*
X186279816Y-34627116D01*
X186122202Y-34847419D01*
X186122199Y-34847424D01*
X185998350Y-35088309D01*
X185998343Y-35088327D01*
X185910884Y-35344685D01*
X185910881Y-35344699D01*
X185861681Y-35611068D01*
X185861680Y-35611075D01*
X185851787Y-35881763D01*
X183134000Y-35881763D01*
X183134000Y-35740961D01*
X183092845Y-35600799D01*
X183069196Y-35564000D01*
X183989600Y-35564000D01*
X183989600Y-34902572D01*
X183989599Y-34902555D01*
X183983198Y-34843027D01*
X183983196Y-34843020D01*
X183932954Y-34708313D01*
X183932950Y-34708306D01*
X183846790Y-34593212D01*
X183846787Y-34593209D01*
X183731693Y-34507049D01*
X183731686Y-34507045D01*
X183596979Y-34456803D01*
X183596972Y-34456801D01*
X183537444Y-34450400D01*
X182876000Y-34450400D01*
X182876000Y-35369702D01*
X182770592Y-35321565D01*
X182662334Y-35306000D01*
X182589666Y-35306000D01*
X182481408Y-35321565D01*
X182376000Y-35369702D01*
X182376000Y-34450400D01*
X181714555Y-34450400D01*
X181655027Y-34456801D01*
X181655020Y-34456803D01*
X181520313Y-34507045D01*
X181520306Y-34507049D01*
X181405212Y-34593209D01*
X181405209Y-34593212D01*
X181319049Y-34708306D01*
X181319046Y-34708312D01*
X181278359Y-34817398D01*
X181236487Y-34873331D01*
X181171023Y-34897748D01*
X181102750Y-34882896D01*
X181070951Y-34858050D01*
X181018483Y-34801054D01*
X181018478Y-34801050D01*
X181018475Y-34801047D01*
X180839047Y-34661393D01*
X180839032Y-34661383D01*
X180639065Y-34553166D01*
X180639051Y-34553159D01*
X180423987Y-34479328D01*
X180250632Y-34450400D01*
X180199695Y-34441900D01*
X179972305Y-34441900D01*
X179921368Y-34450400D01*
X179748012Y-34479328D01*
X179532948Y-34553159D01*
X179532934Y-34553166D01*
X179332967Y-34661383D01*
X179332952Y-34661393D01*
X179153524Y-34801047D01*
X179153514Y-34801057D01*
X178999507Y-34968354D01*
X178939705Y-35059889D01*
X178919810Y-35090342D01*
X178919809Y-35090343D01*
X178866662Y-35135699D01*
X178797431Y-35145123D01*
X178734095Y-35115621D01*
X178712191Y-35090343D01*
X178712190Y-35090342D01*
X178632490Y-34968351D01*
X178478483Y-34801054D01*
X178478478Y-34801050D01*
X178478475Y-34801047D01*
X178299047Y-34661393D01*
X178299032Y-34661383D01*
X178099065Y-34553166D01*
X178099051Y-34553159D01*
X177883987Y-34479328D01*
X177710632Y-34450400D01*
X177659695Y-34441900D01*
X177432305Y-34441900D01*
X177381368Y-34450400D01*
X177208012Y-34479328D01*
X176992948Y-34553159D01*
X176992934Y-34553166D01*
X176792967Y-34661383D01*
X176792952Y-34661393D01*
X176613524Y-34801047D01*
X176613514Y-34801057D01*
X176459507Y-34968354D01*
X176399705Y-35059889D01*
X176379810Y-35090342D01*
X176379809Y-35090343D01*
X176326662Y-35135699D01*
X176257431Y-35145123D01*
X176194095Y-35115621D01*
X176172191Y-35090343D01*
X176172190Y-35090342D01*
X176092490Y-34968351D01*
X175938483Y-34801054D01*
X175938478Y-34801050D01*
X175938475Y-34801047D01*
X175759047Y-34661393D01*
X175759032Y-34661383D01*
X175559065Y-34553166D01*
X175559051Y-34553159D01*
X175343987Y-34479328D01*
X175170632Y-34450400D01*
X175119695Y-34441900D01*
X174892305Y-34441900D01*
X174841368Y-34450400D01*
X174668012Y-34479328D01*
X174452948Y-34553159D01*
X174452934Y-34553166D01*
X174252967Y-34661383D01*
X174252952Y-34661393D01*
X174073524Y-34801047D01*
X174073514Y-34801057D01*
X173919507Y-34968354D01*
X173859705Y-35059889D01*
X173839810Y-35090342D01*
X173839809Y-35090343D01*
X173786662Y-35135699D01*
X173717431Y-35145123D01*
X173654095Y-35115621D01*
X173632191Y-35090343D01*
X173632190Y-35090342D01*
X173552490Y-34968351D01*
X173398483Y-34801054D01*
X173398478Y-34801050D01*
X173398475Y-34801047D01*
X173219047Y-34661393D01*
X173219032Y-34661383D01*
X173019065Y-34553166D01*
X173019051Y-34553159D01*
X172803987Y-34479328D01*
X172630632Y-34450400D01*
X172579695Y-34441900D01*
X172352305Y-34441900D01*
X172301368Y-34450400D01*
X172128012Y-34479328D01*
X171912948Y-34553159D01*
X171912934Y-34553166D01*
X171712967Y-34661383D01*
X171712952Y-34661393D01*
X171533524Y-34801047D01*
X171533517Y-34801054D01*
X171382034Y-34965610D01*
X171379504Y-34968358D01*
X171299807Y-35090343D01*
X171246661Y-35135700D01*
X171177429Y-35145123D01*
X171114094Y-35115621D01*
X171092191Y-35090343D01*
X171012495Y-34968358D01*
X171012494Y-34968356D01*
X171012491Y-34968353D01*
X171012490Y-34968351D01*
X170858483Y-34801054D01*
X170858478Y-34801050D01*
X170858475Y-34801047D01*
X170679047Y-34661393D01*
X170679032Y-34661383D01*
X170479065Y-34553166D01*
X170479051Y-34553159D01*
X170263987Y-34479328D01*
X170090632Y-34450400D01*
X170039695Y-34441900D01*
X169812305Y-34441900D01*
X169761368Y-34450400D01*
X169588012Y-34479328D01*
X169372948Y-34553159D01*
X169372934Y-34553166D01*
X169172967Y-34661383D01*
X169172952Y-34661393D01*
X168993524Y-34801047D01*
X168993514Y-34801057D01*
X168839507Y-34968354D01*
X168779705Y-35059889D01*
X168759810Y-35090342D01*
X168759809Y-35090343D01*
X168706662Y-35135699D01*
X168637431Y-35145123D01*
X168574095Y-35115621D01*
X168552191Y-35090343D01*
X168552190Y-35090342D01*
X168472490Y-34968351D01*
X168318483Y-34801054D01*
X168318478Y-34801050D01*
X168318475Y-34801047D01*
X168139047Y-34661393D01*
X168139032Y-34661383D01*
X167939065Y-34553166D01*
X167939051Y-34553159D01*
X167723987Y-34479328D01*
X167550632Y-34450400D01*
X167499695Y-34441900D01*
X167272305Y-34441900D01*
X167221368Y-34450400D01*
X167048012Y-34479328D01*
X166832948Y-34553159D01*
X166832934Y-34553166D01*
X166632967Y-34661383D01*
X166632952Y-34661393D01*
X166453524Y-34801047D01*
X166453514Y-34801057D01*
X166299507Y-34968354D01*
X166239705Y-35059889D01*
X166219810Y-35090342D01*
X166219809Y-35090343D01*
X166166662Y-35135699D01*
X166097431Y-35145123D01*
X166034095Y-35115621D01*
X166012191Y-35090343D01*
X166012190Y-35090342D01*
X165932490Y-34968351D01*
X165778483Y-34801054D01*
X165778478Y-34801050D01*
X165778475Y-34801047D01*
X165599047Y-34661393D01*
X165599032Y-34661383D01*
X165399065Y-34553166D01*
X165399051Y-34553159D01*
X165183987Y-34479328D01*
X165010632Y-34450400D01*
X164959695Y-34441900D01*
X164732305Y-34441900D01*
X164681368Y-34450400D01*
X164508012Y-34479328D01*
X164292948Y-34553159D01*
X164292934Y-34553166D01*
X164092967Y-34661383D01*
X164092952Y-34661393D01*
X163913524Y-34801047D01*
X163913514Y-34801057D01*
X163759507Y-34968354D01*
X163699705Y-35059889D01*
X163679810Y-35090342D01*
X163679809Y-35090343D01*
X163626662Y-35135699D01*
X163557431Y-35145123D01*
X163494095Y-35115621D01*
X163472191Y-35090343D01*
X163472190Y-35090342D01*
X163392490Y-34968351D01*
X163238483Y-34801054D01*
X163238478Y-34801050D01*
X163238475Y-34801047D01*
X163059047Y-34661393D01*
X163059032Y-34661383D01*
X162859065Y-34553166D01*
X162859051Y-34553159D01*
X162643987Y-34479328D01*
X162470632Y-34450400D01*
X162419695Y-34441900D01*
X162192305Y-34441900D01*
X162141368Y-34450400D01*
X161968012Y-34479328D01*
X161752948Y-34553159D01*
X161752934Y-34553166D01*
X161552967Y-34661383D01*
X161552952Y-34661393D01*
X161373524Y-34801047D01*
X161373514Y-34801057D01*
X161219507Y-34968354D01*
X161159705Y-35059889D01*
X161139810Y-35090342D01*
X161139809Y-35090343D01*
X161086662Y-35135699D01*
X161017431Y-35145123D01*
X160954095Y-35115621D01*
X160932191Y-35090343D01*
X160932190Y-35090342D01*
X160852490Y-34968351D01*
X160698483Y-34801054D01*
X160698478Y-34801050D01*
X160698475Y-34801047D01*
X160519047Y-34661393D01*
X160519032Y-34661383D01*
X160319065Y-34553166D01*
X160319051Y-34553159D01*
X160103987Y-34479328D01*
X159930632Y-34450400D01*
X159879695Y-34441900D01*
X159652305Y-34441900D01*
X159601368Y-34450400D01*
X159428012Y-34479328D01*
X159212948Y-34553159D01*
X159212934Y-34553166D01*
X159012967Y-34661383D01*
X159012952Y-34661393D01*
X158833524Y-34801047D01*
X158833514Y-34801057D01*
X158679507Y-34968354D01*
X158619705Y-35059889D01*
X158599810Y-35090342D01*
X158599809Y-35090343D01*
X158546662Y-35135699D01*
X158477431Y-35145123D01*
X158414095Y-35115621D01*
X158392191Y-35090343D01*
X158392190Y-35090342D01*
X158312490Y-34968351D01*
X158158483Y-34801054D01*
X158158478Y-34801050D01*
X158158475Y-34801047D01*
X157979047Y-34661393D01*
X157979032Y-34661383D01*
X157779065Y-34553166D01*
X157779051Y-34553159D01*
X157563987Y-34479328D01*
X157390632Y-34450400D01*
X157339695Y-34441900D01*
X157112305Y-34441900D01*
X157061368Y-34450400D01*
X156888012Y-34479328D01*
X156672948Y-34553159D01*
X156672934Y-34553166D01*
X156472967Y-34661383D01*
X156472952Y-34661393D01*
X156293524Y-34801047D01*
X156293517Y-34801054D01*
X156142034Y-34965610D01*
X156139504Y-34968358D01*
X156059807Y-35090343D01*
X156006661Y-35135700D01*
X155937429Y-35145123D01*
X155874094Y-35115621D01*
X155852191Y-35090343D01*
X155772495Y-34968358D01*
X155772494Y-34968356D01*
X155772491Y-34968353D01*
X155772490Y-34968351D01*
X155618483Y-34801054D01*
X155618478Y-34801050D01*
X155618475Y-34801047D01*
X155439047Y-34661393D01*
X155439032Y-34661383D01*
X155239065Y-34553166D01*
X155239051Y-34553159D01*
X155023987Y-34479328D01*
X154850632Y-34450400D01*
X154799695Y-34441900D01*
X154572305Y-34441900D01*
X154521368Y-34450400D01*
X154348012Y-34479328D01*
X154132948Y-34553159D01*
X154132934Y-34553166D01*
X153932967Y-34661383D01*
X153932952Y-34661393D01*
X153753524Y-34801047D01*
X153753514Y-34801057D01*
X153599507Y-34968354D01*
X153539705Y-35059889D01*
X153519810Y-35090342D01*
X153519809Y-35090343D01*
X153466662Y-35135699D01*
X153397431Y-35145123D01*
X153334095Y-35115621D01*
X153312191Y-35090343D01*
X153312190Y-35090342D01*
X153232490Y-34968351D01*
X153078483Y-34801054D01*
X153078478Y-34801050D01*
X153078475Y-34801047D01*
X152899047Y-34661393D01*
X152899032Y-34661383D01*
X152699065Y-34553166D01*
X152699051Y-34553159D01*
X152483987Y-34479328D01*
X152310632Y-34450400D01*
X152259695Y-34441900D01*
X152032305Y-34441900D01*
X151981368Y-34450400D01*
X151808012Y-34479328D01*
X151592948Y-34553159D01*
X151592934Y-34553166D01*
X151392967Y-34661383D01*
X151392952Y-34661393D01*
X151213524Y-34801047D01*
X151213514Y-34801057D01*
X151059507Y-34968354D01*
X150999705Y-35059889D01*
X150979810Y-35090342D01*
X150979809Y-35090343D01*
X150926662Y-35135699D01*
X150857431Y-35145123D01*
X150794095Y-35115621D01*
X150772191Y-35090343D01*
X150772190Y-35090342D01*
X150692490Y-34968351D01*
X150538483Y-34801054D01*
X150538478Y-34801050D01*
X150538475Y-34801047D01*
X150359047Y-34661393D01*
X150359032Y-34661383D01*
X150159065Y-34553166D01*
X150159051Y-34553159D01*
X149943987Y-34479328D01*
X149770632Y-34450400D01*
X149719695Y-34441900D01*
X149492305Y-34441900D01*
X149441368Y-34450400D01*
X149268012Y-34479328D01*
X149052948Y-34553159D01*
X149052934Y-34553166D01*
X148852967Y-34661383D01*
X148852952Y-34661393D01*
X148673524Y-34801047D01*
X148673514Y-34801057D01*
X148519507Y-34968354D01*
X148459705Y-35059889D01*
X148439810Y-35090342D01*
X148439809Y-35090343D01*
X148386662Y-35135699D01*
X148317431Y-35145123D01*
X148254095Y-35115621D01*
X148232191Y-35090343D01*
X148232190Y-35090342D01*
X148152490Y-34968351D01*
X147998483Y-34801054D01*
X147998478Y-34801050D01*
X147998475Y-34801047D01*
X147819047Y-34661393D01*
X147819032Y-34661383D01*
X147619065Y-34553166D01*
X147619051Y-34553159D01*
X147403987Y-34479328D01*
X147230632Y-34450400D01*
X147179695Y-34441900D01*
X146952305Y-34441900D01*
X146901368Y-34450400D01*
X146728012Y-34479328D01*
X146512948Y-34553159D01*
X146512934Y-34553166D01*
X146312967Y-34661383D01*
X146312952Y-34661393D01*
X146133524Y-34801047D01*
X146133514Y-34801057D01*
X145979507Y-34968354D01*
X145919705Y-35059889D01*
X145899810Y-35090342D01*
X145899809Y-35090343D01*
X145846662Y-35135699D01*
X145777431Y-35145123D01*
X145714095Y-35115621D01*
X145692191Y-35090343D01*
X145692190Y-35090342D01*
X145612490Y-34968351D01*
X145458483Y-34801054D01*
X145458478Y-34801050D01*
X145458475Y-34801047D01*
X145279047Y-34661393D01*
X145279032Y-34661383D01*
X145079065Y-34553166D01*
X145079051Y-34553159D01*
X144863987Y-34479328D01*
X144690632Y-34450400D01*
X144639695Y-34441900D01*
X144412305Y-34441900D01*
X144361368Y-34450400D01*
X144188012Y-34479328D01*
X143972948Y-34553159D01*
X143972934Y-34553166D01*
X143772967Y-34661383D01*
X143772952Y-34661393D01*
X143593524Y-34801047D01*
X143593514Y-34801057D01*
X143439507Y-34968354D01*
X143379705Y-35059889D01*
X143359810Y-35090342D01*
X143359809Y-35090343D01*
X143306662Y-35135699D01*
X143237431Y-35145123D01*
X143174095Y-35115621D01*
X143152191Y-35090343D01*
X143152190Y-35090342D01*
X143072490Y-34968351D01*
X142918483Y-34801054D01*
X142918478Y-34801050D01*
X142918475Y-34801047D01*
X142739047Y-34661393D01*
X142739032Y-34661383D01*
X142539065Y-34553166D01*
X142539051Y-34553159D01*
X142323987Y-34479328D01*
X142150632Y-34450400D01*
X142099695Y-34441900D01*
X141872305Y-34441900D01*
X141821368Y-34450400D01*
X141648012Y-34479328D01*
X141432948Y-34553159D01*
X141432934Y-34553166D01*
X141232967Y-34661383D01*
X141232952Y-34661393D01*
X141053524Y-34801047D01*
X141053514Y-34801057D01*
X140899507Y-34968354D01*
X140839705Y-35059889D01*
X140819810Y-35090342D01*
X140819809Y-35090343D01*
X140766662Y-35135699D01*
X140697431Y-35145123D01*
X140634095Y-35115621D01*
X140612191Y-35090343D01*
X140612190Y-35090342D01*
X140532490Y-34968351D01*
X140378483Y-34801054D01*
X140378478Y-34801050D01*
X140378475Y-34801047D01*
X140199047Y-34661393D01*
X140199032Y-34661383D01*
X139999065Y-34553166D01*
X139999051Y-34553159D01*
X139783987Y-34479328D01*
X139610632Y-34450400D01*
X139559695Y-34441900D01*
X139332305Y-34441900D01*
X139281368Y-34450400D01*
X139108012Y-34479328D01*
X138892948Y-34553159D01*
X138892934Y-34553166D01*
X138692967Y-34661383D01*
X138692952Y-34661393D01*
X138513524Y-34801047D01*
X138513514Y-34801057D01*
X138359507Y-34968354D01*
X138235137Y-35158718D01*
X138143797Y-35366952D01*
X138087975Y-35587389D01*
X138069198Y-35813994D01*
X138069198Y-35814005D01*
X138087975Y-36040610D01*
X138143797Y-36261047D01*
X138210488Y-36413088D01*
X138235139Y-36469285D01*
X138359510Y-36659649D01*
X138513517Y-36826946D01*
X138513521Y-36826949D01*
X138513524Y-36826952D01*
X138692952Y-36966606D01*
X138692962Y-36966613D01*
X138700821Y-36970865D01*
X138708356Y-36974943D01*
X138757948Y-37024161D01*
X138773058Y-37092377D01*
X138748889Y-37157933D01*
X138708364Y-37193051D01*
X138692963Y-37201386D01*
X138692952Y-37201393D01*
X138513524Y-37341047D01*
X138513514Y-37341057D01*
X138359507Y-37508354D01*
X138235137Y-37698718D01*
X138143797Y-37906952D01*
X138087975Y-38127389D01*
X138069198Y-38353994D01*
X138069198Y-38354005D01*
X135636500Y-38354005D01*
X135636500Y-34595569D01*
X135656185Y-34528530D01*
X135672819Y-34507888D01*
X138139888Y-32040819D01*
X138201211Y-32007334D01*
X138227569Y-32004500D01*
X149581145Y-32004500D01*
X149581334Y-32004538D01*
X149605997Y-32004540D01*
X149606000Y-32004542D01*
X149606284Y-32004424D01*
X149606427Y-32004365D01*
X149608653Y-32003465D01*
X149614831Y-31995934D01*
X149624147Y-31986618D01*
X149624260Y-31986446D01*
X152109888Y-29500818D01*
X152171211Y-29467334D01*
X152197569Y-29464500D01*
X186384430Y-29464500D01*
X186451469Y-29484185D01*
G37*
%TD.AperFunction*%
%TD*%
M02*
