%TF.GenerationSoftware,KiCad,Pcbnew,7.0.6*%
%TF.CreationDate,2023-09-19T13:45:42+08:00*%
%TF.ProjectId,ControlPanelPanelized,436f6e74-726f-46c5-9061-6e656c50616e,rev?*%
%TF.SameCoordinates,Original*%
%TF.FileFunction,Copper,L1,Top*%
%TF.FilePolarity,Positive*%
%FSLAX46Y46*%
G04 Gerber Fmt 4.6, Leading zero omitted, Abs format (unit mm)*
G04 Created by KiCad (PCBNEW 7.0.6) date 2023-09-19 13:45:42*
%MOMM*%
%LPD*%
G01*
G04 APERTURE LIST*
G04 Aperture macros list*
%AMRoundRect*
0 Rectangle with rounded corners*
0 $1 Rounding radius*
0 $2 $3 $4 $5 $6 $7 $8 $9 X,Y pos of 4 corners*
0 Add a 4 corners polygon primitive as box body*
4,1,4,$2,$3,$4,$5,$6,$7,$8,$9,$2,$3,0*
0 Add four circle primitives for the rounded corners*
1,1,$1+$1,$2,$3*
1,1,$1+$1,$4,$5*
1,1,$1+$1,$6,$7*
1,1,$1+$1,$8,$9*
0 Add four rect primitives between the rounded corners*
20,1,$1+$1,$2,$3,$4,$5,0*
20,1,$1+$1,$4,$5,$6,$7,0*
20,1,$1+$1,$6,$7,$8,$9,0*
20,1,$1+$1,$8,$9,$2,$3,0*%
%AMRotRect*
0 Rectangle, with rotation*
0 The origin of the aperture is its center*
0 $1 length*
0 $2 width*
0 $3 Rotation angle, in degrees counterclockwise*
0 Add horizontal line*
21,1,$1,$2,0,0,$3*%
G04 Aperture macros list end*
%TA.AperFunction,ComponentPad*%
%ADD10C,2.000000*%
%TD*%
%TA.AperFunction,ComponentPad*%
%ADD11C,1.600000*%
%TD*%
%TA.AperFunction,ComponentPad*%
%ADD12O,1.600000X1.600000*%
%TD*%
%TA.AperFunction,ComponentPad*%
%ADD13RotRect,3.000000X3.000000X45.000000*%
%TD*%
%TA.AperFunction,ComponentPad*%
%ADD14C,3.000000*%
%TD*%
%TA.AperFunction,ComponentPad*%
%ADD15RoundRect,0.250000X-0.600000X0.600000X-0.600000X-0.600000X0.600000X-0.600000X0.600000X0.600000X0*%
%TD*%
%TA.AperFunction,ComponentPad*%
%ADD16C,1.700000*%
%TD*%
%TA.AperFunction,ComponentPad*%
%ADD17RoundRect,0.250000X0.600000X-0.600000X0.600000X0.600000X-0.600000X0.600000X-0.600000X-0.600000X0*%
%TD*%
%TA.AperFunction,ComponentPad*%
%ADD18R,1.600000X1.600000*%
%TD*%
%TA.AperFunction,ComponentPad*%
%ADD19O,1.727200X1.727200*%
%TD*%
%TA.AperFunction,ComponentPad*%
%ADD20R,1.727200X1.727200*%
%TD*%
%TA.AperFunction,ComponentPad*%
%ADD21R,3.000000X3.000000*%
%TD*%
%TA.AperFunction,ComponentPad*%
%ADD22R,1.800000X1.800000*%
%TD*%
%TA.AperFunction,ComponentPad*%
%ADD23C,1.800000*%
%TD*%
%TA.AperFunction,ComponentPad*%
%ADD24C,1.400000*%
%TD*%
%TA.AperFunction,ComponentPad*%
%ADD25O,1.400000X1.400000*%
%TD*%
%TA.AperFunction,ComponentPad*%
%ADD26RoundRect,0.250000X0.600000X0.600000X-0.600000X0.600000X-0.600000X-0.600000X0.600000X-0.600000X0*%
%TD*%
%TA.AperFunction,Conductor*%
%ADD27C,0.250000*%
%TD*%
%TA.AperFunction,Conductor*%
%ADD28C,0.500000*%
%TD*%
%TA.AperFunction,Conductor*%
%ADD29C,0.750000*%
%TD*%
G04 APERTURE END LIST*
D10*
%TO.P,J8,1,Pin_1*%
%TO.N,N/C*%
X121867893Y-127360067D03*
%TD*%
%TO.P,J7,1,Pin_1*%
%TO.N,N/C*%
X124714902Y-122428902D03*
%TD*%
%TO.P,J1,1,Pin_1*%
%TO.N,N/C*%
X103464534Y-116734882D03*
%TD*%
%TO.P,J5,1,Pin_1*%
%TO.N,N/C*%
X121867892Y-111803717D03*
%TD*%
%TO.P,J13,1,Pin_1*%
%TO.N,N/C*%
X111261291Y-116753465D03*
%TD*%
%TO.P,J2,1,Pin_1*%
%TO.N,N/C*%
X106311542Y-111803718D03*
%TD*%
%TO.P,J11,1,Pin_1*%
%TO.N,N/C*%
X106311543Y-127360068D03*
%TD*%
%TO.P,J4,1,Pin_1*%
%TO.N,N/C*%
X116936728Y-108956709D03*
%TD*%
%TO.P,J10,1,Pin_1*%
%TO.N,Net-(J10-Pin_1)*%
X111242709Y-130207077D03*
%TD*%
%TO.P,J12,1,Pin_1*%
%TO.N,N/C*%
X103464535Y-122428902D03*
%TD*%
%TO.P,J9,1,Pin_1*%
%TO.N,N/C*%
X116936727Y-130207075D03*
%TD*%
%TO.P,J3,1,Pin_1*%
%TO.N,N/C*%
X111242709Y-108956709D03*
%TD*%
%TO.P,J6,1,Pin_1*%
%TO.N,N/C*%
X124714901Y-116734884D03*
%TD*%
D11*
%TO.P,R3,1*%
%TO.N,N/C*%
X100593291Y-105831465D03*
D12*
%TO.P,R3,2*%
X108213291Y-105831465D03*
%TD*%
D11*
%TO.P,R10,1*%
%TO.N,N/C*%
X117992291Y-135549465D03*
D12*
%TO.P,R10,2*%
%TO.N,Net-(J10-Pin_1)*%
X110372291Y-135549465D03*
%TD*%
D11*
%TO.P,R2,1*%
%TO.N,N/C*%
X100466291Y-116118465D03*
D12*
%TO.P,R2,2*%
X100466291Y-108498465D03*
%TD*%
D11*
%TO.P,R9,1*%
%TO.N,N/C*%
X124723291Y-128056465D03*
D12*
%TO.P,R9,2*%
X124723291Y-135676465D03*
%TD*%
D11*
%TO.P,R4,1*%
%TO.N,N/C*%
X110372291Y-105831465D03*
D12*
%TO.P,R4,2*%
X117992291Y-105831465D03*
%TD*%
D13*
%TO.P,J14,1,Pin_1*%
%TO.N,N/C*%
X112863424Y-125488747D03*
D14*
%TO.P,J14,2,Pin_2*%
X116455526Y-121896645D03*
%TO.P,J14,3,Pin_3*%
X120047629Y-118304542D03*
%TD*%
D11*
%TO.P,R6,1*%
%TO.N,N/C*%
X127771291Y-108498465D03*
D12*
%TO.P,R6,2*%
X127771291Y-116118465D03*
%TD*%
D11*
%TO.P,R11,1*%
%TO.N,Net-(J10-Pin_1)*%
X103514291Y-135676465D03*
D12*
%TO.P,R11,2*%
%TO.N,N/C*%
X103514291Y-128056465D03*
%TD*%
D11*
%TO.P,R7,1*%
%TO.N,N/C*%
X127771291Y-118277465D03*
D12*
%TO.P,R7,2*%
X127771291Y-125897465D03*
%TD*%
D11*
%TO.P,R8,1*%
%TO.N,N/C*%
X127771291Y-128056465D03*
D12*
%TO.P,R8,2*%
X127771291Y-135676465D03*
%TD*%
D11*
%TO.P,R5,1*%
%TO.N,N/C*%
X120151291Y-105831465D03*
D12*
%TO.P,R5,2*%
X127771291Y-105831465D03*
%TD*%
D11*
%TO.P,R1,1*%
%TO.N,N/C*%
X100466291Y-125897465D03*
D12*
%TO.P,R1,2*%
X100466291Y-118277465D03*
%TD*%
D11*
%TO.P,R12,1*%
%TO.N,N/C*%
X100466291Y-135676465D03*
D12*
%TO.P,R12,2*%
X100466291Y-128056465D03*
%TD*%
D15*
%TO.P,J3,1,Pin_1*%
%TO.N,/A_ON*%
X156718000Y-54356000D03*
D16*
%TO.P,J3,2,Pin_2*%
%TO.N,/GND*%
X156718000Y-56896000D03*
%TO.P,J3,3,Pin_3*%
%TO.N,/A_OFF*%
X154178000Y-54356000D03*
%TO.P,J3,4,Pin_4*%
%TO.N,/3V3*%
X154178000Y-56896000D03*
%TO.P,J3,5,Pin_5*%
%TO.N,/B_ON*%
X151638000Y-54356000D03*
%TO.P,J3,6,Pin_6*%
%TO.N,/D30*%
X151638000Y-56896000D03*
%TO.P,J3,7,Pin_7*%
%TO.N,/B_OFF*%
X149098000Y-54356000D03*
%TO.P,J3,8,Pin_8*%
%TO.N,/D31*%
X149098000Y-56896000D03*
%TO.P,J3,9,Pin_9*%
%TO.N,/C_ON*%
X146558000Y-54356000D03*
%TO.P,J3,10,Pin_10*%
%TO.N,/C_OFF*%
X146558000Y-56896000D03*
%TD*%
D17*
%TO.P,J1,1,Pin_1*%
%TO.N,/D39*%
X157734000Y-45974000D03*
D16*
%TO.P,J1,2,Pin_2*%
%TO.N,/D40*%
X157734000Y-43434000D03*
%TO.P,J1,3,Pin_3*%
%TO.N,/D38*%
X160274000Y-45974000D03*
%TO.P,J1,4,Pin_4*%
%TO.N,/D41*%
X160274000Y-43434000D03*
%TO.P,J1,5,Pin_5*%
%TO.N,/A0*%
X162814000Y-45974000D03*
%TO.P,J1,6,Pin_6*%
%TO.N,/D42*%
X162814000Y-43434000D03*
%TO.P,J1,7,Pin_7*%
%TO.N,/A1*%
X165354000Y-45974000D03*
%TO.P,J1,8,Pin_8*%
%TO.N,/D43*%
X165354000Y-43434000D03*
%TO.P,J1,9,Pin_9*%
%TO.N,/A2*%
X167894000Y-45974000D03*
%TO.P,J1,10,Pin_10*%
%TO.N,/D44*%
X167894000Y-43434000D03*
%TO.P,J1,11,Pin_11*%
%TO.N,/A3*%
X170434000Y-45974000D03*
%TO.P,J1,12,Pin_12*%
%TO.N,/D45*%
X170434000Y-43434000D03*
%TO.P,J1,13,Pin_13*%
%TO.N,/A4*%
X172974000Y-45974000D03*
%TO.P,J1,14,Pin_14*%
%TO.N,/D46*%
X172974000Y-43434000D03*
%TO.P,J1,15,Pin_15*%
%TO.N,N/C*%
X175514000Y-45974000D03*
%TO.P,J1,16,Pin_16*%
%TO.N,/D47*%
X175514000Y-43434000D03*
%TO.P,J1,17,Pin_17*%
%TO.N,/AREF*%
X178054000Y-45974000D03*
%TO.P,J1,18,Pin_18*%
%TO.N,/D48*%
X178054000Y-43434000D03*
%TO.P,J1,19,Pin_19*%
%TO.N,/GND*%
X180594000Y-45974000D03*
%TO.P,J1,20,Pin_20*%
%TO.N,/D49*%
X180594000Y-43434000D03*
%TD*%
D18*
%TO.P,SW2,1*%
%TO.N,/5V*%
X183482000Y-51134000D03*
D12*
%TO.P,SW2,2*%
X180942000Y-51134000D03*
%TO.P,SW2,3*%
%TO.N,/AREF*%
X180942000Y-58754000D03*
%TO.P,SW2,4*%
%TO.N,/VIN*%
X183482000Y-58754000D03*
%TD*%
D19*
%TO.P,XA1,*%
%TO.N,*%
X187706000Y-104394000D03*
%TO.P,XA1,3V3,3.3V*%
%TO.N,N/C*%
X187706000Y-96774000D03*
%TO.P,XA1,5V1,5V*%
X187706000Y-94234000D03*
%TO.P,XA1,5V2,SPI_5V*%
X159766000Y-66167000D03*
%TO.P,XA1,5V3,5V*%
X139446000Y-38354000D03*
%TO.P,XA1,5V4,5V*%
X139446000Y-35814000D03*
%TO.P,XA1,A0,A0*%
%TO.N,/A0*%
X187706000Y-81534000D03*
%TO.P,XA1,A1,A1*%
%TO.N,/A1*%
X187706000Y-78994000D03*
%TO.P,XA1,A2,A2*%
%TO.N,/A2*%
X187706000Y-76454000D03*
%TO.P,XA1,A3,A3*%
%TO.N,/A3*%
X187706000Y-73914000D03*
%TO.P,XA1,A4,A4*%
%TO.N,/A4*%
X187706000Y-71374000D03*
%TO.P,XA1,A5,A5*%
%TO.N,N/C*%
X187706000Y-68834000D03*
%TO.P,XA1,A6,A6*%
X187706000Y-66294000D03*
%TO.P,XA1,A7,A7*%
X187706000Y-63754000D03*
%TO.P,XA1,A8,A8*%
X187706000Y-58674000D03*
%TO.P,XA1,A9,A9*%
X187706000Y-56134000D03*
%TO.P,XA1,A10,A10*%
X187706000Y-53594000D03*
%TO.P,XA1,A11,A11*%
X187706000Y-51054000D03*
%TO.P,XA1,A12,A12*%
X187706000Y-48514000D03*
%TO.P,XA1,A13,A13*%
X187706000Y-45974000D03*
%TO.P,XA1,A14,A14*%
X187706000Y-43434000D03*
%TO.P,XA1,A15,A15*%
X187706000Y-40894000D03*
%TO.P,XA1,AREF,AREF*%
%TO.N,/AREF*%
X139446000Y-108458000D03*
%TO.P,XA1,D0,D0/RX0*%
%TO.N,N/C*%
X139446000Y-68834000D03*
%TO.P,XA1,D1,D1/TX0*%
X139446000Y-71374000D03*
%TO.P,XA1,D2,D2_INT0*%
X139446000Y-73914000D03*
%TO.P,XA1,D3,D3_INT1*%
X139446000Y-76454000D03*
%TO.P,XA1,D4,D4*%
X139446000Y-78994000D03*
%TO.P,XA1,D5,D5*%
X139446000Y-81534000D03*
%TO.P,XA1,D6,D6*%
X139446000Y-84074000D03*
%TO.P,XA1,D7,D7*%
X139446000Y-86614000D03*
%TO.P,XA1,D8,D8*%
X139446000Y-90678000D03*
%TO.P,XA1,D9,D9*%
X139446000Y-93218000D03*
%TO.P,XA1,D10,D10*%
X139446000Y-95758000D03*
%TO.P,XA1,D11,D11*%
X139446000Y-98298000D03*
%TO.P,XA1,D12,D12*%
X139446000Y-100838000D03*
%TO.P,XA1,D13,D13*%
X139446000Y-103378000D03*
%TO.P,XA1,D14,D14/TX3*%
X139446000Y-63754000D03*
%TO.P,XA1,D15,D15/RX3*%
X139446000Y-61214000D03*
%TO.P,XA1,D16,D16/TX2*%
X139446000Y-58674000D03*
%TO.P,XA1,D17,D17/RX2*%
X139446000Y-56134000D03*
%TO.P,XA1,D18,D18/TX1*%
X139446000Y-53594000D03*
%TO.P,XA1,D19,D19/RX1*%
X139446000Y-51054000D03*
%TO.P,XA1,D20,D20/SDA*%
X139446000Y-48514000D03*
%TO.P,XA1,D21,D21/SCL*%
X139446000Y-45974000D03*
%TO.P,XA1,D22,D22*%
X141986000Y-38354000D03*
%TO.P,XA1,D23,D23*%
X141986000Y-35814000D03*
%TO.P,XA1,D24,D24*%
X144526000Y-38354000D03*
%TO.P,XA1,D25,D25*%
X144526000Y-35814000D03*
%TO.P,XA1,D26,D26*%
X147066000Y-38354000D03*
%TO.P,XA1,D27,D27*%
X147066000Y-35814000D03*
%TO.P,XA1,D28,D28*%
X149606000Y-38354000D03*
%TO.P,XA1,D29,D29*%
X149606000Y-35814000D03*
%TO.P,XA1,D30,D30*%
%TO.N,/D30*%
X152146000Y-38354000D03*
%TO.P,XA1,D31,D31*%
%TO.N,/D31*%
X152146000Y-35814000D03*
%TO.P,XA1,D32,D32*%
%TO.N,/C_OFF*%
X154686000Y-38354000D03*
%TO.P,XA1,D33,D33*%
%TO.N,/C_ON*%
X154686000Y-35814000D03*
%TO.P,XA1,D34,D34*%
%TO.N,/B_OFF*%
X157226000Y-38354000D03*
%TO.P,XA1,D35,D35*%
%TO.N,/B_ON*%
X157226000Y-35814000D03*
%TO.P,XA1,D36,D36*%
%TO.N,/A_OFF*%
X159766000Y-38354000D03*
%TO.P,XA1,D37,D37*%
%TO.N,/A_ON*%
X159766000Y-35814000D03*
%TO.P,XA1,D38,D38*%
%TO.N,/D38*%
X162306000Y-38354000D03*
%TO.P,XA1,D39,D39*%
%TO.N,/D39*%
X162306000Y-35814000D03*
%TO.P,XA1,D40,D40*%
%TO.N,/D40*%
X164846000Y-38354000D03*
%TO.P,XA1,D41,D41*%
%TO.N,/D41*%
X164846000Y-35814000D03*
%TO.P,XA1,D42,D42*%
%TO.N,/D42*%
X167386000Y-38354000D03*
%TO.P,XA1,D43,D43*%
%TO.N,/D43*%
X167386000Y-35814000D03*
%TO.P,XA1,D44,D44*%
%TO.N,/D44*%
X169926000Y-38354000D03*
%TO.P,XA1,D45,D45*%
%TO.N,/D45*%
X169926000Y-35814000D03*
%TO.P,XA1,D46,D46*%
%TO.N,/D46*%
X172466000Y-38354000D03*
%TO.P,XA1,D47,D47*%
%TO.N,/D47*%
X172466000Y-35814000D03*
%TO.P,XA1,D48,D48*%
%TO.N,/D48*%
X175006000Y-38354000D03*
%TO.P,XA1,D49,D49*%
%TO.N,/D49*%
X175006000Y-35814000D03*
%TO.P,XA1,D50,D50_MISO*%
%TO.N,N/C*%
X177546000Y-38354000D03*
%TO.P,XA1,D51,D51_MOSI*%
X177546000Y-35814000D03*
%TO.P,XA1,D52,D52_SCK*%
X180086000Y-38354000D03*
%TO.P,XA1,D53,D53_CS*%
X180086000Y-35814000D03*
D20*
%TO.P,XA1,GND1,GND*%
%TO.N,/GND*%
X139446000Y-105918000D03*
%TO.P,XA1,GND2,GND*%
X187706000Y-91694000D03*
%TO.P,XA1,GND3,GND*%
X187706000Y-89154000D03*
%TO.P,XA1,GND4,SPI_GND*%
X164846000Y-66167000D03*
%TO.P,XA1,GND5,GND*%
X182626000Y-38354000D03*
%TO.P,XA1,GND6,GND*%
X182626000Y-35814000D03*
D19*
%TO.P,XA1,IORF,IOREF*%
%TO.N,N/C*%
X187706000Y-101854000D03*
%TO.P,XA1,MISO,SPI_MISO*%
X159766000Y-68707000D03*
%TO.P,XA1,MOSI,SPI_MOSI*%
X162306000Y-66167000D03*
%TO.P,XA1,RST1,RESET*%
%TO.N,/RST*%
X187706000Y-99314000D03*
%TO.P,XA1,RST2,SPI_RESET*%
%TO.N,N/C*%
X164846000Y-68707000D03*
%TO.P,XA1,SCK,SPI_SCK*%
X162306000Y-68707000D03*
%TO.P,XA1,SCL,SCL*%
X139446000Y-113538000D03*
%TO.P,XA1,SDA,SDA*%
X139446000Y-110998000D03*
%TO.P,XA1,VIN,VIN*%
X187706000Y-86614000D03*
%TD*%
D21*
%TO.P,J2,1,Pin_1*%
%TO.N,/5V*%
X165174000Y-53784000D03*
D14*
%TO.P,J2,2,Pin_2*%
%TO.N,/3V3*%
X170254000Y-53784000D03*
%TO.P,J2,3,Pin_3*%
%TO.N,/GND*%
X175334000Y-53784000D03*
%TD*%
D10*
%TO.P,SW1,1,1*%
%TO.N,/GND*%
X149316000Y-41454000D03*
X149316000Y-47954000D03*
%TO.P,SW1,2,2*%
%TO.N,/RST*%
X144816000Y-41454000D03*
X144816000Y-47954000D03*
%TD*%
D22*
%TO.P,D8,1,K*%
%TO.N,Net-(D8-K)*%
X69289400Y-73647600D03*
D23*
%TO.P,D8,2,A*%
%TO.N,N/C*%
X69289400Y-76187600D03*
%TD*%
D22*
%TO.P,D7,1,K*%
%TO.N,Net-(D7-K)*%
X72464400Y-78147600D03*
D23*
%TO.P,D7,2,A*%
%TO.N,N/C*%
X72464400Y-80687600D03*
%TD*%
D22*
%TO.P,D5,1,K*%
%TO.N,Net-(D5-K)*%
X78814400Y-78147600D03*
D23*
%TO.P,D5,2,A*%
%TO.N,/C_ON*%
X78814400Y-80687600D03*
%TD*%
D22*
%TO.P,D2,1,K*%
%TO.N,Net-(D2-K)*%
X88339400Y-73647600D03*
D23*
%TO.P,D2,2,A*%
%TO.N,/A_OFF*%
X88339400Y-76187600D03*
%TD*%
D21*
%TO.P,J12,1,Pin_1*%
%TO.N,/5V*%
X126401400Y-33273000D03*
D14*
%TO.P,J12,2,Pin_2*%
%TO.N,/GND*%
X121321400Y-33273000D03*
%TD*%
D22*
%TO.P,D4,1,K*%
%TO.N,Net-(D4-K)*%
X81989400Y-73647600D03*
D23*
%TO.P,D4,2,A*%
%TO.N,/B_OFF*%
X81989400Y-76187600D03*
%TD*%
D22*
%TO.P,D1,1,K*%
%TO.N,Net-(D1-K)*%
X91523050Y-78142200D03*
D23*
%TO.P,D1,2,A*%
%TO.N,/A_ON*%
X91523050Y-80682200D03*
%TD*%
D22*
%TO.P,D6,1,K*%
%TO.N,Net-(D6-K)*%
X75639400Y-73647600D03*
D23*
%TO.P,D6,2,A*%
%TO.N,/C_OFF*%
X75639400Y-76187600D03*
%TD*%
D22*
%TO.P,D3,1,K*%
%TO.N,Net-(D3-K)*%
X85164400Y-78147600D03*
D23*
%TO.P,D3,2,A*%
%TO.N,/B_ON*%
X85164400Y-80687600D03*
%TD*%
D15*
%TO.P,IDC_RF1,1,Pin_1*%
%TO.N,/A_ON*%
X85493800Y-85661000D03*
D16*
%TO.P,IDC_RF1,2,Pin_2*%
%TO.N,/GND*%
X85493800Y-88201000D03*
%TO.P,IDC_RF1,3,Pin_3*%
%TO.N,/A_OFF*%
X82953800Y-85661000D03*
%TO.P,IDC_RF1,4,Pin_4*%
%TO.N,/3V3*%
X82953800Y-88201000D03*
%TO.P,IDC_RF1,5,Pin_5*%
%TO.N,/B_ON*%
X80413800Y-85661000D03*
%TO.P,IDC_RF1,6,Pin_6*%
%TO.N,N/C*%
X80413800Y-88201000D03*
%TO.P,IDC_RF1,7,Pin_7*%
%TO.N,/B_OFF*%
X77873800Y-85661000D03*
%TO.P,IDC_RF1,8,Pin_8*%
%TO.N,N/C*%
X77873800Y-88201000D03*
%TO.P,IDC_RF1,9,Pin_9*%
%TO.N,/C_ON*%
X75333800Y-85661000D03*
%TO.P,IDC_RF1,10,Pin_10*%
%TO.N,/C_OFF*%
X75333800Y-88201000D03*
%TD*%
D21*
%TO.P,J19,1,Pin_1*%
%TO.N,Net-(J19-Pin_1)*%
X98863400Y-65906400D03*
D14*
%TO.P,J19,2,Pin_2*%
%TO.N,Net-(J19-Pin_2)*%
X98863400Y-60826400D03*
%TO.P,J19,3,Pin_3*%
%TO.N,Net-(J19-Pin_3)*%
X98863400Y-55746400D03*
%TD*%
D24*
%TO.P,R1,1*%
%TO.N,Net-(R1-Pad1)*%
X57456800Y-84807600D03*
D25*
%TO.P,R1,2*%
%TO.N,/5V*%
X57456800Y-79727600D03*
%TD*%
D21*
%TO.P,J5,1,Pin_1*%
%TO.N,N/C*%
X52317400Y-50251200D03*
D14*
%TO.P,J5,2,Pin_2*%
X52317400Y-45171200D03*
%TO.P,J5,3,Pin_3*%
X52317400Y-40091200D03*
%TD*%
D24*
%TO.P,R2,1*%
%TO.N,Net-(R2-Pad1)*%
X91523050Y-66408600D03*
D25*
%TO.P,R2,2*%
%TO.N,Net-(D1-K)*%
X91523050Y-71488600D03*
%TD*%
D21*
%TO.P,J20,1,Pin_1*%
%TO.N,Net-(J20-Pin_1)*%
X98863400Y-81578200D03*
D14*
%TO.P,J20,2,Pin_2*%
%TO.N,Net-(J20-Pin_2)*%
X98863400Y-76498200D03*
%TO.P,J20,3,Pin_3*%
%TO.N,Net-(J20-Pin_3)*%
X98863400Y-71418200D03*
%TD*%
D18*
%TO.P,U1,1*%
%TO.N,Net-(R1-Pad1)*%
X64171400Y-81962600D03*
D12*
%TO.P,U1,2*%
%TO.N,N/C*%
X61631400Y-81962600D03*
%TO.P,U1,3*%
%TO.N,Net-(J10-Pin_1)*%
X61631400Y-89582600D03*
%TO.P,U1,4*%
%TO.N,Net-(J10-Pin_2)*%
X64171400Y-89582600D03*
%TD*%
D21*
%TO.P,J2,1,Pin_1*%
%TO.N,/GND*%
X44253400Y-55767400D03*
D14*
%TO.P,J2,2,Pin_2*%
X44253400Y-60847400D03*
%TO.P,J2,3,Pin_3*%
X44253400Y-65927400D03*
%TD*%
D21*
%TO.P,J17,1,Pin_1*%
%TO.N,/5V*%
X115824000Y-33274000D03*
D14*
%TO.P,J17,2,Pin_2*%
%TO.N,N/C*%
X110744000Y-33274000D03*
%TO.P,J17,3,Pin_3*%
%TO.N,/GND*%
X105664000Y-33274000D03*
%TD*%
D24*
%TO.P,R9,1*%
%TO.N,Net-(R9-Pad1)*%
X69289400Y-66414000D03*
D25*
%TO.P,R9,2*%
%TO.N,Net-(D8-K)*%
X69289400Y-71494000D03*
%TD*%
D24*
%TO.P,R4,1*%
%TO.N,Net-(R4-Pad1)*%
X85164400Y-66414000D03*
D25*
%TO.P,R4,2*%
%TO.N,Net-(D3-K)*%
X85164400Y-71494000D03*
%TD*%
D21*
%TO.P,J3,1,Pin_1*%
%TO.N,/GND*%
X44253400Y-71439200D03*
D14*
%TO.P,J3,2,Pin_2*%
X44253400Y-76519200D03*
%TO.P,J3,3,Pin_3*%
X44253400Y-81599200D03*
%TD*%
D21*
%TO.P,J15,1,Pin_1*%
%TO.N,/5V*%
X84480400Y-33274000D03*
D14*
%TO.P,J15,2,Pin_2*%
%TO.N,N/C*%
X79400400Y-33274000D03*
%TO.P,J15,3,Pin_3*%
%TO.N,/GND*%
X74320400Y-33274000D03*
%TD*%
D24*
%TO.P,R8,1*%
%TO.N,Net-(R8-Pad1)*%
X72464400Y-66414000D03*
D25*
%TO.P,R8,2*%
%TO.N,Net-(D7-K)*%
X72464400Y-71494000D03*
%TD*%
D21*
%TO.P,J21,1,Pin_1*%
%TO.N,Net-(J21-Pin_1)*%
X98863400Y-97247800D03*
D14*
%TO.P,J21,2,Pin_2*%
%TO.N,Net-(J21-Pin_2)*%
X98863400Y-92167800D03*
%TO.P,J21,3,Pin_3*%
%TO.N,Net-(J21-Pin_3)*%
X98863400Y-87087800D03*
%TD*%
D24*
%TO.P,R6,1*%
%TO.N,Net-(R6-Pad1)*%
X78814400Y-66414000D03*
D25*
%TO.P,R6,2*%
%TO.N,Net-(D5-K)*%
X78814400Y-71494000D03*
%TD*%
D21*
%TO.P,J10,1,Pin_1*%
%TO.N,Net-(J10-Pin_1)*%
X69657800Y-95986600D03*
D14*
%TO.P,J10,2,Pin_2*%
%TO.N,Net-(J10-Pin_2)*%
X74737800Y-95986600D03*
%TD*%
D18*
%TO.P,U3,1*%
%TO.N,Net-(R6-Pad1)*%
X69589400Y-43624000D03*
D12*
%TO.P,U3,2*%
%TO.N,/GND*%
X69589400Y-46164000D03*
%TO.P,U3,3*%
%TO.N,Net-(R7-Pad1)*%
X69589400Y-48704000D03*
%TO.P,U3,4*%
%TO.N,/GND*%
X69589400Y-51244000D03*
%TO.P,U3,5*%
%TO.N,Net-(R8-Pad1)*%
X69589400Y-53784000D03*
%TO.P,U3,6*%
%TO.N,/GND*%
X69589400Y-56324000D03*
%TO.P,U3,7*%
%TO.N,Net-(R9-Pad1)*%
X69589400Y-58864000D03*
%TO.P,U3,8*%
%TO.N,/GND*%
X69589400Y-61404000D03*
%TO.P,U3,9*%
%TO.N,Net-(J21-Pin_1)*%
X77209400Y-61404000D03*
%TO.P,U3,10*%
%TO.N,Net-(J21-Pin_2)*%
X77209400Y-58864000D03*
%TO.P,U3,11*%
%TO.N,Net-(J21-Pin_1)*%
X77209400Y-56324000D03*
%TO.P,U3,12*%
%TO.N,Net-(J21-Pin_3)*%
X77209400Y-53784000D03*
%TO.P,U3,13*%
%TO.N,Net-(J20-Pin_1)*%
X77209400Y-51244000D03*
%TO.P,U3,14*%
%TO.N,Net-(J20-Pin_2)*%
X77209400Y-48704000D03*
%TO.P,U3,15*%
%TO.N,Net-(J20-Pin_1)*%
X77209400Y-46164000D03*
%TO.P,U3,16*%
%TO.N,Net-(J20-Pin_3)*%
X77209400Y-43624000D03*
%TD*%
D21*
%TO.P,J7,1,Pin_1*%
%TO.N,N/C*%
X52317400Y-81599200D03*
D14*
%TO.P,J7,2,Pin_2*%
X52317400Y-76519200D03*
%TO.P,J7,3,Pin_3*%
X52317400Y-71439200D03*
%TD*%
D21*
%TO.P,J9,1,Pin_1*%
%TO.N,Net-(J10-Pin_1)*%
X59091400Y-95986600D03*
D14*
%TO.P,J9,2,Pin_2*%
%TO.N,Net-(J10-Pin_2)*%
X64171400Y-95986600D03*
%TD*%
D24*
%TO.P,R5,1*%
%TO.N,Net-(R5-Pad1)*%
X81989400Y-66414000D03*
D25*
%TO.P,R5,2*%
%TO.N,Net-(D4-K)*%
X81989400Y-71494000D03*
%TD*%
D21*
%TO.P,J13,1,Pin_1*%
%TO.N,/5V*%
X53132400Y-33274000D03*
D14*
%TO.P,J13,2,Pin_2*%
%TO.N,N/C*%
X48052400Y-33274000D03*
%TO.P,J13,3,Pin_3*%
%TO.N,/GND*%
X42972400Y-33274000D03*
%TD*%
D26*
%TO.P,J11,1,Pin_1*%
%TO.N,N/C*%
X62626800Y-73076000D03*
D16*
%TO.P,J11,2,Pin_2*%
X60086800Y-73076000D03*
%TO.P,J11,3,Pin_3*%
X62626800Y-70536000D03*
%TO.P,J11,4,Pin_4*%
X60086800Y-70536000D03*
%TO.P,J11,5,Pin_5*%
X62626800Y-67996000D03*
%TO.P,J11,6,Pin_6*%
X60086800Y-67996000D03*
%TO.P,J11,7,Pin_7*%
X62626800Y-65456000D03*
%TO.P,J11,8,Pin_8*%
X60086800Y-65456000D03*
%TO.P,J11,9,Pin_9*%
X62626800Y-62916000D03*
%TO.P,J11,10,Pin_10*%
X60086800Y-62916000D03*
%TO.P,J11,11,Pin_11*%
X62626800Y-60376000D03*
%TO.P,J11,12,Pin_12*%
X60086800Y-60376000D03*
%TO.P,J11,13,Pin_13*%
X62626800Y-57836000D03*
%TO.P,J11,14,Pin_14*%
X60086800Y-57836000D03*
%TO.P,J11,15,Pin_15*%
%TO.N,unconnected-(J11-Pin_15-Pad15)*%
X62626800Y-55296000D03*
%TO.P,J11,16,Pin_16*%
%TO.N,N/C*%
X60086800Y-55296000D03*
%TO.P,J11,17,Pin_17*%
%TO.N,/5V*%
X62626800Y-52756000D03*
%TO.P,J11,18,Pin_18*%
%TO.N,N/C*%
X60086800Y-52756000D03*
%TO.P,J11,19,Pin_19*%
%TO.N,/GND*%
X62626800Y-50216000D03*
%TO.P,J11,20,Pin_20*%
%TO.N,N/C*%
X60086800Y-50216000D03*
%TD*%
D21*
%TO.P,J14,1,Pin_1*%
%TO.N,/5V*%
X68808600Y-33274000D03*
D14*
%TO.P,J14,2,Pin_2*%
%TO.N,N/C*%
X63728600Y-33274000D03*
%TO.P,J14,3,Pin_3*%
%TO.N,/GND*%
X58648600Y-33274000D03*
%TD*%
D21*
%TO.P,J4,1,Pin_1*%
%TO.N,/GND*%
X44253400Y-87108800D03*
D14*
%TO.P,J4,2,Pin_2*%
X44253400Y-92188800D03*
%TO.P,J4,3,Pin_3*%
X44253400Y-97268800D03*
%TD*%
D21*
%TO.P,J6,1,Pin_1*%
%TO.N,N/C*%
X52317400Y-65927400D03*
D14*
%TO.P,J6,2,Pin_2*%
X52317400Y-60847400D03*
%TO.P,J6,3,Pin_3*%
X52317400Y-55767400D03*
%TD*%
D21*
%TO.P,J22,1,Pin_1*%
%TO.N,/3V3*%
X80239800Y-95986600D03*
D14*
%TO.P,J22,2,Pin_2*%
%TO.N,/GND*%
X85319800Y-95986600D03*
%TD*%
D21*
%TO.P,J1,1,Pin_1*%
%TO.N,/GND*%
X44253400Y-40091200D03*
D14*
%TO.P,J1,2,Pin_2*%
X44253400Y-45171200D03*
%TO.P,J1,3,Pin_3*%
X44253400Y-50251200D03*
%TD*%
D21*
%TO.P,J18,1,Pin_1*%
%TO.N,Net-(J18-Pin_1)*%
X98863400Y-50230200D03*
D14*
%TO.P,J18,2,Pin_2*%
%TO.N,Net-(J18-Pin_2)*%
X98863400Y-45150200D03*
%TO.P,J18,3,Pin_3*%
%TO.N,Net-(J18-Pin_3)*%
X98863400Y-40070200D03*
%TD*%
D24*
%TO.P,R7,1*%
%TO.N,Net-(R7-Pad1)*%
X75639400Y-66414000D03*
D25*
%TO.P,R7,2*%
%TO.N,Net-(D6-K)*%
X75639400Y-71494000D03*
%TD*%
D21*
%TO.P,J16,1,Pin_1*%
%TO.N,/5V*%
X100152200Y-33274000D03*
D14*
%TO.P,J16,2,Pin_2*%
%TO.N,N/C*%
X95072200Y-33274000D03*
%TO.P,J16,3,Pin_3*%
%TO.N,/GND*%
X89992200Y-33274000D03*
%TD*%
D24*
%TO.P,R3,1*%
%TO.N,Net-(R3-Pad1)*%
X88339400Y-66414000D03*
D25*
%TO.P,R3,2*%
%TO.N,Net-(D2-K)*%
X88339400Y-71494000D03*
%TD*%
D21*
%TO.P,J8,1,Pin_1*%
%TO.N,N/C*%
X52317400Y-97268800D03*
D14*
%TO.P,J8,2,Pin_2*%
X52317400Y-92188800D03*
%TO.P,J8,3,Pin_3*%
X52317400Y-87108800D03*
%TD*%
D18*
%TO.P,U2,1*%
%TO.N,Net-(R2-Pad1)*%
X84123050Y-43624000D03*
D12*
%TO.P,U2,2*%
%TO.N,/GND*%
X84123050Y-46164000D03*
%TO.P,U2,3*%
%TO.N,Net-(R3-Pad1)*%
X84123050Y-48704000D03*
%TO.P,U2,4*%
%TO.N,/GND*%
X84123050Y-51244000D03*
%TO.P,U2,5*%
%TO.N,Net-(R4-Pad1)*%
X84123050Y-53784000D03*
%TO.P,U2,6*%
%TO.N,/GND*%
X84123050Y-56324000D03*
%TO.P,U2,7*%
%TO.N,Net-(R5-Pad1)*%
X84123050Y-58864000D03*
%TO.P,U2,8*%
%TO.N,/GND*%
X84123050Y-61404000D03*
%TO.P,U2,9*%
%TO.N,Net-(J19-Pin_1)*%
X91743050Y-61404000D03*
%TO.P,U2,10*%
%TO.N,Net-(J19-Pin_2)*%
X91743050Y-58864000D03*
%TO.P,U2,11*%
%TO.N,Net-(J19-Pin_1)*%
X91743050Y-56324000D03*
%TO.P,U2,12*%
%TO.N,Net-(J19-Pin_3)*%
X91743050Y-53784000D03*
%TO.P,U2,13*%
%TO.N,Net-(J18-Pin_1)*%
X91743050Y-51244000D03*
%TO.P,U2,14*%
%TO.N,Net-(J18-Pin_2)*%
X91743050Y-48704000D03*
%TO.P,U2,15*%
%TO.N,Net-(J18-Pin_1)*%
X91743050Y-46164000D03*
%TO.P,U2,16*%
%TO.N,Net-(J18-Pin_3)*%
X91743050Y-43624000D03*
%TD*%
D27*
%TO.N,*%
X116404471Y-121642645D02*
X116455526Y-121642645D01*
X111261291Y-116499465D02*
X116404471Y-121642645D01*
X103464535Y-122174902D02*
X103464535Y-124804221D01*
X103464535Y-121502221D02*
X110499291Y-114467465D01*
%TO.N,Net-(J10-Pin_1)*%
X111242709Y-129953077D02*
X111242709Y-133917047D01*
%TO.N,*%
X100593291Y-108244465D02*
X100466291Y-108244465D01*
X103895291Y-127421465D02*
X103514291Y-127802465D01*
X105996146Y-127421465D02*
X103895291Y-127421465D01*
X106311542Y-111549718D02*
X103898544Y-111549718D01*
X127771291Y-125231291D02*
X127771291Y-125643465D01*
X103898544Y-111549718D02*
X100593291Y-108244465D01*
X111242709Y-108702709D02*
X108213291Y-105673291D01*
X124714902Y-122174902D02*
X127771291Y-125231291D01*
%TO.N,Net-(J10-Pin_1)*%
X111242709Y-133917047D02*
X110372291Y-134787465D01*
%TO.N,*%
X121867893Y-127106067D02*
X121867893Y-129519067D01*
X127154872Y-116480884D02*
X127771291Y-115864465D01*
X116936728Y-106633028D02*
X117992291Y-105577465D01*
X121867892Y-111549717D02*
X127771291Y-105646318D01*
X121867893Y-129519067D02*
X127771291Y-135422465D01*
X103464535Y-122174902D02*
X103464535Y-121502221D01*
X124714901Y-116480884D02*
X127154872Y-116480884D01*
X103464535Y-124804221D02*
X100466291Y-127802465D01*
X110499291Y-114467465D02*
X116464552Y-114467465D01*
X116464552Y-114467465D02*
X120047629Y-118050542D01*
X116936727Y-129953075D02*
X119253901Y-129953075D01*
X106311543Y-127106068D02*
X105996146Y-127421465D01*
X119253901Y-129953075D02*
X124723291Y-135422465D01*
X116936728Y-108702709D02*
X116936728Y-106633028D01*
X101921951Y-118023465D02*
X100466291Y-118023465D01*
X103464534Y-116480882D02*
X101921951Y-118023465D01*
%TO.N,/B_OFF*%
X151130000Y-45212000D02*
X157226000Y-39116000D01*
X151130000Y-52324000D02*
X151130000Y-45212000D01*
X149098000Y-54356000D02*
X151130000Y-52324000D01*
X157226000Y-39116000D02*
X157226000Y-38354000D01*
%TO.N,/A_ON*%
X161036000Y-37084000D02*
X159766000Y-35814000D01*
X161036000Y-39624000D02*
X161036000Y-37084000D01*
X159766000Y-40894000D02*
X161036000Y-39624000D01*
X157862396Y-40894000D02*
X159766000Y-40894000D01*
X155956000Y-42800396D02*
X157862396Y-40894000D01*
X155956000Y-53594000D02*
X155956000Y-42800396D01*
X156718000Y-54356000D02*
X155956000Y-53594000D01*
%TO.N,/D38*%
X161544000Y-39116000D02*
X162306000Y-38354000D01*
X160274000Y-45974000D02*
X161544000Y-44704000D01*
X161544000Y-44704000D02*
X161544000Y-39116000D01*
%TO.N,/D30*%
X144018000Y-53591208D02*
X146304000Y-51305208D01*
X149918000Y-58616000D02*
X145863604Y-58616000D01*
X152146000Y-40894000D02*
X152146000Y-38354000D01*
X145863604Y-58616000D02*
X144018000Y-56770396D01*
X144018000Y-56770396D02*
X144018000Y-53591208D01*
X146304000Y-46736000D02*
X152146000Y-40894000D01*
X146304000Y-51305208D02*
X146304000Y-46736000D01*
X151638000Y-56896000D02*
X149918000Y-58616000D01*
%TO.N,/C_OFF*%
X154686000Y-39626792D02*
X154686000Y-38354000D01*
X147320000Y-51562000D02*
X147320000Y-46992792D01*
X147320000Y-46992792D02*
X154686000Y-39626792D01*
X145034000Y-53848000D02*
X147320000Y-51562000D01*
X146558000Y-56896000D02*
X145034000Y-55372000D01*
X145034000Y-55372000D02*
X145034000Y-53848000D01*
D28*
%TO.N,/AREF*%
X141986000Y-107696000D02*
X141224000Y-108458000D01*
X141986000Y-103378000D02*
X141986000Y-107696000D01*
X180942000Y-58754000D02*
X180942000Y-64422000D01*
X180942000Y-64422000D02*
X141986000Y-103378000D01*
X141224000Y-108458000D02*
X139446000Y-108458000D01*
%TO.N,/3V3*%
X156210000Y-58928000D02*
X168656000Y-58928000D01*
X154178000Y-56896000D02*
X156210000Y-58928000D01*
D29*
%TO.N,/5V*%
X167824000Y-51134000D02*
X183492000Y-51134000D01*
D28*
%TO.N,/3V3*%
X168656000Y-58928000D02*
X170254000Y-57330000D01*
X170254000Y-57330000D02*
X170254000Y-54028000D01*
D29*
%TO.N,/5V*%
X165354000Y-53604000D02*
X167824000Y-51134000D01*
D27*
%TO.N,/B_ON*%
X158414600Y-38846335D02*
X158414600Y-37002600D01*
X151638000Y-45622935D02*
X158414600Y-38846335D01*
X151638000Y-54356000D02*
X151638000Y-45622935D01*
X158414600Y-37002600D02*
X157226000Y-35814000D01*
%TO.N,/C_ON*%
X147828000Y-47121188D02*
X155956000Y-38993188D01*
X155956000Y-37084000D02*
X154686000Y-35814000D01*
X155956000Y-38993188D02*
X155956000Y-37084000D01*
X147828000Y-53086000D02*
X147828000Y-47121188D01*
X146558000Y-54356000D02*
X147828000Y-53086000D01*
%TO.N,/D31*%
X146812000Y-46864396D02*
X153416000Y-40260396D01*
X146812000Y-51433604D02*
X146812000Y-46864396D01*
X144526000Y-53719604D02*
X146812000Y-51433604D01*
X153416000Y-37084000D02*
X152146000Y-35814000D01*
X149098000Y-56896000D02*
X147828000Y-58166000D01*
X144526000Y-56642000D02*
X144526000Y-53719604D01*
X147828000Y-58166000D02*
X146050000Y-58166000D01*
X146050000Y-58166000D02*
X144526000Y-56642000D01*
X153416000Y-40260396D02*
X153416000Y-37084000D01*
D28*
%TO.N,/AREF*%
X178054000Y-45974000D02*
X181102000Y-49022000D01*
X185166000Y-50038000D02*
X185166000Y-54530000D01*
X181102000Y-49022000D02*
X184150000Y-49022000D01*
X184150000Y-49022000D02*
X185166000Y-50038000D01*
X185166000Y-54530000D02*
X180942000Y-58754000D01*
D27*
%TO.N,/A_OFF*%
X154178000Y-54356000D02*
X154178000Y-43942000D01*
X154178000Y-43942000D02*
X159766000Y-38354000D01*
D29*
%TO.N,/3V3*%
X82953800Y-88201000D02*
X82953800Y-93022600D01*
D27*
%TO.N,*%
X72464400Y-87389000D02*
X74673400Y-89598000D01*
D29*
%TO.N,/3V3*%
X83203800Y-93022600D02*
X80239800Y-95986600D01*
D27*
%TO.N,*%
X74487004Y-90048000D02*
X78566800Y-90048000D01*
X74673400Y-89598000D02*
X76476800Y-89598000D01*
D29*
%TO.N,/GND*%
X85743800Y-95562600D02*
X85319800Y-95986600D01*
D27*
%TO.N,*%
X69289400Y-76187600D02*
X69289400Y-84850396D01*
X78566800Y-90048000D02*
X80413800Y-88201000D01*
X69289400Y-84850396D02*
X74487004Y-90048000D01*
X76476800Y-89598000D02*
X77873800Y-88201000D01*
X72464400Y-80687600D02*
X72464400Y-87389000D01*
D29*
%TO.N,/GND*%
X85493800Y-88201000D02*
X85493800Y-95562600D01*
D27*
%TO.N,Net-(D6-K)*%
X75639400Y-71494000D02*
X75639400Y-73647600D01*
%TO.N,Net-(D2-K)*%
X88339400Y-71494000D02*
X88339400Y-73647600D01*
%TO.N,Net-(D5-K)*%
X78814400Y-71494000D02*
X78814400Y-78147600D01*
%TO.N,Net-(D7-K)*%
X72464400Y-71494000D02*
X72464400Y-78147600D01*
%TO.N,Net-(D4-K)*%
X81989400Y-71494000D02*
X81989400Y-73647600D01*
%TO.N,Net-(D1-K)*%
X91523050Y-71488600D02*
X91523050Y-78142200D01*
%TO.N,Net-(D3-K)*%
X85164400Y-71494000D02*
X85164400Y-78147600D01*
%TO.N,/B_ON*%
X85164400Y-80910400D02*
X80413800Y-85661000D01*
X85164400Y-80687600D02*
X85164400Y-80910400D01*
%TO.N,/B_OFF*%
X81989400Y-81545400D02*
X77873800Y-85661000D01*
X81989400Y-76187600D02*
X81989400Y-81545400D01*
%TO.N,/A_OFF*%
X88339400Y-80275400D02*
X82953800Y-85661000D01*
X88339400Y-76187600D02*
X88339400Y-80275400D01*
%TO.N,/C_ON*%
X78814400Y-82180400D02*
X75333800Y-85661000D01*
X78814400Y-80687600D02*
X78814400Y-82180400D01*
%TO.N,/A_ON*%
X91523050Y-80682200D02*
X90472600Y-80682200D01*
X90472600Y-80682200D02*
X85493800Y-85661000D01*
%TO.N,Net-(D8-K)*%
X69289400Y-71494000D02*
X69289400Y-73647600D01*
%TO.N,Net-(R4-Pad1)*%
X85164400Y-61953641D02*
X85414400Y-61703641D01*
X85414400Y-61703641D02*
X85414400Y-55075350D01*
X85164400Y-66414000D02*
X85164400Y-61953641D01*
%TO.N,Net-(R8-Pad1)*%
X72445400Y-56640000D02*
X69589400Y-53784000D01*
X72464400Y-66414000D02*
X72445400Y-66395000D01*
X72445400Y-66395000D02*
X72445400Y-56640000D01*
%TO.N,Net-(R5-Pad1)*%
X81989400Y-60997650D02*
X84123050Y-58864000D01*
X81989400Y-66414000D02*
X81989400Y-60997650D01*
%TO.N,Net-(R9-Pad1)*%
X71171400Y-60446000D02*
X69589400Y-58864000D01*
X71171400Y-64532000D02*
X71171400Y-60446000D01*
X69289400Y-66414000D02*
X71171400Y-64532000D01*
%TO.N,Net-(R7-Pad1)*%
X73907400Y-64682000D02*
X73907400Y-64432000D01*
X75639400Y-66414000D02*
X73907400Y-64682000D01*
%TO.N,Net-(R6-Pad1)*%
X75177400Y-62777000D02*
X75177400Y-62527000D01*
X78814400Y-66414000D02*
X75177400Y-62777000D01*
%TO.N,Net-(R3-Pad1)*%
X88339400Y-52920350D02*
X84123050Y-48704000D01*
%TO.N,Net-(J10-Pin_2)*%
X72667200Y-93916000D02*
X66242000Y-93916000D01*
X74737800Y-95986600D02*
X72667200Y-93916000D01*
%TO.N,*%
X79400400Y-33274000D02*
X75654400Y-37020000D01*
X75654400Y-37020000D02*
X71367400Y-37020000D01*
X66541400Y-41846000D02*
X66541400Y-58864000D01*
X71367400Y-37020000D02*
X66541400Y-41846000D01*
X66541400Y-58864000D02*
X62477400Y-62928000D01*
X110744000Y-33274000D02*
X105982000Y-38036000D01*
X68065400Y-42608000D02*
X68065400Y-62420000D01*
X68065400Y-62420000D02*
X62477400Y-68008000D01*
X72637400Y-38036000D02*
X68065400Y-42608000D01*
X105982000Y-38036000D02*
X72637400Y-38036000D01*
%TO.N,Net-(J10-Pin_2)*%
X66242000Y-93916000D02*
X64171400Y-95986600D01*
%TO.N,Net-(J10-Pin_1)*%
X69657800Y-95986600D02*
X67664400Y-97980000D01*
X67664400Y-97980000D02*
X61084800Y-97980000D01*
X61084800Y-97980000D02*
X59091400Y-95986600D01*
X61631400Y-89582600D02*
X61631400Y-93446600D01*
%TO.N,Net-(J10-Pin_2)*%
X64171400Y-89582600D02*
X64171400Y-95986600D01*
%TO.N,Net-(J10-Pin_1)*%
X61631400Y-93446600D02*
X59091400Y-95986600D01*
%TO.N,*%
X52329400Y-60376000D02*
X52317400Y-60388000D01*
X59925400Y-60376000D02*
X52329400Y-60376000D01*
X59937400Y-60388000D02*
X59925400Y-60376000D01*
%TO.N,Net-(R1-Pad1)*%
X59199200Y-86550000D02*
X57456800Y-84807600D01*
X64171400Y-82570000D02*
X60191400Y-86550000D01*
X64171400Y-81962600D02*
X64171400Y-82570000D01*
X60191400Y-86550000D02*
X59199200Y-86550000D01*
%TO.N,*%
X65779400Y-35369000D02*
X63493400Y-33083000D01*
X62477400Y-60388000D02*
X65779400Y-57086000D01*
X65779400Y-57086000D02*
X65779400Y-35369000D01*
%TO.N,Net-(J20-Pin_1)*%
X75939400Y-49974000D02*
X77209400Y-51244000D01*
X77209400Y-46164000D02*
X75939400Y-47434000D01*
X75939400Y-47434000D02*
X75939400Y-49974000D01*
%TO.N,Net-(J21-Pin_1)*%
X75939400Y-60134000D02*
X77209400Y-61404000D01*
X75939400Y-57594000D02*
X75939400Y-60134000D01*
X77209400Y-56324000D02*
X75939400Y-57594000D01*
%TO.N,Net-(J19-Pin_1)*%
X90417400Y-57649650D02*
X90417400Y-60078350D01*
X90417400Y-60078350D02*
X91743050Y-61404000D01*
%TO.N,Net-(J18-Pin_1)*%
X90417400Y-47489650D02*
X90417400Y-49918350D01*
%TO.N,Net-(J19-Pin_1)*%
X91743050Y-56324000D02*
X90417400Y-57649650D01*
%TO.N,Net-(J18-Pin_1)*%
X91743050Y-46164000D02*
X90417400Y-47489650D01*
X90417400Y-49918350D02*
X91743050Y-51244000D01*
%TO.N,*%
X60086800Y-47837400D02*
X52317400Y-40068000D01*
X60086800Y-50216000D02*
X60086800Y-47837400D01*
%TO.N,Net-(R6-Pad1)*%
X75177400Y-49212000D02*
X69589400Y-43624000D01*
X75177400Y-62527000D02*
X75177400Y-49212000D01*
%TO.N,Net-(R7-Pad1)*%
X73907400Y-64432000D02*
X73907400Y-53022000D01*
%TO.N,Net-(R4-Pad1)*%
X85414400Y-55075350D02*
X84123050Y-53784000D01*
%TO.N,Net-(R7-Pad1)*%
X73907400Y-53022000D02*
X69589400Y-48704000D01*
%TO.N,*%
X59937400Y-62928000D02*
X55316800Y-62928000D01*
X52776800Y-65468000D02*
X52317400Y-65468000D01*
X55316800Y-62928000D02*
X52776800Y-65468000D01*
%TO.N,Net-(R2-Pad1)*%
X89405400Y-48906350D02*
X84123050Y-43624000D01*
%TO.N,/C_OFF*%
X74158800Y-87026000D02*
X75333800Y-88201000D01*
X74158800Y-77668200D02*
X74158800Y-87026000D01*
%TO.N,Net-(R2-Pad1)*%
X91523050Y-66408600D02*
X90600000Y-66408600D01*
X90600000Y-66408600D02*
X89405400Y-65214000D01*
%TO.N,/C_OFF*%
X75639400Y-76187600D02*
X74158800Y-77668200D01*
%TO.N,Net-(R2-Pad1)*%
X89405400Y-65214000D02*
X89405400Y-48906350D01*
%TO.N,Net-(R3-Pad1)*%
X88339400Y-66414000D02*
X88339400Y-52920350D01*
%TO.N,*%
X67303400Y-60642000D02*
X62477400Y-65468000D01*
X72002400Y-37528000D02*
X67303400Y-42227000D01*
X90818200Y-37528000D02*
X72002400Y-37528000D01*
X95072200Y-33274000D02*
X90818200Y-37528000D01*
X67303400Y-42227000D02*
X67303400Y-60642000D01*
X57397400Y-55308000D02*
X52317400Y-50228000D01*
X59937400Y-55308000D02*
X57397400Y-55308000D01*
X59937400Y-52768000D02*
X52317400Y-45148000D01*
X59937400Y-57848000D02*
X54857400Y-57848000D01*
X54857400Y-57848000D02*
X52317400Y-55308000D01*
%TD*%
M02*
