%TF.GenerationSoftware,KiCad,Pcbnew,7.0.6-0*%
%TF.CreationDate,2023-07-29T14:48:15+08:00*%
%TF.ProjectId,Control Panel Motherboard,436f6e74-726f-46c2-9050-616e656c204d,0*%
%TF.SameCoordinates,Original*%
%TF.FileFunction,Copper,L2,Bot*%
%TF.FilePolarity,Positive*%
%FSLAX46Y46*%
G04 Gerber Fmt 4.6, Leading zero omitted, Abs format (unit mm)*
G04 Created by KiCad (PCBNEW 7.0.6-0) date 2023-07-29 14:48:15*
%MOMM*%
%LPD*%
G01*
G04 APERTURE LIST*
G04 Aperture macros list*
%AMRoundRect*
0 Rectangle with rounded corners*
0 $1 Rounding radius*
0 $2 $3 $4 $5 $6 $7 $8 $9 X,Y pos of 4 corners*
0 Add a 4 corners polygon primitive as box body*
4,1,4,$2,$3,$4,$5,$6,$7,$8,$9,$2,$3,0*
0 Add four circle primitives for the rounded corners*
1,1,$1+$1,$2,$3*
1,1,$1+$1,$4,$5*
1,1,$1+$1,$6,$7*
1,1,$1+$1,$8,$9*
0 Add four rect primitives between the rounded corners*
20,1,$1+$1,$2,$3,$4,$5,0*
20,1,$1+$1,$4,$5,$6,$7,0*
20,1,$1+$1,$6,$7,$8,$9,0*
20,1,$1+$1,$8,$9,$2,$3,0*%
G04 Aperture macros list end*
%TA.AperFunction,ComponentPad*%
%ADD10R,1.600000X1.600000*%
%TD*%
%TA.AperFunction,ComponentPad*%
%ADD11O,1.600000X1.600000*%
%TD*%
%TA.AperFunction,ComponentPad*%
%ADD12C,1.400000*%
%TD*%
%TA.AperFunction,ComponentPad*%
%ADD13O,1.400000X1.400000*%
%TD*%
%TA.AperFunction,ComponentPad*%
%ADD14R,3.000000X3.000000*%
%TD*%
%TA.AperFunction,ComponentPad*%
%ADD15C,3.000000*%
%TD*%
%TA.AperFunction,ComponentPad*%
%ADD16RoundRect,0.250000X0.600000X-0.600000X0.600000X0.600000X-0.600000X0.600000X-0.600000X-0.600000X0*%
%TD*%
%TA.AperFunction,ComponentPad*%
%ADD17C,1.700000*%
%TD*%
%TA.AperFunction,ComponentPad*%
%ADD18RoundRect,0.250000X0.600000X0.600000X-0.600000X0.600000X-0.600000X-0.600000X0.600000X-0.600000X0*%
%TD*%
%TA.AperFunction,Conductor*%
%ADD19C,0.250000*%
%TD*%
G04 APERTURE END LIST*
D10*
%TO.P,U4,1*%
%TO.N,Net-(R9-Pad1)*%
X28702000Y-56891000D03*
D11*
%TO.P,U4,2*%
%TO.N,/SW_T5*%
X28702000Y-59431000D03*
%TO.P,U4,3*%
%TO.N,Net-(J23-Pin_1)*%
X36322000Y-59431000D03*
%TO.P,U4,4*%
%TO.N,Net-(J23-Pin_2)*%
X36322000Y-56891000D03*
%TD*%
D12*
%TO.P,R9,1*%
%TO.N,Net-(R9-Pad1)*%
X35052000Y-53340000D03*
D13*
%TO.P,R9,2*%
%TO.N,/5V*%
X29972000Y-53340000D03*
%TD*%
D14*
%TO.P,J23,1,Pin_1*%
%TO.N,Net-(J23-Pin_1)*%
X31242000Y-66040000D03*
D15*
%TO.P,J23,2,Pin_2*%
%TO.N,Net-(J23-Pin_2)*%
X36322000Y-66040000D03*
%TD*%
D14*
%TO.P,J5,1,Pin_1*%
%TO.N,Net-(J23-Pin_1)*%
X21082000Y-66040000D03*
D15*
%TO.P,J5,2,Pin_2*%
%TO.N,Net-(J23-Pin_2)*%
X26162000Y-66040000D03*
%TD*%
D14*
%TO.P,J16,1,Pin_1*%
%TO.N,/5V*%
X75438000Y-4445000D03*
D15*
%TO.P,J16,2,Pin_2*%
%TO.N,/VR_1*%
X70358000Y-4445000D03*
%TO.P,J16,3,Pin_3*%
%TO.N,/GND*%
X65278000Y-4445000D03*
%TD*%
D12*
%TO.P,R8,1*%
%TO.N,Net-(R8-Pad1)*%
X28652000Y-28194000D03*
D13*
%TO.P,R8,2*%
%TO.N,Net-(D8-K)*%
X28652000Y-23114000D03*
%TD*%
D16*
%TO.P,J21,1,Pin_1*%
%TO.N,/GND2*%
X33020000Y-14732000D03*
D17*
%TO.P,J21,2,Pin_2*%
%TO.N,/3V3*%
X33020000Y-12192000D03*
%TO.P,J21,3,Pin_3*%
%TO.N,Net-(D8-A)*%
X35560000Y-14732000D03*
%TO.P,J21,4,Pin_4*%
%TO.N,Net-(D7-A)*%
X35560000Y-12192000D03*
%TO.P,J21,5,Pin_5*%
%TO.N,Net-(D6-A)*%
X38100000Y-14732000D03*
%TO.P,J21,6,Pin_6*%
%TO.N,Net-(D5-A)*%
X38100000Y-12192000D03*
%TO.P,J21,7,Pin_7*%
%TO.N,Net-(D4-A)*%
X40640000Y-14732000D03*
%TO.P,J21,8,Pin_8*%
%TO.N,Net-(D3-A)*%
X40640000Y-12192000D03*
%TO.P,J21,9,Pin_9*%
%TO.N,Net-(D2-A)*%
X43180000Y-14732000D03*
%TO.P,J21,10,Pin_10*%
%TO.N,Net-(D1-A)*%
X43180000Y-12192000D03*
%TD*%
D14*
%TO.P,J2,1,Pin_1*%
%TO.N,/GND*%
X5548858Y-26669234D03*
D15*
%TO.P,J2,2,Pin_2*%
X5548858Y-31749234D03*
%TO.P,J2,3,Pin_3*%
X5548858Y-36829234D03*
%TD*%
D14*
%TO.P,J8,1,Pin_1*%
%TO.N,/SW_R4*%
X13462000Y-52070000D03*
D15*
%TO.P,J8,2,Pin_2*%
%TO.N,/SW_R3*%
X13462000Y-46990000D03*
%TO.P,J8,3,Pin_3*%
%TO.N,/SW_R2*%
X13462000Y-41910000D03*
%TD*%
D12*
%TO.P,R2,1*%
%TO.N,Net-(R2-Pad1)*%
X45617332Y-28194000D03*
D13*
%TO.P,R2,2*%
%TO.N,Net-(D2-K)*%
X45617332Y-23114000D03*
%TD*%
D10*
%TO.P,U1,1*%
%TO.N,Net-(R1-Pad1)*%
X40534000Y-31003000D03*
D11*
%TO.P,U1,2*%
%TO.N,/GND2*%
X40534000Y-33543000D03*
%TO.P,U1,3*%
%TO.N,Net-(R2-Pad1)*%
X40534000Y-36083000D03*
%TO.P,U1,4*%
%TO.N,/GND2*%
X40534000Y-38623000D03*
%TO.P,U1,5*%
%TO.N,Net-(R3-Pad1)*%
X40534000Y-41163000D03*
%TO.P,U1,6*%
%TO.N,/GND2*%
X40534000Y-43703000D03*
%TO.P,U1,7*%
%TO.N,Net-(R4-Pad1)*%
X40534000Y-46243000D03*
%TO.P,U1,8*%
%TO.N,/GND2*%
X40534000Y-48783000D03*
%TO.P,U1,9*%
%TO.N,Net-(J18-Pin_1)*%
X48154000Y-48783000D03*
%TO.P,U1,10*%
%TO.N,Net-(J18-Pin_2)*%
X48154000Y-46243000D03*
%TO.P,U1,11*%
%TO.N,Net-(J18-Pin_1)*%
X48154000Y-43703000D03*
%TO.P,U1,12*%
%TO.N,Net-(J18-Pin_3)*%
X48154000Y-41163000D03*
%TO.P,U1,13*%
%TO.N,Net-(J17-Pin_1)*%
X48154000Y-38623000D03*
%TO.P,U1,14*%
%TO.N,Net-(J17-Pin_2)*%
X48154000Y-36083000D03*
%TO.P,U1,15*%
%TO.N,Net-(J17-Pin_1)*%
X48154000Y-33543000D03*
%TO.P,U1,16*%
%TO.N,Net-(J17-Pin_3)*%
X48154000Y-31003000D03*
%TD*%
D18*
%TO.P,J11,1,Pin_1*%
%TO.N,/SW_P2*%
X23622000Y-44958000D03*
D17*
%TO.P,J11,2,Pin_2*%
%TO.N,/SW_P1*%
X21082000Y-44958000D03*
%TO.P,J11,3,Pin_3*%
%TO.N,/SW_P3*%
X23622000Y-42418000D03*
%TO.P,J11,4,Pin_4*%
%TO.N,/SW_R4*%
X21082000Y-42418000D03*
%TO.P,J11,5,Pin_5*%
%TO.N,/VR_1*%
X23622000Y-39878000D03*
%TO.P,J11,6,Pin_6*%
%TO.N,/SW_R3*%
X21082000Y-39878000D03*
%TO.P,J11,7,Pin_7*%
%TO.N,/VR_2*%
X23622000Y-37338000D03*
%TO.P,J11,8,Pin_8*%
%TO.N,/SW_R2*%
X21082000Y-37338000D03*
%TO.P,J11,9,Pin_9*%
%TO.N,/VR_3*%
X23622000Y-34798000D03*
%TO.P,J11,10,Pin_10*%
%TO.N,/SW_R1*%
X21082000Y-34798000D03*
%TO.P,J11,11,Pin_11*%
%TO.N,/VR_4*%
X23622000Y-32258000D03*
%TO.P,J11,12,Pin_12*%
%TO.N,/SW_T5*%
X21082000Y-32258000D03*
%TO.P,J11,13,Pin_13*%
%TO.N,/VR_5*%
X23622000Y-29718000D03*
%TO.P,J11,14,Pin_14*%
%TO.N,/SW_T4*%
X21082000Y-29718000D03*
%TO.P,J11,15,Pin_15*%
%TO.N,unconnected-(J11-Pin_15-Pad15)*%
X23622000Y-27178000D03*
%TO.P,J11,16,Pin_16*%
%TO.N,/SW_T3*%
X21082000Y-27178000D03*
%TO.P,J11,17,Pin_17*%
%TO.N,/5V*%
X23622000Y-24638000D03*
%TO.P,J11,18,Pin_18*%
%TO.N,/SW_T2*%
X21082000Y-24638000D03*
%TO.P,J11,19,Pin_19*%
%TO.N,/GND*%
X23622000Y-22098000D03*
%TO.P,J11,20,Pin_20*%
%TO.N,/SW_T1*%
X21082000Y-22098000D03*
%TD*%
D14*
%TO.P,J9,1,Pin_1*%
%TO.N,/SW_P3*%
X13462000Y-67310000D03*
D15*
%TO.P,J9,2,Pin_2*%
%TO.N,/SW_P2*%
X13462000Y-62230000D03*
%TO.P,J9,3,Pin_3*%
%TO.N,/SW_P1*%
X13462000Y-57150000D03*
%TD*%
D14*
%TO.P,J7,1,Pin_1*%
%TO.N,/SW_R1*%
X13462000Y-36830000D03*
D15*
%TO.P,J7,2,Pin_2*%
%TO.N,/SW_T5*%
X13462000Y-31750000D03*
%TO.P,J7,3,Pin_3*%
%TO.N,/SW_T4*%
X13462000Y-26670000D03*
%TD*%
D14*
%TO.P,J1,1,Pin_1*%
%TO.N,/GND*%
X5548858Y-11429234D03*
D15*
%TO.P,J1,2,Pin_2*%
X5548858Y-16509234D03*
%TO.P,J1,3,Pin_3*%
X5548858Y-21589234D03*
%TD*%
D14*
%TO.P,J4,1,Pin_1*%
%TO.N,/GND*%
X5548858Y-57149234D03*
D15*
%TO.P,J4,2,Pin_2*%
X5548858Y-62229234D03*
%TO.P,J4,3,Pin_3*%
X5548858Y-67309234D03*
%TD*%
D12*
%TO.P,R4,1*%
%TO.N,Net-(R4-Pad1)*%
X40484000Y-28194000D03*
D13*
%TO.P,R4,2*%
%TO.N,Net-(D4-K)*%
X40484000Y-23114000D03*
%TD*%
D14*
%TO.P,J12,1,Pin_1*%
%TO.N,/5V*%
X14478000Y-4445000D03*
D15*
%TO.P,J12,2,Pin_2*%
%TO.N,/VR_5*%
X9398000Y-4445000D03*
%TO.P,J12,3,Pin_3*%
%TO.N,/GND*%
X4318000Y-4445000D03*
%TD*%
D14*
%TO.P,J15,1,Pin_1*%
%TO.N,/5V*%
X60198000Y-4445000D03*
D15*
%TO.P,J15,2,Pin_2*%
%TO.N,/VR_2*%
X55118000Y-4445000D03*
%TO.P,J15,3,Pin_3*%
%TO.N,/GND*%
X50038000Y-4445000D03*
%TD*%
D12*
%TO.P,R6,1*%
%TO.N,Net-(R6-Pad1)*%
X33785332Y-28194000D03*
D13*
%TO.P,R6,2*%
%TO.N,Net-(D6-K)*%
X33785332Y-23114000D03*
%TD*%
D14*
%TO.P,J17,1,Pin_1*%
%TO.N,Net-(J17-Pin_1)*%
X53732000Y-21590000D03*
D15*
%TO.P,J17,2,Pin_2*%
%TO.N,Net-(J17-Pin_2)*%
X53732000Y-16510000D03*
%TO.P,J17,3,Pin_3*%
%TO.N,Net-(J17-Pin_3)*%
X53732000Y-11430000D03*
%TD*%
D14*
%TO.P,J22,1,Pin_1*%
%TO.N,/3V3*%
X41402000Y-66040000D03*
D15*
%TO.P,J22,2,Pin_2*%
%TO.N,/GND2*%
X46482000Y-66040000D03*
%TD*%
D14*
%TO.P,J13,1,Pin_1*%
%TO.N,/5V*%
X29718000Y-4445000D03*
D15*
%TO.P,J13,2,Pin_2*%
%TO.N,/VR_4*%
X24638000Y-4445000D03*
%TO.P,J13,3,Pin_3*%
%TO.N,/GND*%
X19558000Y-4445000D03*
%TD*%
D12*
%TO.P,R5,1*%
%TO.N,Net-(R5-Pad1)*%
X36352000Y-28194000D03*
D13*
%TO.P,R5,2*%
%TO.N,Net-(D5-K)*%
X36352000Y-23114000D03*
%TD*%
D14*
%TO.P,J20,1,Pin_1*%
%TO.N,Net-(J20-Pin_1)*%
X53732000Y-67310000D03*
D15*
%TO.P,J20,2,Pin_2*%
%TO.N,Net-(J20-Pin_2)*%
X53732000Y-62230000D03*
%TO.P,J20,3,Pin_3*%
%TO.N,Net-(J20-Pin_3)*%
X53732000Y-57150000D03*
%TD*%
D10*
%TO.P,U2,1*%
%TO.N,Net-(R5-Pad1)*%
X28702000Y-31003000D03*
D11*
%TO.P,U2,2*%
%TO.N,/GND2*%
X28702000Y-33543000D03*
%TO.P,U2,3*%
%TO.N,Net-(R6-Pad1)*%
X28702000Y-36083000D03*
%TO.P,U2,4*%
%TO.N,/GND2*%
X28702000Y-38623000D03*
%TO.P,U2,5*%
%TO.N,Net-(R7-Pad1)*%
X28702000Y-41163000D03*
%TO.P,U2,6*%
%TO.N,/GND2*%
X28702000Y-43703000D03*
%TO.P,U2,7*%
%TO.N,Net-(R8-Pad1)*%
X28702000Y-46243000D03*
%TO.P,U2,8*%
%TO.N,/GND2*%
X28702000Y-48783000D03*
%TO.P,U2,9*%
%TO.N,Net-(J20-Pin_1)*%
X36322000Y-48783000D03*
%TO.P,U2,10*%
%TO.N,Net-(J20-Pin_2)*%
X36322000Y-46243000D03*
%TO.P,U2,11*%
%TO.N,Net-(J20-Pin_1)*%
X36322000Y-43703000D03*
%TO.P,U2,12*%
%TO.N,Net-(J20-Pin_3)*%
X36322000Y-41163000D03*
%TO.P,U2,13*%
%TO.N,Net-(J19-Pin_1)*%
X36322000Y-38623000D03*
%TO.P,U2,14*%
%TO.N,Net-(J19-Pin_2)*%
X36322000Y-36083000D03*
%TO.P,U2,15*%
%TO.N,Net-(J19-Pin_1)*%
X36322000Y-33543000D03*
%TO.P,U2,16*%
%TO.N,Net-(J19-Pin_3)*%
X36322000Y-31003000D03*
%TD*%
D12*
%TO.P,R7,1*%
%TO.N,Net-(R7-Pad1)*%
X31218666Y-28194000D03*
D13*
%TO.P,R7,2*%
%TO.N,Net-(D7-K)*%
X31218666Y-23114000D03*
%TD*%
D14*
%TO.P,J14,1,Pin_1*%
%TO.N,/5V*%
X44958000Y-4445000D03*
D15*
%TO.P,J14,2,Pin_2*%
%TO.N,/VR_3*%
X39878000Y-4445000D03*
%TO.P,J14,3,Pin_3*%
%TO.N,/GND*%
X34798000Y-4445000D03*
%TD*%
D14*
%TO.P,J3,1,Pin_1*%
%TO.N,/GND*%
X5548858Y-41909234D03*
D15*
%TO.P,J3,2,Pin_2*%
X5548858Y-46989234D03*
%TO.P,J3,3,Pin_3*%
X5548858Y-52069234D03*
%TD*%
D12*
%TO.P,R3,1*%
%TO.N,Net-(R3-Pad1)*%
X43050666Y-28194000D03*
D13*
%TO.P,R3,2*%
%TO.N,Net-(D3-K)*%
X43050666Y-23114000D03*
%TD*%
D14*
%TO.P,J19,1,Pin_1*%
%TO.N,Net-(J19-Pin_1)*%
X53732000Y-52070000D03*
D15*
%TO.P,J19,2,Pin_2*%
%TO.N,Net-(J19-Pin_2)*%
X53732000Y-46990000D03*
%TO.P,J19,3,Pin_3*%
%TO.N,Net-(J19-Pin_3)*%
X53732000Y-41910000D03*
%TD*%
D12*
%TO.P,R1,1*%
%TO.N,Net-(R1-Pad1)*%
X48184000Y-28194000D03*
D13*
%TO.P,R1,2*%
%TO.N,Net-(D1-K)*%
X48184000Y-23114000D03*
%TD*%
D14*
%TO.P,J18,1,Pin_1*%
%TO.N,Net-(J18-Pin_1)*%
X53732000Y-36830000D03*
D15*
%TO.P,J18,2,Pin_2*%
%TO.N,Net-(J18-Pin_2)*%
X53732000Y-31750000D03*
%TO.P,J18,3,Pin_3*%
%TO.N,Net-(J18-Pin_3)*%
X53732000Y-26670000D03*
%TD*%
D14*
%TO.P,J6,1,Pin_1*%
%TO.N,/SW_T3*%
X13462000Y-21590000D03*
D15*
%TO.P,J6,2,Pin_2*%
%TO.N,/SW_T2*%
X13462000Y-16510000D03*
%TO.P,J6,3,Pin_3*%
%TO.N,/SW_T1*%
X13462000Y-11430000D03*
%TD*%
D19*
%TO.N,Net-(J20-Pin_3)*%
X51308000Y-57150000D02*
X41656000Y-47498000D01*
%TO.N,Net-(J23-Pin_2)*%
X36322000Y-56891000D02*
X37447000Y-58016000D01*
X37447000Y-64915000D02*
X36322000Y-66040000D01*
X37447000Y-58016000D02*
X37447000Y-64915000D01*
%TO.N,Net-(J23-Pin_1)*%
X36322000Y-59431000D02*
X36322000Y-60960000D01*
X36322000Y-60960000D02*
X31242000Y-66040000D01*
%TO.N,/SW_T5*%
X28702000Y-59431000D02*
X27442000Y-59431000D01*
X27442000Y-59431000D02*
X19812000Y-51801000D01*
X19812000Y-51801000D02*
X19812000Y-33528000D01*
X19812000Y-33528000D02*
X21082000Y-32258000D01*
%TO.N,Net-(R9-Pad1)*%
X35052000Y-53340000D02*
X31501000Y-56891000D01*
X31501000Y-56891000D02*
X28702000Y-56891000D01*
%TO.N,/5V*%
X22257000Y-26003000D02*
X23622000Y-24638000D01*
X29972000Y-53340000D02*
X22257000Y-45625000D01*
X22257000Y-45625000D02*
X22257000Y-26003000D01*
%TO.N,/VR_1*%
X27940000Y-7366000D02*
X65864000Y-7366000D01*
X67437000Y-7366000D02*
X65864000Y-7366000D01*
X23622000Y-39878000D02*
X25400000Y-38100000D01*
X25400000Y-9906000D02*
X27940000Y-7366000D01*
X25400000Y-38100000D02*
X25400000Y-9906000D01*
X70358000Y-4445000D02*
X67437000Y-7366000D01*
%TO.N,/VR_3*%
X24892000Y-9652000D02*
X24892000Y-33528000D01*
X24892000Y-33528000D02*
X23622000Y-34798000D01*
X39878000Y-4445000D02*
X37465000Y-6858000D01*
X27686000Y-6858000D02*
X24892000Y-9652000D01*
X37592000Y-6858000D02*
X27686000Y-6858000D01*
%TO.N,/5V*%
X22352000Y-23368000D02*
X22352000Y-17272000D01*
X46863000Y-2540000D02*
X58293000Y-2540000D01*
X44958000Y-4445000D02*
X46863000Y-2540000D01*
X60198000Y-4445000D02*
X62103000Y-2540000D01*
X43053000Y-2540000D02*
X44958000Y-4445000D01*
X73533000Y-2540000D02*
X75438000Y-4445000D01*
X23622000Y-24638000D02*
X22352000Y-23368000D01*
X31623000Y-2540000D02*
X43053000Y-2540000D01*
X62103000Y-2540000D02*
X73533000Y-2540000D01*
X27813000Y-2540000D02*
X29718000Y-4445000D01*
X22352000Y-17272000D02*
X14478000Y-9398000D01*
X14478000Y-4445000D02*
X16383000Y-2540000D01*
X29718000Y-4445000D02*
X31623000Y-2540000D01*
X14478000Y-9398000D02*
X14478000Y-4445000D01*
X16383000Y-2540000D02*
X27813000Y-2540000D01*
X58293000Y-2540000D02*
X60198000Y-4445000D01*
%TO.N,Net-(J18-Pin_1)*%
X50038000Y-37592000D02*
X50800000Y-36830000D01*
X48154000Y-48783000D02*
X50038000Y-46899000D01*
X50038000Y-46899000D02*
X50038000Y-37592000D01*
X50800000Y-36830000D02*
X54748000Y-36830000D01*
%TO.N,Net-(J17-Pin_1)*%
X50038000Y-36739000D02*
X48154000Y-38623000D01*
X54748000Y-21590000D02*
X50038000Y-26300000D01*
X50038000Y-26300000D02*
X50038000Y-36739000D01*
%TO.N,Net-(J17-Pin_3)*%
X49530000Y-29627000D02*
X49530000Y-27686000D01*
X53732000Y-11430000D02*
X53478000Y-11430000D01*
X53478000Y-11430000D02*
X49530000Y-15378000D01*
X49530000Y-15378000D02*
X49530000Y-27686000D01*
X48154000Y-31003000D02*
X49530000Y-29627000D01*
%TO.N,/GND2*%
X28702000Y-38623000D02*
X29962000Y-37363000D01*
X40534000Y-33543000D02*
X41794000Y-34803000D01*
X29962000Y-34803000D02*
X28702000Y-33543000D01*
X41794000Y-34803000D02*
X41794000Y-37363000D01*
X41794000Y-37363000D02*
X40534000Y-38623000D01*
X29962000Y-37363000D02*
X29962000Y-34803000D01*
X40534000Y-48783000D02*
X39080399Y-50236601D01*
X39080399Y-50236601D02*
X30155601Y-50236601D01*
X30155601Y-50236601D02*
X28702000Y-48783000D01*
%TO.N,Net-(J20-Pin_3)*%
X41656000Y-47498000D02*
X39116000Y-47498000D01*
X38100000Y-46482000D02*
X38100000Y-42941000D01*
X39116000Y-47498000D02*
X38100000Y-46482000D01*
X53732000Y-57150000D02*
X51308000Y-57150000D01*
X36068000Y-41163000D02*
X36083000Y-41163000D01*
X38100000Y-42941000D02*
X36322000Y-41163000D01*
%TO.N,Net-(R1-Pad1)*%
X45375000Y-31003000D02*
X40534000Y-31003000D01*
X48184000Y-28194000D02*
X45375000Y-31003000D01*
X48139716Y-28194000D02*
X48139716Y-28198284D01*
%TO.N,Net-(R3-Pad1)*%
X39663000Y-29718000D02*
X39116000Y-30265000D01*
X39116000Y-39745000D02*
X40534000Y-41163000D01*
X43062572Y-28194000D02*
X41538572Y-29718000D01*
X41538572Y-29718000D02*
X39663000Y-29718000D01*
X39116000Y-30265000D02*
X39116000Y-39745000D01*
%TO.N,Net-(R4-Pad1)*%
X40534000Y-46243000D02*
X38608000Y-44317000D01*
X38608000Y-30110000D02*
X40524000Y-28194000D01*
X38608000Y-44317000D02*
X38608000Y-30110000D01*
%TO.N,Net-(R5-Pad1)*%
X36312000Y-28456000D02*
X33765000Y-31003000D01*
X33765000Y-31003000D02*
X28702000Y-31003000D01*
X36312000Y-28194000D02*
X36312000Y-28456000D01*
%TO.N,Net-(R7-Pad1)*%
X28702000Y-41163000D02*
X27432000Y-39893000D01*
X27737000Y-29464000D02*
X27432000Y-29769000D01*
X31232000Y-27940000D02*
X29708000Y-29464000D01*
X27432000Y-29769000D02*
X27432000Y-39624000D01*
X29708000Y-29464000D02*
X27737000Y-29464000D01*
X27432000Y-39893000D02*
X27432000Y-39624000D01*
%TO.N,Net-(R8-Pad1)*%
X28184000Y-28194000D02*
X26924000Y-29454000D01*
X26924000Y-44465000D02*
X28702000Y-46243000D01*
X28652000Y-28194000D02*
X28184000Y-28194000D01*
X26924000Y-29454000D02*
X26924000Y-44465000D01*
%TD*%
M02*
