%TF.GenerationSoftware,KiCad,Pcbnew,7.0.6-0*%
%TF.CreationDate,2023-07-29T14:48:15+08:00*%
%TF.ProjectId,Control Panel Motherboard,436f6e74-726f-46c2-9050-616e656c204d,0*%
%TF.SameCoordinates,Original*%
%TF.FileFunction,Legend,Top*%
%TF.FilePolarity,Positive*%
%FSLAX46Y46*%
G04 Gerber Fmt 4.6, Leading zero omitted, Abs format (unit mm)*
G04 Created by KiCad (PCBNEW 7.0.6-0) date 2023-07-29 14:48:15*
%MOMM*%
%LPD*%
G01*
G04 APERTURE LIST*
%ADD10C,0.150000*%
%ADD11C,0.120000*%
G04 APERTURE END LIST*
D10*
X31750095Y-54015819D02*
X31750095Y-54825342D01*
X31750095Y-54825342D02*
X31797714Y-54920580D01*
X31797714Y-54920580D02*
X31845333Y-54968200D01*
X31845333Y-54968200D02*
X31940571Y-55015819D01*
X31940571Y-55015819D02*
X32131047Y-55015819D01*
X32131047Y-55015819D02*
X32226285Y-54968200D01*
X32226285Y-54968200D02*
X32273904Y-54920580D01*
X32273904Y-54920580D02*
X32321523Y-54825342D01*
X32321523Y-54825342D02*
X32321523Y-54015819D01*
X33226285Y-54349152D02*
X33226285Y-55015819D01*
X32988190Y-53968200D02*
X32750095Y-54682485D01*
X32750095Y-54682485D02*
X33369142Y-54682485D01*
X32345333Y-55714819D02*
X32012000Y-55238628D01*
X31773905Y-55714819D02*
X31773905Y-54714819D01*
X31773905Y-54714819D02*
X32154857Y-54714819D01*
X32154857Y-54714819D02*
X32250095Y-54762438D01*
X32250095Y-54762438D02*
X32297714Y-54810057D01*
X32297714Y-54810057D02*
X32345333Y-54905295D01*
X32345333Y-54905295D02*
X32345333Y-55048152D01*
X32345333Y-55048152D02*
X32297714Y-55143390D01*
X32297714Y-55143390D02*
X32250095Y-55191009D01*
X32250095Y-55191009D02*
X32154857Y-55238628D01*
X32154857Y-55238628D02*
X31773905Y-55238628D01*
X32821524Y-55714819D02*
X33012000Y-55714819D01*
X33012000Y-55714819D02*
X33107238Y-55667200D01*
X33107238Y-55667200D02*
X33154857Y-55619580D01*
X33154857Y-55619580D02*
X33250095Y-55476723D01*
X33250095Y-55476723D02*
X33297714Y-55286247D01*
X33297714Y-55286247D02*
X33297714Y-54905295D01*
X33297714Y-54905295D02*
X33250095Y-54810057D01*
X33250095Y-54810057D02*
X33202476Y-54762438D01*
X33202476Y-54762438D02*
X33107238Y-54714819D01*
X33107238Y-54714819D02*
X32916762Y-54714819D01*
X32916762Y-54714819D02*
X32821524Y-54762438D01*
X32821524Y-54762438D02*
X32773905Y-54810057D01*
X32773905Y-54810057D02*
X32726286Y-54905295D01*
X32726286Y-54905295D02*
X32726286Y-55143390D01*
X32726286Y-55143390D02*
X32773905Y-55238628D01*
X32773905Y-55238628D02*
X32821524Y-55286247D01*
X32821524Y-55286247D02*
X32916762Y-55333866D01*
X32916762Y-55333866D02*
X33107238Y-55333866D01*
X33107238Y-55333866D02*
X33202476Y-55286247D01*
X33202476Y-55286247D02*
X33250095Y-55238628D01*
X33250095Y-55238628D02*
X33297714Y-55143390D01*
X32972476Y-60414819D02*
X32972476Y-61129104D01*
X32972476Y-61129104D02*
X32924857Y-61271961D01*
X32924857Y-61271961D02*
X32829619Y-61367200D01*
X32829619Y-61367200D02*
X32686762Y-61414819D01*
X32686762Y-61414819D02*
X32591524Y-61414819D01*
X33401048Y-60510057D02*
X33448667Y-60462438D01*
X33448667Y-60462438D02*
X33543905Y-60414819D01*
X33543905Y-60414819D02*
X33782000Y-60414819D01*
X33782000Y-60414819D02*
X33877238Y-60462438D01*
X33877238Y-60462438D02*
X33924857Y-60510057D01*
X33924857Y-60510057D02*
X33972476Y-60605295D01*
X33972476Y-60605295D02*
X33972476Y-60700533D01*
X33972476Y-60700533D02*
X33924857Y-60843390D01*
X33924857Y-60843390D02*
X33353429Y-61414819D01*
X33353429Y-61414819D02*
X33972476Y-61414819D01*
X34305810Y-60414819D02*
X34924857Y-60414819D01*
X34924857Y-60414819D02*
X34591524Y-60795771D01*
X34591524Y-60795771D02*
X34734381Y-60795771D01*
X34734381Y-60795771D02*
X34829619Y-60843390D01*
X34829619Y-60843390D02*
X34877238Y-60891009D01*
X34877238Y-60891009D02*
X34924857Y-60986247D01*
X34924857Y-60986247D02*
X34924857Y-61224342D01*
X34924857Y-61224342D02*
X34877238Y-61319580D01*
X34877238Y-61319580D02*
X34829619Y-61367200D01*
X34829619Y-61367200D02*
X34734381Y-61414819D01*
X34734381Y-61414819D02*
X34448667Y-61414819D01*
X34448667Y-61414819D02*
X34353429Y-61367200D01*
X34353429Y-61367200D02*
X34305810Y-61319580D01*
X23288666Y-60414819D02*
X23288666Y-61129104D01*
X23288666Y-61129104D02*
X23241047Y-61271961D01*
X23241047Y-61271961D02*
X23145809Y-61367200D01*
X23145809Y-61367200D02*
X23002952Y-61414819D01*
X23002952Y-61414819D02*
X22907714Y-61414819D01*
X24241047Y-60414819D02*
X23764857Y-60414819D01*
X23764857Y-60414819D02*
X23717238Y-60891009D01*
X23717238Y-60891009D02*
X23764857Y-60843390D01*
X23764857Y-60843390D02*
X23860095Y-60795771D01*
X23860095Y-60795771D02*
X24098190Y-60795771D01*
X24098190Y-60795771D02*
X24193428Y-60843390D01*
X24193428Y-60843390D02*
X24241047Y-60891009D01*
X24241047Y-60891009D02*
X24288666Y-60986247D01*
X24288666Y-60986247D02*
X24288666Y-61224342D01*
X24288666Y-61224342D02*
X24241047Y-61319580D01*
X24241047Y-61319580D02*
X24193428Y-61367200D01*
X24193428Y-61367200D02*
X24098190Y-61414819D01*
X24098190Y-61414819D02*
X23860095Y-61414819D01*
X23860095Y-61414819D02*
X23764857Y-61367200D01*
X23764857Y-61367200D02*
X23717238Y-61319580D01*
X53957476Y-7660819D02*
X53957476Y-8375104D01*
X53957476Y-8375104D02*
X53909857Y-8517961D01*
X53909857Y-8517961D02*
X53814619Y-8613200D01*
X53814619Y-8613200D02*
X53671762Y-8660819D01*
X53671762Y-8660819D02*
X53576524Y-8660819D01*
X54957476Y-8660819D02*
X54386048Y-8660819D01*
X54671762Y-8660819D02*
X54671762Y-7660819D01*
X54671762Y-7660819D02*
X54576524Y-7803676D01*
X54576524Y-7803676D02*
X54481286Y-7898914D01*
X54481286Y-7898914D02*
X54386048Y-7946533D01*
X55814619Y-7660819D02*
X55624143Y-7660819D01*
X55624143Y-7660819D02*
X55528905Y-7708438D01*
X55528905Y-7708438D02*
X55481286Y-7756057D01*
X55481286Y-7756057D02*
X55386048Y-7898914D01*
X55386048Y-7898914D02*
X55338429Y-8089390D01*
X55338429Y-8089390D02*
X55338429Y-8470342D01*
X55338429Y-8470342D02*
X55386048Y-8565580D01*
X55386048Y-8565580D02*
X55433667Y-8613200D01*
X55433667Y-8613200D02*
X55528905Y-8660819D01*
X55528905Y-8660819D02*
X55719381Y-8660819D01*
X55719381Y-8660819D02*
X55814619Y-8613200D01*
X55814619Y-8613200D02*
X55862238Y-8565580D01*
X55862238Y-8565580D02*
X55909857Y-8470342D01*
X55909857Y-8470342D02*
X55909857Y-8232247D01*
X55909857Y-8232247D02*
X55862238Y-8137009D01*
X55862238Y-8137009D02*
X55814619Y-8089390D01*
X55814619Y-8089390D02*
X55719381Y-8041771D01*
X55719381Y-8041771D02*
X55528905Y-8041771D01*
X55528905Y-8041771D02*
X55433667Y-8089390D01*
X55433667Y-8089390D02*
X55386048Y-8137009D01*
X55386048Y-8137009D02*
X55338429Y-8232247D01*
X27456819Y-21058094D02*
X26456819Y-21058094D01*
X26456819Y-21058094D02*
X26456819Y-20819999D01*
X26456819Y-20819999D02*
X26504438Y-20677142D01*
X26504438Y-20677142D02*
X26599676Y-20581904D01*
X26599676Y-20581904D02*
X26694914Y-20534285D01*
X26694914Y-20534285D02*
X26885390Y-20486666D01*
X26885390Y-20486666D02*
X27028247Y-20486666D01*
X27028247Y-20486666D02*
X27218723Y-20534285D01*
X27218723Y-20534285D02*
X27313961Y-20581904D01*
X27313961Y-20581904D02*
X27409200Y-20677142D01*
X27409200Y-20677142D02*
X27456819Y-20819999D01*
X27456819Y-20819999D02*
X27456819Y-21058094D01*
X26885390Y-19915237D02*
X26837771Y-20010475D01*
X26837771Y-20010475D02*
X26790152Y-20058094D01*
X26790152Y-20058094D02*
X26694914Y-20105713D01*
X26694914Y-20105713D02*
X26647295Y-20105713D01*
X26647295Y-20105713D02*
X26552057Y-20058094D01*
X26552057Y-20058094D02*
X26504438Y-20010475D01*
X26504438Y-20010475D02*
X26456819Y-19915237D01*
X26456819Y-19915237D02*
X26456819Y-19724761D01*
X26456819Y-19724761D02*
X26504438Y-19629523D01*
X26504438Y-19629523D02*
X26552057Y-19581904D01*
X26552057Y-19581904D02*
X26647295Y-19534285D01*
X26647295Y-19534285D02*
X26694914Y-19534285D01*
X26694914Y-19534285D02*
X26790152Y-19581904D01*
X26790152Y-19581904D02*
X26837771Y-19629523D01*
X26837771Y-19629523D02*
X26885390Y-19724761D01*
X26885390Y-19724761D02*
X26885390Y-19915237D01*
X26885390Y-19915237D02*
X26933009Y-20010475D01*
X26933009Y-20010475D02*
X26980628Y-20058094D01*
X26980628Y-20058094D02*
X27075866Y-20105713D01*
X27075866Y-20105713D02*
X27266342Y-20105713D01*
X27266342Y-20105713D02*
X27361580Y-20058094D01*
X27361580Y-20058094D02*
X27409200Y-20010475D01*
X27409200Y-20010475D02*
X27456819Y-19915237D01*
X27456819Y-19915237D02*
X27456819Y-19724761D01*
X27456819Y-19724761D02*
X27409200Y-19629523D01*
X27409200Y-19629523D02*
X27361580Y-19581904D01*
X27361580Y-19581904D02*
X27266342Y-19534285D01*
X27266342Y-19534285D02*
X27075866Y-19534285D01*
X27075866Y-19534285D02*
X26980628Y-19581904D01*
X26980628Y-19581904D02*
X26933009Y-19629523D01*
X26933009Y-19629523D02*
X26885390Y-19724761D01*
X27186819Y-25820666D02*
X26710628Y-26153999D01*
X27186819Y-26392094D02*
X26186819Y-26392094D01*
X26186819Y-26392094D02*
X26186819Y-26011142D01*
X26186819Y-26011142D02*
X26234438Y-25915904D01*
X26234438Y-25915904D02*
X26282057Y-25868285D01*
X26282057Y-25868285D02*
X26377295Y-25820666D01*
X26377295Y-25820666D02*
X26520152Y-25820666D01*
X26520152Y-25820666D02*
X26615390Y-25868285D01*
X26615390Y-25868285D02*
X26663009Y-25915904D01*
X26663009Y-25915904D02*
X26710628Y-26011142D01*
X26710628Y-26011142D02*
X26710628Y-26392094D01*
X26615390Y-25249237D02*
X26567771Y-25344475D01*
X26567771Y-25344475D02*
X26520152Y-25392094D01*
X26520152Y-25392094D02*
X26424914Y-25439713D01*
X26424914Y-25439713D02*
X26377295Y-25439713D01*
X26377295Y-25439713D02*
X26282057Y-25392094D01*
X26282057Y-25392094D02*
X26234438Y-25344475D01*
X26234438Y-25344475D02*
X26186819Y-25249237D01*
X26186819Y-25249237D02*
X26186819Y-25058761D01*
X26186819Y-25058761D02*
X26234438Y-24963523D01*
X26234438Y-24963523D02*
X26282057Y-24915904D01*
X26282057Y-24915904D02*
X26377295Y-24868285D01*
X26377295Y-24868285D02*
X26424914Y-24868285D01*
X26424914Y-24868285D02*
X26520152Y-24915904D01*
X26520152Y-24915904D02*
X26567771Y-24963523D01*
X26567771Y-24963523D02*
X26615390Y-25058761D01*
X26615390Y-25058761D02*
X26615390Y-25249237D01*
X26615390Y-25249237D02*
X26663009Y-25344475D01*
X26663009Y-25344475D02*
X26710628Y-25392094D01*
X26710628Y-25392094D02*
X26805866Y-25439713D01*
X26805866Y-25439713D02*
X26996342Y-25439713D01*
X26996342Y-25439713D02*
X27091580Y-25392094D01*
X27091580Y-25392094D02*
X27139200Y-25344475D01*
X27139200Y-25344475D02*
X27186819Y-25249237D01*
X27186819Y-25249237D02*
X27186819Y-25058761D01*
X27186819Y-25058761D02*
X27139200Y-24963523D01*
X27139200Y-24963523D02*
X27091580Y-24915904D01*
X27091580Y-24915904D02*
X26996342Y-24868285D01*
X26996342Y-24868285D02*
X26805866Y-24868285D01*
X26805866Y-24868285D02*
X26710628Y-24915904D01*
X26710628Y-24915904D02*
X26663009Y-24963523D01*
X26663009Y-24963523D02*
X26615390Y-25058761D01*
X26374819Y-14271523D02*
X27089104Y-14271523D01*
X27089104Y-14271523D02*
X27231961Y-14319142D01*
X27231961Y-14319142D02*
X27327200Y-14414380D01*
X27327200Y-14414380D02*
X27374819Y-14557237D01*
X27374819Y-14557237D02*
X27374819Y-14652475D01*
X26470057Y-13842951D02*
X26422438Y-13795332D01*
X26422438Y-13795332D02*
X26374819Y-13700094D01*
X26374819Y-13700094D02*
X26374819Y-13461999D01*
X26374819Y-13461999D02*
X26422438Y-13366761D01*
X26422438Y-13366761D02*
X26470057Y-13319142D01*
X26470057Y-13319142D02*
X26565295Y-13271523D01*
X26565295Y-13271523D02*
X26660533Y-13271523D01*
X26660533Y-13271523D02*
X26803390Y-13319142D01*
X26803390Y-13319142D02*
X27374819Y-13890570D01*
X27374819Y-13890570D02*
X27374819Y-13271523D01*
X27374819Y-12319142D02*
X27374819Y-12890570D01*
X27374819Y-12604856D02*
X26374819Y-12604856D01*
X26374819Y-12604856D02*
X26517676Y-12700094D01*
X26517676Y-12700094D02*
X26612914Y-12795332D01*
X26612914Y-12795332D02*
X26660533Y-12890570D01*
X35156819Y-21058094D02*
X34156819Y-21058094D01*
X34156819Y-21058094D02*
X34156819Y-20819999D01*
X34156819Y-20819999D02*
X34204438Y-20677142D01*
X34204438Y-20677142D02*
X34299676Y-20581904D01*
X34299676Y-20581904D02*
X34394914Y-20534285D01*
X34394914Y-20534285D02*
X34585390Y-20486666D01*
X34585390Y-20486666D02*
X34728247Y-20486666D01*
X34728247Y-20486666D02*
X34918723Y-20534285D01*
X34918723Y-20534285D02*
X35013961Y-20581904D01*
X35013961Y-20581904D02*
X35109200Y-20677142D01*
X35109200Y-20677142D02*
X35156819Y-20819999D01*
X35156819Y-20819999D02*
X35156819Y-21058094D01*
X34156819Y-19581904D02*
X34156819Y-20058094D01*
X34156819Y-20058094D02*
X34633009Y-20105713D01*
X34633009Y-20105713D02*
X34585390Y-20058094D01*
X34585390Y-20058094D02*
X34537771Y-19962856D01*
X34537771Y-19962856D02*
X34537771Y-19724761D01*
X34537771Y-19724761D02*
X34585390Y-19629523D01*
X34585390Y-19629523D02*
X34633009Y-19581904D01*
X34633009Y-19581904D02*
X34728247Y-19534285D01*
X34728247Y-19534285D02*
X34966342Y-19534285D01*
X34966342Y-19534285D02*
X35061580Y-19581904D01*
X35061580Y-19581904D02*
X35109200Y-19629523D01*
X35109200Y-19629523D02*
X35156819Y-19724761D01*
X35156819Y-19724761D02*
X35156819Y-19962856D01*
X35156819Y-19962856D02*
X35109200Y-20058094D01*
X35109200Y-20058094D02*
X35061580Y-20105713D01*
X39288819Y-21058094D02*
X38288819Y-21058094D01*
X38288819Y-21058094D02*
X38288819Y-20819999D01*
X38288819Y-20819999D02*
X38336438Y-20677142D01*
X38336438Y-20677142D02*
X38431676Y-20581904D01*
X38431676Y-20581904D02*
X38526914Y-20534285D01*
X38526914Y-20534285D02*
X38717390Y-20486666D01*
X38717390Y-20486666D02*
X38860247Y-20486666D01*
X38860247Y-20486666D02*
X39050723Y-20534285D01*
X39050723Y-20534285D02*
X39145961Y-20581904D01*
X39145961Y-20581904D02*
X39241200Y-20677142D01*
X39241200Y-20677142D02*
X39288819Y-20819999D01*
X39288819Y-20819999D02*
X39288819Y-21058094D01*
X38622152Y-19629523D02*
X39288819Y-19629523D01*
X38241200Y-19867618D02*
X38955485Y-20105713D01*
X38955485Y-20105713D02*
X38955485Y-19486666D01*
X9653677Y-32052567D02*
X10367962Y-32052567D01*
X10367962Y-32052567D02*
X10510819Y-32100186D01*
X10510819Y-32100186D02*
X10606058Y-32195424D01*
X10606058Y-32195424D02*
X10653677Y-32338281D01*
X10653677Y-32338281D02*
X10653677Y-32433519D01*
X9748915Y-31623995D02*
X9701296Y-31576376D01*
X9701296Y-31576376D02*
X9653677Y-31481138D01*
X9653677Y-31481138D02*
X9653677Y-31243043D01*
X9653677Y-31243043D02*
X9701296Y-31147805D01*
X9701296Y-31147805D02*
X9748915Y-31100186D01*
X9748915Y-31100186D02*
X9844153Y-31052567D01*
X9844153Y-31052567D02*
X9939391Y-31052567D01*
X9939391Y-31052567D02*
X10082248Y-31100186D01*
X10082248Y-31100186D02*
X10653677Y-31671614D01*
X10653677Y-31671614D02*
X10653677Y-31052567D01*
X9409819Y-47353333D02*
X10124104Y-47353333D01*
X10124104Y-47353333D02*
X10266961Y-47400952D01*
X10266961Y-47400952D02*
X10362200Y-47496190D01*
X10362200Y-47496190D02*
X10409819Y-47639047D01*
X10409819Y-47639047D02*
X10409819Y-47734285D01*
X9838390Y-46734285D02*
X9790771Y-46829523D01*
X9790771Y-46829523D02*
X9743152Y-46877142D01*
X9743152Y-46877142D02*
X9647914Y-46924761D01*
X9647914Y-46924761D02*
X9600295Y-46924761D01*
X9600295Y-46924761D02*
X9505057Y-46877142D01*
X9505057Y-46877142D02*
X9457438Y-46829523D01*
X9457438Y-46829523D02*
X9409819Y-46734285D01*
X9409819Y-46734285D02*
X9409819Y-46543809D01*
X9409819Y-46543809D02*
X9457438Y-46448571D01*
X9457438Y-46448571D02*
X9505057Y-46400952D01*
X9505057Y-46400952D02*
X9600295Y-46353333D01*
X9600295Y-46353333D02*
X9647914Y-46353333D01*
X9647914Y-46353333D02*
X9743152Y-46400952D01*
X9743152Y-46400952D02*
X9790771Y-46448571D01*
X9790771Y-46448571D02*
X9838390Y-46543809D01*
X9838390Y-46543809D02*
X9838390Y-46734285D01*
X9838390Y-46734285D02*
X9886009Y-46829523D01*
X9886009Y-46829523D02*
X9933628Y-46877142D01*
X9933628Y-46877142D02*
X10028866Y-46924761D01*
X10028866Y-46924761D02*
X10219342Y-46924761D01*
X10219342Y-46924761D02*
X10314580Y-46877142D01*
X10314580Y-46877142D02*
X10362200Y-46829523D01*
X10362200Y-46829523D02*
X10409819Y-46734285D01*
X10409819Y-46734285D02*
X10409819Y-46543809D01*
X10409819Y-46543809D02*
X10362200Y-46448571D01*
X10362200Y-46448571D02*
X10314580Y-46400952D01*
X10314580Y-46400952D02*
X10219342Y-46353333D01*
X10219342Y-46353333D02*
X10028866Y-46353333D01*
X10028866Y-46353333D02*
X9933628Y-46400952D01*
X9933628Y-46400952D02*
X9886009Y-46448571D01*
X9886009Y-46448571D02*
X9838390Y-46543809D01*
X44152151Y-25820666D02*
X43675960Y-26153999D01*
X44152151Y-26392094D02*
X43152151Y-26392094D01*
X43152151Y-26392094D02*
X43152151Y-26011142D01*
X43152151Y-26011142D02*
X43199770Y-25915904D01*
X43199770Y-25915904D02*
X43247389Y-25868285D01*
X43247389Y-25868285D02*
X43342627Y-25820666D01*
X43342627Y-25820666D02*
X43485484Y-25820666D01*
X43485484Y-25820666D02*
X43580722Y-25868285D01*
X43580722Y-25868285D02*
X43628341Y-25915904D01*
X43628341Y-25915904D02*
X43675960Y-26011142D01*
X43675960Y-26011142D02*
X43675960Y-26392094D01*
X43247389Y-25439713D02*
X43199770Y-25392094D01*
X43199770Y-25392094D02*
X43152151Y-25296856D01*
X43152151Y-25296856D02*
X43152151Y-25058761D01*
X43152151Y-25058761D02*
X43199770Y-24963523D01*
X43199770Y-24963523D02*
X43247389Y-24915904D01*
X43247389Y-24915904D02*
X43342627Y-24868285D01*
X43342627Y-24868285D02*
X43437865Y-24868285D01*
X43437865Y-24868285D02*
X43580722Y-24915904D01*
X43580722Y-24915904D02*
X44152151Y-25487332D01*
X44152151Y-25487332D02*
X44152151Y-24868285D01*
X46988819Y-21058094D02*
X45988819Y-21058094D01*
X45988819Y-21058094D02*
X45988819Y-20819999D01*
X45988819Y-20819999D02*
X46036438Y-20677142D01*
X46036438Y-20677142D02*
X46131676Y-20581904D01*
X46131676Y-20581904D02*
X46226914Y-20534285D01*
X46226914Y-20534285D02*
X46417390Y-20486666D01*
X46417390Y-20486666D02*
X46560247Y-20486666D01*
X46560247Y-20486666D02*
X46750723Y-20534285D01*
X46750723Y-20534285D02*
X46845961Y-20581904D01*
X46845961Y-20581904D02*
X46941200Y-20677142D01*
X46941200Y-20677142D02*
X46988819Y-20819999D01*
X46988819Y-20819999D02*
X46988819Y-21058094D01*
X46988819Y-19534285D02*
X46988819Y-20105713D01*
X46988819Y-19819999D02*
X45988819Y-19819999D01*
X45988819Y-19819999D02*
X46131676Y-19915237D01*
X46131676Y-19915237D02*
X46226914Y-20010475D01*
X46226914Y-20010475D02*
X46274533Y-20105713D01*
X43582095Y-28127819D02*
X43582095Y-28937342D01*
X43582095Y-28937342D02*
X43629714Y-29032580D01*
X43629714Y-29032580D02*
X43677333Y-29080200D01*
X43677333Y-29080200D02*
X43772571Y-29127819D01*
X43772571Y-29127819D02*
X43963047Y-29127819D01*
X43963047Y-29127819D02*
X44058285Y-29080200D01*
X44058285Y-29080200D02*
X44105904Y-29032580D01*
X44105904Y-29032580D02*
X44153523Y-28937342D01*
X44153523Y-28937342D02*
X44153523Y-28127819D01*
X45153523Y-29127819D02*
X44582095Y-29127819D01*
X44867809Y-29127819D02*
X44867809Y-28127819D01*
X44867809Y-28127819D02*
X44772571Y-28270676D01*
X44772571Y-28270676D02*
X44677333Y-28365914D01*
X44677333Y-28365914D02*
X44582095Y-28413533D01*
X44422151Y-21058094D02*
X43422151Y-21058094D01*
X43422151Y-21058094D02*
X43422151Y-20819999D01*
X43422151Y-20819999D02*
X43469770Y-20677142D01*
X43469770Y-20677142D02*
X43565008Y-20581904D01*
X43565008Y-20581904D02*
X43660246Y-20534285D01*
X43660246Y-20534285D02*
X43850722Y-20486666D01*
X43850722Y-20486666D02*
X43993579Y-20486666D01*
X43993579Y-20486666D02*
X44184055Y-20534285D01*
X44184055Y-20534285D02*
X44279293Y-20581904D01*
X44279293Y-20581904D02*
X44374532Y-20677142D01*
X44374532Y-20677142D02*
X44422151Y-20819999D01*
X44422151Y-20819999D02*
X44422151Y-21058094D01*
X43517389Y-20105713D02*
X43469770Y-20058094D01*
X43469770Y-20058094D02*
X43422151Y-19962856D01*
X43422151Y-19962856D02*
X43422151Y-19724761D01*
X43422151Y-19724761D02*
X43469770Y-19629523D01*
X43469770Y-19629523D02*
X43517389Y-19581904D01*
X43517389Y-19581904D02*
X43612627Y-19534285D01*
X43612627Y-19534285D02*
X43707865Y-19534285D01*
X43707865Y-19534285D02*
X43850722Y-19581904D01*
X43850722Y-19581904D02*
X44422151Y-20153332D01*
X44422151Y-20153332D02*
X44422151Y-19534285D01*
X43347819Y-25554023D02*
X44062104Y-25554023D01*
X44062104Y-25554023D02*
X44204961Y-25601642D01*
X44204961Y-25601642D02*
X44300200Y-25696880D01*
X44300200Y-25696880D02*
X44347819Y-25839737D01*
X44347819Y-25839737D02*
X44347819Y-25934975D01*
X44347819Y-24554023D02*
X44347819Y-25125451D01*
X44347819Y-24839737D02*
X43347819Y-24839737D01*
X43347819Y-24839737D02*
X43490676Y-24934975D01*
X43490676Y-24934975D02*
X43585914Y-25030213D01*
X43585914Y-25030213D02*
X43633533Y-25125451D01*
X44347819Y-23601642D02*
X44347819Y-24173070D01*
X44347819Y-23887356D02*
X43347819Y-23887356D01*
X43347819Y-23887356D02*
X43490676Y-23982594D01*
X43490676Y-23982594D02*
X43585914Y-24077832D01*
X43585914Y-24077832D02*
X43633533Y-24173070D01*
X9409819Y-62593333D02*
X10124104Y-62593333D01*
X10124104Y-62593333D02*
X10266961Y-62640952D01*
X10266961Y-62640952D02*
X10362200Y-62736190D01*
X10362200Y-62736190D02*
X10409819Y-62879047D01*
X10409819Y-62879047D02*
X10409819Y-62974285D01*
X10409819Y-62069523D02*
X10409819Y-61879047D01*
X10409819Y-61879047D02*
X10362200Y-61783809D01*
X10362200Y-61783809D02*
X10314580Y-61736190D01*
X10314580Y-61736190D02*
X10171723Y-61640952D01*
X10171723Y-61640952D02*
X9981247Y-61593333D01*
X9981247Y-61593333D02*
X9600295Y-61593333D01*
X9600295Y-61593333D02*
X9505057Y-61640952D01*
X9505057Y-61640952D02*
X9457438Y-61688571D01*
X9457438Y-61688571D02*
X9409819Y-61783809D01*
X9409819Y-61783809D02*
X9409819Y-61974285D01*
X9409819Y-61974285D02*
X9457438Y-62069523D01*
X9457438Y-62069523D02*
X9505057Y-62117142D01*
X9505057Y-62117142D02*
X9600295Y-62164761D01*
X9600295Y-62164761D02*
X9838390Y-62164761D01*
X9838390Y-62164761D02*
X9933628Y-62117142D01*
X9933628Y-62117142D02*
X9981247Y-62069523D01*
X9981247Y-62069523D02*
X10028866Y-61974285D01*
X10028866Y-61974285D02*
X10028866Y-61783809D01*
X10028866Y-61783809D02*
X9981247Y-61688571D01*
X9981247Y-61688571D02*
X9933628Y-61640952D01*
X9933628Y-61640952D02*
X9838390Y-61593333D01*
X9409819Y-32113333D02*
X10124104Y-32113333D01*
X10124104Y-32113333D02*
X10266961Y-32160952D01*
X10266961Y-32160952D02*
X10362200Y-32256190D01*
X10362200Y-32256190D02*
X10409819Y-32399047D01*
X10409819Y-32399047D02*
X10409819Y-32494285D01*
X9409819Y-31732380D02*
X9409819Y-31065714D01*
X9409819Y-31065714D02*
X10409819Y-31494285D01*
X9653677Y-16812567D02*
X10367962Y-16812567D01*
X10367962Y-16812567D02*
X10510819Y-16860186D01*
X10510819Y-16860186D02*
X10606058Y-16955424D01*
X10606058Y-16955424D02*
X10653677Y-17098281D01*
X10653677Y-17098281D02*
X10653677Y-17193519D01*
X10653677Y-15812567D02*
X10653677Y-16383995D01*
X10653677Y-16098281D02*
X9653677Y-16098281D01*
X9653677Y-16098281D02*
X9796534Y-16193519D01*
X9796534Y-16193519D02*
X9891772Y-16288757D01*
X9891772Y-16288757D02*
X9939391Y-16383995D01*
X9653677Y-62532567D02*
X10367962Y-62532567D01*
X10367962Y-62532567D02*
X10510819Y-62580186D01*
X10510819Y-62580186D02*
X10606058Y-62675424D01*
X10606058Y-62675424D02*
X10653677Y-62818281D01*
X10653677Y-62818281D02*
X10653677Y-62913519D01*
X9987010Y-61627805D02*
X10653677Y-61627805D01*
X9606058Y-61865900D02*
X10320343Y-62103995D01*
X10320343Y-62103995D02*
X10320343Y-61484948D01*
X39018819Y-25820666D02*
X38542628Y-26153999D01*
X39018819Y-26392094D02*
X38018819Y-26392094D01*
X38018819Y-26392094D02*
X38018819Y-26011142D01*
X38018819Y-26011142D02*
X38066438Y-25915904D01*
X38066438Y-25915904D02*
X38114057Y-25868285D01*
X38114057Y-25868285D02*
X38209295Y-25820666D01*
X38209295Y-25820666D02*
X38352152Y-25820666D01*
X38352152Y-25820666D02*
X38447390Y-25868285D01*
X38447390Y-25868285D02*
X38495009Y-25915904D01*
X38495009Y-25915904D02*
X38542628Y-26011142D01*
X38542628Y-26011142D02*
X38542628Y-26392094D01*
X38352152Y-24963523D02*
X39018819Y-24963523D01*
X37971200Y-25201618D02*
X38685485Y-25439713D01*
X38685485Y-25439713D02*
X38685485Y-24820666D01*
X9468334Y-53634053D02*
X9468334Y-54348338D01*
X9468334Y-54348338D02*
X9420715Y-54491195D01*
X9420715Y-54491195D02*
X9325477Y-54586434D01*
X9325477Y-54586434D02*
X9182620Y-54634053D01*
X9182620Y-54634053D02*
X9087382Y-54634053D01*
X10468334Y-54634053D02*
X9896906Y-54634053D01*
X10182620Y-54634053D02*
X10182620Y-53634053D01*
X10182620Y-53634053D02*
X10087382Y-53776910D01*
X10087382Y-53776910D02*
X9992144Y-53872148D01*
X9992144Y-53872148D02*
X9896906Y-53919767D01*
X10849287Y-53729291D02*
X10896906Y-53681672D01*
X10896906Y-53681672D02*
X10992144Y-53634053D01*
X10992144Y-53634053D02*
X11230239Y-53634053D01*
X11230239Y-53634053D02*
X11325477Y-53681672D01*
X11325477Y-53681672D02*
X11373096Y-53729291D01*
X11373096Y-53729291D02*
X11420715Y-53824529D01*
X11420715Y-53824529D02*
X11420715Y-53919767D01*
X11420715Y-53919767D02*
X11373096Y-54062624D01*
X11373096Y-54062624D02*
X10801668Y-54634053D01*
X10801668Y-54634053D02*
X11420715Y-54634053D01*
X54338476Y-8549819D02*
X54338476Y-9264104D01*
X54338476Y-9264104D02*
X54290857Y-9406961D01*
X54290857Y-9406961D02*
X54195619Y-9502200D01*
X54195619Y-9502200D02*
X54052762Y-9549819D01*
X54052762Y-9549819D02*
X53957524Y-9549819D01*
X55338476Y-9549819D02*
X54767048Y-9549819D01*
X55052762Y-9549819D02*
X55052762Y-8549819D01*
X55052762Y-8549819D02*
X54957524Y-8692676D01*
X54957524Y-8692676D02*
X54862286Y-8787914D01*
X54862286Y-8787914D02*
X54767048Y-8835533D01*
X56243238Y-8549819D02*
X55767048Y-8549819D01*
X55767048Y-8549819D02*
X55719429Y-9026009D01*
X55719429Y-9026009D02*
X55767048Y-8978390D01*
X55767048Y-8978390D02*
X55862286Y-8930771D01*
X55862286Y-8930771D02*
X56100381Y-8930771D01*
X56100381Y-8930771D02*
X56195619Y-8978390D01*
X56195619Y-8978390D02*
X56243238Y-9026009D01*
X56243238Y-9026009D02*
X56290857Y-9121247D01*
X56290857Y-9121247D02*
X56290857Y-9359342D01*
X56290857Y-9359342D02*
X56243238Y-9454580D01*
X56243238Y-9454580D02*
X56195619Y-9502200D01*
X56195619Y-9502200D02*
X56100381Y-9549819D01*
X56100381Y-9549819D02*
X55862286Y-9549819D01*
X55862286Y-9549819D02*
X55767048Y-9502200D01*
X55767048Y-9502200D02*
X55719429Y-9454580D01*
X32320151Y-25820666D02*
X31843960Y-26153999D01*
X32320151Y-26392094D02*
X31320151Y-26392094D01*
X31320151Y-26392094D02*
X31320151Y-26011142D01*
X31320151Y-26011142D02*
X31367770Y-25915904D01*
X31367770Y-25915904D02*
X31415389Y-25868285D01*
X31415389Y-25868285D02*
X31510627Y-25820666D01*
X31510627Y-25820666D02*
X31653484Y-25820666D01*
X31653484Y-25820666D02*
X31748722Y-25868285D01*
X31748722Y-25868285D02*
X31796341Y-25915904D01*
X31796341Y-25915904D02*
X31843960Y-26011142D01*
X31843960Y-26011142D02*
X31843960Y-26392094D01*
X31320151Y-24963523D02*
X31320151Y-25153999D01*
X31320151Y-25153999D02*
X31367770Y-25249237D01*
X31367770Y-25249237D02*
X31415389Y-25296856D01*
X31415389Y-25296856D02*
X31558246Y-25392094D01*
X31558246Y-25392094D02*
X31748722Y-25439713D01*
X31748722Y-25439713D02*
X32129674Y-25439713D01*
X32129674Y-25439713D02*
X32224912Y-25392094D01*
X32224912Y-25392094D02*
X32272532Y-25344475D01*
X32272532Y-25344475D02*
X32320151Y-25249237D01*
X32320151Y-25249237D02*
X32320151Y-25058761D01*
X32320151Y-25058761D02*
X32272532Y-24963523D01*
X32272532Y-24963523D02*
X32224912Y-24915904D01*
X32224912Y-24915904D02*
X32129674Y-24868285D01*
X32129674Y-24868285D02*
X31891579Y-24868285D01*
X31891579Y-24868285D02*
X31796341Y-24915904D01*
X31796341Y-24915904D02*
X31748722Y-24963523D01*
X31748722Y-24963523D02*
X31701103Y-25058761D01*
X31701103Y-25058761D02*
X31701103Y-25249237D01*
X31701103Y-25249237D02*
X31748722Y-25344475D01*
X31748722Y-25344475D02*
X31796341Y-25392094D01*
X31796341Y-25392094D02*
X31891579Y-25439713D01*
X48536819Y-17349523D02*
X49251104Y-17349523D01*
X49251104Y-17349523D02*
X49393961Y-17397142D01*
X49393961Y-17397142D02*
X49489200Y-17492380D01*
X49489200Y-17492380D02*
X49536819Y-17635237D01*
X49536819Y-17635237D02*
X49536819Y-17730475D01*
X49536819Y-16349523D02*
X49536819Y-16920951D01*
X49536819Y-16635237D02*
X48536819Y-16635237D01*
X48536819Y-16635237D02*
X48679676Y-16730475D01*
X48679676Y-16730475D02*
X48774914Y-16825713D01*
X48774914Y-16825713D02*
X48822533Y-16920951D01*
X48536819Y-16016189D02*
X48536819Y-15349523D01*
X48536819Y-15349523D02*
X49536819Y-15778094D01*
X42878476Y-47206819D02*
X42878476Y-47921104D01*
X42878476Y-47921104D02*
X42830857Y-48063961D01*
X42830857Y-48063961D02*
X42735619Y-48159200D01*
X42735619Y-48159200D02*
X42592762Y-48206819D01*
X42592762Y-48206819D02*
X42497524Y-48206819D01*
X43307048Y-47302057D02*
X43354667Y-47254438D01*
X43354667Y-47254438D02*
X43449905Y-47206819D01*
X43449905Y-47206819D02*
X43688000Y-47206819D01*
X43688000Y-47206819D02*
X43783238Y-47254438D01*
X43783238Y-47254438D02*
X43830857Y-47302057D01*
X43830857Y-47302057D02*
X43878476Y-47397295D01*
X43878476Y-47397295D02*
X43878476Y-47492533D01*
X43878476Y-47492533D02*
X43830857Y-47635390D01*
X43830857Y-47635390D02*
X43259429Y-48206819D01*
X43259429Y-48206819D02*
X43878476Y-48206819D01*
X44259429Y-47302057D02*
X44307048Y-47254438D01*
X44307048Y-47254438D02*
X44402286Y-47206819D01*
X44402286Y-47206819D02*
X44640381Y-47206819D01*
X44640381Y-47206819D02*
X44735619Y-47254438D01*
X44735619Y-47254438D02*
X44783238Y-47302057D01*
X44783238Y-47302057D02*
X44830857Y-47397295D01*
X44830857Y-47397295D02*
X44830857Y-47492533D01*
X44830857Y-47492533D02*
X44783238Y-47635390D01*
X44783238Y-47635390D02*
X44211810Y-48206819D01*
X44211810Y-48206819D02*
X44830857Y-48206819D01*
X35903819Y-13763523D02*
X36618104Y-13763523D01*
X36618104Y-13763523D02*
X36760961Y-13811142D01*
X36760961Y-13811142D02*
X36856200Y-13906380D01*
X36856200Y-13906380D02*
X36903819Y-14049237D01*
X36903819Y-14049237D02*
X36903819Y-14144475D01*
X36903819Y-12763523D02*
X36903819Y-13334951D01*
X36903819Y-13049237D02*
X35903819Y-13049237D01*
X35903819Y-13049237D02*
X36046676Y-13144475D01*
X36046676Y-13144475D02*
X36141914Y-13239713D01*
X36141914Y-13239713D02*
X36189533Y-13334951D01*
X35903819Y-12430189D02*
X35903819Y-11811142D01*
X35903819Y-11811142D02*
X36284771Y-12144475D01*
X36284771Y-12144475D02*
X36284771Y-12001618D01*
X36284771Y-12001618D02*
X36332390Y-11906380D01*
X36332390Y-11906380D02*
X36380009Y-11858761D01*
X36380009Y-11858761D02*
X36475247Y-11811142D01*
X36475247Y-11811142D02*
X36713342Y-11811142D01*
X36713342Y-11811142D02*
X36808580Y-11858761D01*
X36808580Y-11858761D02*
X36856200Y-11906380D01*
X36856200Y-11906380D02*
X36903819Y-12001618D01*
X36903819Y-12001618D02*
X36903819Y-12287332D01*
X36903819Y-12287332D02*
X36856200Y-12382570D01*
X36856200Y-12382570D02*
X36808580Y-12430189D01*
X34886819Y-25820666D02*
X34410628Y-26153999D01*
X34886819Y-26392094D02*
X33886819Y-26392094D01*
X33886819Y-26392094D02*
X33886819Y-26011142D01*
X33886819Y-26011142D02*
X33934438Y-25915904D01*
X33934438Y-25915904D02*
X33982057Y-25868285D01*
X33982057Y-25868285D02*
X34077295Y-25820666D01*
X34077295Y-25820666D02*
X34220152Y-25820666D01*
X34220152Y-25820666D02*
X34315390Y-25868285D01*
X34315390Y-25868285D02*
X34363009Y-25915904D01*
X34363009Y-25915904D02*
X34410628Y-26011142D01*
X34410628Y-26011142D02*
X34410628Y-26392094D01*
X33886819Y-24915904D02*
X33886819Y-25392094D01*
X33886819Y-25392094D02*
X34363009Y-25439713D01*
X34363009Y-25439713D02*
X34315390Y-25392094D01*
X34315390Y-25392094D02*
X34267771Y-25296856D01*
X34267771Y-25296856D02*
X34267771Y-25058761D01*
X34267771Y-25058761D02*
X34315390Y-24963523D01*
X34315390Y-24963523D02*
X34363009Y-24915904D01*
X34363009Y-24915904D02*
X34458247Y-24868285D01*
X34458247Y-24868285D02*
X34696342Y-24868285D01*
X34696342Y-24868285D02*
X34791580Y-24915904D01*
X34791580Y-24915904D02*
X34839200Y-24963523D01*
X34839200Y-24963523D02*
X34886819Y-25058761D01*
X34886819Y-25058761D02*
X34886819Y-25296856D01*
X34886819Y-25296856D02*
X34839200Y-25392094D01*
X34839200Y-25392094D02*
X34791580Y-25439713D01*
X48536819Y-63069523D02*
X49251104Y-63069523D01*
X49251104Y-63069523D02*
X49393961Y-63117142D01*
X49393961Y-63117142D02*
X49489200Y-63212380D01*
X49489200Y-63212380D02*
X49536819Y-63355237D01*
X49536819Y-63355237D02*
X49536819Y-63450475D01*
X48632057Y-62640951D02*
X48584438Y-62593332D01*
X48584438Y-62593332D02*
X48536819Y-62498094D01*
X48536819Y-62498094D02*
X48536819Y-62259999D01*
X48536819Y-62259999D02*
X48584438Y-62164761D01*
X48584438Y-62164761D02*
X48632057Y-62117142D01*
X48632057Y-62117142D02*
X48727295Y-62069523D01*
X48727295Y-62069523D02*
X48822533Y-62069523D01*
X48822533Y-62069523D02*
X48965390Y-62117142D01*
X48965390Y-62117142D02*
X49536819Y-62688570D01*
X49536819Y-62688570D02*
X49536819Y-62069523D01*
X48536819Y-61450475D02*
X48536819Y-61355237D01*
X48536819Y-61355237D02*
X48584438Y-61259999D01*
X48584438Y-61259999D02*
X48632057Y-61212380D01*
X48632057Y-61212380D02*
X48727295Y-61164761D01*
X48727295Y-61164761D02*
X48917771Y-61117142D01*
X48917771Y-61117142D02*
X49155866Y-61117142D01*
X49155866Y-61117142D02*
X49346342Y-61164761D01*
X49346342Y-61164761D02*
X49441580Y-61212380D01*
X49441580Y-61212380D02*
X49489200Y-61259999D01*
X49489200Y-61259999D02*
X49536819Y-61355237D01*
X49536819Y-61355237D02*
X49536819Y-61450475D01*
X49536819Y-61450475D02*
X49489200Y-61545713D01*
X49489200Y-61545713D02*
X49441580Y-61593332D01*
X49441580Y-61593332D02*
X49346342Y-61640951D01*
X49346342Y-61640951D02*
X49155866Y-61688570D01*
X49155866Y-61688570D02*
X48917771Y-61688570D01*
X48917771Y-61688570D02*
X48727295Y-61640951D01*
X48727295Y-61640951D02*
X48632057Y-61593332D01*
X48632057Y-61593332D02*
X48584438Y-61545713D01*
X48584438Y-61545713D02*
X48536819Y-61450475D01*
X31750095Y-28127819D02*
X31750095Y-28937342D01*
X31750095Y-28937342D02*
X31797714Y-29032580D01*
X31797714Y-29032580D02*
X31845333Y-29080200D01*
X31845333Y-29080200D02*
X31940571Y-29127819D01*
X31940571Y-29127819D02*
X32131047Y-29127819D01*
X32131047Y-29127819D02*
X32226285Y-29080200D01*
X32226285Y-29080200D02*
X32273904Y-29032580D01*
X32273904Y-29032580D02*
X32321523Y-28937342D01*
X32321523Y-28937342D02*
X32321523Y-28127819D01*
X32750095Y-28223057D02*
X32797714Y-28175438D01*
X32797714Y-28175438D02*
X32892952Y-28127819D01*
X32892952Y-28127819D02*
X33131047Y-28127819D01*
X33131047Y-28127819D02*
X33226285Y-28175438D01*
X33226285Y-28175438D02*
X33273904Y-28223057D01*
X33273904Y-28223057D02*
X33321523Y-28318295D01*
X33321523Y-28318295D02*
X33321523Y-28413533D01*
X33321523Y-28413533D02*
X33273904Y-28556390D01*
X33273904Y-28556390D02*
X32702476Y-29127819D01*
X32702476Y-29127819D02*
X33321523Y-29127819D01*
X29753485Y-25820666D02*
X29277294Y-26153999D01*
X29753485Y-26392094D02*
X28753485Y-26392094D01*
X28753485Y-26392094D02*
X28753485Y-26011142D01*
X28753485Y-26011142D02*
X28801104Y-25915904D01*
X28801104Y-25915904D02*
X28848723Y-25868285D01*
X28848723Y-25868285D02*
X28943961Y-25820666D01*
X28943961Y-25820666D02*
X29086818Y-25820666D01*
X29086818Y-25820666D02*
X29182056Y-25868285D01*
X29182056Y-25868285D02*
X29229675Y-25915904D01*
X29229675Y-25915904D02*
X29277294Y-26011142D01*
X29277294Y-26011142D02*
X29277294Y-26392094D01*
X28753485Y-25487332D02*
X28753485Y-24820666D01*
X28753485Y-24820666D02*
X29753485Y-25249237D01*
X39098476Y-8549819D02*
X39098476Y-9264104D01*
X39098476Y-9264104D02*
X39050857Y-9406961D01*
X39050857Y-9406961D02*
X38955619Y-9502200D01*
X38955619Y-9502200D02*
X38812762Y-9549819D01*
X38812762Y-9549819D02*
X38717524Y-9549819D01*
X40098476Y-9549819D02*
X39527048Y-9549819D01*
X39812762Y-9549819D02*
X39812762Y-8549819D01*
X39812762Y-8549819D02*
X39717524Y-8692676D01*
X39717524Y-8692676D02*
X39622286Y-8787914D01*
X39622286Y-8787914D02*
X39527048Y-8835533D01*
X40955619Y-8883152D02*
X40955619Y-9549819D01*
X40717524Y-8502200D02*
X40479429Y-9216485D01*
X40479429Y-9216485D02*
X41098476Y-9216485D01*
X9653677Y-47292567D02*
X10367962Y-47292567D01*
X10367962Y-47292567D02*
X10510819Y-47340186D01*
X10510819Y-47340186D02*
X10606058Y-47435424D01*
X10606058Y-47435424D02*
X10653677Y-47578281D01*
X10653677Y-47578281D02*
X10653677Y-47673519D01*
X9653677Y-46911614D02*
X9653677Y-46292567D01*
X9653677Y-46292567D02*
X10034629Y-46625900D01*
X10034629Y-46625900D02*
X10034629Y-46483043D01*
X10034629Y-46483043D02*
X10082248Y-46387805D01*
X10082248Y-46387805D02*
X10129867Y-46340186D01*
X10129867Y-46340186D02*
X10225105Y-46292567D01*
X10225105Y-46292567D02*
X10463200Y-46292567D01*
X10463200Y-46292567D02*
X10558438Y-46340186D01*
X10558438Y-46340186D02*
X10606058Y-46387805D01*
X10606058Y-46387805D02*
X10653677Y-46483043D01*
X10653677Y-46483043D02*
X10653677Y-46768757D01*
X10653677Y-46768757D02*
X10606058Y-46863995D01*
X10606058Y-46863995D02*
X10558438Y-46911614D01*
X41585485Y-25820666D02*
X41109294Y-26153999D01*
X41585485Y-26392094D02*
X40585485Y-26392094D01*
X40585485Y-26392094D02*
X40585485Y-26011142D01*
X40585485Y-26011142D02*
X40633104Y-25915904D01*
X40633104Y-25915904D02*
X40680723Y-25868285D01*
X40680723Y-25868285D02*
X40775961Y-25820666D01*
X40775961Y-25820666D02*
X40918818Y-25820666D01*
X40918818Y-25820666D02*
X41014056Y-25868285D01*
X41014056Y-25868285D02*
X41061675Y-25915904D01*
X41061675Y-25915904D02*
X41109294Y-26011142D01*
X41109294Y-26011142D02*
X41109294Y-26392094D01*
X40585485Y-25487332D02*
X40585485Y-24868285D01*
X40585485Y-24868285D02*
X40966437Y-25201618D01*
X40966437Y-25201618D02*
X40966437Y-25058761D01*
X40966437Y-25058761D02*
X41014056Y-24963523D01*
X41014056Y-24963523D02*
X41061675Y-24915904D01*
X41061675Y-24915904D02*
X41156913Y-24868285D01*
X41156913Y-24868285D02*
X41395008Y-24868285D01*
X41395008Y-24868285D02*
X41490246Y-24915904D01*
X41490246Y-24915904D02*
X41537866Y-24963523D01*
X41537866Y-24963523D02*
X41585485Y-25058761D01*
X41585485Y-25058761D02*
X41585485Y-25344475D01*
X41585485Y-25344475D02*
X41537866Y-25439713D01*
X41537866Y-25439713D02*
X41490246Y-25487332D01*
X32590151Y-21058094D02*
X31590151Y-21058094D01*
X31590151Y-21058094D02*
X31590151Y-20819999D01*
X31590151Y-20819999D02*
X31637770Y-20677142D01*
X31637770Y-20677142D02*
X31733008Y-20581904D01*
X31733008Y-20581904D02*
X31828246Y-20534285D01*
X31828246Y-20534285D02*
X32018722Y-20486666D01*
X32018722Y-20486666D02*
X32161579Y-20486666D01*
X32161579Y-20486666D02*
X32352055Y-20534285D01*
X32352055Y-20534285D02*
X32447293Y-20581904D01*
X32447293Y-20581904D02*
X32542532Y-20677142D01*
X32542532Y-20677142D02*
X32590151Y-20819999D01*
X32590151Y-20819999D02*
X32590151Y-21058094D01*
X31590151Y-19629523D02*
X31590151Y-19819999D01*
X31590151Y-19819999D02*
X31637770Y-19915237D01*
X31637770Y-19915237D02*
X31685389Y-19962856D01*
X31685389Y-19962856D02*
X31828246Y-20058094D01*
X31828246Y-20058094D02*
X32018722Y-20105713D01*
X32018722Y-20105713D02*
X32399674Y-20105713D01*
X32399674Y-20105713D02*
X32494912Y-20058094D01*
X32494912Y-20058094D02*
X32542532Y-20010475D01*
X32542532Y-20010475D02*
X32590151Y-19915237D01*
X32590151Y-19915237D02*
X32590151Y-19724761D01*
X32590151Y-19724761D02*
X32542532Y-19629523D01*
X32542532Y-19629523D02*
X32494912Y-19581904D01*
X32494912Y-19581904D02*
X32399674Y-19534285D01*
X32399674Y-19534285D02*
X32161579Y-19534285D01*
X32161579Y-19534285D02*
X32066341Y-19581904D01*
X32066341Y-19581904D02*
X32018722Y-19629523D01*
X32018722Y-19629523D02*
X31971103Y-19724761D01*
X31971103Y-19724761D02*
X31971103Y-19915237D01*
X31971103Y-19915237D02*
X32018722Y-20010475D01*
X32018722Y-20010475D02*
X32066341Y-20058094D01*
X32066341Y-20058094D02*
X32161579Y-20105713D01*
X48536819Y-47829523D02*
X49251104Y-47829523D01*
X49251104Y-47829523D02*
X49393961Y-47877142D01*
X49393961Y-47877142D02*
X49489200Y-47972380D01*
X49489200Y-47972380D02*
X49536819Y-48115237D01*
X49536819Y-48115237D02*
X49536819Y-48210475D01*
X49536819Y-46829523D02*
X49536819Y-47400951D01*
X49536819Y-47115237D02*
X48536819Y-47115237D01*
X48536819Y-47115237D02*
X48679676Y-47210475D01*
X48679676Y-47210475D02*
X48774914Y-47305713D01*
X48774914Y-47305713D02*
X48822533Y-47400951D01*
X49536819Y-46353332D02*
X49536819Y-46162856D01*
X49536819Y-46162856D02*
X49489200Y-46067618D01*
X49489200Y-46067618D02*
X49441580Y-46019999D01*
X49441580Y-46019999D02*
X49298723Y-45924761D01*
X49298723Y-45924761D02*
X49108247Y-45877142D01*
X49108247Y-45877142D02*
X48727295Y-45877142D01*
X48727295Y-45877142D02*
X48632057Y-45924761D01*
X48632057Y-45924761D02*
X48584438Y-45972380D01*
X48584438Y-45972380D02*
X48536819Y-46067618D01*
X48536819Y-46067618D02*
X48536819Y-46258094D01*
X48536819Y-46258094D02*
X48584438Y-46353332D01*
X48584438Y-46353332D02*
X48632057Y-46400951D01*
X48632057Y-46400951D02*
X48727295Y-46448570D01*
X48727295Y-46448570D02*
X48965390Y-46448570D01*
X48965390Y-46448570D02*
X49060628Y-46400951D01*
X49060628Y-46400951D02*
X49108247Y-46353332D01*
X49108247Y-46353332D02*
X49155866Y-46258094D01*
X49155866Y-46258094D02*
X49155866Y-46067618D01*
X49155866Y-46067618D02*
X49108247Y-45972380D01*
X49108247Y-45972380D02*
X49060628Y-45924761D01*
X49060628Y-45924761D02*
X48965390Y-45877142D01*
X46718819Y-25820666D02*
X46242628Y-26153999D01*
X46718819Y-26392094D02*
X45718819Y-26392094D01*
X45718819Y-26392094D02*
X45718819Y-26011142D01*
X45718819Y-26011142D02*
X45766438Y-25915904D01*
X45766438Y-25915904D02*
X45814057Y-25868285D01*
X45814057Y-25868285D02*
X45909295Y-25820666D01*
X45909295Y-25820666D02*
X46052152Y-25820666D01*
X46052152Y-25820666D02*
X46147390Y-25868285D01*
X46147390Y-25868285D02*
X46195009Y-25915904D01*
X46195009Y-25915904D02*
X46242628Y-26011142D01*
X46242628Y-26011142D02*
X46242628Y-26392094D01*
X46718819Y-24868285D02*
X46718819Y-25439713D01*
X46718819Y-25153999D02*
X45718819Y-25153999D01*
X45718819Y-25153999D02*
X45861676Y-25249237D01*
X45861676Y-25249237D02*
X45956914Y-25344475D01*
X45956914Y-25344475D02*
X46004533Y-25439713D01*
X48536819Y-32589523D02*
X49251104Y-32589523D01*
X49251104Y-32589523D02*
X49393961Y-32637142D01*
X49393961Y-32637142D02*
X49489200Y-32732380D01*
X49489200Y-32732380D02*
X49536819Y-32875237D01*
X49536819Y-32875237D02*
X49536819Y-32970475D01*
X49536819Y-31589523D02*
X49536819Y-32160951D01*
X49536819Y-31875237D02*
X48536819Y-31875237D01*
X48536819Y-31875237D02*
X48679676Y-31970475D01*
X48679676Y-31970475D02*
X48774914Y-32065713D01*
X48774914Y-32065713D02*
X48822533Y-32160951D01*
X48965390Y-31018094D02*
X48917771Y-31113332D01*
X48917771Y-31113332D02*
X48870152Y-31160951D01*
X48870152Y-31160951D02*
X48774914Y-31208570D01*
X48774914Y-31208570D02*
X48727295Y-31208570D01*
X48727295Y-31208570D02*
X48632057Y-31160951D01*
X48632057Y-31160951D02*
X48584438Y-31113332D01*
X48584438Y-31113332D02*
X48536819Y-31018094D01*
X48536819Y-31018094D02*
X48536819Y-30827618D01*
X48536819Y-30827618D02*
X48584438Y-30732380D01*
X48584438Y-30732380D02*
X48632057Y-30684761D01*
X48632057Y-30684761D02*
X48727295Y-30637142D01*
X48727295Y-30637142D02*
X48774914Y-30637142D01*
X48774914Y-30637142D02*
X48870152Y-30684761D01*
X48870152Y-30684761D02*
X48917771Y-30732380D01*
X48917771Y-30732380D02*
X48965390Y-30827618D01*
X48965390Y-30827618D02*
X48965390Y-31018094D01*
X48965390Y-31018094D02*
X49013009Y-31113332D01*
X49013009Y-31113332D02*
X49060628Y-31160951D01*
X49060628Y-31160951D02*
X49155866Y-31208570D01*
X49155866Y-31208570D02*
X49346342Y-31208570D01*
X49346342Y-31208570D02*
X49441580Y-31160951D01*
X49441580Y-31160951D02*
X49489200Y-31113332D01*
X49489200Y-31113332D02*
X49536819Y-31018094D01*
X49536819Y-31018094D02*
X49536819Y-30827618D01*
X49536819Y-30827618D02*
X49489200Y-30732380D01*
X49489200Y-30732380D02*
X49441580Y-30684761D01*
X49441580Y-30684761D02*
X49346342Y-30637142D01*
X49346342Y-30637142D02*
X49155866Y-30637142D01*
X49155866Y-30637142D02*
X49060628Y-30684761D01*
X49060628Y-30684761D02*
X49013009Y-30732380D01*
X49013009Y-30732380D02*
X48965390Y-30827618D01*
X30023485Y-21058094D02*
X29023485Y-21058094D01*
X29023485Y-21058094D02*
X29023485Y-20819999D01*
X29023485Y-20819999D02*
X29071104Y-20677142D01*
X29071104Y-20677142D02*
X29166342Y-20581904D01*
X29166342Y-20581904D02*
X29261580Y-20534285D01*
X29261580Y-20534285D02*
X29452056Y-20486666D01*
X29452056Y-20486666D02*
X29594913Y-20486666D01*
X29594913Y-20486666D02*
X29785389Y-20534285D01*
X29785389Y-20534285D02*
X29880627Y-20581904D01*
X29880627Y-20581904D02*
X29975866Y-20677142D01*
X29975866Y-20677142D02*
X30023485Y-20819999D01*
X30023485Y-20819999D02*
X30023485Y-21058094D01*
X29023485Y-20153332D02*
X29023485Y-19486666D01*
X29023485Y-19486666D02*
X30023485Y-19915237D01*
X9409819Y-16873333D02*
X10124104Y-16873333D01*
X10124104Y-16873333D02*
X10266961Y-16920952D01*
X10266961Y-16920952D02*
X10362200Y-17016190D01*
X10362200Y-17016190D02*
X10409819Y-17159047D01*
X10409819Y-17159047D02*
X10409819Y-17254285D01*
X9409819Y-15968571D02*
X9409819Y-16159047D01*
X9409819Y-16159047D02*
X9457438Y-16254285D01*
X9457438Y-16254285D02*
X9505057Y-16301904D01*
X9505057Y-16301904D02*
X9647914Y-16397142D01*
X9647914Y-16397142D02*
X9838390Y-16444761D01*
X9838390Y-16444761D02*
X10219342Y-16444761D01*
X10219342Y-16444761D02*
X10314580Y-16397142D01*
X10314580Y-16397142D02*
X10362200Y-16349523D01*
X10362200Y-16349523D02*
X10409819Y-16254285D01*
X10409819Y-16254285D02*
X10409819Y-16063809D01*
X10409819Y-16063809D02*
X10362200Y-15968571D01*
X10362200Y-15968571D02*
X10314580Y-15920952D01*
X10314580Y-15920952D02*
X10219342Y-15873333D01*
X10219342Y-15873333D02*
X9981247Y-15873333D01*
X9981247Y-15873333D02*
X9886009Y-15920952D01*
X9886009Y-15920952D02*
X9838390Y-15968571D01*
X9838390Y-15968571D02*
X9790771Y-16063809D01*
X9790771Y-16063809D02*
X9790771Y-16254285D01*
X9790771Y-16254285D02*
X9838390Y-16349523D01*
X9838390Y-16349523D02*
X9886009Y-16397142D01*
X9886009Y-16397142D02*
X9981247Y-16444761D01*
X41855485Y-21058094D02*
X40855485Y-21058094D01*
X40855485Y-21058094D02*
X40855485Y-20819999D01*
X40855485Y-20819999D02*
X40903104Y-20677142D01*
X40903104Y-20677142D02*
X40998342Y-20581904D01*
X40998342Y-20581904D02*
X41093580Y-20534285D01*
X41093580Y-20534285D02*
X41284056Y-20486666D01*
X41284056Y-20486666D02*
X41426913Y-20486666D01*
X41426913Y-20486666D02*
X41617389Y-20534285D01*
X41617389Y-20534285D02*
X41712627Y-20581904D01*
X41712627Y-20581904D02*
X41807866Y-20677142D01*
X41807866Y-20677142D02*
X41855485Y-20819999D01*
X41855485Y-20819999D02*
X41855485Y-21058094D01*
X40855485Y-20153332D02*
X40855485Y-19534285D01*
X40855485Y-19534285D02*
X41236437Y-19867618D01*
X41236437Y-19867618D02*
X41236437Y-19724761D01*
X41236437Y-19724761D02*
X41284056Y-19629523D01*
X41284056Y-19629523D02*
X41331675Y-19581904D01*
X41331675Y-19581904D02*
X41426913Y-19534285D01*
X41426913Y-19534285D02*
X41665008Y-19534285D01*
X41665008Y-19534285D02*
X41760246Y-19581904D01*
X41760246Y-19581904D02*
X41807866Y-19629523D01*
X41807866Y-19629523D02*
X41855485Y-19724761D01*
X41855485Y-19724761D02*
X41855485Y-20010475D01*
X41855485Y-20010475D02*
X41807866Y-20105713D01*
X41807866Y-20105713D02*
X41760246Y-20153332D01*
D11*
%TO.C,U4*%
X35162000Y-60761000D02*
X35162000Y-55561000D01*
X29862000Y-60761000D02*
X35162000Y-60761000D01*
X29862000Y-55561000D02*
X29862000Y-60761000D01*
X35162000Y-55561000D02*
X33512000Y-55561000D01*
X31512000Y-55561000D02*
X29862000Y-55561000D01*
X31512000Y-55561000D02*
G75*
G03*
X33512000Y-55561000I1000000J0D01*
G01*
%TO.C,R9*%
X34432000Y-52420000D02*
X30592000Y-52420000D01*
X34432000Y-54260000D02*
X30592000Y-54260000D01*
%TO.C,J23*%
X28702000Y-62230000D02*
X28702000Y-69850000D01*
X38862000Y-69850000D02*
X38862000Y-62230000D01*
X38862000Y-68580000D02*
X28702000Y-68580000D01*
X28702000Y-69850000D02*
X38862000Y-69850000D01*
X38862000Y-62230000D02*
X28702000Y-62230000D01*
%TO.C,J5*%
X18542000Y-62230000D02*
X18542000Y-69850000D01*
X28702000Y-69850000D02*
X28702000Y-62230000D01*
X28702000Y-68580000D02*
X18542000Y-68580000D01*
X18542000Y-69850000D02*
X28702000Y-69850000D01*
X28702000Y-62230000D02*
X18542000Y-62230000D01*
%TO.C,J16*%
X77978000Y-1905000D02*
X62738000Y-1905000D01*
X62738000Y-635000D02*
X62738000Y-8255000D01*
X77978000Y-635000D02*
X77978000Y-8255000D01*
X77978000Y-635000D02*
X62738000Y-635000D01*
X77978000Y-8255000D02*
X62738000Y-8255000D01*
%TO.C,D8*%
X27692000Y-19320000D02*
X27692000Y-22005000D01*
X27692000Y-22005000D02*
X29612000Y-22005000D01*
X29612000Y-22005000D02*
X29612000Y-19320000D01*
%TO.C,R8*%
X27732000Y-27574000D02*
X27732000Y-23734000D01*
X29572000Y-27574000D02*
X29572000Y-23734000D01*
%TO.C,J21*%
X32520000Y-19412000D02*
X33520000Y-19412000D01*
X36050000Y-18022000D02*
X36050000Y-16712000D01*
X29110000Y-10212000D02*
X47090000Y-10212000D01*
X47090000Y-16712000D02*
X40150000Y-16712000D01*
X40150000Y-16712000D02*
X40150000Y-18022000D01*
X27810000Y-18022000D02*
X27810000Y-8902000D01*
X48390000Y-8902000D02*
X48390000Y-18022000D01*
X48390000Y-18022000D02*
X27810000Y-18022000D01*
X40150000Y-16712000D02*
X40150000Y-16712000D01*
X29110000Y-16712000D02*
X29110000Y-10212000D01*
X47090000Y-10212000D02*
X47090000Y-16712000D01*
X33520000Y-19412000D02*
X33020000Y-18412000D01*
X36050000Y-16712000D02*
X29110000Y-16712000D01*
X33020000Y-18412000D02*
X32520000Y-19412000D01*
X27810000Y-8902000D02*
X48390000Y-8902000D01*
%TO.C,D5*%
X35392000Y-22005000D02*
X37312000Y-22005000D01*
X35392000Y-19320000D02*
X35392000Y-22005000D01*
X37312000Y-22005000D02*
X37312000Y-19320000D01*
%TO.C,D4*%
X39524000Y-19320000D02*
X39524000Y-22005000D01*
X39524000Y-22005000D02*
X41444000Y-22005000D01*
X41444000Y-22005000D02*
X41444000Y-19320000D01*
%TO.C,J2*%
X1738858Y-39369234D02*
X9358858Y-39369234D01*
X1738858Y-24129234D02*
X9358858Y-24129234D01*
X1738858Y-24129234D02*
X1738858Y-39369234D01*
X3008858Y-24129234D02*
X3008858Y-39369234D01*
X9358858Y-24129234D02*
X9358858Y-39369234D01*
%TO.C,J8*%
X16002000Y-54610000D02*
X16002000Y-39370000D01*
X17272000Y-39370000D02*
X9652000Y-39370000D01*
X9652000Y-54610000D02*
X9652000Y-39370000D01*
X17272000Y-54610000D02*
X17272000Y-39370000D01*
X17272000Y-54610000D02*
X9652000Y-54610000D01*
%TO.C,R2*%
X44697332Y-27574000D02*
X44697332Y-23734000D01*
X46537332Y-27574000D02*
X46537332Y-23734000D01*
%TO.C,D1*%
X47224000Y-19320000D02*
X47224000Y-22005000D01*
X49144000Y-22005000D02*
X49144000Y-19320000D01*
X47224000Y-22005000D02*
X49144000Y-22005000D01*
%TO.C,U1*%
X41694000Y-50113000D02*
X46994000Y-50113000D01*
X46994000Y-29673000D02*
X45344000Y-29673000D01*
X43344000Y-29673000D02*
X41694000Y-29673000D01*
X41694000Y-29673000D02*
X41694000Y-50113000D01*
X46994000Y-50113000D02*
X46994000Y-29673000D01*
X43344000Y-29673000D02*
G75*
G03*
X45344000Y-29673000I1000000J0D01*
G01*
%TO.C,D2*%
X46577332Y-22005000D02*
X46577332Y-19320000D01*
X44657332Y-22005000D02*
X46577332Y-22005000D01*
X44657332Y-19320000D02*
X44657332Y-22005000D01*
%TO.C,J11*%
X28302000Y-44458000D02*
X27302000Y-44958000D01*
X25602000Y-18188000D02*
X25602000Y-31478000D01*
X27302000Y-44958000D02*
X28302000Y-45458000D01*
X25602000Y-31478000D02*
X25602000Y-31478000D01*
X28302000Y-45458000D02*
X28302000Y-44458000D01*
X19102000Y-48868000D02*
X19102000Y-18188000D01*
X17792000Y-50168000D02*
X17792000Y-16888000D01*
X25602000Y-31478000D02*
X26912000Y-31478000D01*
X26912000Y-50168000D02*
X17792000Y-50168000D01*
X25602000Y-35578000D02*
X25602000Y-48868000D01*
X26912000Y-35578000D02*
X25602000Y-35578000D01*
X17792000Y-16888000D02*
X26912000Y-16888000D01*
X25602000Y-48868000D02*
X19102000Y-48868000D01*
X19102000Y-18188000D02*
X25602000Y-18188000D01*
X26912000Y-16888000D02*
X26912000Y-50168000D01*
%TO.C,J9*%
X17272000Y-69850000D02*
X9652000Y-69850000D01*
X16002000Y-69850000D02*
X16002000Y-54610000D01*
X17272000Y-69850000D02*
X17272000Y-54610000D01*
X9652000Y-69850000D02*
X9652000Y-54610000D01*
X17272000Y-54610000D02*
X9652000Y-54610000D01*
%TO.C,J7*%
X17272000Y-39370000D02*
X17272000Y-24130000D01*
X17272000Y-24130000D02*
X9652000Y-24130000D01*
X17272000Y-39370000D02*
X9652000Y-39370000D01*
X16002000Y-39370000D02*
X16002000Y-24130000D01*
X9652000Y-39370000D02*
X9652000Y-24130000D01*
%TO.C,J1*%
X1738858Y-8889234D02*
X1738858Y-24129234D01*
X3008858Y-8889234D02*
X3008858Y-24129234D01*
X9358858Y-8889234D02*
X9358858Y-24129234D01*
X1738858Y-8889234D02*
X9358858Y-8889234D01*
X1738858Y-24129234D02*
X9358858Y-24129234D01*
%TO.C,J4*%
X9358858Y-54609234D02*
X9358858Y-69849234D01*
X1738858Y-69849234D02*
X9358858Y-69849234D01*
X1738858Y-54609234D02*
X9358858Y-54609234D01*
X1738858Y-54609234D02*
X1738858Y-69849234D01*
X3008858Y-54609234D02*
X3008858Y-69849234D01*
%TO.C,R4*%
X41404000Y-27574000D02*
X41404000Y-23734000D01*
X39564000Y-27574000D02*
X39564000Y-23734000D01*
%TO.C,J12*%
X17018000Y-635000D02*
X1778000Y-635000D01*
X17018000Y-635000D02*
X17018000Y-8255000D01*
X17018000Y-1905000D02*
X1778000Y-1905000D01*
X17018000Y-8255000D02*
X1778000Y-8255000D01*
X1778000Y-635000D02*
X1778000Y-8255000D01*
%TO.C,J15*%
X62738000Y-635000D02*
X62738000Y-8255000D01*
X62738000Y-635000D02*
X47498000Y-635000D01*
X62738000Y-1905000D02*
X47498000Y-1905000D01*
X47498000Y-635000D02*
X47498000Y-8255000D01*
X62738000Y-8255000D02*
X47498000Y-8255000D01*
%TO.C,R6*%
X34705332Y-27574000D02*
X34705332Y-23734000D01*
X32865332Y-27574000D02*
X32865332Y-23734000D01*
%TO.C,J17*%
X57542000Y-8890000D02*
X49922000Y-8890000D01*
X57542000Y-24130000D02*
X49922000Y-24130000D01*
X56272000Y-24130000D02*
X56272000Y-8890000D01*
X57542000Y-24130000D02*
X57542000Y-8890000D01*
X49922000Y-24130000D02*
X49922000Y-8890000D01*
%TO.C,J22*%
X38862000Y-62230000D02*
X38862000Y-69850000D01*
X49022000Y-69850000D02*
X49022000Y-62230000D01*
X49022000Y-68580000D02*
X38862000Y-68580000D01*
X38862000Y-69850000D02*
X49022000Y-69850000D01*
X49022000Y-62230000D02*
X38862000Y-62230000D01*
%TO.C,J13*%
X32258000Y-635000D02*
X32258000Y-8255000D01*
X17018000Y-635000D02*
X17018000Y-8255000D01*
X32258000Y-8255000D02*
X17018000Y-8255000D01*
X32258000Y-1905000D02*
X17018000Y-1905000D01*
X32258000Y-635000D02*
X17018000Y-635000D01*
%TO.C,R5*%
X35432000Y-27574000D02*
X35432000Y-23734000D01*
X37272000Y-27574000D02*
X37272000Y-23734000D01*
%TO.C,J20*%
X49922000Y-69850000D02*
X49922000Y-54610000D01*
X57542000Y-69850000D02*
X57542000Y-54610000D01*
X57542000Y-54610000D02*
X49922000Y-54610000D01*
X57542000Y-69850000D02*
X49922000Y-69850000D01*
X56272000Y-69850000D02*
X56272000Y-54610000D01*
%TO.C,U2*%
X29862000Y-50113000D02*
X35162000Y-50113000D01*
X35162000Y-50113000D02*
X35162000Y-29673000D01*
X31512000Y-29673000D02*
X29862000Y-29673000D01*
X29862000Y-29673000D02*
X29862000Y-50113000D01*
X35162000Y-29673000D02*
X33512000Y-29673000D01*
X31512000Y-29673000D02*
G75*
G03*
X33512000Y-29673000I1000000J0D01*
G01*
%TO.C,R7*%
X30298666Y-27574000D02*
X30298666Y-23734000D01*
X32138666Y-27574000D02*
X32138666Y-23734000D01*
%TO.C,J14*%
X47498000Y-635000D02*
X47498000Y-8255000D01*
X47498000Y-8255000D02*
X32258000Y-8255000D01*
X32258000Y-635000D02*
X32258000Y-8255000D01*
X47498000Y-1905000D02*
X32258000Y-1905000D01*
X47498000Y-635000D02*
X32258000Y-635000D01*
%TO.C,J3*%
X9358858Y-39369234D02*
X9358858Y-54609234D01*
X1738858Y-39369234D02*
X1738858Y-54609234D01*
X1738858Y-39369234D02*
X9358858Y-39369234D01*
X1738858Y-54609234D02*
X9358858Y-54609234D01*
X3008858Y-39369234D02*
X3008858Y-54609234D01*
%TO.C,R3*%
X42130666Y-27574000D02*
X42130666Y-23734000D01*
X43970666Y-27574000D02*
X43970666Y-23734000D01*
%TO.C,D6*%
X34745332Y-22005000D02*
X34745332Y-19320000D01*
X32825332Y-19320000D02*
X32825332Y-22005000D01*
X32825332Y-22005000D02*
X34745332Y-22005000D01*
%TO.C,J19*%
X56272000Y-54610000D02*
X56272000Y-39370000D01*
X57542000Y-54610000D02*
X49922000Y-54610000D01*
X49922000Y-54610000D02*
X49922000Y-39370000D01*
X57542000Y-54610000D02*
X57542000Y-39370000D01*
X57542000Y-39370000D02*
X49922000Y-39370000D01*
%TO.C,R1*%
X47264000Y-27574000D02*
X47264000Y-23734000D01*
X49104000Y-27574000D02*
X49104000Y-23734000D01*
%TO.C,J18*%
X56272000Y-39370000D02*
X56272000Y-24130000D01*
X57542000Y-39370000D02*
X49922000Y-39370000D01*
X57542000Y-39370000D02*
X57542000Y-24130000D01*
X49922000Y-39370000D02*
X49922000Y-24130000D01*
X57542000Y-24130000D02*
X49922000Y-24130000D01*
%TO.C,D7*%
X30258666Y-19320000D02*
X30258666Y-22005000D01*
X32178666Y-22005000D02*
X32178666Y-19320000D01*
X30258666Y-22005000D02*
X32178666Y-22005000D01*
%TO.C,J6*%
X17272000Y-24130000D02*
X17272000Y-8890000D01*
X9652000Y-24130000D02*
X9652000Y-8890000D01*
X16002000Y-24130000D02*
X16002000Y-8890000D01*
X17272000Y-24130000D02*
X9652000Y-24130000D01*
X17272000Y-8890000D02*
X9652000Y-8890000D01*
%TO.C,D3*%
X42090666Y-22005000D02*
X44010666Y-22005000D01*
X44010666Y-22005000D02*
X44010666Y-19320000D01*
X42090666Y-19320000D02*
X42090666Y-22005000D01*
%TD*%
M02*
