%TF.GenerationSoftware,KiCad,Pcbnew,7.0.6-0*%
%TF.CreationDate,2023-07-29T14:48:15+08:00*%
%TF.ProjectId,Control Panel Motherboard,436f6e74-726f-46c2-9050-616e656c204d,0*%
%TF.SameCoordinates,Original*%
%TF.FileFunction,Soldermask,Top*%
%TF.FilePolarity,Negative*%
%FSLAX46Y46*%
G04 Gerber Fmt 4.6, Leading zero omitted, Abs format (unit mm)*
G04 Created by KiCad (PCBNEW 7.0.6-0) date 2023-07-29 14:48:15*
%MOMM*%
%LPD*%
G01*
G04 APERTURE LIST*
G04 Aperture macros list*
%AMRoundRect*
0 Rectangle with rounded corners*
0 $1 Rounding radius*
0 $2 $3 $4 $5 $6 $7 $8 $9 X,Y pos of 4 corners*
0 Add a 4 corners polygon primitive as box body*
4,1,4,$2,$3,$4,$5,$6,$7,$8,$9,$2,$3,0*
0 Add four circle primitives for the rounded corners*
1,1,$1+$1,$2,$3*
1,1,$1+$1,$4,$5*
1,1,$1+$1,$6,$7*
1,1,$1+$1,$8,$9*
0 Add four rect primitives between the rounded corners*
20,1,$1+$1,$2,$3,$4,$5,0*
20,1,$1+$1,$4,$5,$6,$7,0*
20,1,$1+$1,$6,$7,$8,$9,0*
20,1,$1+$1,$8,$9,$2,$3,0*%
G04 Aperture macros list end*
%ADD10R,1.600000X1.600000*%
%ADD11O,1.600000X1.600000*%
%ADD12C,1.400000*%
%ADD13O,1.400000X1.400000*%
%ADD14R,3.000000X3.000000*%
%ADD15C,3.000000*%
%ADD16RoundRect,0.243750X0.456250X-0.243750X0.456250X0.243750X-0.456250X0.243750X-0.456250X-0.243750X0*%
%ADD17RoundRect,0.250000X0.600000X-0.600000X0.600000X0.600000X-0.600000X0.600000X-0.600000X-0.600000X0*%
%ADD18C,1.700000*%
%ADD19RoundRect,0.250000X0.600000X0.600000X-0.600000X0.600000X-0.600000X-0.600000X0.600000X-0.600000X0*%
G04 APERTURE END LIST*
D10*
%TO.C,U4*%
X28702000Y-56891000D03*
D11*
X28702000Y-59431000D03*
X36322000Y-59431000D03*
X36322000Y-56891000D03*
%TD*%
D12*
%TO.C,R9*%
X35052000Y-53340000D03*
D13*
X29972000Y-53340000D03*
%TD*%
D14*
%TO.C,J23*%
X31242000Y-66040000D03*
D15*
X36322000Y-66040000D03*
%TD*%
D14*
%TO.C,J5*%
X21082000Y-66040000D03*
D15*
X26162000Y-66040000D03*
%TD*%
D14*
%TO.C,J16*%
X75438000Y-4445000D03*
D15*
X70358000Y-4445000D03*
X65278000Y-4445000D03*
%TD*%
D16*
%TO.C,D8*%
X28652000Y-21257500D03*
X28652000Y-19382500D03*
%TD*%
D12*
%TO.C,R8*%
X28652000Y-28194000D03*
D13*
X28652000Y-23114000D03*
%TD*%
D17*
%TO.C,J21*%
X33020000Y-14732000D03*
D18*
X33020000Y-12192000D03*
X35560000Y-14732000D03*
X35560000Y-12192000D03*
X38100000Y-14732000D03*
X38100000Y-12192000D03*
X40640000Y-14732000D03*
X40640000Y-12192000D03*
X43180000Y-14732000D03*
X43180000Y-12192000D03*
%TD*%
D16*
%TO.C,D5*%
X36352000Y-21257500D03*
X36352000Y-19382500D03*
%TD*%
%TO.C,D4*%
X40484000Y-21257500D03*
X40484000Y-19382500D03*
%TD*%
D14*
%TO.C,J2*%
X5548858Y-26669234D03*
D15*
X5548858Y-31749234D03*
X5548858Y-36829234D03*
%TD*%
D14*
%TO.C,J8*%
X13462000Y-52070000D03*
D15*
X13462000Y-46990000D03*
X13462000Y-41910000D03*
%TD*%
D12*
%TO.C,R2*%
X45617332Y-28194000D03*
D13*
X45617332Y-23114000D03*
%TD*%
D16*
%TO.C,D1*%
X48184000Y-21257500D03*
X48184000Y-19382500D03*
%TD*%
D10*
%TO.C,U1*%
X40534000Y-31003000D03*
D11*
X40534000Y-33543000D03*
X40534000Y-36083000D03*
X40534000Y-38623000D03*
X40534000Y-41163000D03*
X40534000Y-43703000D03*
X40534000Y-46243000D03*
X40534000Y-48783000D03*
X48154000Y-48783000D03*
X48154000Y-46243000D03*
X48154000Y-43703000D03*
X48154000Y-41163000D03*
X48154000Y-38623000D03*
X48154000Y-36083000D03*
X48154000Y-33543000D03*
X48154000Y-31003000D03*
%TD*%
D16*
%TO.C,D2*%
X45617332Y-21257500D03*
X45617332Y-19382500D03*
%TD*%
D19*
%TO.C,J11*%
X23622000Y-44958000D03*
D18*
X21082000Y-44958000D03*
X23622000Y-42418000D03*
X21082000Y-42418000D03*
X23622000Y-39878000D03*
X21082000Y-39878000D03*
X23622000Y-37338000D03*
X21082000Y-37338000D03*
X23622000Y-34798000D03*
X21082000Y-34798000D03*
X23622000Y-32258000D03*
X21082000Y-32258000D03*
X23622000Y-29718000D03*
X21082000Y-29718000D03*
X23622000Y-27178000D03*
X21082000Y-27178000D03*
X23622000Y-24638000D03*
X21082000Y-24638000D03*
X23622000Y-22098000D03*
X21082000Y-22098000D03*
%TD*%
D14*
%TO.C,J9*%
X13462000Y-67310000D03*
D15*
X13462000Y-62230000D03*
X13462000Y-57150000D03*
%TD*%
D14*
%TO.C,J7*%
X13462000Y-36830000D03*
D15*
X13462000Y-31750000D03*
X13462000Y-26670000D03*
%TD*%
D14*
%TO.C,J1*%
X5548858Y-11429234D03*
D15*
X5548858Y-16509234D03*
X5548858Y-21589234D03*
%TD*%
D14*
%TO.C,J4*%
X5548858Y-57149234D03*
D15*
X5548858Y-62229234D03*
X5548858Y-67309234D03*
%TD*%
D12*
%TO.C,R4*%
X40484000Y-28194000D03*
D13*
X40484000Y-23114000D03*
%TD*%
D14*
%TO.C,J12*%
X14478000Y-4445000D03*
D15*
X9398000Y-4445000D03*
X4318000Y-4445000D03*
%TD*%
D14*
%TO.C,J15*%
X60198000Y-4445000D03*
D15*
X55118000Y-4445000D03*
X50038000Y-4445000D03*
%TD*%
D12*
%TO.C,R6*%
X33785332Y-28194000D03*
D13*
X33785332Y-23114000D03*
%TD*%
D14*
%TO.C,J17*%
X53732000Y-21590000D03*
D15*
X53732000Y-16510000D03*
X53732000Y-11430000D03*
%TD*%
D14*
%TO.C,J22*%
X41402000Y-66040000D03*
D15*
X46482000Y-66040000D03*
%TD*%
D14*
%TO.C,J13*%
X29718000Y-4445000D03*
D15*
X24638000Y-4445000D03*
X19558000Y-4445000D03*
%TD*%
D12*
%TO.C,R5*%
X36352000Y-28194000D03*
D13*
X36352000Y-23114000D03*
%TD*%
D14*
%TO.C,J20*%
X53732000Y-67310000D03*
D15*
X53732000Y-62230000D03*
X53732000Y-57150000D03*
%TD*%
D10*
%TO.C,U2*%
X28702000Y-31003000D03*
D11*
X28702000Y-33543000D03*
X28702000Y-36083000D03*
X28702000Y-38623000D03*
X28702000Y-41163000D03*
X28702000Y-43703000D03*
X28702000Y-46243000D03*
X28702000Y-48783000D03*
X36322000Y-48783000D03*
X36322000Y-46243000D03*
X36322000Y-43703000D03*
X36322000Y-41163000D03*
X36322000Y-38623000D03*
X36322000Y-36083000D03*
X36322000Y-33543000D03*
X36322000Y-31003000D03*
%TD*%
D12*
%TO.C,R7*%
X31218666Y-28194000D03*
D13*
X31218666Y-23114000D03*
%TD*%
D14*
%TO.C,J14*%
X44958000Y-4445000D03*
D15*
X39878000Y-4445000D03*
X34798000Y-4445000D03*
%TD*%
D14*
%TO.C,J3*%
X5548858Y-41909234D03*
D15*
X5548858Y-46989234D03*
X5548858Y-52069234D03*
%TD*%
D12*
%TO.C,R3*%
X43050666Y-28194000D03*
D13*
X43050666Y-23114000D03*
%TD*%
D16*
%TO.C,D6*%
X33785332Y-21257500D03*
X33785332Y-19382500D03*
%TD*%
D14*
%TO.C,J19*%
X53732000Y-52070000D03*
D15*
X53732000Y-46990000D03*
X53732000Y-41910000D03*
%TD*%
D12*
%TO.C,R1*%
X48184000Y-28194000D03*
D13*
X48184000Y-23114000D03*
%TD*%
D14*
%TO.C,J18*%
X53732000Y-36830000D03*
D15*
X53732000Y-31750000D03*
X53732000Y-26670000D03*
%TD*%
D16*
%TO.C,D7*%
X31218666Y-21257500D03*
X31218666Y-19382500D03*
%TD*%
D14*
%TO.C,J6*%
X13462000Y-21590000D03*
D15*
X13462000Y-16510000D03*
X13462000Y-11430000D03*
%TD*%
D16*
%TO.C,D3*%
X43050666Y-21257500D03*
X43050666Y-19382500D03*
%TD*%
M02*
