M48
; DRILL file {KiCad 7.0.6} date Tue Sep 19 17:09:17 2023
; FORMAT={-:-/ absolute / inch / decimal}
; #@! TF.CreationDate,2023-09-19T17:09:17+08:00
; #@! TF.GenerationSoftware,Kicad,Pcbnew,7.0.6
; #@! TF.FileFunction,Plated,1,2,PTH
FMAT,2
INCH
; #@! TA.AperFunction,Plated,PTH,ComponentDrill
T1C0.0276
; #@! TA.AperFunction,Plated,PTH,ComponentDrill
T2C0.0394
; #@! TA.AperFunction,Plated,PTH,ComponentDrill
T3C0.0598
%
G90
G05
T1
X0.06Y-0.5
X0.06Y-0.7
X0.07Y-0.4166
X0.07Y-0.7768
X0.17Y-0.2434
X0.17Y-0.95
X0.2234Y-1.0
X0.2268Y-0.18
X0.3966Y-1.1
X0.4Y-0.08
X0.48Y-0.07
X0.48Y-1.11
X0.68Y-0.07
X0.68Y-1.11
X0.7634Y-0.08
X0.7634Y-1.1
X0.9366Y-0.18
X0.9366Y-1.0
X0.99Y-0.2434
X0.99Y-0.9466
X1.09Y-0.4166
X1.09Y-0.7734
X1.1Y-0.5
X1.1Y-0.7
T2
X0.163Y-0.4793
X0.163Y-0.7034
X0.2751Y-0.2851
X0.2751Y-0.8976
X0.4693Y-0.173
X0.4693Y-1.0097
X0.47Y-0.48
X0.6934Y-1.0097
X0.6934Y-0.173
X0.8876Y-0.2851
X0.8876Y-0.8976
X0.9997Y-0.4793
X0.9997Y-0.7034
T3
X0.5331Y-0.8239
X0.6745Y-0.6825
X0.8159Y-0.5411
T0
M30
