%TF.GenerationSoftware,KiCad,Pcbnew,7.0.6*%
%TF.CreationDate,2023-09-19T17:09:16+08:00*%
%TF.ProjectId,Control Panel Selector Switch Board,436f6e74-726f-46c2-9050-616e656c2053,rev?*%
%TF.SameCoordinates,Original*%
%TF.FileFunction,Legend,Bot*%
%TF.FilePolarity,Positive*%
%FSLAX46Y46*%
G04 Gerber Fmt 4.6, Leading zero omitted, Abs format (unit mm)*
G04 Created by KiCad (PCBNEW 7.0.6) date 2023-09-19 17:09:16*
%MOMM*%
%LPD*%
G01*
G04 APERTURE LIST*
%ADD10C,0.150000*%
%ADD11C,0.120000*%
G04 APERTURE END LIST*
D10*
X14303717Y-12545965D02*
X14775122Y-13488774D01*
X14775122Y-13488774D02*
X13832313Y-13017369D01*
X13899656Y-14364239D02*
X13798641Y-13791819D01*
X14303717Y-13960178D02*
X13596610Y-13253071D01*
X13596610Y-13253071D02*
X13327236Y-13522445D01*
X13327236Y-13522445D02*
X13293565Y-13623461D01*
X13293565Y-13623461D02*
X13293565Y-13690804D01*
X13293565Y-13690804D02*
X13327236Y-13791819D01*
X13327236Y-13791819D02*
X13428252Y-13892835D01*
X13428252Y-13892835D02*
X13529267Y-13926506D01*
X13529267Y-13926506D02*
X13596610Y-13926506D01*
X13596610Y-13926506D02*
X13697626Y-13892835D01*
X13697626Y-13892835D02*
X13967000Y-13623461D01*
X13832313Y-14566270D02*
X13293565Y-15105018D01*
X12687473Y-15576422D02*
X13091534Y-15172361D01*
X12889503Y-15374392D02*
X12182397Y-14667285D01*
X12182397Y-14667285D02*
X12350755Y-14700957D01*
X12350755Y-14700957D02*
X12485442Y-14700957D01*
X12485442Y-14700957D02*
X12586458Y-14667285D01*
X17675984Y-9495041D02*
X17709656Y-9394026D01*
X17709656Y-9394026D02*
X17810671Y-9293010D01*
X17810671Y-9293010D02*
X17945358Y-9225667D01*
X17945358Y-9225667D02*
X18080046Y-9225667D01*
X18080046Y-9225667D02*
X18181061Y-9259339D01*
X18181061Y-9259339D02*
X18349420Y-9360354D01*
X18349420Y-9360354D02*
X18450435Y-9461369D01*
X18450435Y-9461369D02*
X18551450Y-9629728D01*
X18551450Y-9629728D02*
X18585122Y-9730743D01*
X18585122Y-9730743D02*
X18585122Y-9865430D01*
X18585122Y-9865430D02*
X18517778Y-10000117D01*
X18517778Y-10000117D02*
X18450435Y-10067461D01*
X18450435Y-10067461D02*
X18315748Y-10134804D01*
X18315748Y-10134804D02*
X18248404Y-10134804D01*
X18248404Y-10134804D02*
X18012702Y-9899102D01*
X18012702Y-9899102D02*
X18147389Y-9764415D01*
X18012702Y-10505193D02*
X17305595Y-9798087D01*
X17305595Y-9798087D02*
X17608641Y-10909254D01*
X17608641Y-10909254D02*
X16901534Y-10202148D01*
X17271924Y-11245972D02*
X16564817Y-10538865D01*
X16564817Y-10538865D02*
X16396458Y-10707224D01*
X16396458Y-10707224D02*
X16329114Y-10841911D01*
X16329114Y-10841911D02*
X16329114Y-10976598D01*
X16329114Y-10976598D02*
X16362786Y-11077613D01*
X16362786Y-11077613D02*
X16463801Y-11245972D01*
X16463801Y-11245972D02*
X16564817Y-11346987D01*
X16564817Y-11346987D02*
X16733175Y-11448002D01*
X16733175Y-11448002D02*
X16834191Y-11481674D01*
X16834191Y-11481674D02*
X16968878Y-11481674D01*
X16968878Y-11481674D02*
X17103565Y-11414331D01*
X17103565Y-11414331D02*
X17271924Y-11245972D01*
X10055984Y-17047697D02*
X10392702Y-16710980D01*
X10392702Y-16710980D02*
X10763091Y-17014026D01*
X10763091Y-17014026D02*
X10695748Y-17014026D01*
X10695748Y-17014026D02*
X10594733Y-17047697D01*
X10594733Y-17047697D02*
X10426374Y-17216056D01*
X10426374Y-17216056D02*
X10392702Y-17317071D01*
X10392702Y-17317071D02*
X10392702Y-17384415D01*
X10392702Y-17384415D02*
X10426374Y-17485430D01*
X10426374Y-17485430D02*
X10594733Y-17653789D01*
X10594733Y-17653789D02*
X10695748Y-17687461D01*
X10695748Y-17687461D02*
X10763091Y-17687461D01*
X10763091Y-17687461D02*
X10864107Y-17653789D01*
X10864107Y-17653789D02*
X11032465Y-17485430D01*
X11032465Y-17485430D02*
X11066137Y-17384415D01*
X11066137Y-17384415D02*
X11066137Y-17317071D01*
X9820282Y-17283400D02*
X10291687Y-18226209D01*
X10291687Y-18226209D02*
X9348878Y-17754804D01*
X1978819Y-15073333D02*
X1502628Y-14740000D01*
X1978819Y-14501905D02*
X978819Y-14501905D01*
X978819Y-14501905D02*
X978819Y-14882857D01*
X978819Y-14882857D02*
X1026438Y-14978095D01*
X1026438Y-14978095D02*
X1074057Y-15025714D01*
X1074057Y-15025714D02*
X1169295Y-15073333D01*
X1169295Y-15073333D02*
X1312152Y-15073333D01*
X1312152Y-15073333D02*
X1407390Y-15025714D01*
X1407390Y-15025714D02*
X1455009Y-14978095D01*
X1455009Y-14978095D02*
X1502628Y-14882857D01*
X1502628Y-14882857D02*
X1502628Y-14501905D01*
X1978819Y-16025714D02*
X1978819Y-15454286D01*
X1978819Y-15740000D02*
X978819Y-15740000D01*
X978819Y-15740000D02*
X1121676Y-15644762D01*
X1121676Y-15644762D02*
X1216914Y-15549524D01*
X1216914Y-15549524D02*
X1264533Y-15454286D01*
X3525217Y-8465072D02*
X3279491Y-7938301D01*
X3810932Y-7970200D02*
X2944906Y-7470200D01*
X2944906Y-7470200D02*
X2754430Y-7800115D01*
X2754430Y-7800115D02*
X2748050Y-7906403D01*
X2748050Y-7906403D02*
X2765480Y-7971452D01*
X2765480Y-7971452D02*
X2824149Y-8060310D01*
X2824149Y-8060310D02*
X2947867Y-8131739D01*
X2947867Y-8131739D02*
X3054155Y-8138118D01*
X3054155Y-8138118D02*
X3119204Y-8120688D01*
X3119204Y-8120688D02*
X3208062Y-8062019D01*
X3208062Y-8062019D02*
X3398539Y-7732105D01*
X2551194Y-8342605D02*
X2486146Y-8360035D01*
X2486146Y-8360035D02*
X2397287Y-8418704D01*
X2397287Y-8418704D02*
X2278240Y-8624901D01*
X2278240Y-8624901D02*
X2271860Y-8731189D01*
X2271860Y-8731189D02*
X2289290Y-8796238D01*
X2289290Y-8796238D02*
X2347959Y-8885096D01*
X2347959Y-8885096D02*
X2430437Y-8932715D01*
X2430437Y-8932715D02*
X2577965Y-8962904D01*
X2577965Y-8962904D02*
X3358551Y-8753747D01*
X3358551Y-8753747D02*
X3049027Y-9289858D01*
X8332041Y-3612551D02*
X8382621Y-3033492D01*
X8826913Y-3326837D02*
X8326913Y-2460812D01*
X8326913Y-2460812D02*
X7996998Y-2651288D01*
X7996998Y-2651288D02*
X7938329Y-2740146D01*
X7938329Y-2740146D02*
X7920900Y-2805195D01*
X7920900Y-2805195D02*
X7927279Y-2911483D01*
X7927279Y-2911483D02*
X7998708Y-3035201D01*
X7998708Y-3035201D02*
X8087566Y-3093870D01*
X8087566Y-3093870D02*
X8152615Y-3111300D01*
X8152615Y-3111300D02*
X8258903Y-3104920D01*
X8258903Y-3104920D02*
X8588818Y-2914444D01*
X7543366Y-2913193D02*
X7007255Y-3222716D01*
X7007255Y-3222716D02*
X7486406Y-3385964D01*
X7486406Y-3385964D02*
X7362688Y-3457393D01*
X7362688Y-3457393D02*
X7304019Y-3546251D01*
X7304019Y-3546251D02*
X7286590Y-3611300D01*
X7286590Y-3611300D02*
X7292969Y-3717588D01*
X7292969Y-3717588D02*
X7412017Y-3923785D01*
X7412017Y-3923785D02*
X7500875Y-3982454D01*
X7500875Y-3982454D02*
X7565924Y-3999883D01*
X7565924Y-3999883D02*
X7672212Y-3993504D01*
X7672212Y-3993504D02*
X7919648Y-3850646D01*
X7919648Y-3850646D02*
X7978317Y-3761788D01*
X7978317Y-3761788D02*
X7995747Y-3696739D01*
X14898666Y-2232819D02*
X15231999Y-1756628D01*
X15470094Y-2232819D02*
X15470094Y-1232819D01*
X15470094Y-1232819D02*
X15089142Y-1232819D01*
X15089142Y-1232819D02*
X14993904Y-1280438D01*
X14993904Y-1280438D02*
X14946285Y-1328057D01*
X14946285Y-1328057D02*
X14898666Y-1423295D01*
X14898666Y-1423295D02*
X14898666Y-1566152D01*
X14898666Y-1566152D02*
X14946285Y-1661390D01*
X14946285Y-1661390D02*
X14993904Y-1709009D01*
X14993904Y-1709009D02*
X15089142Y-1756628D01*
X15089142Y-1756628D02*
X15470094Y-1756628D01*
X14041523Y-1566152D02*
X14041523Y-2232819D01*
X14279618Y-1185200D02*
X14517713Y-1899485D01*
X14517713Y-1899485D02*
X13898666Y-1899485D01*
X21506927Y-3779217D02*
X22033698Y-3533491D01*
X22001799Y-4064932D02*
X22501799Y-3198906D01*
X22501799Y-3198906D02*
X22171884Y-3008430D01*
X22171884Y-3008430D02*
X22065596Y-3002050D01*
X22065596Y-3002050D02*
X22000547Y-3019480D01*
X22000547Y-3019480D02*
X21911689Y-3078149D01*
X21911689Y-3078149D02*
X21840260Y-3201867D01*
X21840260Y-3201867D02*
X21833881Y-3308155D01*
X21833881Y-3308155D02*
X21851311Y-3373204D01*
X21851311Y-3373204D02*
X21909980Y-3462062D01*
X21909980Y-3462062D02*
X22239894Y-3652539D01*
X21223380Y-2460811D02*
X21635773Y-2698906D01*
X21635773Y-2698906D02*
X21438917Y-3135109D01*
X21438917Y-3135109D02*
X21421488Y-3070060D01*
X21421488Y-3070060D02*
X21362819Y-2981202D01*
X21362819Y-2981202D02*
X21156622Y-2862154D01*
X21156622Y-2862154D02*
X21050334Y-2855774D01*
X21050334Y-2855774D02*
X20985285Y-2873204D01*
X20985285Y-2873204D02*
X20896427Y-2931873D01*
X20896427Y-2931873D02*
X20777379Y-3138070D01*
X20777379Y-3138070D02*
X20770999Y-3244358D01*
X20770999Y-3244358D02*
X20788429Y-3309407D01*
X20788429Y-3309407D02*
X20847098Y-3398265D01*
X20847098Y-3398265D02*
X21053295Y-3517313D01*
X21053295Y-3517313D02*
X21159583Y-3523692D01*
X21159583Y-3523692D02*
X21224632Y-3506263D01*
X26105448Y-8753746D02*
X26684507Y-8804326D01*
X26391162Y-9248618D02*
X27257187Y-8748618D01*
X27257187Y-8748618D02*
X27066711Y-8418703D01*
X27066711Y-8418703D02*
X26977853Y-8360034D01*
X26977853Y-8360034D02*
X26912804Y-8342605D01*
X26912804Y-8342605D02*
X26806516Y-8348984D01*
X26806516Y-8348984D02*
X26682798Y-8420413D01*
X26682798Y-8420413D02*
X26624129Y-8509271D01*
X26624129Y-8509271D02*
X26606699Y-8574320D01*
X26606699Y-8574320D02*
X26613079Y-8680608D01*
X26613079Y-8680608D02*
X26803555Y-9010523D01*
X26542902Y-7511439D02*
X26638140Y-7676396D01*
X26638140Y-7676396D02*
X26644520Y-7782684D01*
X26644520Y-7782684D02*
X26627090Y-7847733D01*
X26627090Y-7847733D02*
X26550991Y-8001640D01*
X26550991Y-8001640D02*
X26409843Y-8138117D01*
X26409843Y-8138117D02*
X26079929Y-8328594D01*
X26079929Y-8328594D02*
X25973641Y-8334973D01*
X25973641Y-8334973D02*
X25908592Y-8317544D01*
X25908592Y-8317544D02*
X25819733Y-8258875D01*
X25819733Y-8258875D02*
X25724495Y-8093917D01*
X25724495Y-8093917D02*
X25718116Y-7987629D01*
X25718116Y-7987629D02*
X25735545Y-7922580D01*
X25735545Y-7922580D02*
X25794214Y-7833722D01*
X25794214Y-7833722D02*
X26000411Y-7714674D01*
X26000411Y-7714674D02*
X26106699Y-7708295D01*
X26106699Y-7708295D02*
X26171748Y-7725724D01*
X26171748Y-7725724D02*
X26260606Y-7784393D01*
X26260606Y-7784393D02*
X26355844Y-7949351D01*
X26355844Y-7949351D02*
X26362224Y-8055639D01*
X26362224Y-8055639D02*
X26344794Y-8120688D01*
X26344794Y-8120688D02*
X26286125Y-8209546D01*
X28394819Y-15073333D02*
X27918628Y-14740000D01*
X28394819Y-14501905D02*
X27394819Y-14501905D01*
X27394819Y-14501905D02*
X27394819Y-14882857D01*
X27394819Y-14882857D02*
X27442438Y-14978095D01*
X27442438Y-14978095D02*
X27490057Y-15025714D01*
X27490057Y-15025714D02*
X27585295Y-15073333D01*
X27585295Y-15073333D02*
X27728152Y-15073333D01*
X27728152Y-15073333D02*
X27823390Y-15025714D01*
X27823390Y-15025714D02*
X27871009Y-14978095D01*
X27871009Y-14978095D02*
X27918628Y-14882857D01*
X27918628Y-14882857D02*
X27918628Y-14501905D01*
X27394819Y-15406667D02*
X27394819Y-16073333D01*
X27394819Y-16073333D02*
X28394819Y-15644762D01*
X26893217Y-21927072D02*
X26647491Y-21400301D01*
X27178932Y-21432200D02*
X26312906Y-20932200D01*
X26312906Y-20932200D02*
X26122430Y-21262115D01*
X26122430Y-21262115D02*
X26116050Y-21368403D01*
X26116050Y-21368403D02*
X26133480Y-21433452D01*
X26133480Y-21433452D02*
X26192149Y-21522310D01*
X26192149Y-21522310D02*
X26315867Y-21593739D01*
X26315867Y-21593739D02*
X26422155Y-21600118D01*
X26422155Y-21600118D02*
X26487204Y-21582688D01*
X26487204Y-21582688D02*
X26576062Y-21524019D01*
X26576062Y-21524019D02*
X26766539Y-21194105D01*
X26112631Y-22136229D02*
X26119011Y-22029941D01*
X26119011Y-22029941D02*
X26101581Y-21964892D01*
X26101581Y-21964892D02*
X26042912Y-21876034D01*
X26042912Y-21876034D02*
X26001673Y-21852224D01*
X26001673Y-21852224D02*
X25895385Y-21845845D01*
X25895385Y-21845845D02*
X25830336Y-21863274D01*
X25830336Y-21863274D02*
X25741478Y-21921944D01*
X25741478Y-21921944D02*
X25646240Y-22086901D01*
X25646240Y-22086901D02*
X25639860Y-22193189D01*
X25639860Y-22193189D02*
X25657290Y-22258238D01*
X25657290Y-22258238D02*
X25715959Y-22347096D01*
X25715959Y-22347096D02*
X25757198Y-22370906D01*
X25757198Y-22370906D02*
X25863486Y-22377285D01*
X25863486Y-22377285D02*
X25928535Y-22359856D01*
X25928535Y-22359856D02*
X26017393Y-22301186D01*
X26017393Y-22301186D02*
X26112631Y-22136229D01*
X26112631Y-22136229D02*
X26201490Y-22077560D01*
X26201490Y-22077560D02*
X26266539Y-22060130D01*
X26266539Y-22060130D02*
X26372827Y-22066510D01*
X26372827Y-22066510D02*
X26537784Y-22161748D01*
X26537784Y-22161748D02*
X26596453Y-22250607D01*
X26596453Y-22250607D02*
X26613883Y-22315655D01*
X26613883Y-22315655D02*
X26607503Y-22421944D01*
X26607503Y-22421944D02*
X26512265Y-22586901D01*
X26512265Y-22586901D02*
X26423407Y-22645570D01*
X26423407Y-22645570D02*
X26358358Y-22663000D01*
X26358358Y-22663000D02*
X26252070Y-22656620D01*
X26252070Y-22656620D02*
X26087113Y-22561382D01*
X26087113Y-22561382D02*
X26028443Y-22472523D01*
X26028443Y-22472523D02*
X26011014Y-22407475D01*
X26011014Y-22407475D02*
X26017393Y-22301186D01*
X21961746Y-26980551D02*
X22012326Y-26401492D01*
X22456618Y-26694837D02*
X21956618Y-25828812D01*
X21956618Y-25828812D02*
X21626703Y-26019288D01*
X21626703Y-26019288D02*
X21568034Y-26108146D01*
X21568034Y-26108146D02*
X21550605Y-26173195D01*
X21550605Y-26173195D02*
X21556984Y-26279483D01*
X21556984Y-26279483D02*
X21628413Y-26403201D01*
X21628413Y-26403201D02*
X21717271Y-26461870D01*
X21717271Y-26461870D02*
X21782320Y-26479300D01*
X21782320Y-26479300D02*
X21888608Y-26472920D01*
X21888608Y-26472920D02*
X22218523Y-26282444D01*
X21549353Y-27218646D02*
X21384396Y-27313885D01*
X21384396Y-27313885D02*
X21278108Y-27320264D01*
X21278108Y-27320264D02*
X21213059Y-27302835D01*
X21213059Y-27302835D02*
X21059152Y-27226736D01*
X21059152Y-27226736D02*
X20922674Y-27085588D01*
X20922674Y-27085588D02*
X20732198Y-26755674D01*
X20732198Y-26755674D02*
X20725818Y-26649385D01*
X20725818Y-26649385D02*
X20743248Y-26584337D01*
X20743248Y-26584337D02*
X20801917Y-26495478D01*
X20801917Y-26495478D02*
X20966875Y-26400240D01*
X20966875Y-26400240D02*
X21073163Y-26393860D01*
X21073163Y-26393860D02*
X21138211Y-26411290D01*
X21138211Y-26411290D02*
X21227070Y-26469959D01*
X21227070Y-26469959D02*
X21346117Y-26676156D01*
X21346117Y-26676156D02*
X21352497Y-26782444D01*
X21352497Y-26782444D02*
X21335067Y-26847493D01*
X21335067Y-26847493D02*
X21276398Y-26936351D01*
X21276398Y-26936351D02*
X21111441Y-27031589D01*
X21111441Y-27031589D02*
X21005153Y-27037969D01*
X21005153Y-27037969D02*
X20940104Y-27020539D01*
X20940104Y-27020539D02*
X20851246Y-26961870D01*
X15374857Y-28648819D02*
X15708190Y-28172628D01*
X15946285Y-28648819D02*
X15946285Y-27648819D01*
X15946285Y-27648819D02*
X15565333Y-27648819D01*
X15565333Y-27648819D02*
X15470095Y-27696438D01*
X15470095Y-27696438D02*
X15422476Y-27744057D01*
X15422476Y-27744057D02*
X15374857Y-27839295D01*
X15374857Y-27839295D02*
X15374857Y-27982152D01*
X15374857Y-27982152D02*
X15422476Y-28077390D01*
X15422476Y-28077390D02*
X15470095Y-28125009D01*
X15470095Y-28125009D02*
X15565333Y-28172628D01*
X15565333Y-28172628D02*
X15946285Y-28172628D01*
X14422476Y-28648819D02*
X14993904Y-28648819D01*
X14708190Y-28648819D02*
X14708190Y-27648819D01*
X14708190Y-27648819D02*
X14803428Y-27791676D01*
X14803428Y-27791676D02*
X14898666Y-27886914D01*
X14898666Y-27886914D02*
X14993904Y-27934533D01*
X13803428Y-27648819D02*
X13708190Y-27648819D01*
X13708190Y-27648819D02*
X13612952Y-27696438D01*
X13612952Y-27696438D02*
X13565333Y-27744057D01*
X13565333Y-27744057D02*
X13517714Y-27839295D01*
X13517714Y-27839295D02*
X13470095Y-28029771D01*
X13470095Y-28029771D02*
X13470095Y-28267866D01*
X13470095Y-28267866D02*
X13517714Y-28458342D01*
X13517714Y-28458342D02*
X13565333Y-28553580D01*
X13565333Y-28553580D02*
X13612952Y-28601200D01*
X13612952Y-28601200D02*
X13708190Y-28648819D01*
X13708190Y-28648819D02*
X13803428Y-28648819D01*
X13803428Y-28648819D02*
X13898666Y-28601200D01*
X13898666Y-28601200D02*
X13946285Y-28553580D01*
X13946285Y-28553580D02*
X13993904Y-28458342D01*
X13993904Y-28458342D02*
X14041523Y-28267866D01*
X14041523Y-28267866D02*
X14041523Y-28029771D01*
X14041523Y-28029771D02*
X13993904Y-27839295D01*
X13993904Y-27839295D02*
X13946285Y-27744057D01*
X13946285Y-27744057D02*
X13898666Y-27696438D01*
X13898666Y-27696438D02*
X13803428Y-27648819D01*
X8203321Y-27385313D02*
X8730091Y-27139587D01*
X8698192Y-27671027D02*
X9198192Y-26805002D01*
X9198192Y-26805002D02*
X8868278Y-26614526D01*
X8868278Y-26614526D02*
X8761990Y-26608146D01*
X8761990Y-26608146D02*
X8696941Y-26625576D01*
X8696941Y-26625576D02*
X8608083Y-26684245D01*
X8608083Y-26684245D02*
X8536654Y-26807963D01*
X8536654Y-26807963D02*
X8530274Y-26914251D01*
X8530274Y-26914251D02*
X8547704Y-26979300D01*
X8547704Y-26979300D02*
X8606373Y-27068158D01*
X8606373Y-27068158D02*
X8936288Y-27258634D01*
X7378535Y-26909122D02*
X7873406Y-27194837D01*
X7625970Y-27051980D02*
X8125970Y-26185954D01*
X8125970Y-26185954D02*
X8137020Y-26357291D01*
X8137020Y-26357291D02*
X8171880Y-26487389D01*
X8171880Y-26487389D02*
X8230549Y-26576247D01*
X6553748Y-26432932D02*
X7048620Y-26718646D01*
X6801184Y-26575789D02*
X7301184Y-25709764D01*
X7301184Y-25709764D02*
X7312234Y-25881101D01*
X7312234Y-25881101D02*
X7347094Y-26011198D01*
X7347094Y-26011198D02*
X7405763Y-26100057D01*
X2975543Y-22714435D02*
X3554603Y-22765015D01*
X3261258Y-23209306D02*
X4127283Y-22709306D01*
X4127283Y-22709306D02*
X3936807Y-22379392D01*
X3936807Y-22379392D02*
X3847948Y-22320723D01*
X3847948Y-22320723D02*
X3782900Y-22303293D01*
X3782900Y-22303293D02*
X3676611Y-22309673D01*
X3676611Y-22309673D02*
X3552894Y-22381101D01*
X3552894Y-22381101D02*
X3494224Y-22469960D01*
X3494224Y-22469960D02*
X3476795Y-22535009D01*
X3476795Y-22535009D02*
X3483174Y-22641297D01*
X3483174Y-22641297D02*
X3673651Y-22971211D01*
X2499353Y-21889649D02*
X2785067Y-22384520D01*
X2642210Y-22137084D02*
X3508235Y-21637084D01*
X3508235Y-21637084D02*
X3432136Y-21790992D01*
X3432136Y-21790992D02*
X3397277Y-21921089D01*
X3397277Y-21921089D02*
X3403657Y-22027377D01*
X3092423Y-21107353D02*
X3109853Y-21042304D01*
X3109853Y-21042304D02*
X3103473Y-20936016D01*
X3103473Y-20936016D02*
X2984426Y-20729820D01*
X2984426Y-20729820D02*
X2895567Y-20671151D01*
X2895567Y-20671151D02*
X2830519Y-20653721D01*
X2830519Y-20653721D02*
X2724230Y-20660101D01*
X2724230Y-20660101D02*
X2641752Y-20707720D01*
X2641752Y-20707720D02*
X2541843Y-20820387D01*
X2541843Y-20820387D02*
X2332686Y-21600973D01*
X2332686Y-21600973D02*
X2023162Y-21064862D01*
X19115205Y-18173310D02*
X19620281Y-18678386D01*
X19620281Y-18678386D02*
X19754968Y-18745730D01*
X19754968Y-18745730D02*
X19889655Y-18745730D01*
X19889655Y-18745730D02*
X20024342Y-18678386D01*
X20024342Y-18678386D02*
X20091686Y-18611043D01*
X19115205Y-19587524D02*
X19519266Y-19183463D01*
X19317235Y-19385493D02*
X18610128Y-18678386D01*
X18610128Y-18678386D02*
X18778487Y-18712058D01*
X18778487Y-18712058D02*
X18913174Y-18712058D01*
X18913174Y-18712058D02*
X19014189Y-18678386D01*
X18037709Y-19722211D02*
X18509113Y-20193615D01*
X17936693Y-19284478D02*
X18610128Y-19621195D01*
X18610128Y-19621195D02*
X18172396Y-20058928D01*
D11*
%TO.C,R1*%
X2444000Y-17160000D02*
X2444000Y-13320000D01*
X604000Y-17160000D02*
X604000Y-13320000D01*
%TO.C,R2*%
X1291257Y-9584769D02*
X3211257Y-6259232D01*
X2884743Y-10504769D02*
X4804743Y-7179232D01*
%TO.C,R3*%
X5837527Y-3465257D02*
X9163064Y-1545257D01*
X6757527Y-5058743D02*
X10083064Y-3138743D01*
%TO.C,R4*%
X12812000Y-858000D02*
X16652000Y-858000D01*
X12812000Y-2698000D02*
X16652000Y-2698000D01*
%TO.C,R5*%
X20387232Y-1545257D02*
X23712769Y-3465257D01*
X19467232Y-3138743D02*
X22792769Y-5058743D01*
%TO.C,R6*%
X26252743Y-6259232D02*
X28172743Y-9584769D01*
X24659257Y-7179232D02*
X26579257Y-10504769D01*
%TO.C,R7*%
X28860000Y-13320000D02*
X28860000Y-17160000D01*
X27020000Y-13320000D02*
X27020000Y-17160000D01*
%TO.C,R8*%
X28172743Y-20641232D02*
X26252743Y-23966769D01*
X26579257Y-19721232D02*
X24659257Y-23046769D01*
%TO.C,R9*%
X22792769Y-24913257D02*
X19467232Y-26833257D01*
X23712769Y-26506743D02*
X20387232Y-28426743D01*
%TO.C,R10*%
X16652000Y-27274000D02*
X12812000Y-27274000D01*
X16652000Y-29114000D02*
X12812000Y-29114000D01*
%TO.C,R11*%
X9076769Y-28426743D02*
X5751232Y-26506743D01*
X9996769Y-26833257D02*
X6671232Y-24913257D01*
%TO.C,R12*%
X4804743Y-23133064D02*
X2884743Y-19807527D01*
X3211257Y-24053064D02*
X1291257Y-20727527D01*
%TO.C,J14*%
X19826312Y-9252949D02*
X25214466Y-14641103D01*
X14438159Y-25417410D02*
X25214466Y-14641103D01*
X9948031Y-20927282D02*
X20724338Y-10150975D01*
X9050005Y-20029256D02*
X19826312Y-9252949D01*
X9050005Y-20029256D02*
X14438159Y-25417410D01*
%TD*%
M02*
