M48
; DRILL file {KiCad 7.0.6} date Tue Sep 19 13:46:08 2023
; FORMAT={-:-/ absolute / inch / decimal}
; #@! TF.CreationDate,2023-09-19T13:46:08+08:00
; #@! TF.GenerationSoftware,Kicad,Pcbnew,7.0.6
; #@! TF.FileFunction,Plated,1,2,PTH
FMAT,2
INCH
; #@! TA.AperFunction,Plated,PTH,ComponentDrill
T1C0.0276
; #@! TA.AperFunction,Plated,PTH,ComponentDrill
T2C0.0315
; #@! TA.AperFunction,Plated,PTH,ComponentDrill
T3C0.0354
; #@! TA.AperFunction,Plated,PTH,ComponentDrill
T4C0.0394
; #@! TA.AperFunction,Plated,PTH,ComponentDrill
T5C0.0400
; #@! TA.AperFunction,Plated,PTH,ComponentDrill
T6C0.0433
; #@! TA.AperFunction,Plated,PTH,ComponentDrill
T7C0.0598
%
G90
G05
T1
X2.2621Y-3.1389
X2.2621Y-3.3389
X2.7279Y-2.6147
X2.7279Y-2.8147
X2.8529Y-2.6147
X2.8529Y-2.8147
X2.9779Y-2.6147
X2.9779Y-2.8147
X3.1029Y-2.6147
X3.1029Y-2.8147
X3.2279Y-2.6147
X3.2279Y-2.8147
X3.3529Y-2.6147
X3.3529Y-2.8147
X3.4779Y-2.6147
X3.4779Y-2.8147
X3.6033Y-2.6145
X3.6033Y-2.8145
T2
X2.4264Y-3.2269
X2.4264Y-3.5269
X2.5264Y-3.2269
X2.5264Y-3.5269
X2.7397Y-1.7175
X2.7397Y-1.8175
X2.7397Y-1.9175
X2.7397Y-2.0175
X2.7397Y-2.1175
X2.7397Y-2.2175
X2.7397Y-2.3175
X2.7397Y-2.4175
X3.0397Y-1.7175
X3.0397Y-1.8175
X3.0397Y-1.9175
X3.0397Y-2.0175
X3.0397Y-2.1175
X3.0397Y-2.2175
X3.0397Y-2.3175
X3.0397Y-2.4175
X3.3119Y-1.7175
X3.3119Y-1.8175
X3.3119Y-1.9175
X3.3119Y-2.0175
X3.3119Y-2.1175
X3.3119Y-2.2175
X3.3119Y-2.3175
X3.3119Y-2.4175
X3.6119Y-1.7175
X3.6119Y-1.8175
X3.6119Y-1.9175
X3.6119Y-2.0175
X3.6119Y-2.1175
X3.6119Y-2.2175
X3.6119Y-2.3175
X3.6119Y-2.4175
X3.9554Y-4.2716
X3.9554Y-4.5716
X3.9554Y-4.6566
X3.9554Y-4.9566
X3.9554Y-5.0416
X3.9554Y-5.3416
X3.9604Y-4.1666
X4.0754Y-5.0416
X4.0754Y-5.3416
X4.2604Y-4.1666
X4.3454Y-4.1666
X4.3454Y-5.3366
X4.6454Y-4.1666
X4.6454Y-5.3366
X4.7304Y-4.1666
X4.9104Y-5.0416
X4.9104Y-5.3416
X5.0304Y-4.1666
X5.0304Y-4.2716
X5.0304Y-4.5716
X5.0304Y-4.6566
X5.0304Y-4.9566
X5.0304Y-5.0416
X5.0304Y-5.3416
X7.1237Y-2.0131
X7.1237Y-2.3131
X7.2237Y-2.0131
X7.2237Y-2.3131
T3
X2.7279Y-2.8995
X2.7279Y-2.9995
X2.8529Y-3.0767
X2.8529Y-3.1767
X2.9779Y-2.8995
X2.9779Y-2.9995
X3.1029Y-3.0767
X3.1029Y-3.1767
X3.2279Y-2.8995
X3.2279Y-2.9995
X3.3529Y-3.0767
X3.3529Y-3.1767
X3.4779Y-2.8995
X3.4779Y-2.9995
X3.6033Y-3.0765
X3.6033Y-3.1765
T4
X2.3656Y-1.977
X2.3656Y-2.077
X2.3656Y-2.177
X2.3656Y-2.277
X2.3656Y-2.377
X2.3656Y-2.477
X2.3656Y-2.577
X2.3656Y-2.677
X2.3656Y-2.777
X2.3656Y-2.877
X2.4656Y-1.977
X2.4656Y-2.077
X2.4656Y-2.177
X2.4656Y-2.277
X2.4656Y-2.377
X2.4656Y-2.477
X2.4656Y-2.577
X2.4656Y-2.677
X2.4656Y-2.777
X2.4656Y-2.877
X2.9659Y-3.3725
X2.9659Y-3.4725
X3.0659Y-3.3725
X3.0659Y-3.4725
X3.1659Y-3.3725
X3.1659Y-3.4725
X3.2659Y-3.3725
X3.2659Y-3.4725
X3.3659Y-3.3725
X3.3659Y-3.4725
X4.0734Y-4.5959
X4.0734Y-4.82
X4.1855Y-4.4017
X4.1855Y-5.0142
X4.3796Y-4.2896
X4.3796Y-5.1263
X4.3804Y-4.5966
X4.6038Y-5.1263
X4.6038Y-4.2896
X4.7979Y-4.4017
X4.7979Y-5.0142
X4.91Y-4.5959
X4.91Y-4.82
X5.77Y-2.14
X5.77Y-2.24
X5.87Y-2.14
X5.87Y-2.24
X5.97Y-2.14
X5.97Y-2.24
X6.07Y-2.14
X6.07Y-2.24
X6.17Y-2.14
X6.17Y-2.24
X6.21Y-1.71
X6.21Y-1.81
X6.31Y-1.71
X6.31Y-1.81
X6.41Y-1.71
X6.41Y-1.81
X6.51Y-1.71
X6.51Y-1.81
X6.61Y-1.71
X6.61Y-1.81
X6.71Y-1.71
X6.71Y-1.81
X6.81Y-1.71
X6.81Y-1.81
X6.91Y-1.71
X6.91Y-1.81
X7.01Y-1.71
X7.01Y-1.81
X7.11Y-1.71
X7.11Y-1.81
T5
X5.49Y-1.41
X5.49Y-1.51
X5.49Y-1.81
X5.49Y-1.91
X5.49Y-2.01
X5.49Y-2.11
X5.49Y-2.21
X5.49Y-2.31
X5.49Y-2.41
X5.49Y-2.51
X5.49Y-2.71
X5.49Y-2.81
X5.49Y-2.91
X5.49Y-3.01
X5.49Y-3.11
X5.49Y-3.21
X5.49Y-3.31
X5.49Y-3.41
X5.49Y-3.57
X5.49Y-3.67
X5.49Y-3.77
X5.49Y-3.87
X5.49Y-3.97
X5.49Y-4.07
X5.49Y-4.17
X5.49Y-4.27
X5.49Y-4.37
X5.49Y-4.47
X5.59Y-1.41
X5.59Y-1.51
X5.69Y-1.41
X5.69Y-1.51
X5.79Y-1.41
X5.79Y-1.51
X5.89Y-1.41
X5.89Y-1.51
X5.99Y-1.41
X5.99Y-1.51
X6.09Y-1.41
X6.09Y-1.51
X6.19Y-1.41
X6.19Y-1.51
X6.29Y-1.41
X6.29Y-1.51
X6.29Y-2.605
X6.29Y-2.705
X6.39Y-1.41
X6.39Y-1.51
X6.39Y-2.605
X6.39Y-2.705
X6.49Y-1.41
X6.49Y-1.51
X6.49Y-2.605
X6.49Y-2.705
X6.59Y-1.41
X6.59Y-1.51
X6.69Y-1.41
X6.69Y-1.51
X6.79Y-1.41
X6.79Y-1.51
X6.89Y-1.41
X6.89Y-1.51
X6.99Y-1.41
X6.99Y-1.51
X7.09Y-1.41
X7.09Y-1.51
X7.19Y-1.41
X7.19Y-1.51
X7.39Y-1.61
X7.39Y-1.71
X7.39Y-1.81
X7.39Y-1.91
X7.39Y-2.01
X7.39Y-2.11
X7.39Y-2.21
X7.39Y-2.31
X7.39Y-2.51
X7.39Y-2.61
X7.39Y-2.71
X7.39Y-2.81
X7.39Y-2.91
X7.39Y-3.01
X7.39Y-3.11
X7.39Y-3.21
X7.39Y-3.41
X7.39Y-3.51
X7.39Y-3.61
X7.39Y-3.71
X7.39Y-3.81
X7.39Y-3.91
X7.39Y-4.01
X7.39Y-4.11
T6
X5.7014Y-1.632
X5.7014Y-1.888
X5.8786Y-1.632
X5.8786Y-1.888
T7
X1.6918Y-1.31
X1.7423Y-1.5784
X1.7423Y-1.7784
X1.7423Y-1.9784
X1.7423Y-2.1956
X1.7423Y-2.3956
X1.7423Y-2.5956
X1.7423Y-2.8126
X1.7423Y-3.0126
X1.7423Y-3.2126
X1.7423Y-3.4295
X1.7423Y-3.6295
X1.7423Y-3.8295
X1.8918Y-1.31
X2.0597Y-1.5784
X2.0597Y-1.7784
X2.0597Y-1.9784
X2.0597Y-2.1956
X2.0597Y-2.3956
X2.0597Y-2.5956
X2.0597Y-2.8126
X2.0597Y-3.0126
X2.0597Y-3.2126
X2.0597Y-3.4295
X2.0597Y-3.6295
X2.0597Y-3.8295
X2.0918Y-1.31
X2.309Y-1.31
X2.3264Y-3.779
X2.509Y-1.31
X2.5264Y-3.779
X2.709Y-1.31
X2.7424Y-3.779
X2.926Y-1.31
X2.9424Y-3.779
X3.126Y-1.31
X3.159Y-3.779
X3.326Y-1.31
X3.359Y-3.779
X3.543Y-1.31
X3.743Y-1.31
X3.8923Y-1.5776
X3.8923Y-1.7776
X3.8923Y-1.9776
X3.8923Y-2.1947
X3.8923Y-2.3947
X3.8923Y-2.5947
X3.8923Y-2.8117
X3.8923Y-3.0117
X3.8923Y-3.2117
X3.8923Y-3.4287
X3.8923Y-3.6287
X3.8923Y-3.8287
X3.943Y-1.31
X4.16Y-1.31
X4.36Y-1.31
X4.4434Y-4.9405
X4.56Y-1.31
X4.5849Y-4.7991
X4.7263Y-4.6577
X4.7764Y-1.31
X4.9764Y-1.31
X6.5029Y-2.1175
X6.7029Y-2.1175
X6.9029Y-2.1175
T0
M30
