0
SECTION
2
HEADER
9
$INSUNITS
70
4
9
$ACADVER
1
AC1014
9
$HANDSEED
5
FFFF
0
ENDSEC
0
SECTION
2
TABLES
0
TABLE
2
VPORT
5
8
100
AcDbSymbolTable
0
ENDTAB
0
TABLE
2
LTYPE
5
5
100
AcDbSymbolTable
0
LTYPE
5
14
100
AcDbSymbolTableRecord
100
AcDbLinetypeTableRecord
2
BYBLOCK
70
0
0
LTYPE
5
15
100
AcDbSymbolTableRecord
100
AcDbLinetypeTableRecord
2
BYLAYER
70
0
0
ENDTAB
0
TABLE
2
LAYER
5
2
100
AcDbSymbolTable
70
2
0
LAYER
5
50
100
AcDbSymbolTableRecord
100
AcDbLayerTableRecord
2
0
70
0
6
CONTINUOUS
0
ENDTAB
0
TABLE
2
STYLE
5
3
100
AcDbSymbolTable
70
1
0
STYLE
5
11
100
AcDbSymbolTableRecord
100
AcDbTextStyleTableRecord
2
STANDARD
70
0
0
ENDTAB
0
TABLE
2
VIEW
5
6
100
AcDbSymbolTable
70
0
0
ENDTAB
0
TABLE
2
UCS
5
7
100
AcDbSymbolTable
70
0
0
ENDTAB
0
TABLE
2
APPID
5
9
100
AcDbSymbolTable
70
2
0
APPID
5
12
100
AcDbSymbolTableRecord
100
AcDbRegAppTableRecord
2
ACAD
70
0
0
ENDTAB
0
TABLE
2
DIMSTYLE
5
A
100
AcDbSymbolTable
70
1
0
ENDTAB
0
TABLE
2
BLOCK_RECORD
5
1
100
AcDbSymbolTable
70
1
0
BLOCK_RECORD
5
1F
100
AcDbSymbolTableRecord
100
AcDbBlockTableRecord
2
*MODEL_SPACE
0
BLOCK_RECORD
5
1B
100
AcDbSymbolTableRecord
100
AcDbBlockTableRecord
2
*PAPER_SPACE
0
ENDTAB
0
ENDSEC
0
SECTION
2
BLOCKS
0
BLOCK
5
20
100
AcDbEntity
100
AcDbBlockBegin
2
*MODEL_SPACE
0
ENDBLK
5
21
100
AcDbEntity
100
AcDbBlockEnd
0
BLOCK
5
1C
100
AcDbEntity
100
AcDbBlockBegin
2
*PAPER_SPACE
0
ENDBLK
5
1D
100
AcDbEntity
100
AcDbBlockEnd
0
ENDSEC
0
SECTION
2
ENTITIES
0
LWPOLYLINE
5
100
100
AcDbEntity
8
0
100
AcDbPolyline
90
4
70
1
43
0.0
10
-711.00000001490116
20
0
10
-711.00000001490116
20
36.00000001490131
10
-522.99999998509873
20
36.00000001490131
10
-522.99999998509873
20
0
0
LWPOLYLINE
5
101
100
AcDbEntity
8
0
100
AcDbPolyline
90
4
70
1
43
0.0
10
5
20
145
10
-725
20
145
10
-725
20
-5
10
5
20
-5
0
LWPOLYLINE
5
102
100
AcDbEntity
8
0
100
AcDbPolyline
90
4
70
1
43
0.0
10
-404.90800830220712
20
84.000000000000142
10
-403.90800830220701
20
84.000000000000213
42
-0.99999999999999989
10
-403.90800830220712
20
80.000000000000128
10
-404.90800830220712
20
80.000000000000128
42
-0.99999999999999989
0
LWPOLYLINE
5
103
100
AcDbEntity
8
0
100
AcDbPolyline
90
4
70
1
43
0.0
10
-290.90800830220718
20
74.000000000000142
10
-289.90800830220718
20
74.000000000000142
42
-0.99999999999999989
10
-289.90800830220712
20
70.000000000000142
10
-290.90800830220707
20
70.000000000000114
42
-0.99999999999999989
0
LWPOLYLINE
5
104
100
AcDbEntity
8
0
100
AcDbPolyline
90
4
70
1
43
0.0
10
-428.90800830220718
20
10.000000000000151
42
0.99999999999999989
10
-428.90800830220707
20
6.0000000000000808
10
-427.90800830220712
20
6.0000000000001519
42
0.99999999999999989
10
-427.90800830220712
20
10.000000000000151
0
LWPOLYLINE
5
105
100
AcDbEntity
8
0
100
AcDbPolyline
90
4
70
1
43
0.0
10
-290.90800830220718
20
10.000000000000151
42
0.99999999999999989
10
-290.90800830220707
20
6.0000000000001519
10
-289.90800830220712
20
6.0000000000001519
42
0.99999999999999989
10
-289.90800830220712
20
10.000000000000151
0
CIRCLE
5
106
100
AcDbEntity
8
0
100
AcDbCircle
10
-87.500000000000014
20
80.5
30
0
40
10
210
0
220
0
230
1
0
CIRCLE
5
107
100
AcDbEntity
8
0
100
AcDbCircle
10
-177.5
20
80.500000000000043
30
0
40
10
210
0
220
0
230
1
0
LWPOLYLINE
5
108
100
AcDbEntity
8
0
100
AcDbPolyline
90
8
70
1
43
0.0
10
-239.00000000000003
20
14.500000000000002
10
-239.00000000000003
20
55.5
42
-0.41421356237309659
10
-234.00000000000006
20
60.5
10
-31.000000000000014
20
60.500000000000007
42
-0.41421356237309453
10
-26.000000000000014
20
55.5
10
-26.000000000000032
20
14.500000000000002
42
-0.41421356237309492
10
-31.000000000000014
20
9.5000000000000107
10
-234.00000000000003
20
9.4999999999999769
42
-0.41421356237309231
0
LWPOLYLINE
5
109
100
AcDbEntity
8
0
100
AcDbPolyline
90
12
70
1
43
0.0
10
-294.90800830220712
20
1.4357970266468122e-13
10
-423.90800830220712
20
2.5254809253164043e-13
10
-423.90800830220712
20
12.000000000000151
10
-435.40800830220741
20
12.000000000000151
10
-435.40800830220746
20
78.000000000000128
10
-399.90800830220707
20
78.000000000000128
10
-399.90800830220707
20
88.000000000000256
10
-294.90800830220712
20
88.000000000000142
10
-294.90800830220712
20
68.000000000000142
10
-284.40800830220712
20
68.000000000000142
10
-284.40800830220712
20
12.000000000000153
10
-294.90800830220712
20
12.000000000000151
0
LWPOLYLINE
5
110
100
AcDbEntity
8
0
100
AcDbPolyline
90
12
70
1
43
0.0
10
-294.90800830220712
20
1.4432899320127035e-13
10
-294.90800830220712
20
12.000000000000151
10
-284.40800830220712
20
12.000000000000151
10
-284.40800830220712
20
68.000000000000142
10
-294.90800830220712
20
68.000000000000142
10
-294.90800830220712
20
88.000000000000142
10
-399.90800830220707
20
88.000000000000256
10
-399.90800830220707
20
78.000000000000128
10
-435.40800830220746
20
78.000000000000128
10
-435.40800830220741
20
12.000000000000153
10
-423.90800830220712
20
12.000000000000151
10
-423.90800830220712
20
2.5313084961453569e-13
0
LWPOLYLINE
5
111
100
AcDbEntity
8
0
100
AcDbPolyline
90
4
70
1
43
0.0
10
-725
20
-5
10
-725
20
145
10
5
20
145
10
5
20
-5
0
LWPOLYLINE
5
112
100
AcDbEntity
8
0
100
AcDbPolyline
90
8
70
1
43
0.0
10
-239.00000000000003
20
55.5
10
-239.00000000000003
20
14.500000000000002
42
0.41421356237309503
10
-234.00000000000003
20
9.5000000000000018
10
-31.000000000000014
20
9.5000000000000107
42
0.41421356237309453
10
-26.000000000000032
20
14.500000000000002
10
-26.000000000000014
20
55.5
42
0.41421356237309503
10
-31.000000000000021
20
60.500000000000007
10
-234.00000000000006
20
60.5
42
0.41421356237309293
0
LWPOLYLINE
5
113
100
AcDbEntity
8
0
100
AcDbPolyline
90
4
70
1
43
0.0
10
-403.90800830220712
20
84.000000000000142
10
-404.90800830220712
20
84.000000000000142
42
0.99999999999999989
10
-404.90800830220712
20
80.000000000000128
10
-403.90800830220712
20
80.000000000000128
42
0.99999999999999989
0
LWPOLYLINE
5
114
100
AcDbEntity
8
0
100
AcDbPolyline
90
4
70
1
43
0.0
10
-289.90800830220712
20
74.000000000000142
10
-290.90800830220718
20
74.000000000000142
42
0.99999999999999989
10
-290.90800830220712
20
70.000000000000142
10
-289.90800830220712
20
70.000000000000142
42
0.99999999999999989
0
LWPOLYLINE
5
115
100
AcDbEntity
8
0
100
AcDbPolyline
90
4
70
1
43
0.0
10
-428.90800830220718
20
10.000000000000151
42
0.99999999999999989
10
-428.90800830220707
20
6.0000000000001519
10
-427.90800830220712
20
6.0000000000001519
42
0.99999999999999989
10
-427.90800830220712
20
10.000000000000151
0
CIRCLE
5
116
100
AcDbEntity
8
0
100
AcDbCircle
10
-87.500000000000014
20
80.5
30
0
40
10
210
0
220
-0
230
1
0
CIRCLE
5
117
100
AcDbEntity
8
0
100
AcDbCircle
10
-177.5
20
80.500000000000043
30
0
40
10
210
0
220
-0
230
1
0
LWPOLYLINE
5
118
100
AcDbEntity
8
0
100
AcDbPolyline
90
4
70
1
43
0.0
10
-290.90800830220718
20
10.000000000000151
42
0.99999999999999989
10
-290.90800830220707
20
6.0000000000001519
10
-289.90800830220712
20
6.0000000000001519
42
0.99999999999999989
10
-289.90800830220712
20
10.000000000000151
0
LWPOLYLINE
5
119
100
AcDbEntity
8
0
100
AcDbPolyline
90
4
70
1
43
0.0
10
-711.00000001490116
20
0
10
-522.99999998509873
20
0
10
-522.99999998509873
20
36.00000001490131
10
-711.00000001490116
20
36.00000001490131
0
ENDSEC
0
SECTION
2
OBJECTS
0
DICTIONARY
5
C
100
AcDbDictionary
3
ACAD_GROUP
350
D
3
ACAD_MLINESTYLE
350
17
0
DICTIONARY
5
D
100
AcDbDictionary
0
DICTIONARY
5
1A
330
C
100
AcDbDictionary
0
DICTIONARY
5
17
100
AcDbDictionary
0
ENDSEC
0
EOF
