%TF.GenerationSoftware,KiCad,Pcbnew,7.0.6*%
%TF.CreationDate,2023-09-19T12:35:55+08:00*%
%TF.ProjectId,Control Panel Motherboard,436f6e74-726f-46c2-9050-616e656c204d,0*%
%TF.SameCoordinates,Original*%
%TF.FileFunction,Soldermask,Top*%
%TF.FilePolarity,Negative*%
%FSLAX46Y46*%
G04 Gerber Fmt 4.6, Leading zero omitted, Abs format (unit mm)*
G04 Created by KiCad (PCBNEW 7.0.6) date 2023-09-19 12:35:55*
%MOMM*%
%LPD*%
G01*
G04 APERTURE LIST*
G04 Aperture macros list*
%AMRoundRect*
0 Rectangle with rounded corners*
0 $1 Rounding radius*
0 $2 $3 $4 $5 $6 $7 $8 $9 X,Y pos of 4 corners*
0 Add a 4 corners polygon primitive as box body*
4,1,4,$2,$3,$4,$5,$6,$7,$8,$9,$2,$3,0*
0 Add four circle primitives for the rounded corners*
1,1,$1+$1,$2,$3*
1,1,$1+$1,$4,$5*
1,1,$1+$1,$6,$7*
1,1,$1+$1,$8,$9*
0 Add four rect primitives between the rounded corners*
20,1,$1+$1,$2,$3,$4,$5,0*
20,1,$1+$1,$4,$5,$6,$7,0*
20,1,$1+$1,$6,$7,$8,$9,0*
20,1,$1+$1,$8,$9,$2,$3,0*%
G04 Aperture macros list end*
%ADD10C,1.700000*%
%ADD11RoundRect,0.250000X-0.600000X0.600000X-0.600000X-0.600000X0.600000X-0.600000X0.600000X0.600000X0*%
%ADD12C,1.800000*%
%ADD13R,1.800000X1.800000*%
%ADD14R,3.000000X3.000000*%
%ADD15C,3.000000*%
%ADD16C,1.400000*%
%ADD17O,1.400000X1.400000*%
%ADD18R,1.600000X1.600000*%
%ADD19O,1.600000X1.600000*%
%ADD20RoundRect,0.250000X0.600000X0.600000X-0.600000X0.600000X-0.600000X-0.600000X0.600000X-0.600000X0*%
G04 APERTURE END LIST*
D10*
%TO.C,IDC_RF1*%
X36478400Y-59563000D03*
X36478400Y-57023000D03*
X39018400Y-59563000D03*
X39018400Y-57023000D03*
X41558400Y-59563000D03*
X41558400Y-57023000D03*
X44098400Y-59563000D03*
X44098400Y-57023000D03*
X46638400Y-59563000D03*
D11*
X46638400Y-57023000D03*
%TD*%
D12*
%TO.C,D8*%
X30434000Y-47549600D03*
D13*
X30434000Y-45009600D03*
%TD*%
D12*
%TO.C,D7*%
X33609000Y-52049600D03*
D13*
X33609000Y-49509600D03*
%TD*%
D12*
%TO.C,D6*%
X36784000Y-47549600D03*
D13*
X36784000Y-45009600D03*
%TD*%
D12*
%TO.C,D5*%
X39959000Y-52049600D03*
D13*
X39959000Y-49509600D03*
%TD*%
%TO.C,D4*%
X43134000Y-45009600D03*
D12*
X43134000Y-47549600D03*
%TD*%
%TO.C,D3*%
X46309000Y-52049600D03*
D13*
X46309000Y-49509600D03*
%TD*%
%TO.C,D2*%
X49484000Y-45009600D03*
D12*
X49484000Y-47549600D03*
%TD*%
%TO.C,D1*%
X52667650Y-52044200D03*
D13*
X52667650Y-49504200D03*
%TD*%
D14*
%TO.C,J12*%
X87546000Y-4635000D03*
D15*
X82466000Y-4635000D03*
%TD*%
%TO.C,J17*%
X66808600Y-4636000D03*
X71888600Y-4636000D03*
D14*
X76968600Y-4636000D03*
%TD*%
D16*
%TO.C,R9*%
X30434000Y-37776000D03*
D17*
X30434000Y-42856000D03*
%TD*%
D15*
%TO.C,J2*%
X5398000Y-37289400D03*
X5398000Y-32209400D03*
D14*
X5398000Y-27129400D03*
%TD*%
%TO.C,J7*%
X13462000Y-52961200D03*
D15*
X13462000Y-47881200D03*
X13462000Y-42801200D03*
%TD*%
D16*
%TO.C,R3*%
X49484000Y-37776000D03*
D17*
X49484000Y-42856000D03*
%TD*%
D18*
%TO.C,U2*%
X45267650Y-14986000D03*
D19*
X45267650Y-17526000D03*
X45267650Y-20066000D03*
X45267650Y-22606000D03*
X45267650Y-25146000D03*
X45267650Y-27686000D03*
X45267650Y-30226000D03*
X45267650Y-32766000D03*
X52887650Y-32766000D03*
X52887650Y-30226000D03*
X52887650Y-27686000D03*
X52887650Y-25146000D03*
X52887650Y-22606000D03*
X52887650Y-20066000D03*
X52887650Y-17526000D03*
X52887650Y-14986000D03*
%TD*%
D20*
%TO.C,J11*%
X23771400Y-44438000D03*
D10*
X21231400Y-44438000D03*
X23771400Y-41898000D03*
X21231400Y-41898000D03*
X23771400Y-39358000D03*
X21231400Y-39358000D03*
X23771400Y-36818000D03*
X21231400Y-36818000D03*
X23771400Y-34278000D03*
X21231400Y-34278000D03*
X23771400Y-31738000D03*
X21231400Y-31738000D03*
X23771400Y-29198000D03*
X21231400Y-29198000D03*
X23771400Y-26658000D03*
X21231400Y-26658000D03*
X23771400Y-24118000D03*
X21231400Y-24118000D03*
X23771400Y-21578000D03*
X21231400Y-21578000D03*
%TD*%
D15*
%TO.C,J8*%
X13462000Y-58470800D03*
X13462000Y-63550800D03*
D14*
X13462000Y-68630800D03*
%TD*%
%TO.C,J6*%
X13462000Y-37289400D03*
D15*
X13462000Y-32209400D03*
X13462000Y-27129400D03*
%TD*%
%TO.C,J1*%
X5398000Y-21613200D03*
X5398000Y-16533200D03*
D14*
X5398000Y-11453200D03*
%TD*%
D15*
%TO.C,J4*%
X5398000Y-68630800D03*
X5398000Y-63550800D03*
D14*
X5398000Y-58470800D03*
%TD*%
D16*
%TO.C,R5*%
X43134000Y-37776000D03*
D17*
X43134000Y-42856000D03*
%TD*%
D14*
%TO.C,J13*%
X14277000Y-4636000D03*
D15*
X9197000Y-4636000D03*
X4117000Y-4636000D03*
%TD*%
D14*
%TO.C,J9*%
X20236000Y-67348600D03*
D15*
X25316000Y-67348600D03*
%TD*%
D14*
%TO.C,J16*%
X61296800Y-4636000D03*
D15*
X56216800Y-4636000D03*
X51136800Y-4636000D03*
%TD*%
D17*
%TO.C,R7*%
X36784000Y-42856000D03*
D16*
X36784000Y-37776000D03*
%TD*%
D15*
%TO.C,J18*%
X60008000Y-11432200D03*
X60008000Y-16512200D03*
D14*
X60008000Y-21592200D03*
%TD*%
D15*
%TO.C,J22*%
X46464400Y-67348600D03*
D14*
X41384400Y-67348600D03*
%TD*%
%TO.C,J14*%
X29953200Y-4636000D03*
D15*
X24873200Y-4636000D03*
X19793200Y-4636000D03*
%TD*%
D14*
%TO.C,J10*%
X30802400Y-67348600D03*
D15*
X35882400Y-67348600D03*
%TD*%
D17*
%TO.C,R6*%
X39959000Y-42856000D03*
D16*
X39959000Y-37776000D03*
%TD*%
D15*
%TO.C,J21*%
X60008000Y-58449800D03*
X60008000Y-63529800D03*
D14*
X60008000Y-68609800D03*
%TD*%
D18*
%TO.C,U3*%
X30734000Y-14986000D03*
D19*
X30734000Y-17526000D03*
X30734000Y-20066000D03*
X30734000Y-22606000D03*
X30734000Y-25146000D03*
X30734000Y-27686000D03*
X30734000Y-30226000D03*
X30734000Y-32766000D03*
X38354000Y-32766000D03*
X38354000Y-30226000D03*
X38354000Y-27686000D03*
X38354000Y-25146000D03*
X38354000Y-22606000D03*
X38354000Y-20066000D03*
X38354000Y-17526000D03*
X38354000Y-14986000D03*
%TD*%
D16*
%TO.C,R8*%
X33609000Y-37776000D03*
D17*
X33609000Y-42856000D03*
%TD*%
D14*
%TO.C,J15*%
X45625000Y-4636000D03*
D15*
X40545000Y-4636000D03*
X35465000Y-4636000D03*
%TD*%
D14*
%TO.C,J3*%
X5398000Y-42801200D03*
D15*
X5398000Y-47881200D03*
X5398000Y-52961200D03*
%TD*%
D17*
%TO.C,R4*%
X46309000Y-42856000D03*
D16*
X46309000Y-37776000D03*
%TD*%
D14*
%TO.C,J20*%
X60008000Y-52940200D03*
D15*
X60008000Y-47860200D03*
X60008000Y-42780200D03*
%TD*%
D16*
%TO.C,R2*%
X52667650Y-37770600D03*
D17*
X52667650Y-42850600D03*
%TD*%
D14*
%TO.C,J19*%
X60008000Y-37268400D03*
D15*
X60008000Y-32188400D03*
X60008000Y-27108400D03*
%TD*%
D14*
%TO.C,J5*%
X13462000Y-21613200D03*
D15*
X13462000Y-16533200D03*
X13462000Y-11453200D03*
%TD*%
D16*
%TO.C,R1*%
X18601400Y-56169600D03*
D17*
X18601400Y-51089600D03*
%TD*%
D19*
%TO.C,U1*%
X25316000Y-60944600D03*
X22776000Y-60944600D03*
X22776000Y-53324600D03*
D18*
X25316000Y-53324600D03*
%TD*%
M02*
