M48
; DRILL file {KiCad 7.0.6} date Tue Sep 19 12:42:19 2023
; FORMAT={-:-/ absolute / inch / decimal}
; #@! TF.CreationDate,2023-09-19T12:42:19+08:00
; #@! TF.GenerationSoftware,Kicad,Pcbnew,7.0.6
; #@! TF.FileFunction,Plated,1,2,PTH
FMAT,2
INCH
; #@! TA.AperFunction,Plated,PTH,ComponentDrill
T1C0.0315
; #@! TA.AperFunction,Plated,PTH,ComponentDrill
T2C0.0394
; #@! TA.AperFunction,Plated,PTH,ComponentDrill
T3C0.0400
; #@! TA.AperFunction,Plated,PTH,ComponentDrill
T4C0.0433
; #@! TA.AperFunction,Plated,PTH,ComponentDrill
T5C0.0598
%
G90
G05
T1
X2.8969Y-1.7337
X2.8969Y-1.8337
X3.1969Y-1.7337
X3.1969Y-1.8337
T2
X2.97Y-0.38
X2.97Y-0.48
X2.97Y-0.58
X2.97Y-0.68
X2.97Y-0.78
X3.07Y-0.38
X3.07Y-0.48
X3.07Y-0.58
X3.07Y-0.68
X3.07Y-0.78
X3.4Y-0.82
X3.4Y-0.92
X3.4Y-1.02
X3.4Y-1.12
X3.4Y-1.22
X3.4Y-1.32
X3.4Y-1.42
X3.4Y-1.52
X3.4Y-1.62
X3.4Y-1.72
X3.5Y-0.82
X3.5Y-0.92
X3.5Y-1.02
X3.5Y-1.12
X3.5Y-1.22
X3.5Y-1.32
X3.5Y-1.42
X3.5Y-1.52
X3.5Y-1.62
X3.5Y-1.72
T3
X0.74Y-0.1
X0.84Y-0.1
X0.94Y-0.1
X1.04Y-0.1
X1.1Y-2.0
X1.14Y-0.1
X1.2Y-2.0
X1.24Y-0.1
X1.3Y-2.0
X1.34Y-0.1
X1.4Y-2.0
X1.44Y-0.1
X1.5Y-2.0
X1.54Y-0.1
X1.6Y-2.0
X1.64Y-0.1
X1.7Y-2.0
X1.8Y-0.1
X1.8Y-2.0
X1.9Y-0.1
X2.0Y-0.1
X2.0Y-2.0
X2.1Y-0.1
X2.1Y-2.0
X2.2Y-0.1
X2.2Y-2.0
X2.3Y-0.1
X2.3Y-2.0
X2.4Y-0.1
X2.4Y-2.0
X2.5Y-0.1
X2.5Y-2.0
X2.505Y-0.9
X2.505Y-1.0
X2.505Y-1.1
X2.6Y-2.0
X2.605Y-0.9
X2.605Y-1.0
X2.605Y-1.1
X2.7Y-0.1
X2.7Y-2.0
X2.8Y-0.1
X2.9Y-0.1
X2.9Y-2.0
X3.0Y-0.1
X3.0Y-2.0
X3.1Y-0.1
X3.1Y-2.0
X3.2Y-0.1
X3.2Y-2.0
X3.3Y-0.1
X3.3Y-2.0
X3.4Y-0.1
X3.4Y-2.0
X3.5Y-2.0
X3.6Y-2.0
X3.7Y-0.1
X3.7Y-0.2
X3.7Y-0.3
X3.7Y-0.4
X3.7Y-0.5
X3.7Y-0.6
X3.7Y-0.7
X3.7Y-0.8
X3.7Y-0.9
X3.7Y-1.0
X3.7Y-1.1
X3.7Y-1.2
X3.7Y-1.3
X3.7Y-1.4
X3.7Y-1.5
X3.7Y-1.6
X3.7Y-1.7
X3.7Y-1.8
X3.8Y-0.1
X3.8Y-0.2
X3.8Y-0.3
X3.8Y-0.4
X3.8Y-0.5
X3.8Y-0.6
X3.8Y-0.7
X3.8Y-0.8
X3.8Y-0.9
X3.8Y-1.0
X3.8Y-1.1
X3.8Y-1.2
X3.8Y-1.3
X3.8Y-1.4
X3.8Y-1.5
X3.8Y-1.6
X3.8Y-1.7
X3.8Y-1.8
T4
X3.322Y-0.3114
X3.322Y-0.4886
X3.578Y-0.3114
X3.578Y-0.4886
T5
X3.0925Y-1.1129
X3.0925Y-1.3129
X3.0925Y-1.5129
T0
M30
