%TF.GenerationSoftware,KiCad,Pcbnew,7.0.6*%
%TF.CreationDate,2023-09-19T12:42:17+08:00*%
%TF.ProjectId,Control Panel Mega Shield,436f6e74-726f-46c2-9050-616e656c204d,0*%
%TF.SameCoordinates,Original*%
%TF.FileFunction,Legend,Top*%
%TF.FilePolarity,Positive*%
%FSLAX46Y46*%
G04 Gerber Fmt 4.6, Leading zero omitted, Abs format (unit mm)*
G04 Created by KiCad (PCBNEW 7.0.6) date 2023-09-19 12:42:17*
%MOMM*%
%LPD*%
G01*
G04 APERTURE LIST*
%ADD10C,0.150000*%
%ADD11C,0.120000*%
G04 APERTURE END LIST*
D10*
X77203541Y-30619819D02*
X77822588Y-30619819D01*
X77822588Y-30619819D02*
X77489255Y-31000771D01*
X77489255Y-31000771D02*
X77632112Y-31000771D01*
X77632112Y-31000771D02*
X77727350Y-31048390D01*
X77727350Y-31048390D02*
X77774969Y-31096009D01*
X77774969Y-31096009D02*
X77822588Y-31191247D01*
X77822588Y-31191247D02*
X77822588Y-31429342D01*
X77822588Y-31429342D02*
X77774969Y-31524580D01*
X77774969Y-31524580D02*
X77727350Y-31572200D01*
X77727350Y-31572200D02*
X77632112Y-31619819D01*
X77632112Y-31619819D02*
X77346398Y-31619819D01*
X77346398Y-31619819D02*
X77251160Y-31572200D01*
X77251160Y-31572200D02*
X77203541Y-31524580D01*
X78108303Y-30619819D02*
X78441636Y-31619819D01*
X78441636Y-31619819D02*
X78774969Y-30619819D01*
X79013065Y-30619819D02*
X79632112Y-30619819D01*
X79632112Y-30619819D02*
X79298779Y-31000771D01*
X79298779Y-31000771D02*
X79441636Y-31000771D01*
X79441636Y-31000771D02*
X79536874Y-31048390D01*
X79536874Y-31048390D02*
X79584493Y-31096009D01*
X79584493Y-31096009D02*
X79632112Y-31191247D01*
X79632112Y-31191247D02*
X79632112Y-31429342D01*
X79632112Y-31429342D02*
X79584493Y-31524580D01*
X79584493Y-31524580D02*
X79536874Y-31572200D01*
X79536874Y-31572200D02*
X79441636Y-31619819D01*
X79441636Y-31619819D02*
X79155922Y-31619819D01*
X79155922Y-31619819D02*
X79060684Y-31572200D01*
X79060684Y-31572200D02*
X79013065Y-31524580D01*
X77822588Y-35747438D02*
X77727350Y-35699819D01*
X77727350Y-35699819D02*
X77584493Y-35699819D01*
X77584493Y-35699819D02*
X77441636Y-35747438D01*
X77441636Y-35747438D02*
X77346398Y-35842676D01*
X77346398Y-35842676D02*
X77298779Y-35937914D01*
X77298779Y-35937914D02*
X77251160Y-36128390D01*
X77251160Y-36128390D02*
X77251160Y-36271247D01*
X77251160Y-36271247D02*
X77298779Y-36461723D01*
X77298779Y-36461723D02*
X77346398Y-36556961D01*
X77346398Y-36556961D02*
X77441636Y-36652200D01*
X77441636Y-36652200D02*
X77584493Y-36699819D01*
X77584493Y-36699819D02*
X77679731Y-36699819D01*
X77679731Y-36699819D02*
X77822588Y-36652200D01*
X77822588Y-36652200D02*
X77870207Y-36604580D01*
X77870207Y-36604580D02*
X77870207Y-36271247D01*
X77870207Y-36271247D02*
X77679731Y-36271247D01*
X78298779Y-36699819D02*
X78298779Y-35699819D01*
X78298779Y-35699819D02*
X78870207Y-36699819D01*
X78870207Y-36699819D02*
X78870207Y-35699819D01*
X79346398Y-36699819D02*
X79346398Y-35699819D01*
X79346398Y-35699819D02*
X79584493Y-35699819D01*
X79584493Y-35699819D02*
X79727350Y-35747438D01*
X79727350Y-35747438D02*
X79822588Y-35842676D01*
X79822588Y-35842676D02*
X79870207Y-35937914D01*
X79870207Y-35937914D02*
X79917826Y-36128390D01*
X79917826Y-36128390D02*
X79917826Y-36271247D01*
X79917826Y-36271247D02*
X79870207Y-36461723D01*
X79870207Y-36461723D02*
X79822588Y-36556961D01*
X79822588Y-36556961D02*
X79727350Y-36652200D01*
X79727350Y-36652200D02*
X79584493Y-36699819D01*
X79584493Y-36699819D02*
X79346398Y-36699819D01*
X70043922Y-46113819D02*
X70377255Y-47113819D01*
X70377255Y-47113819D02*
X70710588Y-46113819D01*
X71043922Y-47113819D02*
X71043922Y-46113819D01*
X71520112Y-47113819D02*
X71520112Y-46113819D01*
X71520112Y-46113819D02*
X72091540Y-47113819D01*
X72091540Y-47113819D02*
X72091540Y-46113819D01*
X68869160Y-44542104D02*
X69345350Y-44542104D01*
X68773922Y-44827819D02*
X69107255Y-43827819D01*
X69107255Y-43827819D02*
X69440588Y-44827819D01*
X70345350Y-44827819D02*
X70012017Y-44351628D01*
X69773922Y-44827819D02*
X69773922Y-43827819D01*
X69773922Y-43827819D02*
X70154874Y-43827819D01*
X70154874Y-43827819D02*
X70250112Y-43875438D01*
X70250112Y-43875438D02*
X70297731Y-43923057D01*
X70297731Y-43923057D02*
X70345350Y-44018295D01*
X70345350Y-44018295D02*
X70345350Y-44161152D01*
X70345350Y-44161152D02*
X70297731Y-44256390D01*
X70297731Y-44256390D02*
X70250112Y-44304009D01*
X70250112Y-44304009D02*
X70154874Y-44351628D01*
X70154874Y-44351628D02*
X69773922Y-44351628D01*
X70773922Y-44304009D02*
X71107255Y-44304009D01*
X71250112Y-44827819D02*
X70773922Y-44827819D01*
X70773922Y-44827819D02*
X70773922Y-43827819D01*
X70773922Y-43827819D02*
X71250112Y-43827819D01*
X72012017Y-44304009D02*
X71678684Y-44304009D01*
X71678684Y-44827819D02*
X71678684Y-43827819D01*
X71678684Y-43827819D02*
X72154874Y-43827819D01*
X85998207Y-6473819D02*
X85664874Y-5997628D01*
X85426779Y-6473819D02*
X85426779Y-5473819D01*
X85426779Y-5473819D02*
X85807731Y-5473819D01*
X85807731Y-5473819D02*
X85902969Y-5521438D01*
X85902969Y-5521438D02*
X85950588Y-5569057D01*
X85950588Y-5569057D02*
X85998207Y-5664295D01*
X85998207Y-5664295D02*
X85998207Y-5807152D01*
X85998207Y-5807152D02*
X85950588Y-5902390D01*
X85950588Y-5902390D02*
X85902969Y-5950009D01*
X85902969Y-5950009D02*
X85807731Y-5997628D01*
X85807731Y-5997628D02*
X85426779Y-5997628D01*
X86379160Y-6426200D02*
X86522017Y-6473819D01*
X86522017Y-6473819D02*
X86760112Y-6473819D01*
X86760112Y-6473819D02*
X86855350Y-6426200D01*
X86855350Y-6426200D02*
X86902969Y-6378580D01*
X86902969Y-6378580D02*
X86950588Y-6283342D01*
X86950588Y-6283342D02*
X86950588Y-6188104D01*
X86950588Y-6188104D02*
X86902969Y-6092866D01*
X86902969Y-6092866D02*
X86855350Y-6045247D01*
X86855350Y-6045247D02*
X86760112Y-5997628D01*
X86760112Y-5997628D02*
X86569636Y-5950009D01*
X86569636Y-5950009D02*
X86474398Y-5902390D01*
X86474398Y-5902390D02*
X86426779Y-5854771D01*
X86426779Y-5854771D02*
X86379160Y-5759533D01*
X86379160Y-5759533D02*
X86379160Y-5664295D01*
X86379160Y-5664295D02*
X86426779Y-5569057D01*
X86426779Y-5569057D02*
X86474398Y-5521438D01*
X86474398Y-5521438D02*
X86569636Y-5473819D01*
X86569636Y-5473819D02*
X86807731Y-5473819D01*
X86807731Y-5473819D02*
X86950588Y-5521438D01*
X87236303Y-5473819D02*
X87807731Y-5473819D01*
X87522017Y-6473819D02*
X87522017Y-5473819D01*
X76056667Y-42919200D02*
X76199524Y-42966819D01*
X76199524Y-42966819D02*
X76437619Y-42966819D01*
X76437619Y-42966819D02*
X76532857Y-42919200D01*
X76532857Y-42919200D02*
X76580476Y-42871580D01*
X76580476Y-42871580D02*
X76628095Y-42776342D01*
X76628095Y-42776342D02*
X76628095Y-42681104D01*
X76628095Y-42681104D02*
X76580476Y-42585866D01*
X76580476Y-42585866D02*
X76532857Y-42538247D01*
X76532857Y-42538247D02*
X76437619Y-42490628D01*
X76437619Y-42490628D02*
X76247143Y-42443009D01*
X76247143Y-42443009D02*
X76151905Y-42395390D01*
X76151905Y-42395390D02*
X76104286Y-42347771D01*
X76104286Y-42347771D02*
X76056667Y-42252533D01*
X76056667Y-42252533D02*
X76056667Y-42157295D01*
X76056667Y-42157295D02*
X76104286Y-42062057D01*
X76104286Y-42062057D02*
X76151905Y-42014438D01*
X76151905Y-42014438D02*
X76247143Y-41966819D01*
X76247143Y-41966819D02*
X76485238Y-41966819D01*
X76485238Y-41966819D02*
X76628095Y-42014438D01*
X76961429Y-41966819D02*
X77199524Y-42966819D01*
X77199524Y-42966819D02*
X77390000Y-42252533D01*
X77390000Y-42252533D02*
X77580476Y-42966819D01*
X77580476Y-42966819D02*
X77818572Y-41966819D01*
X78151905Y-42062057D02*
X78199524Y-42014438D01*
X78199524Y-42014438D02*
X78294762Y-41966819D01*
X78294762Y-41966819D02*
X78532857Y-41966819D01*
X78532857Y-41966819D02*
X78628095Y-42014438D01*
X78628095Y-42014438D02*
X78675714Y-42062057D01*
X78675714Y-42062057D02*
X78723333Y-42157295D01*
X78723333Y-42157295D02*
X78723333Y-42252533D01*
X78723333Y-42252533D02*
X78675714Y-42395390D01*
X78675714Y-42395390D02*
X78104286Y-42966819D01*
X78104286Y-42966819D02*
X78723333Y-42966819D01*
X87296666Y-17742819D02*
X87296666Y-18457104D01*
X87296666Y-18457104D02*
X87249047Y-18599961D01*
X87249047Y-18599961D02*
X87153809Y-18695200D01*
X87153809Y-18695200D02*
X87010952Y-18742819D01*
X87010952Y-18742819D02*
X86915714Y-18742819D01*
X88296666Y-18742819D02*
X87725238Y-18742819D01*
X88010952Y-18742819D02*
X88010952Y-17742819D01*
X88010952Y-17742819D02*
X87915714Y-17885676D01*
X87915714Y-17885676D02*
X87820476Y-17980914D01*
X87820476Y-17980914D02*
X87725238Y-18028533D01*
X76374666Y-21806819D02*
X76374666Y-22521104D01*
X76374666Y-22521104D02*
X76327047Y-22663961D01*
X76327047Y-22663961D02*
X76231809Y-22759200D01*
X76231809Y-22759200D02*
X76088952Y-22806819D01*
X76088952Y-22806819D02*
X75993714Y-22806819D01*
X76755619Y-21806819D02*
X77374666Y-21806819D01*
X77374666Y-21806819D02*
X77041333Y-22187771D01*
X77041333Y-22187771D02*
X77184190Y-22187771D01*
X77184190Y-22187771D02*
X77279428Y-22235390D01*
X77279428Y-22235390D02*
X77327047Y-22283009D01*
X77327047Y-22283009D02*
X77374666Y-22378247D01*
X77374666Y-22378247D02*
X77374666Y-22616342D01*
X77374666Y-22616342D02*
X77327047Y-22711580D01*
X77327047Y-22711580D02*
X77279428Y-22759200D01*
X77279428Y-22759200D02*
X77184190Y-22806819D01*
X77184190Y-22806819D02*
X76898476Y-22806819D01*
X76898476Y-22806819D02*
X76803238Y-22759200D01*
X76803238Y-22759200D02*
X76755619Y-22711580D01*
X80756666Y-26198819D02*
X80756666Y-26913104D01*
X80756666Y-26913104D02*
X80709047Y-27055961D01*
X80709047Y-27055961D02*
X80613809Y-27151200D01*
X80613809Y-27151200D02*
X80470952Y-27198819D01*
X80470952Y-27198819D02*
X80375714Y-27198819D01*
X81185238Y-26294057D02*
X81232857Y-26246438D01*
X81232857Y-26246438D02*
X81328095Y-26198819D01*
X81328095Y-26198819D02*
X81566190Y-26198819D01*
X81566190Y-26198819D02*
X81661428Y-26246438D01*
X81661428Y-26246438D02*
X81709047Y-26294057D01*
X81709047Y-26294057D02*
X81756666Y-26389295D01*
X81756666Y-26389295D02*
X81756666Y-26484533D01*
X81756666Y-26484533D02*
X81709047Y-26627390D01*
X81709047Y-26627390D02*
X81137619Y-27198819D01*
X81137619Y-27198819D02*
X81756666Y-27198819D01*
X62484000Y-21695580D02*
X62531619Y-21743200D01*
X62531619Y-21743200D02*
X62484000Y-21790819D01*
X62484000Y-21790819D02*
X62436381Y-21743200D01*
X62436381Y-21743200D02*
X62484000Y-21695580D01*
X62484000Y-21695580D02*
X62484000Y-21790819D01*
D11*
%TO.C,SW2*%
X79420000Y-46971000D02*
X78066667Y-46971000D01*
X79420000Y-46011000D02*
X78066667Y-46011000D01*
X82340000Y-48996000D02*
X82340000Y-41616000D01*
X79420000Y-46251000D02*
X78066667Y-46251000D01*
X79420000Y-43711000D02*
X78066667Y-43711000D01*
X82340000Y-48996000D02*
X72440000Y-48996000D01*
X78066667Y-47211000D02*
X78066667Y-45941000D01*
X79420000Y-46611000D02*
X78066667Y-46611000D01*
X75360000Y-47211000D02*
X79420000Y-47211000D01*
X79420000Y-44311000D02*
X78066667Y-44311000D01*
X75360000Y-45941000D02*
X75360000Y-47211000D01*
X79420000Y-44191000D02*
X78066667Y-44191000D01*
X79420000Y-46131000D02*
X78066667Y-46131000D01*
X79420000Y-47211000D02*
X79420000Y-45941000D01*
X79420000Y-43401000D02*
X75360000Y-43401000D01*
X79420000Y-46371000D02*
X78066667Y-46371000D01*
X79420000Y-44551000D02*
X78066667Y-44551000D01*
X79420000Y-46491000D02*
X78066667Y-46491000D01*
X79420000Y-47091000D02*
X78066667Y-47091000D01*
X79420000Y-46851000D02*
X78066667Y-46851000D01*
X78066667Y-44671000D02*
X78066667Y-43401000D01*
X79420000Y-43831000D02*
X78066667Y-43831000D01*
X75360000Y-44671000D02*
X79420000Y-44671000D01*
X79420000Y-43951000D02*
X78066667Y-43951000D01*
X82580000Y-49236000D02*
X82580000Y-47853000D01*
X79420000Y-46731000D02*
X78066667Y-46731000D01*
X82340000Y-41616000D02*
X72440000Y-41616000D01*
X79420000Y-44071000D02*
X78066667Y-44071000D01*
X79420000Y-45941000D02*
X75360000Y-45941000D01*
X72440000Y-48996000D02*
X72440000Y-41616000D01*
X82580000Y-49236000D02*
X81196000Y-49236000D01*
X79420000Y-44431000D02*
X78066667Y-44431000D01*
X79420000Y-43471000D02*
X78066667Y-43471000D01*
X79420000Y-44671000D02*
X79420000Y-43401000D01*
X79420000Y-43591000D02*
X78066667Y-43591000D01*
X75360000Y-43401000D02*
X75360000Y-44671000D01*
%TO.C,SW1*%
X85380000Y-13410000D02*
X89880000Y-13410000D01*
X89880000Y-6910000D02*
X85380000Y-6910000D01*
X84130000Y-9410000D02*
X84130000Y-10910000D01*
X91130000Y-10910000D02*
X91130000Y-9410000D01*
%TO.C,J1*%
X83070000Y-30208000D02*
X84380000Y-30208000D01*
X90880000Y-16918000D02*
X90880000Y-47598000D01*
X84380000Y-30208000D02*
X84380000Y-16918000D01*
X84380000Y-47598000D02*
X84380000Y-34308000D01*
X81680000Y-21328000D02*
X82680000Y-20828000D01*
X83070000Y-48898000D02*
X83070000Y-15618000D01*
X90880000Y-47598000D02*
X84380000Y-47598000D01*
X83070000Y-15618000D02*
X92190000Y-15618000D01*
X84380000Y-34308000D02*
X84380000Y-34308000D01*
X81680000Y-20328000D02*
X81680000Y-21328000D01*
X84380000Y-16918000D02*
X90880000Y-16918000D01*
X92190000Y-48898000D02*
X83070000Y-48898000D01*
X92190000Y-15618000D02*
X92190000Y-48898000D01*
X84380000Y-34308000D02*
X83070000Y-34308000D01*
X82680000Y-20828000D02*
X81680000Y-20328000D01*
%TO.C,J3*%
X81268000Y-25022000D02*
X72148000Y-25022000D01*
X72148000Y-25022000D02*
X72148000Y-4442000D01*
X82658000Y-19312000D02*
X81658000Y-19812000D01*
X79958000Y-5742000D02*
X79958000Y-12682000D01*
X79958000Y-16782000D02*
X79958000Y-23722000D01*
X72148000Y-4442000D02*
X81268000Y-4442000D01*
X81658000Y-19812000D02*
X82658000Y-20312000D01*
X79958000Y-12682000D02*
X81268000Y-12682000D01*
X79958000Y-23722000D02*
X73458000Y-23722000D01*
X79958000Y-12682000D02*
X79958000Y-12682000D01*
X73458000Y-5742000D02*
X79958000Y-5742000D01*
X82658000Y-20312000D02*
X82658000Y-19312000D01*
X73458000Y-23722000D02*
X73458000Y-5742000D01*
X81268000Y-16782000D02*
X79958000Y-16782000D01*
X81268000Y-4442000D02*
X81268000Y-25022000D01*
%TO.C,J2*%
X74740000Y-40968000D02*
X82360000Y-40968000D01*
X74740000Y-25728000D02*
X74740000Y-40968000D01*
X74740000Y-25728000D02*
X82360000Y-25728000D01*
X76010000Y-25728000D02*
X76010000Y-40968000D01*
X82360000Y-25728000D02*
X82360000Y-40968000D01*
%TD*%
M02*
