%TF.GenerationSoftware,KiCad,Pcbnew,7.0.6*%
%TF.CreationDate,2023-09-19T17:15:07+08:00*%
%TF.ProjectId,ControlPanel_IO_Breakout,436f6e74-726f-46c5-9061-6e656c5f494f,0*%
%TF.SameCoordinates,Original*%
%TF.FileFunction,Soldermask,Top*%
%TF.FilePolarity,Negative*%
%FSLAX46Y46*%
G04 Gerber Fmt 4.6, Leading zero omitted, Abs format (unit mm)*
G04 Created by KiCad (PCBNEW 7.0.6) date 2023-09-19 17:15:07*
%MOMM*%
%LPD*%
G01*
G04 APERTURE LIST*
G04 Aperture macros list*
%AMRoundRect*
0 Rectangle with rounded corners*
0 $1 Rounding radius*
0 $2 $3 $4 $5 $6 $7 $8 $9 X,Y pos of 4 corners*
0 Add a 4 corners polygon primitive as box body*
4,1,4,$2,$3,$4,$5,$6,$7,$8,$9,$2,$3,0*
0 Add four circle primitives for the rounded corners*
1,1,$1+$1,$2,$3*
1,1,$1+$1,$4,$5*
1,1,$1+$1,$6,$7*
1,1,$1+$1,$8,$9*
0 Add four rect primitives between the rounded corners*
20,1,$1+$1,$2,$3,$4,$5,0*
20,1,$1+$1,$4,$5,$6,$7,0*
20,1,$1+$1,$6,$7,$8,$9,0*
20,1,$1+$1,$8,$9,$2,$3,0*%
G04 Aperture macros list end*
%ADD10RoundRect,0.250000X0.600000X-0.600000X0.600000X0.600000X-0.600000X0.600000X-0.600000X-0.600000X0*%
%ADD11C,1.700000*%
%ADD12R,3.000000X3.000000*%
%ADD13C,3.000000*%
%ADD14C,1.600000*%
%ADD15O,1.600000X1.600000*%
%ADD16R,1.600000X1.600000*%
G04 APERTURE END LIST*
D10*
%TO.C,J11*%
X7608501Y-52305800D03*
D11*
X7608501Y-49765800D03*
X10148501Y-52305800D03*
X10148501Y-49765800D03*
X12688501Y-52305800D03*
X12688501Y-49765800D03*
X15228501Y-52305800D03*
X15228501Y-49765800D03*
X17768501Y-52305800D03*
X17768501Y-49765800D03*
X20308501Y-52305800D03*
X20308501Y-49765800D03*
X22848501Y-52305800D03*
X22848501Y-49765800D03*
X25388501Y-52305800D03*
X25388501Y-49765800D03*
X27928501Y-52305800D03*
X27928501Y-49765800D03*
X30468501Y-52305800D03*
X30468501Y-49765800D03*
%TD*%
D12*
%TO.C,J17*%
X-18037099Y-60751299D03*
D13*
X-12957099Y-60751299D03*
X-7877099Y-60751299D03*
%TD*%
D12*
%TO.C,J2*%
X39210100Y-33951301D03*
D13*
X34130100Y-33951301D03*
X29050100Y-33951301D03*
%TD*%
D12*
%TO.C,J7*%
X13378301Y-42015300D03*
D13*
X18458301Y-42015300D03*
X23538301Y-42015300D03*
%TD*%
D12*
%TO.C,J8*%
X-2291300Y-42015300D03*
D13*
X2788700Y-42015300D03*
X7868700Y-42015300D03*
%TD*%
D12*
%TO.C,J12*%
X-16757100Y-48813299D03*
D13*
X-16757100Y-53893299D03*
%TD*%
D12*
%TO.C,J6*%
X29050100Y-42015300D03*
D13*
X34130100Y-42015300D03*
X39210100Y-42015300D03*
%TD*%
D12*
%TO.C,J1*%
X54886300Y-33951301D03*
D13*
X49806300Y-33951301D03*
X44726300Y-33951301D03*
%TD*%
D12*
%TO.C,J4*%
X7868700Y-33951301D03*
D13*
X2788700Y-33951301D03*
X-2291300Y-33951301D03*
%TD*%
D12*
%TO.C,J13*%
X44654501Y-60751300D03*
D13*
X49734501Y-60751300D03*
X54814501Y-60751300D03*
%TD*%
D12*
%TO.C,J9*%
X-12967099Y-33827300D03*
D13*
X-18047099Y-33827300D03*
%TD*%
D12*
%TO.C,J16*%
X-2365300Y-60751300D03*
D13*
X2714700Y-60751300D03*
X7794700Y-60751300D03*
%TD*%
D12*
%TO.C,J14*%
X28978301Y-60751300D03*
D13*
X34058301Y-60751300D03*
X39138301Y-60751300D03*
%TD*%
%TO.C,J10*%
X-12967100Y-41891299D03*
D12*
X-18047100Y-41891299D03*
%TD*%
%TO.C,J15*%
X13306500Y-60751300D03*
D13*
X18386500Y-60751300D03*
X23466500Y-60751300D03*
%TD*%
D12*
%TO.C,J3*%
X23538300Y-33951301D03*
D13*
X18458300Y-33951301D03*
X13378300Y-33951301D03*
%TD*%
D12*
%TO.C,J5*%
X44726300Y-42015300D03*
D13*
X49806300Y-42015300D03*
X54886300Y-42015300D03*
%TD*%
D14*
%TO.C,R1*%
X-4041700Y-47543300D03*
D15*
X-4041700Y-55163300D03*
%TD*%
%TO.C,U1*%
X-9883700Y-47533299D03*
X-7343700Y-47533299D03*
X-7343700Y-55153299D03*
D16*
X-9883700Y-55153299D03*
%TD*%
M02*
