%TF.GenerationSoftware,KiCad,Pcbnew,7.0.6*%
%TF.CreationDate,2023-09-19T17:15:07+08:00*%
%TF.ProjectId,ControlPanel_IO_Breakout,436f6e74-726f-46c5-9061-6e656c5f494f,0*%
%TF.SameCoordinates,Original*%
%TF.FileFunction,Copper,L2,Bot*%
%TF.FilePolarity,Positive*%
%FSLAX46Y46*%
G04 Gerber Fmt 4.6, Leading zero omitted, Abs format (unit mm)*
G04 Created by KiCad (PCBNEW 7.0.6) date 2023-09-19 17:15:07*
%MOMM*%
%LPD*%
G01*
G04 APERTURE LIST*
G04 Aperture macros list*
%AMRoundRect*
0 Rectangle with rounded corners*
0 $1 Rounding radius*
0 $2 $3 $4 $5 $6 $7 $8 $9 X,Y pos of 4 corners*
0 Add a 4 corners polygon primitive as box body*
4,1,4,$2,$3,$4,$5,$6,$7,$8,$9,$2,$3,0*
0 Add four circle primitives for the rounded corners*
1,1,$1+$1,$2,$3*
1,1,$1+$1,$4,$5*
1,1,$1+$1,$6,$7*
1,1,$1+$1,$8,$9*
0 Add four rect primitives between the rounded corners*
20,1,$1+$1,$2,$3,$4,$5,0*
20,1,$1+$1,$4,$5,$6,$7,0*
20,1,$1+$1,$6,$7,$8,$9,0*
20,1,$1+$1,$8,$9,$2,$3,0*%
G04 Aperture macros list end*
%TA.AperFunction,ComponentPad*%
%ADD10RoundRect,0.250000X0.600000X-0.600000X0.600000X0.600000X-0.600000X0.600000X-0.600000X-0.600000X0*%
%TD*%
%TA.AperFunction,ComponentPad*%
%ADD11C,1.700000*%
%TD*%
%TA.AperFunction,ComponentPad*%
%ADD12R,3.000000X3.000000*%
%TD*%
%TA.AperFunction,ComponentPad*%
%ADD13C,3.000000*%
%TD*%
%TA.AperFunction,ComponentPad*%
%ADD14C,1.600000*%
%TD*%
%TA.AperFunction,ComponentPad*%
%ADD15O,1.600000X1.600000*%
%TD*%
%TA.AperFunction,ComponentPad*%
%ADD16R,1.600000X1.600000*%
%TD*%
%TA.AperFunction,Conductor*%
%ADD17C,0.250000*%
%TD*%
G04 APERTURE END LIST*
D10*
%TO.P,J11,1,Pin_1*%
%TO.N,/SW_P2*%
X7608501Y-52305800D03*
D11*
%TO.P,J11,2,Pin_2*%
%TO.N,/SW_P1*%
X7608501Y-49765800D03*
%TO.P,J11,3,Pin_3*%
%TO.N,/SW_P3*%
X10148501Y-52305800D03*
%TO.P,J11,4,Pin_4*%
%TO.N,/SW_R4*%
X10148501Y-49765800D03*
%TO.P,J11,5,Pin_5*%
%TO.N,/VR_1*%
X12688501Y-52305800D03*
%TO.P,J11,6,Pin_6*%
%TO.N,/SW_R3*%
X12688501Y-49765800D03*
%TO.P,J11,7,Pin_7*%
%TO.N,/VR_2*%
X15228501Y-52305800D03*
%TO.P,J11,8,Pin_8*%
%TO.N,/SW_R2*%
X15228501Y-49765800D03*
%TO.P,J11,9,Pin_9*%
%TO.N,/VR_3*%
X17768501Y-52305800D03*
%TO.P,J11,10,Pin_10*%
%TO.N,/SW_R1*%
X17768501Y-49765800D03*
%TO.P,J11,11,Pin_11*%
%TO.N,/VR_4*%
X20308501Y-52305800D03*
%TO.P,J11,12,Pin_12*%
%TO.N,/SW_T5*%
X20308501Y-49765800D03*
%TO.P,J11,13,Pin_13*%
%TO.N,/VR_5*%
X22848501Y-52305800D03*
%TO.P,J11,14,Pin_14*%
%TO.N,/SW_T4*%
X22848501Y-49765800D03*
%TO.P,J11,15,Pin_15*%
%TO.N,unconnected-(J11-Pin_15-Pad15)*%
X25388501Y-52305800D03*
%TO.P,J11,16,Pin_16*%
%TO.N,/SW_T3*%
X25388501Y-49765800D03*
%TO.P,J11,17,Pin_17*%
%TO.N,/5V*%
X27928501Y-52305800D03*
%TO.P,J11,18,Pin_18*%
%TO.N,/SW_T2*%
X27928501Y-49765800D03*
%TO.P,J11,19,Pin_19*%
%TO.N,/GND*%
X30468501Y-52305800D03*
%TO.P,J11,20,Pin_20*%
%TO.N,/SW_T1*%
X30468501Y-49765800D03*
%TD*%
D12*
%TO.P,J17,1,Pin_1*%
%TO.N,/5V*%
X-18037099Y-60751299D03*
D13*
%TO.P,J17,2,Pin_2*%
%TO.N,/VR_1*%
X-12957099Y-60751299D03*
%TO.P,J17,3,Pin_3*%
%TO.N,/GND*%
X-7877099Y-60751299D03*
%TD*%
D12*
%TO.P,J2,1,Pin_1*%
%TO.N,/GND*%
X39210100Y-33951301D03*
D13*
%TO.P,J2,2,Pin_2*%
X34130100Y-33951301D03*
%TO.P,J2,3,Pin_3*%
X29050100Y-33951301D03*
%TD*%
D12*
%TO.P,J7,1,Pin_1*%
%TO.N,/SW_R4*%
X13378301Y-42015300D03*
D13*
%TO.P,J7,2,Pin_2*%
%TO.N,/SW_R3*%
X18458301Y-42015300D03*
%TO.P,J7,3,Pin_3*%
%TO.N,/SW_R2*%
X23538301Y-42015300D03*
%TD*%
D12*
%TO.P,J8,1,Pin_1*%
%TO.N,/SW_P3*%
X-2291300Y-42015300D03*
D13*
%TO.P,J8,2,Pin_2*%
%TO.N,/SW_P2*%
X2788700Y-42015300D03*
%TO.P,J8,3,Pin_3*%
%TO.N,/SW_P1*%
X7868700Y-42015300D03*
%TD*%
D12*
%TO.P,J12,1,Pin_1*%
%TO.N,/5V*%
X-16757100Y-48813299D03*
D13*
%TO.P,J12,2,Pin_2*%
%TO.N,/GND*%
X-16757100Y-53893299D03*
%TD*%
D12*
%TO.P,J6,1,Pin_1*%
%TO.N,/SW_R1*%
X29050100Y-42015300D03*
D13*
%TO.P,J6,2,Pin_2*%
%TO.N,/SW_T5*%
X34130100Y-42015300D03*
%TO.P,J6,3,Pin_3*%
%TO.N,/SW_T4*%
X39210100Y-42015300D03*
%TD*%
D12*
%TO.P,J1,1,Pin_1*%
%TO.N,/GND*%
X54886300Y-33951301D03*
D13*
%TO.P,J1,2,Pin_2*%
X49806300Y-33951301D03*
%TO.P,J1,3,Pin_3*%
X44726300Y-33951301D03*
%TD*%
D12*
%TO.P,J4,1,Pin_1*%
%TO.N,/GND*%
X7868700Y-33951301D03*
D13*
%TO.P,J4,2,Pin_2*%
X2788700Y-33951301D03*
%TO.P,J4,3,Pin_3*%
X-2291300Y-33951301D03*
%TD*%
D12*
%TO.P,J13,1,Pin_1*%
%TO.N,/5V*%
X44654501Y-60751300D03*
D13*
%TO.P,J13,2,Pin_2*%
%TO.N,/VR_5*%
X49734501Y-60751300D03*
%TO.P,J13,3,Pin_3*%
%TO.N,/GND*%
X54814501Y-60751300D03*
%TD*%
D12*
%TO.P,J9,1,Pin_1*%
%TO.N,/SW_PC_OUT*%
X-12967099Y-33827300D03*
D13*
%TO.P,J9,2,Pin_2*%
%TO.N,/SW_PC_IN*%
X-18047099Y-33827300D03*
%TD*%
D12*
%TO.P,J16,1,Pin_1*%
%TO.N,/5V*%
X-2365300Y-60751300D03*
D13*
%TO.P,J16,2,Pin_2*%
%TO.N,/VR_2*%
X2714700Y-60751300D03*
%TO.P,J16,3,Pin_3*%
%TO.N,/GND*%
X7794700Y-60751300D03*
%TD*%
D12*
%TO.P,J14,1,Pin_1*%
%TO.N,/5V*%
X28978301Y-60751300D03*
D13*
%TO.P,J14,2,Pin_2*%
%TO.N,/VR_4*%
X34058301Y-60751300D03*
%TO.P,J14,3,Pin_3*%
%TO.N,/GND*%
X39138301Y-60751300D03*
%TD*%
%TO.P,J10,2,Pin_2*%
%TO.N,/SW_PC_OUT*%
X-12967100Y-41891299D03*
D12*
%TO.P,J10,1,Pin_1*%
%TO.N,/SW_PC_IN*%
X-18047100Y-41891299D03*
%TD*%
%TO.P,J15,1,Pin_1*%
%TO.N,/5V*%
X13306500Y-60751300D03*
D13*
%TO.P,J15,2,Pin_2*%
%TO.N,/VR_3*%
X18386500Y-60751300D03*
%TO.P,J15,3,Pin_3*%
%TO.N,/GND*%
X23466500Y-60751300D03*
%TD*%
D12*
%TO.P,J3,1,Pin_1*%
%TO.N,/GND*%
X23538300Y-33951301D03*
D13*
%TO.P,J3,2,Pin_2*%
X18458300Y-33951301D03*
%TO.P,J3,3,Pin_3*%
X13378300Y-33951301D03*
%TD*%
D12*
%TO.P,J5,1,Pin_1*%
%TO.N,/SW_T3*%
X44726300Y-42015300D03*
D13*
%TO.P,J5,2,Pin_2*%
%TO.N,/SW_T2*%
X49806300Y-42015300D03*
%TO.P,J5,3,Pin_3*%
%TO.N,/SW_T1*%
X54886300Y-42015300D03*
%TD*%
D14*
%TO.P,R1,1*%
%TO.N,/5V*%
X-4041700Y-47543300D03*
D15*
%TO.P,R1,2*%
%TO.N,Net-(R1-Pad2)*%
X-4041700Y-55163300D03*
%TD*%
%TO.P,U1,4*%
%TO.N,/SW_PC_IN*%
X-9883700Y-47533299D03*
%TO.P,U1,3*%
%TO.N,/SW_PC_OUT*%
X-7343700Y-47533299D03*
%TO.P,U1,2*%
%TO.N,/SW_T5*%
X-7343700Y-55153299D03*
D16*
%TO.P,U1,1*%
%TO.N,Net-(R1-Pad2)*%
X-9883700Y-55153299D03*
%TD*%
D17*
%TO.N,/SW_T5*%
X18540000Y-47797299D02*
X20308500Y-49565799D01*
X-7343699Y-55153301D02*
X12300Y-47797300D01*
X12300Y-47797300D02*
X18540000Y-47797299D01*
%TO.N,/VR_5*%
X46940501Y-57957300D02*
X28500000Y-57957300D01*
X28500000Y-57957300D02*
X22848500Y-52305801D01*
X49734499Y-60751298D02*
X46940501Y-57957300D01*
%TO.N,/VR_4*%
X26468001Y-58465300D02*
X20308500Y-52305801D01*
X31772300Y-58465299D02*
X26468001Y-58465300D01*
X34058301Y-60751300D02*
X31772300Y-58465299D01*
%TD*%
%TA.AperFunction,Conductor*%
%TO.N,/GND*%
G36*
X57876839Y-28107084D02*
G01*
X57922594Y-28159888D01*
X57933800Y-28211399D01*
X57933800Y-66976801D01*
X57914115Y-67043840D01*
X57861311Y-67089595D01*
X57809800Y-67100801D01*
X-22205200Y-67100801D01*
X-22272239Y-67081116D01*
X-22317994Y-67028312D01*
X-22329200Y-66976801D01*
X-22329200Y-62299936D01*
X-20045599Y-62299936D01*
X-20045598Y-62299953D01*
X-20042690Y-62326991D01*
X-20039088Y-62360500D01*
X-19987988Y-62497503D01*
X-19900360Y-62614560D01*
X-19783303Y-62702188D01*
X-19646300Y-62753288D01*
X-19614722Y-62756682D01*
X-19585753Y-62759798D01*
X-19585737Y-62759799D01*
X-16488461Y-62759799D01*
X-16488444Y-62759798D01*
X-16457369Y-62756456D01*
X-16427898Y-62753288D01*
X-16427895Y-62753287D01*
X-16427894Y-62753287D01*
X-16345045Y-62722385D01*
X-16290895Y-62702188D01*
X-16173838Y-62614560D01*
X-16086210Y-62497503D01*
X-16035110Y-62360503D01*
X-16035110Y-62360501D01*
X-16028599Y-62299953D01*
X-16028599Y-60751299D01*
X-14970292Y-60751299D01*
X-14951541Y-61025429D01*
X-14935036Y-61104853D01*
X-14895640Y-61294440D01*
X-14895638Y-61294445D01*
X-14895637Y-61294452D01*
X-14803622Y-61553357D01*
X-14677210Y-61797322D01*
X-14518756Y-62021801D01*
X-14331210Y-62222613D01*
X-14118068Y-62396017D01*
X-13883299Y-62538783D01*
X-13883297Y-62538784D01*
X-13835824Y-62559404D01*
X-13631276Y-62648252D01*
X-13366695Y-62722384D01*
X-13141854Y-62753288D01*
X-13094485Y-62759799D01*
X-13094484Y-62759799D01*
X-12819713Y-62759799D01*
X-12772344Y-62753288D01*
X-12547503Y-62722384D01*
X-12282922Y-62648252D01*
X-12235447Y-62627630D01*
X-12030900Y-62538784D01*
X-11796133Y-62396019D01*
X-11796132Y-62396018D01*
X-11796130Y-62396017D01*
X-11582988Y-62222613D01*
X-11395442Y-62021801D01*
X-11395439Y-62021798D01*
X-11236992Y-61797329D01*
X-11236988Y-61797323D01*
X-11110575Y-61553355D01*
X-11018562Y-61294457D01*
X-11018557Y-61294440D01*
X-10962657Y-61025431D01*
X-10962656Y-61025429D01*
X-10943906Y-60751300D01*
X-9882208Y-60751300D01*
X-9861798Y-61036661D01*
X-9800989Y-61316194D01*
X-9701007Y-61584257D01*
X-9563902Y-61835346D01*
X-9457215Y-61977860D01*
X-9457214Y-61977861D01*
X-8561903Y-61082549D01*
X-8539759Y-61133886D01*
X-8433666Y-61276393D01*
X-8297569Y-61390593D01*
X-8207882Y-61435634D01*
X-9103661Y-62331414D01*
X-9103660Y-62331415D01*
X-8961146Y-62438102D01*
X-8710056Y-62575207D01*
X-8710057Y-62575207D01*
X-8441994Y-62675189D01*
X-8162461Y-62735998D01*
X-7877100Y-62756408D01*
X-7877098Y-62756408D01*
X-7591736Y-62735998D01*
X-7312203Y-62675189D01*
X-7044140Y-62575207D01*
X-6793060Y-62438107D01*
X-6793059Y-62438106D01*
X-6650535Y-62331414D01*
X-6682012Y-62299937D01*
X-4373800Y-62299937D01*
X-4373799Y-62299954D01*
X-4370891Y-62326992D01*
X-4367289Y-62360501D01*
X-4316189Y-62497504D01*
X-4228561Y-62614561D01*
X-4111504Y-62702189D01*
X-3974501Y-62753289D01*
X-3942923Y-62756683D01*
X-3913954Y-62759799D01*
X-3913938Y-62759800D01*
X-816662Y-62759800D01*
X-816645Y-62759799D01*
X-785111Y-62756408D01*
X-756099Y-62753289D01*
X-756096Y-62753288D01*
X-756095Y-62753288D01*
X-695864Y-62730822D01*
X-619096Y-62702189D01*
X-502039Y-62614561D01*
X-414411Y-62497504D01*
X-392257Y-62438108D01*
X-363311Y-62360504D01*
X-363311Y-62360502D01*
X-356800Y-62299954D01*
X-356800Y-60751299D01*
X701507Y-60751299D01*
X720257Y-61025430D01*
X720258Y-61025432D01*
X776158Y-61294441D01*
X776163Y-61294458D01*
X868176Y-61553356D01*
X994589Y-61797324D01*
X994593Y-61797330D01*
X1153040Y-62021799D01*
X1153042Y-62021801D01*
X1153043Y-62021802D01*
X1340589Y-62222614D01*
X1553731Y-62396018D01*
X1553733Y-62396019D01*
X1553734Y-62396020D01*
X1788501Y-62538785D01*
X1962954Y-62614560D01*
X2040523Y-62648253D01*
X2305104Y-62722385D01*
X2529945Y-62753289D01*
X2577314Y-62759800D01*
X2577315Y-62759800D01*
X2852086Y-62759800D01*
X2899455Y-62753289D01*
X3124296Y-62722385D01*
X3388877Y-62648253D01*
X3640900Y-62538784D01*
X3875669Y-62396018D01*
X4088811Y-62222614D01*
X4276357Y-62021802D01*
X4434811Y-61797323D01*
X4561223Y-61553358D01*
X4653238Y-61294453D01*
X4653239Y-61294446D01*
X4653241Y-61294441D01*
X4686604Y-61133886D01*
X4709142Y-61025430D01*
X4727893Y-60751301D01*
X5789591Y-60751301D01*
X5810000Y-61036662D01*
X5870809Y-61316195D01*
X5970791Y-61584258D01*
X6107891Y-61835338D01*
X6107896Y-61835346D01*
X6214582Y-61977861D01*
X6214583Y-61977862D01*
X7109895Y-61082549D01*
X7132040Y-61133887D01*
X7238133Y-61276394D01*
X7374230Y-61390594D01*
X7463916Y-61435635D01*
X6568136Y-62331415D01*
X6710660Y-62438107D01*
X6710661Y-62438108D01*
X6961742Y-62575208D01*
X6961741Y-62575208D01*
X7229804Y-62675190D01*
X7509337Y-62735999D01*
X7794699Y-62756409D01*
X7794701Y-62756409D01*
X8080062Y-62735999D01*
X8359595Y-62675190D01*
X8627658Y-62575208D01*
X8878747Y-62438103D01*
X9021261Y-62331416D01*
X9021262Y-62331415D01*
X8989801Y-62299954D01*
X11298000Y-62299954D01*
X11304511Y-62360502D01*
X11304511Y-62360504D01*
X11333457Y-62438108D01*
X11355611Y-62497504D01*
X11443239Y-62614561D01*
X11560296Y-62702189D01*
X11675449Y-62745139D01*
X11697293Y-62753287D01*
X11697299Y-62753289D01*
X11724550Y-62756218D01*
X11757845Y-62759799D01*
X11757862Y-62759800D01*
X14855138Y-62759800D01*
X14855154Y-62759799D01*
X14882192Y-62756891D01*
X14915701Y-62753289D01*
X14915707Y-62753287D01*
X14930268Y-62747855D01*
X15052704Y-62702189D01*
X15169761Y-62614561D01*
X15257389Y-62497504D01*
X15308489Y-62360501D01*
X15312091Y-62326992D01*
X15314999Y-62299954D01*
X15315000Y-62299937D01*
X15315000Y-60751300D01*
X16373307Y-60751300D01*
X16392057Y-61025430D01*
X16392058Y-61025432D01*
X16447958Y-61294441D01*
X16447963Y-61294458D01*
X16539976Y-61553356D01*
X16666389Y-61797324D01*
X16666393Y-61797330D01*
X16824840Y-62021799D01*
X16824842Y-62021801D01*
X16824843Y-62021802D01*
X17012389Y-62222614D01*
X17225531Y-62396018D01*
X17225533Y-62396019D01*
X17225534Y-62396020D01*
X17460301Y-62538785D01*
X17634754Y-62614560D01*
X17712323Y-62648253D01*
X17976904Y-62722385D01*
X18201745Y-62753289D01*
X18249114Y-62759800D01*
X18249115Y-62759800D01*
X18523886Y-62759800D01*
X18571255Y-62753289D01*
X18796096Y-62722385D01*
X19060677Y-62648253D01*
X19312700Y-62538784D01*
X19547469Y-62396018D01*
X19760611Y-62222614D01*
X19948157Y-62021802D01*
X20106611Y-61797323D01*
X20233023Y-61553358D01*
X20325038Y-61294453D01*
X20325039Y-61294446D01*
X20325041Y-61294441D01*
X20358404Y-61133886D01*
X20380942Y-61025430D01*
X20399693Y-60751301D01*
X21461391Y-60751301D01*
X21481800Y-61036662D01*
X21542609Y-61316195D01*
X21642591Y-61584258D01*
X21779691Y-61835338D01*
X21779696Y-61835346D01*
X21886382Y-61977861D01*
X21886383Y-61977862D01*
X22781695Y-61082549D01*
X22803840Y-61133887D01*
X22909933Y-61276394D01*
X23046030Y-61390594D01*
X23135716Y-61435635D01*
X22239936Y-62331415D01*
X22382460Y-62438107D01*
X22382461Y-62438108D01*
X22633542Y-62575208D01*
X22633541Y-62575208D01*
X22901604Y-62675190D01*
X23181137Y-62735999D01*
X23466499Y-62756409D01*
X23466501Y-62756409D01*
X23751862Y-62735999D01*
X24031395Y-62675190D01*
X24299458Y-62575208D01*
X24550547Y-62438103D01*
X24693061Y-62331416D01*
X24693062Y-62331415D01*
X23800248Y-61438600D01*
X23809909Y-61435084D01*
X23958344Y-61337457D01*
X24080264Y-61208230D01*
X24152268Y-61083514D01*
X25046615Y-61977862D01*
X25046616Y-61977861D01*
X25153303Y-61835347D01*
X25290408Y-61584258D01*
X25390390Y-61316195D01*
X25451199Y-61036662D01*
X25471609Y-60751301D01*
X25471609Y-60751298D01*
X25451199Y-60465937D01*
X25390390Y-60186404D01*
X25290408Y-59918341D01*
X25153308Y-59667261D01*
X25153307Y-59667260D01*
X25046615Y-59524736D01*
X24151303Y-60420047D01*
X24129160Y-60368713D01*
X24023067Y-60226206D01*
X23886970Y-60112006D01*
X23797281Y-60066963D01*
X24693062Y-59171183D01*
X24693061Y-59171182D01*
X24550546Y-59064496D01*
X24550538Y-59064491D01*
X24299457Y-58927391D01*
X24299458Y-58927391D01*
X24031395Y-58827409D01*
X23751862Y-58766600D01*
X23466501Y-58746191D01*
X23466499Y-58746191D01*
X23181137Y-58766600D01*
X22901604Y-58827409D01*
X22633541Y-58927391D01*
X22382461Y-59064491D01*
X22382453Y-59064496D01*
X22239936Y-59171182D01*
X22239936Y-59171183D01*
X23132751Y-60063999D01*
X23123091Y-60067516D01*
X22974656Y-60165143D01*
X22852736Y-60294370D01*
X22780732Y-60419084D01*
X21886383Y-59524736D01*
X21886382Y-59524736D01*
X21779696Y-59667253D01*
X21779691Y-59667261D01*
X21642591Y-59918341D01*
X21542609Y-60186404D01*
X21481800Y-60465937D01*
X21461391Y-60751298D01*
X21461391Y-60751301D01*
X20399693Y-60751301D01*
X20399693Y-60751300D01*
X20380942Y-60477170D01*
X20358404Y-60368712D01*
X20325041Y-60208158D01*
X20325037Y-60208146D01*
X20233023Y-59949242D01*
X20106611Y-59705277D01*
X20106610Y-59705275D01*
X20106606Y-59705269D01*
X19948159Y-59480800D01*
X19929531Y-59460855D01*
X19760611Y-59279986D01*
X19547469Y-59106582D01*
X19547467Y-59106581D01*
X19547465Y-59106579D01*
X19312698Y-58963814D01*
X19060678Y-58854347D01*
X18796102Y-58780216D01*
X18796097Y-58780215D01*
X18796096Y-58780215D01*
X18659990Y-58761507D01*
X18523886Y-58742800D01*
X18523885Y-58742800D01*
X18249115Y-58742800D01*
X18249114Y-58742800D01*
X17976904Y-58780215D01*
X17976897Y-58780216D01*
X17712321Y-58854347D01*
X17460301Y-58963814D01*
X17225534Y-59106579D01*
X17012392Y-59279983D01*
X16824840Y-59480800D01*
X16666393Y-59705269D01*
X16666389Y-59705275D01*
X16539976Y-59949243D01*
X16447963Y-60208141D01*
X16447958Y-60208158D01*
X16392058Y-60477167D01*
X16392057Y-60477169D01*
X16373307Y-60751300D01*
X15315000Y-60751300D01*
X15315000Y-59202662D01*
X15314999Y-59202645D01*
X15311616Y-59171181D01*
X15308489Y-59142099D01*
X15308487Y-59142094D01*
X15268479Y-59034829D01*
X15257389Y-59005096D01*
X15169761Y-58888039D01*
X15052704Y-58800411D01*
X15040886Y-58796003D01*
X14915703Y-58749311D01*
X14855154Y-58742800D01*
X14855138Y-58742800D01*
X11757862Y-58742800D01*
X11757845Y-58742800D01*
X11697297Y-58749311D01*
X11697295Y-58749311D01*
X11560295Y-58800411D01*
X11443239Y-58888039D01*
X11355611Y-59005095D01*
X11304511Y-59142095D01*
X11304511Y-59142097D01*
X11298000Y-59202645D01*
X11298000Y-62299954D01*
X8989801Y-62299954D01*
X8128448Y-61438600D01*
X8138109Y-61435084D01*
X8286544Y-61337457D01*
X8408464Y-61208230D01*
X8480468Y-61083514D01*
X9374815Y-61977862D01*
X9374816Y-61977861D01*
X9481503Y-61835347D01*
X9618608Y-61584258D01*
X9718590Y-61316195D01*
X9779399Y-61036662D01*
X9799809Y-60751301D01*
X9799809Y-60751298D01*
X9779399Y-60465937D01*
X9718590Y-60186404D01*
X9618608Y-59918341D01*
X9481508Y-59667261D01*
X9481507Y-59667260D01*
X9374815Y-59524736D01*
X8479503Y-60420047D01*
X8457360Y-60368713D01*
X8351267Y-60226206D01*
X8215170Y-60112006D01*
X8125481Y-60066963D01*
X9021262Y-59171183D01*
X9021261Y-59171182D01*
X8878746Y-59064496D01*
X8878738Y-59064491D01*
X8627657Y-58927391D01*
X8627658Y-58927391D01*
X8359595Y-58827409D01*
X8080062Y-58766600D01*
X7794701Y-58746191D01*
X7794699Y-58746191D01*
X7509337Y-58766600D01*
X7229804Y-58827409D01*
X6961741Y-58927391D01*
X6710661Y-59064491D01*
X6710653Y-59064496D01*
X6568136Y-59171182D01*
X6568136Y-59171183D01*
X7460951Y-60063999D01*
X7451291Y-60067516D01*
X7302856Y-60165143D01*
X7180936Y-60294370D01*
X7108932Y-60419084D01*
X6214583Y-59524736D01*
X6214582Y-59524736D01*
X6107896Y-59667253D01*
X6107891Y-59667261D01*
X5970791Y-59918341D01*
X5870809Y-60186404D01*
X5810000Y-60465937D01*
X5789591Y-60751298D01*
X5789591Y-60751301D01*
X4727893Y-60751301D01*
X4727893Y-60751300D01*
X4709142Y-60477170D01*
X4686604Y-60368712D01*
X4653241Y-60208158D01*
X4653237Y-60208146D01*
X4561223Y-59949242D01*
X4434811Y-59705277D01*
X4434810Y-59705275D01*
X4434806Y-59705269D01*
X4276359Y-59480800D01*
X4257731Y-59460855D01*
X4088811Y-59279986D01*
X3875669Y-59106582D01*
X3875667Y-59106581D01*
X3875665Y-59106579D01*
X3640898Y-58963814D01*
X3388878Y-58854347D01*
X3124302Y-58780216D01*
X3124297Y-58780215D01*
X3124296Y-58780215D01*
X2988190Y-58761507D01*
X2852086Y-58742800D01*
X2852085Y-58742800D01*
X2577315Y-58742800D01*
X2577314Y-58742800D01*
X2305104Y-58780215D01*
X2305097Y-58780216D01*
X2040521Y-58854347D01*
X1788501Y-58963814D01*
X1553734Y-59106579D01*
X1340592Y-59279983D01*
X1153040Y-59480800D01*
X994593Y-59705269D01*
X994589Y-59705275D01*
X868176Y-59949243D01*
X776163Y-60208141D01*
X776158Y-60208158D01*
X720258Y-60477167D01*
X720257Y-60477169D01*
X701507Y-60751299D01*
X-356800Y-60751299D01*
X-356800Y-59202645D01*
X-363311Y-59142097D01*
X-363311Y-59142095D01*
X-414411Y-59005095D01*
X-502039Y-58888039D01*
X-619095Y-58800411D01*
X-756096Y-58749311D01*
X-816645Y-58742800D01*
X-816662Y-58742800D01*
X-3913938Y-58742800D01*
X-3913954Y-58742800D01*
X-3974502Y-58749311D01*
X-3974504Y-58749311D01*
X-4099686Y-58796003D01*
X-4111504Y-58800411D01*
X-4228561Y-58888039D01*
X-4316189Y-59005096D01*
X-4327279Y-59034829D01*
X-4367287Y-59142094D01*
X-4367289Y-59142099D01*
X-4370416Y-59171181D01*
X-4373799Y-59202645D01*
X-4373800Y-59202662D01*
X-4373800Y-62299937D01*
X-6682012Y-62299937D01*
X-7543351Y-61438599D01*
X-7533690Y-61435083D01*
X-7385255Y-61337456D01*
X-7263335Y-61208229D01*
X-7191330Y-61083512D01*
X-6296982Y-61977861D01*
X-6296981Y-61977860D01*
X-6190295Y-61835345D01*
X-6190290Y-61835337D01*
X-6053190Y-61584257D01*
X-5953208Y-61316194D01*
X-5892399Y-61036661D01*
X-5871990Y-60751300D01*
X-5871990Y-60751297D01*
X-5892399Y-60465936D01*
X-5953208Y-60186403D01*
X-6053190Y-59918340D01*
X-6190290Y-59667260D01*
X-6190295Y-59667252D01*
X-6296981Y-59524735D01*
X-6296982Y-59524735D01*
X-7192295Y-60420047D01*
X-7214439Y-60368712D01*
X-7320532Y-60226205D01*
X-7456629Y-60112005D01*
X-7546315Y-60066963D01*
X-6650535Y-59171182D01*
X-6650535Y-59171181D01*
X-6793052Y-59064495D01*
X-6793060Y-59064490D01*
X-7044141Y-58927390D01*
X-7044140Y-58927390D01*
X-7312203Y-58827408D01*
X-7591736Y-58766599D01*
X-7877098Y-58746190D01*
X-7877100Y-58746190D01*
X-8162461Y-58766599D01*
X-8441994Y-58827408D01*
X-8710057Y-58927390D01*
X-8961137Y-59064490D01*
X-8961145Y-59064495D01*
X-9103660Y-59171181D01*
X-9103661Y-59171182D01*
X-8210845Y-60063997D01*
X-8220508Y-60067515D01*
X-8368943Y-60165142D01*
X-8490863Y-60294369D01*
X-8562866Y-60419082D01*
X-9457214Y-59524735D01*
X-9563906Y-59667259D01*
X-9563907Y-59667260D01*
X-9701007Y-59918340D01*
X-9800989Y-60186403D01*
X-9861798Y-60465936D01*
X-9882208Y-60751297D01*
X-9882208Y-60751300D01*
X-10943906Y-60751300D01*
X-10943906Y-60751299D01*
X-10962656Y-60477168D01*
X-10962657Y-60477166D01*
X-11018557Y-60208157D01*
X-11018562Y-60208140D01*
X-11110575Y-59949242D01*
X-11236988Y-59705274D01*
X-11236992Y-59705268D01*
X-11395439Y-59480799D01*
X-11582991Y-59279982D01*
X-11796133Y-59106578D01*
X-12030900Y-58963813D01*
X-12282920Y-58854346D01*
X-12547496Y-58780215D01*
X-12547503Y-58780214D01*
X-12819713Y-58742799D01*
X-12819714Y-58742799D01*
X-13094484Y-58742799D01*
X-13094485Y-58742799D01*
X-13141862Y-58749311D01*
X-13366695Y-58780214D01*
X-13366696Y-58780214D01*
X-13366701Y-58780215D01*
X-13631277Y-58854346D01*
X-13883297Y-58963813D01*
X-14118064Y-59106578D01*
X-14118065Y-59106579D01*
X-14118068Y-59106581D01*
X-14331210Y-59279985D01*
X-14500130Y-59460854D01*
X-14518758Y-59480799D01*
X-14677205Y-59705268D01*
X-14677209Y-59705274D01*
X-14677210Y-59705276D01*
X-14803622Y-59949241D01*
X-14824061Y-60006751D01*
X-14895635Y-60208140D01*
X-14895640Y-60208157D01*
X-14913555Y-60294370D01*
X-14951541Y-60477169D01*
X-14970292Y-60751299D01*
X-16028599Y-60751299D01*
X-16028599Y-59202644D01*
X-16035110Y-59142096D01*
X-16035110Y-59142094D01*
X-16086210Y-59005094D01*
X-16173838Y-58888038D01*
X-16290894Y-58800410D01*
X-16427895Y-58749310D01*
X-16488444Y-58742799D01*
X-16488461Y-58742799D01*
X-19585737Y-58742799D01*
X-19585753Y-58742799D01*
X-19646301Y-58749310D01*
X-19646303Y-58749310D01*
X-19774590Y-58797160D01*
X-19783303Y-58800410D01*
X-19900360Y-58888038D01*
X-19987988Y-59005095D01*
X-20008091Y-59058993D01*
X-20030280Y-59118484D01*
X-20039088Y-59142098D01*
X-20042215Y-59171181D01*
X-20045598Y-59202644D01*
X-20045599Y-59202661D01*
X-20045599Y-62299936D01*
X-22329200Y-62299936D01*
X-22329200Y-56001936D01*
X-11192200Y-56001936D01*
X-11192199Y-56001953D01*
X-11191591Y-56007604D01*
X-11185689Y-56062500D01*
X-11134589Y-56199503D01*
X-11046961Y-56316560D01*
X-10929904Y-56404188D01*
X-10792901Y-56455288D01*
X-10761323Y-56458682D01*
X-10732354Y-56461798D01*
X-10732338Y-56461799D01*
X-9035062Y-56461799D01*
X-9035045Y-56461798D01*
X-9003970Y-56458456D01*
X-8974499Y-56455288D01*
X-8974496Y-56455287D01*
X-8974495Y-56455287D01*
X-8914264Y-56432821D01*
X-8837496Y-56404188D01*
X-8720439Y-56316560D01*
X-8632811Y-56199503D01*
X-8632811Y-56199502D01*
X-8581711Y-56062503D01*
X-8581711Y-56062501D01*
X-8580130Y-56047797D01*
X-8553391Y-55983246D01*
X-8495998Y-55943399D01*
X-8426173Y-55940906D01*
X-8366085Y-55976560D01*
X-8355272Y-55989923D01*
X-8349898Y-55997599D01*
X-8188000Y-56159497D01*
X-8000449Y-56290822D01*
X-7792943Y-56387583D01*
X-7571787Y-56446842D01*
X-7400839Y-56461798D01*
X-7343702Y-56466797D01*
X-7343700Y-56466797D01*
X-7343698Y-56466797D01*
X-7278532Y-56461095D01*
X-7115613Y-56446842D01*
X-6894457Y-56387583D01*
X-6894452Y-56387580D01*
X-6894450Y-56387580D01*
X-6742145Y-56316559D01*
X-6686951Y-56290822D01*
X-6499400Y-56159497D01*
X-6337502Y-55997599D01*
X-6206177Y-55810048D01*
X-6206175Y-55810044D01*
X-6109418Y-55602548D01*
X-6109414Y-55602537D01*
X-6050157Y-55381388D01*
X-6050156Y-55381380D01*
X-6031077Y-55163300D01*
X-5355198Y-55163300D01*
X-5335243Y-55391387D01*
X-5275984Y-55612543D01*
X-5179223Y-55820049D01*
X-5047898Y-56007600D01*
X-4886000Y-56169498D01*
X-4698449Y-56300823D01*
X-4490943Y-56397584D01*
X-4269787Y-56456843D01*
X-4098721Y-56471809D01*
X-4041702Y-56476798D01*
X-4041700Y-56476798D01*
X-4041698Y-56476798D01*
X-3976532Y-56471096D01*
X-3813613Y-56456843D01*
X-3592457Y-56397584D01*
X-3592452Y-56397581D01*
X-3592450Y-56397581D01*
X-3509791Y-56359036D01*
X-3384951Y-56300823D01*
X-3197400Y-56169498D01*
X-3035502Y-56007600D01*
X-2904177Y-55820049D01*
X-2899513Y-55810048D01*
X-2807418Y-55612549D01*
X-2807414Y-55612538D01*
X-2748157Y-55391389D01*
X-2748156Y-55391381D01*
X-2728202Y-55163301D01*
X-2728202Y-55163298D01*
X-2748156Y-54935218D01*
X-2748157Y-54935210D01*
X-2807414Y-54714061D01*
X-2807418Y-54714050D01*
X-2904175Y-54506554D01*
X-2904176Y-54506552D01*
X-3006589Y-54360292D01*
X-3035502Y-54319000D01*
X-3035503Y-54318998D01*
X-3035506Y-54318995D01*
X-3197395Y-54157106D01*
X-3197398Y-54157103D01*
X-3197400Y-54157102D01*
X-3314556Y-54075067D01*
X-3384952Y-54025776D01*
X-3384954Y-54025775D01*
X-3592450Y-53929018D01*
X-3592461Y-53929014D01*
X-3813610Y-53869757D01*
X-3813618Y-53869756D01*
X-4041698Y-53849802D01*
X-4041702Y-53849802D01*
X-4269781Y-53869756D01*
X-4269789Y-53869757D01*
X-4490938Y-53929014D01*
X-4490949Y-53929018D01*
X-4677000Y-54015775D01*
X-4698449Y-54025777D01*
X-4886000Y-54157102D01*
X-5047898Y-54319000D01*
X-5179223Y-54506551D01*
X-5275984Y-54714057D01*
X-5335243Y-54935213D01*
X-5335243Y-54935218D01*
X-5351397Y-55119860D01*
X-5355198Y-55163300D01*
X-6031077Y-55163300D01*
X-6030202Y-55153300D01*
X-6030202Y-55153297D01*
X-6050156Y-54925217D01*
X-6050159Y-54925200D01*
X-6067457Y-54860641D01*
X-6065793Y-54790792D01*
X-6035363Y-54740869D01*
X-1370988Y-50076493D01*
X238386Y-48467117D01*
X299709Y-48433633D01*
X326067Y-48430799D01*
X6750735Y-48430799D01*
X6817774Y-48450484D01*
X6863529Y-48503288D01*
X6873473Y-48572446D01*
X6844448Y-48636002D01*
X6826898Y-48652652D01*
X6685262Y-48762892D01*
X6685257Y-48762897D01*
X6532785Y-48928523D01*
X6532777Y-48928534D01*
X6409641Y-49117007D01*
X6319204Y-49323185D01*
X6263937Y-49541428D01*
X6263935Y-49541440D01*
X6245345Y-49765794D01*
X6245345Y-49765805D01*
X6263935Y-49990159D01*
X6263937Y-49990171D01*
X6319204Y-50208414D01*
X6409641Y-50414592D01*
X6532777Y-50603065D01*
X6532785Y-50603076D01*
X6685257Y-50768702D01*
X6685262Y-50768707D01*
X6723018Y-50798094D01*
X6763831Y-50854805D01*
X6767504Y-50924578D01*
X6732873Y-50985261D01*
X6691988Y-51009954D01*
X6692306Y-51010635D01*
X6685967Y-51013590D01*
X6685869Y-51013650D01*
X6685768Y-51013683D01*
X6685760Y-51013686D01*
X6534847Y-51106771D01*
X6409472Y-51232146D01*
X6316387Y-51383059D01*
X6316385Y-51383064D01*
X6260614Y-51551372D01*
X6250001Y-51655247D01*
X6250001Y-52956337D01*
X6250002Y-52956353D01*
X6260614Y-53060227D01*
X6316385Y-53228535D01*
X6316387Y-53228540D01*
X6331968Y-53253800D01*
X6409471Y-53379452D01*
X6534849Y-53504830D01*
X6685763Y-53597915D01*
X6854075Y-53653687D01*
X6957956Y-53664300D01*
X8259045Y-53664299D01*
X8362927Y-53653687D01*
X8531239Y-53597915D01*
X8682153Y-53504830D01*
X8807531Y-53379452D01*
X8900616Y-53228538D01*
X8900747Y-53228142D01*
X8900907Y-53227910D01*
X8903666Y-53221995D01*
X8904676Y-53222466D01*
X8940512Y-53170698D01*
X9005025Y-53143869D01*
X9073802Y-53156178D01*
X9109682Y-53183155D01*
X9225261Y-53308706D01*
X9402925Y-53446989D01*
X9402926Y-53446989D01*
X9402928Y-53446991D01*
X9462815Y-53479400D01*
X9600927Y-53554142D01*
X9813866Y-53627244D01*
X10035932Y-53664300D01*
X10261070Y-53664300D01*
X10483136Y-53627244D01*
X10696075Y-53554142D01*
X10894077Y-53446989D01*
X11071741Y-53308706D01*
X11194553Y-53175298D01*
X11224216Y-53143076D01*
X11224218Y-53143073D01*
X11224223Y-53143068D01*
X11314694Y-53004591D01*
X11367837Y-52959237D01*
X11437068Y-52949813D01*
X11500404Y-52979315D01*
X11522308Y-53004593D01*
X11612777Y-53143065D01*
X11612785Y-53143076D01*
X11763821Y-53307142D01*
X11765261Y-53308706D01*
X11942925Y-53446989D01*
X11942926Y-53446989D01*
X11942928Y-53446991D01*
X12002815Y-53479400D01*
X12140927Y-53554142D01*
X12353866Y-53627244D01*
X12575932Y-53664300D01*
X12801070Y-53664300D01*
X13023136Y-53627244D01*
X13236075Y-53554142D01*
X13434077Y-53446989D01*
X13611741Y-53308706D01*
X13734553Y-53175298D01*
X13764216Y-53143076D01*
X13764218Y-53143073D01*
X13764223Y-53143068D01*
X13854694Y-53004591D01*
X13907837Y-52959237D01*
X13977068Y-52949813D01*
X14040404Y-52979315D01*
X14062308Y-53004593D01*
X14152777Y-53143065D01*
X14152785Y-53143076D01*
X14303821Y-53307142D01*
X14305261Y-53308706D01*
X14482925Y-53446989D01*
X14482926Y-53446989D01*
X14482928Y-53446991D01*
X14542815Y-53479400D01*
X14680927Y-53554142D01*
X14893866Y-53627244D01*
X15115932Y-53664300D01*
X15341070Y-53664300D01*
X15563136Y-53627244D01*
X15776075Y-53554142D01*
X15974077Y-53446989D01*
X16151741Y-53308706D01*
X16274553Y-53175298D01*
X16304216Y-53143076D01*
X16304218Y-53143073D01*
X16304223Y-53143068D01*
X16394694Y-53004591D01*
X16447837Y-52959237D01*
X16517068Y-52949813D01*
X16580404Y-52979315D01*
X16602308Y-53004593D01*
X16692777Y-53143065D01*
X16692785Y-53143076D01*
X16843821Y-53307142D01*
X16845261Y-53308706D01*
X17022925Y-53446989D01*
X17022926Y-53446989D01*
X17022928Y-53446991D01*
X17082815Y-53479400D01*
X17220927Y-53554142D01*
X17433866Y-53627244D01*
X17655932Y-53664300D01*
X17881070Y-53664300D01*
X18103136Y-53627244D01*
X18316075Y-53554142D01*
X18514077Y-53446989D01*
X18691741Y-53308706D01*
X18814553Y-53175298D01*
X18844216Y-53143076D01*
X18844218Y-53143073D01*
X18844223Y-53143068D01*
X18934694Y-53004591D01*
X18987837Y-52959237D01*
X19057068Y-52949813D01*
X19120404Y-52979315D01*
X19142308Y-53004593D01*
X19232777Y-53143065D01*
X19232785Y-53143076D01*
X19383821Y-53307142D01*
X19385261Y-53308706D01*
X19562925Y-53446989D01*
X19562926Y-53446989D01*
X19562928Y-53446991D01*
X19622815Y-53479400D01*
X19760927Y-53554142D01*
X19973866Y-53627244D01*
X20195932Y-53664300D01*
X20421070Y-53664300D01*
X20643136Y-53627244D01*
X20643150Y-53627239D01*
X20647358Y-53626174D01*
X20717178Y-53628792D01*
X20765491Y-53658696D01*
X25960911Y-58854114D01*
X25970817Y-58866478D01*
X25971027Y-58866305D01*
X25976002Y-58872319D01*
X26027095Y-58920299D01*
X26048225Y-58941428D01*
X26048231Y-58941434D01*
X26053803Y-58945756D01*
X26058243Y-58949549D01*
X26092679Y-58981886D01*
X26110568Y-58991720D01*
X26126834Y-59002404D01*
X26142960Y-59014913D01*
X26186299Y-59033667D01*
X26191546Y-59036237D01*
X26232941Y-59058995D01*
X26252719Y-59064073D01*
X26271120Y-59070373D01*
X26289856Y-59078481D01*
X26327415Y-59084429D01*
X26336498Y-59085868D01*
X26342218Y-59087052D01*
X26387971Y-59098800D01*
X26408387Y-59098799D01*
X26427786Y-59100325D01*
X26447944Y-59103519D01*
X26492043Y-59099349D01*
X26494961Y-59099074D01*
X26500800Y-59098799D01*
X26845801Y-59098799D01*
X26912840Y-59118484D01*
X26958595Y-59171288D01*
X26969801Y-59222799D01*
X26969801Y-62299954D01*
X26976312Y-62360502D01*
X26976312Y-62360504D01*
X27005258Y-62438108D01*
X27027412Y-62497504D01*
X27115040Y-62614561D01*
X27232097Y-62702189D01*
X27347250Y-62745139D01*
X27369094Y-62753287D01*
X27369100Y-62753289D01*
X27396351Y-62756218D01*
X27429646Y-62759799D01*
X27429663Y-62759800D01*
X30526939Y-62759800D01*
X30526955Y-62759799D01*
X30553993Y-62756891D01*
X30587502Y-62753289D01*
X30587508Y-62753287D01*
X30602069Y-62747855D01*
X30724505Y-62702189D01*
X30841562Y-62614561D01*
X30929190Y-62497504D01*
X30980290Y-62360501D01*
X30983892Y-62326992D01*
X30986800Y-62299954D01*
X30986801Y-62299937D01*
X30986801Y-59222799D01*
X31006486Y-59155760D01*
X31059290Y-59110005D01*
X31110801Y-59098799D01*
X31458534Y-59098799D01*
X31525573Y-59118484D01*
X31546215Y-59135118D01*
X32198320Y-59787223D01*
X32231805Y-59848546D01*
X32226821Y-59918238D01*
X32220737Y-59931951D01*
X32211778Y-59949239D01*
X32211776Y-59949246D01*
X32119764Y-60208141D01*
X32119759Y-60208158D01*
X32063859Y-60477167D01*
X32063858Y-60477169D01*
X32045108Y-60751300D01*
X32063858Y-61025430D01*
X32063859Y-61025432D01*
X32119759Y-61294441D01*
X32119764Y-61294458D01*
X32211777Y-61553356D01*
X32338190Y-61797324D01*
X32338194Y-61797330D01*
X32496641Y-62021799D01*
X32496643Y-62021801D01*
X32496644Y-62021802D01*
X32684190Y-62222614D01*
X32897332Y-62396018D01*
X32897334Y-62396019D01*
X32897335Y-62396020D01*
X33132102Y-62538785D01*
X33306555Y-62614560D01*
X33384124Y-62648253D01*
X33648705Y-62722385D01*
X33873546Y-62753289D01*
X33920915Y-62759800D01*
X33920916Y-62759800D01*
X34195687Y-62759800D01*
X34243056Y-62753289D01*
X34467897Y-62722385D01*
X34732478Y-62648253D01*
X34984501Y-62538784D01*
X35219270Y-62396018D01*
X35432412Y-62222614D01*
X35619958Y-62021802D01*
X35778412Y-61797323D01*
X35904824Y-61553358D01*
X35996839Y-61294453D01*
X35996840Y-61294446D01*
X35996842Y-61294441D01*
X36030205Y-61133886D01*
X36052743Y-61025430D01*
X36071494Y-60751300D01*
X36052743Y-60477170D01*
X36030205Y-60368712D01*
X35996842Y-60208158D01*
X35996838Y-60208146D01*
X35904824Y-59949242D01*
X35778412Y-59705277D01*
X35778411Y-59705275D01*
X35778407Y-59705269D01*
X35619960Y-59480800D01*
X35601332Y-59460855D01*
X35432412Y-59279986D01*
X35219270Y-59106582D01*
X35219268Y-59106581D01*
X35219266Y-59106579D01*
X34984499Y-58963814D01*
X34732479Y-58854347D01*
X34660579Y-58834202D01*
X34601337Y-58797160D01*
X34571525Y-58733970D01*
X34580609Y-58664693D01*
X34625704Y-58611325D01*
X34692494Y-58590810D01*
X34694034Y-58590800D01*
X38520494Y-58590800D01*
X38587533Y-58610485D01*
X38633288Y-58663289D01*
X38643232Y-58732447D01*
X38614207Y-58796003D01*
X38563827Y-58830982D01*
X38305347Y-58927389D01*
X38305343Y-58927391D01*
X38054262Y-59064491D01*
X38054254Y-59064496D01*
X37911738Y-59171182D01*
X37911737Y-59171183D01*
X38804553Y-60063999D01*
X38794892Y-60067516D01*
X38646457Y-60165143D01*
X38524537Y-60294370D01*
X38452532Y-60419084D01*
X37558184Y-59524736D01*
X37558183Y-59524737D01*
X37451497Y-59667253D01*
X37451492Y-59667261D01*
X37314392Y-59918341D01*
X37214410Y-60186404D01*
X37153601Y-60465937D01*
X37133192Y-60751298D01*
X37133192Y-60751301D01*
X37153601Y-61036662D01*
X37214410Y-61316195D01*
X37314392Y-61584258D01*
X37451492Y-61835338D01*
X37451497Y-61835346D01*
X37558183Y-61977861D01*
X37558184Y-61977862D01*
X38453496Y-61082550D01*
X38475641Y-61133887D01*
X38581734Y-61276394D01*
X38717831Y-61390594D01*
X38807517Y-61435635D01*
X37911737Y-62331415D01*
X38054261Y-62438107D01*
X38054262Y-62438108D01*
X38305343Y-62575208D01*
X38305342Y-62575208D01*
X38573405Y-62675190D01*
X38852938Y-62735999D01*
X39138300Y-62756409D01*
X39138302Y-62756409D01*
X39423663Y-62735999D01*
X39703196Y-62675190D01*
X39971259Y-62575208D01*
X40222348Y-62438103D01*
X40364862Y-62331416D01*
X40364863Y-62331415D01*
X39472049Y-61438600D01*
X39481710Y-61435084D01*
X39630145Y-61337457D01*
X39752065Y-61208230D01*
X39824069Y-61083515D01*
X40718416Y-61977862D01*
X40718417Y-61977861D01*
X40825104Y-61835347D01*
X40962209Y-61584258D01*
X41062191Y-61316195D01*
X41123000Y-61036662D01*
X41143410Y-60751301D01*
X41143410Y-60751298D01*
X41123000Y-60465937D01*
X41062191Y-60186404D01*
X40962209Y-59918341D01*
X40825109Y-59667261D01*
X40825108Y-59667260D01*
X40718416Y-59524736D01*
X39823104Y-60420047D01*
X39800961Y-60368713D01*
X39694868Y-60226206D01*
X39558771Y-60112006D01*
X39469083Y-60066963D01*
X40364863Y-59171183D01*
X40364862Y-59171182D01*
X40222347Y-59064496D01*
X40222339Y-59064491D01*
X39971258Y-58927391D01*
X39971254Y-58927389D01*
X39712775Y-58830982D01*
X39656841Y-58789110D01*
X39632424Y-58723646D01*
X39647276Y-58655373D01*
X39696681Y-58605968D01*
X39756108Y-58590800D01*
X42815744Y-58590800D01*
X42882783Y-58610485D01*
X42928538Y-58663289D01*
X42938482Y-58732447D01*
X42909457Y-58796003D01*
X42890055Y-58814066D01*
X42836247Y-58854347D01*
X42791240Y-58888039D01*
X42703612Y-59005095D01*
X42652512Y-59142095D01*
X42652512Y-59142097D01*
X42646001Y-59202645D01*
X42646001Y-62299954D01*
X42652512Y-62360502D01*
X42652512Y-62360504D01*
X42681458Y-62438108D01*
X42703612Y-62497504D01*
X42791240Y-62614561D01*
X42908297Y-62702189D01*
X43023450Y-62745139D01*
X43045294Y-62753287D01*
X43045300Y-62753289D01*
X43072551Y-62756218D01*
X43105846Y-62759799D01*
X43105863Y-62759800D01*
X46203139Y-62759800D01*
X46203155Y-62759799D01*
X46230193Y-62756891D01*
X46263702Y-62753289D01*
X46263708Y-62753287D01*
X46278269Y-62747855D01*
X46400705Y-62702189D01*
X46517762Y-62614561D01*
X46605390Y-62497504D01*
X46656490Y-62360501D01*
X46660092Y-62326992D01*
X46663000Y-62299954D01*
X46663001Y-62299937D01*
X46663001Y-59202662D01*
X46663000Y-59202645D01*
X46659617Y-59171181D01*
X46656490Y-59142099D01*
X46656488Y-59142094D01*
X46616480Y-59034829D01*
X46605390Y-59005096D01*
X46517762Y-58888039D01*
X46418946Y-58814066D01*
X46377076Y-58758133D01*
X46372092Y-58688441D01*
X46405577Y-58627118D01*
X46466900Y-58593634D01*
X46493258Y-58590800D01*
X46626735Y-58590800D01*
X46693774Y-58610485D01*
X46714416Y-58627119D01*
X47874519Y-59787223D01*
X47908004Y-59848546D01*
X47903020Y-59918238D01*
X47896938Y-59931947D01*
X47887980Y-59949236D01*
X47887976Y-59949246D01*
X47795964Y-60208141D01*
X47795959Y-60208158D01*
X47740059Y-60477167D01*
X47740058Y-60477169D01*
X47721308Y-60751300D01*
X47740058Y-61025430D01*
X47740059Y-61025432D01*
X47795959Y-61294441D01*
X47795964Y-61294458D01*
X47887977Y-61553356D01*
X48014390Y-61797324D01*
X48014394Y-61797330D01*
X48172841Y-62021799D01*
X48172843Y-62021801D01*
X48172844Y-62021802D01*
X48360390Y-62222614D01*
X48573532Y-62396018D01*
X48573534Y-62396019D01*
X48573535Y-62396020D01*
X48808302Y-62538785D01*
X48982755Y-62614560D01*
X49060324Y-62648253D01*
X49324905Y-62722385D01*
X49549746Y-62753289D01*
X49597115Y-62759800D01*
X49597116Y-62759800D01*
X49871887Y-62759800D01*
X49919256Y-62753289D01*
X50144097Y-62722385D01*
X50408678Y-62648253D01*
X50660701Y-62538784D01*
X50895470Y-62396018D01*
X51108612Y-62222614D01*
X51296158Y-62021802D01*
X51454612Y-61797323D01*
X51581024Y-61553358D01*
X51673039Y-61294453D01*
X51673040Y-61294446D01*
X51673042Y-61294441D01*
X51706405Y-61133886D01*
X51728943Y-61025430D01*
X51747694Y-60751301D01*
X52809392Y-60751301D01*
X52829801Y-61036662D01*
X52890610Y-61316195D01*
X52990592Y-61584258D01*
X53127692Y-61835338D01*
X53127697Y-61835346D01*
X53234383Y-61977861D01*
X53234384Y-61977862D01*
X54129696Y-61082550D01*
X54151841Y-61133887D01*
X54257934Y-61276394D01*
X54394031Y-61390594D01*
X54483717Y-61435635D01*
X53587937Y-62331415D01*
X53730461Y-62438107D01*
X53730462Y-62438108D01*
X53981543Y-62575208D01*
X53981542Y-62575208D01*
X54249605Y-62675190D01*
X54529138Y-62735999D01*
X54814500Y-62756409D01*
X54814502Y-62756409D01*
X55099863Y-62735999D01*
X55379396Y-62675190D01*
X55647459Y-62575208D01*
X55898548Y-62438103D01*
X56041062Y-62331416D01*
X56041063Y-62331415D01*
X55148249Y-61438600D01*
X55157910Y-61435084D01*
X55306345Y-61337457D01*
X55428265Y-61208230D01*
X55500269Y-61083515D01*
X56394616Y-61977862D01*
X56394617Y-61977861D01*
X56501304Y-61835347D01*
X56638409Y-61584258D01*
X56738391Y-61316195D01*
X56799200Y-61036662D01*
X56819610Y-60751301D01*
X56819610Y-60751298D01*
X56799200Y-60465937D01*
X56738391Y-60186404D01*
X56638409Y-59918341D01*
X56501309Y-59667261D01*
X56501308Y-59667260D01*
X56394616Y-59524736D01*
X55499304Y-60420047D01*
X55477161Y-60368713D01*
X55371068Y-60226206D01*
X55234971Y-60112006D01*
X55145283Y-60066963D01*
X56041063Y-59171183D01*
X56041062Y-59171182D01*
X55898547Y-59064496D01*
X55898539Y-59064491D01*
X55647458Y-58927391D01*
X55647459Y-58927391D01*
X55379396Y-58827409D01*
X55099863Y-58766600D01*
X54814502Y-58746191D01*
X54814500Y-58746191D01*
X54529138Y-58766600D01*
X54249605Y-58827409D01*
X53981542Y-58927391D01*
X53730462Y-59064491D01*
X53730454Y-59064496D01*
X53587938Y-59171182D01*
X53587937Y-59171183D01*
X54480753Y-60063999D01*
X54471092Y-60067516D01*
X54322657Y-60165143D01*
X54200737Y-60294370D01*
X54128732Y-60419084D01*
X53234384Y-59524736D01*
X53234383Y-59524737D01*
X53127697Y-59667253D01*
X53127692Y-59667261D01*
X52990592Y-59918341D01*
X52890610Y-60186404D01*
X52829801Y-60465937D01*
X52809392Y-60751298D01*
X52809392Y-60751301D01*
X51747694Y-60751301D01*
X51747694Y-60751300D01*
X51728943Y-60477170D01*
X51706405Y-60368712D01*
X51673042Y-60208158D01*
X51673038Y-60208146D01*
X51581024Y-59949242D01*
X51454612Y-59705277D01*
X51454611Y-59705275D01*
X51454607Y-59705269D01*
X51296160Y-59480800D01*
X51277532Y-59460855D01*
X51108612Y-59279986D01*
X50895470Y-59106582D01*
X50895468Y-59106581D01*
X50895466Y-59106579D01*
X50660699Y-58963814D01*
X50408679Y-58854347D01*
X50144103Y-58780216D01*
X50144098Y-58780215D01*
X50144097Y-58780215D01*
X50007991Y-58761507D01*
X49871887Y-58742800D01*
X49871886Y-58742800D01*
X49597116Y-58742800D01*
X49597115Y-58742800D01*
X49324905Y-58780215D01*
X49324898Y-58780216D01*
X49060319Y-58854348D01*
X48909843Y-58919709D01*
X48840512Y-58928363D01*
X48777508Y-58898159D01*
X48772761Y-58893656D01*
X47447589Y-57568483D01*
X47437688Y-57556123D01*
X47437478Y-57556298D01*
X47432503Y-57550286D01*
X47432501Y-57550282D01*
X47406159Y-57525545D01*
X47381423Y-57502316D01*
X47360269Y-57481163D01*
X47358293Y-57479631D01*
X47354684Y-57476831D01*
X47350251Y-57473044D01*
X47315822Y-57440714D01*
X47315820Y-57440712D01*
X47297932Y-57430878D01*
X47281671Y-57420197D01*
X47265540Y-57407684D01*
X47222194Y-57388927D01*
X47216946Y-57386356D01*
X47189752Y-57371406D01*
X47175561Y-57363605D01*
X47172161Y-57362732D01*
X47155788Y-57358528D01*
X47137382Y-57352226D01*
X47118645Y-57344118D01*
X47118647Y-57344118D01*
X47071997Y-57336730D01*
X47066282Y-57335546D01*
X47046113Y-57330368D01*
X47020533Y-57323800D01*
X47020531Y-57323800D01*
X47000117Y-57323800D01*
X46980718Y-57322273D01*
X46960559Y-57319080D01*
X46960558Y-57319080D01*
X46913535Y-57323525D01*
X46907697Y-57323800D01*
X28813767Y-57323800D01*
X28746728Y-57304115D01*
X28726086Y-57287481D01*
X25314586Y-53875981D01*
X25281101Y-53814658D01*
X25286085Y-53744966D01*
X25327957Y-53689033D01*
X25393421Y-53664616D01*
X25402267Y-53664300D01*
X25501070Y-53664300D01*
X25723136Y-53627244D01*
X25936075Y-53554142D01*
X26134077Y-53446989D01*
X26311741Y-53308706D01*
X26434553Y-53175298D01*
X26464216Y-53143076D01*
X26464218Y-53143073D01*
X26464223Y-53143068D01*
X26554694Y-53004591D01*
X26607837Y-52959237D01*
X26677068Y-52949813D01*
X26740404Y-52979315D01*
X26762308Y-53004593D01*
X26852777Y-53143065D01*
X26852785Y-53143076D01*
X27003821Y-53307142D01*
X27005261Y-53308706D01*
X27182925Y-53446989D01*
X27182926Y-53446989D01*
X27182928Y-53446991D01*
X27242815Y-53479400D01*
X27380927Y-53554142D01*
X27593866Y-53627244D01*
X27815932Y-53664300D01*
X28041070Y-53664300D01*
X28263136Y-53627244D01*
X28476075Y-53554142D01*
X28674077Y-53446989D01*
X28851741Y-53308706D01*
X28974553Y-53175298D01*
X29004216Y-53143076D01*
X29004216Y-53143075D01*
X29004223Y-53143068D01*
X29098250Y-52999147D01*
X29151395Y-52953794D01*
X29220626Y-52944370D01*
X29283962Y-52973872D01*
X29303632Y-52995849D01*
X29353573Y-53067173D01*
X29353574Y-53067173D01*
X29985423Y-52435323D01*
X30009008Y-52515644D01*
X30086740Y-52636598D01*
X30195401Y-52730752D01*
X30326186Y-52790480D01*
X30335967Y-52791886D01*
X29707126Y-53420725D01*
X29790922Y-53479399D01*
X30005008Y-53579229D01*
X30005017Y-53579233D01*
X30233174Y-53640367D01*
X30233185Y-53640369D01*
X30468499Y-53660957D01*
X30468503Y-53660957D01*
X30703816Y-53640369D01*
X30703827Y-53640367D01*
X30931984Y-53579233D01*
X30931993Y-53579229D01*
X31146079Y-53479400D01*
X31146083Y-53479398D01*
X31229874Y-53420726D01*
X31229874Y-53420725D01*
X30601034Y-52791886D01*
X30610816Y-52790480D01*
X30741601Y-52730752D01*
X30850262Y-52636598D01*
X30927994Y-52515644D01*
X30951577Y-52435324D01*
X31583426Y-53067173D01*
X31583427Y-53067173D01*
X31642099Y-52983382D01*
X31642101Y-52983378D01*
X31741930Y-52769292D01*
X31741934Y-52769283D01*
X31803068Y-52541126D01*
X31803070Y-52541115D01*
X31823658Y-52305801D01*
X31823658Y-52305798D01*
X31803070Y-52070484D01*
X31803068Y-52070473D01*
X31741934Y-51842316D01*
X31741930Y-51842307D01*
X31642101Y-51628223D01*
X31642100Y-51628221D01*
X31589643Y-51553305D01*
X50133032Y-51553305D01*
X50152077Y-51807455D01*
X50208403Y-52054237D01*
X50208792Y-52055938D01*
X50301907Y-52293189D01*
X50429341Y-52513913D01*
X50588250Y-52713178D01*
X50775083Y-52886533D01*
X50985666Y-53030106D01*
X50985671Y-53030108D01*
X50985672Y-53030109D01*
X50985673Y-53030110D01*
X51144237Y-53106470D01*
X51215296Y-53140690D01*
X51257457Y-53153695D01*
X51264549Y-53156367D01*
X51299545Y-53172056D01*
X51327489Y-53175297D01*
X51458842Y-53215814D01*
X51458847Y-53215814D01*
X51458848Y-53215815D01*
X51506409Y-53222984D01*
X51513601Y-53224508D01*
X51516281Y-53225243D01*
X51516346Y-53225259D01*
X51550536Y-53234653D01*
X51577547Y-53233706D01*
X51710865Y-53253801D01*
X51710871Y-53253801D01*
X51762992Y-53253801D01*
X51770110Y-53254211D01*
X51807989Y-53258585D01*
X51833490Y-53253801D01*
X51965731Y-53253801D01*
X51965735Y-53253801D01*
X52021335Y-53245420D01*
X52028185Y-53244775D01*
X52033549Y-53244570D01*
X52033550Y-53244569D01*
X52035609Y-53244491D01*
X52035649Y-53244488D01*
X52066091Y-53243320D01*
X52089498Y-53235146D01*
X52217758Y-53215814D01*
X52275469Y-53198012D01*
X52281863Y-53196411D01*
X52289431Y-53194944D01*
X52289438Y-53194941D01*
X52290132Y-53194807D01*
X52290141Y-53194805D01*
X52318845Y-53189238D01*
X52339735Y-53178188D01*
X52461304Y-53140690D01*
X52519479Y-53112674D01*
X52525382Y-53110200D01*
X52534740Y-53106840D01*
X52534747Y-53106836D01*
X52535736Y-53106481D01*
X52535764Y-53106470D01*
X52560460Y-53097600D01*
X52578502Y-53084250D01*
X52690934Y-53030106D01*
X52747809Y-52991329D01*
X52753070Y-52988115D01*
X52763725Y-52982322D01*
X52763731Y-52982317D01*
X52785377Y-52970547D01*
X52800358Y-52955501D01*
X52901517Y-52886533D01*
X52955165Y-52836755D01*
X52959728Y-52832915D01*
X52988457Y-52811016D01*
X53000283Y-52794891D01*
X53088350Y-52713178D01*
X53136745Y-52652492D01*
X53140529Y-52648175D01*
X53151761Y-52636505D01*
X53151764Y-52636500D01*
X53152417Y-52635822D01*
X53152424Y-52635815D01*
X53165052Y-52622693D01*
X53173734Y-52606109D01*
X53247259Y-52513913D01*
X53249136Y-52510663D01*
X53262220Y-52487997D01*
X53288333Y-52442768D01*
X53291293Y-52438132D01*
X53301719Y-52423311D01*
X53301723Y-52423302D01*
X53311113Y-52409953D01*
X53316784Y-52393490D01*
X53374693Y-52293189D01*
X53406403Y-52212391D01*
X53408552Y-52207542D01*
X53417374Y-52189725D01*
X53417375Y-52189721D01*
X53419438Y-52185555D01*
X53420150Y-52184782D01*
X53421600Y-52181186D01*
X53422137Y-52180099D01*
X53423657Y-52169870D01*
X53425386Y-52164406D01*
X53426759Y-52160526D01*
X53467808Y-52055938D01*
X53488187Y-51966647D01*
X53489514Y-51961773D01*
X53495776Y-51941986D01*
X53497019Y-51940137D01*
X53498508Y-51933770D01*
X53498468Y-51925359D01*
X53499928Y-51915902D01*
X53500747Y-51911622D01*
X53524522Y-51807458D01*
X53531736Y-51711190D01*
X53532277Y-51706471D01*
X53535806Y-51683626D01*
X53535806Y-51683624D01*
X53535949Y-51682699D01*
X53535953Y-51682661D01*
X53536957Y-51676157D01*
X53536064Y-51670149D01*
X53536079Y-51669313D01*
X53536461Y-51649359D01*
X53536618Y-51646036D01*
X53543568Y-51553301D01*
X53543423Y-51551372D01*
X53542812Y-51543216D01*
X53536618Y-51460569D01*
X53536461Y-51457239D01*
X53536063Y-51436451D01*
X53537227Y-51432190D01*
X53535994Y-51424206D01*
X53535991Y-51424179D01*
X53535806Y-51422982D01*
X53535806Y-51422976D01*
X53532278Y-51400139D01*
X53531735Y-51395403D01*
X53524522Y-51299144D01*
X53500742Y-51194958D01*
X53499928Y-51190695D01*
X53498466Y-51181235D01*
X53499227Y-51175526D01*
X53498892Y-51174466D01*
X53497306Y-51167690D01*
X53495776Y-51164615D01*
X53495253Y-51162965D01*
X53489508Y-51144810D01*
X53488189Y-51139962D01*
X53467808Y-51050664D01*
X53426762Y-50946083D01*
X53425385Y-50942191D01*
X53423660Y-50936742D01*
X53423505Y-50929262D01*
X53421599Y-50925413D01*
X53420373Y-50922373D01*
X53419439Y-50921047D01*
X53417363Y-50916855D01*
X53408535Y-50899026D01*
X53406407Y-50894219D01*
X53374693Y-50813413D01*
X53316785Y-50713113D01*
X53313673Y-50700284D01*
X53291306Y-50668486D01*
X53288322Y-50663813D01*
X53247259Y-50592689D01*
X53173734Y-50500492D01*
X53168371Y-50487356D01*
X53140540Y-50458438D01*
X53136745Y-50454109D01*
X53088350Y-50393424D01*
X53088347Y-50393421D01*
X53000283Y-50311709D01*
X52992524Y-50298683D01*
X52959727Y-50273684D01*
X52955139Y-50269822D01*
X52901517Y-50220068D01*
X52800358Y-50151099D01*
X52790147Y-50138647D01*
X52753095Y-50118498D01*
X52747785Y-50115256D01*
X52690934Y-50076496D01*
X52690930Y-50076494D01*
X52578501Y-50022351D01*
X52565862Y-50010940D01*
X52537137Y-50000623D01*
X52537128Y-50000619D01*
X52525394Y-49996404D01*
X52519452Y-49993914D01*
X52461306Y-49965913D01*
X52461304Y-49965912D01*
X52410477Y-49950234D01*
X52339734Y-49928412D01*
X52324784Y-49918514D01*
X52281897Y-49910196D01*
X52275422Y-49908575D01*
X52217763Y-49890789D01*
X52217759Y-49890788D01*
X52217758Y-49890788D01*
X52170176Y-49883616D01*
X52089491Y-49871454D01*
X52072424Y-49863519D01*
X52028174Y-49861824D01*
X52021301Y-49861176D01*
X51965740Y-49852801D01*
X51965735Y-49852801D01*
X51833492Y-49852801D01*
X51814608Y-49847256D01*
X51779478Y-49851311D01*
X51779471Y-49851312D01*
X51770119Y-49852392D01*
X51763004Y-49852801D01*
X51710857Y-49852801D01*
X51577533Y-49872897D01*
X51557204Y-49870115D01*
X51517373Y-49881059D01*
X51517338Y-49881068D01*
X51513574Y-49882100D01*
X51506415Y-49883616D01*
X51458839Y-49890788D01*
X51327413Y-49931327D01*
X51306072Y-49931617D01*
X51264547Y-49950234D01*
X51257453Y-49952907D01*
X51215298Y-49965910D01*
X50985670Y-50076493D01*
X50775082Y-50220069D01*
X50588252Y-50393422D01*
X50588250Y-50393424D01*
X50429341Y-50592689D01*
X50301908Y-50813410D01*
X50208792Y-51050663D01*
X50208790Y-51050670D01*
X50152077Y-51299146D01*
X50133032Y-51553296D01*
X50133032Y-51553305D01*
X31589643Y-51553305D01*
X31583426Y-51544426D01*
X31583426Y-51544425D01*
X30951577Y-52176274D01*
X30927994Y-52095956D01*
X30850262Y-51975002D01*
X30741601Y-51880848D01*
X30610816Y-51821120D01*
X30601033Y-51819713D01*
X31229874Y-51190873D01*
X31229874Y-51190872D01*
X31158700Y-51141036D01*
X31115075Y-51086459D01*
X31107881Y-51016961D01*
X31139404Y-50954606D01*
X31170806Y-50930406D01*
X31181575Y-50924578D01*
X31214077Y-50906989D01*
X31391741Y-50768706D01*
X31544223Y-50603068D01*
X31667361Y-50414591D01*
X31757797Y-50208416D01*
X31813065Y-49990168D01*
X31817941Y-49931327D01*
X31831657Y-49765805D01*
X31831657Y-49765794D01*
X31813066Y-49541440D01*
X31813064Y-49541428D01*
X31757797Y-49323185D01*
X31711825Y-49218379D01*
X31667361Y-49117009D01*
X31651207Y-49092284D01*
X31544224Y-48928534D01*
X31544216Y-48928523D01*
X31391744Y-48762897D01*
X31391739Y-48762892D01*
X31214078Y-48624612D01*
X31214073Y-48624608D01*
X31016081Y-48517461D01*
X31016078Y-48517459D01*
X31016075Y-48517458D01*
X31016072Y-48517457D01*
X31016070Y-48517456D01*
X30803138Y-48444356D01*
X30581070Y-48407300D01*
X30355932Y-48407300D01*
X30133863Y-48444356D01*
X29920931Y-48517456D01*
X29920920Y-48517461D01*
X29722928Y-48624608D01*
X29722923Y-48624612D01*
X29545262Y-48762892D01*
X29545257Y-48762897D01*
X29392785Y-48928523D01*
X29392777Y-48928534D01*
X29302309Y-49067006D01*
X29249163Y-49112362D01*
X29179932Y-49121786D01*
X29116596Y-49092284D01*
X29094693Y-49067006D01*
X29004224Y-48928534D01*
X29004216Y-48928523D01*
X28851744Y-48762897D01*
X28851739Y-48762892D01*
X28674078Y-48624612D01*
X28674073Y-48624608D01*
X28476081Y-48517461D01*
X28476078Y-48517459D01*
X28476075Y-48517458D01*
X28476072Y-48517457D01*
X28476070Y-48517456D01*
X28263138Y-48444356D01*
X28041070Y-48407300D01*
X27815932Y-48407300D01*
X27593863Y-48444356D01*
X27380931Y-48517456D01*
X27380920Y-48517461D01*
X27182928Y-48624608D01*
X27182923Y-48624612D01*
X27005262Y-48762892D01*
X27005257Y-48762897D01*
X26852785Y-48928523D01*
X26852777Y-48928534D01*
X26762309Y-49067006D01*
X26709163Y-49112362D01*
X26639932Y-49121786D01*
X26576596Y-49092284D01*
X26554693Y-49067006D01*
X26464224Y-48928534D01*
X26464216Y-48928523D01*
X26311744Y-48762897D01*
X26311739Y-48762892D01*
X26134078Y-48624612D01*
X26134073Y-48624608D01*
X25936081Y-48517461D01*
X25936078Y-48517459D01*
X25936075Y-48517458D01*
X25936072Y-48517457D01*
X25936070Y-48517456D01*
X25723138Y-48444356D01*
X25501070Y-48407300D01*
X25275932Y-48407300D01*
X25053863Y-48444356D01*
X24840931Y-48517456D01*
X24840920Y-48517461D01*
X24642928Y-48624608D01*
X24642923Y-48624612D01*
X24465262Y-48762892D01*
X24465257Y-48762897D01*
X24312785Y-48928523D01*
X24312777Y-48928534D01*
X24222309Y-49067006D01*
X24169163Y-49112362D01*
X24099932Y-49121786D01*
X24036596Y-49092284D01*
X24014693Y-49067006D01*
X23924224Y-48928534D01*
X23924216Y-48928523D01*
X23771744Y-48762897D01*
X23771739Y-48762892D01*
X23594078Y-48624612D01*
X23594073Y-48624608D01*
X23396081Y-48517461D01*
X23396078Y-48517459D01*
X23396075Y-48517458D01*
X23396072Y-48517457D01*
X23396070Y-48517456D01*
X23183138Y-48444356D01*
X22961070Y-48407300D01*
X22735932Y-48407300D01*
X22513863Y-48444356D01*
X22300931Y-48517456D01*
X22300920Y-48517461D01*
X22102928Y-48624608D01*
X22102923Y-48624612D01*
X21925262Y-48762892D01*
X21925257Y-48762897D01*
X21772785Y-48928523D01*
X21772777Y-48928534D01*
X21682309Y-49067006D01*
X21629163Y-49112362D01*
X21559932Y-49121786D01*
X21496596Y-49092284D01*
X21474693Y-49067006D01*
X21384224Y-48928534D01*
X21384216Y-48928523D01*
X21231744Y-48762897D01*
X21231739Y-48762892D01*
X21054078Y-48624612D01*
X21054073Y-48624608D01*
X20856081Y-48517461D01*
X20856078Y-48517459D01*
X20856075Y-48517458D01*
X20856072Y-48517457D01*
X20856070Y-48517456D01*
X20643138Y-48444356D01*
X20421070Y-48407300D01*
X20195932Y-48407300D01*
X20195931Y-48407300D01*
X20130314Y-48418248D01*
X20060949Y-48409865D01*
X20022226Y-48383620D01*
X19047088Y-47408482D01*
X19037187Y-47396122D01*
X19036977Y-47396297D01*
X19032002Y-47390285D01*
X19032000Y-47390281D01*
X19005657Y-47365544D01*
X18980921Y-47342314D01*
X18959768Y-47321162D01*
X18957792Y-47319630D01*
X18954183Y-47316830D01*
X18949750Y-47313043D01*
X18915321Y-47280713D01*
X18915319Y-47280711D01*
X18897431Y-47270877D01*
X18881170Y-47260196D01*
X18865039Y-47247683D01*
X18821693Y-47228926D01*
X18816445Y-47226355D01*
X18789022Y-47211280D01*
X18775060Y-47203604D01*
X18771660Y-47202731D01*
X18755287Y-47198527D01*
X18736881Y-47192225D01*
X18718144Y-47184117D01*
X18718146Y-47184117D01*
X18671496Y-47176729D01*
X18665781Y-47175545D01*
X18645612Y-47170367D01*
X18620032Y-47163799D01*
X18620030Y-47163799D01*
X18599615Y-47163799D01*
X18580218Y-47162272D01*
X18560057Y-47159079D01*
X18513032Y-47163524D01*
X18507196Y-47163799D01*
X95927Y-47163799D01*
X80181Y-47162061D01*
X80156Y-47162331D01*
X72395Y-47161597D01*
X2341Y-47163799D01*
X-27552Y-47163799D01*
X-27561Y-47163800D01*
X-34557Y-47164684D01*
X-40380Y-47165142D01*
X-87589Y-47166626D01*
X-107194Y-47172322D01*
X-126241Y-47176266D01*
X-146497Y-47178826D01*
X-146500Y-47178827D01*
X-146504Y-47178828D01*
X-190412Y-47196213D01*
X-195941Y-47198106D01*
X-241288Y-47211280D01*
X-241296Y-47211283D01*
X-258862Y-47221672D01*
X-276335Y-47230232D01*
X-295317Y-47237747D01*
X-333527Y-47265509D01*
X-338412Y-47268718D01*
X-358691Y-47280711D01*
X-379062Y-47292758D01*
X-379066Y-47292762D01*
X-393493Y-47307189D01*
X-408288Y-47319826D01*
X-424807Y-47331828D01*
X-454922Y-47368231D01*
X-458835Y-47372531D01*
X-3750116Y-50663813D01*
X-6931266Y-53844963D01*
X-6992589Y-53878448D01*
X-7051038Y-53877057D01*
X-7115601Y-53859758D01*
X-7115618Y-53859755D01*
X-7343698Y-53839801D01*
X-7343702Y-53839801D01*
X-7571781Y-53859755D01*
X-7571789Y-53859756D01*
X-7792938Y-53919013D01*
X-7792949Y-53919017D01*
X-8000445Y-54015774D01*
X-8000449Y-54015776D01*
X-8188000Y-54147101D01*
X-8349898Y-54308999D01*
X-8355268Y-54316669D01*
X-8409844Y-54360292D01*
X-8479342Y-54367484D01*
X-8541697Y-54335962D01*
X-8577110Y-54275732D01*
X-8580130Y-54258800D01*
X-8581711Y-54244096D01*
X-8581711Y-54244094D01*
X-8632811Y-54107094D01*
X-8720439Y-53990038D01*
X-8837495Y-53902410D01*
X-8974496Y-53851310D01*
X-9035045Y-53844799D01*
X-9035062Y-53844799D01*
X-10732338Y-53844799D01*
X-10732354Y-53844799D01*
X-10792902Y-53851310D01*
X-10792904Y-53851310D01*
X-10911611Y-53895587D01*
X-10929904Y-53902410D01*
X-11046961Y-53990038D01*
X-11134589Y-54107095D01*
X-11185689Y-54244098D01*
X-11188857Y-54273569D01*
X-11192199Y-54304644D01*
X-11192200Y-54304661D01*
X-11192200Y-56001936D01*
X-22329200Y-56001936D01*
X-22329200Y-53893300D01*
X-18762209Y-53893300D01*
X-18741799Y-54178661D01*
X-18680990Y-54458194D01*
X-18581008Y-54726257D01*
X-18443903Y-54977346D01*
X-18337216Y-55119860D01*
X-18337215Y-55119861D01*
X-17441904Y-54224549D01*
X-17419760Y-54275886D01*
X-17313667Y-54418393D01*
X-17177570Y-54532593D01*
X-17087883Y-54577634D01*
X-17983662Y-55473414D01*
X-17983661Y-55473415D01*
X-17841147Y-55580102D01*
X-17590057Y-55717207D01*
X-17590058Y-55717207D01*
X-17321995Y-55817189D01*
X-17042462Y-55877998D01*
X-16757101Y-55898408D01*
X-16757099Y-55898408D01*
X-16471737Y-55877998D01*
X-16192204Y-55817189D01*
X-15924141Y-55717207D01*
X-15673061Y-55580107D01*
X-15673060Y-55580106D01*
X-15530536Y-55473414D01*
X-16423352Y-54580599D01*
X-16413691Y-54577083D01*
X-16265256Y-54479456D01*
X-16143336Y-54350229D01*
X-16071331Y-54225512D01*
X-15176983Y-55119861D01*
X-15176982Y-55119860D01*
X-15070296Y-54977345D01*
X-15070291Y-54977337D01*
X-14933191Y-54726257D01*
X-14833209Y-54458194D01*
X-14772400Y-54178661D01*
X-14751991Y-53893300D01*
X-14751991Y-53893297D01*
X-14772400Y-53607936D01*
X-14833209Y-53328403D01*
X-14933191Y-53060340D01*
X-15070291Y-52809260D01*
X-15070296Y-52809252D01*
X-15176982Y-52666735D01*
X-15176983Y-52666735D01*
X-16072296Y-53562047D01*
X-16094440Y-53510712D01*
X-16200533Y-53368205D01*
X-16336630Y-53254005D01*
X-16426317Y-53208962D01*
X-15530536Y-52313182D01*
X-15530537Y-52313181D01*
X-15673053Y-52206495D01*
X-15673061Y-52206490D01*
X-15924142Y-52069390D01*
X-15924141Y-52069390D01*
X-16192204Y-51969408D01*
X-16471737Y-51908599D01*
X-16757099Y-51888190D01*
X-16757101Y-51888190D01*
X-17042462Y-51908599D01*
X-17321995Y-51969408D01*
X-17590058Y-52069390D01*
X-17841138Y-52206490D01*
X-17841146Y-52206495D01*
X-17983661Y-52313181D01*
X-17983662Y-52313182D01*
X-17090847Y-53205998D01*
X-17100509Y-53209515D01*
X-17248944Y-53307142D01*
X-17370864Y-53436369D01*
X-17442867Y-53561082D01*
X-18337215Y-52666735D01*
X-18443907Y-52809259D01*
X-18443908Y-52809260D01*
X-18581008Y-53060340D01*
X-18680990Y-53328403D01*
X-18741799Y-53607936D01*
X-18762209Y-53893297D01*
X-18762209Y-53893300D01*
X-22329200Y-53893300D01*
X-22329200Y-50361936D01*
X-18765600Y-50361936D01*
X-18765599Y-50361953D01*
X-18762691Y-50388991D01*
X-18759089Y-50422500D01*
X-18707989Y-50559503D01*
X-18620361Y-50676560D01*
X-18503304Y-50764188D01*
X-18366301Y-50815288D01*
X-18334723Y-50818682D01*
X-18305754Y-50821798D01*
X-18305738Y-50821799D01*
X-15208462Y-50821799D01*
X-15208445Y-50821798D01*
X-15177370Y-50818456D01*
X-15147899Y-50815288D01*
X-15147896Y-50815287D01*
X-15147895Y-50815287D01*
X-15087664Y-50792821D01*
X-15010896Y-50764188D01*
X-14893839Y-50676560D01*
X-14806211Y-50559503D01*
X-14806211Y-50559502D01*
X-14755111Y-50422503D01*
X-14755111Y-50422501D01*
X-14748600Y-50361953D01*
X-14748600Y-47533299D01*
X-11197198Y-47533299D01*
X-11177243Y-47761386D01*
X-11117984Y-47982542D01*
X-11021223Y-48190048D01*
X-10889898Y-48377599D01*
X-10728000Y-48539497D01*
X-10540449Y-48670822D01*
X-10332943Y-48767583D01*
X-10111787Y-48826842D01*
X-9940721Y-48841808D01*
X-9883702Y-48846797D01*
X-9883700Y-48846797D01*
X-9883698Y-48846797D01*
X-9818532Y-48841095D01*
X-9655613Y-48826842D01*
X-9434457Y-48767583D01*
X-9434452Y-48767580D01*
X-9434450Y-48767580D01*
X-9351791Y-48729035D01*
X-9226951Y-48670822D01*
X-9039400Y-48539497D01*
X-8877502Y-48377599D01*
X-8746177Y-48190048D01*
X-8726082Y-48146954D01*
X-8679910Y-48094514D01*
X-8612717Y-48075362D01*
X-8545836Y-48095577D01*
X-8501317Y-48146954D01*
X-8481223Y-48190048D01*
X-8349898Y-48377599D01*
X-8188000Y-48539497D01*
X-8000449Y-48670822D01*
X-7792943Y-48767583D01*
X-7571787Y-48826842D01*
X-7400721Y-48841808D01*
X-7343702Y-48846797D01*
X-7343700Y-48846797D01*
X-7343698Y-48846797D01*
X-7278532Y-48841095D01*
X-7115613Y-48826842D01*
X-6894457Y-48767583D01*
X-6894452Y-48767580D01*
X-6894450Y-48767580D01*
X-6811791Y-48729035D01*
X-6686951Y-48670822D01*
X-6499400Y-48539497D01*
X-6337502Y-48377599D01*
X-6206177Y-48190048D01*
X-6186082Y-48146954D01*
X-6109418Y-47982548D01*
X-6109414Y-47982537D01*
X-6050157Y-47761388D01*
X-6050156Y-47761380D01*
X-6031077Y-47543300D01*
X-5355198Y-47543300D01*
X-5335243Y-47771387D01*
X-5275984Y-47992543D01*
X-5179223Y-48200049D01*
X-5047898Y-48387600D01*
X-4886000Y-48549498D01*
X-4698449Y-48680823D01*
X-4490943Y-48777584D01*
X-4269787Y-48836843D01*
X-4098721Y-48851809D01*
X-4041702Y-48856798D01*
X-4041700Y-48856798D01*
X-4041698Y-48856798D01*
X-3976532Y-48851096D01*
X-3813613Y-48836843D01*
X-3592457Y-48777584D01*
X-3592452Y-48777581D01*
X-3592450Y-48777581D01*
X-3509791Y-48739036D01*
X-3384951Y-48680823D01*
X-3197400Y-48549498D01*
X-3035502Y-48387600D01*
X-2904177Y-48200049D01*
X-2899513Y-48190048D01*
X-2807418Y-47992549D01*
X-2807414Y-47992538D01*
X-2748157Y-47771389D01*
X-2748156Y-47771381D01*
X-2728202Y-47543301D01*
X-2728202Y-47543298D01*
X-2748156Y-47315218D01*
X-2748157Y-47315210D01*
X-2807414Y-47094061D01*
X-2807418Y-47094050D01*
X-2904175Y-46886554D01*
X-2904176Y-46886552D01*
X-3035506Y-46698995D01*
X-3197395Y-46537106D01*
X-3197398Y-46537103D01*
X-3197400Y-46537102D01*
X-3384951Y-46405777D01*
X-3384949Y-46405777D01*
X-3384952Y-46405776D01*
X-3384954Y-46405775D01*
X-3592450Y-46309018D01*
X-3592461Y-46309014D01*
X-3813610Y-46249757D01*
X-3813618Y-46249756D01*
X-4041698Y-46229802D01*
X-4041702Y-46229802D01*
X-4269781Y-46249756D01*
X-4269789Y-46249757D01*
X-4490938Y-46309014D01*
X-4490949Y-46309018D01*
X-4677000Y-46395775D01*
X-4698449Y-46405777D01*
X-4886000Y-46537102D01*
X-5047898Y-46699000D01*
X-5179223Y-46886551D01*
X-5179223Y-46886552D01*
X-5179224Y-46886554D01*
X-5271322Y-47084060D01*
X-5275984Y-47094057D01*
X-5335243Y-47315213D01*
X-5355198Y-47543300D01*
X-6031077Y-47543300D01*
X-6030202Y-47533300D01*
X-6030202Y-47533297D01*
X-6050156Y-47305217D01*
X-6050157Y-47305209D01*
X-6109414Y-47084060D01*
X-6109418Y-47084049D01*
X-6206175Y-46876553D01*
X-6206176Y-46876551D01*
X-6256418Y-46804799D01*
X-6337502Y-46688999D01*
X-6337503Y-46688997D01*
X-6337506Y-46688994D01*
X-6499395Y-46527105D01*
X-6499398Y-46527102D01*
X-6499400Y-46527101D01*
X-6672668Y-46405777D01*
X-6686952Y-46395775D01*
X-6686954Y-46395774D01*
X-6894450Y-46299017D01*
X-6894461Y-46299013D01*
X-7115610Y-46239756D01*
X-7115618Y-46239755D01*
X-7343698Y-46219801D01*
X-7343702Y-46219801D01*
X-7571781Y-46239755D01*
X-7571789Y-46239756D01*
X-7792938Y-46299013D01*
X-7792949Y-46299017D01*
X-8000445Y-46395774D01*
X-8000449Y-46395776D01*
X-8188000Y-46527101D01*
X-8349898Y-46688999D01*
X-8430982Y-46804799D01*
X-8481223Y-46876550D01*
X-8501318Y-46919644D01*
X-8547491Y-46972083D01*
X-8614684Y-46991235D01*
X-8681565Y-46971019D01*
X-8726082Y-46919644D01*
X-8746176Y-46876550D01*
X-8833790Y-46751425D01*
X-8877502Y-46688999D01*
X-8877503Y-46688997D01*
X-8877506Y-46688994D01*
X-9039395Y-46527105D01*
X-9039398Y-46527102D01*
X-9039400Y-46527101D01*
X-9212668Y-46405777D01*
X-9226952Y-46395775D01*
X-9226954Y-46395774D01*
X-9434450Y-46299017D01*
X-9434461Y-46299013D01*
X-9655610Y-46239756D01*
X-9655618Y-46239755D01*
X-9883698Y-46219801D01*
X-9883702Y-46219801D01*
X-10111781Y-46239755D01*
X-10111789Y-46239756D01*
X-10332938Y-46299013D01*
X-10332949Y-46299017D01*
X-10540445Y-46395774D01*
X-10540449Y-46395776D01*
X-10728000Y-46527101D01*
X-10889898Y-46688999D01*
X-11021223Y-46876550D01*
X-11117984Y-47084056D01*
X-11177243Y-47305212D01*
X-11197198Y-47533299D01*
X-14748600Y-47533299D01*
X-14748600Y-47264644D01*
X-14755111Y-47204096D01*
X-14755111Y-47204094D01*
X-14806211Y-47067094D01*
X-14893839Y-46950038D01*
X-15010895Y-46862410D01*
X-15147896Y-46811310D01*
X-15208445Y-46804799D01*
X-15208462Y-46804799D01*
X-18305738Y-46804799D01*
X-18305754Y-46804799D01*
X-18366302Y-46811310D01*
X-18366304Y-46811310D01*
X-18503303Y-46862409D01*
X-18503304Y-46862410D01*
X-18620361Y-46950038D01*
X-18707989Y-47067095D01*
X-18736622Y-47143863D01*
X-18758905Y-47203605D01*
X-18759089Y-47204098D01*
X-18759861Y-47211280D01*
X-18765599Y-47264644D01*
X-18765600Y-47264661D01*
X-18765600Y-50361936D01*
X-22329200Y-50361936D01*
X-22329200Y-43439936D01*
X-20055600Y-43439936D01*
X-20055599Y-43439953D01*
X-20052691Y-43466991D01*
X-20049089Y-43500500D01*
X-19997989Y-43637503D01*
X-19910361Y-43754560D01*
X-19793304Y-43842188D01*
X-19656301Y-43893288D01*
X-19624723Y-43896682D01*
X-19595754Y-43899798D01*
X-19595738Y-43899799D01*
X-16498462Y-43899799D01*
X-16498445Y-43899798D01*
X-16467370Y-43896456D01*
X-16437899Y-43893288D01*
X-16437896Y-43893287D01*
X-16437895Y-43893287D01*
X-16377664Y-43870821D01*
X-16300896Y-43842188D01*
X-16183839Y-43754560D01*
X-16096211Y-43637503D01*
X-16045111Y-43500503D01*
X-16045111Y-43500501D01*
X-16038600Y-43439953D01*
X-16038600Y-41891299D01*
X-14980293Y-41891299D01*
X-14961542Y-42165429D01*
X-14935774Y-42289430D01*
X-14905641Y-42434440D01*
X-14905639Y-42434445D01*
X-14905638Y-42434452D01*
X-14813623Y-42693357D01*
X-14687211Y-42937322D01*
X-14528757Y-43161801D01*
X-14341211Y-43362613D01*
X-14128069Y-43536017D01*
X-13893300Y-43678783D01*
X-13641277Y-43788252D01*
X-13376696Y-43862384D01*
X-13151855Y-43893288D01*
X-13104486Y-43899799D01*
X-13104485Y-43899799D01*
X-12829714Y-43899799D01*
X-12782345Y-43893288D01*
X-12557504Y-43862384D01*
X-12292923Y-43788252D01*
X-12215354Y-43754559D01*
X-12040901Y-43678784D01*
X-11852043Y-43563937D01*
X-4299800Y-43563937D01*
X-4299799Y-43563954D01*
X-4296891Y-43590992D01*
X-4293289Y-43624501D01*
X-4242189Y-43761504D01*
X-4154561Y-43878561D01*
X-4037504Y-43966189D01*
X-3900501Y-44017289D01*
X-3868923Y-44020683D01*
X-3839954Y-44023799D01*
X-3839938Y-44023800D01*
X-742662Y-44023800D01*
X-742645Y-44023799D01*
X-711570Y-44020457D01*
X-682099Y-44017289D01*
X-682096Y-44017288D01*
X-682095Y-44017288D01*
X-621864Y-43994822D01*
X-545096Y-43966189D01*
X-428039Y-43878561D01*
X-340411Y-43761504D01*
X-337821Y-43754559D01*
X-289311Y-43624504D01*
X-289311Y-43624502D01*
X-282800Y-43563954D01*
X-282800Y-42015299D01*
X775507Y-42015299D01*
X794257Y-42289430D01*
X794258Y-42289432D01*
X850158Y-42558441D01*
X850163Y-42558458D01*
X942176Y-42817356D01*
X1068589Y-43061324D01*
X1068593Y-43061330D01*
X1227040Y-43285799D01*
X1227043Y-43285802D01*
X1414589Y-43486614D01*
X1627731Y-43660018D01*
X1627733Y-43660019D01*
X1627734Y-43660020D01*
X1862501Y-43802785D01*
X1999713Y-43862384D01*
X2114523Y-43912253D01*
X2379104Y-43986385D01*
X2603945Y-44017289D01*
X2651314Y-44023800D01*
X2651315Y-44023800D01*
X2926086Y-44023800D01*
X2973455Y-44017289D01*
X3198296Y-43986385D01*
X3462877Y-43912253D01*
X3714900Y-43802784D01*
X3949669Y-43660018D01*
X4162811Y-43486614D01*
X4350357Y-43285802D01*
X4508811Y-43061323D01*
X4635223Y-42817358D01*
X4727238Y-42558453D01*
X4727239Y-42558446D01*
X4727241Y-42558441D01*
X4753191Y-42433559D01*
X4783142Y-42289430D01*
X4801893Y-42015300D01*
X4801893Y-42015299D01*
X5855507Y-42015299D01*
X5874257Y-42289430D01*
X5874258Y-42289432D01*
X5930158Y-42558441D01*
X5930163Y-42558458D01*
X6022176Y-42817356D01*
X6148589Y-43061324D01*
X6148593Y-43061330D01*
X6307040Y-43285799D01*
X6307043Y-43285802D01*
X6494589Y-43486614D01*
X6707731Y-43660018D01*
X6707733Y-43660019D01*
X6707734Y-43660020D01*
X6942501Y-43802785D01*
X7079713Y-43862384D01*
X7194523Y-43912253D01*
X7459104Y-43986385D01*
X7683945Y-44017289D01*
X7731314Y-44023800D01*
X7731315Y-44023800D01*
X8006086Y-44023800D01*
X8053455Y-44017289D01*
X8278296Y-43986385D01*
X8542877Y-43912253D01*
X8794900Y-43802784D01*
X9029669Y-43660018D01*
X9147747Y-43563954D01*
X11369801Y-43563954D01*
X11376312Y-43624502D01*
X11376312Y-43624504D01*
X11424822Y-43754559D01*
X11427412Y-43761504D01*
X11515040Y-43878561D01*
X11632097Y-43966189D01*
X11769100Y-44017289D01*
X11796351Y-44020218D01*
X11829646Y-44023799D01*
X11829663Y-44023800D01*
X14926939Y-44023800D01*
X14926955Y-44023799D01*
X14953993Y-44020891D01*
X14987502Y-44017289D01*
X15124505Y-43966189D01*
X15241562Y-43878561D01*
X15329190Y-43761504D01*
X15380290Y-43624501D01*
X15383892Y-43590992D01*
X15386800Y-43563954D01*
X15386801Y-43563937D01*
X15386801Y-42015299D01*
X16445108Y-42015299D01*
X16463858Y-42289430D01*
X16463859Y-42289432D01*
X16519759Y-42558441D01*
X16519764Y-42558458D01*
X16611777Y-42817356D01*
X16738190Y-43061324D01*
X16738194Y-43061330D01*
X16896641Y-43285799D01*
X16896644Y-43285802D01*
X17084190Y-43486614D01*
X17297332Y-43660018D01*
X17297334Y-43660019D01*
X17297335Y-43660020D01*
X17532102Y-43802785D01*
X17669314Y-43862384D01*
X17784124Y-43912253D01*
X18048705Y-43986385D01*
X18273546Y-44017289D01*
X18320915Y-44023800D01*
X18320916Y-44023800D01*
X18595687Y-44023800D01*
X18643056Y-44017289D01*
X18867897Y-43986385D01*
X19132478Y-43912253D01*
X19384501Y-43802784D01*
X19619270Y-43660018D01*
X19832412Y-43486614D01*
X20019958Y-43285802D01*
X20178412Y-43061323D01*
X20304824Y-42817358D01*
X20396839Y-42558453D01*
X20396840Y-42558446D01*
X20396842Y-42558441D01*
X20422792Y-42433559D01*
X20452743Y-42289430D01*
X20471494Y-42015300D01*
X20471494Y-42015299D01*
X21525108Y-42015299D01*
X21543858Y-42289430D01*
X21543859Y-42289432D01*
X21599759Y-42558441D01*
X21599764Y-42558458D01*
X21691777Y-42817356D01*
X21818190Y-43061324D01*
X21818194Y-43061330D01*
X21976641Y-43285799D01*
X21976644Y-43285802D01*
X22164190Y-43486614D01*
X22377332Y-43660018D01*
X22377334Y-43660019D01*
X22377335Y-43660020D01*
X22612102Y-43802785D01*
X22749314Y-43862384D01*
X22864124Y-43912253D01*
X23128705Y-43986385D01*
X23353546Y-44017289D01*
X23400915Y-44023800D01*
X23400916Y-44023800D01*
X23675687Y-44023800D01*
X23723056Y-44017289D01*
X23947897Y-43986385D01*
X24212478Y-43912253D01*
X24464501Y-43802784D01*
X24699270Y-43660018D01*
X24817348Y-43563954D01*
X27041600Y-43563954D01*
X27048111Y-43624502D01*
X27048111Y-43624504D01*
X27096621Y-43754559D01*
X27099211Y-43761504D01*
X27186839Y-43878561D01*
X27303896Y-43966189D01*
X27440899Y-44017289D01*
X27468150Y-44020218D01*
X27501445Y-44023799D01*
X27501462Y-44023800D01*
X30598738Y-44023800D01*
X30598754Y-44023799D01*
X30625792Y-44020891D01*
X30659301Y-44017289D01*
X30796304Y-43966189D01*
X30913361Y-43878561D01*
X31000989Y-43761504D01*
X31052089Y-43624501D01*
X31055691Y-43590992D01*
X31058599Y-43563954D01*
X31058600Y-43563937D01*
X31058600Y-42015300D01*
X32116907Y-42015300D01*
X32135657Y-42289430D01*
X32135658Y-42289432D01*
X32191558Y-42558441D01*
X32191563Y-42558458D01*
X32283576Y-42817356D01*
X32409989Y-43061324D01*
X32409993Y-43061330D01*
X32568440Y-43285799D01*
X32568443Y-43285802D01*
X32755989Y-43486614D01*
X32969131Y-43660018D01*
X32969133Y-43660019D01*
X32969134Y-43660020D01*
X33203901Y-43802785D01*
X33341113Y-43862384D01*
X33455923Y-43912253D01*
X33720504Y-43986385D01*
X33945345Y-44017289D01*
X33992714Y-44023800D01*
X33992715Y-44023800D01*
X34267486Y-44023800D01*
X34314855Y-44017289D01*
X34539696Y-43986385D01*
X34804277Y-43912253D01*
X35056300Y-43802784D01*
X35291069Y-43660018D01*
X35504211Y-43486614D01*
X35691757Y-43285802D01*
X35850211Y-43061323D01*
X35976623Y-42817358D01*
X36068638Y-42558453D01*
X36068639Y-42558446D01*
X36068641Y-42558441D01*
X36094591Y-42433559D01*
X36124542Y-42289430D01*
X36143293Y-42015300D01*
X37196907Y-42015300D01*
X37215657Y-42289430D01*
X37215658Y-42289432D01*
X37271558Y-42558441D01*
X37271563Y-42558458D01*
X37363576Y-42817356D01*
X37489989Y-43061324D01*
X37489993Y-43061330D01*
X37648440Y-43285799D01*
X37648443Y-43285802D01*
X37835989Y-43486614D01*
X38049131Y-43660018D01*
X38049133Y-43660019D01*
X38049134Y-43660020D01*
X38283901Y-43802785D01*
X38421113Y-43862384D01*
X38535923Y-43912253D01*
X38800504Y-43986385D01*
X39025345Y-44017289D01*
X39072714Y-44023800D01*
X39072715Y-44023800D01*
X39347486Y-44023800D01*
X39394855Y-44017289D01*
X39619696Y-43986385D01*
X39884277Y-43912253D01*
X40136300Y-43802784D01*
X40371069Y-43660018D01*
X40489147Y-43563954D01*
X42717800Y-43563954D01*
X42724311Y-43624502D01*
X42724311Y-43624504D01*
X42772821Y-43754559D01*
X42775411Y-43761504D01*
X42863039Y-43878561D01*
X42980096Y-43966189D01*
X43117099Y-44017289D01*
X43144350Y-44020218D01*
X43177645Y-44023799D01*
X43177662Y-44023800D01*
X46274938Y-44023800D01*
X46274954Y-44023799D01*
X46301992Y-44020891D01*
X46335501Y-44017289D01*
X46472504Y-43966189D01*
X46589561Y-43878561D01*
X46677189Y-43761504D01*
X46728289Y-43624501D01*
X46731891Y-43590992D01*
X46734799Y-43563954D01*
X46734800Y-43563937D01*
X46734800Y-42015300D01*
X47793107Y-42015300D01*
X47811857Y-42289430D01*
X47811858Y-42289432D01*
X47867758Y-42558441D01*
X47867763Y-42558458D01*
X47959776Y-42817356D01*
X48086189Y-43061324D01*
X48086193Y-43061330D01*
X48244640Y-43285799D01*
X48244643Y-43285802D01*
X48432189Y-43486614D01*
X48645331Y-43660018D01*
X48645333Y-43660019D01*
X48645334Y-43660020D01*
X48880101Y-43802785D01*
X49017313Y-43862384D01*
X49132123Y-43912253D01*
X49396704Y-43986385D01*
X49621545Y-44017289D01*
X49668914Y-44023800D01*
X49668915Y-44023800D01*
X49943686Y-44023800D01*
X49991055Y-44017289D01*
X50215896Y-43986385D01*
X50480477Y-43912253D01*
X50732500Y-43802784D01*
X50967269Y-43660018D01*
X51180411Y-43486614D01*
X51367957Y-43285802D01*
X51526411Y-43061323D01*
X51652823Y-42817358D01*
X51744838Y-42558453D01*
X51744839Y-42558446D01*
X51744841Y-42558441D01*
X51770791Y-42433559D01*
X51800742Y-42289430D01*
X51819493Y-42015300D01*
X52873107Y-42015300D01*
X52891857Y-42289430D01*
X52891858Y-42289432D01*
X52947758Y-42558441D01*
X52947763Y-42558458D01*
X53039776Y-42817356D01*
X53166189Y-43061324D01*
X53166193Y-43061330D01*
X53324640Y-43285799D01*
X53324643Y-43285802D01*
X53512189Y-43486614D01*
X53725331Y-43660018D01*
X53725333Y-43660019D01*
X53725334Y-43660020D01*
X53960101Y-43802785D01*
X54097313Y-43862384D01*
X54212123Y-43912253D01*
X54476704Y-43986385D01*
X54701545Y-44017289D01*
X54748914Y-44023800D01*
X54748915Y-44023800D01*
X55023686Y-44023800D01*
X55071055Y-44017289D01*
X55295896Y-43986385D01*
X55560477Y-43912253D01*
X55812500Y-43802784D01*
X56047269Y-43660018D01*
X56260411Y-43486614D01*
X56447957Y-43285802D01*
X56606411Y-43061323D01*
X56732823Y-42817358D01*
X56824838Y-42558453D01*
X56824839Y-42558446D01*
X56824841Y-42558441D01*
X56850791Y-42433559D01*
X56880742Y-42289430D01*
X56899493Y-42015300D01*
X56880742Y-41741170D01*
X56854974Y-41617168D01*
X56824841Y-41472158D01*
X56824836Y-41472141D01*
X56732823Y-41213243D01*
X56732823Y-41213242D01*
X56606411Y-40969277D01*
X56606410Y-40969275D01*
X56606406Y-40969269D01*
X56447959Y-40744800D01*
X56429331Y-40724855D01*
X56260411Y-40543986D01*
X56047269Y-40370582D01*
X56047267Y-40370581D01*
X56047265Y-40370579D01*
X55812498Y-40227814D01*
X55560478Y-40118347D01*
X55295902Y-40044216D01*
X55295897Y-40044215D01*
X55295896Y-40044215D01*
X55159790Y-40025507D01*
X55023686Y-40006800D01*
X55023685Y-40006800D01*
X54748915Y-40006800D01*
X54748914Y-40006800D01*
X54476704Y-40044215D01*
X54476697Y-40044216D01*
X54212121Y-40118347D01*
X53960101Y-40227814D01*
X53725334Y-40370579D01*
X53512192Y-40543983D01*
X53324640Y-40744800D01*
X53166193Y-40969269D01*
X53166189Y-40969275D01*
X53039776Y-41213243D01*
X52947763Y-41472141D01*
X52947758Y-41472158D01*
X52891858Y-41741167D01*
X52891857Y-41741169D01*
X52873107Y-42015300D01*
X51819493Y-42015300D01*
X51800742Y-41741170D01*
X51774974Y-41617168D01*
X51744841Y-41472158D01*
X51744836Y-41472141D01*
X51652823Y-41213243D01*
X51652823Y-41213242D01*
X51526411Y-40969277D01*
X51526410Y-40969275D01*
X51526406Y-40969269D01*
X51367959Y-40744800D01*
X51349331Y-40724855D01*
X51180411Y-40543986D01*
X50967269Y-40370582D01*
X50967267Y-40370581D01*
X50967265Y-40370579D01*
X50732498Y-40227814D01*
X50480478Y-40118347D01*
X50215902Y-40044216D01*
X50215897Y-40044215D01*
X50215896Y-40044215D01*
X50079790Y-40025507D01*
X49943686Y-40006800D01*
X49943685Y-40006800D01*
X49668915Y-40006800D01*
X49668914Y-40006800D01*
X49396704Y-40044215D01*
X49396697Y-40044216D01*
X49132121Y-40118347D01*
X48880101Y-40227814D01*
X48645334Y-40370579D01*
X48432192Y-40543983D01*
X48244640Y-40744800D01*
X48086193Y-40969269D01*
X48086189Y-40969275D01*
X47959776Y-41213243D01*
X47867763Y-41472141D01*
X47867758Y-41472158D01*
X47811858Y-41741167D01*
X47811857Y-41741169D01*
X47793107Y-42015300D01*
X46734800Y-42015300D01*
X46734800Y-40466662D01*
X46734799Y-40466645D01*
X46731457Y-40435570D01*
X46728289Y-40406099D01*
X46677189Y-40269096D01*
X46589561Y-40152039D01*
X46472504Y-40064411D01*
X46418360Y-40044216D01*
X46335503Y-40013311D01*
X46274954Y-40006800D01*
X46274938Y-40006800D01*
X43177662Y-40006800D01*
X43177645Y-40006800D01*
X43117097Y-40013311D01*
X43117095Y-40013311D01*
X42980095Y-40064411D01*
X42863039Y-40152039D01*
X42775411Y-40269095D01*
X42724311Y-40406095D01*
X42724311Y-40406097D01*
X42717800Y-40466645D01*
X42717800Y-43563954D01*
X40489147Y-43563954D01*
X40584211Y-43486614D01*
X40771757Y-43285802D01*
X40930211Y-43061323D01*
X41056623Y-42817358D01*
X41148638Y-42558453D01*
X41148639Y-42558446D01*
X41148641Y-42558441D01*
X41174591Y-42433559D01*
X41204542Y-42289430D01*
X41223293Y-42015300D01*
X41204542Y-41741170D01*
X41178774Y-41617168D01*
X41148641Y-41472158D01*
X41148636Y-41472141D01*
X41056623Y-41213243D01*
X41056623Y-41213242D01*
X40930211Y-40969277D01*
X40930210Y-40969275D01*
X40930206Y-40969269D01*
X40771759Y-40744800D01*
X40753131Y-40724855D01*
X40584211Y-40543986D01*
X40371069Y-40370582D01*
X40371067Y-40370581D01*
X40371065Y-40370579D01*
X40136298Y-40227814D01*
X39884278Y-40118347D01*
X39619702Y-40044216D01*
X39619697Y-40044215D01*
X39619696Y-40044215D01*
X39483590Y-40025507D01*
X39347486Y-40006800D01*
X39347485Y-40006800D01*
X39072715Y-40006800D01*
X39072714Y-40006800D01*
X38800504Y-40044215D01*
X38800497Y-40044216D01*
X38535921Y-40118347D01*
X38283901Y-40227814D01*
X38049134Y-40370579D01*
X37835992Y-40543983D01*
X37648440Y-40744800D01*
X37489993Y-40969269D01*
X37489989Y-40969275D01*
X37363576Y-41213243D01*
X37271563Y-41472141D01*
X37271558Y-41472158D01*
X37215658Y-41741167D01*
X37215657Y-41741169D01*
X37196907Y-42015300D01*
X36143293Y-42015300D01*
X36124542Y-41741170D01*
X36098774Y-41617168D01*
X36068641Y-41472158D01*
X36068636Y-41472141D01*
X35976623Y-41213243D01*
X35976623Y-41213242D01*
X35850211Y-40969277D01*
X35850210Y-40969275D01*
X35850206Y-40969269D01*
X35691759Y-40744800D01*
X35673131Y-40724855D01*
X35504211Y-40543986D01*
X35291069Y-40370582D01*
X35291067Y-40370581D01*
X35291065Y-40370579D01*
X35056298Y-40227814D01*
X34804278Y-40118347D01*
X34539702Y-40044216D01*
X34539697Y-40044215D01*
X34539696Y-40044215D01*
X34403590Y-40025507D01*
X34267486Y-40006800D01*
X34267485Y-40006800D01*
X33992715Y-40006800D01*
X33992714Y-40006800D01*
X33720504Y-40044215D01*
X33720497Y-40044216D01*
X33455921Y-40118347D01*
X33203901Y-40227814D01*
X32969134Y-40370579D01*
X32755992Y-40543983D01*
X32568440Y-40744800D01*
X32409993Y-40969269D01*
X32409989Y-40969275D01*
X32283576Y-41213243D01*
X32191563Y-41472141D01*
X32191558Y-41472158D01*
X32135658Y-41741167D01*
X32135657Y-41741169D01*
X32116907Y-42015300D01*
X31058600Y-42015300D01*
X31058600Y-40466662D01*
X31058599Y-40466645D01*
X31055257Y-40435570D01*
X31052089Y-40406099D01*
X31000989Y-40269096D01*
X30913361Y-40152039D01*
X30796304Y-40064411D01*
X30742160Y-40044216D01*
X30659303Y-40013311D01*
X30598754Y-40006800D01*
X30598738Y-40006800D01*
X27501462Y-40006800D01*
X27501445Y-40006800D01*
X27440897Y-40013311D01*
X27440895Y-40013311D01*
X27303895Y-40064411D01*
X27186839Y-40152039D01*
X27099211Y-40269095D01*
X27048111Y-40406095D01*
X27048111Y-40406097D01*
X27041600Y-40466645D01*
X27041600Y-43563954D01*
X24817348Y-43563954D01*
X24912412Y-43486614D01*
X25099958Y-43285802D01*
X25258412Y-43061323D01*
X25384824Y-42817358D01*
X25476839Y-42558453D01*
X25476840Y-42558446D01*
X25476842Y-42558441D01*
X25502792Y-42433559D01*
X25532743Y-42289430D01*
X25551494Y-42015300D01*
X25532743Y-41741170D01*
X25506975Y-41617168D01*
X25476842Y-41472158D01*
X25476837Y-41472141D01*
X25384824Y-41213243D01*
X25384824Y-41213242D01*
X25258412Y-40969277D01*
X25258411Y-40969275D01*
X25258407Y-40969269D01*
X25099960Y-40744800D01*
X25081332Y-40724855D01*
X24912412Y-40543986D01*
X24699270Y-40370582D01*
X24699268Y-40370581D01*
X24699266Y-40370579D01*
X24464499Y-40227814D01*
X24212479Y-40118347D01*
X23947903Y-40044216D01*
X23947898Y-40044215D01*
X23947897Y-40044215D01*
X23811791Y-40025507D01*
X23675687Y-40006800D01*
X23675686Y-40006800D01*
X23400916Y-40006800D01*
X23400915Y-40006800D01*
X23128705Y-40044215D01*
X23128698Y-40044216D01*
X22864122Y-40118347D01*
X22612102Y-40227814D01*
X22377335Y-40370579D01*
X22164193Y-40543983D01*
X21976641Y-40744800D01*
X21818194Y-40969269D01*
X21818190Y-40969275D01*
X21691777Y-41213243D01*
X21599764Y-41472141D01*
X21599759Y-41472158D01*
X21543859Y-41741167D01*
X21543858Y-41741169D01*
X21525108Y-42015299D01*
X20471494Y-42015299D01*
X20452743Y-41741170D01*
X20426975Y-41617168D01*
X20396842Y-41472158D01*
X20396837Y-41472141D01*
X20304824Y-41213243D01*
X20304824Y-41213242D01*
X20178412Y-40969277D01*
X20178411Y-40969275D01*
X20178407Y-40969269D01*
X20019960Y-40744800D01*
X20001332Y-40724855D01*
X19832412Y-40543986D01*
X19619270Y-40370582D01*
X19619268Y-40370581D01*
X19619266Y-40370579D01*
X19384499Y-40227814D01*
X19132479Y-40118347D01*
X18867903Y-40044216D01*
X18867898Y-40044215D01*
X18867897Y-40044215D01*
X18731791Y-40025507D01*
X18595687Y-40006800D01*
X18595686Y-40006800D01*
X18320916Y-40006800D01*
X18320915Y-40006800D01*
X18048705Y-40044215D01*
X18048698Y-40044216D01*
X17784122Y-40118347D01*
X17532102Y-40227814D01*
X17297335Y-40370579D01*
X17084193Y-40543983D01*
X16896641Y-40744800D01*
X16738194Y-40969269D01*
X16738190Y-40969275D01*
X16611777Y-41213243D01*
X16519764Y-41472141D01*
X16519759Y-41472158D01*
X16463859Y-41741167D01*
X16463858Y-41741169D01*
X16445108Y-42015299D01*
X15386801Y-42015299D01*
X15386801Y-40466662D01*
X15386800Y-40466645D01*
X15383458Y-40435570D01*
X15380290Y-40406099D01*
X15329190Y-40269096D01*
X15241562Y-40152039D01*
X15124505Y-40064411D01*
X15070361Y-40044216D01*
X14987504Y-40013311D01*
X14926955Y-40006800D01*
X14926939Y-40006800D01*
X11829663Y-40006800D01*
X11829646Y-40006800D01*
X11769098Y-40013311D01*
X11769096Y-40013311D01*
X11632096Y-40064411D01*
X11515040Y-40152039D01*
X11427412Y-40269095D01*
X11376312Y-40406095D01*
X11376312Y-40406097D01*
X11369801Y-40466645D01*
X11369801Y-43563954D01*
X9147747Y-43563954D01*
X9242811Y-43486614D01*
X9430357Y-43285802D01*
X9588811Y-43061323D01*
X9715223Y-42817358D01*
X9807238Y-42558453D01*
X9807239Y-42558446D01*
X9807241Y-42558441D01*
X9833191Y-42433559D01*
X9863142Y-42289430D01*
X9881893Y-42015300D01*
X9863142Y-41741170D01*
X9837374Y-41617168D01*
X9807241Y-41472158D01*
X9807236Y-41472141D01*
X9715223Y-41213243D01*
X9715223Y-41213242D01*
X9588811Y-40969277D01*
X9588810Y-40969275D01*
X9588806Y-40969269D01*
X9430359Y-40744800D01*
X9411731Y-40724855D01*
X9242811Y-40543986D01*
X9029669Y-40370582D01*
X9029667Y-40370581D01*
X9029665Y-40370579D01*
X8794898Y-40227814D01*
X8542878Y-40118347D01*
X8278302Y-40044216D01*
X8278297Y-40044215D01*
X8278296Y-40044215D01*
X8142190Y-40025507D01*
X8006086Y-40006800D01*
X8006085Y-40006800D01*
X7731315Y-40006800D01*
X7731314Y-40006800D01*
X7459104Y-40044215D01*
X7459097Y-40044216D01*
X7194521Y-40118347D01*
X6942501Y-40227814D01*
X6707734Y-40370579D01*
X6494592Y-40543983D01*
X6307040Y-40744800D01*
X6148593Y-40969269D01*
X6148589Y-40969275D01*
X6022176Y-41213243D01*
X5930163Y-41472141D01*
X5930158Y-41472158D01*
X5874258Y-41741167D01*
X5874257Y-41741169D01*
X5855507Y-42015299D01*
X4801893Y-42015299D01*
X4783142Y-41741170D01*
X4757374Y-41617168D01*
X4727241Y-41472158D01*
X4727236Y-41472141D01*
X4635223Y-41213243D01*
X4635223Y-41213242D01*
X4508811Y-40969277D01*
X4508810Y-40969275D01*
X4508806Y-40969269D01*
X4350359Y-40744800D01*
X4331731Y-40724855D01*
X4162811Y-40543986D01*
X3949669Y-40370582D01*
X3949667Y-40370581D01*
X3949665Y-40370579D01*
X3714898Y-40227814D01*
X3462878Y-40118347D01*
X3198302Y-40044216D01*
X3198297Y-40044215D01*
X3198296Y-40044215D01*
X3062190Y-40025507D01*
X2926086Y-40006800D01*
X2926085Y-40006800D01*
X2651315Y-40006800D01*
X2651314Y-40006800D01*
X2379104Y-40044215D01*
X2379097Y-40044216D01*
X2114521Y-40118347D01*
X1862501Y-40227814D01*
X1627734Y-40370579D01*
X1414592Y-40543983D01*
X1227040Y-40744800D01*
X1068593Y-40969269D01*
X1068589Y-40969275D01*
X942176Y-41213243D01*
X850163Y-41472141D01*
X850158Y-41472158D01*
X794258Y-41741167D01*
X794257Y-41741169D01*
X775507Y-42015299D01*
X-282800Y-42015299D01*
X-282800Y-40466645D01*
X-289311Y-40406097D01*
X-289311Y-40406095D01*
X-340411Y-40269095D01*
X-428039Y-40152039D01*
X-545095Y-40064411D01*
X-682096Y-40013311D01*
X-742645Y-40006800D01*
X-742662Y-40006800D01*
X-3839938Y-40006800D01*
X-3839954Y-40006800D01*
X-3900502Y-40013311D01*
X-3900504Y-40013311D01*
X-4037504Y-40064411D01*
X-4154561Y-40152039D01*
X-4242189Y-40269096D01*
X-4293289Y-40406099D01*
X-4296457Y-40435570D01*
X-4299799Y-40466645D01*
X-4299800Y-40466662D01*
X-4299800Y-43563937D01*
X-11852043Y-43563937D01*
X-11806134Y-43536019D01*
X-11806133Y-43536018D01*
X-11806131Y-43536017D01*
X-11592989Y-43362613D01*
X-11405443Y-43161801D01*
X-11405440Y-43161798D01*
X-11246993Y-42937329D01*
X-11246989Y-42937323D01*
X-11120576Y-42693355D01*
X-11028563Y-42434457D01*
X-11028558Y-42434440D01*
X-10972658Y-42165431D01*
X-10972657Y-42165429D01*
X-10953907Y-41891299D01*
X-10972657Y-41617168D01*
X-10972658Y-41617166D01*
X-11028558Y-41348157D01*
X-11028563Y-41348140D01*
X-11120576Y-41089242D01*
X-11246989Y-40845274D01*
X-11246993Y-40845268D01*
X-11405440Y-40620799D01*
X-11592992Y-40419982D01*
X-11806134Y-40246578D01*
X-12040901Y-40103813D01*
X-12292921Y-39994346D01*
X-12557497Y-39920215D01*
X-12557504Y-39920214D01*
X-12829714Y-39882799D01*
X-12829715Y-39882799D01*
X-13104485Y-39882799D01*
X-13104486Y-39882799D01*
X-13240590Y-39901506D01*
X-13376696Y-39920214D01*
X-13376697Y-39920214D01*
X-13376702Y-39920215D01*
X-13641278Y-39994346D01*
X-13893298Y-40103813D01*
X-14128065Y-40246578D01*
X-14128067Y-40246580D01*
X-14128069Y-40246581D01*
X-14341211Y-40419985D01*
X-14384804Y-40466662D01*
X-14528759Y-40620799D01*
X-14687206Y-40845268D01*
X-14687210Y-40845274D01*
X-14687211Y-40845276D01*
X-14813623Y-41089241D01*
X-14813623Y-41089242D01*
X-14905636Y-41348140D01*
X-14905641Y-41348157D01*
X-14931405Y-41472141D01*
X-14961542Y-41617169D01*
X-14980293Y-41891299D01*
X-16038600Y-41891299D01*
X-16038600Y-40342644D01*
X-16045111Y-40282096D01*
X-16045111Y-40282094D01*
X-16096211Y-40145094D01*
X-16183839Y-40028038D01*
X-16300895Y-39940410D01*
X-16437896Y-39889310D01*
X-16498445Y-39882799D01*
X-16498462Y-39882799D01*
X-19595738Y-39882799D01*
X-19595754Y-39882799D01*
X-19656302Y-39889310D01*
X-19656304Y-39889310D01*
X-19793303Y-39940409D01*
X-19793304Y-39940410D01*
X-19910361Y-40028038D01*
X-19997989Y-40145095D01*
X-20026622Y-40221863D01*
X-20044239Y-40269096D01*
X-20049089Y-40282098D01*
X-20052257Y-40311569D01*
X-20055599Y-40342644D01*
X-20055600Y-40342661D01*
X-20055600Y-43439936D01*
X-22329200Y-43439936D01*
X-22329200Y-37637303D01*
X-9302969Y-37637303D01*
X-9294214Y-37754135D01*
X-9283923Y-37891456D01*
X-9227209Y-38139936D01*
X-9134094Y-38377187D01*
X-9006659Y-38597911D01*
X-8847751Y-38797176D01*
X-8660918Y-38970532D01*
X-8450334Y-39114105D01*
X-8220705Y-39224689D01*
X-8178555Y-39237690D01*
X-8171472Y-39240359D01*
X-8136451Y-39256062D01*
X-8108480Y-39259305D01*
X-7977158Y-39299813D01*
X-7929580Y-39306984D01*
X-7922412Y-39308502D01*
X-7921841Y-39308660D01*
X-7921835Y-39308660D01*
X-7885494Y-39318648D01*
X-7858465Y-39317703D01*
X-7725135Y-39337800D01*
X-7725129Y-39337800D01*
X-7673008Y-39337800D01*
X-7665890Y-39338210D01*
X-7628011Y-39342584D01*
X-7602511Y-39337800D01*
X-7470269Y-39337800D01*
X-7470265Y-39337800D01*
X-7414668Y-39329419D01*
X-7407813Y-39328774D01*
X-7402451Y-39328569D01*
X-7402448Y-39328568D01*
X-7400789Y-39328505D01*
X-7400739Y-39328501D01*
X-7369909Y-39327319D01*
X-7346498Y-39319144D01*
X-7274498Y-39308292D01*
X-7218246Y-39299814D01*
X-7218233Y-39299811D01*
X-7194160Y-39292384D01*
X-7160559Y-39282020D01*
X-7154117Y-39280407D01*
X-7146568Y-39278943D01*
X-7146563Y-39278941D01*
X-7117167Y-39273241D01*
X-7096267Y-39262188D01*
X-6974695Y-39224689D01*
X-6916523Y-39196675D01*
X-6910608Y-39194196D01*
X-6901260Y-39190839D01*
X-6896792Y-39189235D01*
X-6896783Y-39189230D01*
X-6875546Y-39181603D01*
X-6857498Y-39168250D01*
X-6813297Y-39146964D01*
X-6745072Y-39114109D01*
X-6745062Y-39114103D01*
X-6737739Y-39109110D01*
X-6688196Y-39075332D01*
X-6682903Y-39072100D01*
X-6672275Y-39066321D01*
X-6670331Y-39065264D01*
X-6670282Y-39065235D01*
X-6650617Y-39054541D01*
X-6635631Y-39039494D01*
X-6534482Y-38970532D01*
X-6480842Y-38920761D01*
X-6476274Y-38916916D01*
X-6464981Y-38908308D01*
X-6464977Y-38908303D01*
X-6447544Y-38895015D01*
X-6435717Y-38878891D01*
X-6347649Y-38797176D01*
X-6299258Y-38736495D01*
X-6295470Y-38732174D01*
X-6288776Y-38725219D01*
X-6282182Y-38718368D01*
X-6282168Y-38718352D01*
X-6270953Y-38706699D01*
X-6262269Y-38690113D01*
X-6188741Y-38597911D01*
X-6147681Y-38526793D01*
X-6144697Y-38522120D01*
X-6124886Y-38493955D01*
X-6119208Y-38477477D01*
X-6061307Y-38377189D01*
X-6061305Y-38377186D01*
X-6029602Y-38296407D01*
X-6027448Y-38291544D01*
X-6016559Y-38269554D01*
X-6015848Y-38268784D01*
X-6014402Y-38265196D01*
X-6013864Y-38264109D01*
X-6012344Y-38253877D01*
X-6011811Y-38252193D01*
X-6010618Y-38248423D01*
X-6009229Y-38244498D01*
X-5968191Y-38139936D01*
X-5947817Y-38050672D01*
X-5946481Y-38045759D01*
X-5940223Y-38025985D01*
X-5938977Y-38024133D01*
X-5937486Y-38017762D01*
X-5937527Y-38009345D01*
X-5936070Y-37999911D01*
X-5935242Y-37995579D01*
X-5911476Y-37891455D01*
X-5906812Y-37829209D01*
X-5904267Y-37795250D01*
X-5903715Y-37790429D01*
X-5899558Y-37763514D01*
X-5899039Y-37760158D01*
X-5899934Y-37754135D01*
X-5899537Y-37733426D01*
X-5899375Y-37729982D01*
X-5892431Y-37637304D01*
X-5892431Y-37637293D01*
X-5899375Y-37544615D01*
X-5899537Y-37541171D01*
X-5899934Y-37520460D01*
X-5898769Y-37516192D01*
X-5901163Y-37500695D01*
X-5903716Y-37484164D01*
X-5904269Y-37479334D01*
X-5911476Y-37383142D01*
X-5911476Y-37383141D01*
X-5935242Y-37279016D01*
X-5936070Y-37274683D01*
X-5937528Y-37265244D01*
X-5936767Y-37259528D01*
X-5937106Y-37258458D01*
X-5938690Y-37251688D01*
X-5940224Y-37248607D01*
X-5946483Y-37228829D01*
X-5947818Y-37223918D01*
X-5968189Y-37134665D01*
X-5968192Y-37134656D01*
X-6009217Y-37030129D01*
X-6010615Y-37026180D01*
X-6012338Y-37020736D01*
X-6012494Y-37013253D01*
X-6014401Y-37009402D01*
X-6015622Y-37006371D01*
X-6016562Y-37005039D01*
X-6027451Y-36983045D01*
X-6029603Y-36978186D01*
X-6061304Y-36897415D01*
X-6119210Y-36797115D01*
X-6122321Y-36784287D01*
X-6144696Y-36752477D01*
X-6147679Y-36747807D01*
X-6188743Y-36676682D01*
X-6262270Y-36584483D01*
X-6267631Y-36571350D01*
X-6289126Y-36549016D01*
X-6295468Y-36542424D01*
X-6299264Y-36538093D01*
X-6347646Y-36477424D01*
X-6435720Y-36395702D01*
X-6443474Y-36382682D01*
X-6476266Y-36357686D01*
X-6480852Y-36353826D01*
X-6534479Y-36304068D01*
X-6635635Y-36235100D01*
X-6645842Y-36222651D01*
X-6666217Y-36211571D01*
X-6666228Y-36211566D01*
X-6682902Y-36202496D01*
X-6688206Y-36199257D01*
X-6745060Y-36160495D01*
X-6745065Y-36160492D01*
X-6857501Y-36106346D01*
X-6870138Y-36094935D01*
X-6906267Y-36081959D01*
X-6908375Y-36081203D01*
X-6910560Y-36080418D01*
X-6916518Y-36077925D01*
X-6974696Y-36049907D01*
X-7096266Y-36012409D01*
X-7111221Y-36002508D01*
X-7154114Y-35994190D01*
X-7160590Y-35992568D01*
X-7218236Y-35974786D01*
X-7218235Y-35974786D01*
X-7346508Y-35955451D01*
X-7363574Y-35947516D01*
X-7407822Y-35945821D01*
X-7414694Y-35945173D01*
X-7470257Y-35936798D01*
X-7470265Y-35936798D01*
X-7602509Y-35936798D01*
X-7621391Y-35931253D01*
X-7657601Y-35935433D01*
X-7657610Y-35935434D01*
X-7665881Y-35936389D01*
X-7672996Y-35936798D01*
X-7725140Y-35936798D01*
X-7858477Y-35956896D01*
X-7878819Y-35954112D01*
X-7922400Y-35966089D01*
X-7929593Y-35967614D01*
X-7977155Y-35974784D01*
X-7977160Y-35974785D01*
X-8108560Y-36015317D01*
X-8129927Y-36015607D01*
X-8171468Y-36034235D01*
X-8178567Y-36036910D01*
X-8220703Y-36049908D01*
X-8220705Y-36049909D01*
X-8450334Y-36160493D01*
X-8660918Y-36304066D01*
X-8731567Y-36369619D01*
X-8847747Y-36477417D01*
X-8847750Y-36477421D01*
X-8847751Y-36477422D01*
X-9006659Y-36676687D01*
X-9134094Y-36897411D01*
X-9227209Y-37134662D01*
X-9283922Y-37383141D01*
X-9283923Y-37383144D01*
X-9302969Y-37637294D01*
X-9302969Y-37637303D01*
X-22329200Y-37637303D01*
X-22329200Y-33827300D01*
X-20060292Y-33827300D01*
X-20041541Y-34101430D01*
X-20027135Y-34170755D01*
X-19985640Y-34370441D01*
X-19985638Y-34370446D01*
X-19985637Y-34370453D01*
X-19893622Y-34629358D01*
X-19767210Y-34873323D01*
X-19608756Y-35097802D01*
X-19421210Y-35298614D01*
X-19208068Y-35472018D01*
X-18973299Y-35614784D01*
X-18721276Y-35724253D01*
X-18456695Y-35798385D01*
X-18231854Y-35829289D01*
X-18184485Y-35835800D01*
X-18184484Y-35835800D01*
X-17909713Y-35835800D01*
X-17862344Y-35829289D01*
X-17637503Y-35798385D01*
X-17372922Y-35724253D01*
X-17295353Y-35690560D01*
X-17120900Y-35614785D01*
X-16886133Y-35472020D01*
X-16886132Y-35472019D01*
X-16886130Y-35472018D01*
X-16768031Y-35375937D01*
X-14975599Y-35375937D01*
X-14975598Y-35375954D01*
X-14972690Y-35402992D01*
X-14969088Y-35436501D01*
X-14917988Y-35573504D01*
X-14830360Y-35690561D01*
X-14713303Y-35778189D01*
X-14576300Y-35829289D01*
X-14544722Y-35832683D01*
X-14515753Y-35835799D01*
X-14515737Y-35835800D01*
X-11418461Y-35835800D01*
X-11418444Y-35835799D01*
X-11387369Y-35832457D01*
X-11357898Y-35829289D01*
X-11357895Y-35829288D01*
X-11357894Y-35829288D01*
X-11297663Y-35806822D01*
X-11220895Y-35778189D01*
X-11103838Y-35690561D01*
X-11016210Y-35573504D01*
X-11000512Y-35531417D01*
X-10965110Y-35436504D01*
X-10965110Y-35436502D01*
X-10958599Y-35375954D01*
X-10958599Y-33951302D01*
X-4296409Y-33951302D01*
X-4275999Y-34236663D01*
X-4215190Y-34516196D01*
X-4115208Y-34784259D01*
X-3978103Y-35035348D01*
X-3871416Y-35177862D01*
X-3871415Y-35177863D01*
X-2976104Y-34282552D01*
X-2953960Y-34333888D01*
X-2847867Y-34476395D01*
X-2711770Y-34590595D01*
X-2622083Y-34635636D01*
X-3517862Y-35531416D01*
X-3517861Y-35531417D01*
X-3375347Y-35638104D01*
X-3124257Y-35775209D01*
X-3124258Y-35775209D01*
X-2856195Y-35875191D01*
X-2576662Y-35936000D01*
X-2291301Y-35956410D01*
X-2291299Y-35956410D01*
X-2005937Y-35936000D01*
X-1726404Y-35875191D01*
X-1458341Y-35775209D01*
X-1207261Y-35638109D01*
X-1207260Y-35638108D01*
X-1064736Y-35531416D01*
X-1957552Y-34638601D01*
X-1947891Y-34635085D01*
X-1799456Y-34537458D01*
X-1677536Y-34408231D01*
X-1605531Y-34283515D01*
X-711183Y-35177863D01*
X-711182Y-35177862D01*
X-604496Y-35035347D01*
X-604491Y-35035339D01*
X-467391Y-34784259D01*
X-367409Y-34516196D01*
X-306600Y-34236663D01*
X-286191Y-33951302D01*
X783591Y-33951302D01*
X804000Y-34236663D01*
X864809Y-34516196D01*
X964791Y-34784259D01*
X1101891Y-35035339D01*
X1101896Y-35035347D01*
X1208582Y-35177862D01*
X1208583Y-35177863D01*
X2103895Y-34282551D01*
X2126040Y-34333888D01*
X2232133Y-34476395D01*
X2368230Y-34590595D01*
X2457916Y-34635636D01*
X1562136Y-35531416D01*
X1704660Y-35638108D01*
X1704661Y-35638109D01*
X1955742Y-35775209D01*
X1955741Y-35775209D01*
X2223804Y-35875191D01*
X2503337Y-35936000D01*
X2788699Y-35956410D01*
X2788701Y-35956410D01*
X3074062Y-35936000D01*
X3353595Y-35875191D01*
X3621658Y-35775209D01*
X3872747Y-35638104D01*
X4015261Y-35531417D01*
X4015262Y-35531416D01*
X3122448Y-34638601D01*
X3132109Y-34635085D01*
X3280544Y-34537458D01*
X3402464Y-34408231D01*
X3474468Y-34283516D01*
X4368815Y-35177863D01*
X4368816Y-35177862D01*
X4475503Y-35035348D01*
X4612608Y-34784259D01*
X4712590Y-34516196D01*
X4773399Y-34236663D01*
X4793809Y-33951302D01*
X4793809Y-33951299D01*
X4775928Y-33701301D01*
X5868699Y-33701301D01*
X7150217Y-33701301D01*
X7115151Y-33818430D01*
X7104821Y-33995792D01*
X7135671Y-34170755D01*
X7148847Y-34201301D01*
X5868700Y-34201301D01*
X5868700Y-35499145D01*
X5875101Y-35558673D01*
X5875103Y-35558680D01*
X5925345Y-35693387D01*
X5925349Y-35693394D01*
X6011509Y-35808488D01*
X6011512Y-35808491D01*
X6126606Y-35894651D01*
X6126613Y-35894655D01*
X6261320Y-35944897D01*
X6261327Y-35944899D01*
X6320855Y-35951300D01*
X6320872Y-35951301D01*
X7618700Y-35951301D01*
X7618700Y-34673103D01*
X7779869Y-34711301D01*
X7912967Y-34711301D01*
X8045161Y-34695850D01*
X8118699Y-34669083D01*
X8118700Y-35951301D01*
X9416528Y-35951301D01*
X9416544Y-35951300D01*
X9476072Y-35944899D01*
X9476079Y-35944897D01*
X9610786Y-35894655D01*
X9610793Y-35894651D01*
X9725887Y-35808491D01*
X9725890Y-35808488D01*
X9812050Y-35693394D01*
X9812054Y-35693387D01*
X9862296Y-35558680D01*
X9862298Y-35558673D01*
X9868699Y-35499145D01*
X9868700Y-35499128D01*
X9868700Y-34201301D01*
X8587183Y-34201301D01*
X8622249Y-34084172D01*
X8629988Y-33951302D01*
X11373191Y-33951302D01*
X11393600Y-34236663D01*
X11454409Y-34516196D01*
X11554391Y-34784259D01*
X11691491Y-35035339D01*
X11691496Y-35035347D01*
X11798182Y-35177862D01*
X11798183Y-35177863D01*
X12693495Y-34282551D01*
X12715640Y-34333888D01*
X12821733Y-34476395D01*
X12957830Y-34590595D01*
X13047516Y-34635636D01*
X12151736Y-35531416D01*
X12294260Y-35638108D01*
X12294261Y-35638109D01*
X12545342Y-35775209D01*
X12545341Y-35775209D01*
X12813404Y-35875191D01*
X13092937Y-35936000D01*
X13378299Y-35956410D01*
X13378301Y-35956410D01*
X13663662Y-35936000D01*
X13943195Y-35875191D01*
X14211258Y-35775209D01*
X14462347Y-35638104D01*
X14604861Y-35531417D01*
X14604862Y-35531416D01*
X13712048Y-34638601D01*
X13721709Y-34635085D01*
X13870144Y-34537458D01*
X13992064Y-34408231D01*
X14064068Y-34283516D01*
X14958415Y-35177863D01*
X14958416Y-35177862D01*
X15065103Y-35035348D01*
X15202208Y-34784259D01*
X15302190Y-34516196D01*
X15362999Y-34236663D01*
X15383409Y-33951302D01*
X16453191Y-33951302D01*
X16473600Y-34236663D01*
X16534409Y-34516196D01*
X16634391Y-34784259D01*
X16771491Y-35035339D01*
X16771496Y-35035347D01*
X16878182Y-35177862D01*
X16878183Y-35177863D01*
X17773495Y-34282551D01*
X17795640Y-34333888D01*
X17901733Y-34476395D01*
X18037830Y-34590595D01*
X18127516Y-34635636D01*
X17231736Y-35531416D01*
X17374260Y-35638108D01*
X17374261Y-35638109D01*
X17625342Y-35775209D01*
X17625341Y-35775209D01*
X17893404Y-35875191D01*
X18172937Y-35936000D01*
X18458299Y-35956410D01*
X18458301Y-35956410D01*
X18743662Y-35936000D01*
X19023195Y-35875191D01*
X19291258Y-35775209D01*
X19542347Y-35638104D01*
X19684861Y-35531417D01*
X19684862Y-35531416D01*
X19652591Y-35499145D01*
X21538300Y-35499145D01*
X21544701Y-35558673D01*
X21544703Y-35558680D01*
X21594945Y-35693387D01*
X21594949Y-35693394D01*
X21681109Y-35808488D01*
X21681112Y-35808491D01*
X21796206Y-35894651D01*
X21796213Y-35894655D01*
X21930920Y-35944897D01*
X21930927Y-35944899D01*
X21990455Y-35951300D01*
X21990472Y-35951301D01*
X23288300Y-35951301D01*
X23288300Y-34673103D01*
X23449469Y-34711301D01*
X23582567Y-34711301D01*
X23714761Y-34695850D01*
X23788300Y-34669083D01*
X23788300Y-35951301D01*
X25086128Y-35951301D01*
X25086144Y-35951300D01*
X25145672Y-35944899D01*
X25145679Y-35944897D01*
X25280386Y-35894655D01*
X25280393Y-35894651D01*
X25395487Y-35808491D01*
X25395490Y-35808488D01*
X25481650Y-35693394D01*
X25481654Y-35693387D01*
X25531896Y-35558680D01*
X25531898Y-35558673D01*
X25538299Y-35499145D01*
X25538300Y-35499128D01*
X25538300Y-34201301D01*
X24256783Y-34201301D01*
X24291849Y-34084172D01*
X24299588Y-33951302D01*
X27044991Y-33951302D01*
X27065400Y-34236663D01*
X27126209Y-34516196D01*
X27226191Y-34784259D01*
X27363291Y-35035339D01*
X27363296Y-35035347D01*
X27469982Y-35177862D01*
X27469983Y-35177863D01*
X28365295Y-34282551D01*
X28387440Y-34333888D01*
X28493533Y-34476395D01*
X28629630Y-34590595D01*
X28719316Y-34635636D01*
X27823536Y-35531416D01*
X27966060Y-35638108D01*
X27966061Y-35638109D01*
X28217142Y-35775209D01*
X28217141Y-35775209D01*
X28485204Y-35875191D01*
X28764737Y-35936000D01*
X29050099Y-35956410D01*
X29050101Y-35956410D01*
X29335462Y-35936000D01*
X29614995Y-35875191D01*
X29883058Y-35775209D01*
X30134147Y-35638104D01*
X30276661Y-35531417D01*
X30276662Y-35531416D01*
X29383848Y-34638601D01*
X29393509Y-34635085D01*
X29541944Y-34537458D01*
X29663864Y-34408231D01*
X29735868Y-34283516D01*
X30630215Y-35177863D01*
X30630216Y-35177862D01*
X30736903Y-35035348D01*
X30874008Y-34784259D01*
X30973990Y-34516196D01*
X31034799Y-34236663D01*
X31055209Y-33951302D01*
X32124991Y-33951302D01*
X32145400Y-34236663D01*
X32206209Y-34516196D01*
X32306191Y-34784259D01*
X32443291Y-35035339D01*
X32443296Y-35035347D01*
X32549982Y-35177862D01*
X32549983Y-35177863D01*
X33445295Y-34282551D01*
X33467440Y-34333888D01*
X33573533Y-34476395D01*
X33709630Y-34590595D01*
X33799316Y-34635636D01*
X32903536Y-35531416D01*
X33046060Y-35638108D01*
X33046061Y-35638109D01*
X33297142Y-35775209D01*
X33297141Y-35775209D01*
X33565204Y-35875191D01*
X33844737Y-35936000D01*
X34130099Y-35956410D01*
X34130101Y-35956410D01*
X34415462Y-35936000D01*
X34694995Y-35875191D01*
X34963058Y-35775209D01*
X35214147Y-35638104D01*
X35356661Y-35531417D01*
X35356662Y-35531416D01*
X35324391Y-35499145D01*
X37210100Y-35499145D01*
X37216501Y-35558673D01*
X37216503Y-35558680D01*
X37266745Y-35693387D01*
X37266749Y-35693394D01*
X37352909Y-35808488D01*
X37352912Y-35808491D01*
X37468006Y-35894651D01*
X37468013Y-35894655D01*
X37602720Y-35944897D01*
X37602727Y-35944899D01*
X37662255Y-35951300D01*
X37662272Y-35951301D01*
X38960100Y-35951301D01*
X38960100Y-34673103D01*
X39121269Y-34711301D01*
X39254367Y-34711301D01*
X39386561Y-34695850D01*
X39460100Y-34669083D01*
X39460100Y-35951301D01*
X40757928Y-35951301D01*
X40757944Y-35951300D01*
X40817472Y-35944899D01*
X40817479Y-35944897D01*
X40952186Y-35894655D01*
X40952193Y-35894651D01*
X41067287Y-35808491D01*
X41067290Y-35808488D01*
X41153450Y-35693394D01*
X41153454Y-35693387D01*
X41203696Y-35558680D01*
X41203698Y-35558673D01*
X41210099Y-35499145D01*
X41210100Y-35499128D01*
X41210100Y-34201301D01*
X39928583Y-34201301D01*
X39963649Y-34084172D01*
X39971388Y-33951302D01*
X42721191Y-33951302D01*
X42741600Y-34236663D01*
X42802409Y-34516196D01*
X42902391Y-34784259D01*
X43039491Y-35035339D01*
X43039496Y-35035347D01*
X43146182Y-35177862D01*
X43146183Y-35177863D01*
X44041495Y-34282551D01*
X44063640Y-34333888D01*
X44169733Y-34476395D01*
X44305830Y-34590595D01*
X44395516Y-34635636D01*
X43499736Y-35531416D01*
X43642260Y-35638108D01*
X43642261Y-35638109D01*
X43893342Y-35775209D01*
X43893341Y-35775209D01*
X44161404Y-35875191D01*
X44440937Y-35936000D01*
X44726299Y-35956410D01*
X44726301Y-35956410D01*
X45011662Y-35936000D01*
X45291195Y-35875191D01*
X45559258Y-35775209D01*
X45810347Y-35638104D01*
X45952861Y-35531417D01*
X45952862Y-35531416D01*
X45060048Y-34638601D01*
X45069709Y-34635085D01*
X45218144Y-34537458D01*
X45340064Y-34408231D01*
X45412068Y-34283516D01*
X46306415Y-35177863D01*
X46306416Y-35177862D01*
X46413103Y-35035348D01*
X46550208Y-34784259D01*
X46650190Y-34516196D01*
X46710999Y-34236663D01*
X46731409Y-33951302D01*
X47801191Y-33951302D01*
X47821600Y-34236663D01*
X47882409Y-34516196D01*
X47982391Y-34784259D01*
X48119491Y-35035339D01*
X48119496Y-35035347D01*
X48226182Y-35177862D01*
X48226183Y-35177863D01*
X49121495Y-34282551D01*
X49143640Y-34333888D01*
X49249733Y-34476395D01*
X49385830Y-34590595D01*
X49475516Y-34635636D01*
X48579736Y-35531416D01*
X48722260Y-35638108D01*
X48722261Y-35638109D01*
X48973342Y-35775209D01*
X48973341Y-35775209D01*
X49241404Y-35875191D01*
X49520937Y-35936000D01*
X49806299Y-35956410D01*
X49806301Y-35956410D01*
X50091662Y-35936000D01*
X50371195Y-35875191D01*
X50639258Y-35775209D01*
X50890347Y-35638104D01*
X51032861Y-35531417D01*
X51032862Y-35531416D01*
X51000591Y-35499145D01*
X52886300Y-35499145D01*
X52892701Y-35558673D01*
X52892703Y-35558680D01*
X52942945Y-35693387D01*
X52942949Y-35693394D01*
X53029109Y-35808488D01*
X53029112Y-35808491D01*
X53144206Y-35894651D01*
X53144213Y-35894655D01*
X53278920Y-35944897D01*
X53278927Y-35944899D01*
X53338455Y-35951300D01*
X53338472Y-35951301D01*
X54636300Y-35951301D01*
X54636300Y-34673103D01*
X54797469Y-34711301D01*
X54930567Y-34711301D01*
X55062761Y-34695850D01*
X55136300Y-34669083D01*
X55136300Y-35951301D01*
X56434128Y-35951301D01*
X56434144Y-35951300D01*
X56493672Y-35944899D01*
X56493679Y-35944897D01*
X56628386Y-35894655D01*
X56628393Y-35894651D01*
X56743487Y-35808491D01*
X56743490Y-35808488D01*
X56829650Y-35693394D01*
X56829654Y-35693387D01*
X56879896Y-35558680D01*
X56879898Y-35558673D01*
X56886299Y-35499145D01*
X56886300Y-35499128D01*
X56886300Y-34201301D01*
X55604783Y-34201301D01*
X55639849Y-34084172D01*
X55650179Y-33906810D01*
X55619329Y-33731847D01*
X55606153Y-33701301D01*
X56886300Y-33701301D01*
X56886300Y-32403473D01*
X56886299Y-32403456D01*
X56879898Y-32343928D01*
X56879896Y-32343921D01*
X56829654Y-32209214D01*
X56829650Y-32209207D01*
X56743490Y-32094113D01*
X56743487Y-32094110D01*
X56628393Y-32007950D01*
X56628386Y-32007946D01*
X56493679Y-31957704D01*
X56493672Y-31957702D01*
X56434144Y-31951301D01*
X55136300Y-31951301D01*
X55136300Y-33229498D01*
X54975131Y-33191301D01*
X54842033Y-33191301D01*
X54709839Y-33206752D01*
X54636300Y-33233518D01*
X54636300Y-31951301D01*
X53338455Y-31951301D01*
X53278927Y-31957702D01*
X53278920Y-31957704D01*
X53144213Y-32007946D01*
X53144206Y-32007950D01*
X53029112Y-32094110D01*
X53029109Y-32094113D01*
X52942949Y-32209207D01*
X52942945Y-32209214D01*
X52892703Y-32343921D01*
X52892701Y-32343928D01*
X52886300Y-32403456D01*
X52886300Y-33701301D01*
X54167817Y-33701301D01*
X54132751Y-33818430D01*
X54122421Y-33995792D01*
X54153271Y-34170755D01*
X54166447Y-34201301D01*
X52886300Y-34201301D01*
X52886300Y-35499145D01*
X51000591Y-35499145D01*
X50140048Y-34638601D01*
X50149709Y-34635085D01*
X50298144Y-34537458D01*
X50420064Y-34408231D01*
X50492068Y-34283516D01*
X51386415Y-35177863D01*
X51386416Y-35177862D01*
X51493103Y-35035348D01*
X51630208Y-34784259D01*
X51730190Y-34516196D01*
X51790999Y-34236663D01*
X51811409Y-33951302D01*
X51811409Y-33951299D01*
X51790999Y-33665938D01*
X51730190Y-33386405D01*
X51630208Y-33118342D01*
X51493108Y-32867262D01*
X51493107Y-32867261D01*
X51386415Y-32724737D01*
X50491103Y-33620048D01*
X50468960Y-33568714D01*
X50362867Y-33426207D01*
X50226770Y-33312007D01*
X50137081Y-33266964D01*
X51032862Y-32371184D01*
X51032861Y-32371183D01*
X50890346Y-32264497D01*
X50890338Y-32264492D01*
X50639257Y-32127392D01*
X50639258Y-32127392D01*
X50371195Y-32027410D01*
X50091662Y-31966601D01*
X49806301Y-31946192D01*
X49806299Y-31946192D01*
X49520937Y-31966601D01*
X49241404Y-32027410D01*
X48973341Y-32127392D01*
X48722261Y-32264492D01*
X48722253Y-32264497D01*
X48579736Y-32371183D01*
X48579736Y-32371184D01*
X49472551Y-33264000D01*
X49462891Y-33267517D01*
X49314456Y-33365144D01*
X49192536Y-33494371D01*
X49120531Y-33619085D01*
X48226183Y-32724737D01*
X48226182Y-32724738D01*
X48119496Y-32867254D01*
X48119491Y-32867262D01*
X47982391Y-33118342D01*
X47882409Y-33386405D01*
X47821600Y-33665938D01*
X47801191Y-33951299D01*
X47801191Y-33951302D01*
X46731409Y-33951302D01*
X46731409Y-33951299D01*
X46710999Y-33665938D01*
X46650190Y-33386405D01*
X46550208Y-33118342D01*
X46413108Y-32867262D01*
X46413107Y-32867261D01*
X46306415Y-32724737D01*
X45411103Y-33620048D01*
X45388960Y-33568714D01*
X45282867Y-33426207D01*
X45146770Y-33312007D01*
X45057081Y-33266964D01*
X45952862Y-32371184D01*
X45952861Y-32371183D01*
X45810346Y-32264497D01*
X45810338Y-32264492D01*
X45559257Y-32127392D01*
X45559258Y-32127392D01*
X45291195Y-32027410D01*
X45011662Y-31966601D01*
X44726301Y-31946192D01*
X44726299Y-31946192D01*
X44440937Y-31966601D01*
X44161404Y-32027410D01*
X43893341Y-32127392D01*
X43642261Y-32264492D01*
X43642253Y-32264497D01*
X43499736Y-32371183D01*
X43499736Y-32371184D01*
X44392551Y-33264000D01*
X44382891Y-33267517D01*
X44234456Y-33365144D01*
X44112536Y-33494371D01*
X44040531Y-33619085D01*
X43146183Y-32724737D01*
X43146182Y-32724738D01*
X43039496Y-32867254D01*
X43039491Y-32867262D01*
X42902391Y-33118342D01*
X42802409Y-33386405D01*
X42741600Y-33665938D01*
X42721191Y-33951299D01*
X42721191Y-33951302D01*
X39971388Y-33951302D01*
X39973979Y-33906810D01*
X39943129Y-33731847D01*
X39929953Y-33701301D01*
X41210100Y-33701301D01*
X41210100Y-32403473D01*
X41210099Y-32403456D01*
X41203698Y-32343928D01*
X41203696Y-32343921D01*
X41153454Y-32209214D01*
X41153450Y-32209207D01*
X41067290Y-32094113D01*
X41067287Y-32094110D01*
X40952193Y-32007950D01*
X40952186Y-32007946D01*
X40817479Y-31957704D01*
X40817472Y-31957702D01*
X40757944Y-31951301D01*
X39460100Y-31951301D01*
X39460100Y-33229498D01*
X39298931Y-33191301D01*
X39165833Y-33191301D01*
X39033639Y-33206752D01*
X38960100Y-33233518D01*
X38960100Y-31951301D01*
X37662255Y-31951301D01*
X37602727Y-31957702D01*
X37602720Y-31957704D01*
X37468013Y-32007946D01*
X37468006Y-32007950D01*
X37352912Y-32094110D01*
X37352909Y-32094113D01*
X37266749Y-32209207D01*
X37266745Y-32209214D01*
X37216503Y-32343921D01*
X37216501Y-32343928D01*
X37210100Y-32403456D01*
X37210100Y-33701301D01*
X38491617Y-33701301D01*
X38456551Y-33818430D01*
X38446221Y-33995792D01*
X38477071Y-34170755D01*
X38490247Y-34201301D01*
X37210100Y-34201301D01*
X37210100Y-35499145D01*
X35324391Y-35499145D01*
X34463848Y-34638601D01*
X34473509Y-34635085D01*
X34621944Y-34537458D01*
X34743864Y-34408231D01*
X34815868Y-34283516D01*
X35710215Y-35177863D01*
X35710216Y-35177862D01*
X35816903Y-35035348D01*
X35954008Y-34784259D01*
X36053990Y-34516196D01*
X36114799Y-34236663D01*
X36135209Y-33951302D01*
X36135209Y-33951299D01*
X36114799Y-33665938D01*
X36053990Y-33386405D01*
X35954008Y-33118342D01*
X35816908Y-32867262D01*
X35816907Y-32867261D01*
X35710215Y-32724737D01*
X34814903Y-33620048D01*
X34792760Y-33568714D01*
X34686667Y-33426207D01*
X34550570Y-33312007D01*
X34460882Y-33266964D01*
X35356662Y-32371184D01*
X35356661Y-32371183D01*
X35214146Y-32264497D01*
X35214138Y-32264492D01*
X34963057Y-32127392D01*
X34963058Y-32127392D01*
X34694995Y-32027410D01*
X34415462Y-31966601D01*
X34130101Y-31946192D01*
X34130099Y-31946192D01*
X33844737Y-31966601D01*
X33565204Y-32027410D01*
X33297141Y-32127392D01*
X33046061Y-32264492D01*
X33046053Y-32264497D01*
X32903537Y-32371183D01*
X32903536Y-32371184D01*
X33796352Y-33264000D01*
X33786691Y-33267517D01*
X33638256Y-33365144D01*
X33516336Y-33494371D01*
X33444331Y-33619085D01*
X32549983Y-32724737D01*
X32549982Y-32724738D01*
X32443296Y-32867254D01*
X32443291Y-32867262D01*
X32306191Y-33118342D01*
X32206209Y-33386405D01*
X32145400Y-33665938D01*
X32124991Y-33951299D01*
X32124991Y-33951302D01*
X31055209Y-33951302D01*
X31055209Y-33951299D01*
X31034799Y-33665938D01*
X30973990Y-33386405D01*
X30874008Y-33118342D01*
X30736908Y-32867262D01*
X30736907Y-32867261D01*
X30630215Y-32724737D01*
X29734903Y-33620048D01*
X29712760Y-33568714D01*
X29606667Y-33426207D01*
X29470570Y-33312007D01*
X29380882Y-33266964D01*
X30276662Y-32371184D01*
X30276661Y-32371183D01*
X30134146Y-32264497D01*
X30134138Y-32264492D01*
X29883057Y-32127392D01*
X29883058Y-32127392D01*
X29614995Y-32027410D01*
X29335462Y-31966601D01*
X29050101Y-31946192D01*
X29050099Y-31946192D01*
X28764737Y-31966601D01*
X28485204Y-32027410D01*
X28217141Y-32127392D01*
X27966061Y-32264492D01*
X27966053Y-32264497D01*
X27823537Y-32371183D01*
X27823536Y-32371184D01*
X28716352Y-33264000D01*
X28706691Y-33267517D01*
X28558256Y-33365144D01*
X28436336Y-33494371D01*
X28364331Y-33619085D01*
X27469983Y-32724737D01*
X27469982Y-32724738D01*
X27363296Y-32867254D01*
X27363291Y-32867262D01*
X27226191Y-33118342D01*
X27126209Y-33386405D01*
X27065400Y-33665938D01*
X27044991Y-33951299D01*
X27044991Y-33951302D01*
X24299588Y-33951302D01*
X24302179Y-33906810D01*
X24271329Y-33731847D01*
X24258153Y-33701301D01*
X25538299Y-33701301D01*
X25538300Y-32403473D01*
X25538299Y-32403456D01*
X25531898Y-32343928D01*
X25531896Y-32343921D01*
X25481654Y-32209214D01*
X25481650Y-32209207D01*
X25395490Y-32094113D01*
X25395487Y-32094110D01*
X25280393Y-32007950D01*
X25280386Y-32007946D01*
X25145679Y-31957704D01*
X25145672Y-31957702D01*
X25086144Y-31951301D01*
X23788300Y-31951301D01*
X23788300Y-33229498D01*
X23627131Y-33191301D01*
X23494033Y-33191301D01*
X23361839Y-33206752D01*
X23288300Y-33233518D01*
X23288300Y-31951301D01*
X21990455Y-31951301D01*
X21930927Y-31957702D01*
X21930920Y-31957704D01*
X21796213Y-32007946D01*
X21796206Y-32007950D01*
X21681112Y-32094110D01*
X21681109Y-32094113D01*
X21594949Y-32209207D01*
X21594945Y-32209214D01*
X21544703Y-32343921D01*
X21544701Y-32343928D01*
X21538300Y-32403456D01*
X21538300Y-33701301D01*
X22819817Y-33701301D01*
X22784751Y-33818430D01*
X22774421Y-33995792D01*
X22805271Y-34170755D01*
X22818447Y-34201301D01*
X21538300Y-34201301D01*
X21538300Y-35499145D01*
X19652591Y-35499145D01*
X18792048Y-34638601D01*
X18801709Y-34635085D01*
X18950144Y-34537458D01*
X19072064Y-34408231D01*
X19144068Y-34283516D01*
X20038415Y-35177863D01*
X20038416Y-35177862D01*
X20145103Y-35035348D01*
X20282208Y-34784259D01*
X20382190Y-34516196D01*
X20442999Y-34236663D01*
X20463409Y-33951302D01*
X20463409Y-33951299D01*
X20442999Y-33665938D01*
X20382190Y-33386405D01*
X20282208Y-33118342D01*
X20145108Y-32867262D01*
X20145107Y-32867261D01*
X20038415Y-32724737D01*
X19143103Y-33620048D01*
X19120960Y-33568714D01*
X19014867Y-33426207D01*
X18878770Y-33312007D01*
X18789081Y-33266964D01*
X19684862Y-32371184D01*
X19684861Y-32371183D01*
X19542346Y-32264497D01*
X19542338Y-32264492D01*
X19291257Y-32127392D01*
X19291258Y-32127392D01*
X19023195Y-32027410D01*
X18743662Y-31966601D01*
X18458301Y-31946192D01*
X18458299Y-31946192D01*
X18172937Y-31966601D01*
X17893404Y-32027410D01*
X17625341Y-32127392D01*
X17374261Y-32264492D01*
X17374253Y-32264497D01*
X17231736Y-32371183D01*
X17231736Y-32371184D01*
X18124551Y-33264000D01*
X18114891Y-33267517D01*
X17966456Y-33365144D01*
X17844536Y-33494371D01*
X17772531Y-33619085D01*
X16878183Y-32724737D01*
X16878182Y-32724738D01*
X16771496Y-32867254D01*
X16771491Y-32867262D01*
X16634391Y-33118342D01*
X16534409Y-33386405D01*
X16473600Y-33665938D01*
X16453191Y-33951299D01*
X16453191Y-33951302D01*
X15383409Y-33951302D01*
X15383409Y-33951299D01*
X15362999Y-33665938D01*
X15302190Y-33386405D01*
X15202208Y-33118342D01*
X15065108Y-32867262D01*
X15065107Y-32867261D01*
X14958415Y-32724737D01*
X14063103Y-33620048D01*
X14040960Y-33568714D01*
X13934867Y-33426207D01*
X13798770Y-33312007D01*
X13709082Y-33266964D01*
X14604862Y-32371184D01*
X14604861Y-32371183D01*
X14462346Y-32264497D01*
X14462338Y-32264492D01*
X14211257Y-32127392D01*
X14211258Y-32127392D01*
X13943195Y-32027410D01*
X13663662Y-31966601D01*
X13378301Y-31946192D01*
X13378299Y-31946192D01*
X13092937Y-31966601D01*
X12813404Y-32027410D01*
X12545341Y-32127392D01*
X12294261Y-32264492D01*
X12294253Y-32264497D01*
X12151737Y-32371183D01*
X12151736Y-32371184D01*
X13044552Y-33264000D01*
X13034891Y-33267517D01*
X12886456Y-33365144D01*
X12764536Y-33494371D01*
X12692531Y-33619085D01*
X11798183Y-32724737D01*
X11798182Y-32724738D01*
X11691496Y-32867254D01*
X11691491Y-32867262D01*
X11554391Y-33118342D01*
X11454409Y-33386405D01*
X11393600Y-33665938D01*
X11373191Y-33951299D01*
X11373191Y-33951302D01*
X8629988Y-33951302D01*
X8632579Y-33906810D01*
X8601729Y-33731847D01*
X8588553Y-33701301D01*
X9868700Y-33701301D01*
X9868700Y-32403473D01*
X9868699Y-32403456D01*
X9862298Y-32343928D01*
X9862296Y-32343921D01*
X9812054Y-32209214D01*
X9812050Y-32209207D01*
X9725890Y-32094113D01*
X9725887Y-32094110D01*
X9610793Y-32007950D01*
X9610786Y-32007946D01*
X9476079Y-31957704D01*
X9476072Y-31957702D01*
X9416544Y-31951301D01*
X8118700Y-31951301D01*
X8118700Y-33229498D01*
X7957531Y-33191301D01*
X7824433Y-33191301D01*
X7692239Y-33206752D01*
X7618700Y-33233518D01*
X7618700Y-31951301D01*
X6320855Y-31951301D01*
X6261327Y-31957702D01*
X6261320Y-31957704D01*
X6126613Y-32007946D01*
X6126606Y-32007950D01*
X6011512Y-32094110D01*
X6011509Y-32094113D01*
X5925349Y-32209207D01*
X5925345Y-32209214D01*
X5875103Y-32343921D01*
X5875101Y-32343928D01*
X5868700Y-32403456D01*
X5868700Y-32403473D01*
X5868699Y-33701301D01*
X4775928Y-33701301D01*
X4773399Y-33665938D01*
X4712590Y-33386405D01*
X4612608Y-33118342D01*
X4475508Y-32867262D01*
X4475507Y-32867261D01*
X4368815Y-32724737D01*
X3473503Y-33620048D01*
X3451360Y-33568714D01*
X3345267Y-33426207D01*
X3209170Y-33312007D01*
X3119482Y-33266964D01*
X4015262Y-32371184D01*
X4015261Y-32371183D01*
X3872746Y-32264497D01*
X3872738Y-32264492D01*
X3621657Y-32127392D01*
X3621658Y-32127392D01*
X3353595Y-32027410D01*
X3074062Y-31966601D01*
X2788701Y-31946192D01*
X2788699Y-31946192D01*
X2503337Y-31966601D01*
X2223804Y-32027410D01*
X1955741Y-32127392D01*
X1704661Y-32264492D01*
X1704653Y-32264497D01*
X1562137Y-32371183D01*
X1562136Y-32371184D01*
X2454952Y-33264000D01*
X2445291Y-33267517D01*
X2296856Y-33365144D01*
X2174936Y-33494371D01*
X2102931Y-33619085D01*
X1208583Y-32724737D01*
X1208582Y-32724738D01*
X1101896Y-32867254D01*
X1101891Y-32867262D01*
X964791Y-33118342D01*
X864809Y-33386405D01*
X804000Y-33665938D01*
X783591Y-33951299D01*
X783591Y-33951302D01*
X-286191Y-33951302D01*
X-286191Y-33951299D01*
X-306600Y-33665938D01*
X-367409Y-33386405D01*
X-467391Y-33118342D01*
X-604491Y-32867262D01*
X-604496Y-32867254D01*
X-711182Y-32724738D01*
X-711183Y-32724737D01*
X-1606495Y-33620049D01*
X-1628640Y-33568714D01*
X-1734733Y-33426207D01*
X-1870830Y-33312007D01*
X-1960517Y-33266964D01*
X-1064736Y-32371184D01*
X-1064737Y-32371183D01*
X-1207253Y-32264497D01*
X-1207261Y-32264492D01*
X-1458342Y-32127392D01*
X-1458341Y-32127392D01*
X-1726404Y-32027410D01*
X-2005937Y-31966601D01*
X-2291299Y-31946192D01*
X-2291301Y-31946192D01*
X-2576662Y-31966601D01*
X-2856195Y-32027410D01*
X-3124258Y-32127392D01*
X-3375338Y-32264492D01*
X-3375346Y-32264497D01*
X-3517861Y-32371183D01*
X-3517862Y-32371184D01*
X-2625047Y-33264000D01*
X-2634709Y-33267517D01*
X-2783144Y-33365144D01*
X-2905064Y-33494371D01*
X-2977067Y-33619085D01*
X-3871415Y-32724737D01*
X-3978107Y-32867261D01*
X-3978108Y-32867262D01*
X-4115208Y-33118342D01*
X-4215190Y-33386405D01*
X-4275999Y-33665938D01*
X-4296409Y-33951299D01*
X-4296409Y-33951302D01*
X-10958599Y-33951302D01*
X-10958599Y-32278645D01*
X-10965110Y-32218097D01*
X-10965110Y-32218095D01*
X-11016210Y-32081095D01*
X-11103838Y-31964039D01*
X-11220894Y-31876411D01*
X-11357895Y-31825311D01*
X-11418444Y-31818800D01*
X-11418461Y-31818800D01*
X-14515737Y-31818800D01*
X-14515753Y-31818800D01*
X-14576301Y-31825311D01*
X-14576303Y-31825311D01*
X-14713302Y-31876410D01*
X-14713303Y-31876411D01*
X-14830360Y-31964039D01*
X-14917988Y-32081096D01*
X-14946621Y-32157864D01*
X-14965771Y-32209207D01*
X-14969088Y-32218099D01*
X-14972256Y-32247570D01*
X-14975598Y-32278645D01*
X-14975599Y-32278662D01*
X-14975599Y-35375937D01*
X-16768031Y-35375937D01*
X-16672988Y-35298614D01*
X-16485442Y-35097802D01*
X-16485439Y-35097799D01*
X-16326992Y-34873330D01*
X-16326988Y-34873324D01*
X-16208853Y-34645333D01*
X-16200576Y-34629358D01*
X-16200575Y-34629356D01*
X-16108562Y-34370458D01*
X-16108557Y-34370441D01*
X-16052657Y-34101432D01*
X-16052656Y-34101430D01*
X-16033906Y-33827299D01*
X-16052656Y-33553169D01*
X-16052657Y-33553167D01*
X-16108557Y-33284158D01*
X-16108562Y-33284141D01*
X-16200575Y-33025243D01*
X-16326988Y-32781275D01*
X-16326992Y-32781269D01*
X-16485439Y-32556800D01*
X-16672991Y-32355983D01*
X-16886133Y-32182579D01*
X-17120900Y-32039814D01*
X-17372920Y-31930347D01*
X-17637496Y-31856216D01*
X-17637503Y-31856215D01*
X-17909713Y-31818800D01*
X-17909714Y-31818800D01*
X-18184484Y-31818800D01*
X-18184485Y-31818800D01*
X-18320589Y-31837507D01*
X-18456695Y-31856215D01*
X-18456696Y-31856215D01*
X-18456701Y-31856216D01*
X-18721277Y-31930347D01*
X-18973297Y-32039814D01*
X-19208064Y-32182579D01*
X-19208066Y-32182581D01*
X-19208068Y-32182582D01*
X-19421210Y-32355986D01*
X-19590130Y-32536855D01*
X-19608758Y-32556800D01*
X-19767205Y-32781269D01*
X-19767209Y-32781275D01*
X-19767210Y-32781277D01*
X-19893622Y-33025242D01*
X-19893622Y-33025243D01*
X-19985635Y-33284141D01*
X-19985640Y-33284158D01*
X-20006887Y-33386405D01*
X-20041541Y-33553170D01*
X-20060292Y-33827300D01*
X-22329200Y-33827300D01*
X-22329200Y-28211399D01*
X-22309515Y-28144360D01*
X-22256711Y-28098605D01*
X-22205200Y-28087399D01*
X57809800Y-28087399D01*
X57876839Y-28107084D01*
G37*
%TD.AperFunction*%
%TD*%
M02*
