M48
; DRILL file {KiCad 7.0.6} date Tue Sep 19 17:15:09 2023
; FORMAT={-:-/ absolute / inch / decimal}
; #@! TF.CreationDate,2023-09-19T17:15:09+08:00
; #@! TF.GenerationSoftware,Kicad,Pcbnew,7.0.6
; #@! TF.FileFunction,Plated,1,2,PTH
FMAT,2
INCH
; #@! TA.AperFunction,Plated,PTH,ComponentDrill
T1C0.0315
; #@! TA.AperFunction,Plated,PTH,ComponentDrill
T2C0.0394
; #@! TA.AperFunction,Plated,PTH,ComponentDrill
T3C0.0598
%
G90
G05
T1
X-0.3891Y-1.8714
X-0.3891Y-2.1714
X-0.2891Y-1.8714
X-0.2891Y-2.1714
X-0.1591Y-1.8718
X-0.1591Y-2.1718
T2
X0.2995Y-1.9593
X0.2995Y-2.0593
X0.3995Y-1.9593
X0.3995Y-2.0593
X0.4995Y-1.9593
X0.4995Y-2.0593
X0.5995Y-1.9593
X0.5995Y-2.0593
X0.6995Y-1.9593
X0.6995Y-2.0593
X0.7995Y-1.9593
X0.7995Y-2.0593
X0.8995Y-1.9593
X0.8995Y-2.0593
X0.9995Y-1.9593
X0.9995Y-2.0593
X1.0995Y-1.9593
X1.0995Y-2.0593
X1.1995Y-1.9593
X1.1995Y-2.0593
T3
X-0.7105Y-1.6493
X-0.7105Y-1.3318
X-0.7101Y-2.3918
X-0.6597Y-1.9218
X-0.6597Y-2.1218
X-0.5105Y-1.6493
X-0.5105Y-1.3318
X-0.5101Y-2.3918
X-0.3101Y-2.3918
X-0.0931Y-2.3918
X-0.0902Y-1.3367
X-0.0902Y-1.6541
X0.1069Y-2.3918
X0.1098Y-1.3367
X0.1098Y-1.6541
X0.3069Y-2.3918
X0.3098Y-1.3367
X0.3098Y-1.6541
X0.5239Y-2.3918
X0.5267Y-1.3367
X0.5267Y-1.6541
X0.7239Y-2.3918
X0.7267Y-1.3367
X0.7267Y-1.6541
X0.9239Y-2.3918
X0.9267Y-1.3367
X0.9267Y-1.6541
X1.1409Y-2.3918
X1.1437Y-1.3367
X1.1437Y-1.6541
X1.3409Y-2.3918
X1.3437Y-1.3367
X1.3437Y-1.6541
X1.5409Y-2.3918
X1.5437Y-1.3367
X1.5437Y-1.6541
X1.7581Y-2.3918
X1.7609Y-1.3367
X1.7609Y-1.6541
X1.9581Y-2.3918
X1.9609Y-1.3367
X1.9609Y-1.6541
X2.1581Y-2.3918
X2.1609Y-1.3367
X2.1609Y-1.6541
T0
M30
