%TF.GenerationSoftware,KiCad,Pcbnew,7.0.6*%
%TF.CreationDate,2023-09-19T12:43:23+08:00*%
%TF.ProjectId,Control Panel Selector Switch Board,436f6e74-726f-46c2-9050-616e656c2053,rev?*%
%TF.SameCoordinates,Original*%
%TF.FileFunction,Copper,L2,Bot*%
%TF.FilePolarity,Positive*%
%FSLAX46Y46*%
G04 Gerber Fmt 4.6, Leading zero omitted, Abs format (unit mm)*
G04 Created by KiCad (PCBNEW 7.0.6) date 2023-09-19 12:43:23*
%MOMM*%
%LPD*%
G01*
G04 APERTURE LIST*
G04 Aperture macros list*
%AMRotRect*
0 Rectangle, with rotation*
0 The origin of the aperture is its center*
0 $1 length*
0 $2 width*
0 $3 Rotation angle, in degrees counterclockwise*
0 Add horizontal line*
21,1,$1,$2,0,0,$3*%
G04 Aperture macros list end*
%TA.AperFunction,ComponentPad*%
%ADD10C,2.000000*%
%TD*%
%TA.AperFunction,ComponentPad*%
%ADD11C,1.600000*%
%TD*%
%TA.AperFunction,ComponentPad*%
%ADD12O,1.600000X1.600000*%
%TD*%
%TA.AperFunction,ComponentPad*%
%ADD13RotRect,3.000000X3.000000X45.000000*%
%TD*%
%TA.AperFunction,ComponentPad*%
%ADD14C,3.000000*%
%TD*%
%TA.AperFunction,Conductor*%
%ADD15C,0.250000*%
%TD*%
G04 APERTURE END LIST*
D10*
%TO.P,J6,1,Pin_1*%
%TO.N,Net-(J6-Pin_1)*%
X13453610Y-235419D03*
%TD*%
%TO.P,J3,1,Pin_1*%
%TO.N,Net-(J3-Pin_1)*%
X-18582Y7542756D03*
%TD*%
%TO.P,J9,1,Pin_1*%
%TO.N,Net-(J9-Pin_1)*%
X5675436Y-13707610D03*
%TD*%
%TO.P,J4,1,Pin_1*%
%TO.N,Net-(J4-Pin_1)*%
X5675437Y7542756D03*
%TD*%
%TO.P,J11,1,Pin_1*%
%TO.N,Net-(J11-Pin_1)*%
X-4949748Y-10860603D03*
%TD*%
%TO.P,J10,1,Pin_1*%
%TO.N,Net-(J10-Pin_1)*%
X-18582Y-13707612D03*
%TD*%
%TO.P,J2,1,Pin_1*%
%TO.N,Net-(J2-Pin_1)*%
X-4949749Y4695747D03*
%TD*%
%TO.P,J12,1,Pin_1*%
%TO.N,Net-(J12-Pin_1)*%
X-7796756Y-5929437D03*
%TD*%
%TO.P,J13,1,Pin_1*%
%TO.N,Net-(J13-Pin_1)*%
X0Y-254000D03*
%TD*%
%TO.P,J5,1,Pin_1*%
%TO.N,Net-(J5-Pin_1)*%
X10606601Y4695748D03*
%TD*%
%TO.P,J1,1,Pin_1*%
%TO.N,Net-(J1-Pin_1)*%
X-7796757Y-235417D03*
%TD*%
%TO.P,J7,1,Pin_1*%
%TO.N,Net-(J7-Pin_1)*%
X13453611Y-5929437D03*
%TD*%
%TO.P,J8,1,Pin_1*%
%TO.N,Net-(J8-Pin_1)*%
X10606602Y-10860602D03*
%TD*%
D11*
%TO.P,R6,1*%
%TO.N,Net-(J5-Pin_1)*%
X16510000Y8001000D03*
D12*
%TO.P,R6,2*%
%TO.N,Net-(J6-Pin_1)*%
X16510000Y381000D03*
%TD*%
D11*
%TO.P,R1,1*%
%TO.N,Net-(J14-Pin_1)*%
X-10795000Y-9398000D03*
D12*
%TO.P,R1,2*%
%TO.N,Net-(J1-Pin_1)*%
X-10795000Y-1778000D03*
%TD*%
D13*
%TO.P,J14,1,Pin_1*%
%TO.N,Net-(J14-Pin_1)*%
X1602133Y-8989282D03*
D14*
%TO.P,J14,2,Pin_2*%
%TO.N,Net-(J13-Pin_1)*%
X5194235Y-5397180D03*
%TO.P,J14,3,Pin_3*%
%TO.N,Net-(J12-Pin_1)*%
X8786338Y-1805077D03*
%TD*%
D11*
%TO.P,R5,1*%
%TO.N,Net-(J4-Pin_1)*%
X8890000Y10668000D03*
D12*
%TO.P,R5,2*%
%TO.N,Net-(J5-Pin_1)*%
X16510000Y10668000D03*
%TD*%
D11*
%TO.P,R2,1*%
%TO.N,Net-(J1-Pin_1)*%
X-10795000Y381000D03*
D12*
%TO.P,R2,2*%
%TO.N,Net-(J2-Pin_1)*%
X-10795000Y8001000D03*
%TD*%
D11*
%TO.P,R8,1*%
%TO.N,Net-(J7-Pin_1)*%
X16510000Y-11557000D03*
D12*
%TO.P,R8,2*%
%TO.N,Net-(J8-Pin_1)*%
X16510000Y-19177000D03*
%TD*%
D11*
%TO.P,R7,1*%
%TO.N,Net-(J6-Pin_1)*%
X16510000Y-1778000D03*
D12*
%TO.P,R7,2*%
%TO.N,Net-(J7-Pin_1)*%
X16510000Y-9398000D03*
%TD*%
D11*
%TO.P,R4,1*%
%TO.N,Net-(J3-Pin_1)*%
X-889000Y10668000D03*
D12*
%TO.P,R4,2*%
%TO.N,Net-(J4-Pin_1)*%
X6731000Y10668000D03*
%TD*%
D11*
%TO.P,R11,1*%
%TO.N,Net-(J10-Pin_1)*%
X-7747000Y-19177000D03*
D12*
%TO.P,R11,2*%
%TO.N,Net-(J11-Pin_1)*%
X-7747000Y-11557000D03*
%TD*%
D11*
%TO.P,R9,1*%
%TO.N,Net-(J8-Pin_1)*%
X13462000Y-11557000D03*
D12*
%TO.P,R9,2*%
%TO.N,Net-(J9-Pin_1)*%
X13462000Y-19177000D03*
%TD*%
D11*
%TO.P,R10,1*%
%TO.N,Net-(J9-Pin_1)*%
X6731000Y-19050000D03*
D12*
%TO.P,R10,2*%
%TO.N,Net-(J10-Pin_1)*%
X-889000Y-19050000D03*
%TD*%
D11*
%TO.P,R3,1*%
%TO.N,Net-(J2-Pin_1)*%
X-10668000Y10668000D03*
D12*
%TO.P,R3,2*%
%TO.N,Net-(J3-Pin_1)*%
X-3048000Y10668000D03*
%TD*%
D11*
%TO.P,R12,1*%
%TO.N,Net-(J11-Pin_1)*%
X-10795000Y-19177000D03*
D12*
%TO.P,R12,2*%
%TO.N,Net-(J12-Pin_1)*%
X-10795000Y-11557000D03*
%TD*%
D15*
%TO.N,Net-(J1-Pin_1)*%
X-10795000Y-1778000D02*
X-10795000Y381000D01*
%TO.N,Net-(J2-Pin_1)*%
X-10795000Y10541000D02*
X-10668000Y10668000D01*
X-10795000Y8001000D02*
X-10795000Y10541000D01*
%TO.N,Net-(J3-Pin_1)*%
X-889000Y10668000D02*
X-3048000Y10668000D01*
%TO.N,Net-(J4-Pin_1)*%
X8890000Y10668000D02*
X6731000Y10668000D01*
%TO.N,Net-(J5-Pin_1)*%
X16510000Y8001000D02*
X16510000Y10668000D01*
%TO.N,Net-(J6-Pin_1)*%
X16510000Y-1778000D02*
X16510000Y381000D01*
%TO.N,Net-(J7-Pin_1)*%
X16510000Y-11557000D02*
X16510000Y-9398000D01*
%TO.N,Net-(J8-Pin_1)*%
X16510000Y-19177000D02*
X16510000Y-14605000D01*
X16510000Y-14605000D02*
X13462000Y-11557000D01*
%TO.N,Net-(J9-Pin_1)*%
X13462000Y-19177000D02*
X7366000Y-19177000D01*
X7366000Y-19177000D02*
X6731000Y-18542000D01*
%TO.N,Net-(J10-Pin_1)*%
X-7620000Y-19050000D02*
X-7747000Y-19177000D01*
X-889000Y-19050000D02*
X-7620000Y-19050000D01*
%TO.N,Net-(J11-Pin_1)*%
X-10795000Y-19177000D02*
X-10795000Y-14605000D01*
X-10795000Y-14605000D02*
X-7747000Y-11557000D01*
%TO.N,Net-(J14-Pin_1)*%
X-10795000Y-9398000D02*
X1193415Y-9398000D01*
X1193415Y-9398000D02*
X1602133Y-8989282D01*
%TD*%
M02*
