%TF.GenerationSoftware,KiCad,Pcbnew,7.0.6*%
%TF.CreationDate,2023-09-19T12:43:23+08:00*%
%TF.ProjectId,Control Panel Selector Switch Board,436f6e74-726f-46c2-9050-616e656c2053,rev?*%
%TF.SameCoordinates,Original*%
%TF.FileFunction,Legend,Top*%
%TF.FilePolarity,Positive*%
%FSLAX46Y46*%
G04 Gerber Fmt 4.6, Leading zero omitted, Abs format (unit mm)*
G04 Created by KiCad (PCBNEW 7.0.6) date 2023-09-19 12:43:23*
%MOMM*%
%LPD*%
G01*
G04 APERTURE LIST*
%ADD10C,0.150000*%
%ADD11C,0.120000*%
G04 APERTURE END LIST*
D10*
X13572874Y-1968420D02*
X13757745Y-2658367D01*
X13757745Y-2658367D02*
X13748722Y-2808681D01*
X13748722Y-2808681D02*
X13681379Y-2925324D01*
X13681379Y-2925324D02*
X13555714Y-3008294D01*
X13555714Y-3008294D02*
X13463721Y-3032944D01*
X14446807Y-1734251D02*
X14262821Y-1783549D01*
X14262821Y-1783549D02*
X14183153Y-1854195D01*
X14183153Y-1854195D02*
X14149481Y-1912516D01*
X14149481Y-1912516D02*
X14094462Y-2075155D01*
X14094462Y-2075155D02*
X14097765Y-2271466D01*
X14097765Y-2271466D02*
X14196362Y-2639438D01*
X14196362Y-2639438D02*
X14267008Y-2719106D01*
X14267008Y-2719106D02*
X14325330Y-2752778D01*
X14325330Y-2752778D02*
X14429647Y-2774125D01*
X14429647Y-2774125D02*
X14613633Y-2724826D01*
X14613633Y-2724826D02*
X14693301Y-2654180D01*
X14693301Y-2654180D02*
X14726973Y-2595859D01*
X14726973Y-2595859D02*
X14748320Y-2491541D01*
X14748320Y-2491541D02*
X14686697Y-2261559D01*
X14686697Y-2261559D02*
X14616051Y-2181890D01*
X14616051Y-2181890D02*
X14557729Y-2148219D01*
X14557729Y-2148219D02*
X14453412Y-2126872D01*
X14453412Y-2126872D02*
X14269426Y-2176171D01*
X14269426Y-2176171D02*
X14189758Y-2246816D01*
X14189758Y-2246816D02*
X14156086Y-2305138D01*
X14156086Y-2305138D02*
X14134739Y-2409455D01*
X2595082Y8588177D02*
X1905135Y8403306D01*
X1905135Y8403306D02*
X1754821Y8412329D01*
X1754821Y8412329D02*
X1638178Y8479672D01*
X1638178Y8479672D02*
X1555208Y8605337D01*
X1555208Y8605337D02*
X1530558Y8697330D01*
X2693680Y8220205D02*
X2853901Y7622251D01*
X2853901Y7622251D02*
X2399656Y7845629D01*
X2399656Y7845629D02*
X2436630Y7707639D01*
X2436630Y7707639D02*
X2415283Y7603322D01*
X2415283Y7603322D02*
X2381612Y7545000D01*
X2381612Y7545000D02*
X2301943Y7474354D01*
X2301943Y7474354D02*
X2071961Y7412731D01*
X2071961Y7412731D02*
X1967643Y7434078D01*
X1967643Y7434078D02*
X1909322Y7467750D01*
X1909322Y7467750D02*
X1838676Y7547418D01*
X1838676Y7547418D02*
X1764728Y7823397D01*
X1764728Y7823397D02*
X1786075Y7927714D01*
X1786075Y7927714D02*
X1819747Y7986036D01*
X3942434Y-13826874D02*
X3252487Y-14011745D01*
X3252487Y-14011745D02*
X3102173Y-14002722D01*
X3102173Y-14002722D02*
X2985530Y-13935379D01*
X2985530Y-13935379D02*
X2902560Y-13809714D01*
X2902560Y-13809714D02*
X2877910Y-13717721D01*
X3112080Y-14591654D02*
X3161379Y-14775640D01*
X3161379Y-14775640D02*
X3232025Y-14855308D01*
X3232025Y-14855308D02*
X3290346Y-14888980D01*
X3290346Y-14888980D02*
X3452985Y-14943999D01*
X3452985Y-14943999D02*
X3649295Y-14940697D01*
X3649295Y-14940697D02*
X4017267Y-14842099D01*
X4017267Y-14842099D02*
X4096935Y-14771453D01*
X4096935Y-14771453D02*
X4130607Y-14713132D01*
X4130607Y-14713132D02*
X4151954Y-14608814D01*
X4151954Y-14608814D02*
X4102655Y-14424828D01*
X4102655Y-14424828D02*
X4032009Y-14345160D01*
X4032009Y-14345160D02*
X3973688Y-14311488D01*
X3973688Y-14311488D02*
X3869370Y-14290141D01*
X3869370Y-14290141D02*
X3639388Y-14351765D01*
X3639388Y-14351765D02*
X3559720Y-14422411D01*
X3559720Y-14422411D02*
X3526048Y-14480732D01*
X3526048Y-14480732D02*
X3504701Y-14585049D01*
X3504701Y-14585049D02*
X3554000Y-14769035D01*
X3554000Y-14769035D02*
X3624646Y-14848704D01*
X3624646Y-14848704D02*
X3682967Y-14882375D01*
X3682967Y-14882375D02*
X3787285Y-14903722D01*
X7235892Y6779540D02*
X7925839Y6594670D01*
X7925839Y6594670D02*
X8051504Y6511699D01*
X8051504Y6511699D02*
X8118847Y6395057D01*
X8118847Y6395057D02*
X8127870Y6244742D01*
X8127870Y6244742D02*
X8103220Y6152750D01*
X7792037Y7567200D02*
X8435988Y7394654D01*
X7362442Y7435816D02*
X7990765Y7020963D01*
X7990765Y7020963D02*
X8150986Y7618917D01*
X-7498658Y-9456531D02*
X-6993582Y-9961607D01*
X-6993582Y-9961607D02*
X-6926238Y-10096294D01*
X-6926238Y-10096294D02*
X-6926238Y-10230981D01*
X-6926238Y-10230981D02*
X-6993582Y-10365668D01*
X-6993582Y-10365668D02*
X-7060925Y-10433012D01*
X-6084444Y-9456531D02*
X-6488505Y-9860592D01*
X-6286475Y-9658561D02*
X-6993582Y-8951454D01*
X-6993582Y-8951454D02*
X-6959910Y-9119813D01*
X-6959910Y-9119813D02*
X-6959910Y-9254500D01*
X-6959910Y-9254500D02*
X-6993582Y-9355515D01*
X-5411009Y-8783096D02*
X-5815070Y-9187157D01*
X-5613040Y-8985126D02*
X-6320147Y-8278019D01*
X-6320147Y-8278019D02*
X-6286475Y-8446378D01*
X-6286475Y-8446378D02*
X-6286475Y-8581065D01*
X-6286475Y-8581065D02*
X-6320147Y-8682080D01*
X-2928039Y-13766105D02*
X-2238092Y-13950976D01*
X-2238092Y-13950976D02*
X-2112427Y-14033946D01*
X-2112427Y-14033946D02*
X-2045084Y-14150589D01*
X-2045084Y-14150589D02*
X-2036061Y-14300903D01*
X-2036061Y-14300903D02*
X-2060711Y-14392896D01*
X-1703294Y-13058998D02*
X-1851191Y-13610956D01*
X-1777242Y-13334977D02*
X-2743168Y-13076158D01*
X-2743168Y-13076158D02*
X-2629828Y-13205125D01*
X-2629828Y-13205125D02*
X-2562485Y-13321767D01*
X-2562485Y-13321767D02*
X-2541138Y-13426085D01*
X-2508999Y-12202225D02*
X-2484349Y-12110232D01*
X-2484349Y-12110232D02*
X-2413703Y-12030564D01*
X-2413703Y-12030564D02*
X-2355382Y-11996892D01*
X-2355382Y-11996892D02*
X-2251064Y-11975545D01*
X-2251064Y-11975545D02*
X-2054754Y-11978847D01*
X-2054754Y-11978847D02*
X-1824771Y-12040471D01*
X-1824771Y-12040471D02*
X-1653110Y-12135766D01*
X-1653110Y-12135766D02*
X-1573442Y-12206412D01*
X-1573442Y-12206412D02*
X-1539770Y-12264733D01*
X-1539770Y-12264733D02*
X-1518423Y-12369051D01*
X-1518423Y-12369051D02*
X-1543073Y-12461044D01*
X-1543073Y-12461044D02*
X-1613719Y-12540712D01*
X-1613719Y-12540712D02*
X-1672040Y-12574384D01*
X-1672040Y-12574384D02*
X-1776357Y-12595731D01*
X-1776357Y-12595731D02*
X-1972668Y-12592428D01*
X-1972668Y-12592428D02*
X-2202650Y-12530805D01*
X-2202650Y-12530805D02*
X-2374312Y-12435509D01*
X-2374312Y-12435509D02*
X-2453980Y-12364864D01*
X-2453980Y-12364864D02*
X-2487651Y-12306542D01*
X-2487651Y-12306542D02*
X-2508999Y-12202225D01*
X-3208960Y6907940D02*
X-3714036Y6402864D01*
X-3714036Y6402864D02*
X-3848723Y6335520D01*
X-3848723Y6335520D02*
X-3983410Y6335520D01*
X-3983410Y6335520D02*
X-4118097Y6402864D01*
X-4118097Y6402864D02*
X-4185441Y6470207D01*
X-2973257Y6537551D02*
X-2905914Y6537551D01*
X-2905914Y6537551D02*
X-2804899Y6503879D01*
X-2804899Y6503879D02*
X-2636540Y6335520D01*
X-2636540Y6335520D02*
X-2602868Y6234505D01*
X-2602868Y6234505D02*
X-2602868Y6167161D01*
X-2602868Y6167161D02*
X-2636540Y6066146D01*
X-2636540Y6066146D02*
X-2703883Y5998803D01*
X-2703883Y5998803D02*
X-2838570Y5931459D01*
X-2838570Y5931459D02*
X-3646692Y5931459D01*
X-3646692Y5931459D02*
X-3208960Y5493726D01*
X-9302141Y-3439019D02*
X-9117271Y-4128966D01*
X-9117271Y-4128966D02*
X-9126293Y-4279280D01*
X-9126293Y-4279280D02*
X-9193636Y-4395923D01*
X-9193636Y-4395923D02*
X-9319301Y-4478893D01*
X-9319301Y-4478893D02*
X-9411294Y-4503543D01*
X-8077396Y-4146126D02*
X-8629354Y-4294023D01*
X-8353375Y-4220074D02*
X-8612194Y-3254148D01*
X-8612194Y-3254148D02*
X-8667213Y-3416787D01*
X-8667213Y-3416787D02*
X-8734556Y-3533430D01*
X-8734556Y-3533430D02*
X-8814225Y-3604076D01*
X-7943594Y-3173595D02*
X-7909922Y-3115274D01*
X-7909922Y-3115274D02*
X-7830254Y-3044628D01*
X-7830254Y-3044628D02*
X-7600272Y-2983005D01*
X-7600272Y-2983005D02*
X-7495954Y-3004352D01*
X-7495954Y-3004352D02*
X-7437633Y-3038023D01*
X-7437633Y-3038023D02*
X-7366987Y-3117692D01*
X-7366987Y-3117692D02*
X-7342338Y-3209685D01*
X-7342338Y-3209685D02*
X-7351360Y-3359999D01*
X-7351360Y-3359999D02*
X-7755421Y-4059853D01*
X-7755421Y-4059853D02*
X-7157467Y-3899632D01*
X1404071Y2294910D02*
X898995Y1789834D01*
X898995Y1789834D02*
X764308Y1722490D01*
X764308Y1722490D02*
X629621Y1722490D01*
X629621Y1722490D02*
X494934Y1789834D01*
X494934Y1789834D02*
X427590Y1857177D01*
X1404071Y880696D02*
X1000010Y1284757D01*
X1202041Y1082727D02*
X1909148Y1789834D01*
X1909148Y1789834D02*
X1740789Y1756162D01*
X1740789Y1756162D02*
X1606102Y1756162D01*
X1606102Y1756162D02*
X1505087Y1789834D01*
X2346880Y1352101D02*
X2784613Y914368D01*
X2784613Y914368D02*
X2279537Y880696D01*
X2279537Y880696D02*
X2380552Y779681D01*
X2380552Y779681D02*
X2414224Y678666D01*
X2414224Y678666D02*
X2414224Y611322D01*
X2414224Y611322D02*
X2380552Y510307D01*
X2380552Y510307D02*
X2212193Y341948D01*
X2212193Y341948D02*
X2111178Y308277D01*
X2111178Y308277D02*
X2043835Y308277D01*
X2043835Y308277D02*
X1942819Y341948D01*
X1942819Y341948D02*
X1740789Y543979D01*
X1740789Y543979D02*
X1707117Y644994D01*
X1707117Y644994D02*
X1707117Y712338D01*
X11576387Y3254556D02*
X12081463Y2749480D01*
X12081463Y2749480D02*
X12148807Y2614793D01*
X12148807Y2614793D02*
X12148807Y2480106D01*
X12148807Y2480106D02*
X12081463Y2345419D01*
X12081463Y2345419D02*
X12014120Y2278075D01*
X12249822Y3927991D02*
X11913105Y3591274D01*
X11913105Y3591274D02*
X12216150Y3220885D01*
X12216150Y3220885D02*
X12216150Y3288228D01*
X12216150Y3288228D02*
X12249822Y3389243D01*
X12249822Y3389243D02*
X12418181Y3557602D01*
X12418181Y3557602D02*
X12519196Y3591274D01*
X12519196Y3591274D02*
X12586540Y3591274D01*
X12586540Y3591274D02*
X12687555Y3557602D01*
X12687555Y3557602D02*
X12855914Y3389243D01*
X12855914Y3389243D02*
X12889585Y3288228D01*
X12889585Y3288228D02*
X12889585Y3220885D01*
X12889585Y3220885D02*
X12855914Y3119869D01*
X12855914Y3119869D02*
X12687555Y2951511D01*
X12687555Y2951511D02*
X12586540Y2917839D01*
X12586540Y2917839D02*
X12519196Y2917839D01*
X-7395286Y2550793D02*
X-7580156Y1860846D01*
X-7580156Y1860846D02*
X-7663127Y1735181D01*
X-7663127Y1735181D02*
X-7779769Y1667838D01*
X-7779769Y1667838D02*
X-7930084Y1658815D01*
X-7930084Y1658815D02*
X-8022076Y1683465D01*
X-6688179Y1326048D02*
X-7240136Y1473945D01*
X-6964157Y1399996D02*
X-6705338Y2365922D01*
X-6705338Y2365922D02*
X-6834306Y2252582D01*
X-6834306Y2252582D02*
X-6950948Y2185239D01*
X-6950948Y2185239D02*
X-7055266Y2163892D01*
X12690395Y-7489892D02*
X12505525Y-8179839D01*
X12505525Y-8179839D02*
X12422554Y-8305504D01*
X12422554Y-8305504D02*
X12305912Y-8372847D01*
X12305912Y-8372847D02*
X12155597Y-8381870D01*
X12155597Y-8381870D02*
X12063605Y-8357220D01*
X13058367Y-7588490D02*
X13702318Y-7761036D01*
X13702318Y-7761036D02*
X13029531Y-8616039D01*
X9165410Y-11830388D02*
X8660334Y-12335464D01*
X8660334Y-12335464D02*
X8525647Y-12402808D01*
X8525647Y-12402808D02*
X8390960Y-12402808D01*
X8390960Y-12402808D02*
X8256273Y-12335464D01*
X8256273Y-12335464D02*
X8188929Y-12268121D01*
X9300097Y-12571167D02*
X9266426Y-12470151D01*
X9266426Y-12470151D02*
X9266426Y-12402808D01*
X9266426Y-12402808D02*
X9300097Y-12301793D01*
X9300097Y-12301793D02*
X9333769Y-12268121D01*
X9333769Y-12268121D02*
X9434784Y-12234449D01*
X9434784Y-12234449D02*
X9502128Y-12234449D01*
X9502128Y-12234449D02*
X9603143Y-12268121D01*
X9603143Y-12268121D02*
X9737830Y-12402808D01*
X9737830Y-12402808D02*
X9771502Y-12503823D01*
X9771502Y-12503823D02*
X9771502Y-12571167D01*
X9771502Y-12571167D02*
X9737830Y-12672182D01*
X9737830Y-12672182D02*
X9704158Y-12705854D01*
X9704158Y-12705854D02*
X9603143Y-12739525D01*
X9603143Y-12739525D02*
X9535800Y-12739525D01*
X9535800Y-12739525D02*
X9434784Y-12705854D01*
X9434784Y-12705854D02*
X9300097Y-12571167D01*
X9300097Y-12571167D02*
X9199082Y-12537495D01*
X9199082Y-12537495D02*
X9131739Y-12537495D01*
X9131739Y-12537495D02*
X9030723Y-12571167D01*
X9030723Y-12571167D02*
X8896036Y-12705854D01*
X8896036Y-12705854D02*
X8862365Y-12806869D01*
X8862365Y-12806869D02*
X8862365Y-12874212D01*
X8862365Y-12874212D02*
X8896036Y-12975228D01*
X8896036Y-12975228D02*
X9030723Y-13109915D01*
X9030723Y-13109915D02*
X9131739Y-13143586D01*
X9131739Y-13143586D02*
X9199082Y-13143586D01*
X9199082Y-13143586D02*
X9300097Y-13109915D01*
X9300097Y-13109915D02*
X9434784Y-12975228D01*
X9434784Y-12975228D02*
X9468456Y-12874212D01*
X9468456Y-12874212D02*
X9468456Y-12806869D01*
X9468456Y-12806869D02*
X9434784Y-12705854D01*
D11*
%TO.C,J6*%
X14704609Y-235419D02*
G75*
G03*
X14704609Y-235419I-1250999J0D01*
G01*
%TO.C,J3*%
X1232417Y7542756D02*
G75*
G03*
X1232417Y7542756I-1250999J0D01*
G01*
%TO.C,J9*%
X6926435Y-13707610D02*
G75*
G03*
X6926435Y-13707610I-1250999J0D01*
G01*
%TO.C,J4*%
X6926436Y7542756D02*
G75*
G03*
X6926436Y7542756I-1250999J0D01*
G01*
%TO.C,J11*%
X-3698748Y-10860603D02*
G75*
G03*
X-3698748Y-10860603I-1251000J0D01*
G01*
%TO.C,J10*%
X1232417Y-13707612D02*
G75*
G03*
X1232417Y-13707612I-1250999J0D01*
G01*
%TO.C,J2*%
X-3698749Y4695747D02*
G75*
G03*
X-3698749Y4695747I-1251000J0D01*
G01*
%TO.C,J12*%
X-6545757Y-5929437D02*
G75*
G03*
X-6545757Y-5929437I-1250999J0D01*
G01*
%TO.C,J13*%
X1251000Y-254000D02*
G75*
G03*
X1251000Y-254000I-1251000J0D01*
G01*
%TO.C,J5*%
X11857601Y4695748D02*
G75*
G03*
X11857601Y4695748I-1251000J0D01*
G01*
%TO.C,J1*%
X-6545758Y-235417D02*
G75*
G03*
X-6545758Y-235417I-1250999J0D01*
G01*
%TO.C,J7*%
X14704610Y-5929437D02*
G75*
G03*
X14704610Y-5929437I-1250999J0D01*
G01*
%TO.C,J8*%
X11857602Y-10860602D02*
G75*
G03*
X11857602Y-10860602I-1251000J0D01*
G01*
%TD*%
M02*
