M48
; DRILL file {KiCad 7.0.6} date Tue Sep 19 12:43:32 2023
; FORMAT={-:-/ absolute / inch / decimal}
; #@! TF.CreationDate,2023-09-19T12:43:32+08:00
; #@! TF.GenerationSoftware,Kicad,Pcbnew,7.0.6
; #@! TF.FileFunction,Plated,1,2,PTH
FMAT,2
INCH
; #@! TA.AperFunction,Plated,PTH,ComponentDrill
T1C0.0315
; #@! TA.AperFunction,Plated,PTH,ComponentDrill
T2C0.0394
; #@! TA.AperFunction,Plated,PTH,ComponentDrill
T3C0.0598
%
G90
G05
T1
X-0.425Y0.315
X-0.425Y0.015
X-0.425Y-0.07
X-0.425Y-0.37
X-0.425Y-0.455
X-0.425Y-0.755
X-0.42Y0.42
X-0.305Y-0.455
X-0.305Y-0.755
X-0.12Y0.42
X-0.035Y0.42
X-0.035Y-0.75
X0.265Y0.42
X0.265Y-0.75
X0.35Y0.42
X0.53Y-0.455
X0.53Y-0.755
X0.65Y0.42
X0.65Y0.315
X0.65Y0.015
X0.65Y-0.07
X0.65Y-0.37
X0.65Y-0.455
X0.65Y-0.755
T2
X-0.307Y-0.0093
X-0.307Y-0.2334
X-0.1949Y0.1849
X-0.1949Y-0.4276
X-0.0007Y0.297
X-0.0007Y-0.5397
X0.0Y-0.01
X0.2234Y-0.5397
X0.2234Y0.297
X0.4176Y0.1849
X0.4176Y-0.4276
X0.5297Y-0.0093
X0.5297Y-0.2334
T3
X0.0631Y-0.3539
X0.2045Y-0.2125
X0.3459Y-0.0711
T0
M30
