0
SECTION
2
HEADER
9
$INSUNITS
70
4
9
$ACADVER
1
AC1014
9
$HANDSEED
5
FFFF
0
ENDSEC
0
SECTION
2
TABLES
0
TABLE
2
VPORT
5
8
100
AcDbSymbolTable
0
ENDTAB
0
TABLE
2
LTYPE
5
5
100
AcDbSymbolTable
0
LTYPE
5
14
100
AcDbSymbolTableRecord
100
AcDbLinetypeTableRecord
2
BYBLOCK
70
0
0
LTYPE
5
15
100
AcDbSymbolTableRecord
100
AcDbLinetypeTableRecord
2
BYLAYER
70
0
0
ENDTAB
0
TABLE
2
LAYER
5
2
100
AcDbSymbolTable
70
2
0
LAYER
5
50
100
AcDbSymbolTableRecord
100
AcDbLayerTableRecord
2
0
70
0
6
CONTINUOUS
0
ENDTAB
0
TABLE
2
STYLE
5
3
100
AcDbSymbolTable
70
1
0
STYLE
5
11
100
AcDbSymbolTableRecord
100
AcDbTextStyleTableRecord
2
STANDARD
70
0
0
ENDTAB
0
TABLE
2
VIEW
5
6
100
AcDbSymbolTable
70
0
0
ENDTAB
0
TABLE
2
UCS
5
7
100
AcDbSymbolTable
70
0
0
ENDTAB
0
TABLE
2
APPID
5
9
100
AcDbSymbolTable
70
2
0
APPID
5
12
100
AcDbSymbolTableRecord
100
AcDbRegAppTableRecord
2
ACAD
70
0
0
ENDTAB
0
TABLE
2
DIMSTYLE
5
A
100
AcDbSymbolTable
70
1
0
ENDTAB
0
TABLE
2
BLOCK_RECORD
5
1
100
AcDbSymbolTable
70
1
0
BLOCK_RECORD
5
1F
100
AcDbSymbolTableRecord
100
AcDbBlockTableRecord
2
*MODEL_SPACE
0
BLOCK_RECORD
5
1B
100
AcDbSymbolTableRecord
100
AcDbBlockTableRecord
2
*PAPER_SPACE
0
ENDTAB
0
ENDSEC
0
SECTION
2
BLOCKS
0
BLOCK
5
20
100
AcDbEntity
100
AcDbBlockBegin
2
*MODEL_SPACE
0
ENDBLK
5
21
100
AcDbEntity
100
AcDbBlockEnd
0
BLOCK
5
1C
100
AcDbEntity
100
AcDbBlockBegin
2
*PAPER_SPACE
0
ENDBLK
5
1D
100
AcDbEntity
100
AcDbBlockEnd
0
ENDSEC
0
SECTION
2
ENTITIES
0
CIRCLE
5
100
100
AcDbEntity
8
0
100
AcDbCircle
10
-471.99999999999994
20
95.750000000000028
30
0
40
1.6659999999999999
210
0
220
-0
230
1
0
LWPOLYLINE
5
101
100
AcDbEntity
8
0
100
AcDbPolyline
90
4
70
1
43
0.0
10
5
20
145
10
-725
20
145
10
-725
20
-3.0000000000000071
10
5
20
-2.9999999999999982
0
CIRCLE
5
102
100
AcDbEntity
8
0
100
AcDbCircle
10
-648.375
20
70
30
0
40
1.7000000000000011
210
0
220
-0
230
1
0
CIRCLE
5
103
100
AcDbEntity
8
0
100
AcDbCircle
10
-619.62500000000034
20
70.000000000001464
30
0
40
1.7000000000000011
210
0
220
-0
230
1
0
CIRCLE
5
104
100
AcDbEntity
8
0
100
AcDbCircle
10
-594.375
20
70
30
0
40
1.7000000000000011
210
0
220
-0
230
1
0
CIRCLE
5
105
100
AcDbEntity
8
0
100
AcDbCircle
10
-565.62500000000023
20
70.000000000001464
30
0
40
1.7000000000000011
210
0
220
-0
230
1
0
CIRCLE
5
106
100
AcDbEntity
8
0
100
AcDbCircle
10
-540.375
20
70
30
0
40
1.7000000000000011
210
0
220
-0
230
1
0
CIRCLE
5
107
100
AcDbEntity
8
0
100
AcDbCircle
10
-511.62500000000028
20
70.000000000001464
30
0
40
1.7000000000000011
210
0
220
-0
230
1
0
CIRCLE
5
108
100
AcDbEntity
8
0
100
AcDbCircle
10
-486.375
20
70
30
0
40
1.7000000000000011
210
0
220
-0
230
1
0
CIRCLE
5
109
100
AcDbEntity
8
0
100
AcDbCircle
10
-457.62500000000034
20
70.000000000001464
30
0
40
1.7000000000000011
210
0
220
-0
230
1
0
CIRCLE
5
110
100
AcDbEntity
8
0
100
AcDbCircle
10
-712.99999999999977
20
70
30
0
40
1.7000000000000011
210
0
220
-0
230
1
0
CIRCLE
5
111
100
AcDbEntity
8
0
100
AcDbCircle
10
-663.00000000000011
20
69.999999999999488
30
0
40
1.7000000000000011
210
0
220
-0
230
1
0
CIRCLE
5
112
100
AcDbEntity
8
0
100
AcDbCircle
10
-609.54999999999995
20
105.00000000000001
30
0
40
1.7000000000000011
210
0
220
-0
230
1
0
CIRCLE
5
113
100
AcDbEntity
8
0
100
AcDbCircle
10
-604.54999999999995
20
111.35000000000002
30
0
40
1.199999999999998
210
0
220
-0
230
1
0
CIRCLE
5
114
100
AcDbEntity
8
0
100
AcDbCircle
10
-614.54999999999995
20
111.35000000000002
30
0
40
1.199999999999998
210
0
220
-0
230
1
0
CIRCLE
5
115
100
AcDbEntity
8
0
100
AcDbCircle
10
-555.54999999999995
20
105.00000000000001
30
0
40
1.7000000000000011
210
0
220
-0
230
1
0
CIRCLE
5
116
100
AcDbEntity
8
0
100
AcDbCircle
10
-550.54999999999995
20
111.35000000000002
30
0
40
1.199999999999998
210
0
220
-0
230
1
0
CIRCLE
5
117
100
AcDbEntity
8
0
100
AcDbCircle
10
-560.54999999999995
20
111.35000000000002
30
0
40
1.199999999999998
210
0
220
-0
230
1
0
CIRCLE
5
118
100
AcDbEntity
8
0
100
AcDbCircle
10
-501.54999999999995
20
105.00000000000001
30
0
40
1.7000000000000011
210
0
220
-0
230
1
0
CIRCLE
5
119
100
AcDbEntity
8
0
100
AcDbCircle
10
-496.54999999999995
20
111.35000000000002
30
0
40
1.199999999999998
210
0
220
-0
230
1
0
CIRCLE
5
120
100
AcDbEntity
8
0
100
AcDbCircle
10
-506.54999999999995
20
111.35000000000002
30
0
40
1.199999999999998
210
0
220
-0
230
1
0
CIRCLE
5
121
100
AcDbEntity
8
0
100
AcDbCircle
10
-157.00000000000006
20
68.500000000000014
30
0
40
1.7000000000000002
210
0
220
-0
230
1
0
CIRCLE
5
122
100
AcDbEntity
8
0
100
AcDbCircle
10
-248
20
118.50000000000001
30
0
40
1.7000000000000002
210
0
220
-0
230
1
0
CIRCLE
5
123
100
AcDbEntity
8
0
100
AcDbCircle
10
-157.00000000000006
20
118.50000000000001
30
0
40
1.7000000000000002
210
0
220
-0
230
1
0
CIRCLE
5
124
100
AcDbEntity
8
0
100
AcDbCircle
10
-248
20
68.500000000000014
30
0
40
1.7000000000000002
210
0
220
-0
230
1
0
CIRCLE
5
125
100
AcDbEntity
8
0
100
AcDbCircle
10
-100.00000000000003
20
98.5
30
0
40
1.199999999999998
210
0
220
-0
230
1
0
CIRCLE
5
126
100
AcDbEntity
8
0
100
AcDbCircle
10
-35.000000000000071
20
98.499999999999829
30
0
40
1.199999999999998
210
0
220
-0
230
1
0
LWPOLYLINE
5
127
100
AcDbEntity
8
0
100
AcDbPolyline
90
4
70
1
43
0.0
10
-696.5
20
19.499999999999929
10
-696.5
20
50.499999999999915
10
-679.50000000000023
20
50.499999999999915
10
-679.50000000000023
20
19.499999999999929
0
LWPOLYLINE
5
128
100
AcDbEntity
8
0
100
AcDbPolyline
90
4
70
1
43
0.0
10
-642.5
20
19.499999999999929
10
-642.5
20
50.499999999999915
10
-625.50000000000023
20
50.499999999999915
10
-625.50000000000023
20
19.499999999999929
0
LWPOLYLINE
5
129
100
AcDbEntity
8
0
100
AcDbPolyline
90
4
70
1
43
0.0
10
-588.50000000000011
20
19.499999999999929
10
-588.50000000000011
20
50.499999999999915
10
-571.50000000000023
20
50.499999999999915
10
-571.50000000000023
20
19.499999999999929
0
LWPOLYLINE
5
130
100
AcDbEntity
8
0
100
AcDbPolyline
90
4
70
1
43
0.0
10
-534.5
20
19.499999999999929
10
-534.5
20
50.499999999999915
10
-517.50000000000011
20
50.499999999999915
10
-517.50000000000011
20
19.499999999999929
0
LWPOLYLINE
5
131
100
AcDbEntity
8
0
100
AcDbPolyline
90
4
70
1
43
0.0
10
-480.50000000000006
20
19.499999999999929
10
-480.50000000000006
20
50.499999999999915
10
-463.50000000000017
20
50.499999999999915
10
-463.50000000000017
20
19.499999999999929
0
LWPOLYLINE
5
132
100
AcDbEntity
8
0
100
AcDbPolyline
90
4
70
1
43
0.0
10
-675.70000000000061
20
103.5000000000001
10
-675.70000000000061
20
106.50000000000011
10
-674.80000000000075
20
106.50000000000011
10
-674.80000000000075
20
103.5000000000001
0
CIRCLE
5
133
100
AcDbEntity
8
0
100
AcDbCircle
10
-609.54999999999995
20
111.35000000000002
30
0
40
1.1999999999999922
210
0
220
-0
230
1
0
LWPOLYLINE
5
134
100
AcDbEntity
8
0
100
AcDbPolyline
90
4
70
1
43
0.0
10
-626.69999999999982
20
106.42817590365554
10
-625.29999999999984
20
106.42817590365554
10
-625.29999999999995
20
103.42817590365556
10
-626.69999999999982
20
103.42817590365556
0
CIRCLE
5
135
100
AcDbEntity
8
0
100
AcDbCircle
10
-555.54999999999995
20
111.35000000000002
30
0
40
1.1999999999999922
210
0
220
-0
230
1
0
LWPOLYLINE
5
136
100
AcDbEntity
8
0
100
AcDbPolyline
90
4
70
1
43
0.0
10
-572.69999999999993
20
106.42817590365554
10
-571.29999999999984
20
106.42817590365554
10
-571.30000000000007
20
103.42817590365556
10
-572.69999999999993
20
103.42817590365556
0
CIRCLE
5
137
100
AcDbEntity
8
0
100
AcDbCircle
10
-501.54999999999995
20
111.35000000000002
30
0
40
1.1999999999999922
210
0
220
-0
230
1
0
LWPOLYLINE
5
138
100
AcDbEntity
8
0
100
AcDbPolyline
90
4
70
1
43
0.0
10
-518.69999999999993
20
106.42817590365554
10
-517.29999999999995
20
106.42817590365554
10
-517.30000000000007
20
103.42817590365556
10
-518.69999999999993
20
103.42817590365556
0
CIRCLE
5
139
100
AcDbEntity
8
0
100
AcDbCircle
10
-280
20
16.000000000000014
30
0
40
1.7000000000000002
210
0
220
-0
230
1
0
CIRCLE
5
140
100
AcDbEntity
8
0
100
AcDbCircle
10
-447
20
126.50000000000003
30
0
40
1.7000000000000002
210
0
220
-0
230
1
0
CIRCLE
5
141
100
AcDbEntity
8
0
100
AcDbCircle
10
-440
20
16.000000000000014
30
0
40
1.7000000000000002
210
0
220
-0
230
1
0
CIRCLE
5
142
100
AcDbEntity
8
0
100
AcDbCircle
10
-273
20
126.50000000000003
30
0
40
1.7000000000000002
210
0
220
-0
230
1
0
LWPOLYLINE
5
143
100
AcDbEntity
8
0
100
AcDbPolyline
90
4
70
1
43
0.0
10
-285
20
136.50000000000003
10
-285
20
128.5
10
-435
20
128.5
10
-435
20
136.50000000000003
0
LWPOLYLINE
5
144
100
AcDbEntity
8
0
100
AcDbPolyline
90
4
70
1
43
0.0
10
-256.5
20
72.000000000000014
10
-256.5
20
115
10
-148.50000000000003
20
115
10
-148.50000000000003
20
72.000000000000014
0
CIRCLE
5
145
100
AcDbEntity
8
0
100
AcDbCircle
10
-633.99999999999989
20
105
30
0
40
3.5000000000000142
210
0
220
-0
230
1
0
LWPOLYLINE
5
146
100
AcDbEntity
8
0
100
AcDbPolyline
90
8
70
1
43
0.0
10
-26.000000000000014
20
55.5
42
0.41421356237309609
10
-31.000000000000014
20
60.5
10
-234.00000000000003
20
60.5
42
0.41421356237309293
10
-239
20
55.5
10
-239.00000000000003
20
14.500000000000002
42
0.41421356237309437
10
-234
20
9.4999999999999929
10
-31.000000000000014
20
9.5000000000000107
42
0.41421356237309437
10
-26.000000000000014
20
14.499999999999993
0
LWPOLYLINE
5
147
100
AcDbEntity
8
0
100
AcDbPolyline
90
4
70
1
43
0.0
10
-483.99999999999989
20
77.5
10
-460
20
77.5
10
-460
20
62.5
10
-483.99999999999989
20
62.5
0
CIRCLE
5
148
100
AcDbEntity
8
0
100
AcDbCircle
10
-579.99999999999989
20
105
30
0
40
3.5000000000000142
210
0
220
-0
230
1
0
LWPOLYLINE
5
149
100
AcDbEntity
8
0
100
AcDbPolyline
90
4
70
1
43
0.0
10
-514
20
62.5
10
-537.99999999999989
20
62.5
10
-537.99999999999989
20
77.5
10
-514
20
77.5
0
LWPOLYLINE
5
150
100
AcDbEntity
8
0
100
AcDbPolyline
90
4
70
1
43
0.0
10
-622
20
62.5
10
-646
20
62.5
10
-646
20
77.5
10
-622
20
77.5
0
LWPOLYLINE
5
151
100
AcDbEntity
8
0
100
AcDbPolyline
90
4
70
1
43
0.0
10
-666.99999999999989
20
77
10
-666.99999999999989
20
63
10
-708.99999999999989
20
63
10
-708.99999999999989
20
77
0
LWPOLYLINE
5
152
100
AcDbEntity
8
0
100
AcDbPolyline
90
4
70
1
43
0.0
10
-568
20
62.5
10
-591.99999999999989
20
62.5
10
-591.99999999999989
20
77.5
10
-568
20
77.5
0
LWPOLYLINE
5
153
100
AcDbEntity
8
0
100
AcDbPolyline
90
4
70
1
43
0.0
10
-63.600000000000207
20
71.399999999999977
10
-63.600000000000136
20
92.399999999999977
10
-6.6000000000000369
20
92.399999999999721
10
-6.6000000000001791
20
71.399999999999707
0
CIRCLE
5
154
100
AcDbEntity
8
0
100
AcDbCircle
10
-688
20
105
30
0
40
4.5000000000000284
210
0
220
-0
230
1
0
LWPOLYLINE
5
155
100
AcDbEntity
8
0
100
AcDbPolyline
90
4
70
1
43
0.0
10
-71.400000000000006
20
71.399999999999991
10
-128.40000000000003
20
71.399999999999991
10
-128.40000000000003
20
92.399999999999977
10
-71.400000000000006
20
92.399999999999977
0
CIRCLE
5
156
100
AcDbEntity
8
0
100
AcDbCircle
10
-471.99999999999994
20
105
30
0
40
5
210
0
220
-0
230
1
0
CIRCLE
5
157
100
AcDbEntity
8
0
100
AcDbCircle
10
-526
20
105
30
0
40
3.5000000000000142
210
0
220
-0
230
1
0
ENDSEC
0
SECTION
2
OBJECTS
0
DICTIONARY
5
C
100
AcDbDictionary
3
ACAD_GROUP
350
D
3
ACAD_MLINESTYLE
350
17
0
DICTIONARY
5
D
100
AcDbDictionary
0
DICTIONARY
5
1A
330
C
100
AcDbDictionary
0
DICTIONARY
5
17
100
AcDbDictionary
0
ENDSEC
0
EOF
